<?xml version="1.0" encoding="utf-8"?>
<!-- Generator: Adobe Illustrator 16.0.0, SVG Export Plug-In . SVG Version: 6.00 Build 0)  -->
<!DOCTYPE svg PUBLIC "-//W3C//DTD SVG 1.1//EN" "http://www.w3.org/Graphics/SVG/1.1/DTD/svg11.dtd">
<svg version="1.1" id="Layer_1" xmlns="http://www.w3.org/2000/svg" xmlns:xlink="http://www.w3.org/1999/xlink" x="0px" y="0px"
	 width="127.082px" height="46.27px" viewBox="0 0 127.082 46.27" enable-background="new 0 0 127.082 46.27" xml:space="preserve">
<rect y="0" fill="#FF8E06" width="127.082" height="46.27"/>
<g>
	<path fill="#FFFFFF" d="M32.333,14.172v4.346h6.127v3.348h-6.127v5.345h6.37v3.347H28.5V10.825h10.203v3.347H32.333z"/>
	<path fill="#FFFFFF" d="M45.239,18.896c0.782-1.161,2.051-1.592,3.347-1.592c3.455,0,4.454,2.429,4.454,5.398v7.854h-3.645v-6.802
		c0-1.539,0.055-3.536-1.997-3.536c-2.187,0-2.187,2.43-2.187,3.995v6.343H41.54V17.708h3.671v1.188H45.239z"/>
	<path fill="#FFFFFF" d="M55.986,30.557v-9.745h-1.241v-3.104h1.241v-4.347h3.671v4.347h2.241v3.104h-2.241v9.745H55.986z"/>
	<path fill="#FFFFFF" d="M67.354,19.058c0.756-1.134,1.836-1.754,3.213-1.754c0.513,0,1.024,0.135,1.512,0.297l-0.459,3.401
		c-0.432-0.297-0.944-0.458-1.512-0.458c-2.537,0-2.78,2.24-2.78,4.238v5.775h-3.671v-12.85h3.671v1.35H67.354z"/>
	<path fill="#FFFFFF" d="M81.852,30.557v-1.188h-0.055c-0.781,1.024-2.158,1.618-3.48,1.618c-3.779,0-5.912-3.428-5.912-6.909
		c0-3.401,2.16-6.775,5.857-6.775c1.322,0,2.699,0.567,3.59,1.62v-1.215h3.59v12.849H81.852z M79.152,20.542
		c-1.891,0-3.023,1.861-3.023,3.59c0,1.728,1.135,3.59,3.023,3.59s3.05-1.862,3.05-3.59C82.202,22.404,81.041,20.542,79.152,20.542z
		"/>
	<path fill="#FFFFFF" d="M92.005,19.058c0.757-1.134,1.835-1.754,3.212-1.754c0.514,0,1.025,0.135,1.512,0.297l-0.459,3.401
		c-0.432-0.297-0.943-0.458-1.512-0.458c-2.537,0-2.779,2.24-2.779,4.238v5.775h-3.672v-12.85h3.672v1.35H92.005z"/>
</g>
</svg>
