<?xml version="1.0" encoding="utf-8"?>
<!-- Generator: Adobe Illustrator 16.0.0, SVG Export Plug-In . SVG Version: 6.00 Build 0)  -->
<!DOCTYPE svg PUBLIC "-//W3C//DTD SVG 1.1//EN" "http://www.w3.org/Graphics/SVG/1.1/DTD/svg11.dtd">
<svg version="1.1" id="Layer_1" xmlns="http://www.w3.org/2000/svg" xmlns:xlink="http://www.w3.org/1999/xlink" x="0px" y="0px"
	 width="252.263px" height="127.795px" viewBox="0 0 252.263 127.795" enable-background="new 0 0 252.263 127.795"
	 xml:space="preserve">
<g>
	
		<path fill="none" stroke="#FFFFFF" stroke-width="2.8346" stroke-linecap="round" stroke-linejoin="round" stroke-miterlimit="10" d="
		M33.085,14.273c0-1.515,1.304-2.861,2.86-2.861c1.599,0,2.861,1.346,2.861,2.861c0,1.599-1.262,2.903-2.861,2.903
		C34.389,17.176,33.085,15.872,33.085,14.273z M33.926,21.762c0-1.094,1.178-1.599,2.019-1.599c1.136,0,2.104,0.505,2.104,1.599
		c0,5.553,0.547,12.957,0.547,18.552c0,1.43-1.136,2.271-2.65,2.271c-1.43,0-2.608-0.841-2.608-2.271
		C33.337,34.719,33.926,27.314,33.926,21.762z"/>
	
		<path fill="none" stroke="#FFFFFF" stroke-width="2.8346" stroke-linecap="round" stroke-linejoin="round" stroke-miterlimit="10" d="
		M52.689,16.377c-2.819,0-4.417,1.556-4.417,4.838v11.737c0,3.281,1.599,4.838,4.375,4.838c2.734,0,4.417-1.557,4.417-4.838V30.47
		h-3.408c-1.094,0-1.683-1.052-1.683-2.146c0-1.052,0.589-2.146,1.683-2.146h7.152c1.094,0,1.725,0.841,1.725,1.767v5.006
		c0,7.025-4.333,9.634-9.886,9.634c-5.553,0-9.844-2.608-9.844-9.634V21.215c0-7.026,4.333-9.634,9.676-9.634
		c5.806,0,10.054,3.029,10.054,8.077c0,2.104-0.925,2.608-2.734,2.608c-1.472,0-2.692-0.42-2.734-1.725
		C56.938,18.564,56.265,16.377,52.689,16.377z"/>
	
		<path fill="none" stroke="#FFFFFF" stroke-width="2.8346" stroke-linecap="round" stroke-linejoin="round" stroke-miterlimit="10" d="
		M64.722,40.062c0-0.084,0.042-0.252,0.084-0.421l8.119-26.461c0.378-1.262,1.935-1.851,3.492-1.851
		c1.599,0,3.155,0.589,3.534,1.851l8.119,26.461c0.042,0.168,0.084,0.294,0.084,0.421c0,1.304-1.977,2.271-3.449,2.271
		c-0.926,0-1.641-0.294-1.851-1.094l-1.599-5.595h-9.634l-1.599,5.595c-0.21,0.799-0.925,1.094-1.851,1.094
		C66.7,42.333,64.722,41.408,64.722,40.062z M80.077,31.353l-3.66-12.915l-3.66,12.915H80.077z"/>
	
		<path fill="none" stroke="#FFFFFF" stroke-width="2.8346" stroke-linecap="round" stroke-linejoin="round" stroke-miterlimit="10" d="
		M105.572,40.608l-9.044-16.912v16.912c0,1.136-1.388,1.725-2.734,1.725c-1.389,0-2.735-0.589-2.735-1.725V13.306
		c0-1.178,1.346-1.725,2.735-1.725c1.977,0,2.776,0.42,4.081,2.903l8.119,15.691V13.264c0-1.178,1.346-1.683,2.734-1.683
		c1.346,0,2.734,0.505,2.734,1.683v27.345c0,1.136-1.388,1.725-2.734,1.725C107.423,42.333,106.288,41.912,105.572,40.608z"/>
	
		<path fill="none" stroke="#FFFFFF" stroke-width="2.8346" stroke-linecap="round" stroke-linejoin="round" stroke-miterlimit="10" d="
		M114.366,40.062c0-0.084,0.042-0.252,0.084-0.421l8.119-26.461c0.378-1.262,1.935-1.851,3.492-1.851
		c1.599,0,3.155,0.589,3.534,1.851l8.119,26.461c0.042,0.168,0.084,0.294,0.084,0.421c0,1.304-1.977,2.271-3.449,2.271
		c-0.926,0-1.641-0.294-1.851-1.094l-1.599-5.595h-9.634l-1.599,5.595c-0.21,0.799-0.925,1.094-1.851,1.094
		C116.344,42.333,114.366,41.408,114.366,40.062z M129.721,31.353l-3.66-12.915l-3.66,12.915H129.721z"/>
	
		<path fill="none" stroke="#FFFFFF" stroke-width="2.8346" stroke-linecap="round" stroke-linejoin="round" stroke-miterlimit="10" d="
		M163.714,13.264c0-1.178,1.348-1.683,2.734-1.683c1.348,0,2.734,0.505,2.734,1.683v19.688c0,7.025-4.459,9.634-10.095,9.634
		c-5.68,0-10.097-2.608-10.097-9.634V13.264c0-1.178,1.346-1.683,2.734-1.683c1.346,0,2.734,0.505,2.734,1.683v19.688
		c0,3.281,1.725,4.838,4.628,4.838c2.902,0,4.626-1.557,4.626-4.838V13.264z"/>
	
		<path fill="none" stroke="#FFFFFF" stroke-width="2.8346" stroke-linecap="round" stroke-linejoin="round" stroke-miterlimit="10" d="
		M188.623,40.608l-9.045-16.912v16.912c0,1.136-1.389,1.725-2.734,1.725c-1.389,0-2.734-0.589-2.734-1.725V13.306
		c0-1.178,1.346-1.725,2.734-1.725c1.977,0,2.775,0.42,4.08,2.903l8.119,15.691V13.264c0-1.178,1.346-1.683,2.734-1.683
		c1.346,0,2.734,0.505,2.734,1.683v27.345c0,1.136-1.389,1.725-2.734,1.725C190.472,42.333,189.337,41.912,188.623,40.608z"/>
	
		<path fill="none" stroke="#FFFFFF" stroke-width="2.8346" stroke-linecap="round" stroke-linejoin="round" stroke-miterlimit="10" d="
		M197.416,40.062c0-0.084,0.043-0.252,0.084-0.421l8.119-26.461c0.379-1.262,1.936-1.851,3.492-1.851
		c1.598,0,3.154,0.589,3.533,1.851l8.119,26.461c0.043,0.168,0.084,0.294,0.084,0.421c0,1.304-1.977,2.271-3.449,2.271
		c-0.926,0-1.641-0.294-1.852-1.094l-1.598-5.595h-9.633l-1.6,5.595c-0.211,0.799-0.926,1.094-1.852,1.094
		C199.392,42.333,197.416,41.408,197.416,40.062z M212.771,31.353l-3.66-12.915l-3.66,12.915H212.771z"/>
	
		<path fill="none" stroke="#FFFFFF" stroke-width="2.8346" stroke-linecap="round" stroke-linejoin="round" stroke-miterlimit="10" d="
		M25.364,67.269c-0.462,0.841-1.178,1.094-1.851,1.094c-0.673,0-1.346-0.252-1.809-1.094l-4.838-9.087v18.426
		c0,1.136-1.388,1.725-2.734,1.725c-1.389,0-2.735-0.589-2.735-1.725V50.315c0-2.02,1.346-2.734,2.735-2.734
		c1.977,0,2.86,0.42,4.249,2.903l5.175,9.423l5.174-9.423c1.388-2.482,2.313-2.903,4.291-2.903c1.388,0,2.734,0.715,2.734,2.734
		v26.293c0,1.136-1.388,1.725-2.734,1.725c-1.388,0-2.734-0.589-2.734-1.725v-18.09L25.364,67.269z"/>
	
		<path fill="none" stroke="#FFFFFF" stroke-width="2.8346" stroke-linecap="round" stroke-linejoin="round" stroke-miterlimit="10" d="
		M40.468,68.952V57.215c0-7.026,4.291-9.634,9.844-9.634c5.553,0,9.886,2.608,9.886,9.634v11.737c0,7.025-4.333,9.634-9.886,9.634
		C44.759,78.585,40.468,75.977,40.468,68.952z M54.729,57.215c0-3.324-1.683-4.838-4.417-4.838c-2.777,0-4.375,1.514-4.375,4.838
		v11.737c0,3.323,1.599,4.838,4.375,4.838c2.734,0,4.417-1.515,4.417-4.838V57.215z"/>
	
		<path fill="none" stroke="#FFFFFF" stroke-width="2.8346" stroke-linecap="round" stroke-linejoin="round" stroke-miterlimit="10" d="
		M81.865,47.581c1.178,0,1.725,1.262,1.725,2.44c0,1.304-0.631,2.482-1.725,2.482h-6.142v24.105c0,1.136-1.389,1.725-2.735,1.725
		c-1.388,0-2.734-0.589-2.734-1.725V52.503H64.07c-1.094,0-1.725-1.136-1.725-2.482c0-1.178,0.547-2.44,1.725-2.44H81.865z"/>
	
		<path fill="none" stroke="#FFFFFF" stroke-width="2.8346" stroke-linecap="round" stroke-linejoin="round" stroke-miterlimit="10" d="
		M85.738,68.952V57.215c0-7.026,4.291-9.634,9.844-9.634c5.553,0,9.886,2.608,9.886,9.634v11.737c0,7.025-4.333,9.634-9.886,9.634
		C90.029,78.585,85.738,75.977,85.738,68.952z M99.999,57.215c0-3.324-1.683-4.838-4.417-4.838c-2.777,0-4.375,1.514-4.375,4.838
		v11.737c0,3.323,1.599,4.838,4.375,4.838c2.734,0,4.417-1.515,4.417-4.838V57.215z"/>
	
		<path fill="none" stroke="#FFFFFF" stroke-width="2.8346" stroke-linecap="round" stroke-linejoin="round" stroke-miterlimit="10" d="
		M131.3,70.13c0-6.311-13.504-4.375-13.504-14.346c0-6.268,5.385-8.414,10.223-8.414c2.482,0,7.993,0.589,7.993,3.365
		c0,0.968-0.673,2.903-2.188,2.903c-1.304,0-2.271-1.599-5.805-1.599c-3.029,0-4.754,1.22-4.754,3.239
		c0,5.217,13.504,3.408,13.504,14.303c0,6.016-4.207,9.129-10.012,9.129c-5.511,0-9.718-2.776-9.718-5.216
		c0-1.178,1.094-2.945,2.398-2.945c1.725,0,2.86,3.239,7.151,3.239C129.112,73.79,131.3,72.654,131.3,70.13z"/>
	
		<path fill="none" stroke="#FFFFFF" stroke-width="2.8346" stroke-linecap="round" stroke-linejoin="round" stroke-miterlimit="10" d="
		M155.111,49.264c0-1.178,1.347-1.683,2.734-1.683c1.347,0,2.734,0.505,2.734,1.683v19.688c0,7.025-4.459,9.634-10.096,9.634
		c-5.679,0-10.096-2.608-10.096-9.634V49.264c0-1.178,1.346-1.683,2.734-1.683c1.346,0,2.734,0.505,2.734,1.683v19.688
		c0,3.281,1.725,4.838,4.627,4.838c2.903,0,4.627-1.557,4.627-4.838V49.264z"/>
	
		<path fill="none" stroke="#FFFFFF" stroke-width="2.8346" stroke-linecap="round" stroke-linejoin="round" stroke-miterlimit="10" d="
		M170.552,73.537h12.117c1.094,0,1.725,1.262,1.725,2.398s-0.631,2.398-1.725,2.398H165.21c-1.137,0-1.641-0.631-1.641-1.515
		c0-0.547,0.209-1.262,0.588-1.893l12.494-22.548h-10.643c-1.094,0-1.682-1.136-1.682-2.398c0-1.178,0.504-2.398,1.682-2.398h15.986
		c1.094,0,1.641,0.631,1.641,1.472c0,0.589-0.211,1.262-0.631,1.978L170.552,73.537z"/>
	
		<path fill="none" stroke="#FFFFFF" stroke-width="2.8346" stroke-linecap="round" stroke-linejoin="round" stroke-miterlimit="10" d="
		M202.064,49.264c0-1.178,1.346-1.683,2.734-1.683c1.346,0,2.734,0.505,2.734,1.683v19.688c0,7.025-4.459,9.634-10.098,9.634
		c-5.678,0-10.096-2.608-10.096-9.634V49.264c0-1.178,1.346-1.683,2.734-1.683c1.346,0,2.734,0.505,2.734,1.683v19.688
		c0,3.281,1.725,4.838,4.627,4.838c2.904,0,4.629-1.557,4.629-4.838V49.264z"/>
	
		<path fill="none" stroke="#FFFFFF" stroke-width="2.8346" stroke-linecap="round" stroke-linejoin="round" stroke-miterlimit="10" d="
		M212.457,49.264c0-1.178,1.346-1.683,2.734-1.683c1.346,0,2.734,0.505,2.734,1.683v11.485l9.086-12.368
		c0.422-0.589,0.926-0.799,1.516-0.799c1.387,0,3.154,1.43,3.154,2.818c0,0.294-0.043,0.673-0.336,1.052l-7.531,9.423l9.172,13.967
		c0.209,0.294,0.293,0.631,0.293,0.968c0,1.346-1.682,2.734-3.281,2.734c-0.715,0-1.43-0.294-1.893-1.052l-7.908-11.99l-2.271,2.861
		v8.246c0,1.136-1.389,1.725-2.734,1.725c-1.389,0-2.734-0.589-2.734-1.725V49.264z"/>
	
		<path fill="none" stroke="#FFFFFF" stroke-width="2.8346" stroke-linecap="round" stroke-linejoin="round" stroke-miterlimit="10" d="
		M235.679,49.264c0-1.178,1.346-1.683,2.734-1.683c1.346,0,2.734,0.505,2.734,1.683v27.345c0,1.136-1.389,1.725-2.734,1.725
		c-1.389,0-2.734-0.589-2.734-1.725V49.264z"/>
	
		<path fill="none" stroke="#FFFFFF" stroke-width="2.8346" stroke-linecap="round" stroke-linejoin="round" stroke-miterlimit="10" d="
		M68.467,112.062c0-0.084,0.042-0.252,0.084-0.421l8.119-26.461c0.378-1.262,1.935-1.851,3.492-1.851
		c1.599,0,3.155,0.589,3.534,1.851l8.119,26.461c0.042,0.168,0.084,0.294,0.084,0.421c0,1.304-1.977,2.271-3.449,2.271
		c-0.926,0-1.641-0.294-1.851-1.094L85,107.644h-9.634l-1.599,5.595c-0.21,0.799-0.925,1.094-1.851,1.094
		C70.445,114.333,68.467,113.408,68.467,112.062z M83.822,103.353l-3.66-12.915l-3.66,12.915H83.822z"/>
	
		<path fill="none" stroke="#FFFFFF" stroke-width="2.8346" stroke-linecap="round" stroke-linejoin="round" stroke-miterlimit="10" d="
		M104.059,102.848l-6.142,10.812c-0.294,0.505-0.841,0.884-1.515,0.884c-1.472,0-3.576-1.22-3.576-2.734
		c0-0.294,0.126-0.631,0.336-1.01l7.278-11.863l-7.025-11.821c-0.252-0.421-0.378-0.799-0.378-1.178
		c0-1.473,1.935-2.566,3.492-2.566c0.841,0,1.43,0.463,1.809,1.178l5.721,10.307l5.721-10.307c0.421-0.715,0.968-1.178,1.851-1.178
		c1.557,0,3.492,1.094,3.492,2.566c0,0.378-0.126,0.757-0.379,1.178l-7.025,11.821l7.278,11.863c0.21,0.378,0.294,0.715,0.294,1.01
		c0,1.514-2.061,2.734-3.576,2.734c-0.673,0-1.22-0.379-1.472-0.884L104.059,102.848z"/>
	
		<path fill="none" stroke="#FFFFFF" stroke-width="2.8346" stroke-linecap="round" stroke-linejoin="round" stroke-miterlimit="10" d="
		M128.545,90.144l-1.346,1.346c-0.336,0.294-0.715,0.379-1.01,0.379c-1.052,0-1.767-1.094-1.767-2.188
		c0-0.757,0.379-1.556,1.052-1.977l4.964-3.786c0.294-0.252,0.673-0.421,1.136-0.421c1.136,0,2.44,0.673,2.44,1.767v27.345
		c0,1.136-1.388,1.725-2.734,1.725c-1.388,0-2.734-0.589-2.734-1.725V90.144z"/>
	
		<path fill="none" stroke="#FFFFFF" stroke-width="2.8346" stroke-linecap="round" stroke-linejoin="round" stroke-miterlimit="10" d="
		M138.348,104.952V93.215c0-7.026,4.291-9.634,9.844-9.634s9.886,2.608,9.886,9.634v11.737c0,7.025-4.333,9.634-9.886,9.634
		S138.348,111.977,138.348,104.952z M152.609,93.215c0-3.324-1.683-4.838-4.417-4.838c-2.777,0-4.375,1.514-4.375,4.838v11.737
		c0,3.323,1.599,4.838,4.375,4.838c2.734,0,4.417-1.515,4.417-4.838V93.215z M150.169,99.104c0,1.136-0.757,1.978-1.935,1.978
		c-1.22,0-1.977-0.841-1.977-1.978c0-1.178,0.757-1.935,1.977-1.935C149.412,97.169,150.169,97.926,150.169,99.104z"/>
	
		<path fill="none" stroke="#FFFFFF" stroke-width="2.8346" stroke-linecap="round" stroke-linejoin="round" stroke-miterlimit="10" d="
		M161.951,104.952V93.215c0-7.026,4.291-9.634,9.844-9.634s9.885,2.608,9.885,9.634v11.737c0,7.025-4.332,9.634-9.885,9.634
		S161.951,111.977,161.951,104.952z M176.21,93.215c0-3.324-1.682-4.838-4.416-4.838c-2.777,0-4.375,1.514-4.375,4.838v11.737
		c0,3.323,1.598,4.838,4.375,4.838c2.734,0,4.416-1.515,4.416-4.838V93.215z M173.771,99.104c0,1.136-0.758,1.978-1.936,1.978
		c-1.219,0-1.977-0.841-1.977-1.978c0-1.178,0.758-1.935,1.977-1.935C173.013,97.169,173.771,97.926,173.771,99.104z"/>
	
		<path fill="none" stroke="#FFFFFF" stroke-width="2.8346" stroke-linecap="round" stroke-linejoin="round" stroke-miterlimit="10" d="
		M191.105,111.725c0,1.515-1.305,2.861-2.861,2.861c-1.641,0-2.861-1.346-2.861-2.861c0-1.556,1.221-2.86,2.861-2.86
		C189.8,108.864,191.105,110.168,191.105,111.725z M190.263,104.237c0,1.136-1.221,1.598-2.061,1.598
		c-1.096,0-2.062-0.462-2.062-1.598c0-5.553-0.547-12.958-0.547-18.51c0-1.473,1.137-2.314,2.609-2.314
		c1.43,0,2.648,0.841,2.648,2.314C190.851,91.279,190.263,98.684,190.263,104.237z"/>
</g>
<g>
	<path fill="#9F2050" d="M33.085,14.526c0-1.515,1.304-2.861,2.86-2.861c1.599,0,2.861,1.346,2.861,2.861
		c0,1.599-1.262,2.903-2.861,2.903C34.389,17.429,33.085,16.125,33.085,14.526z M33.926,22.014c0-1.094,1.178-1.599,2.019-1.599
		c1.136,0,2.104,0.505,2.104,1.599c0,5.553,0.547,12.957,0.547,18.552c0,1.43-1.136,2.271-2.65,2.271
		c-1.43,0-2.608-0.841-2.608-2.271C33.337,34.971,33.926,27.567,33.926,22.014z"/>
	<path fill="#9F2050" d="M52.689,16.629c-2.819,0-4.417,1.556-4.417,4.838v11.737c0,3.281,1.599,4.838,4.375,4.838
		c2.734,0,4.417-1.557,4.417-4.838v-2.482h-3.408c-1.094,0-1.683-1.052-1.683-2.146c0-1.052,0.589-2.146,1.683-2.146h7.152
		c1.094,0,1.725,0.841,1.725,1.767v5.006c0,7.025-4.333,9.634-9.886,9.634c-5.553,0-9.844-2.608-9.844-9.634V21.467
		c0-7.026,4.333-9.634,9.676-9.634c5.806,0,10.054,3.029,10.054,8.077c0,2.104-0.925,2.608-2.734,2.608
		c-1.472,0-2.692-0.42-2.734-1.725C56.938,18.817,56.265,16.629,52.689,16.629z"/>
	<path fill="#9F2050" d="M64.722,40.314c0-0.084,0.042-0.252,0.084-0.421l8.119-26.461c0.378-1.262,1.935-1.851,3.492-1.851
		c1.599,0,3.155,0.589,3.534,1.851l8.119,26.461c0.042,0.168,0.084,0.294,0.084,0.421c0,1.304-1.977,2.271-3.449,2.271
		c-0.926,0-1.641-0.294-1.851-1.094l-1.599-5.595h-9.634l-1.599,5.595c-0.21,0.799-0.925,1.094-1.851,1.094
		C66.7,42.585,64.722,41.66,64.722,40.314z M80.077,31.605l-3.66-12.915l-3.66,12.915H80.077z"/>
	<path fill="#9F2050" d="M105.572,40.861l-9.044-16.912v16.912c0,1.136-1.388,1.725-2.734,1.725c-1.389,0-2.735-0.589-2.735-1.725
		V13.558c0-1.178,1.346-1.725,2.735-1.725c1.977,0,2.776,0.42,4.081,2.903l8.119,15.691V13.516c0-1.178,1.346-1.683,2.734-1.683
		c1.346,0,2.734,0.505,2.734,1.683v27.345c0,1.136-1.388,1.725-2.734,1.725C107.423,42.585,106.288,42.165,105.572,40.861z"/>
	<path fill="#9F2050" d="M114.366,40.314c0-0.084,0.042-0.252,0.084-0.421l8.119-26.461c0.378-1.262,1.935-1.851,3.492-1.851
		c1.599,0,3.155,0.589,3.534,1.851l8.119,26.461c0.042,0.168,0.084,0.294,0.084,0.421c0,1.304-1.977,2.271-3.449,2.271
		c-0.926,0-1.641-0.294-1.851-1.094l-1.599-5.595h-9.634l-1.599,5.595c-0.21,0.799-0.925,1.094-1.851,1.094
		C116.344,42.585,114.366,41.66,114.366,40.314z M129.721,31.605l-3.66-12.915l-3.66,12.915H129.721z"/>
	<path fill="#9F2050" d="M163.714,13.516c0-1.178,1.348-1.683,2.734-1.683c1.348,0,2.734,0.505,2.734,1.683v19.688
		c0,7.025-4.459,9.634-10.095,9.634c-5.68,0-10.097-2.608-10.097-9.634V13.516c0-1.178,1.346-1.683,2.734-1.683
		c1.346,0,2.734,0.505,2.734,1.683v19.688c0,3.281,1.725,4.838,4.628,4.838c2.902,0,4.626-1.557,4.626-4.838V13.516z"/>
	<path fill="#9F2050" d="M188.623,40.861l-9.045-16.912v16.912c0,1.136-1.389,1.725-2.734,1.725c-1.389,0-2.734-0.589-2.734-1.725
		V13.558c0-1.178,1.346-1.725,2.734-1.725c1.977,0,2.775,0.42,4.08,2.903l8.119,15.691V13.516c0-1.178,1.346-1.683,2.734-1.683
		c1.346,0,2.734,0.505,2.734,1.683v27.345c0,1.136-1.389,1.725-2.734,1.725C190.472,42.585,189.337,42.165,188.623,40.861z"/>
	<path fill="#9F2050" d="M197.416,40.314c0-0.084,0.043-0.252,0.084-0.421l8.119-26.461c0.379-1.262,1.936-1.851,3.492-1.851
		c1.598,0,3.154,0.589,3.533,1.851l8.119,26.461c0.043,0.168,0.084,0.294,0.084,0.421c0,1.304-1.977,2.271-3.449,2.271
		c-0.926,0-1.641-0.294-1.852-1.094l-1.598-5.595h-9.633l-1.6,5.595c-0.211,0.799-0.926,1.094-1.852,1.094
		C199.392,42.585,197.416,41.66,197.416,40.314z M212.771,31.605l-3.66-12.915l-3.66,12.915H212.771z"/>
	<path fill="#9F2050" d="M25.364,67.521c-0.462,0.841-1.178,1.094-1.851,1.094c-0.673,0-1.346-0.252-1.809-1.094l-4.838-9.087
		v18.426c0,1.136-1.388,1.725-2.734,1.725c-1.389,0-2.735-0.589-2.735-1.725V50.568c0-2.02,1.346-2.734,2.735-2.734
		c1.977,0,2.86,0.42,4.249,2.903l5.175,9.423l5.174-9.423c1.388-2.482,2.313-2.903,4.291-2.903c1.388,0,2.734,0.715,2.734,2.734
		v26.293c0,1.136-1.388,1.725-2.734,1.725c-1.388,0-2.734-0.589-2.734-1.725v-18.09L25.364,67.521z"/>
	<path fill="#9F2050" d="M40.468,69.204V57.467c0-7.026,4.291-9.634,9.844-9.634c5.553,0,9.886,2.608,9.886,9.634v11.737
		c0,7.025-4.333,9.634-9.886,9.634C44.759,78.838,40.468,76.229,40.468,69.204z M54.729,57.467c0-3.324-1.683-4.838-4.417-4.838
		c-2.777,0-4.375,1.514-4.375,4.838v11.737c0,3.323,1.599,4.838,4.375,4.838c2.734,0,4.417-1.515,4.417-4.838V57.467z"/>
	<path fill="#9F2050" d="M81.865,47.833c1.178,0,1.725,1.262,1.725,2.44c0,1.304-0.631,2.482-1.725,2.482h-6.142v24.105
		c0,1.136-1.389,1.725-2.735,1.725c-1.388,0-2.734-0.589-2.734-1.725V52.755H64.07c-1.094,0-1.725-1.136-1.725-2.482
		c0-1.178,0.547-2.44,1.725-2.44H81.865z"/>
	<path fill="#9F2050" d="M85.738,69.204V57.467c0-7.026,4.291-9.634,9.844-9.634c5.553,0,9.886,2.608,9.886,9.634v11.737
		c0,7.025-4.333,9.634-9.886,9.634C90.029,78.838,85.738,76.229,85.738,69.204z M99.999,57.467c0-3.324-1.683-4.838-4.417-4.838
		c-2.777,0-4.375,1.514-4.375,4.838v11.737c0,3.323,1.599,4.838,4.375,4.838c2.734,0,4.417-1.515,4.417-4.838V57.467z"/>
	<path fill="#9F2050" d="M131.3,70.382c0-6.311-13.504-4.375-13.504-14.346c0-6.268,5.385-8.414,10.223-8.414
		c2.482,0,7.993,0.589,7.993,3.365c0,0.968-0.673,2.903-2.188,2.903c-1.304,0-2.271-1.599-5.805-1.599
		c-3.029,0-4.754,1.22-4.754,3.239c0,5.217,13.504,3.408,13.504,14.303c0,6.016-4.207,9.129-10.012,9.129
		c-5.511,0-9.718-2.776-9.718-5.216c0-1.178,1.094-2.945,2.398-2.945c1.725,0,2.86,3.239,7.151,3.239
		C129.112,74.042,131.3,72.906,131.3,70.382z"/>
	<path fill="#9F2050" d="M155.111,49.516c0-1.178,1.347-1.683,2.734-1.683c1.347,0,2.734,0.505,2.734,1.683v19.688
		c0,7.025-4.459,9.634-10.096,9.634c-5.679,0-10.096-2.608-10.096-9.634V49.516c0-1.178,1.346-1.683,2.734-1.683
		c1.346,0,2.734,0.505,2.734,1.683v19.688c0,3.281,1.725,4.838,4.627,4.838c2.903,0,4.627-1.557,4.627-4.838V49.516z"/>
	<path fill="#9F2050" d="M170.552,73.79h12.117c1.094,0,1.725,1.262,1.725,2.398s-0.631,2.398-1.725,2.398H165.21
		c-1.137,0-1.641-0.631-1.641-1.515c0-0.547,0.209-1.262,0.588-1.893l12.494-22.548h-10.643c-1.094,0-1.682-1.136-1.682-2.398
		c0-1.178,0.504-2.398,1.682-2.398h15.986c1.094,0,1.641,0.631,1.641,1.472c0,0.589-0.211,1.262-0.631,1.978L170.552,73.79z"/>
	<path fill="#9F2050" d="M202.064,49.516c0-1.178,1.346-1.683,2.734-1.683c1.346,0,2.734,0.505,2.734,1.683v19.688
		c0,7.025-4.459,9.634-10.098,9.634c-5.678,0-10.096-2.608-10.096-9.634V49.516c0-1.178,1.346-1.683,2.734-1.683
		c1.346,0,2.734,0.505,2.734,1.683v19.688c0,3.281,1.725,4.838,4.627,4.838c2.904,0,4.629-1.557,4.629-4.838V49.516z"/>
	<path fill="#9F2050" d="M212.457,49.516c0-1.178,1.346-1.683,2.734-1.683c1.346,0,2.734,0.505,2.734,1.683v11.485l9.086-12.368
		c0.422-0.589,0.926-0.799,1.516-0.799c1.387,0,3.154,1.43,3.154,2.818c0,0.294-0.043,0.673-0.336,1.052l-7.531,9.423l9.172,13.967
		c0.209,0.294,0.293,0.631,0.293,0.968c0,1.346-1.682,2.734-3.281,2.734c-0.715,0-1.43-0.294-1.893-1.052l-7.908-11.99l-2.271,2.861
		v8.246c0,1.136-1.389,1.725-2.734,1.725c-1.389,0-2.734-0.589-2.734-1.725V49.516z"/>
	<path fill="#9F2050" d="M235.679,49.516c0-1.178,1.346-1.683,2.734-1.683c1.346,0,2.734,0.505,2.734,1.683v27.345
		c0,1.136-1.389,1.725-2.734,1.725c-1.389,0-2.734-0.589-2.734-1.725V49.516z"/>
	<path fill="#9F2050" d="M68.467,112.314c0-0.084,0.042-0.252,0.084-0.421l8.119-26.461c0.378-1.262,1.935-1.851,3.492-1.851
		c1.599,0,3.155,0.589,3.534,1.851l8.119,26.461c0.042,0.168,0.084,0.294,0.084,0.421c0,1.304-1.977,2.271-3.449,2.271
		c-0.926,0-1.641-0.294-1.851-1.094L85,107.896h-9.634l-1.599,5.595c-0.21,0.799-0.925,1.094-1.851,1.094
		C70.445,114.585,68.467,113.66,68.467,112.314z M83.822,103.605l-3.66-12.915l-3.66,12.915H83.822z"/>
	<path fill="#9F2050" d="M104.059,103.101l-6.142,10.812c-0.294,0.505-0.841,0.884-1.515,0.884c-1.472,0-3.576-1.22-3.576-2.734
		c0-0.294,0.126-0.631,0.336-1.01l7.278-11.863l-7.025-11.821c-0.252-0.421-0.378-0.799-0.378-1.178
		c0-1.473,1.935-2.566,3.492-2.566c0.841,0,1.43,0.463,1.809,1.178l5.721,10.307l5.721-10.307c0.421-0.715,0.968-1.178,1.851-1.178
		c1.557,0,3.492,1.094,3.492,2.566c0,0.378-0.126,0.757-0.379,1.178l-7.025,11.821l7.278,11.863c0.21,0.378,0.294,0.715,0.294,1.01
		c0,1.514-2.061,2.734-3.576,2.734c-0.673,0-1.22-0.379-1.472-0.884L104.059,103.101z"/>
	<path fill="#9F2050" d="M128.545,90.396l-1.346,1.346c-0.336,0.294-0.715,0.379-1.01,0.379c-1.052,0-1.767-1.094-1.767-2.188
		c0-0.757,0.379-1.556,1.052-1.977l4.964-3.786c0.294-0.252,0.673-0.421,1.136-0.421c1.136,0,2.44,0.673,2.44,1.767v27.345
		c0,1.136-1.388,1.725-2.734,1.725c-1.388,0-2.734-0.589-2.734-1.725V90.396z"/>
	<path fill="#9F2050" d="M138.348,105.204V93.467c0-7.026,4.291-9.634,9.844-9.634s9.886,2.608,9.886,9.634v11.737
		c0,7.025-4.333,9.634-9.886,9.634S138.348,112.229,138.348,105.204z M152.609,93.467c0-3.324-1.683-4.838-4.417-4.838
		c-2.777,0-4.375,1.514-4.375,4.838v11.737c0,3.323,1.599,4.838,4.375,4.838c2.734,0,4.417-1.515,4.417-4.838V93.467z
		 M150.169,99.356c0,1.136-0.757,1.978-1.935,1.978c-1.22,0-1.977-0.841-1.977-1.978c0-1.178,0.757-1.935,1.977-1.935
		C149.412,97.421,150.169,98.179,150.169,99.356z"/>
	<path fill="#9F2050" d="M161.951,105.204V93.467c0-7.026,4.291-9.634,9.844-9.634s9.885,2.608,9.885,9.634v11.737
		c0,7.025-4.332,9.634-9.885,9.634S161.951,112.229,161.951,105.204z M176.21,93.467c0-3.324-1.682-4.838-4.416-4.838
		c-2.777,0-4.375,1.514-4.375,4.838v11.737c0,3.323,1.598,4.838,4.375,4.838c2.734,0,4.416-1.515,4.416-4.838V93.467z
		 M173.771,99.356c0,1.136-0.758,1.978-1.936,1.978c-1.219,0-1.977-0.841-1.977-1.978c0-1.178,0.758-1.935,1.977-1.935
		C173.013,97.421,173.771,98.179,173.771,99.356z"/>
	<path fill="#9F2050" d="M191.105,111.977c0,1.515-1.305,2.861-2.861,2.861c-1.641,0-2.861-1.346-2.861-2.861
		c0-1.556,1.221-2.86,2.861-2.86C189.8,109.117,191.105,110.421,191.105,111.977z M190.263,104.489c0,1.136-1.221,1.598-2.061,1.598
		c-1.096,0-2.062-0.462-2.062-1.598c0-5.553-0.547-12.958-0.547-18.51c0-1.473,1.137-2.314,2.609-2.314
		c1.43,0,2.648,0.841,2.648,2.314C190.851,91.532,190.263,98.936,190.263,104.489z"/>
</g>
</svg>
