<?xml version="1.0" encoding="utf-8"?>
<!-- Generator: Adobe Illustrator 16.0.0, SVG Export Plug-In . SVG Version: 6.00 Build 0)  -->
<!DOCTYPE svg PUBLIC "-//W3C//DTD SVG 1.1//EN" "http://www.w3.org/Graphics/SVG/1.1/DTD/svg11.dtd">
<svg version="1.1" id="Layer_1" xmlns="http://www.w3.org/2000/svg" xmlns:xlink="http://www.w3.org/1999/xlink" x="0px" y="0px"
	 width="513.586px" height="555.583px" viewBox="0 0 513.586 555.583" enable-background="new 0 0 513.586 555.583"
	 xml:space="preserve">
<rect x="72.083" y="230.512" fill="#FFC303" width="378.999" height="254"/>
<rect x="72.083" y="187.512" fill="#FFC303" width="104.462" height="43"/>
<g>
	<path fill="#FFFFFF" d="M217.193,14.787c1.291,0,2.363,1.073,2.363,2.393c0,1.292-1.072,2.337-2.363,2.337
		c-1.32,0-2.393-1.045-2.393-2.337C214.801,15.859,215.873,14.787,217.193,14.787z M215.295,35.409V21.083h3.768v14.326H215.295z"/>
	<path fill="#FFFFFF" d="M233.168,22.458V14.54h3.906v20.1h-3.906v-8.991h-7.258v8.991h-3.904v-20.1h3.904v7.919H233.168z"/>
	<path fill="#FFFFFF" d="M239.523,24.576c0-5.967,3.934-10.559,9.928-10.559s9.953,4.592,9.953,10.559
		c0,5.912-3.822,10.586-9.953,10.586C243.318,35.162,239.523,30.487,239.523,24.576z M243.566,24.411
		c0,3.08,1.539,6.901,5.885,6.901c4.344,0,5.883-3.822,5.883-6.901c0-3.245-2.172-6.517-5.883-6.517
		C245.766,17.894,243.566,21.166,243.566,24.411z"/>
	<path fill="#FFFFFF" d="M271.754,31.229v3.41h-9.459v-20.1h3.904v16.69H271.754z"/>
	<path fill="#FFFFFF" d="M277.283,34.639h-4.125l7.838-20.622h3.023l7.617,20.622h-4.18l-1.539-4.234h-6.984L277.283,34.639z
		 M282.26,19.901l-2.199,7.314h4.758l-2.504-7.314H282.26z"/>
	<path fill="#FFFFFF" d="M295.188,35.162c-1.293,0-2.365-1.072-2.365-2.392c0-1.292,1.072-2.337,2.365-2.337
		c1.32,0,2.393,1.045,2.393,2.337C297.58,34.089,296.508,35.162,295.188,35.162z M297.084,14.54v14.325h-3.768V14.54H297.084z"/>
	<path fill="#FFFFFF" d="M105.244,63.639l-4.867-8.111h-0.055v8.111h-3.904v-20.1h5.307c3.959,0,6.709,1.76,6.709,6.049
		c0,2.557-1.43,5.114-4.098,5.582L110,63.639H105.244z M100.844,52.806c2.145,0,3.658-0.66,3.658-3.107
		c0-2.475-1.568-2.942-3.631-2.942h-0.549v6.049H100.844z"/>
	<path fill="#FFFFFF" d="M116.768,64.079c-4.098,0-6.875-2.915-6.875-6.957c0-4.097,2.805-6.984,6.875-6.984
		s6.873,2.887,6.873,6.984C123.641,61.165,120.865,64.079,116.768,64.079z M116.768,60.752c1.924,0,3.08-1.87,3.08-3.629
		c0-1.815-1.156-3.685-3.08-3.685c-1.926,0-3.08,1.87-3.08,3.685C113.688,58.882,114.842,60.752,116.768,60.752z"/>
	<path fill="#FFFFFF" d="M132.582,53.273c-2.117,0-3.299,1.98-3.299,3.905c0,2.035,1.291,3.739,3.436,3.739
		c0.99,0,1.926-0.495,2.613-1.237v3.575c-1.018,0.577-2.09,0.825-3.244,0.825c-3.85,0-6.6-3.189-6.6-6.929
		c0-3.904,2.859-7.011,6.791-7.011c1.045,0,2.145,0.247,3.053,0.825v3.602C134.506,53.768,133.709,53.273,132.582,53.273z"/>
	<path fill="#FFFFFF" d="M139.678,47.279c-1.209,0-2.199-0.99-2.199-2.2s0.99-2.227,2.199-2.227c1.238,0,2.227,1.017,2.227,2.227
		S140.916,47.279,139.678,47.279z M137.836,63.639V50.551h3.711v13.088H137.836z"/>
	<path fill="#FFFFFF" d="M150.512,64.079c-4.096,0-6.873-2.915-6.873-6.957c0-4.097,2.805-6.984,6.873-6.984
		c4.07,0,6.875,2.887,6.875,6.984C157.387,61.165,154.609,64.079,150.512,64.079z M150.512,60.752c1.926,0,3.08-1.87,3.08-3.629
		c0-1.815-1.154-3.685-3.08-3.685c-1.924,0-3.078,1.87-3.078,3.685C147.434,58.882,148.588,60.752,150.512,60.752z"/>
	<path fill="#FFFFFF" d="M181.424,48.874c-1.1-1.32-2.75-2.117-4.428-2.117c-3.738,0-5.91,3.465-5.91,6.929
		c0,3.382,2.254,6.764,5.883,6.764c1.678,0,3.355-0.88,4.455-2.145v4.674c-1.457,0.688-2.914,1.183-4.564,1.183
		c-5.637,0-9.816-4.867-9.816-10.394c0-5.719,4.016-10.751,9.898-10.751c1.568,0,3.135,0.44,4.482,1.182V48.874z"/>
	<path fill="#FFFFFF" d="M189.84,61.219c1.238,0,2.008-0.742,2.502-1.787l3.438,0.55c-0.906,2.612-3.189,4.097-5.939,4.097
		c-4.041,0-6.516-2.887-6.516-6.847c0-3.987,2.09-7.094,6.352-7.094c4.289,0,6.186,3.162,6.186,7.094V57.7h-8.605
		C187.256,59.35,187.916,61.219,189.84,61.219z M189.867,52.75c-1.484,0-2.309,1.265-2.502,2.64h4.977
		C192.178,54.043,191.326,52.75,189.867,52.75z"/>
	<path fill="#FFFFFF" d="M204.746,53.273c-2.117,0-3.299,1.98-3.299,3.905c0,2.035,1.293,3.739,3.438,3.739
		c0.99,0,1.924-0.495,2.611-1.237v3.575c-1.018,0.577-2.09,0.825-3.244,0.825c-3.85,0-6.6-3.189-6.6-6.929
		c0-3.904,2.859-7.011,6.793-7.011c1.045,0,2.145,0.247,3.051,0.825v3.602C206.672,53.768,205.875,53.273,204.746,53.273z"/>
	<path fill="#FFFFFF" d="M211.842,47.279c-1.209,0-2.199-0.99-2.199-2.2s0.99-2.227,2.199-2.227c1.238,0,2.229,1.017,2.229,2.227
		S213.08,47.279,211.842,47.279z M210,63.639V50.551h3.713v13.088H210z"/>
	<path fill="#FFFFFF" d="M216.629,63.639V41.037h3.738v22.602H216.629z"/>
	<path fill="#FFFFFF" d="M225.18,47.279c-1.209,0-2.199-0.99-2.199-2.2s0.99-2.227,2.199-2.227c1.238,0,2.229,1.017,2.229,2.227
		S226.418,47.279,225.18,47.279z M223.338,63.639V50.551h3.713v13.088H223.338z"/>
	<path fill="#FFFFFF" d="M239.096,63.639v-1.21h-0.055c-0.799,1.045-2.201,1.65-3.549,1.65c-3.848,0-6.021-3.492-6.021-7.039
		c0-3.464,2.201-6.901,5.967-6.901c1.348,0,2.75,0.577,3.658,1.649v-1.237h3.656v13.088H239.096z M236.346,53.438
		c-1.926,0-3.08,1.897-3.08,3.657s1.154,3.657,3.08,3.657c1.924,0,3.107-1.897,3.107-3.657S238.27,53.438,236.346,53.438z"/>
	<path fill="#FFFFFF" d="M262.197,63.639l-4.867-8.111h-0.055v8.111h-3.904v-20.1h5.307c3.959,0,6.709,1.76,6.709,6.049
		c0,2.557-1.43,5.114-4.098,5.582l5.664,8.469H262.197z M257.797,52.806c2.145,0,3.658-0.66,3.658-3.107
		c0-2.475-1.568-2.942-3.631-2.942h-0.549v6.049H257.797z"/>
	<path fill="#FFFFFF" d="M273.721,64.079c-4.096,0-6.873-2.915-6.873-6.957c0-4.097,2.805-6.984,6.873-6.984
		c4.07,0,6.875,2.887,6.875,6.984C280.596,61.165,277.818,64.079,273.721,64.079z M273.721,60.752c1.926,0,3.08-1.87,3.08-3.629
		c0-1.815-1.154-3.685-3.08-3.685c-1.924,0-3.078,1.87-3.078,3.685C270.643,58.882,271.797,60.752,273.721,60.752z"/>
	<path fill="#FFFFFF" d="M284.971,47.279c-1.209,0-2.199-0.99-2.199-2.2s0.99-2.227,2.199-2.227c1.238,0,2.227,1.017,2.227,2.227
		S286.209,47.279,284.971,47.279z M283.129,70.623V50.551h3.711v20.072H283.129z"/>
	<path fill="#FFFFFF" d="M298.939,63.639v-1.21h-0.055c-0.797,1.045-2.199,1.65-3.547,1.65c-3.85,0-6.021-3.492-6.021-7.039
		c0-3.464,2.199-6.901,5.967-6.901c1.348,0,2.75,0.577,3.656,1.649v-1.237h3.658v13.088H298.939z M296.189,53.438
		c-1.924,0-3.078,1.897-3.078,3.657s1.154,3.657,3.078,3.657c1.926,0,3.107-1.897,3.107-3.657S298.115,53.438,296.189,53.438z"/>
	<path fill="#FFFFFF" d="M309.941,52.75c-0.604,0-1.209,0.468-1.209,1.1c0,0.962,1.348,1.237,2.695,1.814
		c1.346,0.605,2.693,1.513,2.693,3.767c0,2.915-2.365,4.647-5.113,4.647c-1.76,0-3.465-0.825-4.592-2.2l1.703-2.2
		c0.717,0.797,1.678,1.512,2.777,1.512c0.826,0,1.486-0.55,1.486-1.402c0-1.155-1.32-1.43-2.613-1.979
		c-1.32-0.578-2.611-1.348-2.611-3.437c0-2.447,1.705-4.234,4.152-4.234c1.373,0,3.133,0.412,4.205,1.347l-1.594,2.172
		C311.398,53.136,310.684,52.75,309.941,52.75z"/>
	<path fill="#FFFFFF" d="M337.854,48.874c-1.1-1.32-2.748-2.117-4.426-2.117c-3.74,0-5.912,3.465-5.912,6.929
		c0,3.382,2.256,6.764,5.885,6.764c1.678,0,3.354-0.88,4.453-2.145v4.674c-1.457,0.688-2.914,1.183-4.562,1.183
		c-5.639,0-9.816-4.867-9.816-10.394c0-5.719,4.014-10.751,9.898-10.751c1.566,0,3.135,0.44,4.48,1.182V48.874z"/>
	<path fill="#FFFFFF" d="M348.855,63.639v-1.21h-0.055c-0.797,1.045-2.199,1.65-3.547,1.65c-3.85,0-6.021-3.492-6.021-7.039
		c0-3.464,2.199-6.901,5.967-6.901c1.348,0,2.75,0.577,3.656,1.649v-1.237h3.658v13.088H348.855z M346.105,53.438
		c-1.924,0-3.078,1.897-3.078,3.657s1.154,3.657,3.078,3.657c1.926,0,3.107-1.897,3.107-3.657S348.031,53.438,346.105,53.438z"/>
	<path fill="#FFFFFF" d="M359.197,51.926c0.771-1.155,1.871-1.787,3.273-1.787c0.521,0,1.045,0.137,1.539,0.302l-0.467,3.464
		c-0.439-0.302-0.963-0.467-1.541-0.467c-2.584,0-2.832,2.282-2.832,4.317v5.884h-3.738V50.551h3.738v1.375H359.197z"/>
	<path fill="#FFFFFF" d="M369.648,41.037v10.724c0.854-1.018,2.229-1.622,3.604-1.622c3.711,0,5.967,3.464,5.967,6.901
		c0,3.575-2.174,7.039-6.051,7.039c-1.318,0-2.721-0.605-3.492-1.677h-0.027v1.237h-3.738V41.037H369.648z M372.344,53.438
		c-1.896,0-3.08,1.897-3.08,3.657s1.184,3.657,3.08,3.657c1.926,0,3.107-1.897,3.107-3.657S374.27,53.438,372.344,53.438z"/>
	<path fill="#FFFFFF" d="M391.072,63.639v-1.21h-0.055c-0.799,1.045-2.201,1.65-3.549,1.65c-3.848,0-6.021-3.492-6.021-7.039
		c0-3.464,2.201-6.901,5.967-6.901c1.348,0,2.75,0.577,3.658,1.649v-1.237h3.656v13.088H391.072z M388.322,53.438
		c-1.926,0-3.08,1.897-3.08,3.657s1.154,3.657,3.08,3.657c1.924,0,3.107-1.897,3.107-3.657S390.246,53.438,388.322,53.438z"/>
	<path fill="#FFFFFF" d="M399.488,47.279c-1.209,0-2.199-0.99-2.199-2.2s0.99-2.227,2.199-2.227c1.238,0,2.229,1.017,2.229,2.227
		S400.727,47.279,399.488,47.279z M397.646,70.623V50.551h3.713v20.072H397.646z"/>
	<path fill="#FFFFFF" d="M413.459,63.639v-1.21h-0.055c-0.799,1.045-2.201,1.65-3.549,1.65c-3.848,0-6.021-3.492-6.021-7.039
		c0-3.464,2.201-6.901,5.967-6.901c1.348,0,2.75,0.577,3.658,1.649v-1.237h3.656v13.088H413.459z M410.709,53.438
		c-1.926,0-3.08,1.897-3.08,3.657s1.154,3.657,3.08,3.657c1.924,0,3.107-1.897,3.107-3.657S412.633,53.438,410.709,53.438z"/>
	<path fill="#FFFFFF" d="M420.033,63.639V41.037h3.738v22.602H420.033z"/>
</g>
<g>
	<path fill="#FFFFFF" d="M205.328,110.633c1.209,0,2.212,1.003,2.212,2.238c0,1.209-1.003,2.187-2.212,2.187
		c-1.235,0-2.238-0.978-2.238-2.187C203.09,111.636,204.093,110.633,205.328,110.633z M203.553,129.928v-13.404h3.524v13.404
		H203.553z"/>
	<path fill="#FFFFFF" d="M218.086,129.208l-4.553-7.589h-0.052v7.589h-3.653v-18.806h4.965c3.705,0,6.277,1.646,6.277,5.66
		c0,2.393-1.338,4.785-3.833,5.222l5.3,7.924H218.086z M213.97,119.071c2.007,0,3.422-0.617,3.422-2.907
		c0-2.315-1.467-2.752-3.396-2.752h-0.515v5.66H213.97z"/>
	<path fill="#FFFFFF" d="M229.096,126.944c1.157,0,1.878-0.695,2.341-1.672l3.216,0.515c-0.849,2.444-2.984,3.833-5.557,3.833
		c-3.782,0-6.098-2.702-6.098-6.406c0-3.73,1.955-6.638,5.943-6.638c4.013,0,5.788,2.959,5.788,6.638v0.438h-8.052
		C226.678,125.194,227.295,126.944,229.096,126.944z M229.121,119.02c-1.389,0-2.161,1.183-2.341,2.47h4.656
		C231.282,120.229,230.484,119.02,229.121,119.02z"/>
	<path fill="#FFFFFF" d="M243.036,119.509c-1.98,0-3.087,1.852-3.087,3.653c0,1.904,1.209,3.499,3.216,3.499
		c0.926,0,1.801-0.463,2.443-1.158v3.344c-0.951,0.541-1.955,0.772-3.035,0.772c-3.602,0-6.175-2.985-6.175-6.483
		c0-3.653,2.676-6.561,6.354-6.561c0.978,0,2.007,0.232,2.855,0.772v3.37C244.837,119.972,244.091,119.509,243.036,119.509z"/>
	<path fill="#FFFFFF" d="M251.447,123.599c0,1.389,0.205,3.062,1.98,3.062s2.007-1.672,2.007-3.062v-6.637h3.473v7.203
		c0,3.576-1.826,5.455-5.479,5.455c-3.627,0-5.479-1.878-5.479-5.455v-7.203h3.499V123.599z"/>
	<path fill="#FFFFFF" d="M266.932,126.944c1.157,0,1.878-0.695,2.341-1.672l3.216,0.515c-0.849,2.444-2.984,3.833-5.557,3.833
		c-3.782,0-6.098-2.702-6.098-6.406c0-3.73,1.955-6.638,5.943-6.638c4.013,0,5.788,2.959,5.788,6.638v0.438h-8.052
		C264.514,125.194,265.131,126.944,266.932,126.944z M266.957,119.02c-1.389,0-2.161,1.183-2.341,2.47h4.656
		C269.118,120.229,268.32,119.02,266.957,119.02z"/>
	<path fill="#FFFFFF" d="M278.403,118.248c0.721-1.081,1.749-1.672,3.062-1.672c0.489,0,0.978,0.129,1.44,0.283l-0.438,3.242
		c-0.411-0.283-0.9-0.438-1.44-0.438c-2.418,0-2.649,2.135-2.649,4.039v5.505h-3.499v-12.246h3.499v1.286H278.403z"/>
	<path fill="#FFFFFF" d="M292.396,128.05c-0.72,1.003-2.032,1.57-3.293,1.57c-3.602,0-5.634-3.268-5.634-6.586
		c0-3.242,2.059-6.458,5.583-6.458c1.261,0,2.572,0.541,3.344,1.518h0.052v-10.033h3.473v21.147h-3.473v-1.158H292.396z
		 M289.901,119.663c-1.801,0-2.881,1.775-2.881,3.421s1.08,3.422,2.881,3.422s2.882-1.775,2.882-3.422
		S291.702,119.663,289.901,119.663z"/>
	<path fill="#FFFFFF" d="M307.29,129.208v-1.132h-0.052c-0.746,0.978-2.058,1.544-3.318,1.544c-3.602,0-5.634-3.268-5.634-6.586
		c0-3.242,2.058-6.458,5.582-6.458c1.261,0,2.573,0.541,3.422,1.544v-1.158h3.422v12.246H307.29z M304.718,119.663
		c-1.801,0-2.882,1.775-2.882,3.421s1.081,3.422,2.882,3.422s2.907-1.775,2.907-3.422S306.519,119.663,304.718,119.663z"/>
	<path fill="#FFFFFF" d="M315.416,129.697c-1.209,0-2.212-1.004-2.212-2.239c0-1.209,1.003-2.187,2.212-2.187
		c1.235,0,2.238,0.978,2.238,2.187C317.654,128.693,316.651,129.697,315.416,129.697z M317.191,110.401v13.404h-3.524v-13.404
		H317.191z"/>
</g>
<g>
	<path fill="#FFFFFF" d="M17.812,142.705v3.248h4.58v2.501h-4.58v3.994h4.762v2.501h-7.625v-14.746h7.625v2.501H17.812z"/>
	<path fill="#FFFFFF" d="M27.455,146.235c0.584-0.867,1.533-1.19,2.5-1.19c2.582,0,3.33,1.815,3.33,4.034v5.87h-2.725v-5.083
		c0-1.15,0.041-2.643-1.492-2.643c-1.635,0-1.635,1.815-1.635,2.986v4.74h-2.742v-9.602h2.742v0.888H27.455z"/>
	<path fill="#FFFFFF" d="M35.482,154.95v-7.282h-0.928v-2.32h0.928V142.1h2.744v3.248H39.9v2.32h-1.674v7.282H35.482z"/>
	<path fill="#FFFFFF" d="M43.975,146.356c0.564-0.847,1.373-1.311,2.4-1.311c0.383,0,0.768,0.101,1.131,0.222l-0.344,2.542
		c-0.322-0.222-0.705-0.343-1.129-0.343c-1.896,0-2.078,1.674-2.078,3.167v4.317h-2.744v-9.602h2.744v1.009H43.975z"/>
	<path fill="#FFFFFF" d="M52.73,153.174c0.908,0,1.473-0.544,1.836-1.311l2.521,0.403c-0.666,1.917-2.34,3.006-4.357,3.006
		c-2.965,0-4.781-2.118-4.781-5.023c0-2.925,1.533-5.204,4.66-5.204c3.146,0,4.539,2.319,4.539,5.204v0.343h-6.314
		C50.834,151.803,51.318,153.174,52.73,153.174z M52.75,146.961c-1.09,0-1.693,0.928-1.836,1.937h3.652
		C54.445,147.91,53.82,146.961,52.75,146.961z"/>
	<path fill="#FFFFFF" d="M67.375,146.215c0.545-0.767,1.473-1.17,2.359-1.17c1.189,0,2.119,0.484,2.744,1.493
		c0.584-0.928,1.693-1.493,2.803-1.493c2.441,0,3.047,1.835,3.047,3.934v5.971h-2.744v-5.043c0-0.928,0.061-2.683-1.291-2.683
		c-1.473,0-1.451,2.018-1.451,3.026v4.7h-2.744v-4.861c0-0.948,0.121-2.865-1.311-2.865c-1.514,0-1.434,1.997-1.434,3.026v4.7
		h-2.742v-9.602h2.742v0.868H67.375z"/>
	<path fill="#FFFFFF" d="M86.98,154.95v-0.888h-0.041c-0.584,0.767-1.613,1.21-2.602,1.21c-2.824,0-4.418-2.562-4.418-5.164
		c0-2.542,1.613-5.063,4.377-5.063c0.988,0,2.018,0.423,2.684,1.21v-0.908h2.684v9.602H86.98z M84.963,147.466
		c-1.412,0-2.26,1.392-2.26,2.683s0.848,2.683,2.26,2.683s2.279-1.392,2.279-2.683S86.375,147.466,84.963,147.466z M85.164,143.956
		l-1.391-0.847l2.34-3.288l1.996,1.21L85.164,143.956z"/>
	<path fill="#FFFFFF" d="M95.07,146.961c-0.445,0-0.889,0.343-0.889,0.807c0,0.706,0.988,0.908,1.977,1.331
		c0.988,0.444,1.977,1.11,1.977,2.764c0,2.138-1.734,3.409-3.752,3.409c-1.291,0-2.541-0.605-3.367-1.614l1.25-1.614
		c0.525,0.585,1.23,1.109,2.037,1.109c0.605,0,1.09-0.403,1.09-1.029c0-0.847-0.969-1.049-1.916-1.452
		c-0.969-0.424-1.918-0.989-1.918-2.521c0-1.795,1.252-3.106,3.047-3.106c1.008,0,2.299,0.302,3.086,0.988l-1.17,1.594
		C96.139,147.244,95.613,146.961,95.07,146.961z"/>
	<path fill="#FFFFFF" d="M110.803,145.045c2.723,0,4.377,2.542,4.377,5.063c0,2.623-1.594,5.164-4.438,5.164
		c-0.969,0-1.998-0.444-2.562-1.23h-0.02v6.031h-2.744v-14.725h2.744v0.888C108.785,145.489,109.793,145.045,110.803,145.045z
		 M110.137,147.466c-1.393,0-2.26,1.392-2.26,2.683s0.867,2.683,2.26,2.683c1.412,0,2.279-1.392,2.279-2.683
		S111.549,147.466,110.137,147.466z"/>
	<path fill="#FFFFFF" d="M123.873,154.95v-0.888h-0.039c-0.586,0.767-1.615,1.21-2.604,1.21c-2.824,0-4.418-2.562-4.418-5.164
		c0-2.542,1.615-5.063,4.379-5.063c0.988,0,2.016,0.423,2.682,1.21v-0.908h2.684v9.602H123.873z M121.855,147.466
		c-1.412,0-2.258,1.392-2.258,2.683s0.846,2.683,2.258,2.683s2.279-1.392,2.279-2.683S123.268,147.466,121.855,147.466z"/>
	<path fill="#FFFFFF" d="M131.457,146.356c0.564-0.847,1.373-1.311,2.4-1.311c0.383,0,0.768,0.101,1.131,0.222l-0.344,2.542
		c-0.322-0.222-0.705-0.343-1.129-0.343c-1.896,0-2.078,1.674-2.078,3.167v4.317h-2.744v-9.602h2.744v1.009H131.457z"/>
	<path fill="#FFFFFF" d="M136.924,154.95v-7.282h-0.928v-2.32h0.928V142.1h2.744v3.248h1.674v2.32h-1.674v7.282H136.924z"/>
	<path fill="#FFFFFF" d="M144.326,142.947c-0.887,0-1.613-0.726-1.613-1.614s0.727-1.634,1.613-1.634
		c0.908,0,1.635,0.746,1.635,1.634S145.234,142.947,144.326,142.947z M142.975,154.95v-9.602h2.725v9.602H142.975z"/>
	<path fill="#FFFFFF" d="M152.537,147.345c-1.555,0-2.422,1.453-2.422,2.865c0,1.493,0.949,2.743,2.521,2.743
		c0.727,0,1.412-0.363,1.918-0.908v2.623c-0.748,0.423-1.533,0.605-2.381,0.605c-2.824,0-4.842-2.34-4.842-5.083
		c0-2.864,2.098-5.144,4.982-5.144c0.768,0,1.574,0.181,2.24,0.605v2.643C153.949,147.708,153.363,147.345,152.537,147.345z"/>
	<path fill="#FFFFFF" d="M157.74,142.947c-0.887,0-1.613-0.726-1.613-1.614s0.727-1.634,1.613-1.634
		c0.908,0,1.635,0.746,1.635,1.634S158.648,142.947,157.74,142.947z M156.389,154.95v-9.602h2.725v9.602H156.389z"/>
	<path fill="#FFFFFF" d="M166.637,145.045c2.723,0,4.377,2.542,4.377,5.063c0,2.623-1.594,5.164-4.438,5.164
		c-0.969,0-1.998-0.444-2.562-1.23h-0.02v6.031h-2.744v-14.725h2.744v0.888C164.619,145.489,165.627,145.045,166.637,145.045z
		 M165.971,147.466c-1.393,0-2.26,1.392-2.26,2.683s0.867,2.683,2.26,2.683c1.412,0,2.279-1.392,2.279-2.683
		S167.383,147.466,165.971,147.466z"/>
	<path fill="#FFFFFF" d="M177.166,153.174c0.908,0,1.473-0.544,1.836-1.311l2.521,0.403c-0.666,1.917-2.34,3.006-4.357,3.006
		c-2.965,0-4.781-2.118-4.781-5.023c0-2.925,1.533-5.204,4.66-5.204c3.146,0,4.539,2.319,4.539,5.204v0.343h-6.314
		C175.27,151.803,175.754,153.174,177.166,153.174z M177.186,146.961c-1.09,0-1.693,0.928-1.836,1.937h3.652
		C178.881,147.91,178.256,146.961,177.186,146.961z"/>
	<path fill="#FFFFFF" d="M186.646,146.961c-0.445,0-0.889,0.343-0.889,0.807c0,0.706,0.988,0.908,1.977,1.331
		c0.988,0.444,1.977,1.11,1.977,2.764c0,2.138-1.734,3.409-3.752,3.409c-1.291,0-2.541-0.605-3.367-1.614l1.25-1.614
		c0.525,0.585,1.23,1.109,2.037,1.109c0.605,0,1.09-0.403,1.09-1.029c0-0.847-0.969-1.049-1.916-1.452
		c-0.969-0.424-1.918-0.989-1.918-2.521c0-1.795,1.252-3.106,3.047-3.106c1.008,0,2.299,0.302,3.086,0.988l-1.17,1.594
		C187.715,147.244,187.189,146.961,186.646,146.961z"/>
	<path fill="#FFFFFF" d="M199.758,146.215c0.545-0.767,1.473-1.17,2.359-1.17c1.189,0,2.119,0.484,2.744,1.493
		c0.584-0.928,1.693-1.493,2.803-1.493c2.441,0,3.047,1.835,3.047,3.934v5.971h-2.744v-5.043c0-0.928,0.061-2.683-1.291-2.683
		c-1.473,0-1.451,2.018-1.451,3.026v4.7h-2.744v-4.861c0-0.948,0.121-2.865-1.311-2.865c-1.514,0-1.434,1.997-1.434,3.026v4.7
		h-2.742v-9.602h2.742v0.868H199.758z"/>
	<path fill="#FFFFFF" d="M219.363,154.95v-0.888h-0.041c-0.584,0.767-1.613,1.21-2.602,1.21c-2.824,0-4.418-2.562-4.418-5.164
		c0-2.542,1.613-5.063,4.377-5.063c0.988,0,2.018,0.423,2.684,1.21v-0.908h2.684v9.602H219.363z M217.346,147.466
		c-1.412,0-2.26,1.392-2.26,2.683s0.848,2.683,2.26,2.683s2.279-1.392,2.279-2.683S218.758,147.466,217.346,147.466z
		 M217.547,143.956l-1.391-0.847l2.34-3.288l1.996,1.21L217.547,143.956z"/>
	<path fill="#FFFFFF" d="M227.453,146.961c-0.445,0-0.889,0.343-0.889,0.807c0,0.706,0.988,0.908,1.977,1.331
		c0.988,0.444,1.977,1.11,1.977,2.764c0,2.138-1.734,3.409-3.752,3.409c-1.291,0-2.541-0.605-3.367-1.614l1.25-1.614
		c0.525,0.585,1.23,1.109,2.037,1.109c0.605,0,1.09-0.403,1.09-1.029c0-0.847-0.969-1.049-1.916-1.452
		c-0.969-0.424-1.918-0.989-1.918-2.521c0-1.795,1.252-3.106,3.047-3.106c1.008,0,2.299,0.302,3.086,0.988l-1.17,1.594
		C228.521,147.244,227.996,146.961,227.453,146.961z"/>
	<path fill="#FFFFFF" d="M242.236,155.272c-3.004,0-5.043-2.138-5.043-5.104c0-3.006,2.059-5.124,5.043-5.124
		c2.986,0,5.043,2.118,5.043,5.124C247.279,153.134,245.242,155.272,242.236,155.272z M242.236,152.832
		c1.412,0,2.26-1.372,2.26-2.663c0-1.332-0.848-2.703-2.26-2.703s-2.258,1.372-2.258,2.703
		C239.979,151.46,240.824,152.832,242.236,152.832z"/>
	<path fill="#FFFFFF" d="M254.521,145.045c2.723,0,4.377,2.542,4.377,5.063c0,2.623-1.594,5.164-4.438,5.164
		c-0.969,0-1.998-0.444-2.562-1.23h-0.02v6.031h-2.744v-14.725h2.744v0.888C252.504,145.489,253.512,145.045,254.521,145.045z
		 M253.855,147.466c-1.393,0-2.26,1.392-2.26,2.683s0.867,2.683,2.26,2.683c1.412,0,2.279-1.392,2.279-2.683
		S255.268,147.466,253.855,147.466z"/>
	<path fill="#FFFFFF" d="M265.332,155.272c-3.004,0-5.043-2.138-5.043-5.104c0-3.006,2.059-5.124,5.043-5.124
		c2.986,0,5.043,2.118,5.043,5.124C270.375,153.134,268.338,155.272,265.332,155.272z M265.332,152.832
		c1.412,0,2.26-1.372,2.26-2.663c0-1.332-0.848-2.703-2.26-2.703s-2.258,1.372-2.258,2.703
		C263.074,151.46,263.92,152.832,265.332,152.832z"/>
	<path fill="#FFFFFF" d="M274.996,146.356c0.564-0.847,1.371-1.311,2.4-1.311c0.383,0,0.766,0.101,1.129,0.222l-0.342,2.542
		c-0.324-0.222-0.707-0.343-1.131-0.343c-1.896,0-2.078,1.674-2.078,3.167v4.317h-2.742v-9.602h2.742v1.009H274.996z"/>
	<path fill="#FFFFFF" d="M280.461,154.95v-7.282h-0.928v-2.32h0.928V142.1h2.744v3.248h1.674v2.32h-1.674v7.282H280.461z"/>
	<path fill="#FFFFFF" d="M289.256,150.552c0,1.089,0.162,2.4,1.553,2.4c1.393,0,1.574-1.311,1.574-2.4v-5.205h2.723v5.648
		c0,2.804-1.432,4.276-4.297,4.276c-2.844,0-4.297-1.473-4.297-4.276v-5.648h2.744V150.552z"/>
	<path fill="#FFFFFF" d="M300.008,146.235c0.584-0.867,1.533-1.19,2.5-1.19c2.582,0,3.33,1.815,3.33,4.034v5.87h-2.725v-5.083
		c0-1.15,0.041-2.643-1.492-2.643c-1.635,0-1.635,1.815-1.635,2.986v4.74h-2.742v-9.602h2.742v0.888H300.008z"/>
	<path fill="#FFFFFF" d="M309.326,142.947c-0.887,0-1.613-0.726-1.613-1.614s0.727-1.634,1.613-1.634
		c0.908,0,1.635,0.746,1.635,1.634S310.234,142.947,309.326,142.947z M307.975,154.95v-9.602h2.725v9.602H307.975z"/>
	<path fill="#FFFFFF" d="M319.371,154.042c-0.564,0.787-1.594,1.23-2.582,1.23c-2.824,0-4.418-2.562-4.418-5.164
		c0-2.542,1.613-5.063,4.377-5.063c0.988,0,2.018,0.423,2.623,1.19h0.041v-7.867h2.723v16.582h-2.723v-0.908H319.371z
		 M317.414,147.466c-1.412,0-2.26,1.392-2.26,2.683s0.848,2.683,2.26,2.683s2.26-1.392,2.26-2.683S318.826,147.466,317.414,147.466z
		"/>
	<path fill="#FFFFFF" d="M331.051,154.95v-0.888h-0.039c-0.586,0.767-1.615,1.21-2.604,1.21c-2.824,0-4.418-2.562-4.418-5.164
		c0-2.542,1.615-5.063,4.379-5.063c0.988,0,2.016,0.423,2.682,1.21v-0.908h2.684v9.602H331.051z M329.033,147.466
		c-1.412,0-2.258,1.392-2.258,2.683s0.846,2.683,2.258,2.683s2.279-1.392,2.279-2.683S330.445,147.466,329.033,147.466z"/>
	<path fill="#FFFFFF" d="M342.408,154.042c-0.566,0.787-1.594,1.23-2.582,1.23c-2.824,0-4.418-2.562-4.418-5.164
		c0-2.542,1.613-5.063,4.377-5.063c0.988,0,2.018,0.423,2.623,1.19h0.039v-7.867h2.725v16.582h-2.725v-0.908H342.408z
		 M340.451,147.466c-1.412,0-2.26,1.392-2.26,2.683s0.848,2.683,2.26,2.683s2.258-1.392,2.258-2.683
		S341.863,147.466,340.451,147.466z"/>
	<path fill="#FFFFFF" d="M351.545,153.174c0.908,0,1.473-0.544,1.836-1.311l2.521,0.403c-0.666,1.917-2.34,3.006-4.357,3.006
		c-2.965,0-4.781-2.118-4.781-5.023c0-2.925,1.533-5.204,4.66-5.204c3.146,0,4.539,2.319,4.539,5.204v0.343h-6.314
		C349.648,151.803,350.133,153.174,351.545,153.174z M351.564,146.961c-1.09,0-1.693,0.928-1.836,1.937h3.652
		C353.26,147.91,352.635,146.961,351.564,146.961z"/>
	<path fill="#FFFFFF" d="M361.025,146.961c-0.443,0-0.887,0.343-0.887,0.807c0,0.706,0.988,0.908,1.977,1.331
		c0.988,0.444,1.977,1.11,1.977,2.764c0,2.138-1.734,3.409-3.752,3.409c-1.291,0-2.541-0.605-3.369-1.614l1.25-1.614
		c0.525,0.585,1.23,1.109,2.039,1.109c0.604,0,1.088-0.403,1.088-1.029c0-0.847-0.967-1.049-1.916-1.452
		c-0.969-0.424-1.916-0.989-1.916-2.521c0-1.795,1.25-3.106,3.047-3.106c1.008,0,2.299,0.302,3.086,0.988l-1.17,1.594
		C362.094,147.244,361.57,146.961,361.025,146.961z"/>
	<path fill="#FFFFFF" d="M371.918,154.95v-7.282h-0.928v-2.32h0.928V142.1h2.742v3.248h1.674v2.32h-1.674v7.282H371.918z"/>
	<path fill="#FFFFFF" d="M379.32,142.947c-0.889,0-1.615-0.726-1.615-1.614s0.727-1.634,1.615-1.634
		c0.908,0,1.633,0.746,1.633,1.634S380.229,142.947,379.32,142.947z M377.969,154.95v-9.602h2.723v9.602H377.969z"/>
	<path fill="#FFFFFF" d="M386.984,153.174c0.908,0,1.473-0.544,1.836-1.311l2.521,0.403c-0.666,1.917-2.34,3.006-4.357,3.006
		c-2.965,0-4.779-2.118-4.779-5.023c0-2.925,1.533-5.204,4.658-5.204c3.148,0,4.539,2.319,4.539,5.204v0.343h-6.312
		C385.09,151.803,385.572,153.174,386.984,153.174z M387.006,146.961c-1.09,0-1.695,0.928-1.836,1.937h3.65
		C388.699,147.91,388.074,146.961,387.006,146.961z"/>
	<path fill="#FFFFFF" d="M395.982,146.235c0.584-0.867,1.533-1.19,2.5-1.19c2.582,0,3.33,1.815,3.33,4.034v5.87h-2.725v-5.083
		c0-1.15,0.041-2.643-1.492-2.643c-1.635,0-1.635,1.815-1.635,2.986v4.74h-2.742v-9.602h2.742v0.888H395.982z"/>
	<path fill="#FFFFFF" d="M408.104,153.174c0.908,0,1.473-0.544,1.836-1.311l2.521,0.403c-0.666,1.917-2.34,3.006-4.357,3.006
		c-2.965,0-4.779-2.118-4.779-5.023c0-2.925,1.533-5.204,4.658-5.204c3.148,0,4.539,2.319,4.539,5.204v0.343h-6.312
		C406.209,151.803,406.691,153.174,408.104,153.174z M408.125,146.961c-1.09,0-1.695,0.928-1.836,1.937h3.65
		C409.818,147.91,409.193,146.961,408.125,146.961z"/>
	<path fill="#FFFFFF" d="M417.586,146.961c-0.445,0-0.889,0.343-0.889,0.807c0,0.706,0.988,0.908,1.977,1.331
		c0.988,0.444,1.977,1.11,1.977,2.764c0,2.138-1.734,3.409-3.752,3.409c-1.291,0-2.541-0.605-3.367-1.614l1.25-1.614
		c0.525,0.585,1.23,1.109,2.037,1.109c0.605,0,1.09-0.403,1.09-1.029c0-0.847-0.969-1.049-1.916-1.452
		c-0.969-0.424-1.918-0.989-1.918-2.521c0-1.795,1.252-3.106,3.047-3.106c1.008,0,2.299,0.302,3.086,0.988l-1.17,1.594
		C418.654,147.244,418.129,146.961,417.586,146.961z"/>
	<path fill="#FFFFFF" d="M434.469,154.042c-0.566,0.787-1.594,1.23-2.582,1.23c-2.824,0-4.418-2.562-4.418-5.164
		c0-2.542,1.613-5.063,4.377-5.063c0.988,0,2.018,0.423,2.623,1.19h0.039v-7.867h2.725v16.582h-2.725v-0.908H434.469z
		 M432.512,147.466c-1.412,0-2.26,1.392-2.26,2.683s0.848,2.683,2.26,2.683s2.258-1.392,2.258-2.683
		S433.924,147.466,432.512,147.466z"/>
	<path fill="#FFFFFF" d="M443.605,153.174c0.908,0,1.473-0.544,1.836-1.311l2.521,0.403c-0.666,1.917-2.34,3.006-4.357,3.006
		c-2.965,0-4.779-2.118-4.779-5.023c0-2.925,1.533-5.204,4.658-5.204c3.148,0,4.539,2.319,4.539,5.204v0.343h-6.312
		C441.711,151.803,442.193,153.174,443.605,153.174z M443.627,146.961c-1.09,0-1.695,0.928-1.836,1.937h3.65
		C445.32,147.91,444.695,146.961,443.627,146.961z"/>
	<path fill="#FFFFFF" d="M460.125,160.073c-2.34,0-4.721-1.432-4.842-3.993h2.885c0.143,1.028,0.869,1.694,1.896,1.694
		c1.938,0,1.977-1.715,1.977-3.147v-0.625h-0.039c-0.586,0.767-1.615,1.271-2.623,1.271c-2.805,0-4.316-2.481-4.316-5.043
		c0-2.643,1.594-5.184,4.457-5.184c0.949,0,1.938,0.484,2.482,1.23h0.039v-0.928h2.744v9.017
		C464.785,157.491,463.717,160.073,460.125,160.073z M460.105,147.466c-1.412,0-2.26,1.412-2.26,2.703s0.848,2.663,2.26,2.663
		s2.26-1.372,2.26-2.663S461.518,147.466,460.105,147.466z"/>
	<path fill="#FFFFFF" d="M473.621,154.95v-0.888h-0.041c-0.584,0.767-1.613,1.21-2.602,1.21c-2.824,0-4.418-2.562-4.418-5.164
		c0-2.542,1.613-5.063,4.377-5.063c0.988,0,2.018,0.423,2.684,1.21v-0.908h2.682v9.602H473.621z M471.604,147.466
		c-1.412,0-2.26,1.392-2.26,2.683s0.848,2.683,2.26,2.683s2.279-1.392,2.279-2.683S473.016,147.466,471.604,147.466z"/>
	<path fill="#FFFFFF" d="M481.205,146.235c0.584-0.867,1.533-1.19,2.5-1.19c2.582,0,3.33,1.815,3.33,4.034v5.87h-2.725v-5.083
		c0-1.15,0.041-2.643-1.492-2.643c-1.635,0-1.635,1.815-1.635,2.986v4.74h-2.742v-9.602h2.742v0.888H481.205z"/>
	<path fill="#FFFFFF" d="M495.707,154.95v-0.888h-0.039c-0.586,0.767-1.615,1.21-2.604,1.21c-2.824,0-4.418-2.562-4.418-5.164
		c0-2.542,1.615-5.063,4.379-5.063c0.988,0,2.016,0.423,2.682,1.21v-0.908h2.684v9.602H495.707z M493.689,147.466
		c-1.412,0-2.258,1.392-2.258,2.683s0.846,2.683,2.258,2.683s2.279-1.392,2.279-2.683S495.102,147.466,493.689,147.466z"/>
	<path fill="#FFFFFF" d="M503.293,146.356c0.564-0.847,1.371-1.311,2.4-1.311c0.383,0,0.766,0.101,1.129,0.222l-0.342,2.542
		c-0.324-0.222-0.707-0.343-1.131-0.343c-1.896,0-2.078,1.674-2.078,3.167v4.317h-2.742v-9.602h2.742v1.009H503.293z"/>
</g>
<g>
	<path fill="#FFFFFF" d="M99.119,530.706l1.051-0.71l0.498,0.923L99.56,531.6l1.108,0.696l-0.498,0.924l-1.051-0.725l0.028,1.363
		h-1.193l0.043-1.363l-1.065,0.725l-0.497-0.924l1.079-0.696l-1.094-0.682l0.483-0.923l1.094,0.71l-0.043-1.393h1.193
		L99.119,530.706z"/>
	<path fill="#FFFFFF" d="M101.138,539.797v-10.385h2.756c2.174,0,3.58,0.867,3.58,3.225c0,2.202-1.193,3.282-3.311,3.282h-1.008
		v3.878H101.138z M103.567,534.243c1.207,0,1.847-0.27,1.847-1.619c0-1.336-0.768-1.521-1.904-1.521h-0.354v3.14H103.567z"/>
	<path fill="#FFFFFF" d="M110.486,536.701c0,0.767,0.114,1.69,1.094,1.69c0.98,0,1.108-0.924,1.108-1.69v-3.665h1.918v3.978
		c0,1.975-1.009,3.012-3.026,3.012c-2.003,0-3.025-1.037-3.025-3.012v-3.978h1.932V536.701z"/>
	<path fill="#FFFFFF" d="M119.041,538.547c0.639,0,1.037-0.384,1.292-0.924l1.776,0.284c-0.469,1.35-1.648,2.117-3.068,2.117
		c-2.089,0-3.367-1.492-3.367-3.537c0-2.061,1.08-3.666,3.281-3.666c2.217,0,3.196,1.634,3.196,3.666v0.241h-4.446
		C117.705,537.582,118.046,538.547,119.041,538.547z M119.055,534.171c-0.767,0-1.193,0.654-1.293,1.364h2.571
		C120.248,534.839,119.808,534.171,119.055,534.171z"/>
	<path fill="#FFFFFF" d="M128.034,539.158c-0.397,0.555-1.122,0.867-1.818,0.867c-1.988,0-3.111-1.805-3.111-3.637
		c0-1.79,1.137-3.566,3.083-3.566c0.696,0,1.421,0.299,1.847,0.839h0.028v-5.541h1.918v11.678h-1.918v-0.64H128.034z
		 M126.656,534.527c-0.994,0-1.591,0.98-1.591,1.89s0.597,1.89,1.591,1.89s1.591-0.98,1.591-1.89S127.65,534.527,126.656,534.527z"
		/>
	<path fill="#FFFFFF" d="M134.472,538.547c0.639,0,1.037-0.384,1.292-0.924l1.776,0.284c-0.469,1.35-1.648,2.117-3.068,2.117
		c-2.089,0-3.367-1.492-3.367-3.537c0-2.061,1.08-3.666,3.281-3.666c2.217,0,3.196,1.634,3.196,3.666v0.241h-4.446
		C133.136,537.582,133.477,538.547,134.472,538.547z M134.485,534.171c-0.767,0-1.193,0.654-1.293,1.364h2.571
		C135.679,534.839,135.238,534.171,134.485,534.171z"/>
	<path fill="#FFFFFF" d="M141.149,534.171c-0.312,0-0.625,0.242-0.625,0.568c0,0.497,0.696,0.64,1.393,0.938
		c0.695,0.312,1.392,0.781,1.392,1.946c0,1.506-1.222,2.401-2.643,2.401c-0.909,0-1.789-0.427-2.372-1.137l0.881-1.137
		c0.369,0.412,0.866,0.781,1.435,0.781c0.427,0,0.768-0.284,0.768-0.725c0-0.597-0.682-0.738-1.35-1.022
		c-0.682-0.298-1.35-0.696-1.35-1.775c0-1.265,0.881-2.188,2.145-2.188c0.711,0,1.62,0.214,2.174,0.696l-0.824,1.122
		C141.902,534.371,141.533,534.171,141.149,534.171z"/>
	<path fill="#FFFFFF" d="M150.727,534.171c-0.312,0-0.625,0.242-0.625,0.568c0,0.497,0.696,0.64,1.393,0.938
		c0.695,0.312,1.392,0.781,1.392,1.946c0,1.506-1.222,2.401-2.643,2.401c-0.909,0-1.789-0.427-2.372-1.137l0.881-1.137
		c0.369,0.412,0.866,0.781,1.435,0.781c0.427,0,0.768-0.284,0.768-0.725c0-0.597-0.682-0.738-1.35-1.022
		c-0.682-0.298-1.35-0.696-1.35-1.775c0-1.265,0.881-2.188,2.145-2.188c0.711,0,1.62,0.214,2.174,0.696l-0.824,1.122
		C151.479,534.371,151.11,534.171,150.727,534.171z"/>
	<path fill="#FFFFFF" d="M156.965,538.547c0.639,0,1.037-0.384,1.292-0.924l1.776,0.284c-0.469,1.35-1.648,2.117-3.068,2.117
		c-2.089,0-3.367-1.492-3.367-3.537c0-2.061,1.08-3.666,3.281-3.666c2.217,0,3.196,1.634,3.196,3.666v0.241h-4.446
		C155.629,537.582,155.97,538.547,156.965,538.547z M156.979,534.171c-0.767,0-1.193,0.654-1.293,1.364h2.571
		C158.172,534.839,157.731,534.171,156.979,534.171z"/>
	<path fill="#FFFFFF" d="M164.623,543.406c-1.648,0-3.324-1.009-3.409-2.812h2.031c0.1,0.725,0.61,1.193,1.335,1.193
		c1.364,0,1.393-1.208,1.393-2.217v-0.44h-0.028c-0.412,0.54-1.137,0.896-1.847,0.896c-1.975,0-3.04-1.748-3.04-3.552
		c0-1.861,1.122-3.651,3.139-3.651c0.668,0,1.364,0.342,1.748,0.867h0.028v-0.653h1.932v6.35
		C167.904,541.587,167.151,543.406,164.623,543.406z M164.608,534.527c-0.994,0-1.591,0.994-1.591,1.903s0.597,1.876,1.591,1.876
		c0.995,0,1.591-0.967,1.591-1.876S165.604,534.527,164.608,534.527z"/>
	<path fill="#FFFFFF" d="M171.344,536.701c0,0.767,0.114,1.69,1.094,1.69c0.98,0,1.108-0.924,1.108-1.69v-3.665h1.918v3.978
		c0,1.975-1.009,3.012-3.026,3.012c-2.003,0-3.025-1.037-3.025-3.012v-3.978h1.932V536.701z"/>
	<path fill="#FFFFFF" d="M177.924,531.345c-0.625,0-1.137-0.512-1.137-1.137s0.512-1.15,1.137-1.15c0.639,0,1.15,0.525,1.15,1.15
		S178.562,531.345,177.924,531.345z M176.972,539.797v-6.762h1.918v6.762H176.972z"/>
	<path fill="#FFFFFF" d="M182.343,533.746c0.397-0.597,0.966-0.924,1.69-0.924c0.27,0,0.54,0.071,0.796,0.157l-0.242,1.789
		c-0.227-0.156-0.497-0.241-0.795-0.241c-1.336,0-1.464,1.179-1.464,2.23v3.04h-1.932v-6.762h1.932v0.71H182.343z"/>
	<path fill="#FFFFFF" d="M193.582,532.822c1.918,0,3.083,1.79,3.083,3.566c0,1.847-1.123,3.637-3.126,3.637
		c-0.682,0-1.406-0.312-1.804-0.867h-0.015v4.248h-1.932v-10.37h1.932v0.625C192.161,533.135,192.872,532.822,193.582,532.822z
		 M193.113,534.527c-0.98,0-1.591,0.98-1.591,1.89s0.61,1.89,1.591,1.89c0.994,0,1.605-0.98,1.605-1.89
		S194.107,534.527,193.113,534.527z"/>
	<path fill="#FFFFFF" d="M202.79,539.797v-0.625h-0.029c-0.411,0.54-1.136,0.853-1.832,0.853c-1.989,0-3.111-1.805-3.111-3.637
		c0-1.79,1.137-3.566,3.083-3.566c0.696,0,1.421,0.299,1.89,0.853v-0.639h1.889v6.762H202.79z M201.369,534.527
		c-0.994,0-1.591,0.98-1.591,1.89s0.597,1.89,1.591,1.89s1.605-0.98,1.605-1.89S202.363,534.527,201.369,534.527z"/>
	<path fill="#FFFFFF" d="M208.133,533.746c0.397-0.597,0.966-0.924,1.69-0.924c0.27,0,0.54,0.071,0.796,0.157l-0.242,1.789
		c-0.227-0.156-0.497-0.241-0.795-0.241c-1.336,0-1.464,1.179-1.464,2.23v3.04h-1.932v-6.762h1.932v0.71H208.133z"/>
	<path fill="#FFFFFF" d="M211.984,539.797v-5.128h-0.653v-1.634h0.653v-2.287h1.932v2.287h1.18v1.634h-1.18v5.128H211.984z"/>
	<path fill="#FFFFFF" d="M217.199,531.345c-0.625,0-1.137-0.512-1.137-1.137s0.512-1.15,1.137-1.15c0.639,0,1.15,0.525,1.15,1.15
		S217.838,531.345,217.199,531.345z M216.247,539.797v-6.762h1.918v6.762H216.247z"/>
	<path fill="#FFFFFF" d="M222.981,534.442c-1.094,0-1.704,1.022-1.704,2.017c0,1.052,0.668,1.933,1.775,1.933
		c0.512,0,0.994-0.256,1.35-0.64v1.847c-0.525,0.299-1.079,0.427-1.676,0.427c-1.989,0-3.41-1.648-3.41-3.58
		c0-2.018,1.478-3.623,3.509-3.623c0.54,0,1.108,0.128,1.577,0.427v1.861C223.977,534.698,223.564,534.442,222.981,534.442z"/>
	<path fill="#FFFFFF" d="M226.648,531.345c-0.625,0-1.137-0.512-1.137-1.137s0.512-1.15,1.137-1.15c0.639,0,1.15,0.525,1.15,1.15
		S227.287,531.345,226.648,531.345z M225.696,539.797v-6.762h1.918v6.762H225.696z"/>
	<path fill="#FFFFFF" d="M232.914,532.822c1.918,0,3.083,1.79,3.083,3.566c0,1.847-1.123,3.637-3.126,3.637
		c-0.682,0-1.406-0.312-1.804-0.867h-0.015v4.248h-1.932v-10.37h1.932v0.625C231.493,533.135,232.204,532.822,232.914,532.822z
		 M232.445,534.527c-0.98,0-1.591,0.98-1.591,1.89s0.61,1.89,1.591,1.89c0.994,0,1.605-0.98,1.605-1.89
		S233.439,534.527,232.445,534.527z"/>
	<path fill="#FFFFFF" d="M242.122,539.797v-0.625h-0.029c-0.411,0.54-1.136,0.853-1.832,0.853c-1.989,0-3.111-1.805-3.111-3.637
		c0-1.79,1.137-3.566,3.083-3.566c0.696,0,1.421,0.299,1.89,0.853v-0.639h1.889v6.762H242.122z M240.701,534.527
		c-0.994,0-1.591,0.98-1.591,1.89s0.597,1.89,1.591,1.89s1.605-0.98,1.605-1.89S241.695,534.527,240.701,534.527z"/>
	<path fill="#FFFFFF" d="M247.465,533.661c0.412-0.611,1.079-0.839,1.762-0.839c1.818,0,2.344,1.279,2.344,2.842v4.134h-1.918v-3.58
		c0-0.81,0.028-1.86-1.051-1.86c-1.151,0-1.151,1.278-1.151,2.102v3.339h-1.932v-6.762h1.932v0.625H247.465z"/>
	<path fill="#FFFFFF" d="M257.681,539.158c-0.397,0.555-1.122,0.867-1.818,0.867c-1.988,0-3.111-1.805-3.111-3.637
		c0-1.79,1.137-3.566,3.083-3.566c0.696,0,1.421,0.299,1.847,0.839h0.028v-5.541h1.918v11.678h-1.918v-0.64H257.681z
		 M256.303,534.527c-0.994,0-1.591,0.98-1.591,1.89s0.597,1.89,1.591,1.89s1.591-0.98,1.591-1.89S257.297,534.527,256.303,534.527z"
		/>
	<path fill="#FFFFFF" d="M264.316,540.025c-2.116,0-3.551-1.506-3.551-3.595c0-2.116,1.448-3.608,3.551-3.608
		s3.552,1.492,3.552,3.608C267.868,538.519,266.434,540.025,264.316,540.025z M264.316,538.306c0.995,0,1.592-0.967,1.592-1.876
		c0-0.938-0.597-1.903-1.592-1.903c-0.994,0-1.591,0.966-1.591,1.903C262.726,537.339,263.322,538.306,264.316,538.306z"/>
	<path fill="#FFFFFF" d="M275.087,533.604h0.015c0.412-0.555,1.079-0.782,1.762-0.782c1.818,0,2.344,1.279,2.344,2.842v4.134h-1.918
		v-3.58c0-0.81,0.028-1.86-1.051-1.86c-1.151,0-1.151,1.278-1.151,2.102v3.339h-1.932V528.12h1.932V533.604z"/>
	<path fill="#FFFFFF" d="M285.36,539.797v-0.625h-0.029c-0.411,0.54-1.136,0.853-1.832,0.853c-1.989,0-3.111-1.805-3.111-3.637
		c0-1.79,1.137-3.566,3.083-3.566c0.696,0,1.421,0.299,1.89,0.853v-0.639h1.889v6.762H285.36z M283.939,534.527
		c-0.994,0-1.591,0.98-1.591,1.89s0.597,1.89,1.591,1.89s1.605-0.98,1.605-1.89S284.934,534.527,283.939,534.527z"/>
	<path fill="#FFFFFF" d="M291.044,534.171c-0.312,0-0.625,0.242-0.625,0.568c0,0.497,0.696,0.64,1.393,0.938
		c0.695,0.312,1.392,0.781,1.392,1.946c0,1.506-1.222,2.401-2.643,2.401c-0.909,0-1.789-0.427-2.372-1.137l0.881-1.137
		c0.369,0.412,0.866,0.781,1.435,0.781c0.427,0,0.768-0.284,0.768-0.725c0-0.597-0.682-0.738-1.35-1.022
		c-0.682-0.298-1.35-0.696-1.35-1.775c0-1.265,0.881-2.188,2.145-2.188c0.711,0,1.62,0.214,2.174,0.696l-0.824,1.122
		C291.797,534.371,291.428,534.171,291.044,534.171z"/>
	<path fill="#FFFFFF" d="M294.398,539.797v-5.128h-0.653v-1.634h0.653v-2.287h1.932v2.287h1.18v1.634h-1.18v5.128H294.398z"/>
	<path fill="#FFFFFF" d="M303.151,539.797v-0.625h-0.029c-0.411,0.54-1.136,0.853-1.832,0.853c-1.989,0-3.111-1.805-3.111-3.637
		c0-1.79,1.137-3.566,3.083-3.566c0.696,0,1.421,0.299,1.89,0.853v-0.639h1.889v6.762H303.151z M301.73,534.527
		c-0.994,0-1.591,0.98-1.591,1.89s0.597,1.89,1.591,1.89s1.605-0.98,1.605-1.89S302.725,534.527,301.73,534.527z"/>
	<path fill="#FFFFFF" d="M313.453,538.547c0.639,0,1.037-0.384,1.292-0.924l1.776,0.284c-0.469,1.35-1.648,2.117-3.068,2.117
		c-2.089,0-3.367-1.492-3.367-3.537c0-2.061,1.08-3.666,3.281-3.666c2.217,0,3.196,1.634,3.196,3.666v0.241h-4.446
		C312.117,537.582,312.458,538.547,313.453,538.547z M313.467,534.171c-0.767,0-1.193,0.654-1.293,1.364h2.571
		C314.66,534.839,314.22,534.171,313.467,534.171z"/>
	<path fill="#FFFFFF" d="M317.844,539.797V528.12h1.932v11.678H317.844z"/>
	<path fill="#FFFFFF" d="M328.528,529.143c1.79,0,2.997,1.137,2.997,2.926c0,0.811-0.298,1.705-0.994,2.174
		c0.951,0.412,1.335,1.577,1.335,2.529c0,2.031-1.478,3.295-3.452,3.295c-1.903,0-3.338-1.406-3.452-3.267h2.046
		c0.043,0.823,0.597,1.506,1.492,1.506c0.895,0,1.378-0.853,1.378-1.662c0-0.824-0.54-1.72-1.449-1.648l-0.369,0.028v-1.449h0.213
		c0.866,0,1.321-0.567,1.321-1.435c0-0.682-0.427-1.321-1.18-1.321c-0.725,0-1.107,0.683-1.136,1.308h-1.918
		C325.53,530.336,326.682,529.143,328.528,529.143z"/>
	<path fill="#FFFFFF" d="M336.968,540.067c-2.741,0-3.708-3.225-3.708-5.44c0-2.23,0.938-5.483,3.708-5.483
		c2.784,0,3.722,3.253,3.722,5.483C340.689,536.842,339.724,540.067,336.968,540.067z M336.968,538.306
		c1.449,0,1.747-2.686,1.747-3.708c0-1.052-0.298-3.693-1.747-3.693c-1.421,0-1.733,2.642-1.733,3.693
		C335.234,535.621,335.547,538.306,336.968,538.306z"/>
	<path fill="#FFFFFF" d="M350.893,539.158c-0.397,0.555-1.122,0.867-1.818,0.867c-1.988,0-3.111-1.805-3.111-3.637
		c0-1.79,1.137-3.566,3.083-3.566c0.696,0,1.421,0.299,1.847,0.839h0.028v-5.541h1.918v11.678h-1.918v-0.64H350.893z
		 M349.515,534.527c-0.994,0-1.591,0.98-1.591,1.89s0.597,1.89,1.591,1.89s1.591-0.98,1.591-1.89S350.509,534.527,349.515,534.527z"
		/>
	<path fill="#FFFFFF" d="M357.33,538.547c0.639,0,1.037-0.384,1.292-0.924l1.776,0.284c-0.469,1.35-1.648,2.117-3.068,2.117
		c-2.089,0-3.367-1.492-3.367-3.537c0-2.061,1.08-3.666,3.281-3.666c2.217,0,3.196,1.634,3.196,3.666v0.241h-4.446
		C355.994,537.582,356.335,538.547,357.33,538.547z M357.344,534.171c-0.767,0-1.193,0.654-1.293,1.364h2.571
		C358.537,534.839,358.097,534.171,357.344,534.171z"/>
	<path fill="#FFFFFF" d="M369.009,538.903c-0.539,0.781-1.392,1.164-2.315,1.164c-0.767,0-1.534-0.44-2.045-0.966l1.292-1.491
		c0.1,0.298,0.455,0.667,0.781,0.667c0.995,0,0.867-1.676,0.867-2.344v-6.521h2.031v6.861
		C369.62,537.241,369.592,538.064,369.009,538.903z"/>
	<path fill="#FFFFFF" d="M373.13,536.701c0,0.767,0.114,1.69,1.094,1.69c0.98,0,1.108-0.924,1.108-1.69v-3.665h1.918v3.978
		c0,1.975-1.009,3.012-3.026,3.012c-2.003,0-3.025-1.037-3.025-3.012v-3.978h1.932V536.701z"/>
	<path fill="#FFFFFF" d="M380.704,533.661c0.412-0.611,1.079-0.839,1.762-0.839c1.818,0,2.344,1.279,2.344,2.842v4.134h-1.918v-3.58
		c0-0.81,0.028-1.86-1.051-1.86c-1.151,0-1.151,1.278-1.151,2.102v3.339h-1.932v-6.762h1.932v0.625H380.704z"/>
	<path fill="#FFFFFF" d="M387.27,531.345c-0.625,0-1.137-0.512-1.137-1.137s0.512-1.15,1.137-1.15c0.639,0,1.15,0.525,1.15,1.15
		S387.908,531.345,387.27,531.345z M386.317,539.797v-6.762h1.918v6.762H386.317z"/>
	<path fill="#FFFFFF" d="M392.867,540.025c-2.116,0-3.551-1.506-3.551-3.595c0-2.116,1.448-3.608,3.551-3.608
		s3.552,1.492,3.552,3.608C396.419,538.519,394.984,540.025,392.867,540.025z M392.867,538.306c0.995,0,1.592-0.967,1.592-1.876
		c0-0.938-0.597-1.903-1.592-1.903c-0.994,0-1.591,0.966-1.591,1.903C391.276,537.339,391.873,538.306,392.867,538.306z"/>
	<path fill="#FFFFFF" d="M408.511,539.797h-6.989l2.643-3.324c0.725-0.909,2.259-2.713,2.259-3.893c0-0.738-0.483-1.676-1.336-1.676
		c-0.909,0-1.335,0.994-1.293,1.775h-2.145c0.142-1.989,1.278-3.537,3.424-3.537c1.889,0,3.366,1.449,3.366,3.353
		c0,1.52-0.853,2.656-1.804,3.765l-1.534,1.775h3.409V539.797z"/>
	<path fill="#FFFFFF" d="M413.256,540.067c-2.741,0-3.708-3.225-3.708-5.44c0-2.23,0.938-5.483,3.708-5.483
		c2.784,0,3.722,3.253,3.722,5.483C416.978,536.842,416.012,540.067,413.256,540.067z M413.256,538.306
		c1.449,0,1.747-2.686,1.747-3.708c0-1.052-0.298-3.693-1.747-3.693c-1.421,0-1.733,2.642-1.733,3.693
		C411.522,535.621,411.835,538.306,413.256,538.306z"/>
	<path fill="#FFFFFF" d="M417.534,529.413h3.381v10.385h-2.017v-8.623h-1.364V529.413z"/>
	<path fill="#FFFFFF" d="M422.437,529.413h7.415l-5.682,10.654l-1.662-0.938l4.275-7.955h-4.347V529.413z"/>
</g>
<g>
	<path fill="#FFFFFF" d="M117.793,246.369l7.314,9.708h0.039v-9.347h2.715v14.172h-1.955l-7.314-9.708h-0.039v9.423h-2.697v-14.248
		H117.793z"/>
	<path fill="#FFFFFF" d="M134.191,260.92c-2.832,0-4.75-2.014-4.75-4.807c0-2.83,1.938-4.824,4.75-4.824
		c2.811,0,4.748,1.994,4.748,4.824C138.939,258.907,137.021,260.92,134.191,260.92z M134.191,258.622
		c1.328,0,2.127-1.291,2.127-2.508c0-1.254-0.799-2.545-2.127-2.545c-1.33,0-2.129,1.291-2.129,2.545
		C132.062,257.331,132.861,258.622,134.191,258.622z"/>
	<path fill="#FFFFFF" d="M146.01,246.73h3.855c4.01,0,6.707,3.001,6.707,6.972c0,3.895-2.756,6.915-6.725,6.915h-3.838V246.73z
		 M148.707,258.261h0.438c3.344,0,4.635-1.843,4.635-4.579c0-3.02-1.559-4.597-4.635-4.597h-0.438V258.261z"/>
	<path fill="#FFFFFF" d="M161.17,249.085v3.059h4.312v2.355h-4.312v3.762h4.484v2.355h-7.182V246.73h7.182v2.355H161.17z"/>
	<path fill="#FFFFFF" d="M176.693,260.617h-2.697v-11.531h-2.811v-2.355h8.301v2.355h-2.793V260.617z"/>
	<path fill="#FFFFFF" d="M183.725,260.617h-2.697V246.73h2.697V260.617z"/>
	<path fill="#FFFFFF" d="M195.312,250.415c-0.76-0.911-1.898-1.462-3.057-1.462c-2.584,0-4.086,2.394-4.086,4.787
		c0,2.337,1.559,4.673,4.066,4.673c1.158,0,2.316-0.607,3.076-1.481v3.229c-1.006,0.475-2.014,0.816-3.152,0.816
		c-3.895,0-6.783-3.361-6.783-7.18c0-3.952,2.775-7.429,6.84-7.429c1.082,0,2.166,0.304,3.096,0.817V250.415z"/>
	<path fill="#FFFFFF" d="M207.568,246.73l-5.264,6.421l5.566,7.466h-3.477l-4.445-6.231h-0.037v6.231h-2.697V246.73h2.697v5.87
		h0.037l4.295-5.87H207.568z"/>
	<path fill="#FFFFFF" d="M211.463,249.085v3.059h4.312v2.355h-4.312v3.762h4.484v2.355h-7.182V246.73h7.182v2.355H211.463z"/>
	<path fill="#FFFFFF" d="M222.559,260.617h-2.697v-11.531h-2.811v-2.355h8.301v2.355h-2.793V260.617z"/>
</g>
<g>
	<path fill="#FFFFFF" d="M98.074,204.803v-5.471h2.697v13.887h-2.697v-6.213h-5.016v6.213h-2.697v-13.887h2.697v5.471H98.074z"/>
	<path fill="#FFFFFF" d="M104.191,201.916c-0.836,0-1.52-0.685-1.52-1.521s0.684-1.538,1.52-1.538c0.855,0,1.539,0.702,1.539,1.538
		S105.047,201.916,104.191,201.916z M102.92,213.219v-9.043h2.564v9.043H102.92z"/>
	<path fill="#FFFFFF" d="M110.557,205.696c-0.418,0-0.836,0.323-0.836,0.76c0,0.665,0.932,0.855,1.861,1.254
		c0.932,0.418,1.863,1.045,1.863,2.603c0,2.014-1.635,3.21-3.533,3.21c-1.217,0-2.395-0.569-3.174-1.52l1.178-1.52
		c0.494,0.551,1.16,1.045,1.92,1.045c0.568,0,1.025-0.38,1.025-0.969c0-0.798-0.912-0.988-1.805-1.367
		c-0.912-0.399-1.805-0.932-1.805-2.375c0-1.691,1.178-2.926,2.869-2.926c0.949,0,2.164,0.285,2.906,0.931l-1.102,1.501
		C111.564,205.961,111.07,205.696,110.557,205.696z"/>
	<path fill="#FFFFFF" d="M115.041,213.219v-6.858h-0.873v-2.185h0.873v-3.059h2.584v3.059h1.576v2.185h-1.576v6.858H115.041z"/>
	<path fill="#FFFFFF" d="M124.617,213.522c-2.83,0-4.75-2.014-4.75-4.806c0-2.831,1.939-4.825,4.75-4.825
		c2.812,0,4.75,1.994,4.75,4.825C129.367,211.508,127.447,213.522,124.617,213.522z M124.617,211.224
		c1.33,0,2.127-1.292,2.127-2.508c0-1.254-0.797-2.546-2.127-2.546s-2.127,1.292-2.127,2.546
		C122.49,209.932,123.287,211.224,124.617,211.224z"/>
	<path fill="#FFFFFF" d="M133.719,205.125c0.531-0.797,1.291-1.234,2.26-1.234c0.361,0,0.723,0.096,1.064,0.209l-0.322,2.394
		c-0.305-0.209-0.666-0.323-1.064-0.323c-1.785,0-1.957,1.577-1.957,2.982v4.066h-2.584v-9.043h2.584v0.949H133.719z"/>
	<path fill="#FFFFFF" d="M139.477,201.916c-0.836,0-1.52-0.685-1.52-1.521s0.684-1.538,1.52-1.538c0.855,0,1.539,0.702,1.539,1.538
		S140.332,201.916,139.477,201.916z M138.203,213.219v-9.043h2.564v9.043H138.203z"/>
	<path fill="#FFFFFF" d="M149.09,213.219v-0.836h-0.037c-0.553,0.722-1.521,1.139-2.451,1.139c-2.66,0-4.16-2.412-4.16-4.863
		c0-2.393,1.52-4.768,4.121-4.768c0.932,0,1.9,0.398,2.527,1.14v-0.854h2.527v9.043H149.09z M147.189,206.17
		c-1.33,0-2.127,1.311-2.127,2.527c0,1.215,0.797,2.526,2.127,2.526s2.146-1.312,2.146-2.526
		C149.336,207.481,148.52,206.17,147.189,206.17z"/>
	<path fill="#FFFFFF" d="M153.631,213.219v-15.616h2.584v15.616H153.631z"/>
</g>
<g>
	<path fill="#FFFFFF" d="M126.648,313.965l0.746-0.04c2.865,0,4.74,2.36,4.74,5.124c0,3.166-2.219,5.285-5.365,5.285
		c-1.734,0-3.207-0.646-4.377-1.938l0.867-2.48c0.766,1.109,1.977,1.916,3.328,1.916c1.594,0,2.643-1.371,2.643-2.904
		c0-1.594-1.252-2.926-2.885-2.926c-0.848,0-1.756,0.384-2.361,0.949h-0.443l1.574-7.746h6.414v2.5h-4.377L126.648,313.965z"/>
	<path fill="#FFFFFF" d="M138.105,313.965l0.746-0.04c2.865,0,4.74,2.36,4.74,5.124c0,3.166-2.219,5.285-5.365,5.285
		c-1.734,0-3.207-0.646-4.377-1.938l0.867-2.48c0.766,1.109,1.977,1.916,3.328,1.916c1.594,0,2.643-1.371,2.643-2.904
		c0-1.594-1.252-2.926-2.885-2.926c-0.848,0-1.756,0.384-2.361,0.949h-0.443l1.574-7.746h6.414v2.5h-4.377L138.105,313.965z"/>
	<path fill="#FFFFFF" d="M149.562,313.965l0.746-0.04c2.865,0,4.74,2.36,4.74,5.124c0,3.166-2.219,5.285-5.365,5.285
		c-1.734,0-3.207-0.646-4.377-1.938l0.867-2.48c0.766,1.109,1.977,1.916,3.328,1.916c1.594,0,2.643-1.371,2.643-2.904
		c0-1.594-1.252-2.926-2.885-2.926c-0.848,0-1.756,0.384-2.361,0.949h-0.443l1.574-7.746h6.414v2.5h-4.377L149.562,313.965z"/>
	<path fill="#FFFFFF" d="M161.02,313.965l0.746-0.04c2.865,0,4.74,2.36,4.74,5.124c0,3.166-2.219,5.285-5.365,5.285
		c-1.734,0-3.207-0.646-4.377-1.938l0.867-2.48c0.766,1.109,1.977,1.916,3.328,1.916c1.594,0,2.643-1.371,2.643-2.904
		c0-1.594-1.252-2.926-2.885-2.926c-0.848,0-1.756,0.384-2.361,0.949h-0.443l1.574-7.746h6.414v2.5h-4.377L161.02,313.965z"/>
	<path fill="#FFFFFF" d="M172.477,313.965l0.746-0.04c2.865,0,4.74,2.36,4.74,5.124c0,3.166-2.219,5.285-5.365,5.285
		c-1.734,0-3.207-0.646-4.377-1.938l0.867-2.48c0.766,1.109,1.977,1.916,3.328,1.916c1.594,0,2.643-1.371,2.643-2.904
		c0-1.594-1.252-2.926-2.885-2.926c-0.848,0-1.756,0.384-2.361,0.949h-0.443l1.574-7.746h6.414v2.5h-4.377L172.477,313.965z"/>
	<path fill="#FFFFFF" d="M183.934,313.965l0.746-0.04c2.865,0,4.74,2.36,4.74,5.124c0,3.166-2.219,5.285-5.365,5.285
		c-1.734,0-3.207-0.646-4.377-1.938l0.867-2.48c0.766,1.109,1.977,1.916,3.328,1.916c1.594,0,2.643-1.371,2.643-2.904
		c0-1.594-1.252-2.926-2.885-2.926c-0.848,0-1.756,0.384-2.361,0.949h-0.443l1.574-7.746h6.414v2.5h-4.377L183.934,313.965z"/>
	<path fill="#FFFFFF" d="M195.391,313.965l0.746-0.04c2.865,0,4.74,2.36,4.74,5.124c0,3.166-2.219,5.285-5.365,5.285
		c-1.734,0-3.207-0.646-4.377-1.938l0.867-2.48c0.766,1.109,1.977,1.916,3.328,1.916c1.594,0,2.643-1.371,2.643-2.904
		c0-1.594-1.252-2.926-2.885-2.926c-0.848,0-1.756,0.384-2.361,0.949h-0.443l1.574-7.746h6.414v2.5h-4.377L195.391,313.965z"/>
	<path fill="#FFFFFF" d="M206.848,313.965l0.746-0.04c2.865,0,4.74,2.36,4.74,5.124c0,3.166-2.219,5.285-5.365,5.285
		c-1.734,0-3.207-0.646-4.377-1.938l0.867-2.48c0.766,1.109,1.977,1.916,3.328,1.916c1.594,0,2.643-1.371,2.643-2.904
		c0-1.594-1.252-2.926-2.885-2.926c-0.848,0-1.756,0.384-2.361,0.949h-0.443l1.574-7.746h6.414v2.5h-4.377L206.848,313.965z"/>
</g>
<g>
	<path fill="#FFFFFF" d="M328.543,309.206h4.801v14.745h-2.865v-12.245h-1.936V309.206z"/>
	<path fill="#FFFFFF" d="M345.104,323.951h-9.926l3.754-4.72c1.027-1.291,3.207-3.854,3.207-5.527c0-1.049-0.686-2.381-1.896-2.381
		c-1.291,0-1.896,1.412-1.836,2.521h-3.047c0.203-2.824,1.816-5.022,4.863-5.022c2.682,0,4.779,2.058,4.779,4.761
		c0,2.158-1.209,3.771-2.561,5.346l-2.18,2.521h4.842V323.951z"/>
	<path fill="#FFFFFF" d="M351.256,308.822c2.541,0,4.256,1.614,4.256,4.155c0,1.15-0.424,2.421-1.412,3.086
		c1.352,0.586,1.896,2.239,1.896,3.591c0,2.885-2.098,4.681-4.902,4.681c-2.703,0-4.74-1.998-4.902-4.641h2.904
		c0.061,1.17,0.848,2.139,2.119,2.139s1.957-1.211,1.957-2.359c0-1.171-0.768-2.441-2.059-2.341l-0.523,0.04v-2.057h0.303
		c1.23,0,1.875-0.807,1.875-2.037c0-0.969-0.605-1.877-1.674-1.877c-1.029,0-1.574,0.969-1.613,1.855h-2.725
		C346.998,310.516,348.633,308.822,351.256,308.822z"/>
	<path fill="#FFFFFF" d="M368.562,321.348h-1.555v2.603h-2.703v-2.603h-6.494v-1.291l6.576-11.114h2.621v10.106h1.555V321.348z
		 M364.266,313.178l-3.107,5.871h3.146v-5.871H364.266z"/>
</g>
<g>
	<path fill="#FFFFFF" d="M131.73,361.284h-9.924l3.752-4.721c1.029-1.291,3.207-3.853,3.207-5.527c0-1.049-0.686-2.38-1.896-2.38
		c-1.291,0-1.895,1.412-1.836,2.521h-3.045c0.201-2.823,1.814-5.022,4.861-5.022c2.684,0,4.781,2.058,4.781,4.76
		c0,2.159-1.211,3.773-2.562,5.346l-2.178,2.521h4.84V361.284z"/>
	<path fill="#FFFFFF" d="M143.41,361.284h-9.926l3.754-4.721c1.027-1.291,3.207-3.853,3.207-5.527c0-1.049-0.686-2.38-1.896-2.38
		c-1.291,0-1.896,1.412-1.836,2.521h-3.047c0.203-2.823,1.816-5.022,4.863-5.022c2.682,0,4.779,2.058,4.779,4.76
		c0,2.159-1.209,3.773-2.561,5.346l-2.18,2.521h4.842V361.284z"/>
	<path fill="#FFFFFF" d="M155.088,361.284h-9.924l3.752-4.721c1.029-1.291,3.207-3.853,3.207-5.527c0-1.049-0.686-2.38-1.896-2.38
		c-1.291,0-1.895,1.412-1.836,2.521h-3.045c0.201-2.823,1.814-5.022,4.861-5.022c2.684,0,4.781,2.058,4.781,4.76
		c0,2.159-1.211,3.773-2.562,5.346l-2.178,2.521h4.84V361.284z"/>
	<path fill="#FFFFFF" d="M166.768,361.284h-9.926l3.754-4.721c1.027-1.291,3.207-3.853,3.207-5.527c0-1.049-0.686-2.38-1.896-2.38
		c-1.291,0-1.896,1.412-1.836,2.521h-3.047c0.203-2.823,1.816-5.022,4.863-5.022c2.682,0,4.779,2.058,4.779,4.76
		c0,2.159-1.209,3.773-2.561,5.346l-2.18,2.521h4.842V361.284z"/>
	<path fill="#FFFFFF" d="M178.445,361.284h-9.924l3.752-4.721c1.029-1.291,3.207-3.853,3.207-5.527c0-1.049-0.686-2.38-1.896-2.38
		c-1.291,0-1.895,1.412-1.836,2.521h-3.045c0.201-2.823,1.814-5.022,4.861-5.022c2.684,0,4.781,2.058,4.781,4.76
		c0,2.159-1.211,3.773-2.562,5.346l-2.178,2.521h4.84V361.284z"/>
	<path fill="#FFFFFF" d="M190.125,361.284h-9.926l3.754-4.721c1.027-1.291,3.207-3.853,3.207-5.527c0-1.049-0.686-2.38-1.896-2.38
		c-1.291,0-1.896,1.412-1.836,2.521h-3.047c0.203-2.823,1.816-5.022,4.863-5.022c2.682,0,4.779,2.058,4.779,4.76
		c0,2.159-1.209,3.773-2.561,5.346l-2.18,2.521h4.842V361.284z"/>
	<path fill="#FFFFFF" d="M201.803,361.284h-9.924l3.752-4.721c1.029-1.291,3.207-3.853,3.207-5.527c0-1.049-0.686-2.38-1.896-2.38
		c-1.291,0-1.895,1.412-1.836,2.521h-3.045c0.201-2.823,1.814-5.022,4.861-5.022c2.684,0,4.781,2.058,4.781,4.76
		c0,2.159-1.211,3.773-2.562,5.346l-2.178,2.521h4.84V361.284z"/>
	<path fill="#FFFFFF" d="M213.482,361.284h-9.926l3.754-4.721c1.027-1.291,3.207-3.853,3.207-5.527c0-1.049-0.686-2.38-1.896-2.38
		c-1.291,0-1.896,1.412-1.836,2.521h-3.047c0.203-2.823,1.816-5.022,4.863-5.022c2.682,0,4.779,2.058,4.779,4.76
		c0,2.159-1.209,3.773-2.561,5.346l-2.18,2.521h4.842V361.284z"/>
</g>
<g>
	<path fill="#FFFFFF" d="M330.771,351.298l0.746-0.04c2.865,0,4.74,2.359,4.74,5.123c0,3.168-2.219,5.285-5.365,5.285
		c-1.734,0-3.207-0.645-4.377-1.936l0.867-2.481c0.766,1.109,1.977,1.916,3.328,1.916c1.594,0,2.643-1.372,2.643-2.905
		c0-1.593-1.252-2.924-2.885-2.924c-0.848,0-1.756,0.383-2.361,0.947h-0.443l1.574-7.746h6.414v2.502h-4.377L330.771,351.298z"/>
	<path fill="#FFFFFF" d="M343.156,351.743l0.041,0.04c0.342-0.142,0.746-0.202,1.148-0.202c2.703,0,4.377,2.36,4.377,4.902
		c0,3.025-2.158,5.184-5.184,5.184c-2.924,0-5.164-2.037-5.164-5.002c0-1.756,0.828-3.49,1.795-4.922l3.914-5.811l2.098,1.533
		L343.156,351.743z M343.52,353.84c-1.453,0-2.361,1.432-2.361,2.743s0.908,2.743,2.361,2.743c1.432,0,2.32-1.432,2.32-2.743
		S344.951,353.84,343.52,353.84z"/>
	<path fill="#FFFFFF" d="M349.912,346.538h10.529l-8.068,15.129l-2.359-1.331l6.072-11.296h-6.174V346.538z"/>
	<path fill="#FFFFFF" d="M365.082,346.155c2.439,0,4.336,1.674,4.336,4.195c0,1.352-0.725,2.643-1.936,3.248
		c1.594,0.605,2.381,2.058,2.381,3.752c0,2.662-2.281,4.316-4.781,4.316c-2.482,0-4.762-1.654-4.762-4.316
		c0-1.694,0.787-3.146,2.381-3.752c-1.211-0.605-1.936-1.896-1.936-3.248C360.766,347.829,362.66,346.155,365.082,346.155z
		 M365.082,359.287c1.209,0,1.875-1.17,1.875-2.239c0-1.089-0.666-2.279-1.875-2.279c-1.191,0-1.877,1.19-1.877,2.279
		C363.205,358.117,363.891,359.287,365.082,359.287z M365.082,352.428c1.09,0,1.715-1.09,1.715-2.078
		c0-0.947-0.625-2.037-1.715-2.037c-1.07,0-1.695,1.09-1.695,2.037C363.387,351.338,364.012,352.428,365.082,352.428z"/>
</g>
<g>
	<path fill="#FFFFFF" d="M130.965,398.243h-1.553v2.602h-2.703v-2.602h-6.496v-1.291l6.576-11.115h2.623v10.105h1.553V398.243z
		 M126.668,390.073l-3.105,5.869h3.146v-5.869H126.668z"/>
	<path fill="#FFFFFF" d="M143.008,398.243h-1.555v2.602h-2.703v-2.602h-6.494v-1.291l6.576-11.115h2.621v10.105h1.555V398.243z
		 M138.711,390.073l-3.107,5.869h3.146v-5.869H138.711z"/>
	<path fill="#FFFFFF" d="M155.049,398.243h-1.553v2.602h-2.703v-2.602h-6.496v-1.291l6.576-11.115h2.623v10.105h1.553V398.243z
		 M150.752,390.073l-3.105,5.869h3.146v-5.869H150.752z"/>
	<path fill="#FFFFFF" d="M167.092,398.243h-1.555v2.602h-2.703v-2.602h-6.494v-1.291l6.576-11.115h2.621v10.105h1.555V398.243z
		 M162.795,390.073l-3.107,5.869h3.146v-5.869H162.795z"/>
	<path fill="#FFFFFF" d="M179.133,398.243h-1.553v2.602h-2.703v-2.602h-6.496v-1.291l6.576-11.115h2.623v10.105h1.553V398.243z
		 M174.836,390.073l-3.105,5.869h3.146v-5.869H174.836z"/>
	<path fill="#FFFFFF" d="M191.176,398.243h-1.555v2.602h-2.703v-2.602h-6.494v-1.291L187,385.836h2.621v10.105h1.555V398.243z
		 M186.879,390.073l-3.107,5.869h3.146v-5.869H186.879z"/>
	<path fill="#FFFFFF" d="M203.217,398.243h-1.553v2.602h-2.703v-2.602h-6.496v-1.291l6.576-11.115h2.623v10.105h1.553V398.243z
		 M198.92,390.073l-3.105,5.869h3.146v-5.869H198.92z"/>
	<path fill="#FFFFFF" d="M215.26,398.243h-1.555v2.602h-2.703v-2.602h-6.494v-1.291l6.576-11.115h2.621v10.105h1.555V398.243z
		 M210.963,390.073l-3.107,5.869h3.146v-5.869H210.963z"/>
</g>
<g>
	<path fill="#FFFFFF" d="M333.988,395.639l-0.041-0.039c-0.342,0.141-0.746,0.221-1.148,0.221c-2.703,0-4.379-2.34-4.379-4.881
		c0-3.047,2.16-5.225,5.186-5.225c2.924,0,5.164,2.058,5.164,5.022c0,1.755-0.828,3.511-1.795,4.923l-3.914,5.809l-2.098-1.533
		L333.988,395.639z M333.625,393.583c1.453,0,2.359-1.433,2.359-2.764c0-1.332-0.906-2.764-2.359-2.764
		c-1.432,0-2.32,1.432-2.32,2.764C331.305,392.15,332.193,393.583,333.625,393.583z"/>
	<path fill="#FFFFFF" d="M345.688,401.227c-3.893,0-5.266-4.578-5.266-7.726c0-3.167,1.332-7.786,5.266-7.786
		c3.953,0,5.285,4.619,5.285,7.786C350.973,396.649,349.602,401.227,345.688,401.227z M345.688,398.726
		c2.057,0,2.48-3.812,2.48-5.265c0-1.493-0.424-5.245-2.48-5.245c-2.018,0-2.461,3.752-2.461,5.245
		C343.227,394.914,343.67,398.726,345.688,398.726z"/>
	<path fill="#FFFFFF" d="M351.76,386.098h4.801v14.746h-2.865V388.6h-1.936V386.098z"/>
	<path fill="#FFFFFF" d="M368.32,400.844h-9.926l3.754-4.721c1.027-1.291,3.207-3.853,3.207-5.527c0-1.049-0.686-2.38-1.896-2.38
		c-1.291,0-1.896,1.412-1.836,2.521h-3.047c0.203-2.823,1.816-5.022,4.863-5.022c2.682,0,4.779,2.058,4.779,4.76
		c0,2.159-1.209,3.773-2.561,5.346l-2.18,2.521h4.842V400.844z"/>
</g>
<g>
	<path fill="#FFFFFF" d="M123.289,425.048c2.441,0,4.336,1.675,4.336,4.196c0,1.352-0.725,2.643-1.936,3.247
		c1.594,0.604,2.381,2.058,2.381,3.752c0,2.663-2.281,4.317-4.781,4.317c-2.482,0-4.762-1.654-4.762-4.317
		c0-1.694,0.787-3.147,2.381-3.752c-1.211-0.604-1.936-1.896-1.936-3.247C118.973,426.723,120.867,425.048,123.289,425.048z
		 M123.289,438.18c1.209,0,1.875-1.17,1.875-2.239c0-1.089-0.666-2.279-1.875-2.279c-1.191,0-1.877,1.19-1.877,2.279
		C121.412,437.01,122.098,438.18,123.289,438.18z M123.289,431.322c1.09,0,1.715-1.089,1.715-2.077c0-0.949-0.625-2.038-1.715-2.038
		c-1.07,0-1.695,1.089-1.695,2.038C121.594,430.233,122.219,431.322,123.289,431.322z"/>
	<path fill="#FFFFFF" d="M134.363,425.048c2.441,0,4.336,1.675,4.336,4.196c0,1.352-0.725,2.643-1.936,3.247
		c1.594,0.604,2.381,2.058,2.381,3.752c0,2.663-2.281,4.317-4.781,4.317c-2.482,0-4.762-1.654-4.762-4.317
		c0-1.694,0.787-3.147,2.381-3.752c-1.211-0.604-1.936-1.896-1.936-3.247C130.047,426.723,131.941,425.048,134.363,425.048z
		 M134.363,438.18c1.209,0,1.875-1.17,1.875-2.239c0-1.089-0.666-2.279-1.875-2.279c-1.191,0-1.877,1.19-1.877,2.279
		C132.486,437.01,133.172,438.18,134.363,438.18z M134.363,431.322c1.09,0,1.715-1.089,1.715-2.077c0-0.949-0.625-2.038-1.715-2.038
		c-1.07,0-1.695,1.089-1.695,2.038C132.668,430.233,133.293,431.322,134.363,431.322z"/>
	<path fill="#FFFFFF" d="M145.438,425.048c2.441,0,4.336,1.675,4.336,4.196c0,1.352-0.725,2.643-1.936,3.247
		c1.594,0.604,2.381,2.058,2.381,3.752c0,2.663-2.281,4.317-4.781,4.317c-2.482,0-4.762-1.654-4.762-4.317
		c0-1.694,0.787-3.147,2.381-3.752c-1.211-0.604-1.936-1.896-1.936-3.247C141.121,426.723,143.016,425.048,145.438,425.048z
		 M145.438,438.18c1.209,0,1.875-1.17,1.875-2.239c0-1.089-0.666-2.279-1.875-2.279c-1.191,0-1.877,1.19-1.877,2.279
		C143.561,437.01,144.246,438.18,145.438,438.18z M145.438,431.322c1.09,0,1.715-1.089,1.715-2.077c0-0.949-0.625-2.038-1.715-2.038
		c-1.07,0-1.695,1.089-1.695,2.038C143.742,430.233,144.367,431.322,145.438,431.322z"/>
	<path fill="#FFFFFF" d="M156.512,425.048c2.441,0,4.336,1.675,4.336,4.196c0,1.352-0.725,2.643-1.936,3.247
		c1.594,0.604,2.381,2.058,2.381,3.752c0,2.663-2.281,4.317-4.781,4.317c-2.482,0-4.762-1.654-4.762-4.317
		c0-1.694,0.787-3.147,2.381-3.752c-1.211-0.604-1.936-1.896-1.936-3.247C152.195,426.723,154.09,425.048,156.512,425.048z
		 M156.512,438.18c1.209,0,1.875-1.17,1.875-2.239c0-1.089-0.666-2.279-1.875-2.279c-1.191,0-1.877,1.19-1.877,2.279
		C154.635,437.01,155.32,438.18,156.512,438.18z M156.512,431.322c1.09,0,1.715-1.089,1.715-2.077c0-0.949-0.625-2.038-1.715-2.038
		c-1.07,0-1.695,1.089-1.695,2.038C154.816,430.233,155.441,431.322,156.512,431.322z"/>
	<path fill="#FFFFFF" d="M167.586,425.048c2.441,0,4.336,1.675,4.336,4.196c0,1.352-0.725,2.643-1.936,3.247
		c1.594,0.604,2.381,2.058,2.381,3.752c0,2.663-2.281,4.317-4.781,4.317c-2.482,0-4.762-1.654-4.762-4.317
		c0-1.694,0.787-3.147,2.381-3.752c-1.211-0.604-1.936-1.896-1.936-3.247C163.27,426.723,165.164,425.048,167.586,425.048z
		 M167.586,438.18c1.209,0,1.875-1.17,1.875-2.239c0-1.089-0.666-2.279-1.875-2.279c-1.191,0-1.877,1.19-1.877,2.279
		C165.709,437.01,166.395,438.18,167.586,438.18z M167.586,431.322c1.09,0,1.715-1.089,1.715-2.077c0-0.949-0.625-2.038-1.715-2.038
		c-1.07,0-1.695,1.089-1.695,2.038C165.891,430.233,166.516,431.322,167.586,431.322z"/>
	<path fill="#FFFFFF" d="M178.66,425.048c2.441,0,4.336,1.675,4.336,4.196c0,1.352-0.725,2.643-1.936,3.247
		c1.594,0.604,2.381,2.058,2.381,3.752c0,2.663-2.281,4.317-4.781,4.317c-2.482,0-4.762-1.654-4.762-4.317
		c0-1.694,0.787-3.147,2.381-3.752c-1.211-0.604-1.936-1.896-1.936-3.247C174.344,426.723,176.238,425.048,178.66,425.048z
		 M178.66,438.18c1.209,0,1.875-1.17,1.875-2.239c0-1.089-0.666-2.279-1.875-2.279c-1.191,0-1.877,1.19-1.877,2.279
		C176.783,437.01,177.469,438.18,178.66,438.18z M178.66,431.322c1.09,0,1.715-1.089,1.715-2.077c0-0.949-0.625-2.038-1.715-2.038
		c-1.07,0-1.695,1.089-1.695,2.038C176.965,430.233,177.59,431.322,178.66,431.322z"/>
	<path fill="#FFFFFF" d="M189.734,425.048c2.441,0,4.336,1.675,4.336,4.196c0,1.352-0.725,2.643-1.936,3.247
		c1.594,0.604,2.381,2.058,2.381,3.752c0,2.663-2.281,4.317-4.781,4.317c-2.482,0-4.762-1.654-4.762-4.317
		c0-1.694,0.787-3.147,2.381-3.752c-1.211-0.604-1.936-1.896-1.936-3.247C185.418,426.723,187.312,425.048,189.734,425.048z
		 M189.734,438.18c1.209,0,1.875-1.17,1.875-2.239c0-1.089-0.666-2.279-1.875-2.279c-1.191,0-1.877,1.19-1.877,2.279
		C187.857,437.01,188.543,438.18,189.734,438.18z M189.734,431.322c1.09,0,1.715-1.089,1.715-2.077c0-0.949-0.625-2.038-1.715-2.038
		c-1.07,0-1.695,1.089-1.695,2.038C188.039,430.233,188.664,431.322,189.734,431.322z"/>
	<path fill="#FFFFFF" d="M200.809,425.048c2.441,0,4.336,1.675,4.336,4.196c0,1.352-0.725,2.643-1.936,3.247
		c1.594,0.604,2.381,2.058,2.381,3.752c0,2.663-2.281,4.317-4.781,4.317c-2.482,0-4.762-1.654-4.762-4.317
		c0-1.694,0.787-3.147,2.381-3.752c-1.211-0.604-1.936-1.896-1.936-3.247C196.492,426.723,198.387,425.048,200.809,425.048z
		 M200.809,438.18c1.209,0,1.875-1.17,1.875-2.239c0-1.089-0.666-2.279-1.875-2.279c-1.191,0-1.877,1.19-1.877,2.279
		C198.932,437.01,199.617,438.18,200.809,438.18z M200.809,431.322c1.09,0,1.715-1.089,1.715-2.077c0-0.949-0.625-2.038-1.715-2.038
		c-1.07,0-1.695,1.089-1.695,2.038C199.113,430.233,199.738,431.322,200.809,431.322z"/>
	<path fill="#FFFFFF" d="M211.883,425.048c2.441,0,4.336,1.675,4.336,4.196c0,1.352-0.725,2.643-1.936,3.247
		c1.594,0.604,2.381,2.058,2.381,3.752c0,2.663-2.281,4.317-4.781,4.317c-2.482,0-4.762-1.654-4.762-4.317
		c0-1.694,0.787-3.147,2.381-3.752c-1.211-0.604-1.936-1.896-1.936-3.247C207.566,426.723,209.461,425.048,211.883,425.048z
		 M211.883,438.18c1.209,0,1.875-1.17,1.875-2.239c0-1.089-0.666-2.279-1.875-2.279c-1.191,0-1.877,1.19-1.877,2.279
		C210.006,437.01,210.691,438.18,211.883,438.18z M211.883,431.322c1.09,0,1.715-1.089,1.715-2.077c0-0.949-0.625-2.038-1.715-2.038
		c-1.07,0-1.695,1.089-1.695,2.038C210.188,430.233,210.812,431.322,211.883,431.322z"/>
</g>
<g>
	<path fill="#FFFFFF" d="M326.818,425.432h4.801v14.745h-2.865v-12.245h-1.936V425.432z"/>
	<path fill="#FFFFFF" d="M339.182,440.561c-3.893,0-5.264-4.58-5.264-7.727c0-3.167,1.33-7.786,5.264-7.786
		c3.955,0,5.285,4.619,5.285,7.786C344.467,435.981,343.096,440.561,339.182,440.561z M339.182,438.059
		c2.059,0,2.482-3.812,2.482-5.265c0-1.493-0.424-5.245-2.482-5.245c-2.016,0-2.461,3.752-2.461,5.245
		C336.721,434.247,337.166,438.059,339.182,438.059z"/>
	<path fill="#FFFFFF" d="M351.789,440.561c-3.893,0-5.264-4.58-5.264-7.727c0-3.167,1.33-7.786,5.264-7.786
		c3.955,0,5.285,4.619,5.285,7.786C357.074,435.981,355.703,440.561,351.789,440.561z M351.789,438.059
		c2.059,0,2.482-3.812,2.482-5.265c0-1.493-0.424-5.245-2.482-5.245c-2.016,0-2.461,3.752-2.461,5.245
		C349.328,434.247,349.773,438.059,351.789,438.059z"/>
	<path fill="#FFFFFF" d="M364.396,440.561c-3.893,0-5.264-4.58-5.264-7.727c0-3.167,1.33-7.786,5.264-7.786
		c3.955,0,5.285,4.619,5.285,7.786C369.682,435.981,368.311,440.561,364.396,440.561z M364.396,438.059
		c2.059,0,2.482-3.812,2.482-5.265c0-1.493-0.424-5.245-2.482-5.245c-2.016,0-2.461,3.752-2.461,5.245
		C361.936,434.247,362.381,438.059,364.396,438.059z"/>
</g>
<g>
	<path fill="#FFFFFF" d="M294.025,246.369l7.314,9.708h0.037v-9.347h2.717v14.172h-1.957l-7.314-9.708h-0.037v9.423h-2.697v-14.248
		H294.025z"/>
	<path fill="#FFFFFF" d="M310.422,260.92c-2.83,0-4.75-2.014-4.75-4.807c0-2.83,1.939-4.824,4.75-4.824
		c2.812,0,4.75,1.994,4.75,4.824C315.172,258.907,313.252,260.92,310.422,260.92z M310.422,258.622c1.33,0,2.127-1.291,2.127-2.508
		c0-1.254-0.797-2.545-2.127-2.545s-2.127,1.291-2.127,2.545C308.295,257.331,309.092,258.622,310.422,258.622z"/>
	<path fill="#FFFFFF" d="M322.24,246.73h3.857c4.008,0,6.705,3.001,6.705,6.972c0,3.895-2.754,6.915-6.725,6.915h-3.838V246.73z
		 M324.938,258.261h0.438c3.344,0,4.635-1.843,4.635-4.579c0-3.02-1.557-4.597-4.635-4.597h-0.438V258.261z"/>
	<path fill="#FFFFFF" d="M337.402,249.085v3.059h4.312v2.355h-4.312v3.762h4.482v2.355h-7.18V246.73h7.18v2.355H337.402z"/>
	<path fill="#FFFFFF" d="M353.248,248.649c-0.855,0-1.691,0.664-1.691,1.576c0,2.337,5.51,1.35,5.51,6.004
		c0,2.792-1.729,4.748-4.559,4.748c-1.92,0-3.324-1.102-4.275-2.697l1.748-1.709c0.361,1.063,1.33,2.014,2.508,2.014
		c1.102,0,1.785-0.932,1.785-1.995c0-1.444-1.33-1.843-2.412-2.261c-1.785-0.74-3.096-1.652-3.096-3.799
		c0-2.299,1.709-4.161,4.045-4.161c1.236,0,2.945,0.608,3.801,1.539l-1.273,1.88C354.824,249.085,354.16,248.649,353.248,248.649z"
		/>
	<path fill="#FFFFFF" d="M358.34,253.664c0-4.122,2.717-7.295,6.859-7.295c4.141,0,6.877,3.173,6.877,7.295
		c0,4.085-2.641,7.313-6.877,7.313S358.34,257.749,358.34,253.664z M361.133,253.549c0,2.128,1.064,4.769,4.066,4.769
		c3,0,4.064-2.641,4.064-4.769c0-2.241-1.5-4.502-4.064-4.502C362.652,249.047,361.133,251.308,361.133,253.549z"/>
	<path fill="#FFFFFF" d="M377.434,246.73c2.584,0,4.16,1.025,4.16,3.78c0,0.988-0.342,2.127-1.215,2.697
		c1.633,0.285,2.375,1.938,2.375,3.477c0,2.717-1.92,3.933-4.426,3.933h-4.256V246.73H377.434z M377.111,252.524
		c1.311,0,1.957-0.398,1.957-1.824c0-1.424-0.799-1.785-1.938-1.785h-0.361v3.609H377.111z M377.34,258.452
		c1.463,0,2.717-0.19,2.717-1.995c0-1.806-1.482-1.881-2.85-1.881h-0.438v3.876H377.34z"/>
	<path fill="#FFFFFF" d="M390.447,260.617l-3.361-5.604h-0.039v5.604h-2.697V246.73h3.666c2.736,0,4.637,1.216,4.637,4.179
		c0,1.768-0.988,3.533-2.83,3.857l3.912,5.851H390.447z M387.408,253.131c1.482,0,2.527-0.455,2.527-2.146
		c0-1.709-1.084-2.032-2.508-2.032h-0.381v4.179H387.408z"/>
	<path fill="#FFFFFF" d="M397.365,249.085v3.059h4.312v2.355h-4.312v3.762h4.482v2.355h-7.18V246.73h7.18v2.355H397.365z"/>
	<path fill="#FFFFFF" d="M407.891,248.649c-0.855,0-1.691,0.664-1.691,1.576c0,2.337,5.51,1.35,5.51,6.004
		c0,2.792-1.729,4.748-4.559,4.748c-1.92,0-3.324-1.102-4.275-2.697l1.748-1.709c0.361,1.063,1.33,2.014,2.508,2.014
		c1.102,0,1.785-0.932,1.785-1.995c0-1.444-1.33-1.843-2.412-2.261c-1.785-0.74-3.096-1.652-3.096-3.799
		c0-2.299,1.709-4.161,4.045-4.161c1.236,0,2.945,0.608,3.801,1.539l-1.273,1.88C409.467,249.085,408.803,248.649,407.891,248.649z"
		/>
	<path fill="#FFFFFF" d="M308.396,270.415c-0.76-0.911-1.898-1.462-3.057-1.462c-2.584,0-4.086,2.394-4.086,4.787
		c0,2.337,1.559,4.673,4.066,4.673c1.158,0,2.316-0.607,3.076-1.481v3.229c-1.006,0.475-2.014,0.816-3.152,0.816
		c-3.895,0-6.783-3.361-6.783-7.18c0-3.952,2.775-7.429,6.84-7.429c1.082,0,2.166,0.304,3.096,0.817V270.415z"/>
	<path fill="#FFFFFF" d="M312.16,280.617h-2.85l5.414-14.248h2.09l5.262,14.248h-2.887l-1.064-2.926h-4.826L312.16,280.617z
		 M315.598,270.434l-1.52,5.053h3.287l-1.729-5.053H315.598z"/>
	<path fill="#FFFFFF" d="M329.602,278.261v2.355h-6.535V266.73h2.697v11.531H329.602z"/>
	<path fill="#FFFFFF" d="M339.461,270.415c-0.76-0.911-1.898-1.462-3.057-1.462c-2.584,0-4.086,2.394-4.086,4.787
		c0,2.337,1.559,4.673,4.066,4.673c1.158,0,2.316-0.607,3.076-1.481v3.229c-1.006,0.475-2.014,0.816-3.152,0.816
		c-3.895,0-6.783-3.361-6.783-7.18c0-3.952,2.775-7.429,6.84-7.429c1.082,0,2.166,0.304,3.096,0.817V270.415z"/>
	<path fill="#FFFFFF" d="M344.061,266.73v7.77c0,1.71,0.152,4.122,2.451,4.122s2.449-2.412,2.449-4.122v-7.77h2.699v8.302
		c0,3.4-1.426,5.945-5.148,5.945c-3.725,0-5.148-2.545-5.148-5.945v-8.302H344.061z"/>
	<path fill="#FFFFFF" d="M360.209,278.261v2.355h-6.535V266.73h2.697v11.531H360.209z"/>
	<path fill="#FFFFFF" d="M364.027,280.617h-2.85l5.414-14.248h2.09l5.264,14.248h-2.889l-1.064-2.926h-4.824L364.027,280.617z
		 M367.467,270.434l-1.52,5.053h3.285l-1.729-5.053H367.467z"/>
	<path fill="#FFFFFF" d="M374.934,266.73h3.857c4.008,0,6.705,3.001,6.705,6.972c0,3.895-2.754,6.915-6.725,6.915h-3.838V266.73z
		 M377.631,278.261h0.438c3.344,0,4.635-1.843,4.635-4.579c0-3.02-1.557-4.597-4.635-4.597h-0.438V278.261z"/>
	<path fill="#FFFFFF" d="M386.941,273.664c0-4.122,2.717-7.295,6.859-7.295c4.141,0,6.877,3.173,6.877,7.295
		c0,4.085-2.641,7.313-6.877,7.313S386.941,277.749,386.941,273.664z M389.734,273.549c0,2.128,1.064,4.769,4.066,4.769
		c3,0,4.064-2.641,4.064-4.769c0-2.241-1.5-4.502-4.064-4.502C391.254,269.047,389.734,271.308,389.734,273.549z"/>
	<path fill="#FFFFFF" d="M406.436,268.649c-0.855,0-1.691,0.664-1.691,1.576c0,2.337,5.51,1.35,5.51,6.004
		c0,2.792-1.73,4.748-4.561,4.748c-1.918,0-3.324-1.102-4.273-2.697l1.748-1.709c0.359,1.063,1.328,2.014,2.506,2.014
		c1.104,0,1.787-0.932,1.787-1.995c0-1.444-1.33-1.843-2.414-2.261c-1.785-0.74-3.096-1.652-3.096-3.799
		c0-2.299,1.709-4.161,4.047-4.161c1.234,0,2.943,0.608,3.799,1.539l-1.273,1.88C408.012,269.085,407.346,268.649,406.436,268.649z"
		/>
</g>
<rect x="84.211" y="290.844" fill="#FFFFFF" width="358.28" height="3.334"/>
<rect x="258.749" y="250.511" fill="#FFFFFF" width="3.334" height="225.333"/>
</svg>
