<?xml version="1.0" encoding="utf-8"?>
<!-- Generator: Adobe Illustrator 16.0.0, SVG Export Plug-In . SVG Version: 6.00 Build 0)  -->
<!DOCTYPE svg PUBLIC "-//W3C//DTD SVG 1.1//EN" "http://www.w3.org/Graphics/SVG/1.1/DTD/svg11.dtd">
<svg version="1.1" id="Layer_1" xmlns="http://www.w3.org/2000/svg" xmlns:xlink="http://www.w3.org/1999/xlink" x="0px" y="0px"
	 width="633.453px" height="147.176px" viewBox="0 0 633.453 147.176" enable-background="new 0 0 633.453 147.176"
	 xml:space="preserve">
<rect x="14.327" y="52.631" fill="#FFC303" width="597" height="76.645"/>
<g>
	<path fill="#FFFFFF" d="M54.008,87.735c-0.807-0.968-2.017-1.553-3.247-1.553c-2.743,0-4.337,2.542-4.337,5.083
		c0,2.481,1.653,4.962,4.316,4.962c1.23,0,2.461-0.646,3.268-1.574v3.429c-1.068,0.504-2.138,0.868-3.349,0.868
		c-4.135,0-7.201-3.57-7.201-7.625c0-4.196,2.945-7.887,7.262-7.887c1.15,0,2.3,0.323,3.288,0.867V87.735z"/>
	<path fill="#FFFFFF" d="M60.462,98.891c-3.005,0-5.043-2.138-5.043-5.104c0-3.006,2.058-5.124,5.043-5.124
		c2.986,0,5.043,2.118,5.043,5.124C65.505,96.752,63.468,98.891,60.462,98.891z M60.462,96.45c1.412,0,2.26-1.372,2.26-2.663
		c0-1.332-0.848-2.703-2.26-2.703s-2.259,1.372-2.259,2.703C58.203,95.078,59.05,96.45,60.462,96.45z"/>
	<path fill="#FFFFFF" d="M70.124,89.975c0.564-0.847,1.372-1.311,2.4-1.311c0.383,0,0.767,0.101,1.13,0.222l-0.343,2.542
		c-0.323-0.222-0.706-0.343-1.13-0.343c-1.896,0-2.078,1.674-2.078,3.167v4.317H67.36v-9.602h2.743v1.009H70.124z"/>
	<path fill="#FFFFFF" d="M77.81,89.975c0.564-0.847,1.372-1.311,2.4-1.311c0.383,0,0.767,0.101,1.13,0.222l-0.343,2.542
		c-0.323-0.222-0.706-0.343-1.13-0.343c-1.896,0-2.078,1.674-2.078,3.167v4.317h-2.743v-9.602h2.743v1.009H77.81z"/>
	<path fill="#FFFFFF" d="M86.564,96.792c0.908,0,1.473-0.544,1.836-1.311l2.521,0.403c-0.666,1.917-2.34,3.006-4.357,3.006
		c-2.965,0-4.78-2.118-4.78-5.023c0-2.925,1.533-5.204,4.659-5.204c3.147,0,4.539,2.319,4.539,5.204v0.343h-6.313
		C84.669,95.421,85.152,96.792,86.564,96.792z M86.585,90.58c-1.09,0-1.694,0.928-1.836,1.937H88.4
		C88.279,91.528,87.654,90.58,86.585,90.58z"/>
	<path fill="#FFFFFF" d="M97.234,98.891c-3.005,0-5.043-2.138-5.043-5.104c0-3.006,2.058-5.124,5.043-5.124s5.043,2.118,5.043,5.124
		C102.277,96.752,100.24,98.891,97.234,98.891z M97.234,96.45c1.412,0,2.26-1.372,2.26-2.663c0-1.332-0.848-2.703-2.26-2.703
		s-2.259,1.372-2.259,2.703C94.976,95.078,95.822,96.45,97.234,96.45z"/>
	<path fill="#FFFFFF" d="M113.936,96.792c0.908,0,1.473-0.544,1.836-1.311l2.521,0.403c-0.666,1.917-2.34,3.006-4.357,3.006
		c-2.965,0-4.78-2.118-4.78-5.023c0-2.925,1.533-5.204,4.659-5.204c3.147,0,4.539,2.319,4.539,5.204v0.343h-6.313
		C112.04,95.421,112.523,96.792,113.936,96.792z M113.956,90.58c-1.09,0-1.694,0.928-1.836,1.937h3.651
		C115.65,91.528,115.025,90.58,113.956,90.58z"/>
	<path fill="#FFFFFF" d="M120.168,98.568V81.986h2.743v16.582H120.168z"/>
	<path fill="#FFFFFF" d="M129.245,96.792c0.908,0,1.473-0.544,1.836-1.311l2.521,0.403c-0.666,1.917-2.34,3.006-4.357,3.006
		c-2.965,0-4.78-2.118-4.78-5.023c0-2.925,1.533-5.204,4.659-5.204c3.147,0,4.539,2.319,4.539,5.204v0.343h-6.314
		C127.349,95.421,127.833,96.792,129.245,96.792z M129.266,90.58c-1.09,0-1.694,0.928-1.836,1.937h3.651
		C130.96,91.528,130.335,90.58,129.266,90.58z"/>
	<path fill="#FFFFFF" d="M140.178,90.963c-1.554,0-2.421,1.453-2.421,2.865c0,1.493,0.948,2.743,2.521,2.743
		c0.727,0,1.412-0.363,1.917-0.908v2.623c-0.747,0.423-1.533,0.605-2.381,0.605c-2.824,0-4.841-2.34-4.841-5.083
		c0-2.864,2.098-5.144,4.982-5.144c0.767,0,1.573,0.181,2.239,0.605v2.643C141.59,91.326,141.005,90.963,140.178,90.963z"/>
	<path fill="#FFFFFF" d="M144.575,98.568v-7.282h-0.928v-2.32h0.928v-3.248h2.743v3.248h1.674v2.32h-1.674v7.282H144.575z"/>
	<path fill="#FFFFFF" d="M153.066,89.975c0.564-0.847,1.372-1.311,2.4-1.311c0.383,0,0.767,0.101,1.13,0.222l-0.343,2.542
		c-0.323-0.222-0.706-0.343-1.13-0.343c-1.896,0-2.078,1.674-2.078,3.167v4.317h-2.743v-9.602h2.743v1.009H153.066z"/>
	<path fill="#FFFFFF" d="M161.801,98.891c-3.005,0-5.043-2.138-5.043-5.104c0-3.006,2.058-5.124,5.043-5.124
		s5.043,2.118,5.043,5.124C166.844,96.752,164.807,98.891,161.801,98.891z M161.801,96.45c1.412,0,2.26-1.372,2.26-2.663
		c0-1.332-0.848-2.703-2.26-2.703s-2.259,1.372-2.259,2.703C159.542,95.078,160.389,96.45,161.801,96.45z M161.801,87.574
		l-1.392-0.847l2.34-3.288l1.997,1.21L161.801,87.574z"/>
	<path fill="#FFFFFF" d="M171.463,89.854c0.585-0.867,1.533-1.19,2.501-1.19c2.582,0,3.329,1.815,3.329,4.034v5.87h-2.724v-5.083
		c0-1.15,0.04-2.643-1.493-2.643c-1.634,0-1.634,1.815-1.634,2.986v4.74h-2.743v-9.602h2.743v0.888H171.463z"/>
	<path fill="#FFFFFF" d="M180.782,86.565c-0.888,0-1.614-0.726-1.614-1.614s0.727-1.634,1.614-1.634
		c0.908,0,1.634,0.746,1.634,1.634S181.69,86.565,180.782,86.565z M179.431,98.568v-9.602h2.724v9.602H179.431z"/>
	<path fill="#FFFFFF" d="M188.992,90.963c-1.554,0-2.421,1.453-2.421,2.865c0,1.493,0.948,2.743,2.521,2.743
		c0.727,0,1.412-0.363,1.917-0.908v2.623c-0.747,0.423-1.533,0.605-2.381,0.605c-2.824,0-4.841-2.34-4.841-5.083
		c0-2.864,2.098-5.144,4.982-5.144c0.767,0,1.573,0.181,2.239,0.605v2.643C190.404,91.326,189.819,90.963,188.992,90.963z"/>
	<path fill="#FFFFFF" d="M197.282,98.891c-3.005,0-5.043-2.138-5.043-5.104c0-3.006,2.058-5.124,5.043-5.124
		c2.986,0,5.043,2.118,5.043,5.124C202.325,96.752,200.288,98.891,197.282,98.891z M197.282,96.45c1.412,0,2.26-1.372,2.26-2.663
		c0-1.332-0.848-2.703-2.26-2.703s-2.259,1.372-2.259,2.703C195.023,95.078,195.87,96.45,197.282,96.45z"/>
</g>
<g>
	<path fill="#FFFFFF" d="M90.592,12.951c-0.774,0-1.53,0.602-1.53,1.427c0,2.115,4.986,1.221,4.986,5.434
		c0,2.528-1.564,4.299-4.127,4.299c-1.737,0-3.01-0.998-3.869-2.442l1.582-1.548c0.327,0.963,1.204,1.823,2.27,1.823
		c0.998,0,1.617-0.843,1.617-1.806c0-1.307-1.204-1.668-2.185-2.046c-1.616-0.671-2.803-1.496-2.803-3.439
		c0-2.081,1.548-3.766,3.663-3.766c1.117,0,2.665,0.55,3.439,1.393l-1.152,1.702C92.019,13.346,91.417,12.951,90.592,12.951z"/>
	<path fill="#FFFFFF" d="M96.769,13.553c-0.757,0-1.376-0.619-1.376-1.376c0-0.756,0.619-1.393,1.376-1.393
		c0.773,0,1.393,0.636,1.393,1.393C98.161,12.934,97.542,13.553,96.769,13.553z M95.616,23.785v-8.186h2.321v8.186H95.616z"/>
	<path fill="#FFFFFF" d="M106.298,15.599l1.943,4.66l2.115-4.66h2.597l-5.95,12.554h-2.562l2.683-5.624l-3.474-6.93H106.298z"/>
	<path fill="#FFFFFF" d="M118.957,23.785v-0.757h-0.034c-0.499,0.654-1.376,1.032-2.219,1.032c-2.407,0-3.766-2.184-3.766-4.402
		c0-2.167,1.376-4.316,3.731-4.316c0.843,0,1.72,0.361,2.287,1.032v-0.774h2.287v8.186H118.957z M117.237,17.405
		c-1.203,0-1.926,1.187-1.926,2.287s0.723,2.287,1.926,2.287c1.204,0,1.943-1.187,1.943-2.287S118.441,17.405,117.237,17.405z"/>
	<path fill="#FFFFFF" d="M128.351,23.785v-6.208h-0.791v-1.978h0.791v-2.769h2.339v2.769h1.428v1.978h-1.428v6.208H128.351z"/>
	<path fill="#FFFFFF" d="M136.935,22.271c0.773,0,1.255-0.464,1.564-1.118l2.149,0.344c-0.567,1.634-1.995,2.562-3.714,2.562
		c-2.528,0-4.076-1.806-4.076-4.282c0-2.494,1.307-4.437,3.973-4.437c2.683,0,3.869,1.978,3.869,4.437v0.292h-5.383
		C135.317,21.102,135.73,22.271,136.935,22.271z M136.951,16.975c-0.929,0-1.444,0.791-1.564,1.651h3.112
		C138.396,17.783,137.862,16.975,136.951,16.975z"/>
	<path fill="#FFFFFF" d="M149.423,16.459c0.482-0.722,1.17-1.118,2.047-1.118c0.327,0,0.653,0.086,0.963,0.189l-0.292,2.167
		c-0.275-0.189-0.603-0.292-0.963-0.292c-1.617,0-1.771,1.427-1.771,2.7v3.68h-2.339v-8.186h2.339v0.86H149.423z"/>
	<path fill="#FFFFFF" d="M156.889,22.271c0.773,0,1.255-0.464,1.564-1.118l2.149,0.344c-0.567,1.634-1.995,2.562-3.714,2.562
		c-2.528,0-4.076-1.806-4.076-4.282c0-2.494,1.307-4.437,3.973-4.437c2.683,0,3.869,1.978,3.869,4.437v0.292h-5.383
		C155.271,21.102,155.685,22.271,156.889,22.271z M156.905,16.975c-0.929,0-1.444,0.791-1.564,1.651h3.112
		C158.35,17.783,157.816,16.975,156.905,16.975z"/>
	<path fill="#FFFFFF" d="M166.16,28.153c-1.995,0-4.023-1.221-4.127-3.405h2.459c0.12,0.877,0.739,1.445,1.616,1.445
		c1.651,0,1.686-1.462,1.686-2.683v-0.533h-0.034c-0.499,0.653-1.376,1.083-2.235,1.083c-2.391,0-3.681-2.115-3.681-4.299
		c0-2.253,1.358-4.419,3.801-4.419c0.809,0,1.65,0.413,2.115,1.049h0.034v-0.791h2.339v7.687
		C170.133,25.952,169.222,28.153,166.16,28.153z M166.144,17.405c-1.204,0-1.927,1.204-1.927,2.304s0.723,2.27,1.927,2.27
		c1.203,0,1.926-1.169,1.926-2.27S167.347,17.405,166.144,17.405z"/>
	<path fill="#FFFFFF" d="M173.111,13.553c-0.757,0-1.376-0.619-1.376-1.376c0-0.756,0.619-1.393,1.376-1.393
		c0.773,0,1.393,0.636,1.393,1.393C174.504,12.934,173.885,13.553,173.111,13.553z M171.959,23.785v-8.186h2.321v8.186H171.959z"/>
	<path fill="#FFFFFF" d="M178.873,16.975c-0.378,0-0.757,0.292-0.757,0.688c0,0.602,0.843,0.774,1.686,1.135
		c0.843,0.378,1.686,0.946,1.686,2.356c0,1.823-1.479,2.906-3.199,2.906c-1.101,0-2.166-0.516-2.871-1.376l1.065-1.376
		c0.447,0.499,1.05,0.946,1.737,0.946c0.516,0,0.929-0.344,0.929-0.877c0-0.722-0.825-0.894-1.634-1.238
		c-0.825-0.361-1.634-0.843-1.634-2.15c0-1.53,1.066-2.648,2.597-2.648c0.86,0,1.961,0.258,2.631,0.842l-0.997,1.359
		C179.784,17.215,179.338,16.975,178.873,16.975z"/>
	<path fill="#FFFFFF" d="M182.934,23.785v-6.208h-0.791v-1.978h0.791v-2.769h2.339v2.769h1.428v1.978h-1.428v6.208H182.934z"/>
	<path fill="#FFFFFF" d="M190.175,16.459c0.482-0.722,1.17-1.118,2.047-1.118c0.327,0,0.653,0.086,0.963,0.189l-0.292,2.167
		c-0.275-0.189-0.603-0.292-0.963-0.292c-1.617,0-1.771,1.427-1.771,2.7v3.68h-2.339v-8.186h2.339v0.86H190.175z"/>
	<path fill="#FFFFFF" d="M199.411,23.785v-0.757h-0.034c-0.499,0.654-1.376,1.032-2.219,1.032c-2.407,0-3.766-2.184-3.766-4.402
		c0-2.167,1.376-4.316,3.731-4.316c0.843,0,1.72,0.361,2.287,1.032v-0.774h2.287v8.186H199.411z M197.691,17.405
		c-1.203,0-1.926,1.187-1.926,2.287s0.723,2.287,1.926,2.287c1.204,0,1.943-1.187,1.943-2.287S198.896,17.405,197.691,17.405z"/>
	<path fill="#FFFFFF" d="M206.293,16.975c-0.378,0-0.757,0.292-0.757,0.688c0,0.602,0.843,0.774,1.686,1.135
		c0.843,0.378,1.686,0.946,1.686,2.356c0,1.823-1.479,2.906-3.199,2.906c-1.101,0-2.166-0.516-2.871-1.376l1.065-1.376
		c0.447,0.499,1.05,0.946,1.737,0.946c0.516,0,0.929-0.344,0.929-0.877c0-0.722-0.825-0.894-1.634-1.238
		c-0.825-0.361-1.634-0.843-1.634-2.15c0-1.53,1.066-2.648,2.597-2.648c0.86,0,1.961,0.258,2.631,0.842l-0.997,1.359
		C207.204,17.215,206.758,16.975,206.293,16.975z"/>
	<path fill="#FFFFFF" d="M210.354,23.785v-6.208h-0.791v-1.978h0.791v-2.769h2.339v2.769h1.428v1.978h-1.428v6.208H210.354z"/>
	<path fill="#FFFFFF" d="M218.938,22.271c0.773,0,1.255-0.464,1.564-1.118l2.149,0.344c-0.567,1.634-1.995,2.562-3.714,2.562
		c-2.528,0-4.076-1.806-4.076-4.282c0-2.494,1.307-4.437,3.973-4.437c2.683,0,3.869,1.978,3.869,4.437v0.292h-5.383
		C217.32,21.102,217.733,22.271,218.938,22.271z M218.954,16.975c-0.929,0-1.444,0.791-1.564,1.651h3.112
		C220.398,17.783,219.865,16.975,218.954,16.975z"/>
	<path fill="#FFFFFF" d="M234.779,23.785v-0.757h-0.034c-0.499,0.654-1.376,1.032-2.219,1.032c-2.407,0-3.766-2.184-3.766-4.402
		c0-2.167,1.376-4.316,3.731-4.316c0.843,0,1.72,0.361,2.287,1.032v-0.774h2.287v8.186H234.779z M233.06,17.405
		c-1.203,0-1.926,1.187-1.926,2.287s0.723,2.287,1.926,2.287c1.204,0,1.943-1.187,1.943-2.287S234.264,17.405,233.06,17.405z"/>
	<path fill="#FFFFFF" d="M241.248,16.356c0.499-0.74,1.308-1.015,2.133-1.015c2.201,0,2.838,1.547,2.838,3.439v5.004h-2.322v-4.333
		c0-0.98,0.035-2.253-1.272-2.253c-1.393,0-1.393,1.548-1.393,2.545v4.041h-2.339v-8.186h2.339v0.757H241.248z"/>
	<path fill="#FFFFFF" d="M248.095,23.785v-6.208h-0.791v-1.978h0.791v-2.769h2.339v2.769h1.428v1.978h-1.428v6.208H248.095z"/>
	<path fill="#FFFFFF" d="M256.679,22.271c0.773,0,1.255-0.464,1.564-1.118l2.149,0.344c-0.567,1.634-1.995,2.562-3.714,2.562
		c-2.528,0-4.076-1.806-4.076-4.282c0-2.494,1.307-4.437,3.973-4.437c2.683,0,3.869,1.978,3.869,4.437v0.292h-5.383
		C255.062,21.102,255.475,22.271,256.679,22.271z M256.695,16.975c-0.929,0-1.444,0.791-1.564,1.651h3.112
		C258.14,17.783,257.606,16.975,256.695,16.975z"/>
	<path fill="#FFFFFF" d="M264.351,16.459c0.482-0.722,1.17-1.118,2.047-1.118c0.327,0,0.653,0.086,0.963,0.189l-0.292,2.167
		c-0.275-0.189-0.603-0.292-0.963-0.292c-1.617,0-1.771,1.427-1.771,2.7v3.68h-2.339v-8.186h2.339v0.86H264.351z"/>
	<path fill="#FFFFFF" d="M269.563,13.553c-0.757,0-1.376-0.619-1.376-1.376c0-0.756,0.619-1.393,1.376-1.393
		c0.773,0,1.393,0.636,1.393,1.393C270.956,12.934,270.337,13.553,269.563,13.553z M268.411,23.785v-8.186h2.321v8.186H268.411z"/>
	<path fill="#FFFFFF" d="M276.34,24.06c-2.562,0-4.299-1.823-4.299-4.351c0-2.562,1.754-4.368,4.299-4.368s4.299,1.806,4.299,4.368
		C280.639,22.237,278.902,24.06,276.34,24.06z M276.34,21.979c1.204,0,1.926-1.169,1.926-2.27c0-1.135-0.722-2.304-1.926-2.304
		s-1.926,1.169-1.926,2.304C274.414,20.81,275.136,21.979,276.34,21.979z"/>
	<path fill="#FFFFFF" d="M284.58,16.459c0.482-0.722,1.17-1.118,2.047-1.118c0.327,0,0.653,0.086,0.963,0.189l-0.292,2.167
		c-0.275-0.189-0.603-0.292-0.963-0.292c-1.617,0-1.771,1.427-1.771,2.7v3.68h-2.339v-8.186h2.339v0.86H284.58z"/>
	<path fill="#FFFFFF" d="M291.134,16.338c0.465-0.653,1.256-0.997,2.013-0.997c1.015,0,1.806,0.413,2.339,1.272
		c0.498-0.791,1.444-1.272,2.39-1.272c2.081,0,2.597,1.564,2.597,3.353v5.09h-2.338v-4.299c0-0.791,0.051-2.287-1.102-2.287
		c-1.255,0-1.237,1.72-1.237,2.58v4.007h-2.339V19.64c0-0.808,0.103-2.442-1.118-2.442c-1.29,0-1.221,1.703-1.221,2.58v4.007h-2.339
		v-8.186h2.339v0.739H291.134z"/>
	<path fill="#FFFFFF" d="M305.843,22.271c0.773,0,1.255-0.464,1.564-1.118l2.149,0.344c-0.567,1.634-1.995,2.562-3.714,2.562
		c-2.528,0-4.076-1.806-4.076-4.282c0-2.494,1.307-4.437,3.973-4.437c2.683,0,3.869,1.978,3.869,4.437v0.292h-5.383
		C304.226,21.102,304.639,22.271,305.843,22.271z M305.859,16.975c-0.929,0-1.444,0.791-1.564,1.651h3.112
		C307.304,17.783,306.771,16.975,305.859,16.975z"/>
	<path fill="#FFFFFF" d="M313.515,16.356c0.499-0.74,1.308-1.015,2.133-1.015c2.201,0,2.838,1.547,2.838,3.439v5.004h-2.322v-4.333
		c0-0.98,0.035-2.253-1.272-2.253c-1.393,0-1.393,1.548-1.393,2.545v4.041h-2.339v-8.186h2.339v0.757H313.515z"/>
	<path fill="#FFFFFF" d="M320.362,23.785v-6.208h-0.791v-1.978h0.791v-2.769h2.339v2.769h1.428v1.978h-1.428v6.208H320.362z"/>
	<path fill="#FFFFFF" d="M328.946,22.271c0.773,0,1.255-0.464,1.564-1.118l2.149,0.344c-0.567,1.634-1.995,2.562-3.714,2.562
		c-2.528,0-4.076-1.806-4.076-4.282c0-2.494,1.307-4.437,3.973-4.437c2.683,0,3.869,1.978,3.869,4.437v0.292h-5.383
		C327.329,21.102,327.742,22.271,328.946,22.271z M328.963,16.975c-0.929,0-1.444,0.791-1.564,1.651h3.112
		C330.407,17.783,329.874,16.975,328.963,16.975z"/>
	<path fill="#FFFFFF" d="M340.231,13.553c-0.757,0-1.376-0.619-1.376-1.376c0-0.756,0.619-1.393,1.376-1.393
		c0.773,0,1.393,0.636,1.393,1.393C341.624,12.934,341.005,13.553,340.231,13.553z M339.079,23.785v-8.186h2.321v8.186H339.079z"/>
	<path fill="#FFFFFF" d="M345.58,16.356c0.499-0.74,1.308-1.015,2.133-1.015c2.201,0,2.838,1.547,2.838,3.439v5.004h-2.322v-4.333
		c0-0.98,0.035-2.253-1.272-2.253c-1.393,0-1.393,1.548-1.393,2.545v4.041h-2.339v-8.186h2.339v0.757H345.58z"/>
	<path fill="#FFFFFF" d="M356.331,28.153c-1.995,0-4.023-1.221-4.127-3.405h2.459c0.12,0.877,0.739,1.445,1.616,1.445
		c1.651,0,1.686-1.462,1.686-2.683v-0.533h-0.034c-0.499,0.653-1.376,1.083-2.235,1.083c-2.391,0-3.681-2.115-3.681-4.299
		c0-2.253,1.358-4.419,3.801-4.419c0.809,0,1.65,0.413,2.115,1.049h0.034v-0.791h2.339v7.687
		C360.304,25.952,359.393,28.153,356.331,28.153z M356.314,17.405c-1.204,0-1.927,1.204-1.927,2.304s0.723,2.27,1.927,2.27
		c1.203,0,1.926-1.169,1.926-2.27S357.518,17.405,356.314,17.405z"/>
	<path fill="#FFFFFF" d="M364.485,16.459c0.482-0.722,1.17-1.118,2.047-1.118c0.327,0,0.653,0.086,0.963,0.189l-0.292,2.167
		c-0.275-0.189-0.603-0.292-0.963-0.292c-1.617,0-1.771,1.427-1.771,2.7v3.68h-2.339v-8.186h2.339v0.86H364.485z"/>
	<path fill="#FFFFFF" d="M371.951,22.271c0.773,0,1.255-0.464,1.564-1.118l2.149,0.344c-0.567,1.634-1.995,2.562-3.714,2.562
		c-2.528,0-4.076-1.806-4.076-4.282c0-2.494,1.307-4.437,3.973-4.437c2.683,0,3.869,1.978,3.869,4.437v0.292h-5.383
		C370.334,21.102,370.747,22.271,371.951,22.271z M371.968,16.975c-0.929,0-1.444,0.791-1.564,1.651h3.112
		C373.412,17.783,372.879,16.975,371.968,16.975z"/>
	<path fill="#FFFFFF" d="M380.036,16.975c-0.378,0-0.757,0.292-0.757,0.688c0,0.602,0.843,0.774,1.686,1.135
		c0.843,0.378,1.686,0.946,1.686,2.356c0,1.823-1.479,2.906-3.199,2.906c-1.101,0-2.166-0.516-2.871-1.376l1.065-1.376
		c0.447,0.499,1.05,0.946,1.737,0.946c0.516,0,0.929-0.344,0.929-0.877c0-0.722-0.825-0.894-1.634-1.238
		c-0.825-0.361-1.634-0.843-1.634-2.15c0-1.53,1.066-2.648,2.597-2.648c0.86,0,1.961,0.258,2.631,0.842l-0.997,1.359
		C380.947,17.215,380.501,16.975,380.036,16.975z"/>
	<path fill="#FFFFFF" d="M389.754,23.785v-0.757h-0.034c-0.499,0.654-1.376,1.032-2.219,1.032c-2.407,0-3.766-2.184-3.766-4.402
		c0-2.167,1.376-4.316,3.731-4.316c0.843,0,1.72,0.361,2.287,1.032v-0.774h2.287v8.186H389.754z M388.034,17.405
		c-1.203,0-1.926,1.187-1.926,2.287s0.723,2.287,1.926,2.287c1.204,0,1.943-1.187,1.943-2.287S389.238,17.405,388.034,17.405z"/>
	<path fill="#FFFFFF" d="M399.147,23.785v-6.208h-0.791v-1.978h0.791v-2.769h2.339v2.769h1.428v1.978h-1.428v6.208H399.147z"/>
	<path fill="#FFFFFF" d="M406.647,20.036c0,0.929,0.138,2.046,1.324,2.046s1.341-1.118,1.341-2.046v-4.437h2.322v4.815
		c0,2.391-1.222,3.646-3.663,3.646c-2.425,0-3.663-1.255-3.663-3.646v-4.815h2.339V20.036z"/>
	<path fill="#FFFFFF" d="M422.283,17.302c-1.324,0-2.063,1.238-2.063,2.442c0,1.272,0.809,2.338,2.149,2.338
		c0.619,0,1.204-0.31,1.634-0.774v2.236c-0.637,0.361-1.307,0.516-2.029,0.516c-2.407,0-4.127-1.995-4.127-4.334
		c0-2.442,1.788-4.385,4.247-4.385c0.653,0,1.342,0.155,1.909,0.516v2.253C423.487,17.611,422.988,17.302,422.283,17.302z"/>
	<path fill="#FFFFFF" d="M429.354,24.06c-2.562,0-4.299-1.823-4.299-4.351c0-2.562,1.754-4.368,4.299-4.368s4.299,1.806,4.299,4.368
		C433.652,22.237,431.916,24.06,429.354,24.06z M429.354,21.979c1.204,0,1.926-1.169,1.926-2.27c0-1.135-0.722-2.304-1.926-2.304
		s-1.926,1.169-1.926,2.304C427.428,20.81,428.149,21.979,429.354,21.979z"/>
	<path fill="#FFFFFF" d="M437.594,16.459c0.482-0.722,1.17-1.118,2.047-1.118c0.327,0,0.653,0.086,0.963,0.189l-0.292,2.167
		c-0.275-0.189-0.603-0.292-0.963-0.292c-1.617,0-1.771,1.427-1.771,2.7v3.68h-2.339v-8.186h2.339v0.86H437.594z"/>
	<path fill="#FFFFFF" d="M444.147,16.459c0.482-0.722,1.17-1.118,2.047-1.118c0.327,0,0.653,0.086,0.963,0.189l-0.292,2.167
		c-0.275-0.189-0.603-0.292-0.963-0.292c-1.617,0-1.771,1.427-1.771,2.7v3.68h-2.339v-8.186h2.339v0.86H444.147z"/>
	<path fill="#FFFFFF" d="M451.613,22.271c0.773,0,1.255-0.464,1.564-1.118l2.149,0.344c-0.567,1.634-1.995,2.562-3.714,2.562
		c-2.528,0-4.076-1.806-4.076-4.282c0-2.494,1.307-4.437,3.973-4.437c2.683,0,3.869,1.978,3.869,4.437v0.292h-5.383
		C449.996,21.102,450.409,22.271,451.613,22.271z M451.63,16.975c-0.929,0-1.444,0.791-1.564,1.651h3.112
		C453.074,17.783,452.541,16.975,451.63,16.975z"/>
	<path fill="#FFFFFF" d="M460.713,24.06c-2.562,0-4.299-1.823-4.299-4.351c0-2.562,1.754-4.368,4.299-4.368s4.299,1.806,4.299,4.368
		C465.012,22.237,463.275,24.06,460.713,24.06z M460.713,21.979c1.204,0,1.926-1.169,1.926-2.27c0-1.135-0.722-2.304-1.926-2.304
		s-1.926,1.169-1.926,2.304C458.787,20.81,459.509,21.979,460.713,21.979z"/>
	<path fill="#FFFFFF" d="M474.957,22.271c0.773,0,1.255-0.464,1.564-1.118l2.149,0.344c-0.567,1.634-1.995,2.562-3.714,2.562
		c-2.528,0-4.076-1.806-4.076-4.282c0-2.494,1.307-4.437,3.973-4.437c2.683,0,3.869,1.978,3.869,4.437v0.292h-5.383
		C473.34,21.102,473.753,22.271,474.957,22.271z M474.974,16.975c-0.929,0-1.444,0.791-1.564,1.651h3.112
		C476.418,17.783,475.885,16.975,474.974,16.975z"/>
	<path fill="#FFFFFF" d="M480.273,23.785V9.649h2.339v14.136H480.273z"/>
	<path fill="#FFFFFF" d="M488.014,22.271c0.773,0,1.255-0.464,1.564-1.118l2.149,0.344c-0.567,1.634-1.995,2.562-3.714,2.562
		c-2.528,0-4.076-1.806-4.076-4.282c0-2.494,1.307-4.437,3.973-4.437c2.683,0,3.869,1.978,3.869,4.437v0.292h-5.383
		C486.396,21.102,486.81,22.271,488.014,22.271z M488.03,16.975c-0.929,0-1.444,0.791-1.564,1.651h3.112
		C489.475,17.783,488.941,16.975,488.03,16.975z"/>
	<path fill="#FFFFFF" d="M497.337,17.302c-1.324,0-2.063,1.238-2.063,2.442c0,1.272,0.808,2.338,2.149,2.338
		c0.619,0,1.204-0.31,1.634-0.774v2.236c-0.637,0.361-1.307,0.516-2.029,0.516c-2.407,0-4.127-1.995-4.127-4.334
		c0-2.442,1.788-4.385,4.247-4.385c0.653,0,1.342,0.155,1.909,0.516v2.253C498.541,17.611,498.042,17.302,497.337,17.302z"/>
	<path fill="#FFFFFF" d="M501.088,23.785v-6.208h-0.791v-1.978h0.791v-2.769h2.339v2.769h1.428v1.978h-1.428v6.208H501.088z"/>
	<path fill="#FFFFFF" d="M508.33,16.459c0.482-0.722,1.17-1.118,2.047-1.118c0.327,0,0.653,0.086,0.963,0.189l-0.292,2.167
		c-0.275-0.189-0.603-0.292-0.963-0.292c-1.617,0-1.771,1.427-1.771,2.7v3.68h-2.339v-8.186h2.339v0.86H508.33z"/>
	<path fill="#FFFFFF" d="M515.778,24.06c-2.562,0-4.299-1.823-4.299-4.351c0-2.562,1.754-4.368,4.299-4.368s4.299,1.806,4.299,4.368
		C520.077,22.237,518.341,24.06,515.778,24.06z M515.778,21.979c1.204,0,1.926-1.169,1.926-2.27c0-1.135-0.722-2.304-1.926-2.304
		s-1.926,1.169-1.926,2.304C513.853,20.81,514.574,21.979,515.778,21.979z M515.778,14.413l-1.187-0.722l1.995-2.803l1.702,1.032
		L515.778,14.413z"/>
	<path fill="#FFFFFF" d="M524.019,16.356c0.499-0.74,1.308-1.015,2.133-1.015c2.201,0,2.838,1.547,2.838,3.439v5.004h-2.322v-4.333
		c0-0.98,0.035-2.253-1.272-2.253c-1.393,0-1.393,1.548-1.393,2.545v4.041h-2.339v-8.186h2.339v0.757H524.019z"/>
	<path fill="#FFFFFF" d="M531.967,13.553c-0.757,0-1.376-0.619-1.376-1.376c0-0.756,0.619-1.393,1.376-1.393
		c0.773,0,1.393,0.636,1.393,1.393C533.359,12.934,532.74,13.553,531.967,13.553z M530.814,23.785v-8.186h2.321v8.186H530.814z"/>
	<path fill="#FFFFFF" d="M538.967,17.302c-1.324,0-2.063,1.238-2.063,2.442c0,1.272,0.809,2.338,2.149,2.338
		c0.619,0,1.204-0.31,1.634-0.774v2.236c-0.637,0.361-1.307,0.516-2.029,0.516c-2.407,0-4.127-1.995-4.127-4.334
		c0-2.442,1.788-4.385,4.247-4.385c0.653,0,1.342,0.155,1.909,0.516v2.253C540.171,17.611,539.672,17.302,538.967,17.302z"/>
	<path fill="#FFFFFF" d="M546.037,24.06c-2.562,0-4.299-1.823-4.299-4.351c0-2.562,1.754-4.368,4.299-4.368s4.299,1.806,4.299,4.368
		C550.336,22.237,548.6,24.06,546.037,24.06z M546.037,21.979c1.204,0,1.926-1.169,1.926-2.27c0-1.135-0.722-2.304-1.926-2.304
		s-1.926,1.169-1.926,2.304C544.111,20.81,544.833,21.979,546.037,21.979z"/>
</g>
<rect x="222.327" y="77.691" fill="#FFFFFF" width="363" height="28"/>
</svg>
