<?xml version="1.0" encoding="utf-8"?>
<!-- Generator: Adobe Illustrator 16.0.0, SVG Export Plug-In . SVG Version: 6.00 Build 0)  -->
<!DOCTYPE svg PUBLIC "-//W3C//DTD SVG 1.1//EN" "http://www.w3.org/Graphics/SVG/1.1/DTD/svg11.dtd">
<svg version="1.1" id="Layer_1" xmlns="http://www.w3.org/2000/svg" xmlns:xlink="http://www.w3.org/1999/xlink" x="0px" y="0px"
	 width="56.507px" height="31.673px" viewBox="0 0 56.507 31.673" enable-background="new 0 0 56.507 31.673" xml:space="preserve">
<text transform="matrix(1 0 0 1 5.3418 22.3682)" fill="#FFFFFF" font-family="'DFutHvy1'" font-size="21.2853">Login</text>
<g>
	
		<path fill="none" stroke="#FFFFFF" stroke-width="1.9843" stroke-linecap="round" stroke-linejoin="round" stroke-miterlimit="10" d="
		M11.536,19.578v2.64H4.213V6.657h3.021v12.92H11.536z"/>
	
		<path fill="none" stroke="#FFFFFF" stroke-width="1.9843" stroke-linecap="round" stroke-linejoin="round" stroke-miterlimit="10" d="
		M17.921,22.558c-3.172,0-5.322-2.256-5.322-5.386c0-3.171,2.171-5.406,5.322-5.406s5.321,2.235,5.321,5.406
		C23.242,20.301,21.093,22.558,17.921,22.558z M17.921,19.981c1.489,0,2.385-1.447,2.385-2.81c0-1.405-0.896-2.852-2.385-2.852
		c-1.49,0-2.385,1.447-2.385,2.852C15.536,18.534,16.431,19.981,17.921,19.981z"/>
	
		<path fill="none" stroke="#FFFFFF" stroke-width="1.9843" stroke-linecap="round" stroke-linejoin="round" stroke-miterlimit="10" d="
		M30.096,27.624c-2.47,0-4.982-1.512-5.109-4.214h3.043c0.15,1.084,0.918,1.788,2.002,1.788c2.044,0,2.085-1.81,2.085-3.321v-0.66
		h-0.041c-0.617,0.809-1.704,1.341-2.768,1.341c-2.959,0-4.555-2.618-4.555-5.321c0-2.789,1.682-5.471,4.703-5.471
		c1.002,0,2.044,0.511,2.619,1.298h0.041v-0.979h2.896V21.6C35.012,24.898,33.885,27.624,30.096,27.624z M30.074,14.32
		c-1.49,0-2.385,1.489-2.385,2.852s0.895,2.81,2.385,2.81s2.385-1.447,2.385-2.81S31.564,14.32,30.074,14.32z"/>
	
		<path fill="none" stroke="#FFFFFF" stroke-width="1.9843" stroke-linecap="round" stroke-linejoin="round" stroke-miterlimit="10" d="
		M38.693,9.552c-0.937,0-1.702-0.767-1.702-1.703s0.766-1.724,1.702-1.724c0.959,0,1.726,0.788,1.726,1.724
		S39.652,9.552,38.693,9.552z M37.268,22.217V12.084h2.874v10.133H37.268z"/>
	
		<path fill="none" stroke="#FFFFFF" stroke-width="1.9843" stroke-linecap="round" stroke-linejoin="round" stroke-miterlimit="10" d="
		M45.313,13.021c0.618-0.915,1.617-1.256,2.64-1.256c2.725,0,3.512,1.916,3.512,4.257v6.195h-2.872v-5.364
		c0-1.214,0.041-2.789-1.577-2.789c-1.723,0-1.723,1.915-1.723,3.15v5.002h-2.896V12.084h2.896v0.937H45.313z"/>
</g>
<g>
	<path fill="#9D2250" d="M11.536,19.578v2.64H4.213V6.657h3.021v12.92H11.536z"/>
	<path fill="#9D2250" d="M17.921,22.558c-3.172,0-5.322-2.256-5.322-5.386c0-3.171,2.171-5.406,5.322-5.406s5.321,2.235,5.321,5.406
		C23.242,20.301,21.093,22.558,17.921,22.558z M17.921,19.981c1.489,0,2.385-1.447,2.385-2.81c0-1.405-0.896-2.852-2.385-2.852
		c-1.49,0-2.385,1.447-2.385,2.852C15.536,18.534,16.431,19.981,17.921,19.981z"/>
	<path fill="#9D2250" d="M30.096,27.624c-2.47,0-4.982-1.512-5.109-4.214h3.043c0.15,1.084,0.918,1.788,2.002,1.788
		c2.044,0,2.085-1.81,2.085-3.321v-0.66h-0.041c-0.617,0.809-1.704,1.341-2.768,1.341c-2.959,0-4.555-2.618-4.555-5.321
		c0-2.789,1.682-5.471,4.703-5.471c1.002,0,2.044,0.511,2.619,1.298h0.041v-0.979h2.896V21.6
		C35.012,24.898,33.885,27.624,30.096,27.624z M30.074,14.32c-1.49,0-2.385,1.489-2.385,2.852s0.895,2.81,2.385,2.81
		s2.385-1.447,2.385-2.81S31.564,14.32,30.074,14.32z"/>
	<path fill="#9D2250" d="M38.693,9.552c-0.937,0-1.702-0.767-1.702-1.703s0.766-1.724,1.702-1.724c0.959,0,1.726,0.788,1.726,1.724
		S39.652,9.552,38.693,9.552z M37.268,22.217V12.084h2.874v10.133H37.268z"/>
	<path fill="#9D2250" d="M45.313,13.021c0.618-0.915,1.617-1.256,2.64-1.256c2.725,0,3.512,1.916,3.512,4.257v6.195h-2.872v-5.364
		c0-1.214,0.041-2.789-1.577-2.789c-1.723,0-1.723,1.915-1.723,3.15v5.002h-2.896V12.084h2.896v0.937H45.313z"/>
</g>
</svg>
