<?xml version="1.0" encoding="utf-8"?>
<!-- Generator: Adobe Illustrator 16.0.0, SVG Export Plug-In . SVG Version: 6.00 Build 0)  -->
<!DOCTYPE svg PUBLIC "-//W3C//DTD SVG 1.1//EN" "http://www.w3.org/Graphics/SVG/1.1/DTD/svg11.dtd">
<svg version="1.1" id="Layer_1" xmlns="http://www.w3.org/2000/svg" xmlns:xlink="http://www.w3.org/1999/xlink" x="0px" y="0px"
	 width="324.824px" height="46.27px" viewBox="0 0 324.824 46.27" enable-background="new 0 0 324.824 46.27" xml:space="preserve">
<rect fill="#FF8E06" width="324.824" height="46.27"/>
<g>
	<path fill="#FFFFFF" d="M45.217,31.377l-4.778-7.963h-0.054v7.963h-3.833V11.645h5.21c3.887,0,6.586,1.728,6.586,5.938
		c0,2.51-1.403,5.021-4.022,5.479l5.561,8.314H45.217z M40.897,20.742c2.105,0,3.59-0.648,3.59-3.05
		c0-2.429-1.538-2.888-3.562-2.888h-0.54v5.938H40.897z"/>
	<path fill="#FFFFFF" d="M56.773,29.001c1.215,0,1.971-0.729,2.456-1.754l3.374,0.54c-0.891,2.564-3.131,4.021-5.83,4.021
		c-3.968,0-6.397-2.834-6.397-6.721c0-3.914,2.052-6.964,6.235-6.964c4.211,0,6.073,3.104,6.073,6.964v0.459h-8.448
		C54.236,27.166,54.884,29.001,56.773,29.001z M56.801,20.688c-1.458,0-2.268,1.242-2.457,2.591h4.886
		C59.067,21.957,58.231,20.688,56.801,20.688z"/>
	<path fill="#FFFFFF" d="M71.326,38.233c-3.131,0-6.316-1.917-6.478-5.344h3.859c0.189,1.376,1.161,2.267,2.537,2.267
		c2.592,0,2.646-2.294,2.646-4.21v-0.837h-0.054c-0.783,1.025-2.159,1.7-3.509,1.7c-3.752,0-5.776-3.32-5.776-6.748
		c0-3.536,2.132-6.937,5.965-6.937c1.269,0,2.592,0.648,3.32,1.646h0.054v-1.242h3.671v12.066
		C77.562,34.778,76.131,38.233,71.326,38.233z M71.3,21.363c-1.89,0-3.023,1.889-3.023,3.617s1.134,3.563,3.023,3.563
		s3.022-1.835,3.022-3.563S73.189,21.363,71.3,21.363z"/>
	<path fill="#FFFFFF" d="M82.235,15.316c-1.188,0-2.159-0.972-2.159-2.16c0-1.188,0.972-2.187,2.159-2.187
		c1.215,0,2.187,0.999,2.187,2.187C84.422,14.345,83.45,15.316,82.235,15.316z M80.427,31.377V18.528h3.644v12.849H80.427z"/>
	<path fill="#FFFFFF" d="M91.279,20.688c-0.594,0-1.188,0.458-1.188,1.08c0,0.945,1.322,1.215,2.646,1.781
		c1.322,0.594,2.646,1.485,2.646,3.698c0,2.861-2.322,4.562-5.021,4.562c-1.728,0-3.4-0.81-4.508-2.159l1.674-2.159
		c0.702,0.783,1.646,1.484,2.727,1.484c0.81,0,1.457-0.54,1.457-1.376c0-1.134-1.295-1.404-2.563-1.944
		c-1.296-0.567-2.564-1.322-2.564-3.374c0-2.402,1.673-4.157,4.075-4.157c1.35,0,3.077,0.405,4.13,1.323l-1.565,2.132
		C92.71,21.066,92.008,20.688,91.279,20.688z"/>
	<path fill="#FFFFFF" d="M97.652,31.377v-9.745h-1.241v-3.104h1.241v-4.346h3.671v4.346h2.241v3.104h-2.241v9.745H97.652z"/>
	<path fill="#FFFFFF" d="M109.02,19.878c0.756-1.134,1.835-1.754,3.212-1.754c0.513,0,1.025,0.135,1.512,0.297l-0.459,3.401
		c-0.432-0.297-0.944-0.458-1.512-0.458c-2.537,0-2.78,2.24-2.78,4.238v5.776h-3.671V18.528h3.671v1.35H109.02z"/>
	<path fill="#FFFFFF" d="M123.518,31.377v-1.188h-0.055c-0.782,1.025-2.159,1.619-3.481,1.619c-3.779,0-5.912-3.428-5.912-6.91
		c0-3.401,2.16-6.775,5.857-6.775c1.323,0,2.7,0.567,3.591,1.62v-1.215h3.59v12.849H123.518z M120.818,21.363
		c-1.89,0-3.023,1.862-3.023,3.59s1.134,3.59,3.023,3.59c1.889,0,3.05-1.862,3.05-3.59S122.707,21.363,120.818,21.363z"/>
	<path fill="#FFFFFF" d="M133.671,19.878c0.756-1.134,1.835-1.754,3.212-1.754c0.513,0,1.025,0.135,1.512,0.297l-0.459,3.401
		c-0.432-0.297-0.944-0.458-1.512-0.458c-2.537,0-2.78,2.24-2.78,4.238v5.776h-3.671V18.528h3.671v1.35H133.671z"/>
	<path fill="#FFFFFF" d="M151.518,19.716c0.782-1.161,2.051-1.592,3.347-1.592c3.455,0,4.454,2.429,4.454,5.398v7.855h-3.645v-6.802
		c0-1.539,0.055-3.536-1.997-3.536c-2.187,0-2.187,2.43-2.187,3.995v6.343h-3.671V18.528h3.671v1.188H151.518z"/>
	<path fill="#FFFFFF" d="M165.854,25.493c0,1.458,0.216,3.212,2.078,3.212c1.863,0,2.105-1.754,2.105-3.212v-6.964h3.645v7.558
		c0,3.752-1.917,5.722-5.75,5.722c-3.806,0-5.749-1.97-5.749-5.722v-7.558h3.671V25.493z"/>
	<path fill="#FFFFFF" d="M182.108,29.001c1.215,0,1.971-0.729,2.456-1.754l3.374,0.54c-0.891,2.564-3.131,4.021-5.83,4.021
		c-3.968,0-6.397-2.834-6.397-6.721c0-3.914,2.052-6.964,6.235-6.964c4.211,0,6.073,3.104,6.073,6.964v0.459h-8.448
		C179.571,27.166,180.219,29.001,182.108,29.001z M182.136,20.688c-1.458,0-2.268,1.242-2.457,2.591h4.886
		C184.402,21.957,183.566,20.688,182.136,20.688z"/>
	<path fill="#FFFFFF" d="M198.497,18.528h4.021l-5.911,13.119h-1.89l-5.884-13.119h4.021l3.023,7.261L198.497,18.528z"/>
	<path fill="#FFFFFF" d="M209.271,31.809c-4.022,0-6.748-2.861-6.748-6.829c0-4.022,2.753-6.856,6.748-6.856
		s6.748,2.834,6.748,6.856C216.019,28.948,213.292,31.809,209.271,31.809z M209.271,28.542c1.89,0,3.023-1.835,3.023-3.563
		c0-1.781-1.134-3.617-3.023-3.617s-3.023,1.835-3.023,3.617C206.247,26.707,207.381,28.542,209.271,28.542z"/>
	<path fill="#FFFFFF" d="M226.794,31.377v-9.745h-1.241v-3.104h1.241v-4.346h3.671v4.346h2.241v3.104h-2.241v9.745H226.794z"/>
	<path fill="#FFFFFF" d="M236.703,15.316c-1.188,0-2.159-0.972-2.159-2.16c0-1.188,0.972-2.187,2.159-2.187
		c1.215,0,2.187,0.999,2.187,2.187C238.89,14.345,237.918,15.316,236.703,15.316z M234.895,31.377V18.528h3.644v12.849H234.895z"/>
	<path fill="#FFFFFF" d="M247.69,21.201c-2.078,0-3.239,1.943-3.239,3.833c0,1.998,1.269,3.671,3.374,3.671
		c0.973,0,1.89-0.486,2.564-1.214v3.509c-0.998,0.567-2.051,0.81-3.185,0.81c-3.779,0-6.479-3.131-6.479-6.802
		c0-3.833,2.808-6.883,6.667-6.883c1.026,0,2.105,0.243,2.996,0.81v3.536C249.58,21.687,248.798,21.201,247.69,21.201z"/>
	<path fill="#FFFFFF" d="M256.548,23.252l3.859-4.724h4.751l-5.398,5.668l5.83,7.18h-4.831l-4.211-5.453h-0.027v5.453h-3.671V9.189
		h3.671v14.063H256.548z"/>
	<path fill="#FFFFFF" d="M271.532,29.001c1.215,0,1.971-0.729,2.456-1.754l3.374,0.54c-0.891,2.564-3.131,4.021-5.83,4.021
		c-3.968,0-6.397-2.834-6.397-6.721c0-3.914,2.052-6.964,6.235-6.964c4.211,0,6.073,3.104,6.073,6.964v0.459h-8.448
		C268.995,27.166,269.643,29.001,271.532,29.001z M271.56,20.688c-1.458,0-2.268,1.242-2.457,2.591h4.886
		C273.826,21.957,272.99,20.688,271.56,20.688z"/>
	<path fill="#FFFFFF" d="M280.173,31.377v-9.745h-1.241v-3.104h1.241v-4.346h3.671v4.346h2.241v3.104h-2.241v9.745H280.173z"/>
</g>
</svg>
