<?xml version="1.0" encoding="utf-8"?>
<!-- Generator: Adobe Illustrator 16.0.0, SVG Export Plug-In . SVG Version: 6.00 Build 0)  -->
<!DOCTYPE svg PUBLIC "-//W3C//DTD SVG 1.1//EN" "http://www.w3.org/Graphics/SVG/1.1/DTD/svg11.dtd">
<svg version="1.1" id="Layer_1" xmlns="http://www.w3.org/2000/svg" xmlns:xlink="http://www.w3.org/1999/xlink" x="0px" y="0px"
	 width="172.393px" height="55.116px" viewBox="0 0 172.393 55.116" enable-background="new 0 0 172.393 55.116"
	 xml:space="preserve">
<g>
	
		<path fill="none" stroke="#FFFFFF" stroke-width="2.8346" stroke-linecap="round" stroke-linejoin="round" stroke-miterlimit="10" d="
		M4.75,39.678V7.509h8.537c6.733,0,11.09,2.684,11.09,9.989c0,6.821-3.696,10.166-10.254,10.166h-3.124v12.014H4.75z M12.275,22.471
		c3.74,0,5.721-0.836,5.721-5.017c0-4.137-2.377-4.708-5.897-4.708h-1.1v9.725H12.275z"/>
	
		<path fill="none" stroke="#FFFFFF" stroke-width="2.8346" stroke-linecap="round" stroke-linejoin="round" stroke-miterlimit="10" d="
		M40.966,39.678v-1.937h-0.088c-1.276,1.672-3.521,2.641-5.677,2.641c-6.161,0-9.638-5.589-9.638-11.266
		c0-5.545,3.521-11.045,9.549-11.045c2.157,0,4.401,0.924,5.854,2.64v-1.98h5.853v20.947H40.966z M36.564,23.352
		c-3.08,0-4.928,3.036-4.928,5.853s1.848,5.853,4.928,5.853c3.081,0,4.974-3.037,4.974-5.853S39.646,23.352,36.564,23.352z"/>
	
		<path fill="none" stroke="#FFFFFF" stroke-width="2.8346" stroke-linecap="round" stroke-linejoin="round" stroke-miterlimit="10" d="
		M57.511,20.931c1.231-1.848,2.992-2.86,5.236-2.86c0.836,0,1.672,0.22,2.464,0.484L64.463,24.1
		c-0.704-0.484-1.54-0.748-2.464-0.748c-4.137,0-4.532,3.652-4.532,6.909v9.417h-5.985V18.73h5.985v2.201H57.511z"/>
	
		<path fill="none" stroke="#FFFFFF" stroke-width="2.8346" stroke-linecap="round" stroke-linejoin="round" stroke-miterlimit="10" d="
		M69.435,39.678V23.792H67.41V18.73h2.024v-7.085h5.984v7.085h3.652v5.061h-3.652v15.886H69.435z"/>
	
		<path fill="none" stroke="#FFFFFF" stroke-width="2.8346" stroke-linecap="round" stroke-linejoin="round" stroke-miterlimit="10" d="
		M85.583,13.494c-1.937,0-3.521-1.584-3.521-3.521c0-1.937,1.584-3.564,3.521-3.564c1.98,0,3.564,1.628,3.564,3.564
		C89.147,11.91,87.563,13.494,85.583,13.494z M82.635,39.678V18.73h5.94v20.947H82.635z"/>
	
		<path fill="none" stroke="#FFFFFF" stroke-width="2.8346" stroke-linecap="round" stroke-linejoin="round" stroke-miterlimit="10" d="
		M103.494,23.087c-3.389,0-5.281,3.168-5.281,6.249c0,3.256,2.068,5.985,5.501,5.985c1.584,0,3.08-0.792,4.181-1.98v5.721
		c-1.629,0.924-3.345,1.32-5.193,1.32c-6.16,0-10.562-5.104-10.562-11.09c0-6.249,4.577-11.221,10.87-11.221
		c1.672,0,3.433,0.396,4.885,1.32v5.765C106.574,23.879,105.298,23.087,103.494,23.087z"/>
	
		<path fill="none" stroke="#FFFFFF" stroke-width="2.8346" stroke-linecap="round" stroke-linejoin="round" stroke-miterlimit="10" d="
		M114.846,13.494c-1.937,0-3.521-1.584-3.521-3.521c0-1.937,1.584-3.564,3.521-3.564c1.98,0,3.564,1.628,3.564,3.564
		C118.41,11.91,116.826,13.494,114.846,13.494z M111.897,39.678V18.73h5.94v20.947H111.897z"/>
	
		<path fill="none" stroke="#FFFFFF" stroke-width="2.8346" stroke-linecap="round" stroke-linejoin="round" stroke-miterlimit="10" d="
		M134.252,18.071c5.94,0,9.549,5.544,9.549,11.045c0,5.721-3.477,11.266-9.682,11.266c-2.111,0-4.356-0.968-5.588-2.685h-0.045
		v13.158h-5.984V18.73h5.984v1.937C129.851,19.039,132.052,18.071,134.252,18.071z M132.8,23.352c-3.037,0-4.929,3.036-4.929,5.853
		s1.892,5.853,4.929,5.853c3.08,0,4.973-3.037,4.973-5.853S135.88,23.352,132.8,23.352z"/>
	
		<path fill="none" stroke="#FFFFFF" stroke-width="2.8346" stroke-linecap="round" stroke-linejoin="round" stroke-miterlimit="10" d="
		M162.766,39.678v-1.937h-0.088c-1.276,1.672-3.521,2.641-5.677,2.641c-6.161,0-9.638-5.589-9.638-11.266
		c0-5.545,3.521-11.045,9.549-11.045c2.156,0,4.401,0.924,5.854,2.64v-1.98h5.853v20.947H162.766z M158.365,23.352
		c-3.081,0-4.93,3.036-4.93,5.853s1.849,5.853,4.93,5.853c3.08,0,4.973-3.037,4.973-5.853S161.445,23.352,158.365,23.352z"/>
</g>
<text transform="matrix(1 0 0 1 4.75 39.6777)" fill="#9D2250" font-family="'DFutHvy1'" font-size="44.0032">Participa</text>
</svg>
