<?xml version="1.0" encoding="utf-8"?>
<!-- Generator: Adobe Illustrator 16.0.0, SVG Export Plug-In . SVG Version: 6.00 Build 0)  -->
<!DOCTYPE svg PUBLIC "-//W3C//DTD SVG 1.1//EN" "http://www.w3.org/Graphics/SVG/1.1/DTD/svg11.dtd">
<svg version="1.1" id="Layer_1" xmlns="http://www.w3.org/2000/svg" xmlns:xlink="http://www.w3.org/1999/xlink" x="0px" y="0px"
	 width="309.982px" height="42.658px" viewBox="0 0 309.982 42.658" enable-background="new 0 0 309.982 42.658"
	 xml:space="preserve">
<g>
	<path fill="#FFFFFF" d="M16.111,32.671h-4.203V14.703H7.526v-3.671h12.937v3.671h-4.352V32.671z"/>
	<path fill="#FFFFFF" d="M24.076,26.277c0,1.776,0.711,3.789,2.782,3.789c1.332,0,2.161-0.799,2.694-1.924l3.7,0.592
		c-0.977,2.812-3.434,4.411-6.395,4.411c-4.352,0-7.016-3.108-7.016-7.371c0-4.292,2.25-7.637,6.839-7.637
		c4.617,0,6.66,3.404,6.66,7.637v0.503H24.076z M29.553,23.791c-0.178-1.451-1.096-2.842-2.664-2.842
		c-1.599,0-2.487,1.361-2.694,2.842H29.553z M30.943,12.246l-4.321,4.292l-2.043-1.243l3.435-4.825L30.943,12.246z"/>
	<path fill="#FFFFFF" d="M40.063,20.061c0.829-1.244,2.013-1.924,3.522-1.924c0.562,0,1.125,0.148,1.658,0.326l-0.504,3.73
		c-0.474-0.326-1.036-0.503-1.657-0.503c-2.783,0-3.05,2.457-3.05,4.647v6.335h-4.025v-14.09h4.025v1.48H40.063z"/>
	<path fill="#FFFFFF" d="M51.343,19.854c0.799-1.125,2.161-1.717,3.463-1.717c1.747,0,3.108,0.71,4.026,2.19
		c0.858-1.361,2.486-2.19,4.114-2.19c3.582,0,4.47,2.694,4.47,5.772v8.762h-4.025v-7.4c0-1.362,0.089-3.937-1.895-3.937
		c-2.161,0-2.131,2.96-2.131,4.44v6.897h-4.026v-7.134c0-1.391,0.178-4.203-1.924-4.203c-2.221,0-2.103,2.931-2.103,4.44v6.897
		h-4.025v-14.09h4.025v1.272H51.343z"/>
	<path fill="#FFFFFF" d="M72.54,15.058c-1.303,0-2.368-1.065-2.368-2.368c0-1.302,1.065-2.398,2.368-2.398
		c1.332,0,2.397,1.096,2.397,2.398C74.938,13.993,73.872,15.058,72.54,15.058z M70.557,32.671v-14.09h3.996v14.09H70.557z"/>
	<path fill="#FFFFFF" d="M81.747,19.883c0.858-1.273,2.25-1.747,3.671-1.747c3.789,0,4.884,2.664,4.884,5.92v8.614h-3.996v-7.459
		c0-1.688,0.06-3.878-2.19-3.878c-2.398,0-2.398,2.664-2.398,4.381v6.957h-4.025v-14.09h4.025v1.302H81.747z"/>
	<path fill="#FFFFFF" d="M99.954,33.145c-4.411,0-7.4-3.138-7.4-7.489c0-4.411,3.019-7.519,7.4-7.519c4.381,0,7.4,3.108,7.4,7.519
		C107.354,30.007,104.364,33.145,99.954,33.145z M99.954,29.563c2.072,0,3.315-2.013,3.315-3.907c0-1.954-1.243-3.967-3.315-3.967
		s-3.315,2.013-3.315,3.967C96.639,27.55,97.882,29.563,99.954,29.563z"/>
	<path fill="#FFFFFF" d="M114.845,20.949c-0.651,0-1.302,0.503-1.302,1.184c0,1.036,1.45,1.333,2.9,1.954
		c1.451,0.651,2.901,1.628,2.901,4.055c0,3.138-2.546,5.003-5.506,5.003c-1.895,0-3.73-0.888-4.944-2.368l1.836-2.368
		c0.77,0.858,1.806,1.628,2.989,1.628c0.889,0,1.599-0.592,1.599-1.509c0-1.244-1.421-1.54-2.812-2.132
		c-1.421-0.622-2.812-1.45-2.812-3.7c0-2.634,1.835-4.559,4.47-4.559c1.48,0,3.375,0.444,4.529,1.451l-1.717,2.338
		C116.414,21.363,115.645,20.949,114.845,20.949z"/>
	<path fill="#FFFFFF" d="M132.992,18.581l3.346,8.022l3.641-8.022h4.47L134.206,40.19h-4.411l4.618-9.68l-5.979-11.929H132.992z"/>
	<path fill="#FFFFFF" d="M167.896,16.775c-1.185-1.421-2.96-2.279-4.766-2.279c-4.026,0-6.365,3.73-6.365,7.46
		c0,3.641,2.428,7.282,6.335,7.282c1.806,0,3.611-0.947,4.796-2.309v5.032c-1.569,0.74-3.138,1.273-4.914,1.273
		c-6.068,0-10.568-5.24-10.568-11.189c0-6.157,4.322-11.575,10.657-11.575c1.688,0,3.375,0.474,4.825,1.273V16.775z"/>
	<path fill="#FFFFFF" d="M177.37,33.145c-4.411,0-7.4-3.138-7.4-7.489c0-4.411,3.019-7.519,7.4-7.519c4.381,0,7.4,3.108,7.4,7.519
		C184.771,30.007,181.78,33.145,177.37,33.145z M177.37,29.563c2.072,0,3.315-2.013,3.315-3.907c0-1.954-1.243-3.967-3.315-3.967
		s-3.315,2.013-3.315,3.967C174.055,27.55,175.298,29.563,177.37,29.563z"/>
	<path fill="#FFFFFF" d="M191.551,19.883c0.858-1.273,2.25-1.747,3.671-1.747c3.789,0,4.884,2.664,4.884,5.92v8.614h-3.996v-7.459
		c0-1.688,0.06-3.878-2.19-3.878c-2.397,0-2.397,2.664-2.397,4.381v6.957h-4.026v-14.09h4.026v1.302H191.551z"/>
	<path fill="#FFFFFF" d="M212.836,31.339c-0.828,1.154-2.338,1.806-3.789,1.806c-4.145,0-6.482-3.759-6.482-7.578
		c0-3.73,2.368-7.43,6.424-7.43c1.45,0,2.96,0.622,3.848,1.747h0.06V8.338h3.996v24.333h-3.996v-1.332H212.836z M209.965,21.689
		c-2.072,0-3.315,2.042-3.315,3.937s1.243,3.937,3.315,3.937s3.315-2.042,3.315-3.937S212.037,21.689,209.965,21.689z"/>
	<path fill="#FFFFFF" d="M222.133,15.058c-1.303,0-2.368-1.065-2.368-2.368c0-1.302,1.065-2.398,2.368-2.398
		c1.332,0,2.397,1.096,2.397,2.398C224.53,13.993,223.465,15.058,222.133,15.058z M220.149,32.671v-14.09h3.996v14.09H220.149z"/>
	<path fill="#FFFFFF" d="M234.182,21.511c-2.279,0-3.553,2.131-3.553,4.204c0,2.19,1.392,4.026,3.7,4.026
		c1.066,0,2.072-0.533,2.812-1.332v3.848c-1.095,0.622-2.25,0.888-3.493,0.888c-4.145,0-7.104-3.434-7.104-7.459
		c0-4.204,3.079-7.549,7.312-7.549c1.125,0,2.31,0.267,3.286,0.888v3.878C236.254,22.044,235.396,21.511,234.182,21.511z"/>
	<path fill="#FFFFFF" d="M241.82,15.058c-1.303,0-2.368-1.065-2.368-2.368c0-1.302,1.065-2.398,2.368-2.398
		c1.332,0,2.397,1.096,2.397,2.398C244.218,13.993,243.152,15.058,241.82,15.058z M239.837,32.671v-14.09h3.996v14.09H239.837z"/>
	<path fill="#FFFFFF" d="M253.484,33.145c-4.411,0-7.4-3.138-7.4-7.489c0-4.411,3.02-7.519,7.4-7.519s7.4,3.108,7.4,7.519
		C260.885,30.007,257.895,33.145,253.484,33.145z M253.484,29.563c2.072,0,3.315-2.013,3.315-3.907c0-1.954-1.243-3.967-3.315-3.967
		s-3.315,2.013-3.315,3.967C250.169,27.55,251.412,29.563,253.484,29.563z"/>
	<path fill="#FFFFFF" d="M267.665,19.883c0.858-1.273,2.25-1.747,3.671-1.747c3.789,0,4.884,2.664,4.884,5.92v8.614h-3.996v-7.459
		c0-1.688,0.06-3.878-2.19-3.878c-2.398,0-2.398,2.664-2.398,4.381v6.957h-4.025v-14.09h4.025v1.302H267.665z"/>
	<path fill="#FFFFFF" d="M285.457,30.066c1.332,0,2.161-0.799,2.694-1.924l3.7,0.592c-0.977,2.812-3.434,4.411-6.395,4.411
		c-4.352,0-7.016-3.108-7.016-7.371c0-4.292,2.25-7.637,6.838-7.637c4.618,0,6.661,3.404,6.661,7.637v0.503h-9.266
		C282.675,28.054,283.385,30.066,285.457,30.066z M285.487,20.949c-1.599,0-2.487,1.361-2.694,2.842h5.358
		C287.974,22.34,287.056,20.949,285.487,20.949z"/>
	<path fill="#FFFFFF" d="M299.372,20.949c-0.651,0-1.302,0.503-1.302,1.184c0,1.036,1.45,1.333,2.9,1.954
		c1.451,0.651,2.901,1.628,2.901,4.055c0,3.138-2.546,5.003-5.506,5.003c-1.895,0-3.73-0.888-4.944-2.368l1.836-2.368
		c0.77,0.858,1.806,1.628,2.989,1.628c0.889,0,1.599-0.592,1.599-1.509c0-1.244-1.421-1.54-2.812-2.132
		c-1.421-0.622-2.812-1.45-2.812-3.7c0-2.634,1.835-4.559,4.47-4.559c1.48,0,3.375,0.444,4.529,1.451l-1.717,2.338
		C300.941,21.363,300.172,20.949,299.372,20.949z"/>
</g>
</svg>
