<?xml version="1.0" encoding="utf-8"?>
<!-- Generator: Adobe Illustrator 16.0.0, SVG Export Plug-In . SVG Version: 6.00 Build 0)  -->
<!DOCTYPE svg PUBLIC "-//W3C//DTD SVG 1.1//EN" "http://www.w3.org/Graphics/SVG/1.1/DTD/svg11.dtd">
<svg version="1.1" id="Layer_1" xmlns="http://www.w3.org/2000/svg" xmlns:xlink="http://www.w3.org/1999/xlink" x="0px" y="0px"
	 width="81px" height="24.667px" viewBox="0 0 81 24.667" enable-background="new 0 0 81 24.667" xml:space="preserve">
<g>
	<path fill="#FFFFFF" d="M3.554,17.773V3.027h3.912c3.088,0,5.084,1.23,5.084,4.579c0,3.127-1.693,4.66-4.699,4.66H6.417v5.507
		H3.554z M7.003,9.885c1.715,0,2.623-0.383,2.623-2.299c0-1.896-1.09-2.158-2.703-2.158H6.417v4.458H7.003z"/>
	<path fill="#FFFFFF" d="M20.155,17.773v-0.888h-0.041c-0.584,0.767-1.613,1.211-2.602,1.211c-2.824,0-4.418-2.562-4.418-5.164
		c0-2.542,1.613-5.063,4.377-5.063c0.988,0,2.018,0.423,2.684,1.21V8.17h2.682v9.603H20.155z M18.138,10.29
		c-1.412,0-2.26,1.392-2.26,2.683s0.848,2.683,2.26,2.683s2.279-1.392,2.279-2.683S19.55,10.29,18.138,10.29z"/>
	<path fill="#FFFFFF" d="M27.739,9.18c0.564-0.848,1.371-1.312,2.4-1.312c0.383,0,0.766,0.101,1.129,0.222l-0.342,2.541
		c-0.324-0.221-0.707-0.342-1.131-0.342c-1.896,0-2.078,1.674-2.078,3.166v4.317h-2.742V8.17h2.742v1.01H27.739z"/>
	<path fill="#FFFFFF" d="M33.206,17.773v-7.282h-0.928V8.17h0.928V4.923h2.742V8.17h1.674v2.32h-1.674v7.282H33.206z"/>
	<path fill="#FFFFFF" d="M40.608,5.771c-0.889,0-1.615-0.726-1.615-1.614s0.727-1.634,1.615-1.634c0.908,0,1.633,0.746,1.633,1.634
		S41.517,5.771,40.608,5.771z M39.257,17.773V8.17h2.723v9.603H39.257z"/>
	<path fill="#FFFFFF" d="M48.817,10.168c-1.553,0-2.42,1.452-2.42,2.864c0,1.493,0.947,2.743,2.521,2.743
		c0.727,0,1.412-0.363,1.916-0.908v2.623c-0.746,0.424-1.533,0.605-2.381,0.605c-2.824,0-4.84-2.34-4.84-5.084
		c0-2.864,2.098-5.144,4.982-5.144c0.766,0,1.572,0.181,2.238,0.604v2.643C50.229,10.532,49.646,10.168,48.817,10.168z"/>
	<path fill="#FFFFFF" d="M54.022,5.771c-0.889,0-1.615-0.726-1.615-1.614s0.727-1.634,1.615-1.634c0.908,0,1.633,0.746,1.633,1.634
		S54.931,5.771,54.022,5.771z M52.671,17.773V8.17h2.723v9.603H52.671z"/>
	<path fill="#FFFFFF" d="M62.917,7.869c2.725,0,4.379,2.542,4.379,5.063c0,2.622-1.594,5.164-4.439,5.164
		c-0.967,0-1.996-0.444-2.561-1.23h-0.021v6.031h-2.742V8.17h2.742v0.889C60.901,8.312,61.909,7.869,62.917,7.869z M62.253,10.29
		c-1.393,0-2.26,1.392-2.26,2.683s0.867,2.683,2.26,2.683c1.412,0,2.279-1.392,2.279-2.683S63.665,10.29,62.253,10.29z"/>
	<path fill="#FFFFFF" d="M75.989,17.773v-0.888h-0.041c-0.584,0.767-1.613,1.211-2.602,1.211c-2.824,0-4.418-2.562-4.418-5.164
		c0-2.542,1.613-5.063,4.377-5.063c0.988,0,2.018,0.423,2.684,1.21V8.17h2.682v9.603H75.989z M73.972,10.29
		c-1.412,0-2.26,1.392-2.26,2.683s0.848,2.683,2.26,2.683s2.279-1.392,2.279-2.683S75.384,10.29,73.972,10.29z"/>
</g>
</svg>
