<?xml version="1.0" encoding="utf-8"?>
<!-- Generator: Adobe Illustrator 16.0.0, SVG Export Plug-In . SVG Version: 6.00 Build 0)  -->
<!DOCTYPE svg PUBLIC "-//W3C//DTD SVG 1.1//EN" "http://www.w3.org/Graphics/SVG/1.1/DTD/svg11.dtd">
<svg version="1.1" id="Capa_1" xmlns="http://www.w3.org/2000/svg" xmlns:xlink="http://www.w3.org/1999/xlink" x="0px" y="0px"
	 width="1005.101px" height="321.032px" viewBox="0 0 1005.101 321.032" enable-background="new 0 0 1005.101 321.032"
	 xml:space="preserve">
<g>
	<g>
		<g opacity="0.8">
			<g>
				<path fill="#1D71B8" d="M116.181,103.864c0.006,0.086-0.012,0.174-0.047,0.262c-0.039,0.09-0.05,0.221-0.038,0.392
					l-1.886,16.457c-0.166,1.394-0.81,2.128-1.927,2.203l-0.387,0.025c-2.508-0.005-6.072-0.004-10.693,0
					c-4.623,0.006-9.344,0.168-14.16,0.49c-3.185,0.212-5.939,0.678-8.268,1.394c-2.33,0.718-4.283,1.864-5.862,3.436
					c-1.58,1.576-2.825,3.646-3.734,6.212c-0.91,2.568-1.58,5.808-2.009,9.725l-1.54,13.842c-0.305,3.218-0.383,5.945-0.233,8.181
					c0.166,2.496,0.578,4.478,1.239,5.944c0.658,1.469,1.47,2.604,2.43,3.402c0.961,0.8,2.03,1.291,3.21,1.471
					c1.177,0.181,2.367,0.232,3.573,0.152c2.665-0.177,5.066-0.468,7.201-0.87l2.883-26.763c0.125-0.699,0.43-1.324,0.911-1.875
					c0.481-0.551,1.066-0.85,1.756-0.896l20.389-1.359c1.462-0.097,2.242,0.586,2.339,2.048l0.026,0.387l-4.732,43.737
					c-0.11,0.959-0.365,1.667-0.767,2.125c-0.402,0.46-1.157,0.813-2.262,1.059c-3.82,1.031-8.248,2.039-13.279,3.023
					c-5.034,0.982-10.69,1.684-16.969,2.103c-3.613,0.241-7.373-0.072-11.273-0.935c-3.903-0.861-7.51-2.458-10.817-4.787
					c-3.311-2.327-6.113-5.468-8.405-9.42c-2.295-3.95-3.639-8.896-4.034-14.832c-0.104-1.548-0.147-3.185-0.134-4.916
					c0.015-1.728,0.133-3.509,0.357-5.338l1.549-13.713c1.096-9.49,3.178-17.146,6.247-22.969c3.066-5.82,6.717-10.362,10.95-13.626
					c4.232-3.263,8.813-5.513,13.744-6.749c4.928-1.235,9.76-2.011,14.491-2.326c6.711-0.447,12.394-0.415,17.051,0.095
					c4.655,0.512,8.254,1.027,10.796,1.549c0.699,0.127,1.251,0.285,1.652,0.473C115.921,102.868,116.141,103.264,116.181,103.864z"
					/>
				<path fill="#1D71B8" d="M193.392,120.754c0.028,0.432,0.006,0.776-0.061,1.041l-7.194,67.101
					c-0.127,0.702-0.41,1.324-0.849,1.871c-0.438,0.548-1.002,0.845-1.689,0.891l-16.13,1.075c-1.55,0.104-2.371-0.571-2.469-2.023
					l-0.025-0.385l0.252-4.004c-3.266,2.881-6.404,5.045-9.418,6.488c-3.016,1.445-6.329,2.29-9.942,2.53
					c-3.097,0.207-6.06-0.159-8.886-1.094c-2.829-0.933-5.323-2.386-7.484-4.361c-2.163-1.972-3.929-4.489-5.299-7.553
					c-1.371-3.062-2.191-6.614-2.461-10.659c-0.08-1.205-0.079-2.478,0.005-3.825c0.083-1.344,0.172-2.582,0.271-3.711l1.325-13.181
					c0.62-6.263,1.998-11.495,4.139-15.699c2.139-4.204,4.848-7.646,8.126-10.328c3.276-2.68,7.055-4.659,11.334-5.939
					c4.277-1.277,8.87-2.082,13.773-2.409c4.646-0.31,9.376-0.32,14.19-0.038c4.814,0.284,9.576,0.745,14.285,1.38
					c1.221,0.178,2.208,0.417,2.963,0.711C192.899,118.929,193.316,119.637,193.392,120.754z M163.384,137.27
					c-1.383,0.007-2.719,0.052-4.009,0.138c-1.807,0.121-3.364,0.418-4.671,0.895c-1.31,0.476-2.402,1.262-3.278,2.357
					c-0.879,1.095-1.605,2.505-2.182,4.228c-0.577,1.724-0.993,3.89-1.251,6.5l-1.532,13.97c-0.133,0.615-0.179,1.202-0.142,1.759
					c0.037,0.561,0.07,1.055,0.099,1.484c0.155,2.323,0.796,3.858,1.927,4.603c1.13,0.747,2.599,1.058,4.405,0.938
					c1.979-0.132,3.974-0.654,5.987-1.565c2.013-0.912,3.639-1.797,4.878-2.659l3.536-32.509
					C166.021,137.312,164.766,137.266,163.384,137.27z"/>
				<path fill="#1D71B8" d="M272.046,132.103c0.114,1.723,0.141,3.426,0.08,5.115c-0.061,1.689-0.202,3.449-0.425,5.278
					l-4.415,40.733c-0.127,0.701-0.472,1.372-1.032,2.013c-0.562,0.644-1.229,0.989-2.005,1.041l-19.356,1.29
					c-0.688,0.046-1.241-0.154-1.659-0.602c-0.419-0.447-0.648-0.972-0.688-1.575l-0.035-0.517l4.484-41.646
					c0.097-1.128,0.217-2.238,0.361-3.329c0.143-1.089,0.178-2.194,0.103-3.312c-0.132-1.979-0.672-3.281-1.621-3.911
					c-0.948-0.626-2.542-0.868-4.778-0.718c-1.98,0.132-3.979,0.569-6.005,1.307c-2.024,0.741-3.616,1.496-4.774,2.262
					l-5.448,50.524c-0.121,0.786-0.463,1.479-1.027,2.077c-0.566,0.601-1.321,0.931-2.268,0.994l-18.453,1.229
					c-0.773,0.052-1.476-0.096-2.103-0.442c-0.629-0.348-0.969-0.908-1.02-1.682l-0.035-0.517l7.745-70.508
					c0.126-0.699,0.45-1.326,0.977-1.88c0.524-0.554,1.13-0.852,1.819-0.898l17.679-1.178c1.462-0.098,2.242,0.585,2.34,2.047
					l0.025,0.387l-0.422,3.397c4.359-3.313,8.253-5.517,11.68-6.61c3.427-1.091,6.258-1.713,8.495-1.862
					c3.697-0.247,6.878,0.125,9.536,1.114s4.851,2.463,6.581,4.422c1.729,1.959,3.05,4.29,3.966,6.994
					C271.261,125.85,271.828,128.835,272.046,132.103z"/>
				<path fill="#1D71B8" d="M353.918,110.057c0.028,0.432,0.006,0.776-0.061,1.041l-7.194,67.101
					c-0.127,0.702-0.41,1.324-0.849,1.871c-0.439,0.548-1.002,0.845-1.689,0.891l-16.13,1.075c-1.55,0.103-2.371-0.571-2.468-2.023
					l-0.026-0.385l0.252-4.004c-3.266,2.881-6.404,5.045-9.419,6.489c-3.015,1.445-6.328,2.289-9.941,2.53
					c-3.097,0.206-6.06-0.159-8.886-1.094c-2.829-0.933-5.323-2.386-7.484-4.362c-2.163-1.972-3.929-4.488-5.299-7.553
					c-1.371-3.062-2.191-6.613-2.461-10.658c-0.08-1.205-0.079-2.479,0.005-3.825c0.083-1.344,0.172-2.581,0.271-3.711l1.325-13.18
					c0.62-6.263,1.998-11.495,4.139-15.7c2.139-4.203,4.847-7.646,8.126-10.328c3.276-2.681,7.055-4.66,11.334-5.939
					c4.277-1.278,8.87-2.082,13.773-2.409c4.646-0.31,9.375-0.321,14.19-0.038c4.814,0.284,9.576,0.745,14.285,1.38
					c1.221,0.178,2.209,0.417,2.963,0.711C353.426,108.232,353.843,108.94,353.918,110.057z M323.91,126.573
					c-1.383,0.007-2.719,0.052-4.009,0.138c-1.807,0.12-3.365,0.418-4.671,0.895c-1.31,0.476-2.402,1.262-3.278,2.357
					c-0.88,1.095-1.605,2.505-2.182,4.228c-0.577,1.724-0.993,3.89-1.251,6.5l-1.532,13.97c-0.133,0.615-0.179,1.202-0.142,1.759
					c0.037,0.561,0.07,1.055,0.099,1.484c0.155,2.323,0.796,3.858,1.927,4.603c1.13,0.747,2.598,1.058,4.404,0.938
					c1.979-0.132,3.975-0.654,5.988-1.565c2.013-0.912,3.639-1.797,4.878-2.659l3.536-32.509
					C326.547,126.615,325.292,126.568,323.91,126.573z"/>
				<path fill="#1D71B8" d="M466.414,100.227l-7.744,70.508c-0.127,0.702-0.453,1.327-0.977,1.88
					c-0.525,0.554-1.133,0.853-1.819,0.899l-17.68,1.178c-1.464,0.097-2.242-0.583-2.34-2.047l-0.025-0.388l0.421-3.397
					c-4.358,3.316-8.25,5.519-11.678,6.612c-3.427,1.09-6.26,1.712-8.496,1.862c-3.699,0.247-6.877-0.125-9.535-1.115
					c-2.658-0.99-4.854-2.463-6.581-4.422c-1.731-1.959-3.054-4.312-3.97-7.06c-0.919-2.746-1.483-5.711-1.695-8.896
					c-0.115-1.72-0.144-3.425-0.081-5.114c0.06-1.688,0.202-3.447,0.426-5.277l4.415-40.735c0.124-0.699,0.47-1.37,1.031-2.012
					s1.23-0.99,2.004-1.041l19.357-1.29c0.688-0.046,1.242,0.156,1.661,0.602c0.418,0.448,0.647,0.974,0.688,1.574l0.034,0.517
					l-4.483,41.646c-0.172,1.307-0.309,2.505-0.409,3.592c-0.101,1.088-0.121,2.061-0.064,2.919c0.149,2.238,0.738,3.625,1.769,4.16
					c1.027,0.537,2.577,0.735,4.642,0.598c1.977-0.131,3.979-0.567,6.005-1.307c2.024-0.738,3.614-1.493,4.773-2.262l5.448-50.524
					c0.119-0.786,0.462-1.477,1.028-2.077c0.562-0.599,1.318-0.93,2.266-0.993l18.453-1.23c0.774-0.052,1.475,0.095,2.104,0.442
					c0.627,0.347,0.968,0.908,1.02,1.681L466.414,100.227z"/>
				<path fill="#1D71B8" d="M545.093,113.908c0.114,1.723,0.142,3.427,0.081,5.115c-0.062,1.689-0.202,3.449-0.425,5.278
					l-4.415,40.733c-0.128,0.701-0.472,1.373-1.032,2.013c-0.562,0.644-1.23,0.989-2.005,1.041l-19.356,1.29
					c-0.688,0.046-1.241-0.153-1.659-0.602c-0.419-0.447-0.648-0.972-0.688-1.574l-0.035-0.517l4.483-41.646
					c0.097-1.129,0.218-2.238,0.361-3.329c0.144-1.089,0.179-2.194,0.104-3.312c-0.132-1.979-0.672-3.281-1.621-3.911
					c-0.949-0.626-2.543-0.867-4.779-0.718c-1.979,0.132-3.979,0.569-6.004,1.308c-2.024,0.741-3.616,1.495-4.775,2.262
					l-5.447,50.524c-0.121,0.786-0.464,1.479-1.027,2.078c-0.566,0.601-1.321,0.931-2.268,0.994l-18.453,1.229
					c-0.773,0.052-1.477-0.096-2.103-0.442c-0.629-0.348-0.969-0.908-1.02-1.682l-0.035-0.517l7.745-70.508
					c0.126-0.699,0.449-1.326,0.977-1.88c0.524-0.554,1.129-0.852,1.819-0.898l17.679-1.178c1.461-0.097,2.242,0.585,2.34,2.047
					l0.025,0.387l-0.422,3.397c4.359-3.314,8.253-5.518,11.68-6.611c3.427-1.09,6.257-1.713,8.494-1.862
					c3.698-0.247,6.879,0.125,9.537,1.114s4.85,2.464,6.581,4.422c1.729,1.959,3.05,4.291,3.966,6.995
					C544.308,107.655,544.875,110.64,545.093,113.908z"/>
				<path fill="#1D71B8" d="M626.965,91.862c0.028,0.432,0.006,0.776-0.06,1.041l-7.194,67.101c-0.128,0.702-0.41,1.324-0.849,1.871
					c-0.438,0.548-1.003,0.845-1.689,0.891l-16.13,1.075c-1.55,0.104-2.371-0.571-2.469-2.023l-0.025-0.385l0.252-4.004
					c-3.266,2.881-6.404,5.045-9.418,6.488c-3.016,1.445-6.329,2.29-9.942,2.53c-3.097,0.206-6.061-0.159-8.886-1.094
					c-2.829-0.933-5.324-2.386-7.484-4.361c-2.163-1.972-3.929-4.489-5.299-7.553c-1.372-3.062-2.191-6.613-2.461-10.658
					c-0.08-1.205-0.079-2.479,0.005-3.825c0.083-1.344,0.171-2.582,0.271-3.711l1.325-13.18c0.62-6.263,1.998-11.495,4.138-15.699
					c2.14-4.204,4.848-7.646,8.126-10.328c3.277-2.68,7.056-4.66,11.335-5.939c4.277-1.277,8.87-2.082,13.772-2.409
					c4.646-0.31,9.376-0.321,14.19-0.038c4.815,0.284,9.577,0.745,14.285,1.38c1.222,0.178,2.209,0.417,2.964,0.711
					C626.474,90.037,626.89,90.745,626.965,91.862z M596.957,108.378c-1.382,0.007-2.718,0.052-4.008,0.138
					c-1.807,0.12-3.365,0.418-4.672,0.895c-1.31,0.476-2.401,1.261-3.277,2.357c-0.88,1.095-1.605,2.505-2.182,4.228
					c-0.577,1.724-0.994,3.89-1.252,6.5l-1.531,13.97c-0.134,0.615-0.179,1.202-0.142,1.759c0.037,0.561,0.07,1.055,0.099,1.484
					c0.155,2.323,0.795,3.858,1.927,4.603c1.129,0.747,2.599,1.058,4.405,0.938c1.979-0.132,3.974-0.654,5.986-1.565
					c2.014-0.912,3.64-1.797,4.879-2.659l3.536-32.509C599.596,108.42,598.339,108.373,596.957,108.378z"/>
				<path fill="#1D71B8" d="M767.181,60.354c0.012,0.174-0.001,0.324-0.034,0.457c-0.037,0.132-0.046,0.284-0.035,0.456
					l-9.775,90.604c-0.128,0.7-0.421,1.151-0.881,1.354c-0.463,0.205-0.951,0.322-1.468,0.357l-21.163,1.41
					c-0.432,0.029-0.787-0.142-1.07-0.511c-0.284-0.371-0.443-0.814-0.478-1.329l-0.043-0.646l5.103-47.908
					c-0.011-0.172-0.001-0.325,0.035-0.457c0.034-0.132,0.049-0.241,0.043-0.328c-0.023-0.343-0.122-0.511-0.293-0.5
					c-0.087,0.006-0.21,0.102-0.37,0.285l-0.129,0.009c-0.173,0.011-0.417,0.245-0.731,0.697c-0.316,0.454-0.551,0.815-0.705,1.084
					l-12.148,18.048c-1.181,1.722-2.504,2.631-3.966,2.729l-8.903,0.593c-1.464,0.097-2.636-0.646-3.52-2.23l-8.662-17.18
					c-0.189-0.246-0.313-0.497-0.374-0.752s-0.177-0.378-0.348-0.366l-0.129,0.009c-0.186-0.161-0.32-0.239-0.405-0.233
					c-0.432,0.029-0.66,0.478-0.688,1.344l-5.104,47.908c-0.127,0.702-0.388,1.323-0.783,1.867
					c-0.396,0.545-0.852,0.835-1.367,0.869l-21.292,1.419c-0.432,0.029-0.843-0.009-1.238-0.112s-0.611-0.413-0.646-0.929
					l-0.026-0.387l9.776-90.604c0.172-1.307,0.784-2.471,1.842-3.493c1.053-1.02,2.227-1.574,3.518-1.66l13.421-0.894
					c1.633-0.109,2.925,0.151,3.874,0.777c0.949,0.63,1.724,1.529,2.319,2.698l15.08,31.787c0.497,1.005,0.919,1.494,1.265,1.471
					c0.342-0.023,0.91-0.578,1.704-1.668l22.342-34.281c0.865-1.266,1.834-2.281,2.907-3.046c1.07-0.761,2.426-1.198,4.062-1.307
					l15.227-1.015c1.203-0.08,2.195,0.223,2.977,0.903C766.678,58.336,767.106,59.237,767.181,60.354z"/>
				<path fill="#1D71B8" d="M843.08,98.458c0.034,0.517,0.053,1.12,0.056,1.811c0.003,0.693,0.009,1.426,0.019,2.202
					c0.007,0.778-0.011,1.492-0.053,2.143c-0.044,0.651-0.094,1.195-0.15,1.631l-0.791,7.57c-0.614,6.35-1.87,11.812-3.769,16.388
					c-1.898,4.578-4.433,8.376-7.602,11.395c-3.168,3.021-6.948,5.323-11.334,6.911c-4.389,1.589-9.378,2.57-14.97,2.943
					c-4.646,0.31-8.775-0.063-12.388-1.12c-3.614-1.055-6.703-2.684-9.27-4.891c-2.566-2.204-4.564-4.944-5.991-8.22
					c-1.43-3.274-2.276-6.933-2.546-10.978c-0.08-1.203-0.122-2.474-0.126-3.815c-0.004-1.338,0.08-2.705,0.246-4.099l0.791-7.57
					c0.694-6.44,2.032-11.973,4.016-16.599c1.98-4.624,4.577-8.426,7.793-11.408c3.215-2.977,6.995-5.239,11.344-6.782
					c4.347-1.542,9.231-2.495,14.65-2.856c4.472-0.298,8.516,0.081,12.13,1.136c3.612,1.055,6.702,2.687,9.27,4.891
					c2.564,2.207,4.584,4.944,6.056,8.216C841.932,90.627,842.805,94.329,843.08,98.458z M818.374,101.169
					c-0.189-2.849-0.896-4.797-2.116-5.842c-1.222-1.046-3.063-1.488-5.527-1.324c-3.228,0.215-5.682,1.464-7.365,3.743
					c-1.684,2.279-2.817,6.041-3.406,11.283l-0.773,7.598c-0.088,1.307-0.158,2.481-0.219,3.526
					c-0.061,1.045-0.058,2.042,0.005,2.99c0.202,3.023,0.954,5.055,2.261,6.094c1.308,1.042,3.191,1.479,5.656,1.314
					c3.225-0.215,5.642-1.395,7.249-3.54c1.606-2.144,2.691-6.011,3.26-11.599l0.772-7.598c0.086-1.305,0.157-2.501,0.215-3.591
					C818.441,103.139,818.438,102.12,818.374,101.169z"/>
				<path fill="#1D71B8" d="M903.068,70.871l-1.445,13.317c-0.128,0.701-0.452,1.327-0.977,1.88
					c-0.526,0.554-1.132,0.854-1.819,0.899l-9.807,0.654l-3.882,35.125c-0.183,1.137-0.252,2.049-0.206,2.736
					c0.058,0.861,0.31,1.428,0.761,1.699c0.449,0.274,1.277,0.369,2.482,0.289l5.936-0.396c0.688-0.046,1.259,0.09,1.712,0.404
					c0.453,0.316,0.703,0.818,0.749,1.505l0.025,0.389l-1.256,12.267c-0.128,0.702-0.479,1.285-1.051,1.755
					c-0.573,0.472-1.242,0.818-2.004,1.041c-2.295,0.584-4.209,1.014-5.747,1.291c-1.537,0.275-3.512,0.494-5.918,0.654
					c-2.84,0.189-5.439,0.08-7.799-0.323c-2.359-0.404-4.446-1.215-6.255-2.435c-1.811-1.218-3.259-2.872-4.348-4.96
					c-1.092-2.086-1.738-4.68-1.944-7.776c-0.069-1.033-0.076-2.113-0.021-3.24c0.054-1.125,0.125-2.297,0.219-3.514l3.77-34.858
					l-8.388-1.386c-1.481-0.159-2.266-0.927-2.357-2.305l-0.025-0.387l1.212-10.969c0.126-0.699,0.472-1.348,1.038-1.948
					c0.562-0.599,1.233-0.924,2.008-0.976l8.517-0.567l1.11-10.574c0.125-0.699,0.475-1.306,1.045-1.819
					c0.57-0.512,1.238-0.881,2-1.105l19.521-4.671l0.388-0.026c1.375-0.091,2.11,0.552,2.202,1.927l0.025,0.387l-1.515,14.231
					l9.807-0.654c1.375-0.092,2.111,0.551,2.203,1.926L903.068,70.871z"/>
				<path fill="#1D71B8" d="M976.896,89.541c0.034,0.517,0.053,1.121,0.056,1.811c0.002,0.693,0.008,1.426,0.018,2.202
					c0.007,0.778-0.011,1.491-0.052,2.143c-0.044,0.651-0.095,1.195-0.151,1.63l-0.791,7.57c-0.614,6.35-1.87,11.812-3.769,16.388
					c-1.898,4.578-4.433,8.376-7.601,11.395c-3.168,3.021-6.949,5.323-11.334,6.911c-4.389,1.589-9.379,2.57-14.97,2.943
					c-4.646,0.31-8.775-0.064-12.388-1.12c-3.614-1.055-6.704-2.685-9.27-4.891c-2.567-2.204-4.565-4.945-5.992-8.22
					c-1.429-3.274-2.276-6.933-2.546-10.978c-0.08-1.203-0.123-2.475-0.125-3.815c-0.004-1.338,0.079-2.705,0.246-4.099l0.791-7.57
					c0.693-6.441,2.031-11.973,4.015-16.6c1.98-4.624,4.578-8.426,7.794-11.407c3.214-2.978,6.994-5.239,11.343-6.783
					c4.347-1.541,9.231-2.494,14.651-2.855c4.472-0.298,8.516,0.081,12.13,1.136c3.612,1.055,6.702,2.687,9.269,4.891
					c2.565,2.207,4.585,4.944,6.057,8.216C975.747,81.71,976.621,85.412,976.896,89.541z M952.19,92.252
					c-0.189-2.849-0.896-4.797-2.116-5.843c-1.223-1.045-3.063-1.488-5.528-1.324c-3.228,0.215-5.682,1.465-7.365,3.744
					s-2.816,6.041-3.405,11.283l-0.773,7.598c-0.088,1.307-0.16,2.481-0.219,3.526c-0.061,1.046-0.059,2.042,0.004,2.991
					c0.202,3.023,0.955,5.055,2.262,6.094c1.307,1.042,3.191,1.479,5.654,1.314c3.227-0.215,5.643-1.394,7.25-3.54
					c1.607-2.144,2.691-6.011,3.26-11.599l0.772-7.597c0.086-1.306,0.158-2.501,0.215-3.591
					C952.257,94.221,952.254,93.203,952.19,92.252z"/>
			</g>
			<g>
				<path fill="#1D71B8" d="M218.927,223.187l-1.318,12.085c-0.11,1.229-0.743,1.881-1.896,1.958l-0.192,0.013
					c-0.965,0-2.317-0.007-4.056-0.02c-1.738-0.013-3.622-0.032-5.65-0.058c-2.028-0.024-4.104-0.016-6.225,0.029
					c-2.121,0.044-4.046,0.125-5.775,0.24c-1.346,0.089-2.576,0.446-3.693,1.068c-1.117,0.623-1.621,1.737-1.515,3.341
					c0.047,0.706,0.377,1.313,0.99,1.819c0.611,0.508,1.783,1.188,3.513,2.038l12.187,6.149c3.599,1.824,6.219,4.003,7.869,6.536
					c1.648,2.533,2.587,5.5,2.813,8.9c0.3,4.492-0.309,8.403-1.824,11.726c-1.517,3.324-3.665,6.095-6.446,8.311
					c-2.78,2.214-6.027,3.931-9.743,5.145c-3.718,1.213-7.625,1.958-11.725,2.231c-3.974,0.265-7.528,0.26-10.668-0.013
					c-3.141-0.273-5.95-0.681-8.431-1.225c-0.458-0.098-0.854-0.264-1.193-0.5c-0.337-0.233-0.52-0.576-0.55-1.024l-0.02-0.289
					l1.23-11.955c0.094-0.521,0.32-0.988,0.679-1.397c0.359-0.411,0.827-0.635,1.404-0.673l0.192-0.013
					c0.964,0,2.285,0.041,3.966,0.123c1.678,0.081,3.435,0.125,5.27,0.13c1.834,0.007,3.651,0.015,5.455,0.023
					c1.802,0.009,3.344-0.031,4.626-0.116c1.922-0.128,3.544-0.637,4.869-1.53c1.323-0.893,1.913-2.428,1.768-4.607
					c-0.047-0.703-0.364-1.358-0.951-1.963c-0.587-0.604-1.616-1.307-3.084-2.111l-12.941-7.343
					c-2.944-1.669-5.183-3.886-6.718-6.647c-1.536-2.76-2.404-5.646-2.605-8.659c-0.29-4.355,0.254-8.029,1.631-11.017
					c1.378-2.987,3.339-5.434,5.883-7.342c2.543-1.906,5.521-3.327,8.935-4.264c3.412-0.935,7.041-1.531,10.885-1.788
					c1.923-0.128,3.928-0.196,6.02-0.207c2.09-0.011,4.138,0.043,6.141,0.167c2.003,0.123,3.813,0.257,5.433,0.406
					c1.618,0.148,2.919,0.349,3.902,0.602c0.393,0.103,0.74,0.256,1.043,0.459c0.304,0.203,0.47,0.528,0.499,0.973L218.927,223.187z
					"/>
				<path fill="#1D71B8" d="M278.601,233.618l-5.768,52.51c-0.096,0.521-0.338,0.988-0.727,1.399
					c-0.393,0.414-0.844,0.636-1.355,0.67l-13.166,0.877c-1.091,0.072-1.67-0.435-1.743-1.525l-0.019-0.288l0.313-2.531
					c-3.248,2.47-6.146,4.111-8.698,4.923c-2.552,0.813-4.66,1.277-6.326,1.388c-2.755,0.184-5.122-0.093-7.103-0.83
					c-1.979-0.736-3.613-1.834-4.9-3.293c-1.288-1.458-2.274-3.21-2.957-5.257c-0.684-2.046-1.104-4.254-1.262-6.624
					c-0.085-1.281-0.105-2.551-0.062-3.81c0.045-1.258,0.151-2.568,0.318-3.931l3.288-30.336c0.094-0.521,0.35-1.021,0.768-1.5
					c0.419-0.477,0.917-0.736,1.493-0.774l14.415-0.961c0.513-0.034,0.926,0.117,1.236,0.448c0.312,0.333,0.483,0.725,0.513,1.172
					l0.026,0.385l-3.339,31.016c-0.128,0.974-0.23,1.866-0.305,2.674c-0.075,0.811-0.09,1.535-0.048,2.175
					c0.111,1.667,0.549,2.7,1.316,3.099c0.767,0.4,1.919,0.547,3.457,0.444c1.473-0.098,2.965-0.421,4.472-0.973
					c1.508-0.549,2.692-1.112,3.556-1.686l4.057-37.627c0.089-0.584,0.344-1.1,0.766-1.547c0.42-0.446,0.982-0.693,1.688-0.74
					l13.743-0.916c0.577-0.039,1.099,0.072,1.567,0.33c0.467,0.257,0.72,0.675,0.758,1.252L278.601,233.618z"/>
				<path fill="#1D71B8" d="M331.199,230.595l-0.955,8.848c-0.118,1.104-0.339,1.921-0.657,2.458
					c-0.318,0.538-0.802,1.245-1.45,2.124l-19.176,25.121c-0.292,0.47-0.431,0.801-0.418,0.993c0.021,0.322,0.287,0.464,0.801,0.429
					l16.146-1.076c0.961-0.064,1.469,0.322,1.523,1.153l0.02,0.289l-1.249,11.667c-0.095,0.521-0.354,0.989-0.775,1.402
					c-0.423,0.416-0.891,0.639-1.403,0.673l-38.537,2.568c-0.642,0.042-1.167-0.13-1.58-0.521c-0.411-0.391-0.637-0.875-0.675-1.452
					l-0.032-0.48l0.903-8.169c0.072-0.84,0.233-1.56,0.484-2.155c0.249-0.596,0.698-1.333,1.349-2.213l20.156-26.345
					c0.359-0.41,0.53-0.743,0.514-0.999c-0.021-0.32-0.289-0.463-0.802-0.429l-16.145,1.076c-0.898,0.06-1.374-0.327-1.429-1.161
					l-0.02-0.288l1.269-11.378c0.094-0.521,0.352-0.989,0.775-1.402c0.421-0.415,0.889-0.639,1.402-0.673l37.77-2.517
					c0.639-0.042,1.15,0.133,1.53,0.526c0.379,0.394,0.59,0.878,0.629,1.454L331.199,230.595z"/>
				<path fill="#1D71B8" d="M391.327,226.106l-5.769,52.51c-0.095,0.521-0.338,0.988-0.727,1.399
					c-0.393,0.414-0.844,0.636-1.355,0.67l-13.166,0.877c-1.09,0.073-1.67-0.435-1.742-1.524l-0.02-0.288l0.313-2.531
					c-3.247,2.47-6.146,4.111-8.698,4.923c-2.552,0.813-4.66,1.277-6.325,1.388c-2.756,0.184-5.123-0.093-7.103-0.83
					c-1.98-0.736-3.613-1.834-4.901-3.293c-1.288-1.458-2.274-3.21-2.957-5.257c-0.684-2.046-1.104-4.254-1.262-6.624
					c-0.085-1.281-0.105-2.551-0.061-3.81c0.044-1.257,0.151-2.568,0.317-3.931l3.288-30.336c0.094-0.521,0.35-1.021,0.768-1.5
					c0.419-0.477,0.917-0.736,1.493-0.774l14.415-0.961c0.513-0.034,0.925,0.117,1.236,0.448c0.313,0.333,0.483,0.725,0.513,1.172
					l0.026,0.385l-3.338,31.016c-0.129,0.974-0.231,1.866-0.305,2.674c-0.076,0.811-0.091,1.535-0.048,2.175
					c0.11,1.667,0.548,2.7,1.316,3.098c0.766,0.4,1.918,0.547,3.456,0.445c1.474-0.098,2.965-0.421,4.473-0.973
					c1.507-0.549,2.691-1.112,3.554-1.686l4.059-37.627c0.088-0.584,0.344-1.1,0.766-1.547c0.42-0.446,0.981-0.693,1.688-0.74
					l13.743-0.916c0.576-0.039,1.098,0.072,1.566,0.33c0.467,0.257,0.721,0.675,0.759,1.252L391.327,226.106z"/>
				<path fill="#1D71B8" d="M454.388,220.745c0.025,0.385-0.111,0.748-0.41,1.089l-20.252,26.351l14.094,26.09
					c0.072,0.125,0.118,0.314,0.135,0.57c0.025,0.384-0.096,0.747-0.362,1.085c-0.267,0.342-0.626,0.524-1.073,0.554l-17.106,1.14
					c-1.09,0.073-1.937-0.578-2.543-1.954l-9.82-21.354l-2.385,22.167c-0.095,0.522-0.352,1.022-0.77,1.5
					c-0.419,0.479-0.885,0.734-1.396,0.768l-14.416,0.96c-0.514,0.034-0.941-0.113-1.284-0.445c-0.345-0.33-0.533-0.752-0.567-1.266
					l-0.019-0.288l7.716-71.078c0.094-0.521,0.368-0.99,0.823-1.406c0.455-0.417,0.938-0.641,1.452-0.675l14.415-0.961
					c1.089-0.072,1.667,0.404,1.735,1.428l0.025,0.384l-4.325,39.384l14.569-21.822c0.525-0.807,0.974-1.32,1.347-1.538
					c0.371-0.218,0.812-0.344,1.325-0.378l17.875-1.191C453.938,219.81,454.345,220.105,454.388,220.745z"/>
				<path fill="#1D71B8" d="M481.175,220.021l-5.679,52.408c-0.094,0.522-0.383,1.024-0.864,1.506
					c-0.483,0.483-0.981,0.741-1.493,0.774l-14.319,0.955c-0.514,0.034-0.94-0.113-1.285-0.445c-0.344-0.33-0.533-0.752-0.567-1.266
					l-0.019-0.288l5.679-52.408c0.094-0.521,0.383-1.006,0.868-1.457c0.484-0.45,0.981-0.693,1.495-0.727l14.32-0.955
					c0.511-0.034,0.938,0.1,1.281,0.397c0.341,0.3,0.53,0.705,0.563,1.217L481.175,220.021z M483.68,201.128l-1.005,9.527
					c-0.096,0.522-0.386,0.991-0.873,1.41c-0.487,0.418-0.986,0.645-1.498,0.679l-15.185,1.012
					c-0.514,0.034-0.956-0.082-1.326-0.346c-0.371-0.264-0.575-0.651-0.609-1.165l-0.019-0.289l1.006-9.527
					c0.094-0.52,0.399-0.992,0.92-1.413c0.518-0.42,1.034-0.648,1.548-0.682l15.184-1.012c0.513-0.034,0.938,0.083,1.277,0.349
					c0.34,0.266,0.526,0.658,0.561,1.168L483.68,201.128z"/>
				<path fill="#1D71B8" d="M568.574,267.771c-0.329,0.409-0.751,0.629-1.265,0.664l-16.418,1.094
					c-0.515,0.034-0.929-0.114-1.243-0.448c-0.312-0.333-0.486-0.755-0.521-1.269l-1.178-13.338l-17.106,1.14l-4.204,13.697
					c-0.157,0.526-0.416,0.979-0.778,1.355c-0.36,0.379-0.798,0.584-1.31,0.618l-17.01,1.133c-0.898,0.06-1.373-0.326-1.429-1.159
					c-0.009-0.128,0.037-0.389,0.141-0.781l19.338-60.365c0.803-2.435,1.842-4.451,3.12-6.048c1.277-1.596,2.768-2.871,4.476-3.822
					c1.705-0.949,3.574-1.638,5.605-2.062c2.03-0.425,4.202-0.714,6.512-0.868c2.316-0.155,4.465-0.153,6.449,0.004
					c1.982,0.157,3.727,0.605,5.23,1.341c1.504,0.736,2.757,1.829,3.758,3.273c1.002,1.446,1.614,3.352,1.837,5.718l6.43,58.648
					l0.007,0.096C569.05,266.904,568.902,267.364,568.574,267.771z M544.818,214.719c-0.03-0.447-0.086-0.781-0.164-1.003
					c-0.078-0.218-0.343-0.314-0.791-0.285c-0.449,0.03-0.729,0.163-0.842,0.394c-0.115,0.235-0.22,0.58-0.317,1.036l-7.406,25.011
					l11.531-0.768L544.818,214.719z"/>
				<path fill="#1D71B8" d="M644.502,192.535c0.018,0.257-0.06,0.551-0.231,0.885l-23.103,35.711l16.561,32.682
					c0.071,0.125,0.117,0.315,0.134,0.57c0.06,0.898-0.391,1.377-1.352,1.442l-18.355,1.223c-0.576,0.039-1.036-0.09-1.378-0.391
					c-0.343-0.298-0.625-0.697-0.852-1.198l-8.443-16.62l-11.079,17.728c-0.35,0.538-0.737,1.014-1.159,1.428
					c-0.424,0.416-0.892,0.639-1.403,0.673l-17.971,1.197c-0.706,0.047-1.078-0.249-1.121-0.89c-0.025-0.385,0.08-0.713,0.32-0.987
					l23.398-37.082l-15.799-31.382c-0.073-0.124-0.114-0.281-0.128-0.474c-0.06-0.896,0.392-1.378,1.353-1.442l18.451-1.229
					c0.513-0.034,0.941,0.13,1.288,0.494c0.346,0.362,0.63,0.763,0.853,1.198l8.104,15.87l10.251-17.093
					c0.291-0.47,0.646-0.912,1.07-1.326c0.422-0.415,0.89-0.639,1.403-0.673l18.067-1.204
					C644.086,191.598,644.46,191.896,644.502,192.535z"/>
				<path fill="#1D71B8" d="M715.386,188.681l-7.407,68.45c-0.096,0.521-0.338,0.988-0.728,1.399
					c-0.392,0.414-0.843,0.636-1.355,0.67l-15.664,1.044c-1.026,0.068-1.572-0.409-1.641-1.435l-0.025-0.385l5.408-50.652
					l-10.687,4.767c-0.436,0.221-0.846,0.346-1.23,0.371c-0.449,0.03-0.688-0.21-0.723-0.724l-0.025-0.385l1.492-13.807
					c0.146-0.718,0.59-1.294,1.333-1.73l16.261-8.034c0.687-0.302,1.448-0.482,2.281-0.538l11.052-0.736
					c1.023-0.068,1.568,0.378,1.633,1.339L715.386,188.681z"/>
				<path fill="#1D71B8" d="M791.485,203.688c0.192,2.883,0.108,5.977-0.25,9.283l-1.014,9.431
					c-0.628,6.026-1.719,11.136-3.274,15.325c-1.555,4.191-3.579,7.624-6.071,10.299c-2.492,2.675-5.465,4.676-8.914,6
					c-3.452,1.323-7.452,2.138-12,2.441c-6.984,0.465-12.511-1.097-16.578-4.688c-4.069-3.59-6.353-9.133-6.852-16.629
					c-0.188-2.819-0.102-5.882,0.256-9.188l1.014-9.431c0.683-6.159,1.833-11.352,3.45-15.578c1.615-4.225,3.703-7.664,6.263-10.312
					c2.559-2.647,5.548-4.617,8.97-5.907c3.421-1.29,7.278-2.079,11.571-2.365c7.175-0.478,12.751,1.115,16.728,4.774
					C788.76,190.806,790.995,196.321,791.485,203.688z M772.021,205.661c-0.192-2.883-0.797-4.725-1.815-5.526
					c-1.02-0.801-2.362-1.146-4.027-1.035c-1.025,0.068-1.991,0.31-2.896,0.725c-0.906,0.414-1.724,1.192-2.45,2.335
					c-0.73,1.143-1.396,2.747-1.996,4.813c-0.604,2.069-1.079,4.819-1.43,8.252l-1.013,9.431c-0.196,1.88-0.329,3.531-0.394,4.949
					c-0.066,1.42-0.063,2.676,0.009,3.765c0.188,2.82,0.791,4.628,1.811,5.429c1.019,0.801,2.36,1.145,4.026,1.034
					c1.153-0.077,2.2-0.306,3.14-0.691c0.939-0.384,1.758-1.146,2.454-2.288c0.695-1.139,1.312-2.742,1.852-4.804
					c0.537-2.063,0.98-4.843,1.326-8.342l1.013-9.431c0.195-1.878,0.329-3.512,0.397-4.9
					C772.095,207.989,772.094,206.75,772.021,205.661z"/>
				<path fill="#1D71B8" d="M855.487,199.423c0.192,2.883,0.109,5.977-0.25,9.283l-1.013,9.431
					c-0.629,6.026-1.719,11.136-3.274,15.325c-1.555,4.191-3.579,7.624-6.071,10.299s-5.465,4.676-8.914,6
					c-3.452,1.323-7.452,2.138-12,2.441c-6.985,0.465-12.511-1.097-16.578-4.688c-4.069-3.59-6.353-9.133-6.852-16.629
					c-0.188-2.819-0.102-5.881,0.256-9.188l1.014-9.431c0.682-6.158,1.833-11.352,3.449-15.578
					c1.616-4.225,3.704-7.663,6.264-10.312c2.559-2.647,5.548-4.617,8.97-5.906c3.421-1.291,7.278-2.079,11.571-2.365
					c7.175-0.478,12.751,1.115,16.728,4.775C852.763,186.541,854.997,192.056,855.487,199.423z M836.023,201.396
					c-0.192-2.883-0.797-4.725-1.816-5.526c-1.019-0.801-2.361-1.146-4.026-1.035c-1.025,0.068-1.992,0.31-2.896,0.725
					c-0.906,0.415-1.724,1.193-2.451,2.335c-0.729,1.143-1.395,2.747-1.995,4.814c-0.604,2.068-1.079,4.818-1.43,8.252l-1.013,9.431
					c-0.196,1.879-0.329,3.53-0.395,4.948c-0.066,1.421-0.062,2.676,0.01,3.765c0.188,2.82,0.791,4.628,1.811,5.429
					c1.019,0.801,2.36,1.146,4.026,1.034c1.153-0.077,2.2-0.305,3.14-0.69c0.938-0.385,1.757-1.146,2.454-2.289
					c0.695-1.139,1.312-2.742,1.852-4.804c0.537-2.063,0.98-4.843,1.326-8.341l1.013-9.431c0.195-1.879,0.329-3.512,0.397-4.901
					C836.098,203.725,836.096,202.485,836.023,201.396z"/>
			</g>
		</g>
		<g>
			<g>
				<g>
					<path stroke="#FFFFFF" stroke-width="20.4352" stroke-linejoin="round" stroke-miterlimit="10" d="M110.166,88.229
						c0.006,0.087-0.011,0.174-0.047,0.262c-0.039,0.09-0.05,0.221-0.039,0.392l-1.884,16.457c-0.167,1.394-0.811,2.128-1.928,2.202
						l-0.387,0.026c-2.508-0.005-6.072-0.004-10.694,0c-4.622,0.006-9.344,0.168-14.16,0.489c-3.184,0.212-5.939,0.679-8.267,1.395
						c-2.329,0.717-4.283,1.863-5.862,3.437c-1.581,1.575-2.826,3.645-3.734,6.211c-0.91,2.568-1.58,5.808-2.01,9.726l-1.539,13.842
						c-0.305,3.217-0.382,5.944-0.233,8.181c0.167,2.496,0.578,4.478,1.239,5.944c0.658,1.47,1.469,2.604,2.43,3.403
						c0.961,0.8,2.03,1.291,3.209,1.471c1.178,0.181,2.369,0.232,3.574,0.151c2.666-0.178,5.066-0.468,7.2-0.869l2.883-26.763
						c0.125-0.7,0.431-1.325,0.913-1.875c0.48-0.551,1.064-0.85,1.754-0.896l20.389-1.358c1.462-0.098,2.242,0.586,2.34,2.049
						l0.025,0.387l-4.732,43.737c-0.109,0.958-0.363,1.666-0.765,2.124c-0.404,0.46-1.158,0.813-2.263,1.059
						c-3.82,1.031-8.247,2.039-13.279,3.023c-5.033,0.984-10.689,1.685-16.969,2.103c-3.613,0.241-7.373-0.072-11.274-0.934
						c-3.903-0.862-7.51-2.458-10.817-4.788c-3.311-2.327-6.112-5.468-8.405-9.42c-2.295-3.951-3.639-8.896-4.034-14.832
						c-0.103-1.549-0.147-3.186-0.133-4.916c0.015-1.729,0.133-3.509,0.357-5.338l1.549-13.712c1.095-9.49,3.178-17.147,6.246-22.97
						c3.066-5.82,6.717-10.363,10.951-13.626c4.231-3.264,8.813-5.513,13.744-6.749c4.928-1.236,9.759-2.011,14.49-2.326
						c6.711-0.447,12.394-0.415,17.052,0.095c4.655,0.512,8.254,1.027,10.797,1.548c0.698,0.128,1.25,0.286,1.651,0.474
						C109.905,87.231,110.126,87.628,110.166,88.229z"/>
					<path stroke="#FFFFFF" stroke-width="20.4352" stroke-linejoin="round" stroke-miterlimit="10" d="M187.375,105.118
						c0.029,0.432,0.007,0.777-0.06,1.041l-7.194,67.101c-0.127,0.702-0.409,1.324-0.848,1.871
						c-0.439,0.548-1.003,0.845-1.689,0.891l-16.131,1.075c-1.549,0.104-2.372-0.571-2.469-2.023l-0.025-0.385l0.252-4.004
						c-3.266,2.88-6.403,5.044-9.418,6.488c-3.015,1.445-6.329,2.29-9.942,2.53c-3.097,0.207-6.06-0.159-8.887-1.093
						c-2.828-0.934-5.323-2.387-7.483-4.361c-2.164-1.973-3.928-4.49-5.3-7.554c-1.37-3.061-2.19-6.613-2.46-10.658
						c-0.08-1.204-0.08-2.477,0.005-3.824c0.082-1.345,0.171-2.583,0.271-3.712l1.326-13.181c0.618-6.263,1.997-11.495,4.138-15.699
						c2.138-4.204,4.847-7.646,8.125-10.328c3.277-2.68,7.056-4.66,11.335-5.939c4.277-1.277,8.87-2.082,13.773-2.409
						c4.646-0.31,9.375-0.321,14.189-0.038c4.814,0.284,9.576,0.745,14.286,1.38c1.22,0.179,2.208,0.417,2.962,0.711
						C186.885,103.293,187.301,104.002,187.375,105.118z M157.367,121.634c-1.383,0.008-2.718,0.053-4.008,0.139
						c-1.807,0.121-3.364,0.417-4.672,0.894c-1.309,0.476-2.401,1.261-3.277,2.356c-0.879,1.096-1.605,2.505-2.182,4.228
						c-0.577,1.724-0.993,3.891-1.251,6.5l-1.531,13.97c-0.134,0.615-0.18,1.202-0.143,1.759c0.037,0.561,0.07,1.055,0.099,1.484
						c0.154,2.323,0.796,3.858,1.926,4.603c1.13,0.748,2.6,1.059,4.406,0.938c1.978-0.132,3.975-0.654,5.987-1.566
						s3.638-1.797,4.877-2.658l3.538-32.51C160.005,121.676,158.749,121.629,157.367,121.634z"/>
					<path stroke="#FFFFFF" stroke-width="20.4352" stroke-linejoin="round" stroke-miterlimit="10" d="M266.029,116.468
						c0.115,1.722,0.142,3.426,0.082,5.114c-0.062,1.689-0.203,3.448-0.426,5.278l-4.415,40.734
						c-0.127,0.701-0.471,1.372-1.032,2.014c-0.563,0.643-1.229,0.988-2.004,1.04l-19.356,1.29
						c-0.689,0.046-1.242-0.154-1.661-0.602c-0.418-0.447-0.647-0.972-0.688-1.575l-0.034-0.517l4.482-41.646
						c0.098-1.128,0.218-2.238,0.362-3.329c0.142-1.09,0.177-2.193,0.103-3.312c-0.132-1.978-0.672-3.281-1.621-3.911
						c-0.949-0.626-2.542-0.867-4.778-0.718c-1.98,0.132-3.98,0.568-6.005,1.308c-2.025,0.74-3.617,1.495-4.775,2.261l-5.446,50.524
						c-0.122,0.786-0.465,1.479-1.029,2.077c-0.564,0.601-1.32,0.931-2.266,0.994l-18.454,1.23
						c-0.773,0.051-1.477-0.096-2.103-0.443c-0.629-0.346-0.969-0.907-1.021-1.682l-0.034-0.517l7.745-70.508
						c0.126-0.699,0.45-1.326,0.978-1.88c0.523-0.554,1.129-0.852,1.818-0.898l17.679-1.178c1.462-0.097,2.242,0.585,2.34,2.047
						l0.025,0.387l-0.421,3.397c4.358-3.313,8.252-5.516,11.679-6.61c3.426-1.091,6.258-1.713,8.495-1.863
						c3.698-0.246,6.877,0.125,9.537,1.115c2.658,0.989,4.85,2.463,6.58,4.423c1.729,1.958,3.05,4.289,3.966,6.993
						C265.245,110.214,265.812,113.199,266.029,116.468z"/>
					<path stroke="#FFFFFF" stroke-width="20.4352" stroke-linejoin="round" stroke-miterlimit="10" d="M347.901,94.421
						c0.029,0.432,0.007,0.776-0.06,1.041l-7.195,67.102c-0.126,0.702-0.408,1.324-0.847,1.871c-0.439,0.548-1.003,0.845-1.689,0.89
						l-16.131,1.075c-1.549,0.103-2.372-0.571-2.469-2.023l-0.025-0.385l0.252-4.004c-3.266,2.881-6.404,5.045-9.419,6.489
						c-3.015,1.444-6.328,2.289-9.941,2.53c-3.097,0.207-6.06-0.159-8.887-1.093c-2.829-0.934-5.323-2.387-7.484-4.362
						c-2.162-1.973-3.928-4.49-5.299-7.554c-1.37-3.062-2.19-6.613-2.46-10.658c-0.08-1.204-0.08-2.478,0.005-3.824
						c0.082-1.344,0.172-2.582,0.27-3.712l1.326-13.181c0.619-6.263,1.998-11.495,4.139-15.699
						c2.138-4.203,4.847-7.646,8.125-10.328c3.277-2.681,7.055-4.66,11.335-5.939c4.278-1.278,8.87-2.082,13.773-2.409
						c4.646-0.31,9.375-0.321,14.189-0.039c4.814,0.285,9.576,0.745,14.286,1.381c1.22,0.179,2.208,0.417,2.962,0.711
						C347.411,92.596,347.827,93.305,347.901,94.421z M317.894,110.938c-1.382,0.008-2.718,0.052-4.008,0.139
						c-1.807,0.12-3.364,0.417-4.672,0.894c-1.309,0.476-2.401,1.262-3.277,2.357c-0.879,1.095-1.605,2.505-2.182,4.228
						c-0.577,1.724-0.993,3.891-1.251,6.5l-1.532,13.97c-0.133,0.615-0.179,1.202-0.142,1.759c0.037,0.561,0.07,1.055,0.099,1.484
						c0.155,2.323,0.796,3.858,1.926,4.603c1.13,0.748,2.6,1.059,4.406,0.938c1.978-0.132,3.974-0.654,5.987-1.566
						c2.013-0.912,3.638-1.797,4.877-2.657l3.538-32.51C320.531,110.979,319.275,110.933,317.894,110.938z"/>
					<path stroke="#FFFFFF" stroke-width="20.4352" stroke-linejoin="round" stroke-miterlimit="10" d="M460.398,84.591
						l-7.744,70.508c-0.127,0.702-0.452,1.327-0.977,1.879c-0.526,0.554-1.132,0.854-1.819,0.899l-17.68,1.178
						c-1.463,0.098-2.242-0.583-2.34-2.047l-0.026-0.388l0.423-3.397c-4.36,3.316-8.252,5.52-11.679,6.611
						c-3.428,1.091-6.26,1.713-8.495,1.862c-3.7,0.247-6.879-0.125-9.536-1.114c-2.658-0.99-4.854-2.463-6.581-4.422
						c-1.73-1.959-3.055-4.312-3.971-7.06c-0.917-2.745-1.482-5.711-1.695-8.895c-0.114-1.72-0.143-3.425-0.081-5.115
						c0.06-1.688,0.202-3.447,0.427-5.277l4.415-40.734c0.125-0.699,0.47-1.37,1.031-2.012c0.562-0.642,1.23-0.989,2.005-1.041
						l19.356-1.29c0.688-0.046,1.241,0.156,1.66,0.602c0.419,0.448,0.647,0.974,0.688,1.575l0.035,0.516l-4.483,41.646
						c-0.172,1.307-0.31,2.505-0.408,3.592c-0.103,1.088-0.123,2.061-0.065,2.919c0.148,2.238,0.737,3.625,1.768,4.161
						c1.029,0.536,2.577,0.735,4.643,0.598c1.977-0.132,3.979-0.568,6.004-1.307c2.024-0.739,3.614-1.493,4.774-2.264l5.448-50.524
						c0.119-0.786,0.461-1.476,1.027-2.078c0.563-0.599,1.319-0.929,2.267-0.993l18.453-1.229c0.774-0.052,1.475,0.095,2.104,0.442
						c0.627,0.348,0.968,0.908,1.019,1.682L460.398,84.591z"/>
					<path stroke="#FFFFFF" stroke-width="20.4352" stroke-linejoin="round" stroke-miterlimit="10" d="M539.077,98.273
						c0.115,1.722,0.142,3.426,0.081,5.114c-0.061,1.689-0.203,3.449-0.425,5.278l-4.415,40.733
						c-0.128,0.701-0.472,1.373-1.032,2.014c-0.563,0.643-1.229,0.988-2.005,1.04l-19.356,1.29c-0.688,0.046-1.241-0.153-1.66-0.602
						c-0.418-0.447-0.648-0.972-0.688-1.574l-0.034-0.517l4.483-41.646c0.098-1.128,0.218-2.238,0.361-3.329
						c0.143-1.089,0.178-2.193,0.104-3.312c-0.132-1.978-0.672-3.28-1.621-3.911c-0.949-0.626-2.542-0.867-4.778-0.717
						c-1.98,0.132-3.98,0.568-6.006,1.307c-2.024,0.74-3.616,1.495-4.775,2.262l-5.446,50.524c-0.121,0.786-0.464,1.48-1.028,2.078
						c-0.565,0.601-1.32,0.931-2.267,0.994l-18.453,1.229c-0.773,0.052-1.478-0.096-2.103-0.442
						c-0.629-0.347-0.969-0.908-1.021-1.682l-0.034-0.517l7.745-70.508c0.125-0.699,0.45-1.326,0.977-1.879
						c0.523-0.554,1.13-0.852,1.819-0.898l17.679-1.178c1.462-0.098,2.242,0.585,2.34,2.047l0.025,0.387l-0.422,3.397
						c4.359-3.313,8.252-5.516,11.68-6.609c3.426-1.092,6.258-1.714,8.495-1.863c3.697-0.247,6.877,0.125,9.536,1.114
						c2.658,0.989,4.851,2.463,6.581,4.423c1.729,1.958,3.05,4.289,3.966,6.993C538.292,92.019,538.859,95.004,539.077,98.273z"/>
					<path stroke="#FFFFFF" stroke-width="20.4352" stroke-linejoin="round" stroke-miterlimit="10" d="M620.948,76.226
						c0.029,0.432,0.008,0.776-0.059,1.041l-7.194,67.101c-0.127,0.702-0.41,1.324-0.849,1.871
						c-0.439,0.548-1.002,0.845-1.689,0.891l-16.13,1.075c-1.55,0.103-2.372-0.571-2.469-2.023l-0.025-0.385l0.252-4.004
						c-3.266,2.88-6.404,5.044-9.419,6.488c-3.015,1.445-6.328,2.29-9.941,2.53c-3.097,0.206-6.06-0.159-8.887-1.093
						c-2.829-0.934-5.323-2.387-7.484-4.362c-2.163-1.972-3.929-4.489-5.299-7.554c-1.37-3.061-2.19-6.613-2.46-10.658
						c-0.08-1.204-0.08-2.478,0.004-3.824c0.083-1.345,0.172-2.583,0.271-3.712l1.326-13.18c0.619-6.263,1.998-11.495,4.138-15.7
						c2.139-4.203,4.847-7.646,8.126-10.328c3.277-2.681,7.056-4.66,11.335-5.939c4.277-1.278,8.87-2.082,13.773-2.409
						c4.646-0.31,9.374-0.321,14.189-0.038c4.814,0.284,9.576,0.745,14.286,1.38c1.22,0.179,2.208,0.417,2.962,0.711
						C620.458,74.401,620.874,75.11,620.948,76.226z M590.941,92.742c-1.383,0.008-2.718,0.053-4.008,0.139
						c-1.807,0.12-3.365,0.417-4.673,0.894c-1.308,0.476-2.4,1.261-3.277,2.356c-0.879,1.096-1.605,2.505-2.181,4.228
						c-0.578,1.724-0.993,3.891-1.251,6.5l-1.532,13.97c-0.133,0.615-0.179,1.202-0.142,1.76c0.037,0.561,0.07,1.055,0.099,1.484
						c0.154,2.323,0.796,3.858,1.926,4.602c1.13,0.748,2.599,1.059,4.405,0.938c1.979-0.131,3.975-0.654,5.988-1.566
						c2.013-0.912,3.638-1.797,4.877-2.658l3.537-32.51C593.579,92.784,592.323,92.737,590.941,92.742z"/>
					<path stroke="#FFFFFF" stroke-width="20.4352" stroke-linejoin="round" stroke-miterlimit="10" d="M761.164,44.718
						c0.012,0.174-0.001,0.324-0.034,0.457c-0.036,0.132-0.046,0.283-0.034,0.455l-9.775,90.605c-0.127,0.7-0.422,1.151-0.882,1.354
						c-0.462,0.206-0.949,0.322-1.466,0.357l-21.163,1.41c-0.432,0.029-0.789-0.142-1.071-0.511
						c-0.283-0.37-0.443-0.813-0.478-1.329l-0.044-0.646l5.104-47.908c-0.012-0.172-0.001-0.324,0.034-0.456
						c0.034-0.132,0.049-0.241,0.043-0.328c-0.022-0.343-0.121-0.51-0.292-0.499c-0.086,0.006-0.21,0.101-0.371,0.284l-0.127,0.008
						c-0.174,0.012-0.418,0.246-0.732,0.698c-0.316,0.454-0.552,0.813-0.705,1.083l-12.148,18.048
						c-1.181,1.723-2.505,2.631-3.966,2.728l-8.904,0.593c-1.464,0.098-2.634-0.644-3.519-2.229l-8.662-17.18
						c-0.19-0.247-0.313-0.496-0.374-0.752c-0.062-0.255-0.177-0.378-0.349-0.366l-0.129,0.008c-0.184-0.16-0.319-0.237-0.404-0.232
						c-0.432,0.029-0.66,0.478-0.688,1.343l-5.104,47.908c-0.127,0.702-0.387,1.323-0.782,1.867
						c-0.397,0.545-0.852,0.835-1.368,0.869l-21.292,1.419c-0.432,0.029-0.844-0.008-1.239-0.112
						c-0.395-0.103-0.61-0.413-0.646-0.929l-0.025-0.387l9.776-90.604c0.172-1.308,0.784-2.47,1.841-3.492
						c1.054-1.021,2.228-1.575,3.519-1.661l13.42-0.895c1.633-0.109,2.927,0.151,3.876,0.779c0.949,0.629,1.722,1.528,2.317,2.697
						L709.4,80.96c0.498,1.005,0.921,1.495,1.266,1.472c0.342-0.023,0.911-0.579,1.703-1.669l22.342-34.281
						c0.865-1.266,1.836-2.281,2.908-3.045c1.071-0.762,2.425-1.198,4.061-1.307l15.227-1.015c1.203-0.08,2.195,0.222,2.978,0.903
						C760.662,42.701,761.09,43.602,761.164,44.718z"/>
					<path stroke="#FFFFFF" stroke-width="20.4352" stroke-linejoin="round" stroke-miterlimit="10" d="M837.064,82.823
						c0.034,0.517,0.054,1.12,0.057,1.811c0.002,0.692,0.008,1.425,0.018,2.202c0.006,0.777-0.011,1.491-0.053,2.142
						c-0.043,0.651-0.094,1.195-0.15,1.63l-0.791,7.571c-0.615,6.35-1.87,11.812-3.769,16.389
						c-1.899,4.578-4.433,8.375-7.601,11.394c-3.17,3.021-6.949,5.323-11.335,6.911c-4.388,1.589-9.378,2.57-14.969,2.943
						c-4.646,0.31-8.776-0.063-12.389-1.12c-3.614-1.055-6.704-2.685-9.269-4.89c-2.568-2.205-4.565-4.945-5.992-8.221
						c-1.429-3.274-2.276-6.933-2.546-10.978c-0.08-1.203-0.123-2.474-0.125-3.815c-0.004-1.338,0.079-2.705,0.246-4.099l0.791-7.57
						c0.693-6.439,2.031-11.973,4.014-16.6c1.98-4.624,4.578-8.426,7.795-11.406c3.214-2.979,6.993-5.24,11.342-6.783
						c4.347-1.542,9.232-2.495,14.652-2.856c4.471-0.298,8.515,0.081,12.129,1.136c3.612,1.055,6.703,2.687,9.27,4.892
						c2.565,2.206,4.585,4.943,6.056,8.215C835.915,74.993,836.789,78.693,837.064,82.823z M812.359,85.534
						c-0.189-2.849-0.896-4.797-2.117-5.843c-1.222-1.045-3.063-1.487-5.527-1.323c-3.228,0.215-5.683,1.464-7.365,3.743
						c-1.684,2.279-2.818,6.041-3.406,11.283l-0.774,7.598c-0.086,1.307-0.158,2.482-0.218,3.526
						c-0.061,1.045-0.059,2.042,0.005,2.991c0.201,3.022,0.954,5.054,2.261,6.093c1.308,1.042,3.191,1.479,5.655,1.315
						c3.227-0.215,5.643-1.395,7.249-3.54c1.607-2.144,2.691-6.012,3.26-11.6l0.773-7.597c0.085-1.306,0.156-2.501,0.215-3.591
						C812.426,87.503,812.423,86.484,812.359,85.534z"/>
					<path stroke="#FFFFFF" stroke-width="20.4352" stroke-linejoin="round" stroke-miterlimit="10" d="M897.053,55.235
						l-1.446,13.317c-0.127,0.702-0.452,1.327-0.976,1.88c-0.526,0.554-1.133,0.853-1.82,0.899l-9.807,0.654l-3.881,35.125
						c-0.184,1.136-0.252,2.048-0.206,2.735c0.058,0.861,0.31,1.428,0.762,1.699c0.448,0.274,1.276,0.369,2.481,0.289l5.937-0.396
						c0.687-0.046,1.257,0.09,1.711,0.404c0.452,0.316,0.702,0.818,0.748,1.506l0.026,0.388l-1.256,12.267
						c-0.128,0.702-0.479,1.285-1.05,1.756c-0.575,0.472-1.242,0.817-2.005,1.04c-2.294,0.584-4.21,1.014-5.748,1.29
						c-1.536,0.275-3.511,0.494-5.917,0.654c-2.84,0.189-5.439,0.08-7.799-0.323c-2.359-0.404-4.446-1.215-6.255-2.435
						c-1.811-1.218-3.26-2.872-4.349-4.96c-1.091-2.086-1.737-4.68-1.943-7.777c-0.068-1.033-0.077-2.111-0.021-3.239
						c0.055-1.125,0.126-2.297,0.219-3.515l3.77-34.858l-8.388-1.385c-1.48-0.16-2.265-0.928-2.356-2.306l-0.026-0.387l1.214-10.968
						c0.125-0.7,0.47-1.348,1.036-1.949c0.564-0.599,1.234-0.924,2.009-0.976l8.517-0.567l1.11-10.574
						c0.126-0.699,0.475-1.306,1.045-1.819c0.57-0.511,1.238-0.881,2.001-1.104l19.52-4.672l0.388-0.026
						c1.375-0.091,2.11,0.553,2.202,1.928l0.025,0.387l-1.515,14.229l9.808-0.653c1.374-0.092,2.11,0.551,2.202,1.926
						L897.053,55.235z"/>
					<path stroke="#FFFFFF" stroke-width="20.4352" stroke-linejoin="round" stroke-miterlimit="10" d="M970.881,73.906
						c0.034,0.517,0.053,1.12,0.056,1.811c0.002,0.692,0.008,1.425,0.018,2.202c0.007,0.777-0.01,1.49-0.052,2.142
						c-0.044,0.651-0.095,1.195-0.151,1.63l-0.791,7.57c-0.614,6.35-1.87,11.812-3.769,16.389
						c-1.899,4.578-4.432,8.375-7.601,11.394c-3.169,3.02-6.948,5.323-11.334,6.911c-4.389,1.589-9.379,2.57-14.97,2.943
						c-4.646,0.31-8.775-0.064-12.388-1.12c-3.614-1.055-6.704-2.685-9.27-4.89c-2.567-2.205-4.564-4.945-5.992-8.221
						c-1.429-3.274-2.276-6.932-2.546-10.977c-0.08-1.203-0.123-2.475-0.125-3.815c-0.004-1.337,0.08-2.705,0.246-4.099l0.791-7.57
						c0.694-6.44,2.032-11.973,4.015-16.6c1.979-4.624,4.578-8.426,7.794-11.406c3.215-2.979,6.994-5.24,11.343-6.784
						c4.347-1.541,9.231-2.494,14.651-2.855c4.472-0.298,8.516,0.081,12.13,1.136c3.612,1.055,6.702,2.687,9.27,4.892
						c2.563,2.206,4.584,4.943,6.056,8.214C969.73,66.075,970.605,69.776,970.881,73.906z M946.175,76.616
						c-0.189-2.849-0.896-4.796-2.117-5.842c-1.221-1.045-3.062-1.487-5.527-1.323c-3.227,0.215-5.683,1.464-7.364,3.743
						c-1.684,2.279-2.818,6.041-3.406,11.283l-0.774,7.598c-0.087,1.306-0.158,2.482-0.218,3.526
						c-0.061,1.046-0.06,2.042,0.004,2.992c0.201,3.022,0.955,5.054,2.261,6.093c1.308,1.042,3.191,1.479,5.656,1.315
						c3.226-0.215,5.643-1.395,7.249-3.54c1.607-2.145,2.691-6.012,3.26-11.6l0.773-7.598c0.084-1.305,0.156-2.501,0.215-3.59
						C946.241,78.585,946.238,77.566,946.175,76.616z"/>
				</g>
				<g>
					<path stroke="#FFFFFF" stroke-width="20.4352" stroke-linejoin="round" stroke-miterlimit="10" d="M212.914,207.551
						l-1.32,12.085c-0.109,1.229-0.742,1.88-1.896,1.958l-0.192,0.013c-0.964,0-2.316-0.006-4.056-0.02
						c-1.739-0.012-3.621-0.031-5.65-0.058c-2.028-0.023-4.104-0.016-6.226,0.029c-2.12,0.044-4.044,0.125-5.774,0.241
						c-1.346,0.09-2.577,0.445-3.694,1.068c-1.115,0.622-1.621,1.736-1.514,3.34c0.047,0.706,0.377,1.312,0.99,1.819
						c0.612,0.508,1.782,1.188,3.513,2.038l12.188,6.149c3.597,1.825,6.218,4.003,7.868,6.536c1.648,2.533,2.587,5.501,2.813,8.9
						c0.3,4.493-0.31,8.402-1.825,11.727c-1.516,3.323-3.664,6.094-6.444,8.31c-2.781,2.215-6.029,3.931-9.745,5.146
						c-3.717,1.212-7.624,1.957-11.724,2.23c-3.974,0.265-7.529,0.26-10.669-0.013s-5.949-0.681-8.431-1.225
						c-0.458-0.098-0.854-0.264-1.191-0.499c-0.339-0.233-0.521-0.576-0.551-1.024l-0.02-0.289l1.229-11.955
						c0.094-0.521,0.321-0.987,0.68-1.397c0.359-0.41,0.827-0.634,1.403-0.672l0.192-0.013c0.966,0,2.286,0.04,3.966,0.122
						c1.679,0.081,3.435,0.125,5.27,0.132c1.835,0.006,3.653,0.014,5.456,0.022c1.802,0.009,3.344-0.031,4.625-0.116
						c1.922-0.128,3.544-0.636,4.87-1.53c1.323-0.893,1.912-2.428,1.768-4.607c-0.047-0.703-0.364-1.359-0.951-1.963
						c-0.588-0.603-1.615-1.307-3.084-2.111l-12.942-7.342c-2.944-1.669-5.182-3.886-6.718-6.647
						c-1.535-2.761-2.402-5.647-2.604-8.661c-0.29-4.355,0.253-8.028,1.63-11.016c1.378-2.986,3.339-5.434,5.883-7.342
						c2.543-1.907,5.521-3.327,8.935-4.264c3.412-0.934,7.041-1.532,10.885-1.788c1.923-0.128,3.928-0.196,6.021-0.207
						c2.088-0.011,4.136,0.043,6.14,0.167c2.002,0.123,3.813,0.258,5.434,0.406c1.616,0.148,2.918,0.349,3.901,0.603
						c0.392,0.102,0.739,0.255,1.043,0.459s0.471,0.53,0.5,0.974L212.914,207.551z"/>
					<path stroke="#FFFFFF" stroke-width="20.4352" stroke-linejoin="round" stroke-miterlimit="10" d="M272.586,217.982
						l-5.768,52.51c-0.095,0.522-0.337,0.988-0.727,1.4c-0.393,0.413-0.843,0.635-1.354,0.669l-13.166,0.877
						c-1.09,0.073-1.671-0.434-1.743-1.525l-0.02-0.288l0.314-2.531c-3.247,2.469-6.146,4.111-8.698,4.924s-4.66,1.276-6.325,1.387
						c-2.756,0.184-5.124-0.093-7.103-0.83c-1.98-0.736-3.615-1.834-4.902-3.292c-1.288-1.459-2.273-3.211-2.956-5.258
						c-0.684-2.045-1.104-4.253-1.262-6.625c-0.086-1.281-0.106-2.551-0.062-3.809c0.045-1.258,0.151-2.569,0.317-3.932
						l3.288-30.335c0.094-0.521,0.351-1.02,0.769-1.499c0.418-0.477,0.917-0.737,1.493-0.775l14.415-0.96
						c0.513-0.034,0.925,0.117,1.236,0.448c0.312,0.333,0.482,0.725,0.513,1.172l0.025,0.385l-3.338,31.016
						c-0.128,0.974-0.23,1.866-0.304,2.675c-0.077,0.81-0.092,1.535-0.049,2.175c0.111,1.667,0.549,2.7,1.316,3.098
						c0.766,0.4,1.918,0.547,3.456,0.445c1.473-0.098,2.965-0.421,4.473-0.973c1.508-0.55,2.691-1.112,3.555-1.686l4.057-37.627
						c0.09-0.585,0.346-1.1,0.768-1.547c0.418-0.446,0.981-0.693,1.688-0.74l13.742-0.916c0.577-0.038,1.099,0.072,1.567,0.33
						c0.466,0.258,0.72,0.676,0.758,1.252L272.586,217.982z"/>
					<path stroke="#FFFFFF" stroke-width="20.4352" stroke-linejoin="round" stroke-miterlimit="10" d="M325.186,214.959
						l-0.954,8.847c-0.12,1.104-0.34,1.922-0.657,2.458c-0.319,0.537-0.802,1.244-1.452,2.123l-19.176,25.122
						c-0.291,0.47-0.43,0.801-0.417,0.992c0.021,0.322,0.288,0.463,0.802,0.429l16.146-1.076c0.961-0.064,1.469,0.322,1.524,1.154
						l0.019,0.288l-1.25,11.667c-0.094,0.522-0.353,0.99-0.775,1.403c-0.422,0.415-0.89,0.638-1.402,0.672l-38.537,2.568
						c-0.642,0.043-1.168-0.13-1.58-0.521c-0.411-0.39-0.636-0.875-0.675-1.452l-0.032-0.48l0.903-8.168
						c0.072-0.84,0.234-1.561,0.483-2.156c0.25-0.595,0.699-1.333,1.35-2.213l20.156-26.344c0.358-0.411,0.53-0.744,0.513-1
						c-0.021-0.319-0.289-0.463-0.801-0.429l-16.146,1.076c-0.898,0.06-1.373-0.326-1.429-1.159l-0.02-0.289l1.27-11.379
						c0.093-0.52,0.353-0.989,0.775-1.402c0.422-0.415,0.89-0.639,1.402-0.673l37.77-2.517c0.639-0.042,1.149,0.133,1.53,0.526
						c0.38,0.394,0.59,0.878,0.628,1.454L325.186,214.959z"/>
					<path stroke="#FFFFFF" stroke-width="20.4352" stroke-linejoin="round" stroke-miterlimit="10" d="M385.312,210.47
						l-5.768,52.51c-0.096,0.522-0.337,0.988-0.727,1.4c-0.393,0.413-0.843,0.635-1.354,0.669l-13.166,0.877
						c-1.091,0.073-1.671-0.434-1.744-1.525l-0.02-0.288l0.314-2.531c-3.247,2.469-6.146,4.111-8.697,4.924
						c-2.553,0.812-4.661,1.276-6.326,1.387c-2.756,0.184-5.123-0.093-7.103-0.831c-1.98-0.736-3.614-1.833-4.901-3.292
						c-1.289-1.459-2.274-3.211-2.957-5.258c-0.683-2.045-1.104-4.253-1.262-6.625c-0.085-1.281-0.106-2.551-0.061-3.809
						c0.045-1.258,0.15-2.569,0.317-3.932l3.288-30.335c0.093-0.521,0.351-1.02,0.769-1.499c0.418-0.477,0.916-0.737,1.492-0.775
						l14.415-0.96c0.513-0.034,0.925,0.117,1.237,0.448c0.312,0.333,0.482,0.725,0.513,1.172l0.025,0.385l-3.339,31.016
						c-0.128,0.974-0.229,1.866-0.305,2.675c-0.076,0.81-0.091,1.535-0.048,2.175c0.111,1.667,0.55,2.7,1.316,3.098
						c0.766,0.4,1.919,0.547,3.456,0.444c1.474-0.098,2.965-0.421,4.473-0.973c1.508-0.55,2.692-1.112,3.556-1.686l4.057-37.627
						c0.09-0.585,0.345-1.1,0.767-1.547c0.419-0.446,0.982-0.693,1.688-0.74l13.743-0.916c0.576-0.038,1.098,0.072,1.565,0.33
						c0.467,0.258,0.722,0.676,0.76,1.252L385.312,210.47z"/>
					<path stroke="#FFFFFF" stroke-width="20.4352" stroke-linejoin="round" stroke-miterlimit="10" d="M448.375,205.109
						c0.025,0.385-0.112,0.748-0.41,1.089l-20.254,26.35l14.094,26.089c0.072,0.125,0.118,0.315,0.136,0.571
						c0.025,0.384-0.095,0.747-0.362,1.085c-0.267,0.341-0.625,0.524-1.072,0.554l-17.107,1.14c-1.09,0.073-1.938-0.578-2.544-1.954
						l-9.82-21.354l-2.384,22.167c-0.096,0.522-0.352,1.022-0.769,1.5c-0.42,0.478-0.885,0.734-1.397,0.768l-14.415,0.96
						c-0.514,0.034-0.941-0.113-1.285-0.444c-0.345-0.331-0.533-0.753-0.567-1.266l-0.02-0.289l7.717-71.078
						c0.094-0.519,0.368-0.989,0.823-1.404c0.455-0.418,0.938-0.643,1.451-0.677l14.415-0.96c1.089-0.073,1.668,0.405,1.736,1.428
						l0.026,0.384l-4.327,39.384l14.57-21.822c0.526-0.807,0.975-1.319,1.347-1.537c0.37-0.219,0.812-0.344,1.326-0.378
						l17.874-1.191C447.925,204.174,448.332,204.47,448.375,205.109z"/>
					<path stroke="#FFFFFF" stroke-width="20.4352" stroke-linejoin="round" stroke-miterlimit="10" d="M475.161,204.387
						l-5.679,52.407c-0.095,0.522-0.383,1.024-0.864,1.506c-0.484,0.482-0.981,0.74-1.493,0.774l-14.319,0.954
						c-0.514,0.034-0.94-0.113-1.284-0.444c-0.345-0.332-0.533-0.753-0.567-1.266l-0.02-0.289l5.679-52.407
						c0.094-0.521,0.382-1.006,0.868-1.458c0.484-0.45,0.982-0.693,1.495-0.728l14.32-0.954c0.512-0.034,0.938,0.099,1.281,0.397
						c0.341,0.3,0.529,0.706,0.563,1.217L475.161,204.387z M477.665,185.492l-1.005,9.528c-0.096,0.521-0.385,0.99-0.872,1.41
						c-0.487,0.418-0.986,0.644-1.499,0.678l-15.185,1.012c-0.514,0.034-0.956-0.081-1.325-0.346
						c-0.372-0.264-0.575-0.651-0.609-1.165l-0.02-0.288l1.007-9.528c0.094-0.521,0.4-0.992,0.92-1.413
						c0.517-0.42,1.033-0.647,1.547-0.682l15.184-1.012c0.513-0.034,0.938,0.083,1.279,0.35c0.339,0.267,0.525,0.657,0.56,1.169
						L477.665,185.492z"/>
					<path stroke="#FFFFFF" stroke-width="20.4352" stroke-linejoin="round" stroke-miterlimit="10" d="M562.56,252.136
						c-0.327,0.409-0.749,0.629-1.264,0.663l-16.418,1.094c-0.515,0.034-0.929-0.114-1.242-0.447
						c-0.313-0.333-0.486-0.756-0.521-1.269l-1.18-13.339l-17.106,1.14l-4.202,13.698c-0.158,0.525-0.417,0.977-0.778,1.355
						c-0.36,0.378-0.798,0.583-1.31,0.617l-17.011,1.134c-0.898,0.06-1.374-0.327-1.43-1.16c-0.008-0.128,0.038-0.389,0.142-0.781
						l19.338-60.365c0.803-2.433,1.842-4.45,3.12-6.047c1.276-1.597,2.768-2.871,4.476-3.822c1.706-0.949,3.573-1.637,5.606-2.063
						c2.029-0.424,4.2-0.714,6.51-0.868c2.316-0.154,4.467-0.152,6.45,0.005c1.982,0.158,3.727,0.605,5.23,1.34
						c1.503,0.737,2.757,1.829,3.759,3.274c1.001,1.445,1.613,3.352,1.836,5.717l6.431,58.648l0.006,0.096
						C563.036,251.269,562.889,251.729,562.56,252.136z M538.805,199.083c-0.03-0.447-0.085-0.781-0.163-1.003
						c-0.08-0.219-0.344-0.314-0.792-0.285c-0.449,0.03-0.729,0.162-0.842,0.394c-0.114,0.235-0.22,0.58-0.317,1.035l-7.407,25.012
						l11.532-0.769L538.805,199.083z"/>
					<path stroke="#FFFFFF" stroke-width="20.4352" stroke-linejoin="round" stroke-miterlimit="10" d="M638.488,176.899
						c0.017,0.258-0.06,0.551-0.23,0.884l-23.104,35.711l16.561,32.681c0.072,0.125,0.118,0.315,0.136,0.57
						c0.06,0.898-0.391,1.378-1.353,1.442l-18.355,1.223c-0.576,0.039-1.036-0.09-1.378-0.391c-0.343-0.298-0.625-0.697-0.852-1.198
						l-8.444-16.62l-11.079,17.728c-0.35,0.539-0.736,1.015-1.159,1.429c-0.423,0.415-0.891,0.638-1.401,0.672l-17.972,1.198
						c-0.706,0.047-1.078-0.249-1.121-0.89c-0.025-0.386,0.08-0.713,0.319-0.987l23.398-37.082l-15.798-31.382
						c-0.072-0.124-0.114-0.282-0.127-0.474c-0.06-0.896,0.391-1.377,1.351-1.442l18.451-1.229c0.513-0.034,0.941,0.131,1.29,0.494
						c0.345,0.362,0.628,0.762,0.852,1.198l8.104,15.87l10.251-17.093c0.291-0.47,0.647-0.912,1.071-1.326
						c0.421-0.415,0.889-0.639,1.401-0.673l18.067-1.204C638.071,175.962,638.445,176.261,638.488,176.899z"/>
					<path stroke="#FFFFFF" stroke-width="20.4352" stroke-linejoin="round" stroke-miterlimit="10" d="M709.372,173.045
						l-7.408,68.45c-0.095,0.522-0.337,0.989-0.728,1.4c-0.391,0.412-0.842,0.635-1.354,0.669l-15.664,1.044
						c-1.026,0.068-1.572-0.409-1.641-1.435l-0.026-0.385l5.41-50.652l-10.688,4.766c-0.436,0.222-0.845,0.346-1.229,0.372
						c-0.449,0.03-0.688-0.21-0.723-0.724l-0.026-0.385l1.492-13.806c0.146-0.717,0.591-1.294,1.334-1.73l16.26-8.034
						c0.688-0.302,1.448-0.482,2.281-0.538l11.052-0.736c1.024-0.068,1.569,0.378,1.633,1.339L709.372,173.045z"/>
					<path stroke="#FFFFFF" stroke-width="20.4352" stroke-linejoin="round" stroke-miterlimit="10" d="M785.472,188.052
						c0.192,2.883,0.107,5.978-0.251,9.283l-1.014,9.431c-0.627,6.026-1.719,11.136-3.273,15.326
						c-1.556,4.19-3.58,7.623-6.071,10.298c-2.493,2.676-5.465,4.677-8.915,6c-3.452,1.324-7.45,2.138-11.999,2.441
						c-6.984,0.465-12.512-1.097-16.578-4.688c-4.069-3.59-6.352-9.133-6.852-16.629c-0.188-2.819-0.103-5.881,0.256-9.188
						l1.013-9.431c0.683-6.157,1.833-11.352,3.451-15.577c1.616-4.226,3.703-7.665,6.262-10.313
						c2.559-2.647,5.549-4.617,8.971-5.906c3.421-1.29,7.278-2.079,11.572-2.365c7.174-0.478,12.75,1.115,16.727,4.775
						C782.745,175.17,784.98,180.686,785.472,188.052z M766.007,190.025c-0.192-2.883-0.798-4.725-1.816-5.526
						c-1.018-0.801-2.362-1.146-4.026-1.035c-1.025,0.068-1.991,0.311-2.896,0.725c-0.906,0.415-1.724,1.193-2.451,2.335
						c-0.729,1.144-1.396,2.748-1.996,4.814c-0.603,2.069-1.078,4.819-1.429,8.252l-1.014,9.431
						c-0.196,1.881-0.328,3.53-0.393,4.949c-0.067,1.42-0.064,2.676,0.009,3.764c0.188,2.82,0.791,4.629,1.811,5.43
						c1.019,0.801,2.359,1.146,4.025,1.034c1.154-0.077,2.2-0.306,3.14-0.691c0.94-0.384,1.759-1.146,2.454-2.287
						c0.696-1.14,1.314-2.742,1.852-4.806c0.538-2.062,0.981-4.843,1.326-8.341l1.013-9.431c0.197-1.879,0.329-3.512,0.398-4.901
						C766.08,192.354,766.079,191.115,766.007,190.025z"/>
					<path stroke="#FFFFFF" stroke-width="20.4352" stroke-linejoin="round" stroke-miterlimit="10" d="M849.475,183.787
						c0.191,2.883,0.107,5.977-0.251,9.283l-1.014,9.431c-0.627,6.026-1.719,11.136-3.273,15.326
						c-1.556,4.19-3.58,7.623-6.071,10.298c-2.493,2.676-5.465,4.677-8.915,6c-3.452,1.324-7.451,2.138-11.999,2.44
						c-6.984,0.466-12.512-1.097-16.578-4.688c-4.069-3.589-6.353-9.132-6.853-16.628c-0.188-2.819-0.102-5.882,0.257-9.188
						l1.013-9.431c0.683-6.158,1.833-11.352,3.451-15.577c1.615-4.226,3.703-7.665,6.262-10.312
						c2.559-2.647,5.549-4.617,8.971-5.907c3.421-1.29,7.278-2.079,11.571-2.365c7.175-0.478,12.751,1.115,16.728,4.774
						C846.748,170.905,848.983,176.421,849.475,183.787z M830.01,185.76c-0.192-2.883-0.798-4.725-1.816-5.526
						s-2.361-1.146-4.027-1.036c-1.025,0.068-1.99,0.312-2.895,0.725c-0.906,0.415-1.724,1.193-2.451,2.335
						c-0.729,1.144-1.395,2.748-1.996,4.814c-0.603,2.069-1.078,4.82-1.43,8.252l-1.013,9.431c-0.196,1.881-0.328,3.531-0.393,4.95
						c-0.067,1.419-0.064,2.676,0.009,3.764c0.188,2.82,0.791,4.629,1.811,5.431c1.019,0.801,2.359,1.145,4.025,1.034
						c1.153-0.077,2.2-0.307,3.14-0.692c0.94-0.384,1.759-1.146,2.454-2.287c0.696-1.14,1.314-2.742,1.852-4.805
						c0.538-2.062,0.98-4.843,1.326-8.342l1.013-9.431c0.196-1.878,0.329-3.512,0.397-4.9
						C830.083,188.088,830.082,186.85,830.01,185.76z"/>
				</g>
			</g>
			<g>
				<g>
					<path d="M110.166,88.229c0.006,0.087-0.011,0.174-0.047,0.262c-0.039,0.09-0.05,0.221-0.039,0.392l-1.884,16.457
						c-0.167,1.394-0.811,2.128-1.928,2.202l-0.387,0.026c-2.508-0.005-6.072-0.004-10.694,0c-4.622,0.006-9.344,0.168-14.16,0.489
						c-3.184,0.212-5.939,0.679-8.267,1.395c-2.329,0.717-4.283,1.863-5.862,3.437c-1.581,1.575-2.826,3.645-3.734,6.211
						c-0.91,2.568-1.58,5.808-2.01,9.726l-1.539,13.842c-0.305,3.217-0.382,5.944-0.233,8.181c0.167,2.496,0.578,4.478,1.239,5.944
						c0.658,1.47,1.469,2.604,2.43,3.403c0.961,0.8,2.03,1.291,3.209,1.471c1.178,0.181,2.369,0.232,3.574,0.151
						c2.666-0.178,5.066-0.468,7.2-0.869l2.883-26.763c0.125-0.7,0.431-1.325,0.913-1.875c0.48-0.551,1.064-0.85,1.754-0.896
						l20.389-1.358c1.462-0.098,2.242,0.586,2.34,2.049l0.025,0.387l-4.732,43.737c-0.109,0.958-0.363,1.666-0.765,2.124
						c-0.404,0.46-1.158,0.813-2.263,1.059c-3.82,1.031-8.247,2.039-13.279,3.023c-5.033,0.984-10.689,1.685-16.969,2.103
						c-3.613,0.241-7.373-0.072-11.274-0.934c-3.903-0.862-7.51-2.458-10.817-4.788c-3.311-2.327-6.112-5.468-8.405-9.42
						c-2.295-3.951-3.639-8.896-4.034-14.832c-0.103-1.549-0.147-3.186-0.133-4.916c0.015-1.729,0.133-3.509,0.357-5.338
						l1.549-13.712c1.095-9.49,3.178-17.147,6.246-22.97c3.066-5.82,6.717-10.363,10.951-13.626
						c4.231-3.264,8.813-5.513,13.744-6.749c4.928-1.236,9.759-2.011,14.49-2.326c6.711-0.447,12.394-0.415,17.052,0.095
						c4.655,0.512,8.254,1.027,10.797,1.548c0.698,0.128,1.25,0.286,1.651,0.474C109.905,87.231,110.126,87.628,110.166,88.229z"/>
					<path d="M187.375,105.118c0.029,0.432,0.007,0.777-0.06,1.041l-7.194,67.101c-0.127,0.702-0.409,1.324-0.848,1.871
						c-0.439,0.548-1.003,0.845-1.689,0.891l-16.131,1.075c-1.549,0.104-2.372-0.571-2.469-2.023l-0.025-0.385l0.252-4.004
						c-3.266,2.88-6.403,5.044-9.418,6.488c-3.015,1.445-6.329,2.29-9.942,2.53c-3.097,0.207-6.06-0.159-8.887-1.093
						c-2.828-0.934-5.323-2.387-7.483-4.361c-2.164-1.973-3.928-4.49-5.3-7.554c-1.37-3.061-2.19-6.613-2.46-10.658
						c-0.08-1.204-0.08-2.477,0.005-3.824c0.082-1.345,0.171-2.583,0.271-3.712l1.326-13.181c0.618-6.263,1.997-11.495,4.138-15.699
						c2.138-4.204,4.847-7.646,8.125-10.328c3.277-2.68,7.056-4.66,11.335-5.939c4.277-1.277,8.87-2.082,13.773-2.409
						c4.646-0.31,9.375-0.321,14.189-0.038c4.814,0.284,9.576,0.745,14.286,1.38c1.22,0.179,2.208,0.417,2.962,0.711
						C186.885,103.293,187.301,104.002,187.375,105.118z M157.367,121.634c-1.383,0.008-2.718,0.053-4.008,0.139
						c-1.807,0.121-3.364,0.417-4.672,0.894c-1.309,0.476-2.401,1.261-3.277,2.356c-0.879,1.096-1.605,2.505-2.182,4.228
						c-0.577,1.724-0.993,3.891-1.251,6.5l-1.531,13.97c-0.134,0.615-0.18,1.202-0.143,1.759c0.037,0.561,0.07,1.055,0.099,1.484
						c0.154,2.323,0.796,3.858,1.926,4.603c1.13,0.748,2.6,1.059,4.406,0.938c1.978-0.132,3.975-0.654,5.987-1.566
						s3.638-1.797,4.877-2.658l3.538-32.51C160.005,121.676,158.749,121.629,157.367,121.634z"/>
					<path d="M266.029,116.468c0.115,1.722,0.142,3.426,0.082,5.114c-0.062,1.689-0.203,3.448-0.426,5.278l-4.415,40.734
						c-0.127,0.701-0.471,1.372-1.032,2.014c-0.563,0.643-1.229,0.988-2.004,1.04l-19.356,1.29
						c-0.689,0.046-1.242-0.154-1.661-0.602c-0.418-0.447-0.647-0.972-0.688-1.575l-0.034-0.517l4.482-41.646
						c0.098-1.128,0.218-2.238,0.362-3.329c0.142-1.09,0.177-2.193,0.103-3.312c-0.132-1.978-0.672-3.281-1.621-3.911
						c-0.949-0.626-2.542-0.867-4.778-0.718c-1.98,0.132-3.98,0.568-6.005,1.308c-2.025,0.74-3.617,1.495-4.775,2.261l-5.446,50.524
						c-0.122,0.786-0.465,1.479-1.029,2.077c-0.564,0.601-1.32,0.931-2.266,0.994l-18.454,1.23
						c-0.773,0.051-1.477-0.096-2.103-0.443c-0.629-0.346-0.969-0.907-1.021-1.682l-0.034-0.517l7.745-70.508
						c0.126-0.699,0.45-1.326,0.978-1.88c0.523-0.554,1.129-0.852,1.818-0.898l17.679-1.178c1.462-0.097,2.242,0.585,2.34,2.047
						l0.025,0.387l-0.421,3.397c4.358-3.313,8.252-5.516,11.679-6.61c3.426-1.091,6.258-1.713,8.495-1.863
						c3.698-0.246,6.877,0.125,9.537,1.115c2.658,0.989,4.85,2.463,6.58,4.423c1.729,1.958,3.05,4.289,3.966,6.993
						C265.245,110.214,265.812,113.199,266.029,116.468z"/>
					<path d="M347.901,94.421c0.029,0.432,0.007,0.776-0.06,1.041l-7.195,67.102c-0.126,0.702-0.408,1.324-0.847,1.871
						c-0.439,0.548-1.003,0.845-1.689,0.89l-16.131,1.075c-1.549,0.103-2.372-0.571-2.469-2.023l-0.025-0.385l0.252-4.004
						c-3.266,2.881-6.404,5.045-9.419,6.489c-3.015,1.444-6.328,2.289-9.941,2.53c-3.097,0.207-6.06-0.159-8.887-1.093
						c-2.829-0.934-5.323-2.387-7.484-4.362c-2.162-1.973-3.928-4.49-5.299-7.554c-1.37-3.062-2.19-6.613-2.46-10.658
						c-0.08-1.204-0.08-2.478,0.005-3.824c0.082-1.344,0.172-2.582,0.27-3.712l1.326-13.181c0.619-6.263,1.998-11.495,4.139-15.699
						c2.138-4.203,4.847-7.646,8.125-10.328c3.277-2.681,7.055-4.66,11.335-5.939c4.278-1.278,8.87-2.082,13.773-2.409
						c4.646-0.31,9.375-0.321,14.189-0.039c4.814,0.285,9.576,0.745,14.286,1.381c1.22,0.179,2.208,0.417,2.962,0.711
						C347.411,92.596,347.827,93.305,347.901,94.421z M317.894,110.938c-1.382,0.008-2.718,0.052-4.008,0.139
						c-1.807,0.12-3.364,0.417-4.672,0.894c-1.309,0.476-2.401,1.262-3.277,2.357c-0.879,1.095-1.605,2.505-2.182,4.228
						c-0.577,1.724-0.993,3.891-1.251,6.5l-1.532,13.97c-0.133,0.615-0.179,1.202-0.142,1.759c0.037,0.561,0.07,1.055,0.099,1.484
						c0.155,2.323,0.796,3.858,1.926,4.603c1.13,0.748,2.6,1.059,4.406,0.938c1.978-0.132,3.974-0.654,5.987-1.566
						c2.013-0.912,3.638-1.797,4.877-2.657l3.538-32.51C320.531,110.979,319.275,110.933,317.894,110.938z"/>
					<path d="M460.398,84.591l-7.744,70.508c-0.127,0.702-0.452,1.327-0.977,1.879c-0.526,0.554-1.132,0.854-1.819,0.899
						l-17.68,1.178c-1.463,0.098-2.242-0.583-2.34-2.047l-0.026-0.388l0.423-3.397c-4.36,3.316-8.252,5.52-11.679,6.611
						c-3.428,1.091-6.26,1.713-8.495,1.862c-3.7,0.247-6.879-0.125-9.536-1.114c-2.658-0.99-4.854-2.463-6.581-4.422
						c-1.73-1.959-3.055-4.312-3.971-7.06c-0.917-2.745-1.482-5.711-1.695-8.895c-0.114-1.72-0.143-3.425-0.081-5.115
						c0.06-1.688,0.202-3.447,0.427-5.277l4.415-40.734c0.125-0.699,0.47-1.37,1.031-2.012c0.562-0.642,1.23-0.989,2.005-1.041
						l19.356-1.29c0.688-0.046,1.241,0.156,1.66,0.602c0.419,0.448,0.647,0.974,0.688,1.575l0.035,0.516l-4.483,41.646
						c-0.172,1.307-0.31,2.505-0.408,3.592c-0.103,1.088-0.123,2.061-0.065,2.919c0.148,2.238,0.737,3.625,1.768,4.161
						c1.029,0.536,2.577,0.735,4.643,0.598c1.977-0.132,3.979-0.568,6.004-1.307c2.024-0.739,3.614-1.493,4.774-2.264l5.448-50.524
						c0.119-0.786,0.461-1.476,1.027-2.078c0.563-0.599,1.319-0.929,2.267-0.993l18.453-1.229c0.774-0.052,1.475,0.095,2.104,0.442
						c0.627,0.348,0.968,0.908,1.019,1.682L460.398,84.591z"/>
					<path d="M539.077,98.273c0.115,1.722,0.142,3.426,0.081,5.114c-0.061,1.689-0.203,3.449-0.425,5.278l-4.415,40.733
						c-0.128,0.701-0.472,1.373-1.032,2.014c-0.563,0.643-1.229,0.988-2.005,1.04l-19.356,1.29c-0.688,0.046-1.241-0.153-1.66-0.602
						c-0.418-0.447-0.648-0.972-0.688-1.574l-0.034-0.517l4.483-41.646c0.098-1.128,0.218-2.238,0.361-3.329
						c0.143-1.089,0.178-2.193,0.104-3.312c-0.132-1.978-0.672-3.28-1.621-3.911c-0.949-0.626-2.542-0.867-4.778-0.717
						c-1.98,0.132-3.98,0.568-6.006,1.307c-2.024,0.74-3.616,1.495-4.775,2.262l-5.446,50.524c-0.121,0.786-0.464,1.48-1.028,2.078
						c-0.565,0.601-1.32,0.931-2.267,0.994l-18.453,1.229c-0.773,0.052-1.478-0.096-2.103-0.442
						c-0.629-0.347-0.969-0.908-1.021-1.682l-0.034-0.517l7.745-70.508c0.125-0.699,0.45-1.326,0.977-1.879
						c0.523-0.554,1.13-0.852,1.819-0.898l17.679-1.178c1.462-0.098,2.242,0.585,2.34,2.047l0.025,0.387l-0.422,3.397
						c4.359-3.313,8.252-5.516,11.68-6.609c3.426-1.092,6.258-1.714,8.495-1.863c3.697-0.247,6.877,0.125,9.536,1.114
						c2.658,0.989,4.851,2.463,6.581,4.423c1.729,1.958,3.05,4.289,3.966,6.993C538.292,92.019,538.859,95.004,539.077,98.273z"/>
					<path d="M620.948,76.226c0.029,0.432,0.008,0.776-0.059,1.041l-7.194,67.101c-0.127,0.702-0.41,1.324-0.849,1.871
						c-0.439,0.548-1.002,0.845-1.689,0.891l-16.13,1.075c-1.55,0.103-2.372-0.571-2.469-2.023l-0.025-0.385l0.252-4.004
						c-3.266,2.88-6.404,5.044-9.419,6.488c-3.015,1.445-6.328,2.29-9.941,2.53c-3.097,0.206-6.06-0.159-8.887-1.093
						c-2.829-0.934-5.323-2.387-7.484-4.362c-2.163-1.972-3.929-4.489-5.299-7.554c-1.37-3.061-2.19-6.613-2.46-10.658
						c-0.08-1.204-0.08-2.478,0.004-3.824c0.083-1.345,0.172-2.583,0.271-3.712l1.326-13.18c0.619-6.263,1.998-11.495,4.138-15.7
						c2.139-4.203,4.847-7.646,8.126-10.328c3.277-2.681,7.056-4.66,11.335-5.939c4.277-1.278,8.87-2.082,13.773-2.409
						c4.646-0.31,9.374-0.321,14.189-0.038c4.814,0.284,9.576,0.745,14.286,1.38c1.22,0.179,2.208,0.417,2.962,0.711
						C620.458,74.401,620.874,75.11,620.948,76.226z M590.941,92.742c-1.383,0.008-2.718,0.053-4.008,0.139
						c-1.807,0.12-3.365,0.417-4.673,0.894c-1.308,0.476-2.4,1.261-3.277,2.356c-0.879,1.096-1.605,2.505-2.181,4.228
						c-0.578,1.724-0.993,3.891-1.251,6.5l-1.532,13.97c-0.133,0.615-0.179,1.202-0.142,1.76c0.037,0.561,0.07,1.055,0.099,1.484
						c0.154,2.323,0.796,3.858,1.926,4.602c1.13,0.748,2.599,1.059,4.405,0.938c1.979-0.131,3.975-0.654,5.988-1.566
						c2.013-0.912,3.638-1.797,4.877-2.658l3.537-32.51C593.579,92.784,592.323,92.737,590.941,92.742z"/>
					<path d="M761.164,44.718c0.012,0.174-0.001,0.324-0.034,0.457c-0.036,0.132-0.046,0.283-0.034,0.455l-9.775,90.605
						c-0.127,0.7-0.422,1.151-0.882,1.354c-0.462,0.206-0.949,0.322-1.466,0.357l-21.163,1.41c-0.432,0.029-0.789-0.142-1.071-0.511
						c-0.283-0.37-0.443-0.813-0.478-1.329l-0.044-0.646l5.104-47.908c-0.012-0.172-0.001-0.324,0.034-0.456
						c0.034-0.132,0.049-0.241,0.043-0.328c-0.022-0.343-0.121-0.51-0.292-0.499c-0.086,0.006-0.21,0.101-0.371,0.284l-0.127,0.008
						c-0.174,0.012-0.418,0.246-0.732,0.698c-0.316,0.454-0.552,0.813-0.705,1.083l-12.148,18.048
						c-1.181,1.723-2.505,2.631-3.966,2.728l-8.904,0.593c-1.464,0.098-2.634-0.644-3.519-2.229l-8.662-17.18
						c-0.19-0.247-0.313-0.496-0.374-0.752c-0.062-0.255-0.177-0.378-0.349-0.366l-0.129,0.008c-0.184-0.16-0.319-0.237-0.404-0.232
						c-0.432,0.029-0.66,0.478-0.688,1.343l-5.104,47.908c-0.127,0.702-0.387,1.323-0.782,1.867
						c-0.397,0.545-0.852,0.835-1.368,0.869l-21.292,1.419c-0.432,0.029-0.844-0.008-1.239-0.112
						c-0.395-0.103-0.61-0.413-0.646-0.929l-0.025-0.387l9.776-90.604c0.172-1.308,0.784-2.47,1.841-3.492
						c1.054-1.021,2.228-1.575,3.519-1.661l13.42-0.895c1.633-0.109,2.927,0.151,3.876,0.779c0.949,0.629,1.722,1.528,2.317,2.697
						L709.4,80.96c0.498,1.005,0.921,1.495,1.266,1.472c0.342-0.023,0.911-0.579,1.703-1.669l22.342-34.281
						c0.865-1.266,1.836-2.281,2.908-3.045c1.071-0.762,2.425-1.198,4.061-1.307l15.227-1.015c1.203-0.08,2.195,0.222,2.978,0.903
						C760.662,42.701,761.09,43.602,761.164,44.718z"/>
					<path d="M837.064,82.823c0.034,0.517,0.054,1.12,0.057,1.811c0.002,0.692,0.008,1.425,0.018,2.202
						c0.006,0.777-0.011,1.491-0.053,2.142c-0.043,0.651-0.094,1.195-0.15,1.63l-0.791,7.571c-0.615,6.35-1.87,11.812-3.769,16.389
						c-1.899,4.578-4.433,8.375-7.601,11.394c-3.17,3.021-6.949,5.323-11.335,6.911c-4.388,1.589-9.378,2.57-14.969,2.943
						c-4.646,0.31-8.776-0.063-12.389-1.12c-3.614-1.055-6.704-2.685-9.269-4.89c-2.568-2.205-4.565-4.945-5.992-8.221
						c-1.429-3.274-2.276-6.933-2.546-10.978c-0.08-1.203-0.123-2.474-0.125-3.815c-0.004-1.338,0.079-2.705,0.246-4.099l0.791-7.57
						c0.693-6.439,2.031-11.973,4.014-16.6c1.98-4.624,4.578-8.426,7.795-11.406c3.214-2.979,6.993-5.24,11.342-6.783
						c4.347-1.542,9.232-2.495,14.652-2.856c4.471-0.298,8.515,0.081,12.129,1.136c3.612,1.055,6.703,2.687,9.27,4.892
						c2.565,2.206,4.585,4.943,6.056,8.215C835.915,74.993,836.789,78.693,837.064,82.823z M812.359,85.534
						c-0.189-2.849-0.896-4.797-2.117-5.843c-1.222-1.045-3.063-1.487-5.527-1.323c-3.228,0.215-5.683,1.464-7.365,3.743
						c-1.684,2.279-2.818,6.041-3.406,11.283l-0.774,7.598c-0.086,1.307-0.158,2.482-0.218,3.526
						c-0.061,1.045-0.059,2.042,0.005,2.991c0.201,3.022,0.954,5.054,2.261,6.093c1.308,1.042,3.191,1.479,5.655,1.315
						c3.227-0.215,5.643-1.395,7.249-3.54c1.607-2.144,2.691-6.012,3.26-11.6l0.773-7.597c0.085-1.306,0.156-2.501,0.215-3.591
						C812.426,87.503,812.423,86.484,812.359,85.534z"/>
					<path d="M897.053,55.235l-1.446,13.317c-0.127,0.702-0.452,1.327-0.976,1.88c-0.526,0.554-1.133,0.853-1.82,0.899l-9.807,0.654
						l-3.881,35.125c-0.184,1.136-0.252,2.048-0.206,2.735c0.058,0.861,0.31,1.428,0.762,1.699c0.448,0.274,1.276,0.369,2.481,0.289
						l5.937-0.396c0.687-0.046,1.257,0.09,1.711,0.404c0.452,0.316,0.702,0.818,0.748,1.506l0.026,0.388l-1.256,12.267
						c-0.128,0.702-0.479,1.285-1.05,1.756c-0.575,0.472-1.242,0.817-2.005,1.04c-2.294,0.584-4.21,1.014-5.748,1.29
						c-1.536,0.275-3.511,0.494-5.917,0.654c-2.84,0.189-5.439,0.08-7.799-0.323c-2.359-0.404-4.446-1.215-6.255-2.435
						c-1.811-1.218-3.26-2.872-4.349-4.96c-1.091-2.086-1.737-4.68-1.943-7.777c-0.068-1.033-0.077-2.111-0.021-3.239
						c0.055-1.125,0.126-2.297,0.219-3.515l3.77-34.858l-8.388-1.385c-1.48-0.16-2.265-0.928-2.356-2.306l-0.026-0.387l1.214-10.968
						c0.125-0.7,0.47-1.348,1.036-1.949c0.564-0.599,1.234-0.924,2.009-0.976l8.517-0.567l1.11-10.574
						c0.126-0.699,0.475-1.306,1.045-1.819c0.57-0.511,1.238-0.881,2.001-1.104l19.52-4.672l0.388-0.026
						c1.375-0.091,2.11,0.553,2.202,1.928l0.025,0.387l-1.515,14.229l9.808-0.653c1.374-0.092,2.11,0.551,2.202,1.926
						L897.053,55.235z"/>
					<path d="M970.881,73.906c0.034,0.517,0.053,1.12,0.056,1.811c0.002,0.692,0.008,1.425,0.018,2.202
						c0.007,0.777-0.01,1.49-0.052,2.142c-0.044,0.651-0.095,1.195-0.151,1.63l-0.791,7.57c-0.614,6.35-1.87,11.812-3.769,16.389
						c-1.899,4.578-4.432,8.375-7.601,11.394c-3.169,3.02-6.948,5.323-11.334,6.911c-4.389,1.589-9.379,2.57-14.97,2.943
						c-4.646,0.31-8.775-0.064-12.388-1.12c-3.614-1.055-6.704-2.685-9.27-4.89c-2.567-2.205-4.564-4.945-5.992-8.221
						c-1.429-3.274-2.276-6.932-2.546-10.977c-0.08-1.203-0.123-2.475-0.125-3.815c-0.004-1.337,0.08-2.705,0.246-4.099l0.791-7.57
						c0.694-6.44,2.032-11.973,4.015-16.6c1.979-4.624,4.578-8.426,7.794-11.406c3.215-2.979,6.994-5.24,11.343-6.784
						c4.347-1.541,9.231-2.494,14.651-2.855c4.472-0.298,8.516,0.081,12.13,1.136c3.612,1.055,6.702,2.687,9.27,4.892
						c2.563,2.206,4.584,4.943,6.056,8.214C969.73,66.075,970.605,69.776,970.881,73.906z M946.175,76.616
						c-0.189-2.849-0.896-4.796-2.117-5.842c-1.221-1.045-3.062-1.487-5.527-1.323c-3.227,0.215-5.683,1.464-7.364,3.743
						c-1.684,2.279-2.818,6.041-3.406,11.283l-0.774,7.598c-0.087,1.306-0.158,2.482-0.218,3.526
						c-0.061,1.046-0.06,2.042,0.004,2.992c0.201,3.022,0.955,5.054,2.261,6.093c1.308,1.042,3.191,1.479,5.656,1.315
						c3.226-0.215,5.643-1.395,7.249-3.54c1.607-2.145,2.691-6.012,3.26-11.6l0.773-7.598c0.084-1.305,0.156-2.501,0.215-3.59
						C946.241,78.585,946.238,77.566,946.175,76.616z"/>
				</g>
				<g>
					<path d="M212.914,207.551l-1.32,12.085c-0.109,1.229-0.742,1.88-1.896,1.958l-0.192,0.013c-0.964,0-2.316-0.006-4.056-0.02
						c-1.739-0.012-3.621-0.031-5.65-0.058c-2.028-0.023-4.104-0.016-6.226,0.029c-2.12,0.044-4.044,0.125-5.774,0.241
						c-1.346,0.09-2.577,0.445-3.694,1.068c-1.115,0.622-1.621,1.736-1.514,3.34c0.047,0.706,0.377,1.312,0.99,1.819
						c0.612,0.508,1.782,1.188,3.513,2.038l12.188,6.149c3.597,1.825,6.218,4.003,7.868,6.536c1.648,2.533,2.587,5.501,2.813,8.9
						c0.3,4.493-0.31,8.402-1.825,11.727c-1.516,3.323-3.664,6.094-6.444,8.31c-2.781,2.215-6.029,3.931-9.745,5.146
						c-3.717,1.212-7.624,1.957-11.724,2.23c-3.974,0.265-7.529,0.26-10.669-0.013s-5.949-0.681-8.431-1.225
						c-0.458-0.098-0.854-0.264-1.191-0.499c-0.339-0.233-0.521-0.576-0.551-1.024l-0.02-0.289l1.229-11.955
						c0.094-0.521,0.321-0.987,0.68-1.397c0.359-0.41,0.827-0.634,1.403-0.672l0.192-0.013c0.966,0,2.286,0.04,3.966,0.122
						c1.679,0.081,3.435,0.125,5.27,0.132c1.835,0.006,3.653,0.014,5.456,0.022c1.802,0.009,3.344-0.031,4.625-0.116
						c1.922-0.128,3.544-0.636,4.87-1.53c1.323-0.893,1.912-2.428,1.768-4.607c-0.047-0.703-0.364-1.359-0.951-1.963
						c-0.588-0.603-1.615-1.307-3.084-2.111l-12.942-7.342c-2.944-1.669-5.182-3.886-6.718-6.647
						c-1.535-2.761-2.402-5.647-2.604-8.661c-0.29-4.355,0.253-8.028,1.63-11.016c1.378-2.986,3.339-5.434,5.883-7.342
						c2.543-1.907,5.521-3.327,8.935-4.264c3.412-0.934,7.041-1.532,10.885-1.788c1.923-0.128,3.928-0.196,6.021-0.207
						c2.088-0.011,4.136,0.043,6.14,0.167c2.002,0.123,3.813,0.258,5.434,0.406c1.616,0.148,2.918,0.349,3.901,0.603
						c0.392,0.102,0.739,0.255,1.043,0.459s0.471,0.53,0.5,0.974L212.914,207.551z"/>
					<path d="M272.586,217.982l-5.768,52.51c-0.095,0.522-0.337,0.988-0.727,1.4c-0.393,0.413-0.843,0.635-1.354,0.669
						l-13.166,0.877c-1.09,0.073-1.671-0.434-1.743-1.525l-0.02-0.288l0.314-2.531c-3.247,2.469-6.146,4.111-8.698,4.924
						s-4.66,1.276-6.325,1.387c-2.756,0.184-5.124-0.093-7.103-0.83c-1.98-0.736-3.615-1.834-4.902-3.292
						c-1.288-1.459-2.273-3.211-2.956-5.258c-0.684-2.045-1.104-4.253-1.262-6.625c-0.086-1.281-0.106-2.551-0.062-3.809
						c0.045-1.258,0.151-2.569,0.317-3.932l3.288-30.335c0.094-0.521,0.351-1.02,0.769-1.499c0.418-0.477,0.917-0.737,1.493-0.775
						l14.415-0.96c0.513-0.034,0.925,0.117,1.236,0.448c0.312,0.333,0.482,0.725,0.513,1.172l0.025,0.385l-3.338,31.016
						c-0.128,0.974-0.23,1.866-0.304,2.675c-0.077,0.81-0.092,1.535-0.049,2.175c0.111,1.667,0.549,2.7,1.316,3.098
						c0.766,0.4,1.918,0.547,3.456,0.445c1.473-0.098,2.965-0.421,4.473-0.973c1.508-0.55,2.691-1.112,3.555-1.686l4.057-37.627
						c0.09-0.585,0.346-1.1,0.768-1.547c0.418-0.446,0.981-0.693,1.688-0.74l13.742-0.916c0.577-0.038,1.099,0.072,1.567,0.33
						c0.466,0.258,0.72,0.676,0.758,1.252L272.586,217.982z"/>
					<path d="M325.186,214.959l-0.954,8.847c-0.12,1.104-0.34,1.922-0.657,2.458c-0.319,0.537-0.802,1.244-1.452,2.123
						l-19.176,25.122c-0.291,0.47-0.43,0.801-0.417,0.992c0.021,0.322,0.288,0.463,0.802,0.429l16.146-1.076
						c0.961-0.064,1.469,0.322,1.524,1.154l0.019,0.288l-1.25,11.667c-0.094,0.522-0.353,0.99-0.775,1.403
						c-0.422,0.415-0.89,0.638-1.402,0.672l-38.537,2.568c-0.642,0.043-1.168-0.13-1.58-0.521c-0.411-0.39-0.636-0.875-0.675-1.452
						l-0.032-0.48l0.903-8.168c0.072-0.84,0.234-1.561,0.483-2.156c0.25-0.595,0.699-1.333,1.35-2.213l20.156-26.344
						c0.358-0.411,0.53-0.744,0.513-1c-0.021-0.319-0.289-0.463-0.801-0.429l-16.146,1.076c-0.898,0.06-1.373-0.326-1.429-1.159
						l-0.02-0.289l1.27-11.379c0.093-0.52,0.353-0.989,0.775-1.402c0.422-0.415,0.89-0.639,1.402-0.673l37.77-2.517
						c0.639-0.042,1.149,0.133,1.53,0.526c0.38,0.394,0.59,0.878,0.628,1.454L325.186,214.959z"/>
					<path d="M385.312,210.47l-5.768,52.51c-0.096,0.522-0.337,0.988-0.727,1.4c-0.393,0.413-0.843,0.635-1.354,0.669l-13.166,0.877
						c-1.091,0.073-1.671-0.434-1.744-1.525l-0.02-0.288l0.314-2.531c-3.247,2.469-6.146,4.111-8.697,4.924
						c-2.553,0.812-4.661,1.276-6.326,1.387c-2.756,0.184-5.123-0.093-7.103-0.831c-1.98-0.736-3.614-1.833-4.901-3.292
						c-1.289-1.459-2.274-3.211-2.957-5.258c-0.683-2.045-1.104-4.253-1.262-6.625c-0.085-1.281-0.106-2.551-0.061-3.809
						c0.045-1.258,0.15-2.569,0.317-3.932l3.288-30.335c0.093-0.521,0.351-1.02,0.769-1.499c0.418-0.477,0.916-0.737,1.492-0.775
						l14.415-0.96c0.513-0.034,0.925,0.117,1.237,0.448c0.312,0.333,0.482,0.725,0.513,1.172l0.025,0.385l-3.339,31.016
						c-0.128,0.974-0.229,1.866-0.305,2.675c-0.076,0.81-0.091,1.535-0.048,2.175c0.111,1.667,0.55,2.7,1.316,3.098
						c0.766,0.4,1.919,0.547,3.456,0.444c1.474-0.098,2.965-0.421,4.473-0.973c1.508-0.55,2.692-1.112,3.556-1.686l4.057-37.627
						c0.09-0.585,0.345-1.1,0.767-1.547c0.419-0.446,0.982-0.693,1.688-0.74l13.743-0.916c0.576-0.038,1.098,0.072,1.565,0.33
						c0.467,0.258,0.722,0.676,0.76,1.252L385.312,210.47z"/>
					<path d="M448.375,205.109c0.025,0.385-0.112,0.748-0.41,1.089l-20.254,26.35l14.094,26.089
						c0.072,0.125,0.118,0.315,0.136,0.571c0.025,0.384-0.095,0.747-0.362,1.085c-0.267,0.341-0.625,0.524-1.072,0.554l-17.107,1.14
						c-1.09,0.073-1.938-0.578-2.544-1.954l-9.82-21.354l-2.384,22.167c-0.096,0.522-0.352,1.022-0.769,1.5
						c-0.42,0.478-0.885,0.734-1.397,0.768l-14.415,0.96c-0.514,0.034-0.941-0.113-1.285-0.444
						c-0.345-0.331-0.533-0.753-0.567-1.266l-0.02-0.289l7.717-71.078c0.094-0.519,0.368-0.989,0.823-1.404
						c0.455-0.418,0.938-0.643,1.451-0.677l14.415-0.96c1.089-0.073,1.668,0.405,1.736,1.428l0.026,0.384l-4.327,39.384
						l14.57-21.822c0.526-0.807,0.975-1.319,1.347-1.537c0.37-0.219,0.812-0.344,1.326-0.378l17.874-1.191
						C447.925,204.174,448.332,204.47,448.375,205.109z"/>
					<path d="M475.161,204.387l-5.679,52.407c-0.095,0.522-0.383,1.024-0.864,1.506c-0.484,0.482-0.981,0.74-1.493,0.774
						l-14.319,0.954c-0.514,0.034-0.94-0.113-1.284-0.444c-0.345-0.332-0.533-0.753-0.567-1.266l-0.02-0.289l5.679-52.407
						c0.094-0.521,0.382-1.006,0.868-1.458c0.484-0.45,0.982-0.693,1.495-0.728l14.32-0.954c0.512-0.034,0.938,0.099,1.281,0.397
						c0.341,0.3,0.529,0.706,0.563,1.217L475.161,204.387z M477.665,185.492l-1.005,9.528c-0.096,0.521-0.385,0.99-0.872,1.41
						c-0.487,0.418-0.986,0.644-1.499,0.678l-15.185,1.012c-0.514,0.034-0.956-0.081-1.325-0.346
						c-0.372-0.264-0.575-0.651-0.609-1.165l-0.02-0.288l1.007-9.528c0.094-0.521,0.4-0.992,0.92-1.413
						c0.517-0.42,1.033-0.647,1.547-0.682l15.184-1.012c0.513-0.034,0.938,0.083,1.279,0.35c0.339,0.267,0.525,0.657,0.56,1.169
						L477.665,185.492z"/>
					<path d="M562.56,252.136c-0.327,0.409-0.749,0.629-1.264,0.663l-16.418,1.094c-0.515,0.034-0.929-0.114-1.242-0.447
						c-0.313-0.333-0.486-0.756-0.521-1.269l-1.18-13.339l-17.106,1.14l-4.202,13.698c-0.158,0.525-0.417,0.977-0.778,1.355
						c-0.36,0.378-0.798,0.583-1.31,0.617l-17.011,1.134c-0.898,0.06-1.374-0.327-1.43-1.16c-0.008-0.128,0.038-0.389,0.142-0.781
						l19.338-60.365c0.803-2.433,1.842-4.45,3.12-6.047c1.276-1.597,2.768-2.871,4.476-3.822c1.706-0.949,3.573-1.637,5.606-2.063
						c2.029-0.424,4.2-0.714,6.51-0.868c2.316-0.154,4.467-0.152,6.45,0.005c1.982,0.158,3.727,0.605,5.23,1.34
						c1.503,0.737,2.757,1.829,3.759,3.274c1.001,1.445,1.613,3.352,1.836,5.717l6.431,58.648l0.006,0.096
						C563.036,251.269,562.889,251.729,562.56,252.136z M538.805,199.083c-0.03-0.447-0.085-0.781-0.163-1.003
						c-0.08-0.219-0.344-0.314-0.792-0.285c-0.449,0.03-0.729,0.162-0.842,0.394c-0.114,0.235-0.22,0.58-0.317,1.035l-7.407,25.012
						l11.532-0.769L538.805,199.083z"/>
					<path d="M638.488,176.899c0.017,0.258-0.06,0.551-0.23,0.884l-23.104,35.711l16.561,32.681c0.072,0.125,0.118,0.315,0.136,0.57
						c0.06,0.898-0.391,1.378-1.353,1.442l-18.355,1.223c-0.576,0.039-1.036-0.09-1.378-0.391c-0.343-0.298-0.625-0.697-0.852-1.198
						l-8.444-16.62l-11.079,17.728c-0.35,0.539-0.736,1.015-1.159,1.429c-0.423,0.415-0.891,0.638-1.401,0.672l-17.972,1.198
						c-0.706,0.047-1.078-0.249-1.121-0.89c-0.025-0.386,0.08-0.713,0.319-0.987l23.398-37.082l-15.798-31.382
						c-0.072-0.124-0.114-0.282-0.127-0.474c-0.06-0.896,0.391-1.377,1.351-1.442l18.451-1.229c0.513-0.034,0.941,0.131,1.29,0.494
						c0.345,0.362,0.628,0.762,0.852,1.198l8.104,15.87l10.251-17.093c0.291-0.47,0.647-0.912,1.071-1.326
						c0.421-0.415,0.889-0.639,1.401-0.673l18.067-1.204C638.071,175.962,638.445,176.261,638.488,176.899z"/>
					<path d="M709.372,173.045l-7.408,68.45c-0.095,0.522-0.337,0.989-0.728,1.4c-0.391,0.412-0.842,0.635-1.354,0.669
						l-15.664,1.044c-1.026,0.068-1.572-0.409-1.641-1.435l-0.026-0.385l5.41-50.652l-10.688,4.766
						c-0.436,0.222-0.845,0.346-1.229,0.372c-0.449,0.03-0.688-0.21-0.723-0.724l-0.026-0.385l1.492-13.806
						c0.146-0.717,0.591-1.294,1.334-1.73l16.26-8.034c0.688-0.302,1.448-0.482,2.281-0.538l11.052-0.736
						c1.024-0.068,1.569,0.378,1.633,1.339L709.372,173.045z"/>
					<path d="M785.472,188.052c0.192,2.883,0.107,5.978-0.251,9.283l-1.014,9.431c-0.627,6.026-1.719,11.136-3.273,15.326
						c-1.556,4.19-3.58,7.623-6.071,10.298c-2.493,2.676-5.465,4.677-8.915,6c-3.452,1.324-7.45,2.138-11.999,2.441
						c-6.984,0.465-12.512-1.097-16.578-4.688c-4.069-3.59-6.352-9.133-6.852-16.629c-0.188-2.819-0.103-5.881,0.256-9.188
						l1.013-9.431c0.683-6.157,1.833-11.352,3.451-15.577c1.616-4.226,3.703-7.665,6.262-10.313
						c2.559-2.647,5.549-4.617,8.971-5.906c3.421-1.29,7.278-2.079,11.572-2.365c7.174-0.478,12.75,1.115,16.727,4.775
						C782.745,175.17,784.98,180.686,785.472,188.052z M766.007,190.025c-0.192-2.883-0.798-4.725-1.816-5.526
						c-1.018-0.801-2.362-1.146-4.026-1.035c-1.025,0.068-1.991,0.311-2.896,0.725c-0.906,0.415-1.724,1.193-2.451,2.335
						c-0.729,1.144-1.396,2.748-1.996,4.814c-0.603,2.069-1.078,4.819-1.429,8.252l-1.014,9.431
						c-0.196,1.881-0.328,3.53-0.393,4.949c-0.067,1.42-0.064,2.676,0.009,3.764c0.188,2.82,0.791,4.629,1.811,5.43
						c1.019,0.801,2.359,1.146,4.025,1.034c1.154-0.077,2.2-0.306,3.14-0.691c0.94-0.384,1.759-1.146,2.454-2.287
						c0.696-1.14,1.314-2.742,1.852-4.806c0.538-2.062,0.981-4.843,1.326-8.341l1.013-9.431c0.197-1.879,0.329-3.512,0.398-4.901
						C766.08,192.354,766.079,191.115,766.007,190.025z"/>
					<path d="M849.475,183.787c0.191,2.883,0.107,5.977-0.251,9.283l-1.014,9.431c-0.627,6.026-1.719,11.136-3.273,15.326
						c-1.556,4.19-3.58,7.623-6.071,10.298c-2.493,2.676-5.465,4.677-8.915,6c-3.452,1.324-7.451,2.138-11.999,2.44
						c-6.984,0.466-12.512-1.097-16.578-4.688c-4.069-3.589-6.353-9.132-6.853-16.628c-0.188-2.819-0.102-5.882,0.257-9.188
						l1.013-9.431c0.683-6.158,1.833-11.352,3.451-15.577c1.615-4.226,3.703-7.665,6.262-10.312
						c2.559-2.647,5.549-4.617,8.971-5.907c3.421-1.29,7.278-2.079,11.571-2.365c7.175-0.478,12.751,1.115,16.728,4.774
						C846.748,170.905,848.983,176.421,849.475,183.787z M830.01,185.76c-0.192-2.883-0.798-4.725-1.816-5.526
						s-2.361-1.146-4.027-1.036c-1.025,0.068-1.99,0.312-2.895,0.725c-0.906,0.415-1.724,1.193-2.451,2.335
						c-0.729,1.144-1.395,2.748-1.996,4.814c-0.603,2.069-1.078,4.82-1.43,8.252l-1.013,9.431c-0.196,1.881-0.328,3.531-0.393,4.95
						c-0.067,1.419-0.064,2.676,0.009,3.764c0.188,2.82,0.791,4.629,1.811,5.431c1.019,0.801,2.359,1.145,4.025,1.034
						c1.153-0.077,2.2-0.307,3.14-0.692c0.94-0.384,1.759-1.146,2.454-2.287c0.696-1.14,1.314-2.742,1.852-4.805
						c0.538-2.062,0.98-4.843,1.326-8.342l1.013-9.431c0.196-1.878,0.329-3.512,0.397-4.9
						C830.083,188.088,830.082,186.85,830.01,185.76z"/>
				</g>
			</g>
		</g>
	</g>
	<polygon fill="#FFFFFF" points="87.521,111.35 72.422,113.237 65.816,128.336 69.591,137.773 77.141,126.448 88.465,125.505 
		106.395,124.562 113,117.012 108.281,114.181 95.07,112.293 	"/>
	<polygon fill="#FFFFFF" points="444.233,221.761 437.627,233.085 440.459,245.353 446.121,247.241 448.952,228.367 
		448.952,217.042 	"/>
</g>
</svg>
