<?xml version="1.0" encoding="utf-8"?>
<!-- Generator: Adobe Illustrator 16.0.0, SVG Export Plug-In . SVG Version: 6.00 Build 0)  -->
<!DOCTYPE svg PUBLIC "-//W3C//DTD SVG 1.1//EN" "http://www.w3.org/Graphics/SVG/1.1/DTD/svg11.dtd">
<svg version="1.1" id="Layer_1" xmlns="http://www.w3.org/2000/svg" xmlns:xlink="http://www.w3.org/1999/xlink" x="0px" y="0px"
	 width="741.639px" height="654.744px" viewBox="0 0 741.639 654.744" enable-background="new 0 0 741.639 654.744"
	 xml:space="preserve">
<text transform="matrix(1 0 0 1 216.7715 71.8193)"><tspan x="0" y="0" fill="none" stroke="#FFFFFF" stroke-width="5.6693" stroke-linecap="round" stroke-linejoin="round" stroke-miterlimit="10" font-family="'DFutHvy1'" font-size="61.5999">¡Felicidades!</tspan><tspan x="-138.384" y="64.955" fill="none" stroke="#FFFFFF" stroke-width="5.6693" stroke-linecap="round" stroke-linejoin="round" stroke-miterlimit="10" font-family="'DFutHvy1'" font-size="61.5999"> Ya estás Participando</tspan></text>
<rect x="18.998" y="354.011" fill="#0060AE" width="713.917" height="254"/>
<rect x="18.998" y="311.011" fill="#0060AE" width="104.462" height="43"/>
<text transform="matrix(1 0 0 1 216.5547 71.8193)"><tspan x="0" y="0" font-family="'DFutHvy1'" font-size="61.5999">¡Felicidades!</tspan><tspan x="-138.384" y="64.955" font-family="'DFutHvy1'" font-size="61.5999"> Ya estás Participando</tspan></text>
<text transform="matrix(1 0 0 1 314.9521 204.7061)" fill="#FFFFFF" font-family="'DFutHvy1'" font-size="25.7218">¡Recuerda!</text>
<text transform="matrix(1 0 0 1 120.1475 240.4482)"><tspan x="0" y="0" fill="#FFFFFF" font-family="'DFutHvy1'" font-size="20.1712">Conserva tu ticket de compra ya que será tu comprobante </tspan><tspan x="115.127" y="23" fill="#FFFFFF" font-family="'DFutHvy1'" font-size="20.1712">por si eres el ¡GRAN GANADOR!.</tspan></text>
<text transform="matrix(1 0 0 1 205.1865 643.2959)" fill="#FFFFFF" font-family="'DFutHvy1'" font-size="14.2092">*Puedes seguir participando hasta el 30 de Junio 2017</text>
<g>
	<text transform="matrix(1 0 0 1 243.7295 384.1152)" fill="#FFFFFF" font-family="'DFutHvy1'" font-size="20.5862">No de Ticket</text>
</g>
<g>
	<text transform="matrix(1 0 0 1 59.8076 384.1152)"><tspan x="0" y="0" fill="#FFFFFF" font-family="'DFutHvy1'" font-size="20.5862">Fecha de </tspan><tspan x="6.217" y="21.708" fill="#FFFFFF" font-family="'DFutHvy1'" font-size="20.5862">Registro</tspan></text>
</g>
<g>
	<text transform="matrix(1 0 0 1 605.7217 384.1152)"><tspan x="0" y="0" fill="#FFFFFF" font-family="'DFutHvy1'" font-size="20.5862">Código de</tspan><tspan x="-12.455" y="21.708" fill="#FFFFFF" font-family="'DFutHvy1'" font-size="20.5862">participación</tspan></text>
</g>
<g>
	<text transform="matrix(1 0 0 1 33.9482 340.4287)" fill="#FFFFFF" font-family="'DFutHvy1'" font-size="20.5862">Historial</text>
</g>
<text transform="matrix(1 0 0 1 258.1436 454.4492)" fill="#FFFFFF" font-family="'DFutHvy1'" font-size="20.1712">55555555</text>
<text transform="matrix(1 0 0 1 39.3232 454.4492)" fill="#FFFFFF" font-family="'DFutHvy1'" font-size="20.1712">14/Marzo/2017</text>
<text transform="matrix(1 0 0 1 39.3232 492.6758)" fill="#FFFFFF" font-family="'DFutHvy1'" font-size="20.1712">14/Marzo/2017</text>
<text transform="matrix(1 0 0 1 39.3232 530.3418)" fill="#FFFFFF" font-family="'DFutHvy1'" font-size="20.1712">14/Marzo/2017</text>
<text transform="matrix(1 0 0 1 459.2725 454.4492)" fill="#FFFFFF" font-family="'DFutHvy1'" font-size="20.1712">1234</text>
<text transform="matrix(1 0 0 1 636.1064 454.4492)" fill="#FFFFFF" font-family="'DFutHvy1'" font-size="20.1712">111</text>
<text transform="matrix(1 0 0 1 629.208 492.6768)" fill="#FFFFFF" font-family="'DFutHvy1'" font-size="20.1712">222</text>
<text transform="matrix(1 0 0 1 629.3896 530.3428)" fill="#FFFFFF" font-family="'DFutHvy1'" font-size="20.1712">333</text>
<text transform="matrix(1 0 0 1 259.6748 492.6768)" fill="#FFFFFF" font-family="'DFutHvy1'" font-size="20.1712">88888888</text>
<text transform="matrix(1 0 0 1 457.1357 492.6768)" fill="#FFFFFF" font-family="'DFutHvy1'" font-size="20.1712">5678</text>
<text transform="matrix(1 0 0 1 255.8037 530.3428)" fill="#FFFFFF" font-family="'DFutHvy1'" font-size="20.1712">44444444</text>
<text transform="matrix(1 0 0 1 458.7178 530.3428)" fill="#FFFFFF" font-family="'DFutHvy1'" font-size="20.1712">9012</text>
<g>
	<text transform="matrix(1 0 0 1 425.6865 384.1152)"><tspan x="0" y="0" fill="#FFFFFF" font-family="'DFutHvy1'" font-size="20.5862">No de Sobres</tspan><tspan x="14.041" y="21.708" fill="#FFFFFF" font-family="'DFutHvy1'" font-size="20.5862">calculados</tspan></text>
</g>
<rect x="31.126" y="418.343" fill="#FFFFFF" width="691.33" height="3.334"/>
<rect x="205.664" y="374.01" fill="#FFFFFF" width="3.334" height="225.333"/>
<rect x="387.739" y="374.01" fill="#FFFFFF" width="3.334" height="225.333"/>
<rect x="571.839" y="374.01" fill="#FFFFFF" width="3.334" height="225.333"/>
</svg>
