<?xml version="1.0" encoding="utf-8"?>
<!-- Generator: Adobe Illustrator 16.0.0, SVG Export Plug-In . SVG Version: 6.00 Build 0)  -->
<!DOCTYPE svg PUBLIC "-//W3C//DTD SVG 1.1//EN" "http://www.w3.org/Graphics/SVG/1.1/DTD/svg11.dtd">
<svg version="1.1" id="Layer_1" xmlns="http://www.w3.org/2000/svg" xmlns:xlink="http://www.w3.org/1999/xlink" x="0px" y="0px"
	 width="566.167px" height="58.667px" viewBox="0 0 566.167 58.667" enable-background="new 0 0 566.167 58.667"
	 xml:space="preserve">
<g enable-background="new    ">
	
		<path fill="none" stroke="#FFFFFF" stroke-width="5.6693" stroke-linecap="round" stroke-linejoin="round" stroke-miterlimit="10" d="
		M37.686,28.327c-1.854,1.547-4.501,2.32-7.942,2.32H23.15v11.388h-6.575v-31.67h13.598c3.135,0,5.634,0.816,7.498,2.449
		s2.796,4.161,2.796,7.584C40.467,24.137,39.54,26.78,37.686,28.327z M32.635,16.917c-0.838-0.701-2.012-1.053-3.522-1.053H23.15
		v9.325h5.963c1.51,0,2.684-0.38,3.522-1.139c0.838-0.76,1.257-1.963,1.257-3.61C33.893,18.794,33.473,17.62,32.635,16.917z"/>
	
		<path fill="none" stroke="#FFFFFF" stroke-width="5.6693" stroke-linecap="round" stroke-linejoin="round" stroke-miterlimit="10" d="
		M54.556,27.79c1.14-0.144,1.955-0.322,2.446-0.537c0.88-0.372,1.32-0.952,1.32-1.74c0-0.96-0.337-1.622-1.013-1.987
		s-1.666-0.548-2.973-0.548c-1.466,0-2.505,0.357-3.115,1.074c-0.436,0.529-0.726,1.246-0.871,2.148h-5.909
		c0.129-2.049,0.705-3.731,1.727-5.05c1.625-2.062,4.416-3.094,8.373-3.094c2.575,0,4.862,0.509,6.862,1.525
		c2,1.018,2.999,2.937,2.999,5.759v10.743c0,0.744,0.014,1.646,0.043,2.707c0.043,0.802,0.165,1.347,0.365,1.633
		s0.501,0.522,0.902,0.709v0.902h-6.661c-0.186-0.473-0.315-0.917-0.387-1.332s-0.129-0.888-0.172-1.418
		c-0.85,0.917-1.83,1.697-2.939,2.342c-1.326,0.759-2.824,1.139-4.495,1.139c-2.133,0-3.894-0.605-5.284-1.815
		c-1.391-1.21-2.085-2.926-2.085-5.146c0-2.88,1.118-4.964,3.355-6.253c1.227-0.701,3.03-1.203,5.411-1.504L54.556,27.79z
		 M58.3,30.647c-0.392,0.244-0.788,0.44-1.188,0.591s-0.947,0.29-1.644,0.419l-1.394,0.258c-1.307,0.229-2.245,0.509-2.814,0.838
		c-0.965,0.559-1.447,1.426-1.447,2.601c0,1.045,0.294,1.801,0.884,2.267c0.589,0.465,1.305,0.698,2.149,0.698
		c1.338,0,2.57-0.387,3.698-1.16s1.712-2.185,1.756-4.233V30.647z"/>
	
		<path fill="none" stroke="#FFFFFF" stroke-width="5.6693" stroke-linecap="round" stroke-linejoin="round" stroke-miterlimit="10" d="
		M82.762,18.067c0.079,0.008,0.254,0.019,0.526,0.032v6.274c-0.387-0.043-0.73-0.072-1.031-0.086
		c-0.301-0.015-0.544-0.021-0.73-0.021c-2.464,0-4.118,0.802-4.963,2.406c-0.473,0.902-0.709,2.292-0.709,4.168v11.194h-6.167
		v-23.42h5.844v4.083c0.945-1.562,1.769-2.629,2.471-3.202c1.146-0.959,2.635-1.439,4.469-1.439
		C82.587,18.056,82.684,18.06,82.762,18.067z"/>
	
		<path fill="none" stroke="#FFFFFF" stroke-width="5.6693" stroke-linecap="round" stroke-linejoin="round" stroke-miterlimit="10" d="
		M84.471,23.192V18.83h3.266v-6.531h6.059v6.531h3.803v4.362h-3.803v12.376c0,0.959,0.122,1.558,0.366,1.794
		c0.243,0.236,0.988,0.354,2.234,0.354c0.186,0,0.383-0.004,0.591-0.011c0.208-0.008,0.412-0.019,0.612-0.032v4.576l-2.9,0.107
		c-2.894,0.1-4.871-0.4-5.93-1.504c-0.688-0.702-1.031-1.783-1.031-3.244V23.192H84.471z"/>
	
		<path fill="none" stroke="#FFFFFF" stroke-width="5.6693" stroke-linecap="round" stroke-linejoin="round" stroke-miterlimit="10" d="
		M107.826,15.822h-6.209v-5.65h6.209V15.822z M101.616,18.615h6.209v23.42h-6.209V18.615z"/>
	
		<path fill="none" stroke="#FFFFFF" stroke-width="5.6693" stroke-linecap="round" stroke-linejoin="round" stroke-miterlimit="10" d="
		M127.764,27.016c-0.115-0.874-0.409-1.661-0.883-2.363c-0.689-0.945-1.76-1.418-3.209-1.418c-2.068,0-3.482,1.023-4.243,3.072
		c-0.402,1.086-0.603,2.528-0.603,4.329c0,1.715,0.2,3.094,0.603,4.136c0.732,1.948,2.11,2.923,4.136,2.923
		c1.436,0,2.455-0.387,3.059-1.16c0.603-0.773,0.969-1.776,1.098-3.009h6.252c-0.143,1.862-0.816,3.624-2.021,5.286
		c-1.922,2.679-4.768,4.018-8.537,4.018c-3.771,0-6.547-1.117-8.324-3.352s-2.667-5.132-2.667-8.692
		c0-4.017,0.981-7.143,2.946-9.378c1.965-2.234,4.674-3.352,8.131-3.352c2.938,0,5.344,0.659,7.215,1.977
		c1.871,1.318,2.979,3.646,3.322,6.983H127.764z"/>
	
		<path fill="none" stroke="#FFFFFF" stroke-width="5.6693" stroke-linecap="round" stroke-linejoin="round" stroke-miterlimit="10" d="
		M144.524,15.822h-6.21v-5.65h6.21V15.822z M138.314,18.615h6.21v23.42h-6.21V18.615z"/>
	
		<path fill="none" stroke="#FFFFFF" stroke-width="5.6693" stroke-linecap="round" stroke-linejoin="round" stroke-miterlimit="10" d="
		M170.149,21.128c1.91,2.021,2.865,4.985,2.865,8.896c0,4.125-0.934,7.27-2.801,9.433s-4.271,3.244-7.212,3.244
		c-1.874,0-3.431-0.466-4.671-1.396c-0.678-0.516-1.341-1.268-1.99-2.256v12.204h-6.059V18.615h5.865v3.46
		c0.664-1.018,1.37-1.819,2.119-2.407c1.37-1.045,2.999-1.568,4.888-1.568C165.907,18.099,168.239,19.109,170.149,21.128z
		 M165.45,25.534c-0.833-1.39-2.182-2.084-4.049-2.084c-2.243,0-3.784,1.053-4.623,3.158c-0.436,1.117-0.652,2.535-0.652,4.254
		c0,2.722,0.73,4.634,2.191,5.737c0.868,0.645,1.896,0.967,3.082,0.967c1.723,0,3.037-0.659,3.941-1.977
		c0.904-1.318,1.357-3.073,1.357-5.265C166.698,28.52,166.281,26.923,165.45,25.534z"/>
	
		<path fill="none" stroke="#FFFFFF" stroke-width="5.6693" stroke-linecap="round" stroke-linejoin="round" stroke-miterlimit="10" d="
		M186.608,27.79c1.141-0.144,1.955-0.322,2.446-0.537c0.88-0.372,1.32-0.952,1.32-1.74c0-0.96-0.337-1.622-1.013-1.987
		s-1.666-0.548-2.973-0.548c-1.467,0-2.505,0.357-3.115,1.074c-0.436,0.529-0.726,1.246-0.871,2.148h-5.908
		c0.129-2.049,0.705-3.731,1.727-5.05c1.625-2.062,4.416-3.094,8.373-3.094c2.574,0,4.861,0.509,6.861,1.525
		c2,1.018,3,2.937,3,5.759v10.743c0,0.744,0.014,1.646,0.043,2.707c0.043,0.802,0.164,1.347,0.365,1.633
		c0.2,0.286,0.501,0.522,0.902,0.709v0.902h-6.661c-0.187-0.473-0.315-0.917-0.387-1.332s-0.129-0.888-0.172-1.418
		c-0.85,0.917-1.829,1.697-2.938,2.342c-1.326,0.759-2.824,1.139-4.496,1.139c-2.133,0-3.894-0.605-5.283-1.815
		c-1.391-1.21-2.086-2.926-2.086-5.146c0-2.88,1.118-4.964,3.355-6.253c1.227-0.701,3.029-1.203,5.41-1.504L186.608,27.79z
		 M190.353,30.647c-0.392,0.244-0.788,0.44-1.188,0.591s-0.947,0.29-1.644,0.419l-1.395,0.258c-1.307,0.229-2.244,0.509-2.814,0.838
		c-0.965,0.559-1.447,1.426-1.447,2.601c0,1.045,0.295,1.801,0.885,2.267c0.588,0.465,1.305,0.698,2.148,0.698
		c1.338,0,2.57-0.387,3.697-1.16c1.128-0.773,1.713-2.185,1.757-4.233V30.647z"/>
	
		<path fill="none" stroke="#FFFFFF" stroke-width="5.6693" stroke-linecap="round" stroke-linejoin="round" stroke-miterlimit="10" d="
		M220.69,19.958c1.533,1.268,2.301,3.37,2.301,6.307v15.771h-6.273V27.79c0-1.231-0.164-2.177-0.491-2.836
		c-0.598-1.203-1.735-1.805-3.413-1.805c-2.062,0-3.477,0.881-4.244,2.643c-0.398,0.931-0.598,2.12-0.598,3.566v12.677h-6.123
		V18.658h5.93v3.417c0.785-1.204,1.527-2.07,2.226-2.601c1.255-0.945,2.846-1.418,4.771-1.418
		C217.185,18.056,219.157,18.69,220.69,19.958z"/>
	
		<path fill="none" stroke="#FFFFFF" stroke-width="5.6693" stroke-linecap="round" stroke-linejoin="round" stroke-miterlimit="10" d="
		M226.278,23.192V18.83h3.266v-6.531h6.059v6.531h3.804v4.362h-3.804v12.376c0,0.959,0.122,1.558,0.366,1.794
		c0.243,0.236,0.988,0.354,2.234,0.354c0.187,0,0.383-0.004,0.591-0.011c0.207-0.008,0.412-0.019,0.612-0.032v4.576l-2.9,0.107
		c-2.894,0.1-4.87-0.4-5.931-1.504c-0.688-0.702-1.031-1.783-1.031-3.244V23.192H226.278z"/>
	
		<path fill="none" stroke="#FFFFFF" stroke-width="5.6693" stroke-linecap="round" stroke-linejoin="round" stroke-miterlimit="10" d="
		M258.598,19.089c1.635,0.731,2.983,1.887,4.047,3.465c0.96,1.392,1.582,3.005,1.867,4.842c0.164,1.075,0.231,2.625,0.201,4.647
		h-17.057c0.095,2.35,0.911,3.997,2.449,4.942c0.935,0.587,2.061,0.881,3.375,0.881c1.396,0,2.529-0.358,3.4-1.074
		c0.477-0.387,0.896-0.924,1.261-1.612h6.252c-0.165,1.39-0.922,2.801-2.271,4.233c-2.098,2.277-5.035,3.416-8.811,3.416
		c-3.117,0-5.867-0.96-8.25-2.882c-2.382-1.921-3.573-5.046-3.573-9.376c0-4.057,1.075-7.168,3.227-9.332
		c2.15-2.165,4.942-3.248,8.374-3.248C255.129,17.992,256.965,18.358,258.598,19.089z M249.438,24.379
		c-0.865,0.892-1.409,2.101-1.631,3.625h10.549c-0.111-1.626-0.654-2.859-1.631-3.7c-0.977-0.842-2.188-1.263-3.632-1.263
		C251.522,23.042,250.303,23.487,249.438,24.379z"/>
	
		<path fill="none" stroke="#FFFFFF" stroke-width="5.6693" stroke-linecap="round" stroke-linejoin="round" stroke-miterlimit="10" d="
		M280.959,46.525l0.773,0.043c0.602,0.029,1.174,0.008,1.719-0.064c0.544-0.071,1.002-0.236,1.375-0.494
		c0.357-0.243,0.691-0.752,0.999-1.525s0.44-1.246,0.397-1.418l-8.605-24.451h6.812l5.114,17.275l4.834-17.275h6.51l-8.029,23.033
		c-1.551,4.44-2.778,7.194-3.682,8.262c-0.904,1.066-2.711,1.601-5.421,1.601c-0.545,0-0.982-0.004-1.312-0.011
		c-0.33-0.008-0.825-0.032-1.484-0.075V46.525z"/>
	
		<path fill="none" stroke="#FFFFFF" stroke-width="5.6693" stroke-linecap="round" stroke-linejoin="round" stroke-miterlimit="10" d="
		M313.784,27.79c1.141-0.144,1.955-0.322,2.445-0.537c0.881-0.372,1.32-0.952,1.32-1.74c0-0.96-0.337-1.622-1.012-1.987
		c-0.676-0.365-1.666-0.548-2.973-0.548c-1.467,0-2.506,0.357-3.115,1.074c-0.436,0.529-0.727,1.246-0.871,2.148h-5.908
		c0.129-2.049,0.704-3.731,1.727-5.05c1.625-2.062,4.416-3.094,8.372-3.094c2.575,0,4.862,0.509,6.862,1.525
		c2,1.018,3,2.937,3,5.759v10.743c0,0.744,0.014,1.646,0.043,2.707c0.043,0.802,0.164,1.347,0.365,1.633
		c0.199,0.286,0.5,0.522,0.902,0.709v0.902h-6.662c-0.186-0.473-0.314-0.917-0.387-1.332c-0.071-0.415-0.129-0.888-0.172-1.418
		c-0.85,0.917-1.829,1.697-2.938,2.342c-1.325,0.759-2.824,1.139-4.495,1.139c-2.133,0-3.895-0.605-5.284-1.815
		c-1.391-1.21-2.085-2.926-2.085-5.146c0-2.88,1.117-4.964,3.354-6.253c1.227-0.701,3.03-1.203,5.411-1.504L313.784,27.79z
		 M317.528,30.647c-0.392,0.244-0.787,0.44-1.188,0.591c-0.398,0.15-0.947,0.29-1.644,0.419l-1.394,0.258
		c-1.307,0.229-2.245,0.509-2.814,0.838c-0.965,0.559-1.447,1.426-1.447,2.601c0,1.045,0.295,1.801,0.884,2.267
		c0.589,0.465,1.306,0.698,2.149,0.698c1.338,0,2.57-0.387,3.697-1.16s1.713-2.185,1.756-4.233V30.647z"/>
	
		<path fill="none" stroke="#FFFFFF" stroke-width="5.6693" stroke-linecap="round" stroke-linejoin="round" stroke-miterlimit="10" d="
		M354.215,18.067c0.079,0.008,0.254,0.019,0.526,0.032v6.274c-0.387-0.043-0.73-0.072-1.031-0.086
		c-0.301-0.015-0.544-0.021-0.73-0.021c-2.464,0-4.118,0.802-4.963,2.406c-0.473,0.902-0.709,2.292-0.709,4.168v11.194h-6.167
		v-23.42h5.845v4.083c0.945-1.562,1.769-2.629,2.471-3.202c1.146-0.959,2.635-1.439,4.469-1.439
		C354.04,18.056,354.136,18.06,354.215,18.067z"/>
	
		<path fill="none" stroke="#FFFFFF" stroke-width="5.6693" stroke-linecap="round" stroke-linejoin="round" stroke-miterlimit="10" d="
		M373.591,19.089c1.633,0.731,2.982,1.887,4.047,3.465c0.959,1.392,1.581,3.005,1.865,4.842c0.165,1.075,0.232,2.625,0.202,4.647
		h-17.057c0.095,2.35,0.911,3.997,2.448,4.942c0.936,0.587,2.061,0.881,3.377,0.881c1.395,0,2.528-0.358,3.399-1.074
		c0.476-0.387,0.896-0.924,1.261-1.612h6.252c-0.165,1.39-0.922,2.801-2.271,4.233c-2.098,2.277-5.034,3.416-8.811,3.416
		c-3.117,0-5.867-0.96-8.249-2.882c-2.383-1.921-3.574-5.046-3.574-9.376c0-4.057,1.075-7.168,3.227-9.332
		c2.15-2.165,4.942-3.248,8.375-3.248C370.122,17.992,371.958,18.358,373.591,19.089z M364.43,24.379
		c-0.865,0.892-1.409,2.101-1.631,3.625h10.549c-0.111-1.626-0.654-2.859-1.631-3.7c-0.977-0.842-2.187-1.263-3.632-1.263
		C366.513,23.042,365.295,23.487,364.43,24.379z"/>
	
		<path fill="none" stroke="#FFFFFF" stroke-width="5.6693" stroke-linecap="round" stroke-linejoin="round" stroke-miterlimit="10" d="
		M394.388,18.593c1.487,0.616,2.689,1.748,3.604,3.396v-3.374h5.974v22.217c0,3.022-0.509,5.3-1.525,6.832
		c-1.748,2.636-5.1,3.954-10.056,3.954c-2.994,0-5.436-0.588-7.327-1.762c-1.891-1.175-2.937-2.93-3.137-5.265h6.661
		c0.172,0.716,0.451,1.232,0.838,1.547c0.658,0.559,1.769,0.838,3.33,0.838c2.206,0,3.681-0.737,4.426-2.213
		c0.487-0.945,0.73-2.535,0.73-4.77V38.49c-0.587,1.003-1.218,1.755-1.891,2.256c-1.218,0.932-2.801,1.396-4.748,1.396
		c-3.008,0-5.411-1.057-7.209-3.169c-1.798-2.113-2.696-4.975-2.696-8.584c0-3.48,0.865-6.406,2.597-8.777
		c1.73-2.37,4.185-3.556,7.36-3.556C392.493,18.056,393.515,18.236,394.388,18.593z M396.473,35.385
		c0.984-1.082,1.477-2.805,1.477-5.168c0-2.22-0.467-3.91-1.401-5.07s-2.186-1.74-3.755-1.74c-2.14,0-3.616,1.01-4.429,3.029
		c-0.428,1.074-0.642,2.399-0.642,3.975c0,1.361,0.228,2.571,0.685,3.631c0.827,1.978,2.311,2.966,4.45,2.966
		C394.284,37.007,395.489,36.466,396.473,35.385z"/>
	
		<path fill="none" stroke="#FFFFFF" stroke-width="5.6693" stroke-linecap="round" stroke-linejoin="round" stroke-miterlimit="10" d="
		M415.977,15.822h-6.21v-5.65h6.21V15.822z M409.767,18.615h6.21v23.42h-6.21V18.615z"/>
	
		<path fill="none" stroke="#FFFFFF" stroke-width="5.6693" stroke-linecap="round" stroke-linejoin="round" stroke-miterlimit="10" d="
		M426.656,34.557c0.129,1.089,0.41,1.862,0.842,2.321c0.763,0.816,2.173,1.225,4.231,1.225c1.209,0,2.17-0.18,2.882-0.537
		c0.712-0.358,1.068-0.896,1.068-1.611c0-0.688-0.287-1.211-0.86-1.569c-0.574-0.357-2.71-0.974-6.406-1.848
		c-2.661-0.658-4.536-1.482-5.625-2.471c-1.089-0.974-1.633-2.378-1.633-4.211c0-2.163,0.851-4.021,2.552-5.576
		c1.701-1.554,4.095-2.331,7.181-2.331c2.929,0,5.314,0.584,7.159,1.751c1.845,1.168,2.903,3.184,3.177,6.049h-6.124
		c-0.086-0.788-0.309-1.411-0.668-1.869c-0.675-0.831-1.824-1.246-3.447-1.246c-1.336,0-2.287,0.207-2.854,0.623
		c-0.567,0.415-0.851,0.902-0.851,1.461c0,0.702,0.301,1.21,0.904,1.525c0.604,0.329,2.734,0.896,6.394,1.697
		c2.439,0.573,4.269,1.439,5.486,2.6c1.203,1.175,1.805,2.643,1.805,4.404c0,2.321-0.865,4.216-2.595,5.684s-4.402,2.202-8.02,2.202
		c-3.688,0-6.412-0.777-8.17-2.331c-1.759-1.554-2.638-3.534-2.638-5.941H426.656z"/>
	
		<path fill="none" stroke="#FFFFFF" stroke-width="5.6693" stroke-linecap="round" stroke-linejoin="round" stroke-miterlimit="10" d="
		M443.973,23.192V18.83h3.266v-6.531h6.06v6.531h3.803v4.362h-3.803v12.376c0,0.959,0.121,1.558,0.365,1.794
		c0.243,0.236,0.988,0.354,2.234,0.354c0.186,0,0.383-0.004,0.591-0.011c0.207-0.008,0.411-0.019,0.612-0.032v4.576l-2.9,0.107
		c-2.894,0.1-4.87-0.4-5.931-1.504c-0.688-0.702-1.031-1.783-1.031-3.244V23.192H443.973z"/>
	
		<path fill="none" stroke="#FFFFFF" stroke-width="5.6693" stroke-linecap="round" stroke-linejoin="round" stroke-miterlimit="10" d="
		M474.042,18.067c0.079,0.008,0.254,0.019,0.526,0.032v6.274c-0.387-0.043-0.73-0.072-1.031-0.086
		c-0.301-0.015-0.544-0.021-0.73-0.021c-2.464,0-4.118,0.802-4.963,2.406c-0.473,0.902-0.709,2.292-0.709,4.168v11.194h-6.167
		v-23.42h5.845v4.083c0.945-1.562,1.769-2.629,2.471-3.202c1.146-0.959,2.635-1.439,4.469-1.439
		C473.867,18.056,473.963,18.06,474.042,18.067z"/>
	
		<path fill="none" stroke="#FFFFFF" stroke-width="5.6693" stroke-linecap="round" stroke-linejoin="round" stroke-miterlimit="10" d="
		M487.433,27.79c1.14-0.144,1.955-0.322,2.445-0.537c0.88-0.372,1.32-0.952,1.32-1.74c0-0.96-0.338-1.622-1.013-1.987
		s-1.666-0.548-2.973-0.548c-1.467,0-2.505,0.357-3.114,1.074c-0.437,0.529-0.727,1.246-0.871,2.148h-5.909
		c0.13-2.049,0.705-3.731,1.727-5.05c1.625-2.062,4.416-3.094,8.373-3.094c2.574,0,4.861,0.509,6.861,1.525c2,1.018,3,2.937,3,5.759
		v10.743c0,0.744,0.014,1.646,0.043,2.707c0.043,0.802,0.164,1.347,0.365,1.633c0.2,0.286,0.501,0.522,0.902,0.709v0.902h-6.661
		c-0.187-0.473-0.315-0.917-0.387-1.332s-0.129-0.888-0.172-1.418c-0.85,0.917-1.83,1.697-2.939,2.342
		c-1.325,0.759-2.823,1.139-4.495,1.139c-2.132,0-3.894-0.605-5.283-1.815c-1.391-1.21-2.086-2.926-2.086-5.146
		c0-2.88,1.118-4.964,3.354-6.253c1.228-0.701,3.031-1.203,5.412-1.504L487.433,27.79z M491.177,30.647
		c-0.393,0.244-0.788,0.44-1.188,0.591s-0.947,0.29-1.645,0.419l-1.394,0.258c-1.307,0.229-2.245,0.509-2.814,0.838
		c-0.965,0.559-1.446,1.426-1.446,2.601c0,1.045,0.294,1.801,0.883,2.267c0.589,0.465,1.306,0.698,2.149,0.698
		c1.338,0,2.57-0.387,3.698-1.16c1.127-0.773,1.712-2.185,1.756-4.233V30.647z"/>
	
		<path fill="none" stroke="#FFFFFF" stroke-width="5.6693" stroke-linecap="round" stroke-linejoin="round" stroke-miterlimit="10" d="
		M515.048,18.991c1.103,0.623,1.998,1.486,2.686,2.589V10.408h6.21v31.627h-5.952v-3.244c-0.873,1.39-1.869,2.399-2.986,3.029
		s-2.507,0.945-4.168,0.945c-2.736,0-5.039-1.106-6.908-3.319s-2.804-5.053-2.804-8.52c0-3.996,0.92-7.141,2.761-9.433
		c1.841-2.291,4.301-3.438,7.381-3.438C512.685,18.056,513.945,18.368,515.048,18.991z M516.552,35.675
		c0.902-1.29,1.354-2.958,1.354-5.007c0-2.864-0.723-4.913-2.17-6.145c-0.888-0.745-1.92-1.117-3.094-1.117
		c-1.791,0-3.104,0.677-3.942,2.03s-1.257,3.033-1.257,5.038c0,2.163,0.426,3.893,1.278,5.189c0.852,1.296,2.145,1.944,3.878,1.944
		S515.65,36.964,516.552,35.675z"/>
	
		<path fill="none" stroke="#FFFFFF" stroke-width="5.6693" stroke-linecap="round" stroke-linejoin="round" stroke-miterlimit="10" d="
		M549.04,39.169c-1.977,2.44-4.978,3.66-9.003,3.66s-7.026-1.22-9.003-3.66c-1.977-2.439-2.965-5.377-2.965-8.812
		c0-3.377,0.988-6.304,2.965-8.78c1.977-2.476,4.978-3.714,9.003-3.714s7.026,1.238,9.003,3.714c1.977,2.477,2.965,5.403,2.965,8.78
		C552.004,33.792,551.016,36.73,549.04,39.169z M544.14,35.786c0.96-1.273,1.439-3.083,1.439-5.429s-0.479-4.151-1.439-5.417
		s-2.335-1.898-4.125-1.898c-1.791,0-3.169,0.633-4.136,1.898s-1.45,3.071-1.45,5.417s0.483,4.155,1.45,5.429
		c0.967,1.272,2.345,1.909,4.136,1.909C541.805,37.695,543.18,37.058,544.14,35.786z"/>
</g>
<g enable-background="new    ">
	<path d="M37.686,28.327c-1.854,1.547-4.501,2.32-7.942,2.32H23.15v11.388h-6.575v-31.67h13.598c3.135,0,5.634,0.816,7.498,2.449
		s2.796,4.161,2.796,7.584C40.467,24.137,39.54,26.78,37.686,28.327z M32.635,16.917c-0.838-0.701-2.012-1.053-3.522-1.053H23.15
		v9.325h5.963c1.51,0,2.684-0.38,3.522-1.139c0.838-0.76,1.257-1.963,1.257-3.61C33.893,18.794,33.473,17.62,32.635,16.917z"/>
	<path d="M54.556,27.79c1.14-0.144,1.955-0.322,2.446-0.537c0.88-0.372,1.32-0.952,1.32-1.74c0-0.96-0.337-1.622-1.013-1.987
		s-1.666-0.548-2.973-0.548c-1.466,0-2.505,0.357-3.115,1.074c-0.436,0.529-0.726,1.246-0.871,2.148h-5.909
		c0.129-2.049,0.705-3.731,1.727-5.05c1.625-2.062,4.416-3.094,8.373-3.094c2.575,0,4.862,0.509,6.862,1.525
		c2,1.018,2.999,2.937,2.999,5.759v10.743c0,0.744,0.014,1.646,0.043,2.707c0.043,0.802,0.165,1.347,0.365,1.633
		s0.501,0.522,0.902,0.709v0.902h-6.661c-0.186-0.473-0.315-0.917-0.387-1.332s-0.129-0.888-0.172-1.418
		c-0.85,0.917-1.83,1.697-2.939,2.342c-1.326,0.759-2.824,1.139-4.495,1.139c-2.133,0-3.894-0.605-5.284-1.815
		c-1.391-1.21-2.085-2.926-2.085-5.146c0-2.88,1.118-4.964,3.355-6.253c1.227-0.701,3.03-1.203,5.411-1.504L54.556,27.79z
		 M58.3,30.647c-0.392,0.244-0.788,0.44-1.188,0.591s-0.947,0.29-1.644,0.419l-1.394,0.258c-1.307,0.229-2.245,0.509-2.814,0.838
		c-0.965,0.559-1.447,1.426-1.447,2.601c0,1.045,0.294,1.801,0.884,2.267c0.589,0.465,1.305,0.698,2.149,0.698
		c1.338,0,2.57-0.387,3.698-1.16s1.712-2.185,1.756-4.233V30.647z"/>
	<path d="M82.762,18.067c0.079,0.008,0.254,0.019,0.526,0.032v6.274c-0.387-0.043-0.73-0.072-1.031-0.086
		c-0.301-0.015-0.544-0.021-0.73-0.021c-2.464,0-4.118,0.802-4.963,2.406c-0.473,0.902-0.709,2.292-0.709,4.168v11.194h-6.167
		v-23.42h5.844v4.083c0.945-1.562,1.769-2.629,2.471-3.202c1.146-0.959,2.635-1.439,4.469-1.439
		C82.587,18.056,82.684,18.06,82.762,18.067z"/>
	<path d="M84.471,23.192V18.83h3.266v-6.531h6.059v6.531h3.803v4.362h-3.803v12.376c0,0.959,0.122,1.558,0.366,1.794
		c0.243,0.236,0.988,0.354,2.234,0.354c0.186,0,0.383-0.004,0.591-0.011c0.208-0.008,0.412-0.019,0.612-0.032v4.576l-2.9,0.107
		c-2.894,0.1-4.871-0.4-5.93-1.504c-0.688-0.702-1.031-1.783-1.031-3.244V23.192H84.471z"/>
	<path d="M107.826,15.822h-6.209v-5.65h6.209V15.822z M101.616,18.615h6.209v23.42h-6.209V18.615z"/>
	<path d="M127.764,27.016c-0.115-0.874-0.409-1.661-0.883-2.363c-0.689-0.945-1.76-1.418-3.209-1.418
		c-2.068,0-3.482,1.023-4.243,3.072c-0.402,1.086-0.603,2.528-0.603,4.329c0,1.715,0.2,3.094,0.603,4.136
		c0.732,1.948,2.11,2.923,4.136,2.923c1.436,0,2.455-0.387,3.059-1.16c0.603-0.773,0.969-1.776,1.098-3.009h6.252
		c-0.143,1.862-0.816,3.624-2.021,5.286c-1.922,2.679-4.768,4.018-8.537,4.018c-3.771,0-6.547-1.117-8.324-3.352
		s-2.667-5.132-2.667-8.692c0-4.017,0.981-7.143,2.946-9.378c1.965-2.234,4.674-3.352,8.131-3.352c2.938,0,5.344,0.659,7.215,1.977
		c1.871,1.318,2.979,3.646,3.322,6.983H127.764z"/>
	<path d="M144.524,15.822h-6.21v-5.65h6.21V15.822z M138.314,18.615h6.21v23.42h-6.21V18.615z"/>
	<path d="M170.149,21.128c1.91,2.021,2.865,4.985,2.865,8.896c0,4.125-0.934,7.27-2.801,9.433s-4.271,3.244-7.212,3.244
		c-1.874,0-3.431-0.466-4.671-1.396c-0.678-0.516-1.341-1.268-1.99-2.256v12.204h-6.059V18.615h5.865v3.46
		c0.664-1.018,1.37-1.819,2.119-2.407c1.37-1.045,2.999-1.568,4.888-1.568C165.907,18.099,168.239,19.109,170.149,21.128z
		 M165.45,25.534c-0.833-1.39-2.182-2.084-4.049-2.084c-2.243,0-3.784,1.053-4.623,3.158c-0.436,1.117-0.652,2.535-0.652,4.254
		c0,2.722,0.73,4.634,2.191,5.737c0.868,0.645,1.896,0.967,3.082,0.967c1.723,0,3.037-0.659,3.941-1.977
		c0.904-1.318,1.357-3.073,1.357-5.265C166.698,28.52,166.281,26.923,165.45,25.534z"/>
	<path d="M186.608,27.79c1.141-0.144,1.955-0.322,2.446-0.537c0.88-0.372,1.32-0.952,1.32-1.74c0-0.96-0.337-1.622-1.013-1.987
		s-1.666-0.548-2.973-0.548c-1.467,0-2.505,0.357-3.115,1.074c-0.436,0.529-0.726,1.246-0.871,2.148h-5.908
		c0.129-2.049,0.705-3.731,1.727-5.05c1.625-2.062,4.416-3.094,8.373-3.094c2.574,0,4.861,0.509,6.861,1.525
		c2,1.018,3,2.937,3,5.759v10.743c0,0.744,0.014,1.646,0.043,2.707c0.043,0.802,0.164,1.347,0.365,1.633
		c0.2,0.286,0.501,0.522,0.902,0.709v0.902h-6.661c-0.187-0.473-0.315-0.917-0.387-1.332s-0.129-0.888-0.172-1.418
		c-0.85,0.917-1.829,1.697-2.938,2.342c-1.326,0.759-2.824,1.139-4.496,1.139c-2.133,0-3.894-0.605-5.283-1.815
		c-1.391-1.21-2.086-2.926-2.086-5.146c0-2.88,1.118-4.964,3.355-6.253c1.227-0.701,3.029-1.203,5.41-1.504L186.608,27.79z
		 M190.353,30.647c-0.392,0.244-0.788,0.44-1.188,0.591s-0.947,0.29-1.644,0.419l-1.395,0.258c-1.307,0.229-2.244,0.509-2.814,0.838
		c-0.965,0.559-1.447,1.426-1.447,2.601c0,1.045,0.295,1.801,0.885,2.267c0.588,0.465,1.305,0.698,2.148,0.698
		c1.338,0,2.57-0.387,3.697-1.16c1.128-0.773,1.713-2.185,1.757-4.233V30.647z"/>
	<path d="M220.69,19.958c1.533,1.268,2.301,3.37,2.301,6.307v15.771h-6.273V27.79c0-1.231-0.164-2.177-0.491-2.836
		c-0.598-1.203-1.735-1.805-3.413-1.805c-2.062,0-3.477,0.881-4.244,2.643c-0.398,0.931-0.598,2.12-0.598,3.566v12.677h-6.123
		V18.658h5.93v3.417c0.785-1.204,1.527-2.07,2.226-2.601c1.255-0.945,2.846-1.418,4.771-1.418
		C217.185,18.056,219.157,18.69,220.69,19.958z"/>
	<path d="M226.278,23.192V18.83h3.266v-6.531h6.059v6.531h3.804v4.362h-3.804v12.376c0,0.959,0.122,1.558,0.366,1.794
		c0.243,0.236,0.988,0.354,2.234,0.354c0.187,0,0.383-0.004,0.591-0.011c0.207-0.008,0.412-0.019,0.612-0.032v4.576l-2.9,0.107
		c-2.894,0.1-4.87-0.4-5.931-1.504c-0.688-0.702-1.031-1.783-1.031-3.244V23.192H226.278z"/>
	<path d="M258.598,19.089c1.635,0.731,2.983,1.887,4.047,3.465c0.96,1.392,1.582,3.005,1.867,4.842
		c0.164,1.075,0.231,2.625,0.201,4.647h-17.057c0.095,2.35,0.911,3.997,2.449,4.942c0.935,0.587,2.061,0.881,3.375,0.881
		c1.396,0,2.529-0.358,3.4-1.074c0.477-0.387,0.896-0.924,1.261-1.612h6.252c-0.165,1.39-0.922,2.801-2.271,4.233
		c-2.098,2.277-5.035,3.416-8.811,3.416c-3.117,0-5.867-0.96-8.25-2.882c-2.382-1.921-3.573-5.046-3.573-9.376
		c0-4.057,1.075-7.168,3.227-9.332c2.15-2.165,4.942-3.248,8.374-3.248C255.129,17.992,256.965,18.358,258.598,19.089z
		 M249.438,24.379c-0.865,0.892-1.409,2.101-1.631,3.625h10.549c-0.111-1.626-0.654-2.859-1.631-3.7
		c-0.977-0.842-2.188-1.263-3.632-1.263C251.522,23.042,250.303,23.487,249.438,24.379z"/>
	<path d="M280.959,46.525l0.773,0.043c0.602,0.029,1.174,0.008,1.719-0.064c0.544-0.071,1.002-0.236,1.375-0.494
		c0.357-0.243,0.691-0.752,0.999-1.525s0.44-1.246,0.397-1.418l-8.605-24.451h6.812l5.114,17.275l4.834-17.275h6.51l-8.029,23.033
		c-1.551,4.44-2.778,7.194-3.682,8.262c-0.904,1.066-2.711,1.601-5.421,1.601c-0.545,0-0.982-0.004-1.312-0.011
		c-0.33-0.008-0.825-0.032-1.484-0.075V46.525z"/>
	<path d="M313.784,27.79c1.141-0.144,1.955-0.322,2.445-0.537c0.881-0.372,1.32-0.952,1.32-1.74c0-0.96-0.337-1.622-1.012-1.987
		c-0.676-0.365-1.666-0.548-2.973-0.548c-1.467,0-2.506,0.357-3.115,1.074c-0.436,0.529-0.727,1.246-0.871,2.148h-5.908
		c0.129-2.049,0.704-3.731,1.727-5.05c1.625-2.062,4.416-3.094,8.372-3.094c2.575,0,4.862,0.509,6.862,1.525
		c2,1.018,3,2.937,3,5.759v10.743c0,0.744,0.014,1.646,0.043,2.707c0.043,0.802,0.164,1.347,0.365,1.633
		c0.199,0.286,0.5,0.522,0.902,0.709v0.902h-6.662c-0.186-0.473-0.314-0.917-0.387-1.332c-0.071-0.415-0.129-0.888-0.172-1.418
		c-0.85,0.917-1.829,1.697-2.938,2.342c-1.325,0.759-2.824,1.139-4.495,1.139c-2.133,0-3.895-0.605-5.284-1.815
		c-1.391-1.21-2.085-2.926-2.085-5.146c0-2.88,1.117-4.964,3.354-6.253c1.227-0.701,3.03-1.203,5.411-1.504L313.784,27.79z
		 M317.528,30.647c-0.392,0.244-0.787,0.44-1.188,0.591c-0.398,0.15-0.947,0.29-1.644,0.419l-1.394,0.258
		c-1.307,0.229-2.245,0.509-2.814,0.838c-0.965,0.559-1.447,1.426-1.447,2.601c0,1.045,0.295,1.801,0.884,2.267
		c0.589,0.465,1.306,0.698,2.149,0.698c1.338,0,2.57-0.387,3.697-1.16s1.713-2.185,1.756-4.233V30.647z"/>
	<path d="M354.215,18.067c0.079,0.008,0.254,0.019,0.526,0.032v6.274c-0.387-0.043-0.73-0.072-1.031-0.086
		c-0.301-0.015-0.544-0.021-0.73-0.021c-2.464,0-4.118,0.802-4.963,2.406c-0.473,0.902-0.709,2.292-0.709,4.168v11.194h-6.167
		v-23.42h5.845v4.083c0.945-1.562,1.769-2.629,2.471-3.202c1.146-0.959,2.635-1.439,4.469-1.439
		C354.04,18.056,354.136,18.06,354.215,18.067z"/>
	<path d="M373.591,19.089c1.633,0.731,2.982,1.887,4.047,3.465c0.959,1.392,1.581,3.005,1.865,4.842
		c0.165,1.075,0.232,2.625,0.202,4.647h-17.057c0.095,2.35,0.911,3.997,2.448,4.942c0.936,0.587,2.061,0.881,3.377,0.881
		c1.395,0,2.528-0.358,3.399-1.074c0.476-0.387,0.896-0.924,1.261-1.612h6.252c-0.165,1.39-0.922,2.801-2.271,4.233
		c-2.098,2.277-5.034,3.416-8.811,3.416c-3.117,0-5.867-0.96-8.249-2.882c-2.383-1.921-3.574-5.046-3.574-9.376
		c0-4.057,1.075-7.168,3.227-9.332c2.15-2.165,4.942-3.248,8.375-3.248C370.122,17.992,371.958,18.358,373.591,19.089z
		 M364.43,24.379c-0.865,0.892-1.409,2.101-1.631,3.625h10.549c-0.111-1.626-0.654-2.859-1.631-3.7
		c-0.977-0.842-2.187-1.263-3.632-1.263C366.513,23.042,365.295,23.487,364.43,24.379z"/>
	<path d="M394.388,18.593c1.487,0.616,2.689,1.748,3.604,3.396v-3.374h5.974v22.217c0,3.022-0.509,5.3-1.525,6.832
		c-1.748,2.636-5.1,3.954-10.056,3.954c-2.994,0-5.436-0.588-7.327-1.762c-1.891-1.175-2.937-2.93-3.137-5.265h6.661
		c0.172,0.716,0.451,1.232,0.838,1.547c0.658,0.559,1.769,0.838,3.33,0.838c2.206,0,3.681-0.737,4.426-2.213
		c0.487-0.945,0.73-2.535,0.73-4.77V38.49c-0.587,1.003-1.218,1.755-1.891,2.256c-1.218,0.932-2.801,1.396-4.748,1.396
		c-3.008,0-5.411-1.057-7.209-3.169c-1.798-2.113-2.696-4.975-2.696-8.584c0-3.48,0.865-6.406,2.597-8.777
		c1.73-2.37,4.185-3.556,7.36-3.556C392.493,18.056,393.515,18.236,394.388,18.593z M396.473,35.385
		c0.984-1.082,1.477-2.805,1.477-5.168c0-2.22-0.467-3.91-1.401-5.07s-2.186-1.74-3.755-1.74c-2.14,0-3.616,1.01-4.429,3.029
		c-0.428,1.074-0.642,2.399-0.642,3.975c0,1.361,0.228,2.571,0.685,3.631c0.827,1.978,2.311,2.966,4.45,2.966
		C394.284,37.007,395.489,36.466,396.473,35.385z"/>
	<path d="M415.977,15.822h-6.21v-5.65h6.21V15.822z M409.767,18.615h6.21v23.42h-6.21V18.615z"/>
	<path d="M426.656,34.557c0.129,1.089,0.41,1.862,0.842,2.321c0.763,0.816,2.173,1.225,4.231,1.225c1.209,0,2.17-0.18,2.882-0.537
		c0.712-0.358,1.068-0.896,1.068-1.611c0-0.688-0.287-1.211-0.86-1.569c-0.574-0.357-2.71-0.974-6.406-1.848
		c-2.661-0.658-4.536-1.482-5.625-2.471c-1.089-0.974-1.633-2.378-1.633-4.211c0-2.163,0.851-4.021,2.552-5.576
		c1.701-1.554,4.095-2.331,7.181-2.331c2.929,0,5.314,0.584,7.159,1.751c1.845,1.168,2.903,3.184,3.177,6.049h-6.124
		c-0.086-0.788-0.309-1.411-0.668-1.869c-0.675-0.831-1.824-1.246-3.447-1.246c-1.336,0-2.287,0.207-2.854,0.623
		c-0.567,0.415-0.851,0.902-0.851,1.461c0,0.702,0.301,1.21,0.904,1.525c0.604,0.329,2.734,0.896,6.394,1.697
		c2.439,0.573,4.269,1.439,5.486,2.6c1.203,1.175,1.805,2.643,1.805,4.404c0,2.321-0.865,4.216-2.595,5.684s-4.402,2.202-8.02,2.202
		c-3.688,0-6.412-0.777-8.17-2.331c-1.759-1.554-2.638-3.534-2.638-5.941H426.656z"/>
	<path d="M443.973,23.192V18.83h3.266v-6.531h6.06v6.531h3.803v4.362h-3.803v12.376c0,0.959,0.121,1.558,0.365,1.794
		c0.243,0.236,0.988,0.354,2.234,0.354c0.186,0,0.383-0.004,0.591-0.011c0.207-0.008,0.411-0.019,0.612-0.032v4.576l-2.9,0.107
		c-2.894,0.1-4.87-0.4-5.931-1.504c-0.688-0.702-1.031-1.783-1.031-3.244V23.192H443.973z"/>
	<path d="M474.042,18.067c0.079,0.008,0.254,0.019,0.526,0.032v6.274c-0.387-0.043-0.73-0.072-1.031-0.086
		c-0.301-0.015-0.544-0.021-0.73-0.021c-2.464,0-4.118,0.802-4.963,2.406c-0.473,0.902-0.709,2.292-0.709,4.168v11.194h-6.167
		v-23.42h5.845v4.083c0.945-1.562,1.769-2.629,2.471-3.202c1.146-0.959,2.635-1.439,4.469-1.439
		C473.867,18.056,473.963,18.06,474.042,18.067z"/>
	<path d="M487.433,27.79c1.14-0.144,1.955-0.322,2.445-0.537c0.88-0.372,1.32-0.952,1.32-1.74c0-0.96-0.338-1.622-1.013-1.987
		s-1.666-0.548-2.973-0.548c-1.467,0-2.505,0.357-3.114,1.074c-0.437,0.529-0.727,1.246-0.871,2.148h-5.909
		c0.13-2.049,0.705-3.731,1.727-5.05c1.625-2.062,4.416-3.094,8.373-3.094c2.574,0,4.861,0.509,6.861,1.525c2,1.018,3,2.937,3,5.759
		v10.743c0,0.744,0.014,1.646,0.043,2.707c0.043,0.802,0.164,1.347,0.365,1.633c0.2,0.286,0.501,0.522,0.902,0.709v0.902h-6.661
		c-0.187-0.473-0.315-0.917-0.387-1.332s-0.129-0.888-0.172-1.418c-0.85,0.917-1.83,1.697-2.939,2.342
		c-1.325,0.759-2.823,1.139-4.495,1.139c-2.132,0-3.894-0.605-5.283-1.815c-1.391-1.21-2.086-2.926-2.086-5.146
		c0-2.88,1.118-4.964,3.354-6.253c1.228-0.701,3.031-1.203,5.412-1.504L487.433,27.79z M491.177,30.647
		c-0.393,0.244-0.788,0.44-1.188,0.591s-0.947,0.29-1.645,0.419l-1.394,0.258c-1.307,0.229-2.245,0.509-2.814,0.838
		c-0.965,0.559-1.446,1.426-1.446,2.601c0,1.045,0.294,1.801,0.883,2.267c0.589,0.465,1.306,0.698,2.149,0.698
		c1.338,0,2.57-0.387,3.698-1.16c1.127-0.773,1.712-2.185,1.756-4.233V30.647z"/>
	<path d="M515.048,18.991c1.103,0.623,1.998,1.486,2.686,2.589V10.408h6.21v31.627h-5.952v-3.244
		c-0.873,1.39-1.869,2.399-2.986,3.029s-2.507,0.945-4.168,0.945c-2.736,0-5.039-1.106-6.908-3.319s-2.804-5.053-2.804-8.52
		c0-3.996,0.92-7.141,2.761-9.433c1.841-2.291,4.301-3.438,7.381-3.438C512.685,18.056,513.945,18.368,515.048,18.991z
		 M516.552,35.675c0.902-1.29,1.354-2.958,1.354-5.007c0-2.864-0.723-4.913-2.17-6.145c-0.888-0.745-1.92-1.117-3.094-1.117
		c-1.791,0-3.104,0.677-3.942,2.03s-1.257,3.033-1.257,5.038c0,2.163,0.426,3.893,1.278,5.189c0.852,1.296,2.145,1.944,3.878,1.944
		S515.65,36.964,516.552,35.675z"/>
	<path d="M549.04,39.169c-1.977,2.44-4.978,3.66-9.003,3.66s-7.026-1.22-9.003-3.66c-1.977-2.439-2.965-5.377-2.965-8.812
		c0-3.377,0.988-6.304,2.965-8.78c1.977-2.476,4.978-3.714,9.003-3.714s7.026,1.238,9.003,3.714c1.977,2.477,2.965,5.403,2.965,8.78
		C552.004,33.792,551.016,36.73,549.04,39.169z M544.14,35.786c0.96-1.273,1.439-3.083,1.439-5.429s-0.479-4.151-1.439-5.417
		s-2.335-1.898-4.125-1.898c-1.791,0-3.169,0.633-4.136,1.898s-1.45,3.071-1.45,5.417s0.483,4.155,1.45,5.429
		c0.967,1.272,2.345,1.909,4.136,1.909C541.805,37.695,543.18,37.058,544.14,35.786z"/>
</g>
</svg>
