<?xml version="1.0" encoding="utf-8"?>
<!-- Generator: Adobe Illustrator 16.0.0, SVG Export Plug-In . SVG Version: 6.00 Build 0)  -->
<!DOCTYPE svg PUBLIC "-//W3C//DTD SVG 1.1//EN" "http://www.w3.org/Graphics/SVG/1.1/DTD/svg11.dtd">
<svg version="1.1" id="Layer_1" xmlns="http://www.w3.org/2000/svg" xmlns:xlink="http://www.w3.org/1999/xlink" x="0px" y="0px"
	 width="157.824px" height="46.27px" viewBox="0 0 157.824 46.27" enable-background="new 0 0 157.824 46.27" xml:space="preserve">
<rect fill="#FF8E06" width="157.824" height="46.27"/>
<g>
	<path fill="#FFFFFF" d="M59.134,14.551c-1.215,0-2.402,0.945-2.402,2.24c0,3.32,7.828,1.917,7.828,8.53
		c0,3.968-2.457,6.748-6.479,6.748c-2.727,0-4.725-1.565-6.074-3.833l2.484-2.429c0.512,1.512,1.889,2.861,3.562,2.861
		c1.566,0,2.537-1.323,2.537-2.834c0-2.051-1.889-2.618-3.428-3.212c-2.537-1.053-4.4-2.349-4.4-5.398
		c0-3.266,2.43-5.912,5.75-5.912c1.754,0,4.184,0.864,5.398,2.187l-1.809,2.672C61.374,15.172,60.429,14.551,59.134,14.551z"/>
	<path fill="#FFFFFF" d="M75.981,31.557v-1.188h-0.055c-0.783,1.025-2.16,1.619-3.482,1.619c-3.779,0-5.912-3.428-5.912-6.91
		c0-3.401,2.16-6.775,5.857-6.775c1.324,0,2.701,0.567,3.592,1.62v-1.215h3.59v12.849H75.981z M73.282,21.542
		c-1.891,0-3.023,1.862-3.023,3.59s1.133,3.59,3.023,3.59c1.889,0,3.049-1.862,3.049-3.59S75.171,21.542,73.282,21.542z"/>
	<path fill="#FFFFFF" d="M82.437,31.557V9.369h3.67v22.188H82.437z"/>
	<path fill="#FFFFFF" d="M90.833,15.496c-1.188,0-2.16-0.972-2.16-2.16c0-1.188,0.973-2.187,2.16-2.187
		c1.215,0,2.186,0.999,2.186,2.187C93.019,14.524,92.048,15.496,90.833,15.496z M89.024,31.557V18.708h3.643v12.849H89.024z"/>
	<path fill="#FFFFFF" d="M99.229,20.058c0.756-1.134,1.834-1.754,3.211-1.754c0.514,0,1.025,0.135,1.512,0.297l-0.459,3.401
		c-0.432-0.297-0.943-0.458-1.512-0.458c-2.537,0-2.779,2.24-2.779,4.238v5.776H95.53V18.708h3.672v1.35H99.229z"/>
</g>
</svg>
