<?xml version="1.0" encoding="utf-8"?>
<!-- Generator: Adobe Illustrator 16.0.0, SVG Export Plug-In . SVG Version: 6.00 Build 0)  -->
<!DOCTYPE svg PUBLIC "-//W3C//DTD SVG 1.1//EN" "http://www.w3.org/Graphics/SVG/1.1/DTD/svg11.dtd">
<svg version="1.1" id="Layer_1" xmlns="http://www.w3.org/2000/svg" xmlns:xlink="http://www.w3.org/1999/xlink" x="0px" y="0px"
	 width="97.265px" height="24.23px" viewBox="0 0 97.265 24.23" enable-background="new 0 0 97.265 24.23" xml:space="preserve">
<g>
	<path fill="#FFFFFF" d="M19.263,10.326l-3.328,9.34h-1.009l-3.228-9.34h-0.041l-1.311,9.138H7.462L9.943,4.335h2.037l3.631,9.723
		l3.49-9.723h2.058l2.219,15.129h-2.905l-1.17-9.138H19.263z"/>
	<path fill="#FFFFFF" d="M29.146,17.688c0.908,0,1.473-0.544,1.836-1.311l2.521,0.403c-0.666,1.917-2.34,3.006-4.357,3.006
		c-2.965,0-4.78-2.118-4.78-5.023c0-2.925,1.533-5.204,4.659-5.204c3.147,0,4.539,2.319,4.539,5.204v0.343h-6.314
		C27.249,16.317,27.733,17.688,29.146,17.688z M29.166,11.476c-1.09,0-1.694,0.928-1.836,1.937h3.651
		C30.86,12.424,30.235,11.476,29.166,11.476z"/>
	<path fill="#FFFFFF" d="M40.079,11.859c-1.554,0-2.421,1.453-2.421,2.865c0,1.493,0.948,2.743,2.521,2.743
		c0.727,0,1.412-0.363,1.917-0.908v2.623c-0.747,0.423-1.533,0.605-2.381,0.605c-2.824,0-4.841-2.34-4.841-5.083
		c0-2.864,2.098-5.144,4.982-5.144c0.767,0,1.573,0.181,2.239,0.605v2.643C41.491,12.222,40.906,11.859,40.079,11.859z"/>
	<path fill="#FFFFFF" d="M50.608,19.464v-0.888h-0.04c-0.585,0.767-1.614,1.21-2.603,1.21c-2.824,0-4.417-2.562-4.417-5.164
		c0-2.542,1.613-5.063,4.377-5.063c0.988,0,2.018,0.423,2.683,1.21V9.862h2.684v9.602H50.608z M48.592,11.98
		c-1.412,0-2.26,1.392-2.26,2.683s0.848,2.683,2.26,2.683s2.279-1.392,2.279-2.683S50.004,11.98,48.592,11.98z M48.793,8.47
		l-1.392-0.847l2.34-3.288l1.997,1.21L48.793,8.47z"/>
	<path fill="#FFFFFF" d="M58.213,10.75c0.585-0.867,1.533-1.19,2.501-1.19c2.582,0,3.329,1.815,3.329,4.034v5.87h-2.724V14.38
		c0-1.15,0.04-2.643-1.493-2.643c-1.634,0-1.634,1.815-1.634,2.986v4.74h-2.743V9.862h2.743v0.888H58.213z"/>
	<path fill="#FFFFFF" d="M67.531,7.461c-0.888,0-1.614-0.726-1.614-1.614s0.727-1.634,1.614-1.634c0.907,0,1.634,0.746,1.634,1.634
		S68.438,7.461,67.531,7.461z M66.18,19.464V9.862h2.724v9.602H66.18z"/>
	<path fill="#FFFFFF" d="M75.741,11.859c-1.554,0-2.421,1.453-2.421,2.865c0,1.493,0.948,2.743,2.521,2.743
		c0.727,0,1.412-0.363,1.917-0.908v2.623c-0.747,0.423-1.533,0.605-2.381,0.605c-2.824,0-4.841-2.34-4.841-5.083
		c0-2.864,2.098-5.144,4.982-5.144c0.767,0,1.573,0.181,2.239,0.605v2.643C77.153,12.222,76.568,11.859,75.741,11.859z"/>
	<path fill="#FFFFFF" d="M86.291,19.464v-0.888h-0.04c-0.585,0.767-1.614,1.21-2.603,1.21c-2.824,0-4.418-2.562-4.418-5.164
		c0-2.542,1.614-5.063,4.378-5.063c0.988,0,2.017,0.423,2.683,1.21V9.862h2.683v9.602H86.291z M84.273,11.98
		c-1.412,0-2.259,1.392-2.259,2.683s0.847,2.683,2.259,2.683s2.279-1.392,2.279-2.683S85.686,11.98,84.273,11.98z"/>
</g>
</svg>
