<?xml version="1.0" encoding="utf-8"?>
<!-- Generator: Adobe Illustrator 16.0.0, SVG Export Plug-In . SVG Version: 6.00 Build 0)  -->
<!DOCTYPE svg PUBLIC "-//W3C//DTD SVG 1.1//EN" "http://www.w3.org/Graphics/SVG/1.1/DTD/svg11.dtd">
<svg version="1.1" id="Layer_1" xmlns="http://www.w3.org/2000/svg" xmlns:xlink="http://www.w3.org/1999/xlink" x="0px" y="0px"
	 width="127.082px" height="46.27px" viewBox="0 0 127.082 46.27" enable-background="new 0 0 127.082 46.27" xml:space="preserve">
<rect fill="#FFC303" width="127.082" height="46.27"/>
<polyline fill="#FF8E06" points="0,46.27 0,0 127.082,0 "/>
<g>
	<path fill="#FFFFFF" d="M32.333,14.172v4.346h6.127v3.347h-6.127v5.345h6.37v3.347H28.5V10.825h10.203v3.347H32.333z"/>
	<path fill="#FFFFFF" d="M45.239,18.896c0.782-1.161,2.051-1.592,3.347-1.592c3.455,0,4.454,2.429,4.454,5.398v7.855h-3.645v-6.802
		c0-1.539,0.055-3.536-1.997-3.536c-2.187,0-2.187,2.43-2.187,3.995v6.343h-3.671V17.708h3.671v1.188H45.239z"/>
	<path fill="#FFFFFF" d="M55.986,30.557v-9.745h-1.241v-3.104h1.241v-4.346h3.671v4.346h2.241v3.104h-2.241v9.745H55.986z"/>
	<path fill="#FFFFFF" d="M67.354,19.058c0.756-1.134,1.835-1.754,3.212-1.754c0.513,0,1.025,0.135,1.512,0.297l-0.459,3.401
		c-0.432-0.297-0.944-0.458-1.512-0.458c-2.537,0-2.78,2.24-2.78,4.238v5.776h-3.671V17.708h3.671v1.35H67.354z"/>
	<path fill="#FFFFFF" d="M81.852,30.557v-1.188h-0.055c-0.782,1.025-2.159,1.619-3.481,1.619c-3.779,0-5.912-3.428-5.912-6.91
		c0-3.401,2.16-6.775,5.857-6.775c1.323,0,2.7,0.567,3.591,1.62v-1.215h3.59v12.849H81.852z M79.152,20.542
		c-1.89,0-3.023,1.862-3.023,3.59s1.134,3.59,3.023,3.59c1.889,0,3.05-1.862,3.05-3.59S81.041,20.542,79.152,20.542z"/>
	<path fill="#FFFFFF" d="M92.005,19.058c0.756-1.134,1.835-1.754,3.212-1.754c0.513,0,1.025,0.135,1.512,0.297l-0.459,3.401
		c-0.432-0.297-0.944-0.458-1.512-0.458c-2.537,0-2.78,2.24-2.78,4.238v5.776h-3.671V17.708h3.671v1.35H92.005z"/>
</g>
</svg>
