<?xml version="1.0" encoding="utf-8"?>
<!-- Generator: Adobe Illustrator 16.0.0, SVG Export Plug-In . SVG Version: 6.00 Build 0)  -->
<!DOCTYPE svg PUBLIC "-//W3C//DTD SVG 1.1//EN" "http://www.w3.org/Graphics/SVG/1.1/DTD/svg11.dtd">
<svg version="1.1" id="Layer_1" xmlns="http://www.w3.org/2000/svg" xmlns:xlink="http://www.w3.org/1999/xlink" x="0px" y="0px"
	 width="754.947px" height="247.336px" viewBox="0 0 754.947 247.336" enable-background="new 0 0 754.947 247.336"
	 xml:space="preserve">
<rect x="5.913" y="63.809" fill="#FFC303" width="743" height="176.953"/>
<g>
	<path fill="#FFFFFF" d="M38.609,94.121l8.083,10.729h0.043V94.52h3.002v15.663h-2.162l-8.084-10.729h-0.042v10.414h-2.981V94.121
		H38.609z"/>
	<path fill="#FFFFFF" d="M54.967,105.291c0,1.134,0.168,2.499,1.617,2.499c1.448,0,1.637-1.365,1.637-2.499v-5.417h2.835v5.879
		c0,2.918-1.491,4.451-4.472,4.451c-2.961,0-4.473-1.533-4.473-4.451v-5.879h2.855V105.291z M56.605,98.425l-1.448-0.882
		l2.456-3.422l2.058,1.26L56.605,98.425z"/>
	<path fill="#FFFFFF" d="M66.161,100.777c0.566-0.798,1.532-1.218,2.456-1.218c1.239,0,2.204,0.504,2.855,1.554
		c0.608-0.966,1.764-1.554,2.919-1.554c2.54,0,3.17,1.911,3.17,4.094v6.215h-2.855v-5.249c0-0.966,0.062-2.792-1.344-2.792
		c-1.533,0-1.512,2.1-1.512,3.149v4.892h-2.855v-5.06c0-0.987,0.126-2.981-1.365-2.981c-1.574,0-1.49,2.079-1.49,3.149v4.892h-2.855
		v-9.994h2.855v0.903H66.161z"/>
	<path fill="#FFFFFF" d="M84.115,108.021c0.944,0,1.532-0.567,1.911-1.365l2.624,0.42c-0.692,1.995-2.436,3.128-4.535,3.128
		c-3.087,0-4.976-2.205-4.976-5.228c0-3.044,1.596-5.417,4.85-5.417c3.275,0,4.725,2.415,4.725,5.417v0.357h-6.572
		C82.141,106.593,82.645,108.021,84.115,108.021z M84.135,101.554c-1.133,0-1.764,0.966-1.91,2.016h3.801
		C85.899,102.541,85.249,101.554,84.135,101.554z"/>
	<path fill="#FFFFFF" d="M93.481,100.924c0.588-0.882,1.428-1.365,2.499-1.365c0.399,0,0.798,0.105,1.176,0.231l-0.356,2.646
		c-0.336-0.231-0.735-0.357-1.176-0.357c-1.975,0-2.163,1.743-2.163,3.296v4.493h-2.855v-9.994h2.855v1.05H93.481z"/>
	<path fill="#FFFFFF" d="M102.575,110.204c-3.129,0-5.249-2.226-5.249-5.312c0-3.128,2.142-5.333,5.249-5.333
		s5.249,2.205,5.249,5.333C107.824,107.979,105.704,110.204,102.575,110.204z M102.575,107.664c1.47,0,2.352-1.428,2.352-2.771
		c0-1.386-0.882-2.813-2.352-2.813s-2.352,1.428-2.352,2.813C100.223,106.236,101.105,107.664,102.575,107.664z"/>
	<path fill="#FFFFFF" d="M122.44,108.923c-0.588,0.819-1.658,1.281-2.688,1.281c-2.939,0-4.598-2.667-4.598-5.375
		c0-2.646,1.68-5.27,4.556-5.27c1.028,0,2.1,0.441,2.729,1.239h0.042v-8.188h2.835v17.259h-2.835v-0.945H122.44z M120.403,102.079
		c-1.469,0-2.352,1.449-2.352,2.792s0.883,2.792,2.352,2.792c1.471,0,2.352-1.449,2.352-2.792S121.874,102.079,120.403,102.079z"/>
	<path fill="#FFFFFF" d="M131.954,108.021c0.945,0,1.533-0.567,1.91-1.365l2.625,0.42c-0.693,1.995-2.436,3.128-4.535,3.128
		c-3.086,0-4.977-2.205-4.977-5.228c0-3.044,1.596-5.417,4.851-5.417c3.275,0,4.724,2.415,4.724,5.417v0.357h-6.571
		C129.98,106.593,130.484,108.021,131.954,108.021z M131.975,101.554c-1.135,0-1.764,0.966-1.911,2.016h3.8
		C133.739,102.541,133.087,101.554,131.975,101.554z"/>
	<path fill="#FFFFFF" d="M147.704,101.554c-0.463,0-0.924,0.357-0.924,0.84c0,0.735,1.028,0.945,2.057,1.386
		c1.029,0.462,2.059,1.155,2.059,2.876c0,2.226-1.807,3.548-3.906,3.548c-1.344,0-2.645-0.63-3.506-1.68l1.302-1.68
		c0.546,0.609,1.28,1.155,2.12,1.155c0.631,0,1.135-0.42,1.135-1.071c0-0.882-1.008-1.092-1.995-1.512
		c-1.008-0.441-1.995-1.029-1.995-2.625c0-1.869,1.303-3.233,3.171-3.233c1.05,0,2.394,0.315,3.212,1.029l-1.217,1.659
		C148.816,101.848,148.27,101.554,147.704,101.554z"/>
	<path fill="#FFFFFF" d="M157.216,110.204c-3.128,0-5.249-2.226-5.249-5.312c0-3.128,2.142-5.333,5.249-5.333
		s5.249,2.205,5.249,5.333C162.465,107.979,160.344,110.204,157.216,110.204z M157.216,107.664c1.47,0,2.352-1.428,2.352-2.771
		c0-1.386-0.882-2.813-2.352-2.813s-2.352,1.428-2.352,2.813C154.865,106.236,155.747,107.664,157.216,107.664z"/>
	<path fill="#FFFFFF" d="M167.254,92.609v8.188c0.65-0.777,1.701-1.239,2.75-1.239c2.835,0,4.557,2.646,4.557,5.27
		c0,2.729-1.658,5.375-4.619,5.375c-1.008,0-2.078-0.462-2.666-1.281h-0.021v0.945h-2.855V92.609H167.254z M169.312,102.079
		c-1.448,0-2.352,1.449-2.352,2.792s0.903,2.792,2.352,2.792c1.47,0,2.372-1.449,2.372-2.792S170.782,102.079,169.312,102.079z"/>
	<path fill="#FFFFFF" d="M179.35,100.924c0.588-0.882,1.428-1.365,2.499-1.365c0.399,0,0.798,0.105,1.176,0.231l-0.356,2.646
		c-0.336-0.231-0.735-0.357-1.176-0.357c-1.975,0-2.163,1.743-2.163,3.296v4.493h-2.855v-9.994h2.855v1.05H179.35z"/>
	<path fill="#FFFFFF" d="M188.464,108.021c0.944,0,1.532-0.567,1.911-1.365l2.624,0.42c-0.692,1.995-2.436,3.128-4.535,3.128
		c-3.087,0-4.976-2.205-4.976-5.228c0-3.044,1.596-5.417,4.85-5.417c3.275,0,4.725,2.415,4.725,5.417v0.357h-6.572
		C186.491,106.593,186.995,108.021,188.464,108.021z M188.485,101.554c-1.133,0-1.764,0.966-1.91,2.016h3.801
		C190.249,102.541,189.598,101.554,188.485,101.554z"/>
	<path fill="#FFFFFF" d="M198.334,101.554c-0.463,0-0.924,0.357-0.924,0.84c0,0.735,1.028,0.945,2.057,1.386
		c1.029,0.462,2.059,1.155,2.059,2.876c0,2.226-1.807,3.548-3.906,3.548c-1.344,0-2.645-0.63-3.506-1.68l1.302-1.68
		c0.546,0.609,1.28,1.155,2.12,1.155c0.631,0,1.135-0.42,1.135-1.071c0-0.882-1.008-1.092-1.995-1.512
		c-1.008-0.441-1.995-1.029-1.995-2.625c0-1.869,1.303-3.233,3.171-3.233c1.05,0,2.394,0.315,3.212,1.029l-1.217,1.659
		C199.447,101.848,198.901,101.554,198.334,101.554z"/>
	<path fill="#FFFFFF" d="M216.121,115.201v-6.278h-0.042c-0.588,0.819-1.658,1.281-2.688,1.281c-2.939,0-4.598-2.667-4.598-5.375
		c0-2.646,1.68-5.27,4.556-5.27c1.028,0,2.1,0.441,2.729,1.239h0.042v-0.924h2.835v15.327H216.121z M214.042,102.079
		c-1.469,0-2.352,1.449-2.352,2.792s0.883,2.792,2.352,2.792c1.471,0,2.352-1.449,2.352-2.792S215.512,102.079,214.042,102.079z"/>
	<path fill="#FFFFFF" d="M224.081,105.291c0,1.134,0.168,2.499,1.617,2.499c1.448,0,1.637-1.365,1.637-2.499v-5.417h2.835v5.879
		c0,2.918-1.491,4.451-4.472,4.451c-2.961,0-4.473-1.533-4.473-4.451v-5.879h2.855V105.291z"/>
	<path fill="#FFFFFF" d="M236.722,108.021c0.944,0,1.532-0.567,1.911-1.365l2.624,0.42c-0.692,1.995-2.436,3.128-4.535,3.128
		c-3.087,0-4.976-2.205-4.976-5.228c0-3.044,1.596-5.417,4.85-5.417c3.275,0,4.725,2.415,4.725,5.417v0.357h-6.572
		C234.749,106.593,235.252,108.021,236.722,108.021z M236.743,101.554c-1.133,0-1.764,0.966-1.91,2.016h3.801
		C238.506,102.541,237.856,101.554,236.743,101.554z"/>
	<path fill="#FFFFFF" d="M253.983,101.953c-1.616,0-2.52,1.512-2.52,2.981c0,1.554,0.987,2.855,2.625,2.855
		c0.756,0,1.47-0.378,1.994-0.945v2.729c-0.776,0.441-1.596,0.63-2.477,0.63c-2.939,0-5.039-2.436-5.039-5.291
		c0-2.981,2.184-5.354,5.186-5.354c0.798,0,1.638,0.189,2.33,0.63v2.75C255.454,102.331,254.844,101.953,253.983,101.953z"/>
	<path fill="#FFFFFF" d="M260.872,100.924c0.588-0.882,1.428-1.365,2.499-1.365c0.399,0,0.798,0.105,1.176,0.231l-0.356,2.646
		c-0.336-0.231-0.735-0.357-1.176-0.357c-1.975,0-2.163,1.743-2.163,3.296v4.493h-2.855v-9.994h2.855v1.05H260.872z"/>
	<path fill="#FFFFFF" d="M269.986,108.021c0.944,0,1.532-0.567,1.911-1.365l2.624,0.42c-0.692,1.995-2.436,3.128-4.535,3.128
		c-3.087,0-4.976-2.205-4.976-5.228c0-3.044,1.596-5.417,4.85-5.417c3.275,0,4.725,2.415,4.725,5.417v0.357h-6.572
		C268.012,106.593,268.516,108.021,269.986,108.021z M270.006,101.554c-1.133,0-1.764,0.966-1.91,2.016h3.801
		C271.77,102.541,271.12,101.554,270.006,101.554z"/>
	<path fill="#FFFFFF" d="M280.969,108.021c0.945,0,1.533-0.567,1.91-1.365l2.625,0.42c-0.693,1.995-2.436,3.128-4.535,3.128
		c-3.086,0-4.977-2.205-4.977-5.228c0-3.044,1.596-5.417,4.851-5.417c3.275,0,4.724,2.415,4.724,5.417v0.357h-6.571
		C278.996,106.593,279.5,108.021,280.969,108.021z M280.991,101.554c-1.135,0-1.764,0.966-1.911,2.016h3.8
		C282.754,102.541,282.103,101.554,280.991,101.554z"/>
	<path fill="#FFFFFF" d="M290.838,101.554c-0.461,0-0.924,0.357-0.924,0.84c0,0.735,1.029,0.945,2.059,1.386
		c1.028,0.462,2.057,1.155,2.057,2.876c0,2.226-1.805,3.548-3.904,3.548c-1.344,0-2.646-0.63-3.507-1.68l1.302-1.68
		c0.546,0.609,1.281,1.155,2.121,1.155c0.629,0,1.133-0.42,1.133-1.071c0-0.882-1.008-1.092-1.994-1.512
		c-1.008-0.441-1.994-1.029-1.994-2.625c0-1.869,1.301-3.233,3.17-3.233c1.05,0,2.394,0.315,3.213,1.029l-1.219,1.659
		C291.952,101.848,291.406,101.554,290.838,101.554z"/>
	<path fill="#FFFFFF" d="M308.625,115.201v-6.278h-0.042c-0.588,0.819-1.659,1.281-2.688,1.281c-2.939,0-4.599-2.667-4.599-5.375
		c0-2.646,1.68-5.27,4.557-5.27c1.029,0,2.1,0.441,2.729,1.239h0.042v-0.924h2.834v15.327H308.625z M306.547,102.079
		c-1.471,0-2.352,1.449-2.352,2.792s0.881,2.792,2.352,2.792c1.469,0,2.352-1.449,2.352-2.792S308.016,102.079,306.547,102.079z"/>
	<path fill="#FFFFFF" d="M316.584,105.291c0,1.134,0.168,2.499,1.617,2.499c1.448,0,1.637-1.365,1.637-2.499v-5.417h2.835v5.879
		c0,2.918-1.491,4.451-4.472,4.451c-2.961,0-4.473-1.533-4.473-4.451v-5.879h2.855V105.291z"/>
	<path fill="#FFFFFF" d="M329.226,108.021c0.944,0,1.532-0.567,1.911-1.365l2.624,0.42c-0.692,1.995-2.436,3.128-4.535,3.128
		c-3.087,0-4.976-2.205-4.976-5.228c0-3.044,1.596-5.417,4.85-5.417c3.275,0,4.725,2.415,4.725,5.417v0.357h-6.572
		C327.252,106.593,327.756,108.021,329.226,108.021z M329.247,101.554c-1.133,0-1.764,0.966-1.91,2.016h3.801
		C331.01,102.541,330.36,101.554,329.247,101.554z"/>
	<path fill="#FFFFFF" d="M342.163,109.868v-7.58h-0.965v-2.415h0.965v-3.38h2.855v3.38h1.743v2.415h-1.743v7.58H342.163z"/>
	<path fill="#FFFFFF" d="M349.87,97.375c-0.924,0-1.68-0.756-1.68-1.68s0.756-1.701,1.68-1.701c0.945,0,1.701,0.777,1.701,1.701
		S350.815,97.375,349.87,97.375z M348.463,109.868v-9.994h2.834v9.994H348.463z"/>
	<path fill="#FFFFFF" d="M357.849,108.021c0.944,0,1.532-0.567,1.911-1.365l2.624,0.42c-0.692,1.995-2.436,3.128-4.535,3.128
		c-3.087,0-4.976-2.205-4.976-5.228c0-3.044,1.596-5.417,4.85-5.417c3.275,0,4.725,2.415,4.725,5.417v0.357h-6.572
		C355.875,106.593,356.379,108.021,357.849,108.021z M357.87,101.554c-1.133,0-1.764,0.966-1.91,2.016h3.801
		C359.633,102.541,358.983,101.554,357.87,101.554z"/>
	<path fill="#FFFFFF" d="M367.215,100.798c0.609-0.903,1.596-1.239,2.604-1.239c2.688,0,3.465,1.89,3.465,4.199v6.11h-2.834v-5.291
		c0-1.197,0.041-2.75-1.555-2.75c-1.7,0-1.7,1.89-1.7,3.107v4.934h-2.855v-9.994h2.855v0.924H367.215z"/>
	<path fill="#FFFFFF" d="M379.836,108.021c0.945,0,1.533-0.567,1.91-1.365l2.625,0.42c-0.693,1.995-2.436,3.128-4.535,3.128
		c-3.086,0-4.977-2.205-4.977-5.228c0-3.044,1.596-5.417,4.851-5.417c3.275,0,4.724,2.415,4.724,5.417v0.357h-6.571
		C377.863,106.593,378.367,108.021,379.836,108.021z M379.858,101.554c-1.135,0-1.764,0.966-1.911,2.016h3.8
		C381.622,102.541,380.97,101.554,379.858,101.554z"/>
	<path fill="#FFFFFF" d="M392.206,109.868V92.609h2.855v17.259H392.206z"/>
	<path fill="#FFFFFF" d="M404.3,109.868v-0.924h-0.042c-0.609,0.798-1.68,1.26-2.709,1.26c-2.939,0-4.598-2.667-4.598-5.375
		c0-2.646,1.68-5.27,4.557-5.27c1.028,0,2.1,0.441,2.792,1.26v-0.945h2.792v9.994H404.3z M402.201,102.079
		c-1.47,0-2.352,1.449-2.352,2.792s0.882,2.792,2.352,2.792s2.372-1.449,2.372-2.792S403.67,102.079,402.201,102.079z"/>
	<path fill="#FFFFFF" d="M418.056,105.291c0,1.134,0.168,2.499,1.617,2.499c1.449,0,1.639-1.365,1.639-2.499v-5.417h2.834v5.879
		c0,2.918-1.49,4.451-4.473,4.451c-2.96,0-4.472-1.533-4.472-4.451v-5.879h2.855V105.291z"/>
	<path fill="#FFFFFF" d="M429.249,100.924c0.588-0.882,1.428-1.365,2.498-1.365c0.4,0,0.799,0.105,1.176,0.231l-0.355,2.646
		c-0.336-0.231-0.736-0.357-1.176-0.357c-1.975,0-2.164,1.743-2.164,3.296v4.493h-2.855v-9.994h2.855v1.05H429.249z"/>
	<path fill="#FFFFFF" d="M437.251,100.798c0.607-0.903,1.596-1.239,2.604-1.239c2.688,0,3.463,1.89,3.463,4.199v6.11h-2.834v-5.291
		c0-1.197,0.043-2.75-1.553-2.75c-1.701,0-1.701,1.89-1.701,3.107v4.934h-2.855v-9.994h2.855v0.924H437.251z"/>
	<path fill="#FFFFFF" d="M452.349,109.868v-0.924h-0.043c-0.607,0.798-1.68,1.26-2.707,1.26c-2.939,0-4.6-2.667-4.6-5.375
		c0-2.646,1.68-5.27,4.557-5.27c1.029,0,2.1,0.441,2.793,1.26v-0.945h2.793v9.994H452.349z M450.249,102.079
		c-1.471,0-2.352,1.449-2.352,2.792s0.881,2.792,2.352,2.792c1.469,0,2.373-1.449,2.373-2.792S451.718,102.079,450.249,102.079z"/>
	<path fill="#FFFFFF" d="M459.112,110.267c-1.008,0-1.807-0.819-1.807-1.827c0-0.987,0.799-1.785,1.807-1.785
		c0.986,0,1.805,0.798,1.805,1.785C460.917,109.448,460.099,110.267,459.112,110.267z"/>
</g>
<g>
	<path fill="#FFFFFF" d="M204.509,148.124v3.38h4.347v2.604h-4.347v6.761h-2.981V145.52h7.601v2.604H204.509z"/>
	<path fill="#FFFFFF" d="M215.009,161.204c-3.128,0-5.249-2.226-5.249-5.312c0-3.128,2.142-5.333,5.249-5.333
		s5.249,2.205,5.249,5.333C220.258,158.979,218.137,161.204,215.009,161.204z M215.009,158.664c1.47,0,2.352-1.428,2.352-2.771
		c0-1.386-0.882-2.813-2.352-2.813s-2.352,1.428-2.352,2.813C212.658,157.236,213.54,158.664,215.009,158.664z"/>
	<path fill="#FFFFFF" d="M222.758,160.868v-7.58h-0.965v-2.415h0.965v-3.38h2.855v3.38h1.743v2.415h-1.743v7.58H222.758z"/>
	<path fill="#FFFFFF" d="M233.342,161.204c-3.129,0-5.249-2.226-5.249-5.312c0-3.128,2.142-5.333,5.249-5.333
		s5.249,2.205,5.249,5.333C238.591,158.979,236.471,161.204,233.342,161.204z M233.342,158.664c1.47,0,2.352-1.428,2.352-2.771
		c0-1.386-0.882-2.813-2.352-2.813s-2.352,1.428-2.352,2.813C230.991,157.236,231.873,158.664,233.342,158.664z"/>
	<path fill="#FFFFFF" d="M253.208,159.923c-0.588,0.819-1.658,1.281-2.688,1.281c-2.939,0-4.598-2.667-4.598-5.375
		c0-2.646,1.68-5.27,4.556-5.27c1.028,0,2.1,0.441,2.729,1.239h0.042v-8.188h2.835v17.259h-2.835v-0.945H253.208z M251.17,153.079
		c-1.469,0-2.352,1.449-2.352,2.792s0.883,2.792,2.352,2.792c1.471,0,2.352-1.449,2.352-2.792S252.641,153.079,251.17,153.079z"/>
	<path fill="#FFFFFF" d="M262.721,159.021c0.945,0,1.533-0.567,1.91-1.365l2.625,0.42c-0.693,1.995-2.436,3.128-4.535,3.128
		c-3.086,0-4.977-2.205-4.977-5.228c0-3.044,1.596-5.417,4.851-5.417c3.275,0,4.724,2.415,4.724,5.417v0.357h-6.571
		C260.748,157.593,261.251,159.021,262.721,159.021z M262.743,152.554c-1.135,0-1.764,0.966-1.911,2.016h3.8
		C264.506,153.541,263.855,152.554,262.743,152.554z"/>
	<path fill="#FFFFFF" d="M275.659,160.868v-7.58h-0.967v-2.415h0.967v-3.38h2.855v3.38h1.742v2.415h-1.742v7.58H275.659z"/>
	<path fill="#FFFFFF" d="M284.813,156.291c0,1.134,0.168,2.499,1.617,2.499c1.448,0,1.637-1.365,1.637-2.499v-5.417h2.835v5.879
		c0,2.918-1.491,4.451-4.472,4.451c-2.961,0-4.473-1.533-4.473-4.451v-5.879h2.855V156.291z"/>
	<path fill="#FFFFFF" d="M299.577,160.868v-7.58h-0.965v-2.415h0.965v-3.38h2.855v3.38h1.743v2.415h-1.743v7.58H299.577z"/>
	<path fill="#FFFFFF" d="M307.284,148.375c-0.924,0-1.68-0.756-1.68-1.68s0.756-1.701,1.68-1.701c0.944,0,1.7,0.777,1.7,1.701
		S308.228,148.375,307.284,148.375z M305.876,160.868v-9.994h2.835v9.994H305.876z"/>
	<path fill="#FFFFFF" d="M315.831,152.953c-1.617,0-2.52,1.512-2.52,2.981c0,1.554,0.986,2.855,2.624,2.855
		c0.756,0,1.47-0.378,1.995-0.945v2.729c-0.777,0.441-1.596,0.63-2.479,0.63c-2.939,0-5.039-2.436-5.039-5.291
		c0-2.981,2.184-5.354,5.187-5.354c0.798,0,1.638,0.189,2.331,0.63v2.75C317.299,153.331,316.691,152.953,315.831,152.953z"/>
	<path fill="#FFFFFF" d="M322.717,154.548l3.003-3.674h3.695l-4.199,4.409l4.535,5.585h-3.759l-3.275-4.241h-0.021v4.241h-2.855
		v-17.259h2.855v10.939H322.717z"/>
	<path fill="#FFFFFF" d="M334.373,159.021c0.944,0,1.532-0.567,1.911-1.365l2.624,0.42c-0.692,1.995-2.436,3.128-4.535,3.128
		c-3.087,0-4.976-2.205-4.976-5.228c0-3.044,1.596-5.417,4.85-5.417c3.275,0,4.725,2.415,4.725,5.417v0.357h-6.572
		C332.399,157.593,332.903,159.021,334.373,159.021z M334.393,152.554c-1.133,0-1.764,0.966-1.91,2.016h3.801
		C336.157,153.541,335.506,152.554,334.393,152.554z"/>
	<path fill="#FFFFFF" d="M341.094,160.868v-7.58h-0.967v-2.415h0.967v-3.38h2.855v3.38h1.742v2.415h-1.742v7.58H341.094z"/>
	<path fill="#FFFFFF" d="M360.077,159.923c-0.588,0.819-1.658,1.281-2.688,1.281c-2.939,0-4.598-2.667-4.598-5.375
		c0-2.646,1.68-5.27,4.556-5.27c1.028,0,2.1,0.441,2.729,1.239h0.042v-8.188h2.835v17.259h-2.835v-0.945H360.077z M358.04,153.079
		c-1.469,0-2.352,1.449-2.352,2.792s0.883,2.792,2.352,2.792c1.471,0,2.352-1.449,2.352-2.792S359.51,153.079,358.04,153.079z"/>
	<path fill="#FFFFFF" d="M369.589,159.021c0.944,0,1.532-0.567,1.911-1.365l2.624,0.42c-0.692,1.995-2.436,3.128-4.535,3.128
		c-3.087,0-4.976-2.205-4.976-5.228c0-3.044,1.596-5.417,4.85-5.417c3.275,0,4.725,2.415,4.725,5.417v0.357h-6.572
		C367.616,157.593,368.12,159.021,369.589,159.021z M369.61,152.554c-1.133,0-1.764,0.966-1.91,2.016h3.801
		C371.374,153.541,370.723,152.554,369.61,152.554z"/>
	<path fill="#FFFFFF" d="M386.852,152.953c-1.617,0-2.52,1.512-2.52,2.981c0,1.554,0.986,2.855,2.624,2.855
		c0.756,0,1.47-0.378,1.995-0.945v2.729c-0.777,0.441-1.596,0.63-2.479,0.63c-2.939,0-5.039-2.436-5.039-5.291
		c0-2.981,2.184-5.354,5.187-5.354c0.798,0,1.638,0.189,2.331,0.63v2.75C388.321,153.331,387.712,152.953,386.852,152.953z"/>
	<path fill="#FFFFFF" d="M395.483,161.204c-3.129,0-5.249-2.226-5.249-5.312c0-3.128,2.142-5.333,5.249-5.333
		s5.249,2.205,5.249,5.333C400.732,158.979,398.612,161.204,395.483,161.204z M395.483,158.664c1.47,0,2.352-1.428,2.352-2.771
		c0-1.386-0.882-2.813-2.352-2.813s-2.352,1.428-2.352,2.813C393.131,157.236,394.013,158.664,395.483,158.664z"/>
	<path fill="#FFFFFF" d="M405.542,151.777c0.567-0.798,1.533-1.218,2.457-1.218c1.238,0,2.205,0.504,2.855,1.554
		c0.609-0.966,1.764-1.554,2.918-1.554c2.541,0,3.171,1.911,3.171,4.094v6.215h-2.855v-5.249c0-0.966,0.063-2.792-1.344-2.792
		c-1.532,0-1.512,2.1-1.512,3.149v4.892h-2.855v-5.06c0-0.987,0.126-2.981-1.364-2.981c-1.575,0-1.491,2.079-1.491,3.149v4.892
		h-2.855v-9.994h2.855v0.903H405.542z"/>
	<path fill="#FFFFFF" d="M424.778,150.559c2.834,0,4.555,2.646,4.555,5.27c0,2.729-1.658,5.375-4.619,5.375
		c-1.008,0-2.078-0.462-2.666-1.281h-0.021v6.278h-2.855v-15.327h2.855v0.924C422.679,151.021,423.728,150.559,424.778,150.559z
		 M424.085,153.079c-1.449,0-2.352,1.449-2.352,2.792s0.902,2.792,2.352,2.792c1.469,0,2.373-1.449,2.373-2.792
		S425.554,153.079,424.085,153.079z"/>
	<path fill="#FFFFFF" d="M434.29,151.924c0.588-0.882,1.428-1.365,2.498-1.365c0.4,0,0.799,0.105,1.176,0.231l-0.355,2.646
		c-0.336-0.231-0.736-0.357-1.176-0.357c-1.975,0-2.164,1.743-2.164,3.296v4.493h-2.855v-9.994h2.855v1.05H434.29z"/>
	<path fill="#FFFFFF" d="M445.567,160.868v-0.924h-0.043c-0.607,0.798-1.68,1.26-2.707,1.26c-2.939,0-4.6-2.667-4.6-5.375
		c0-2.646,1.68-5.27,4.557-5.27c1.029,0,2.1,0.441,2.793,1.26v-0.945h2.793v9.994H445.567z M443.468,153.079
		c-1.471,0-2.352,1.449-2.352,2.792s0.881,2.792,2.352,2.792c1.469,0,2.373-1.449,2.373-2.792S444.937,153.079,443.468,153.079z"/>
	<path fill="#FFFFFF" d="M452.331,161.267c-1.008,0-1.807-0.819-1.807-1.827c0-0.987,0.799-1.785,1.807-1.785
		c0.986,0,1.805,0.798,1.805,1.785C454.136,160.448,453.317,161.267,452.331,161.267z"/>
</g>
<g>
	<path fill="#FFFFFF" d="M491.21,148.16c-0.908,0-1.795,0.706-1.795,1.674c0,2.481,5.85,1.432,5.85,6.375
		c0,2.965-1.836,5.043-4.842,5.043c-2.037,0-3.529-1.17-4.537-2.864l1.855-1.816c0.383,1.13,1.412,2.139,2.662,2.139
		c1.17,0,1.896-0.989,1.896-2.118c0-1.533-1.412-1.957-2.562-2.4c-1.896-0.787-3.287-1.755-3.287-4.035
		c0-2.441,1.814-4.417,4.297-4.417c1.311,0,3.125,0.646,4.033,1.634l-1.352,1.997C492.884,148.624,492.179,148.16,491.21,148.16z"/>
	<path fill="#FFFFFF" d="M499.843,156.471c0,1.089,0.162,2.4,1.555,2.4c1.391,0,1.572-1.311,1.572-2.4v-5.205h2.725v5.648
		c0,2.804-1.434,4.276-4.297,4.276c-2.846,0-4.297-1.473-4.297-4.276v-5.648h2.742V156.471z"/>
	<path fill="#FFFFFF" d="M510.573,144.287v7.867c0.627-0.747,1.635-1.19,2.643-1.19c2.725,0,4.379,2.542,4.379,5.063
		c0,2.623-1.594,5.164-4.439,5.164c-0.967,0-1.996-0.444-2.561-1.23h-0.021v0.908h-2.742v-16.582H510.573z M512.552,153.384
		c-1.393,0-2.26,1.392-2.26,2.683s0.867,2.683,2.26,2.683c1.41,0,2.279-1.392,2.279-2.683S513.962,153.384,512.552,153.384z"/>
	<path fill="#FFFFFF" d="M520.62,148.866c-0.889,0-1.615-0.726-1.615-1.614s0.727-1.634,1.615-1.634
		c0.906,0,1.633,0.746,1.633,1.634S521.526,148.866,520.62,148.866z M519.269,160.868v-9.602h2.723v9.602H519.269z"/>
	<path fill="#FFFFFF" d="M526.894,152.275c0.564-0.847,1.371-1.311,2.4-1.311c0.383,0,0.766,0.101,1.129,0.222l-0.342,2.542
		c-0.324-0.222-0.707-0.343-1.131-0.343c-1.896,0-2.078,1.674-2.078,3.167v4.317h-2.742v-9.602h2.742v1.009H526.894z"/>
	<path fill="#FFFFFF" d="M537.726,160.868v-7.282h-0.93v-2.32h0.93v-2.804c0-2.36,0.967-4.397,3.609-4.397
		c0.443,0,0.908,0.101,1.312,0.302v2.441c-0.363-0.161-0.707-0.323-1.109-0.323c-1.211,0-1.09,1.574-1.09,2.36v2.42h2.199v2.32
		h-2.199v7.282H537.726z"/>
	<path fill="#FFFFFF" d="M548.253,161.191c-3.004,0-5.043-2.138-5.043-5.104c0-3.006,2.059-5.124,5.043-5.124
		c2.986,0,5.043,2.118,5.043,5.124C553.296,159.053,551.259,161.191,548.253,161.191z M548.253,158.75
		c1.412,0,2.26-1.372,2.26-2.663c0-1.332-0.848-2.703-2.26-2.703s-2.258,1.372-2.258,2.703
		C545.995,157.378,546.841,158.75,548.253,158.75z"/>
	<path fill="#FFFFFF" d="M555.698,160.868v-7.282h-0.928v-2.32h0.928v-3.248h2.742v3.248h1.674v2.32h-1.674v7.282H555.698z"/>
	<path fill="#FFFFFF" d="M565.862,161.191c-3.004,0-5.043-2.138-5.043-5.104c0-3.006,2.059-5.124,5.043-5.124
		c2.986,0,5.043,2.118,5.043,5.124C570.905,159.053,568.868,161.191,565.862,161.191z M565.862,158.75
		c1.412,0,2.26-1.372,2.26-2.663c0-1.332-0.848-2.703-2.26-2.703s-2.258,1.372-2.258,2.703
		C563.604,157.378,564.45,158.75,565.862,158.75z"/>
</g>
<g>
	<path fill="#FFFFFF" d="M241.543,193.671c-0.945,0-1.869,0.735-1.869,1.743c0,2.583,6.089,1.491,6.089,6.635
		c0,3.086-1.911,5.249-5.039,5.249c-2.12,0-3.675-1.218-4.724-2.981l1.932-1.89c0.398,1.176,1.469,2.226,2.771,2.226
		c1.217,0,1.973-1.029,1.973-2.205c0-1.596-1.469-2.037-2.666-2.499c-1.974-0.819-3.422-1.827-3.422-4.199
		c0-2.541,1.889-4.598,4.472-4.598c1.364,0,3.255,0.672,4.199,1.701l-1.407,2.079C243.286,194.154,242.551,193.671,241.543,193.671z
		"/>
	<path fill="#FFFFFF" d="M250.531,202.321c0,1.134,0.168,2.499,1.616,2.499c1.449,0,1.639-1.365,1.639-2.499v-5.417h2.834v5.879
		c0,2.918-1.49,4.451-4.473,4.451c-2.96,0-4.472-1.533-4.472-4.451v-5.879h2.855V202.321z"/>
	<path fill="#FFFFFF" d="M263.739,198.983c-1.616,0-2.52,1.512-2.52,2.981c0,1.554,0.987,2.855,2.625,2.855
		c0.756,0,1.47-0.378,1.994-0.945v2.729c-0.776,0.441-1.596,0.63-2.477,0.63c-2.939,0-5.039-2.436-5.039-5.291
		c0-2.981,2.184-5.354,5.186-5.354c0.798,0,1.638,0.189,2.33,0.63v2.75C265.209,199.361,264.6,198.983,263.739,198.983z"/>
	<path fill="#FFFFFF" d="M270.607,202.321c0,1.134,0.168,2.499,1.616,2.499c1.449,0,1.639-1.365,1.639-2.499v-5.417h2.834v5.879
		c0,2.918-1.49,4.451-4.473,4.451c-2.96,0-4.472-1.533-4.472-4.451v-5.879h2.855V202.321z"/>
	<path fill="#FFFFFF" d="M281.799,197.954c0.588-0.882,1.428-1.365,2.499-1.365c0.399,0,0.798,0.105,1.176,0.231l-0.356,2.646
		c-0.336-0.231-0.735-0.357-1.176-0.357c-1.975,0-2.163,1.743-2.163,3.296v4.493h-2.855v-9.994h2.855v1.05H281.799z"/>
	<path fill="#FFFFFF" d="M289.969,198.584c-0.463,0-0.924,0.357-0.924,0.84c0,0.735,1.028,0.945,2.057,1.386
		c1.029,0.462,2.059,1.155,2.059,2.876c0,2.226-1.807,3.548-3.906,3.548c-1.344,0-2.645-0.63-3.506-1.68l1.302-1.68
		c0.546,0.609,1.28,1.155,2.12,1.155c0.631,0,1.135-0.42,1.135-1.071c0-0.882-1.008-1.092-1.995-1.512
		c-1.008-0.441-1.995-1.029-1.995-2.625c0-1.869,1.303-3.233,3.171-3.233c1.05,0,2.394,0.315,3.212,1.029l-1.217,1.659
		C291.082,198.878,290.536,198.584,289.969,198.584z"/>
	<path fill="#FFFFFF" d="M301.833,206.898v-0.924h-0.042c-0.609,0.798-1.68,1.26-2.709,1.26c-2.939,0-4.598-2.667-4.598-5.375
		c0-2.646,1.68-5.27,4.557-5.27c1.028,0,2.1,0.441,2.792,1.26v-0.945h2.792v9.994H301.833z M299.734,199.109
		c-1.47,0-2.352,1.449-2.352,2.792s0.882,2.792,2.352,2.792s2.372-1.449,2.372-2.792S301.204,199.109,299.734,199.109z"/>
	<path fill="#FFFFFF" d="M306.853,206.898V189.64h2.855v17.259H306.853z"/>
	<path fill="#FFFFFF" d="M324.66,205.954c-0.588,0.819-1.659,1.281-2.688,1.281c-2.939,0-4.599-2.667-4.599-5.375
		c0-2.646,1.68-5.27,4.557-5.27c1.029,0,2.1,0.441,2.729,1.239h0.042v-8.188h2.834v17.259h-2.834v-0.945H324.66z M322.624,199.109
		c-1.471,0-2.352,1.449-2.352,2.792s0.881,2.792,2.352,2.792c1.469,0,2.352-1.449,2.352-2.792S324.092,199.109,322.624,199.109z"/>
	<path fill="#FFFFFF" d="M334.467,207.234c-3.129,0-5.249-2.226-5.249-5.312c0-3.128,2.142-5.333,5.249-5.333
		s5.249,2.205,5.249,5.333C339.716,205.009,337.596,207.234,334.467,207.234z M334.467,204.694c1.47,0,2.352-1.428,2.352-2.771
		c0-1.386-0.882-2.813-2.352-2.813s-2.352,1.428-2.352,2.813C332.116,203.266,332.998,204.694,334.467,204.694z"/>
	<path fill="#FFFFFF" d="M344.526,197.828c0.609-0.903,1.596-1.239,2.604-1.239c2.688,0,3.465,1.89,3.465,4.199v6.11h-2.834v-5.291
		c0-1.197,0.041-2.75-1.555-2.75c-1.7,0-1.7,1.89-1.7,3.107v4.934h-2.855v-9.994h2.855v0.924H344.526z"/>
	<path fill="#FFFFFF" d="M359.625,205.954c-0.588,0.819-1.659,1.281-2.688,1.281c-2.939,0-4.599-2.667-4.599-5.375
		c0-2.646,1.68-5.27,4.557-5.27c1.029,0,2.1,0.441,2.729,1.239h0.042v-8.188h2.834v17.259h-2.834v-0.945H359.625z M357.588,199.109
		c-1.471,0-2.352,1.449-2.352,2.792s0.881,2.792,2.352,2.792c1.469,0,2.352-1.449,2.352-2.792S359.057,199.109,357.588,199.109z"/>
	<path fill="#FFFFFF" d="M369.138,205.051c0.944,0,1.532-0.567,1.911-1.365l2.624,0.42c-0.692,1.995-2.436,3.128-4.535,3.128
		c-3.087,0-4.976-2.205-4.976-5.228c0-3.044,1.596-5.417,4.85-5.417c3.275,0,4.725,2.415,4.725,5.417v0.357h-6.572
		C367.165,203.623,367.668,205.051,369.138,205.051z M369.159,198.584c-1.133,0-1.764,0.966-1.91,2.016h3.801
		C370.922,199.571,370.272,198.584,369.159,198.584z"/>
	<path fill="#FFFFFF" d="M386.401,198.983c-1.617,0-2.52,1.512-2.52,2.981c0,1.554,0.986,2.855,2.624,2.855
		c0.756,0,1.47-0.378,1.995-0.945v2.729c-0.777,0.441-1.596,0.63-2.479,0.63c-2.939,0-5.039-2.436-5.039-5.291
		c0-2.981,2.184-5.354,5.187-5.354c0.798,0,1.638,0.189,2.331,0.63v2.75C387.87,199.361,387.261,198.983,386.401,198.983z"/>
	<path fill="#FFFFFF" d="M395.031,207.234c-3.128,0-5.249-2.226-5.249-5.312c0-3.128,2.142-5.333,5.249-5.333
		s5.249,2.205,5.249,5.333C400.28,205.009,398.159,207.234,395.031,207.234z M395.031,204.694c1.47,0,2.352-1.428,2.352-2.771
		c0-1.386-0.882-2.813-2.352-2.813s-2.352,1.428-2.352,2.813C392.679,203.266,393.561,204.694,395.031,204.694z"/>
	<path fill="#FFFFFF" d="M405.09,197.807c0.566-0.798,1.532-1.218,2.456-1.218c1.239,0,2.204,0.504,2.855,1.554
		c0.608-0.966,1.764-1.554,2.919-1.554c2.54,0,3.17,1.911,3.17,4.094v6.215h-2.855v-5.249c0-0.966,0.062-2.792-1.344-2.792
		c-1.533,0-1.512,2.1-1.512,3.149v4.892h-2.855v-5.06c0-0.987,0.126-2.981-1.365-2.981c-1.574,0-1.49,2.079-1.49,3.149v4.892h-2.855
		v-9.994h2.855v0.903H405.09z"/>
	<path fill="#FFFFFF" d="M424.325,196.589c2.834,0,4.557,2.646,4.557,5.27c0,2.729-1.658,5.375-4.619,5.375
		c-1.008,0-2.078-0.462-2.666-1.281h-0.021v6.278h-2.855v-15.327h2.855v0.924C422.226,197.051,423.276,196.589,424.325,196.589z
		 M423.632,199.109c-1.447,0-2.352,1.449-2.352,2.792s0.904,2.792,2.352,2.792c1.471,0,2.373-1.449,2.373-2.792
		S425.103,199.109,423.632,199.109z"/>
	<path fill="#FFFFFF" d="M433.839,197.954c0.588-0.882,1.428-1.365,2.498-1.365c0.4,0,0.799,0.105,1.176,0.231l-0.355,2.646
		c-0.336-0.231-0.736-0.357-1.176-0.357c-1.975,0-2.164,1.743-2.164,3.296v4.493h-2.855v-9.994h2.855v1.05H433.839z"/>
	<path fill="#FFFFFF" d="M442.933,207.234c-3.129,0-5.25-2.226-5.25-5.312c0-3.128,2.143-5.333,5.25-5.333s5.248,2.205,5.248,5.333
		C448.181,205.009,446.062,207.234,442.933,207.234z M442.933,204.694c1.469,0,2.352-1.428,2.352-2.771
		c0-1.386-0.883-2.813-2.352-2.813c-1.471,0-2.352,1.428-2.352,2.813C440.581,203.266,441.462,204.694,442.933,204.694z"/>
	<path fill="#FFFFFF" d="M450.87,207.297c-1.008,0-1.805-0.819-1.805-1.827c0-0.987,0.797-1.785,1.805-1.785
		c0.986,0,1.807,0.798,1.807,1.785C452.677,206.479,451.856,207.297,450.87,207.297z"/>
</g>
<rect x="486.913" y="89.868" fill="#FFFFFF" width="239" height="28"/>
<rect x="625.654" y="151.286" fill="#FFFFFF" width="8.346" height="8.784"/>
<rect x="486.913" y="190.668" fill="#FFFFFF" width="239" height="28"/>
<g>
	<g>
		<path fill="#FFFFFF" d="M592.628,169.858c-2.308,0-4.473-0.893-6.093-2.516c-1.623-1.619-2.516-3.784-2.516-6.093
			s0.893-4.471,2.516-6.093l17.823-17.824c2.548-2.547,6.512-2.433,9.215,0.271c2.704,2.704,2.822,6.664,0.271,9.215l-16.743,16.745
			c-1.571,1.572-4.132,1.572-5.707,0c-1.572-1.574-1.572-4.135,0-5.707l11.341-11.342c0.383-0.382,1.005-0.382,1.388,0
			c0.383,0.383,0.383,1.002,0,1.384l-11.342,11.345c-0.81,0.808-0.81,2.124,0,2.934s2.127,0.81,2.934,0l16.746-16.742
			c1.76-1.761,1.642-4.531-0.271-6.447c-1.916-1.913-4.687-2.028-6.447-0.268l-17.823,17.823c-1.25,1.25-1.941,2.924-1.941,4.706
			c0,1.785,0.691,3.456,1.941,4.709c1.253,1.253,2.924,1.942,4.709,1.942c1.786,0,3.457-0.689,4.71-1.942l17.823-17.823
			c0.383-0.383,1.001-0.383,1.384,0s0.383,1.001,0,1.384l-17.823,17.823C597.102,168.966,594.937,169.858,592.628,169.858
			L592.628,169.858z M592.628,169.858"/>
	</g>
</g>
<rect x="5.913" y="3.809" fill="#FF9906" width="94.813" height="61"/>
<rect x="88.245" y="3.809" fill="#FFC303" width="84.481" height="61"/>
<g>
	<path fill="#FFFFFF" d="M43.041,16.003h12.274v37.701h-7.323V22.399h-4.951V16.003z"/>
</g>
<g>
	<path fill="#FFFFFF" d="M144.003,53.705h-25.375l9.594-12.068c2.63-3.301,8.2-9.851,8.2-14.131c0-2.682-1.754-6.086-4.849-6.086
		c-3.301,0-4.848,3.61-4.693,6.447h-7.787c0.516-7.221,4.642-12.842,12.43-12.842c6.859,0,12.223,5.261,12.223,12.172
		c0,5.519-3.095,9.645-6.55,13.667l-5.57,6.447h12.378V53.705z"/>
</g>
</svg>
