<?xml version="1.0" encoding="utf-8"?>
<!-- Generator: Adobe Illustrator 16.0.0, SVG Export Plug-In . SVG Version: 6.00 Build 0)  -->
<!DOCTYPE svg PUBLIC "-//W3C//DTD SVG 1.1//EN" "http://www.w3.org/Graphics/SVG/1.1/DTD/svg11.dtd">
<svg version="1.1" id="Layer_1" xmlns="http://www.w3.org/2000/svg" xmlns:xlink="http://www.w3.org/1999/xlink" x="0px" y="0px"
	 width="1152.553px" height="354.593px" viewBox="0 0 1152.553 354.593" enable-background="new 0 0 1152.553 354.593"
	 xml:space="preserve">
<rect x="6.123" y="66.876" fill="#FFC303" width="1140" height="281"/>
<g>
	<path fill="#FFFFFF" d="M44.03,102.072l1.492-1.009l0.706,1.312l-1.573,0.968l1.573,0.988l-0.706,1.311l-1.492-1.029l0.04,1.937
		h-1.694l0.061-1.937l-1.514,1.029l-0.705-1.311l1.532-0.988l-1.553-0.968l0.686-1.312l1.554,1.009l-0.061-1.977h1.694
		L44.03,102.072z"/>
	<path fill="#FFFFFF" d="M48.951,99.854l7.767,10.308h0.04v-9.924h2.885v15.048h-2.078l-7.767-10.308h-0.04v10.005h-2.864V99.854
		H48.951z"/>
	<path fill="#FFFFFF" d="M66.359,115.305c-3.005,0-5.043-2.138-5.043-5.104c0-3.006,2.058-5.124,5.043-5.124
		s5.043,2.118,5.043,5.124C71.402,113.167,69.365,115.305,66.359,115.305z M66.359,112.864c1.412,0,2.26-1.372,2.26-2.663
		c0-1.332-0.848-2.703-2.26-2.703s-2.259,1.372-2.259,2.703C64.1,111.493,64.947,112.864,66.359,112.864z"/>
	<path fill="#FFFFFF" d="M76.021,106.248c0.545-0.767,1.473-1.17,2.36-1.17c1.189,0,2.118,0.484,2.743,1.493
		c0.585-0.928,1.694-1.493,2.804-1.493c2.441,0,3.046,1.835,3.046,3.934v5.971h-2.743v-5.043c0-0.928,0.061-2.683-1.291-2.683
		c-1.473,0-1.452,2.018-1.452,3.026v4.7h-2.743v-4.861c0-0.948,0.12-2.865-1.312-2.865c-1.513,0-1.433,1.997-1.433,3.026v4.7h-2.743
		v-9.602H76v0.868H76.021z"/>
	<path fill="#FFFFFF" d="M91.855,98.401v7.867c0.626-0.747,1.634-1.19,2.643-1.19c2.724,0,4.378,2.542,4.378,5.063
		c0,2.623-1.594,5.164-4.438,5.164c-0.968,0-1.997-0.444-2.562-1.23h-0.021v0.908h-2.743V98.401H91.855z M93.833,107.499
		c-1.393,0-2.26,1.392-2.26,2.683s0.867,2.683,2.26,2.683c1.412,0,2.279-1.392,2.279-2.683S95.245,107.499,93.833,107.499z"/>
	<path fill="#FFFFFF" d="M103.473,106.389c0.564-0.847,1.372-1.311,2.4-1.311c0.383,0,0.767,0.101,1.13,0.222l-0.343,2.542
		c-0.323-0.222-0.706-0.343-1.13-0.343c-1.896,0-2.078,1.674-2.078,3.167v4.317h-2.743v-9.602h2.743v1.009H103.473z"/>
	<path fill="#FFFFFF" d="M112.228,113.207c0.908,0,1.473-0.544,1.836-1.311l2.521,0.403c-0.666,1.917-2.34,3.006-4.357,3.006
		c-2.965,0-4.78-2.118-4.78-5.023c0-2.925,1.533-5.204,4.659-5.204c3.147,0,4.539,2.319,4.539,5.204v0.343h-6.313
		C110.333,111.835,110.816,113.207,112.228,113.207z M112.249,106.994c-1.09,0-1.694,0.928-1.836,1.937h3.651
		C113.943,107.942,113.318,106.994,112.249,106.994z"/>
	<path fill="#FFFFFF" d="M128.809,107.377c-1.554,0-2.421,1.453-2.421,2.865c0,1.493,0.948,2.743,2.521,2.743
		c0.727,0,1.412-0.363,1.917-0.908v2.623c-0.747,0.423-1.533,0.605-2.381,0.605c-2.824,0-4.841-2.34-4.841-5.083
		c0-2.864,2.098-5.144,4.982-5.144c0.767,0,1.573,0.181,2.239,0.605v2.643C130.221,107.741,129.636,107.377,128.809,107.377z"/>
	<path fill="#FFFFFF" d="M137.099,115.305c-3.005,0-5.043-2.138-5.043-5.104c0-3.006,2.058-5.124,5.043-5.124
		s5.043,2.118,5.043,5.124C142.142,113.167,140.105,115.305,137.099,115.305z M137.099,112.864c1.412,0,2.26-1.372,2.26-2.663
		c0-1.332-0.848-2.703-2.26-2.703s-2.259,1.372-2.259,2.703C134.84,111.493,135.687,112.864,137.099,112.864z"/>
	<path fill="#FFFFFF" d="M146.761,106.248c0.545-0.767,1.473-1.17,2.36-1.17c1.189,0,2.118,0.484,2.743,1.493
		c0.585-0.928,1.694-1.493,2.804-1.493c2.441,0,3.046,1.835,3.046,3.934v5.971h-2.743v-5.043c0-0.928,0.061-2.683-1.291-2.683
		c-1.473,0-1.452,2.018-1.452,3.026v4.7h-2.743v-4.861c0-0.948,0.12-2.865-1.312-2.865c-1.513,0-1.433,1.997-1.433,3.026v4.7h-2.743
		v-9.602h2.743v0.868H146.761z"/>
	<path fill="#FFFFFF" d="M165.238,105.078c2.724,0,4.378,2.542,4.378,5.063c0,2.623-1.594,5.164-4.438,5.164
		c-0.968,0-1.997-0.444-2.562-1.23h-0.021v6.031h-2.743V105.38h2.743v0.888C163.221,105.521,164.229,105.078,165.238,105.078z
		 M164.573,107.499c-1.393,0-2.26,1.392-2.26,2.683s0.867,2.683,2.26,2.683c1.412,0,2.279-1.392,2.279-2.683
		S165.985,107.499,164.573,107.499z"/>
	<path fill="#FFFFFF" d="M171.612,114.982V98.401h2.743v16.582H171.612z"/>
	<path fill="#FFFFFF" d="M180.688,113.207c0.908,0,1.473-0.544,1.836-1.311l2.521,0.403c-0.666,1.917-2.34,3.006-4.357,3.006
		c-2.965,0-4.78-2.118-4.78-5.023c0-2.925,1.533-5.204,4.659-5.204c3.147,0,4.539,2.319,4.539,5.204v0.343h-6.314
		C178.792,111.835,179.276,113.207,180.688,113.207z M180.708,106.994c-1.09,0-1.694,0.928-1.836,1.937h3.651
		C182.403,107.942,181.778,106.994,180.708,106.994z"/>
	<path fill="#FFFFFF" d="M187.144,114.982V107.7h-0.928v-2.32h0.928v-3.248h2.743v3.248h1.674v2.32h-1.674v7.282H187.144z"/>
	<path fill="#FFFFFF" d="M197.309,115.305c-3.005,0-5.043-2.138-5.043-5.104c0-3.006,2.058-5.124,5.043-5.124
		c2.986,0,5.043,2.118,5.043,5.124C202.352,113.167,200.315,115.305,197.309,115.305z M197.309,112.864
		c1.412,0,2.26-1.372,2.26-2.663c0-1.332-0.848-2.703-2.26-2.703s-2.259,1.372-2.259,2.703
		C195.05,111.493,195.897,112.864,197.309,112.864z"/>
	<path fill="#FFFFFF" d="M205.984,108.346c-0.969,0-1.735-0.807-1.735-1.775c0-0.948,0.767-1.715,1.735-1.715
		c0.948,0,1.734,0.767,1.734,1.715C207.718,107.539,206.932,108.346,205.984,108.346z M205.984,115.366
		c-0.969,0-1.735-0.787-1.735-1.755c0-0.948,0.767-1.715,1.735-1.715c0.948,0,1.734,0.767,1.734,1.715
		C207.718,114.579,206.932,115.366,205.984,115.366z"/>
</g>
<g>
	<path fill="#FFFFFF" d="M195.967,38.762V21.049h4.701c3.707,0,6.105,1.478,6.105,5.5c0,3.756-2.035,5.597-5.646,5.597h-1.721v6.615
		H195.967z M200.11,29.288c2.06,0,3.15-0.46,3.15-2.763c0-2.277-1.309-2.593-3.247-2.593h-0.606v5.355H200.11z"/>
	<path fill="#FFFFFF" d="M215.905,38.762v-1.066h-0.049c-0.702,0.92-1.938,1.454-3.126,1.454c-3.392,0-5.307-3.077-5.307-6.203
		c0-3.053,1.938-6.082,5.259-6.082c1.188,0,2.423,0.509,3.223,1.454v-1.09h3.223v11.534H215.905z M213.481,29.772
		c-1.695,0-2.713,1.672-2.713,3.223s1.018,3.223,2.713,3.223c1.696,0,2.738-1.672,2.738-3.223S215.178,29.772,213.481,29.772z"/>
	<path fill="#FFFFFF" d="M225.012,28.44c0.679-1.018,1.648-1.575,2.884-1.575c0.46,0,0.921,0.121,1.357,0.267l-0.412,3.053
		c-0.388-0.267-0.849-0.412-1.357-0.412c-2.277,0-2.496,2.011-2.496,3.804v5.186h-3.295V27.229h3.295v1.211H225.012z"/>
	<path fill="#FFFFFF" d="M238.022,38.762v-1.066h-0.049c-0.702,0.92-1.938,1.454-3.126,1.454c-3.392,0-5.307-3.077-5.307-6.203
		c0-3.053,1.938-6.082,5.259-6.082c1.188,0,2.423,0.509,3.223,1.454v-1.09h3.223v11.534H238.022z M235.599,29.772
		c-1.695,0-2.713,1.672-2.713,3.223s1.018,3.223,2.713,3.223c1.696,0,2.738-1.672,2.738-3.223S237.295,29.772,235.599,29.772z"/>
	<path fill="#FFFFFF" d="M257.062,26.865c3.271,0,5.258,3.053,5.258,6.082c0,3.15-1.914,6.203-5.33,6.203
		c-1.164,0-2.399-0.533-3.078-1.478h-0.023v7.245h-3.296V27.229h3.296v1.066C254.639,27.398,255.85,26.865,257.062,26.865z
		 M256.262,29.772c-1.672,0-2.714,1.672-2.714,3.223s1.042,3.223,2.714,3.223c1.696,0,2.738-1.672,2.738-3.223
		S257.958,29.772,256.262,29.772z"/>
	<path fill="#FFFFFF" d="M270.045,39.15c-3.61,0-6.058-2.568-6.058-6.13c0-3.61,2.471-6.155,6.058-6.155
		c3.586,0,6.058,2.544,6.058,6.155C276.103,36.582,273.655,39.15,270.045,39.15z M270.045,36.218c1.696,0,2.714-1.647,2.714-3.198
		c0-1.599-1.018-3.247-2.714-3.247s-2.714,1.648-2.714,3.247C267.331,34.57,268.349,36.218,270.045,36.218z"/>
	<path fill="#FFFFFF" d="M286.179,37.672c-0.678,0.945-1.914,1.478-3.102,1.478c-3.393,0-5.307-3.077-5.307-6.203
		c0-3.053,1.938-6.082,5.259-6.082c1.187,0,2.423,0.509,3.149,1.43h0.049v-9.45h3.271v19.918h-3.271v-1.09H286.179z M283.828,29.772
		c-1.695,0-2.714,1.672-2.714,3.223s1.019,3.223,2.714,3.223c1.696,0,2.714-1.672,2.714-3.223S285.524,29.772,283.828,29.772z"/>
	<path fill="#FFFFFF" d="M297.151,36.63c1.091,0,1.77-0.654,2.205-1.575l3.029,0.485c-0.8,2.302-2.811,3.61-5.234,3.61
		c-3.562,0-5.742-2.544-5.742-6.034c0-3.513,1.842-6.251,5.598-6.251c3.779,0,5.451,2.787,5.451,6.251v0.412h-7.584
		C294.874,34.982,295.456,36.63,297.151,36.63z M297.176,29.167c-1.309,0-2.035,1.114-2.205,2.326h4.386
		C299.211,30.306,298.46,29.167,297.176,29.167z"/>
	<path fill="#FFFFFF" d="M307.955,28.44c0.679-1.018,1.648-1.575,2.884-1.575c0.46,0,0.921,0.121,1.357,0.267l-0.412,3.053
		c-0.388-0.267-0.849-0.412-1.357-0.412c-2.277,0-2.496,2.011-2.496,3.804v5.186h-3.295V27.229h3.295v1.211H307.955z"/>
	<path fill="#FFFFFF" d="M327.117,26.865c3.271,0,5.258,3.053,5.258,6.082c0,3.15-1.914,6.203-5.331,6.203
		c-1.162,0-2.398-0.533-3.077-1.478h-0.024v7.245h-3.295V27.229h3.295v1.066C324.694,27.398,325.905,26.865,327.117,26.865z
		 M326.317,29.772c-1.672,0-2.714,1.672-2.714,3.223s1.042,3.223,2.714,3.223c1.696,0,2.738-1.672,2.738-3.223
		S328.014,29.772,326.317,29.772z"/>
	<path fill="#FFFFFF" d="M342.814,38.762v-1.066h-0.049c-0.702,0.92-1.938,1.454-3.126,1.454c-3.392,0-5.307-3.077-5.307-6.203
		c0-3.053,1.938-6.082,5.259-6.082c1.187,0,2.423,0.509,3.223,1.454v-1.09h3.223v11.534H342.814z M340.392,29.772
		c-1.696,0-2.715,1.672-2.715,3.223s1.019,3.223,2.715,3.223c1.695,0,2.737-1.672,2.737-3.223S342.087,29.772,340.392,29.772z"/>
	<path fill="#FFFFFF" d="M351.921,28.44c0.679-1.018,1.648-1.575,2.884-1.575c0.46,0,0.921,0.121,1.356,0.267l-0.411,3.053
		c-0.388-0.267-0.849-0.412-1.357-0.412c-2.277,0-2.495,2.011-2.495,3.804v5.186h-3.296V27.229h3.296v1.211H351.921z"/>
	<path fill="#FFFFFF" d="M358.485,38.762v-8.748h-1.114v-2.786h1.114v-3.901h3.295v3.901h2.012v2.786h-2.012v8.748H358.485z"/>
	<path fill="#FFFFFF" d="M367.375,24.345c-1.065,0-1.938-0.872-1.938-1.938c0-1.066,0.873-1.963,1.938-1.963
		c1.091,0,1.963,0.897,1.963,1.963C369.338,23.473,368.466,24.345,367.375,24.345z M365.752,38.762V27.229h3.271v11.534H365.752z"/>
	<path fill="#FFFFFF" d="M377.235,29.627c-1.865,0-2.907,1.745-2.907,3.441c0,1.793,1.139,3.295,3.028,3.295
		c0.873,0,1.696-0.436,2.303-1.09v3.15c-0.896,0.509-1.842,0.727-2.859,0.727c-3.393,0-5.815-2.811-5.815-6.106
		c0-3.441,2.52-6.179,5.984-6.179c0.921,0,1.891,0.218,2.69,0.727v3.174C378.932,30.063,378.229,29.627,377.235,29.627z"/>
	<path fill="#FFFFFF" d="M383.483,24.345c-1.065,0-1.938-0.872-1.938-1.938c0-1.066,0.873-1.963,1.938-1.963
		c1.091,0,1.963,0.897,1.963,1.963C385.446,23.473,384.574,24.345,383.483,24.345z M381.86,38.762V27.229h3.271v11.534H381.86z"/>
	<path fill="#FFFFFF" d="M394.168,26.865c3.271,0,5.258,3.053,5.258,6.082c0,3.15-1.914,6.203-5.331,6.203
		c-1.162,0-2.398-0.533-3.077-1.478h-0.024v7.245h-3.295V27.229h3.295v1.066C391.745,27.398,392.956,26.865,394.168,26.865z
		 M393.368,29.772c-1.672,0-2.714,1.672-2.714,3.223s1.042,3.223,2.714,3.223c1.696,0,2.738-1.672,2.738-3.223
		S395.064,29.772,393.368,29.772z"/>
	<path fill="#FFFFFF" d="M409.866,38.762v-1.066h-0.049c-0.702,0.92-1.938,1.454-3.126,1.454c-3.392,0-5.307-3.077-5.307-6.203
		c0-3.053,1.938-6.082,5.259-6.082c1.188,0,2.423,0.509,3.223,1.454v-1.09h3.223v11.534H409.866z M407.442,29.772
		c-1.695,0-2.713,1.672-2.713,3.223s1.018,3.223,2.713,3.223c1.696,0,2.738-1.672,2.738-3.223S409.139,29.772,407.442,29.772z"/>
	<path fill="#FFFFFF" d="M418.972,28.44c0.679-1.018,1.648-1.575,2.884-1.575c0.46,0,0.921,0.121,1.356,0.267l-0.411,3.053
		c-0.388-0.267-0.849-0.412-1.357-0.412c-2.277,0-2.495,2.011-2.495,3.804v5.186h-3.296V27.229h3.296v1.211H418.972z"/>
	<path fill="#FFFFFF" d="M431.665,38.762V18.844h3.295v19.918H431.665z"/>
	<path fill="#FFFFFF" d="M437.575,38.762V18.844h3.295v19.918H437.575z"/>
	<path fill="#FFFFFF" d="M448.477,36.63c1.091,0,1.77-0.654,2.205-1.575l3.029,0.485c-0.8,2.302-2.811,3.61-5.234,3.61
		c-3.562,0-5.742-2.544-5.742-6.034c0-3.513,1.842-6.251,5.597-6.251c3.78,0,5.452,2.787,5.452,6.251v0.412h-7.584
		C446.199,34.982,446.78,36.63,448.477,36.63z M448.501,29.167c-1.309,0-2.035,1.114-2.205,2.326h4.386
		C450.536,30.306,449.785,29.167,448.501,29.167z"/>
	<path fill="#FFFFFF" d="M459.28,28.294c0.703-1.042,1.842-1.43,3.005-1.43c3.102,0,3.998,2.181,3.998,4.846v7.051h-3.271v-6.106
		c0-1.381,0.049-3.174-1.793-3.174c-1.962,0-1.962,2.181-1.962,3.586v5.694h-3.296V27.229h3.296v1.066H459.28z"/>
	<path fill="#FFFFFF" d="M476.699,38.762v-1.066h-0.049c-0.702,0.92-1.938,1.454-3.126,1.454c-3.392,0-5.307-3.077-5.307-6.203
		c0-3.053,1.938-6.082,5.259-6.082c1.187,0,2.423,0.509,3.223,1.454v-1.09h3.223v11.534H476.699z M474.276,29.772
		c-1.696,0-2.715,1.672-2.715,3.223s1.019,3.223,2.715,3.223c1.695,0,2.737-1.672,2.737-3.223S475.972,29.772,474.276,29.772z"/>
	<path fill="#FFFFFF" d="M489.923,38.762v-8.748h-1.114v-2.786h1.114v-3.901h3.295v3.901h2.012v2.786h-2.012v8.748H489.923z"/>
	<path fill="#FFFFFF" d="M502.134,39.15c-3.61,0-6.058-2.568-6.058-6.13c0-3.61,2.472-6.155,6.058-6.155s6.058,2.544,6.058,6.155
		C508.191,36.582,505.744,39.15,502.134,39.15z M502.134,36.218c1.696,0,2.714-1.647,2.714-3.198c0-1.599-1.018-3.247-2.714-3.247
		s-2.714,1.648-2.714,3.247C499.42,34.57,500.438,36.218,502.134,36.218z"/>
	<path fill="#FFFFFF" d="M518.267,37.672c-0.678,0.945-1.914,1.478-3.102,1.478c-3.393,0-5.307-3.077-5.307-6.203
		c0-3.053,1.938-6.082,5.259-6.082c1.187,0,2.423,0.509,3.149,1.43h0.049v-9.45h3.271v19.918h-3.271v-1.09H518.267z M515.916,29.772
		c-1.695,0-2.714,1.672-2.714,3.223s1.019,3.223,2.714,3.223c1.696,0,2.714-1.672,2.714-3.223S517.612,29.772,515.916,29.772z"/>
	<path fill="#FFFFFF" d="M529.579,39.15c-3.61,0-6.058-2.568-6.058-6.13c0-3.61,2.472-6.155,6.058-6.155s6.058,2.544,6.058,6.155
		C535.637,36.582,533.189,39.15,529.579,39.15z M529.579,36.218c1.696,0,2.714-1.647,2.714-3.198c0-1.599-1.018-3.247-2.714-3.247
		s-2.714,1.648-2.714,3.247C526.865,34.57,527.883,36.218,529.579,36.218z"/>
	<path fill="#FFFFFF" d="M541.764,29.167c-0.533,0-1.066,0.412-1.066,0.969c0,0.848,1.188,1.091,2.375,1.6
		c1.187,0.533,2.374,1.333,2.374,3.319c0,2.569-2.084,4.095-4.507,4.095c-1.551,0-3.053-0.727-4.046-1.938l1.502-1.938
		c0.63,0.703,1.478,1.333,2.447,1.333c0.727,0,1.309-0.484,1.309-1.235c0-1.018-1.163-1.26-2.302-1.745
		c-1.163-0.509-2.303-1.187-2.303-3.029c0-2.156,1.503-3.731,3.659-3.731c1.212,0,2.763,0.364,3.707,1.188l-1.405,1.914
		C543.048,29.506,542.418,29.167,541.764,29.167z"/>
	<path fill="#FFFFFF" d="M554.188,38.762V18.844h3.295v19.918H554.188z"/>
	<path fill="#FFFFFF" d="M565.43,39.15c-3.61,0-6.058-2.568-6.058-6.13c0-3.61,2.471-6.155,6.058-6.155
		c3.586,0,6.058,2.544,6.058,6.155C571.487,36.582,569.04,39.15,565.43,39.15z M565.43,36.218c1.696,0,2.714-1.647,2.714-3.198
		c0-1.599-1.018-3.247-2.714-3.247s-2.714,1.648-2.714,3.247C562.716,34.57,563.733,36.218,565.43,36.218z"/>
	<path fill="#FFFFFF" d="M577.614,29.167c-0.533,0-1.066,0.412-1.066,0.969c0,0.848,1.188,1.091,2.375,1.6
		c1.188,0.533,2.374,1.333,2.374,3.319c0,2.569-2.084,4.095-4.507,4.095c-1.551,0-3.053-0.727-4.047-1.938l1.503-1.938
		c0.63,0.703,1.478,1.333,2.447,1.333c0.727,0,1.309-0.484,1.309-1.235c0-1.018-1.163-1.26-2.302-1.745
		c-1.163-0.509-2.303-1.187-2.303-3.029c0-2.156,1.503-3.731,3.659-3.731c1.212,0,2.763,0.364,3.707,1.188l-1.405,1.914
		C578.898,29.506,578.269,29.167,577.614,29.167z"/>
	<path fill="#FFFFFF" d="M595.686,29.627c-1.865,0-2.907,1.745-2.907,3.441c0,1.793,1.139,3.295,3.028,3.295
		c0.873,0,1.696-0.436,2.303-1.09v3.15c-0.897,0.509-1.842,0.727-2.859,0.727c-3.393,0-5.815-2.811-5.815-6.106
		c0-3.441,2.52-6.179,5.984-6.179c0.921,0,1.891,0.218,2.69,0.727v3.174C597.382,30.063,596.68,29.627,595.686,29.627z"/>
	<path fill="#FFFFFF" d="M608.355,38.762v-1.066h-0.049c-0.702,0.92-1.938,1.454-3.126,1.454c-3.392,0-5.307-3.077-5.307-6.203
		c0-3.053,1.938-6.082,5.259-6.082c1.187,0,2.423,0.509,3.223,1.454v-1.09h3.223v11.534H608.355z M605.933,29.772
		c-1.696,0-2.715,1.672-2.715,3.223s1.019,3.223,2.715,3.223c1.695,0,2.737-1.672,2.737-3.223S607.628,29.772,605.933,29.772z"/>
	<path fill="#FFFFFF" d="M617.462,28.27c0.654-0.92,1.77-1.405,2.835-1.405c1.43,0,2.545,0.582,3.296,1.793
		c0.702-1.114,2.035-1.793,3.368-1.793c2.932,0,3.659,2.205,3.659,4.725v7.172h-3.296v-6.058c0-1.115,0.072-3.223-1.551-3.223
		c-1.769,0-1.745,2.423-1.745,3.634v5.646h-3.295v-5.84c0-1.139,0.146-3.44-1.575-3.44c-1.817,0-1.72,2.399-1.72,3.634v5.646h-3.296
		V27.229h3.296v1.042H617.462z"/>
	<path fill="#FFFFFF" d="M639.652,26.865c3.271,0,5.258,3.053,5.258,6.082c0,3.15-1.914,6.203-5.331,6.203
		c-1.162,0-2.398-0.533-3.077-1.478h-0.024v7.245h-3.295V27.229h3.295v1.066C637.229,27.398,638.44,26.865,639.652,26.865z
		 M638.853,29.772c-1.672,0-2.714,1.672-2.714,3.223s1.042,3.223,2.714,3.223c1.696,0,2.738-1.672,2.738-3.223
		S640.549,29.772,638.853,29.772z"/>
	<path fill="#FFFFFF" d="M652.636,39.15c-3.61,0-6.058-2.568-6.058-6.13c0-3.61,2.472-6.155,6.058-6.155s6.058,2.544,6.058,6.155
		C658.693,36.582,656.246,39.15,652.636,39.15z M652.636,36.218c1.696,0,2.714-1.647,2.714-3.198c0-1.599-1.018-3.247-2.714-3.247
		s-2.714,1.648-2.714,3.247C649.922,34.57,650.939,36.218,652.636,36.218z"/>
	<path fill="#FFFFFF" d="M664.819,29.167c-0.533,0-1.066,0.412-1.066,0.969c0,0.848,1.188,1.091,2.375,1.6
		c1.188,0.533,2.374,1.333,2.374,3.319c0,2.569-2.084,4.095-4.507,4.095c-1.551,0-3.053-0.727-4.047-1.938l1.503-1.938
		c0.63,0.703,1.478,1.333,2.447,1.333c0.727,0,1.309-0.484,1.309-1.235c0-1.018-1.163-1.26-2.302-1.745
		c-1.163-0.509-2.303-1.187-2.303-3.029c0-2.156,1.503-3.731,3.659-3.731c1.212,0,2.763,0.364,3.707,1.188l-1.405,1.914
		C666.104,29.506,665.474,29.167,664.819,29.167z"/>
	<path fill="#FFFFFF" d="M681.146,29.167c-0.533,0-1.066,0.412-1.066,0.969c0,0.848,1.188,1.091,2.375,1.6
		c1.187,0.533,2.374,1.333,2.374,3.319c0,2.569-2.084,4.095-4.507,4.095c-1.551,0-3.053-0.727-4.046-1.938l1.502-1.938
		c0.63,0.703,1.478,1.333,2.447,1.333c0.727,0,1.309-0.484,1.309-1.235c0-1.018-1.163-1.26-2.302-1.745
		c-1.163-0.509-2.303-1.187-2.303-3.029c0-2.156,1.503-3.731,3.659-3.731c1.212,0,2.763,0.364,3.707,1.188l-1.405,1.914
		C682.431,29.506,681.801,29.167,681.146,29.167z"/>
	<path fill="#FFFFFF" d="M692.12,39.15c-3.61,0-6.058-2.568-6.058-6.13c0-3.61,2.472-6.155,6.058-6.155s6.058,2.544,6.058,6.155
		C698.178,36.582,695.73,39.15,692.12,39.15z M692.12,36.218c1.696,0,2.714-1.647,2.714-3.198c0-1.599-1.018-3.247-2.714-3.247
		s-2.714,1.648-2.714,3.247C689.406,34.57,690.424,36.218,692.12,36.218z"/>
	<path fill="#FFFFFF" d="M700.403,38.762V18.844h3.295v19.918H700.403z"/>
	<path fill="#FFFFFF" d="M707.937,24.345c-1.065,0-1.938-0.872-1.938-1.938c0-1.066,0.873-1.963,1.938-1.963
		c1.091,0,1.963,0.897,1.963,1.963C709.899,23.473,709.027,24.345,707.937,24.345z M706.313,38.762V27.229h3.271v11.534H706.313z"/>
	<path fill="#FFFFFF" d="M717.797,29.627c-1.865,0-2.907,1.745-2.907,3.441c0,1.793,1.139,3.295,3.028,3.295
		c0.873,0,1.696-0.436,2.303-1.09v3.15c-0.897,0.509-1.842,0.727-2.859,0.727c-3.393,0-5.815-2.811-5.815-6.106
		c0-3.441,2.52-6.179,5.984-6.179c0.921,0,1.891,0.218,2.69,0.727v3.174C719.493,30.063,718.791,29.627,717.797,29.627z"/>
	<path fill="#FFFFFF" d="M724.045,24.345c-1.065,0-1.938-0.872-1.938-1.938c0-1.066,0.873-1.963,1.938-1.963
		c1.091,0,1.963,0.897,1.963,1.963C726.008,23.473,725.136,24.345,724.045,24.345z M722.422,38.762V27.229h3.271v11.534H722.422z"/>
	<path fill="#FFFFFF" d="M728.914,38.762v-8.748H727.8v-2.786h1.114v-3.901h3.295v3.901h2.012v2.786h-2.012v8.748H728.914z"/>
	<path fill="#FFFFFF" d="M743.839,38.762v-1.066h-0.049c-0.702,0.92-1.938,1.454-3.126,1.454c-3.392,0-5.307-3.077-5.307-6.203
		c0-3.053,1.938-6.082,5.259-6.082c1.188,0,2.423,0.509,3.223,1.454v-1.09h3.223v11.534H743.839z M741.415,29.772
		c-1.695,0-2.713,1.672-2.713,3.223s1.018,3.223,2.713,3.223c1.696,0,2.738-1.672,2.738-3.223S743.111,29.772,741.415,29.772z"/>
	<path fill="#FFFFFF" d="M757.477,37.672c-0.679,0.945-1.914,1.478-3.102,1.478c-3.392,0-5.307-3.077-5.307-6.203
		c0-3.053,1.938-6.082,5.259-6.082c1.187,0,2.423,0.509,3.149,1.43h0.049v-9.45h3.271v19.918h-3.271v-1.09H757.477z M755.126,29.772
		c-1.695,0-2.714,1.672-2.714,3.223s1.019,3.223,2.714,3.223c1.696,0,2.714-1.672,2.714-3.223S756.822,29.772,755.126,29.772z"/>
	<path fill="#FFFFFF" d="M768.789,39.15c-3.61,0-6.058-2.568-6.058-6.13c0-3.61,2.471-6.155,6.058-6.155
		c3.586,0,6.058,2.544,6.058,6.155C774.847,36.582,772.399,39.15,768.789,39.15z M768.789,36.218c1.696,0,2.714-1.647,2.714-3.198
		c0-1.599-1.018-3.247-2.714-3.247s-2.714,1.648-2.714,3.247C766.075,34.57,767.093,36.218,768.789,36.218z"/>
	<path fill="#FFFFFF" d="M780.973,29.167c-0.533,0-1.066,0.412-1.066,0.969c0,0.848,1.188,1.091,2.375,1.6
		c1.187,0.533,2.374,1.333,2.374,3.319c0,2.569-2.084,4.095-4.507,4.095c-1.551,0-3.053-0.727-4.046-1.938l1.502-1.938
		c0.63,0.703,1.478,1.333,2.447,1.333c0.727,0,1.309-0.484,1.309-1.235c0-1.018-1.163-1.26-2.302-1.745
		c-1.163-0.509-2.303-1.187-2.303-3.029c0-2.156,1.503-3.731,3.659-3.731c1.212,0,2.763,0.364,3.707,1.188l-1.405,1.914
		C782.257,29.506,781.627,29.167,780.973,29.167z"/>
	<path fill="#FFFFFF" d="M795.87,30.475c0,3.368,0.509,7.463,1.914,10.541l-2.011,1.381c-1.77-3.465-2.375-8.19-2.375-12.067
		c0-3.805,0.679-8.36,2.375-11.776l2.011,1.357C796.379,23.109,795.87,27.01,795.87,30.475z"/>
	<path fill="#FFFFFF" d="M804.228,23.254l1.793-1.211l0.849,1.575l-1.891,1.163l1.891,1.188l-0.849,1.575l-1.793-1.236l0.049,2.326
		h-2.035l0.072-2.326l-1.817,1.236l-0.848-1.575l1.841-1.188l-1.865-1.163l0.823-1.575l1.866,1.211l-0.072-2.375h2.035
		L804.228,23.254z"/>
	<path fill="#FFFFFF" d="M813.312,29.627c-1.865,0-2.907,1.745-2.907,3.441c0,1.793,1.139,3.295,3.028,3.295
		c0.873,0,1.696-0.436,2.303-1.09v3.15c-0.896,0.509-1.842,0.727-2.859,0.727c-3.393,0-5.815-2.811-5.815-6.106
		c0-3.441,2.52-6.179,5.984-6.179c0.921,0,1.891,0.218,2.69,0.727v3.174C815.008,30.063,814.306,29.627,813.312,29.627z"/>
	<path fill="#FFFFFF" d="M825.981,38.762v-1.066h-0.049c-0.702,0.92-1.938,1.454-3.126,1.454c-3.392,0-5.307-3.077-5.307-6.203
		c0-3.053,1.938-6.082,5.259-6.082c1.188,0,2.423,0.509,3.223,1.454v-1.09h3.223v11.534H825.981z M823.558,29.772
		c-1.695,0-2.713,1.672-2.713,3.223s1.018,3.223,2.713,3.223c1.696,0,2.738-1.672,2.738-3.223S825.254,29.772,823.558,29.772z"/>
	<path fill="#FFFFFF" d="M835.088,28.27c0.654-0.92,1.77-1.405,2.835-1.405c1.43,0,2.545,0.582,3.296,1.793
		c0.702-1.114,2.035-1.793,3.368-1.793c2.932,0,3.658,2.205,3.658,4.725v7.172h-3.295v-6.058c0-1.115,0.072-3.223-1.551-3.223
		c-1.769,0-1.744,2.423-1.744,3.634v5.646h-3.296v-5.84c0-1.139,0.146-3.44-1.575-3.44c-1.817,0-1.721,2.399-1.721,3.634v5.646
		h-3.295V27.229h3.295v1.042H835.088z"/>
	<path fill="#FFFFFF" d="M857.278,26.865c3.271,0,5.258,3.053,5.258,6.082c0,3.15-1.914,6.203-5.33,6.203
		c-1.164,0-2.399-0.533-3.078-1.478h-0.023v7.245h-3.296V27.229h3.296v1.066C854.855,27.398,856.066,26.865,857.278,26.865z
		 M856.479,29.772c-1.672,0-2.714,1.672-2.714,3.223s1.042,3.223,2.714,3.223c1.696,0,2.738-1.672,2.738-3.223
		S858.175,29.772,856.479,29.772z"/>
	<path fill="#FFFFFF" d="M870.262,39.15c-3.61,0-6.058-2.568-6.058-6.13c0-3.61,2.471-6.155,6.058-6.155
		c3.586,0,6.058,2.544,6.058,6.155C876.319,36.582,873.872,39.15,870.262,39.15z M870.262,36.218c1.696,0,2.714-1.647,2.714-3.198
		c0-1.599-1.018-3.247-2.714-3.247s-2.714,1.648-2.714,3.247C867.548,34.57,868.565,36.218,870.262,36.218z"/>
	<path fill="#FFFFFF" d="M882.446,29.167c-0.533,0-1.066,0.412-1.066,0.969c0,0.848,1.188,1.091,2.375,1.6
		c1.188,0.533,2.374,1.333,2.374,3.319c0,2.569-2.084,4.095-4.507,4.095c-1.551,0-3.053-0.727-4.047-1.938l1.503-1.938
		c0.63,0.703,1.478,1.333,2.447,1.333c0.727,0,1.309-0.484,1.309-1.235c0-1.018-1.163-1.26-2.302-1.745
		c-1.163-0.509-2.303-1.187-2.303-3.029c0-2.156,1.503-3.731,3.659-3.731c1.212,0,2.763,0.364,3.707,1.188l-1.405,1.914
		C883.73,29.506,883.101,29.167,882.446,29.167z"/>
	<path fill="#FFFFFF" d="M900.202,39.15c-3.61,0-6.058-2.568-6.058-6.13c0-3.61,2.472-6.155,6.058-6.155s6.058,2.544,6.058,6.155
		C906.26,36.582,903.812,39.15,900.202,39.15z M900.202,36.218c1.696,0,2.714-1.647,2.714-3.198c0-1.599-1.018-3.247-2.714-3.247
		s-2.714,1.648-2.714,3.247C897.488,34.57,898.506,36.218,900.202,36.218z"/>
	<path fill="#FFFFFF" d="M911.78,18.844v9.45c0.752-0.896,1.963-1.43,3.175-1.43c3.271,0,5.258,3.053,5.258,6.082
		c0,3.15-1.914,6.203-5.331,6.203c-1.162,0-2.398-0.533-3.077-1.478h-0.024v1.09h-3.295V18.844H911.78z M914.155,29.772
		c-1.672,0-2.714,1.672-2.714,3.223s1.042,3.223,2.714,3.223c1.696,0,2.738-1.672,2.738-3.223S915.852,29.772,914.155,29.772z"/>
	<path fill="#FFFFFF" d="M922.607,38.762V18.844h3.296v19.918H922.607z"/>
	<path fill="#FFFFFF" d="M930.141,24.345c-1.065,0-1.938-0.872-1.938-1.938c0-1.066,0.873-1.963,1.938-1.963
		c1.091,0,1.963,0.897,1.963,1.963C932.104,23.473,931.231,24.345,930.141,24.345z M928.518,38.762V27.229h3.271v11.534H928.518z"/>
	<path fill="#FFFFFF" d="M939.929,44.917c-2.811,0-5.67-1.721-5.815-4.798h3.465c0.17,1.236,1.042,2.035,2.277,2.035
		c2.326,0,2.375-2.06,2.375-3.78v-0.751h-0.049c-0.702,0.92-1.938,1.526-3.149,1.526c-3.368,0-5.186-2.98-5.186-6.058
		c0-3.174,1.914-6.228,5.355-6.228c1.139,0,2.326,0.582,2.979,1.478h0.049v-1.114h3.296V38.06
		C945.526,41.815,944.241,44.917,939.929,44.917z M939.904,29.772c-1.696,0-2.714,1.696-2.714,3.247s1.018,3.198,2.714,3.198
		s2.714-1.647,2.714-3.198S941.601,29.772,939.904,29.772z"/>
	<path fill="#FFFFFF" d="M956.136,38.762v-1.066h-0.049c-0.702,0.92-1.938,1.454-3.126,1.454c-3.392,0-5.307-3.077-5.307-6.203
		c0-3.053,1.938-6.082,5.259-6.082c1.188,0,2.423,0.509,3.223,1.454v-1.09h3.223v11.534H956.136z M953.712,29.772
		c-1.695,0-2.713,1.672-2.713,3.223s1.018,3.223,2.713,3.223c1.696,0,2.738-1.672,2.738-3.223S955.408,29.772,953.712,29.772z"/>
	<path fill="#FFFFFF" d="M962.577,38.762v-8.748h-1.114v-2.786h1.114v-3.901h3.295v3.901h2.012v2.786h-2.012v8.748H962.577z"/>
	<path fill="#FFFFFF" d="M974.787,39.15c-3.61,0-6.058-2.568-6.058-6.13c0-3.61,2.471-6.155,6.058-6.155
		c3.586,0,6.058,2.544,6.058,6.155C980.845,36.582,978.397,39.15,974.787,39.15z M974.787,36.218c1.696,0,2.714-1.647,2.714-3.198
		c0-1.599-1.018-3.247-2.714-3.247s-2.714,1.648-2.714,3.247C972.073,34.57,973.091,36.218,974.787,36.218z"/>
	<path fill="#FFFFFF" d="M986.39,28.44c0.679-1.018,1.648-1.575,2.884-1.575c0.46,0,0.921,0.121,1.356,0.267l-0.411,3.053
		c-0.388-0.267-0.849-0.412-1.357-0.412c-2.277,0-2.495,2.011-2.495,3.804v5.186h-3.296V27.229h3.296v1.211H986.39z"/>
	<path fill="#FFFFFF" d="M993.729,24.345c-1.065,0-1.938-0.872-1.938-1.938c0-1.066,0.873-1.963,1.938-1.963
		c1.091,0,1.963,0.897,1.963,1.963C995.691,23.473,994.819,24.345,993.729,24.345z M992.105,38.762V27.229h3.271v11.534H992.105z"/>
	<path fill="#FFFFFF" d="M1003.274,39.15c-3.61,0-6.058-2.568-6.058-6.13c0-3.61,2.472-6.155,6.058-6.155s6.058,2.544,6.058,6.155
		C1009.332,36.582,1006.885,39.15,1003.274,39.15z M1003.274,36.218c1.696,0,2.714-1.647,2.714-3.198
		c0-1.599-1.018-3.247-2.714-3.247s-2.714,1.648-2.714,3.247C1000.561,34.57,1001.578,36.218,1003.274,36.218z"/>
	<path fill="#FFFFFF" d="M1015.459,29.167c-0.533,0-1.066,0.412-1.066,0.969c0,0.848,1.188,1.091,2.375,1.6
		c1.187,0.533,2.374,1.333,2.374,3.319c0,2.569-2.084,4.095-4.507,4.095c-1.551,0-3.053-0.727-4.046-1.938l1.502-1.938
		c0.63,0.703,1.478,1.333,2.447,1.333c0.727,0,1.309-0.484,1.309-1.235c0-1.018-1.163-1.26-2.302-1.745
		c-1.163-0.509-2.303-1.187-2.303-3.029c0-2.156,1.503-3.731,3.659-3.731c1.212,0,2.763,0.364,3.707,1.188l-1.405,1.914
		C1016.743,29.506,1016.113,29.167,1015.459,29.167z"/>
	<path fill="#FFFFFF" d="M1022.87,18.578c1.696,3.417,2.375,7.972,2.375,11.776c0,3.877-0.605,8.602-2.375,12.067l-2.011-1.381
		c1.405-3.078,1.938-7.172,1.938-10.541c0-3.465-0.533-7.366-1.938-10.565L1022.87,18.578z"/>
</g>
<g>
	<path fill="#F1FFFF" d="M380.364,148.536h4.095c4.257,0,7.121,3.187,7.121,7.403c0,4.135-2.925,7.343-7.141,7.343h-4.075V148.536z
		 M383.229,160.78h0.464c3.551,0,4.922-1.957,4.922-4.861c0-3.208-1.653-4.882-4.922-4.882h-0.464V160.78z"/>
	<path fill="#F1FFFF" d="M394.646,152.288l-1.392-0.847l2.34-3.288l1.997,1.21L394.646,152.288z M393.597,163.282v-9.602h2.724
		v9.602H393.597z"/>
	<path fill="#F1FFFF" d="M404.853,163.282v-0.888h-0.04c-0.585,0.767-1.614,1.21-2.603,1.21c-2.824,0-4.418-2.562-4.418-5.164
		c0-2.542,1.614-5.063,4.378-5.063c0.988,0,2.017,0.423,2.683,1.21v-0.908h2.683v9.602H404.853z M402.835,155.798
		c-1.412,0-2.259,1.392-2.259,2.683s0.847,2.683,2.259,2.683s2.279-1.392,2.279-2.683S404.247,155.798,402.835,155.798z"/>
</g>
<g>
	<path fill="#F1FFFF" d="M492.827,154.144l-3.328,9.34h-1.009l-3.228-9.34h-0.041l-1.311,9.138h-2.885l2.481-15.129h2.037
		l3.631,9.723l3.49-9.723h2.058l2.219,15.129h-2.905l-1.17-9.138H492.827z"/>
	<path fill="#F1FFFF" d="M502.71,161.507c0.908,0,1.473-0.545,1.836-1.312l2.521,0.403c-0.666,1.917-2.34,3.006-4.357,3.006
		c-2.965,0-4.78-2.118-4.78-5.023c0-2.925,1.533-5.204,4.659-5.204c3.147,0,4.539,2.32,4.539,5.204v0.343h-6.314
		C500.813,160.135,501.298,161.507,502.71,161.507z M502.73,155.293c-1.09,0-1.694,0.928-1.836,1.937h3.651
		C504.425,156.242,503.8,155.293,502.73,155.293z"/>
	<path fill="#F1FFFF" d="M512.191,155.293c-0.444,0-0.888,0.343-0.888,0.807c0,0.706,0.988,0.908,1.977,1.331
		c0.988,0.444,1.977,1.11,1.977,2.764c0,2.138-1.734,3.409-3.752,3.409c-1.291,0-2.541-0.605-3.368-1.614l1.25-1.614
		c0.524,0.585,1.23,1.109,2.038,1.109c0.604,0,1.089-0.403,1.089-1.029c0-0.847-0.968-1.049-1.916-1.452
		c-0.969-0.424-1.917-0.989-1.917-2.521c0-1.795,1.251-3.106,3.047-3.106c1.008,0,2.299,0.302,3.086,0.988l-1.17,1.594
		C513.26,155.576,512.735,155.293,512.191,155.293z"/>
</g>
<g>
	<path fill="#F1FFFF" d="M590.493,163.282h-3.026l5.749-15.129h2.22l5.587,15.129h-3.065l-1.13-3.106h-5.124L590.493,163.282z
		 M594.145,152.47l-1.614,5.366h3.49l-1.836-5.366H594.145z"/>
	<path fill="#F1FFFF" d="M604.835,154.567c0.585-0.867,1.533-1.19,2.501-1.19c2.582,0,3.329,1.815,3.329,4.034v5.87h-2.724v-5.083
		c0-1.15,0.04-2.643-1.493-2.643c-1.634,0-1.634,1.815-1.634,2.986v4.74h-2.743v-9.602h2.743v0.888H604.835z M604.795,148.758
		c0.464,0,1.008,0.222,1.492,0.403c0.505,0.202,0.969,0.444,1.271,0.444c0.545,0,0.706-0.403,0.929-0.827h1.613
		c-0.222,1.251-0.888,2.764-2.36,2.764c-0.403,0-0.887-0.222-1.352-0.444c-0.464-0.202-0.928-0.423-1.291-0.423
		c-0.483,0-0.726,0.383-0.847,0.807h-1.594C602.757,150.352,603.443,148.758,604.795,148.758z"/>
	<path fill="#F1FFFF" d="M617.239,163.604c-3.005,0-5.043-2.138-5.043-5.104c0-3.006,2.058-5.124,5.043-5.124
		c2.986,0,5.043,2.118,5.043,5.124C622.282,161.466,620.245,163.604,617.239,163.604z M617.239,161.164
		c1.412,0,2.26-1.372,2.26-2.663c0-1.332-0.848-2.703-2.26-2.703s-2.259,1.372-2.259,2.703
		C614.98,159.792,615.827,161.164,617.239,161.164z"/>
</g>
<g>
	<path fill="#FFFFFF" d="M44.03,150.372l1.492-1.009l0.706,1.312l-1.573,0.968l1.573,0.988l-0.706,1.311l-1.492-1.029l0.04,1.937
		h-1.694l0.061-1.937l-1.514,1.029l-0.705-1.311l1.532-0.988l-1.553-0.968l0.686-1.312l1.554,1.009l-0.061-1.977h1.694
		L44.03,150.372z"/>
	<path fill="#FFFFFF" d="M49.757,151.037v3.248h4.176v2.501h-4.176v6.496h-2.864v-14.746h7.303v2.501H49.757z"/>
	<path fill="#FFFFFF" d="M60.045,161.507c0.908,0,1.473-0.545,1.836-1.312l2.521,0.403c-0.666,1.917-2.34,3.006-4.357,3.006
		c-2.965,0-4.78-2.118-4.78-5.023c0-2.925,1.533-5.204,4.659-5.204c3.147,0,4.539,2.32,4.539,5.204v0.343h-6.314
		C58.149,160.135,58.633,161.507,60.045,161.507z M60.066,155.293c-1.09,0-1.694,0.928-1.836,1.937h3.651
		C61.76,156.242,61.135,155.293,60.066,155.293z"/>
	<path fill="#FFFFFF" d="M70.978,155.677c-1.554,0-2.421,1.453-2.421,2.865c0,1.493,0.948,2.743,2.521,2.743
		c0.727,0,1.412-0.363,1.917-0.908V163c-0.747,0.423-1.533,0.605-2.381,0.605c-2.824,0-4.841-2.34-4.841-5.083
		c0-2.864,2.098-5.144,4.982-5.144c0.767,0,1.573,0.181,2.239,0.605v2.643C72.39,156.04,71.805,155.677,70.978,155.677z"/>
	<path fill="#FFFFFF" d="M77.574,154.487h0.021c0.585-0.787,1.533-1.109,2.501-1.109c2.582,0,3.329,1.815,3.329,4.034v5.87h-2.724
		v-5.083c0-1.15,0.04-2.643-1.493-2.643c-1.634,0-1.634,1.815-1.634,2.986v4.74h-2.743V146.7h2.743V154.487z"/>
	<path fill="#FFFFFF" d="M92.158,163.282v-0.888h-0.04c-0.585,0.767-1.614,1.21-2.603,1.21c-2.824,0-4.418-2.562-4.418-5.164
		c0-2.542,1.614-5.063,4.378-5.063c0.988,0,2.017,0.423,2.683,1.21v-0.908h2.683v9.602H92.158z M90.14,155.798
		c-1.412,0-2.259,1.392-2.259,2.683s0.847,2.683,2.259,2.683s2.279-1.392,2.279-2.683S91.552,155.798,90.14,155.798z"/>
	<path fill="#FFFFFF" d="M109.163,162.374c-0.565,0.787-1.594,1.23-2.582,1.23c-2.824,0-4.418-2.562-4.418-5.164
		c0-2.542,1.613-5.063,4.377-5.063c0.988,0,2.018,0.423,2.623,1.19h0.04V146.7h2.724v16.582h-2.724v-0.908H109.163z
		 M107.206,155.798c-1.412,0-2.26,1.392-2.26,2.683s0.848,2.683,2.26,2.683s2.259-1.392,2.259-2.683
		S108.618,155.798,107.206,155.798z"/>
	<path fill="#FFFFFF" d="M118.299,161.507c0.908,0,1.473-0.545,1.836-1.312l2.521,0.403c-0.666,1.917-2.34,3.006-4.357,3.006
		c-2.965,0-4.78-2.118-4.78-5.023c0-2.925,1.533-5.204,4.659-5.204c3.147,0,4.539,2.32,4.539,5.204v0.343h-6.314
		C116.403,160.135,116.887,161.507,118.299,161.507z M118.32,155.293c-1.09,0-1.694,0.928-1.836,1.937h3.651
		C120.014,156.242,119.389,155.293,118.32,155.293z"/>
	<path fill="#FFFFFF" d="M132.944,154.567c0.585-0.867,1.533-1.19,2.501-1.19c2.582,0,3.329,1.815,3.329,4.034v5.87h-2.724v-5.083
		c0-1.15,0.04-2.643-1.493-2.643c-1.634,0-1.634,1.815-1.634,2.986v4.74h-2.743v-9.602h2.743v0.888H132.944z"/>
	<path fill="#FFFFFF" d="M147.448,163.282v-0.888h-0.04c-0.585,0.767-1.614,1.21-2.603,1.21c-2.824,0-4.418-2.562-4.418-5.164
		c0-2.542,1.614-5.063,4.378-5.063c0.988,0,2.017,0.423,2.683,1.21v-0.908h2.683v9.602H147.448z M145.43,155.798
		c-1.412,0-2.259,1.392-2.259,2.683s0.847,2.683,2.259,2.683s2.279-1.392,2.279-2.683S146.842,155.798,145.43,155.798z"/>
	<path fill="#FFFFFF" d="M156.968,155.677c-1.554,0-2.421,1.453-2.421,2.865c0,1.493,0.948,2.743,2.521,2.743
		c0.727,0,1.412-0.363,1.917-0.908V163c-0.747,0.423-1.533,0.605-2.381,0.605c-2.824,0-4.841-2.34-4.841-5.083
		c0-2.864,2.098-5.144,4.982-5.144c0.767,0,1.573,0.181,2.239,0.605v2.643C158.38,156.04,157.795,155.677,156.968,155.677z"/>
	<path fill="#FFFFFF" d="M162.172,151.279c-0.888,0-1.614-0.726-1.614-1.614s0.727-1.634,1.614-1.634
		c0.908,0,1.634,0.746,1.634,1.634S163.081,151.279,162.172,151.279z M160.821,163.282v-9.602h2.724v9.602H160.821z"/>
	<path fill="#FFFFFF" d="M168.446,154.547c0.545-0.767,1.473-1.17,2.36-1.17c1.189,0,2.118,0.484,2.743,1.493
		c0.585-0.928,1.694-1.493,2.804-1.493c2.441,0,3.046,1.835,3.046,3.933v5.971h-2.743v-5.043c0-0.928,0.061-2.683-1.291-2.683
		c-1.473,0-1.452,2.018-1.452,3.026v4.7h-2.744v-4.861c0-0.948,0.121-2.865-1.311-2.865c-1.513,0-1.433,1.997-1.433,3.026v4.7
		h-2.743v-9.602h2.743v0.868H168.446z"/>
	<path fill="#FFFFFF" d="M182.888,151.279c-0.888,0-1.614-0.726-1.614-1.614s0.727-1.634,1.614-1.634
		c0.907,0,1.634,0.746,1.634,1.634S183.795,151.279,182.888,151.279z M181.537,163.282v-9.602h2.724v9.602H181.537z"/>
	<path fill="#FFFFFF" d="M190.552,161.507c0.908,0,1.473-0.545,1.836-1.312l2.521,0.403c-0.666,1.917-2.34,3.006-4.357,3.006
		c-2.965,0-4.78-2.118-4.78-5.023c0-2.925,1.533-5.204,4.659-5.204c3.147,0,4.539,2.32,4.539,5.204v0.343h-6.313
		C188.657,160.135,189.14,161.507,190.552,161.507z M190.573,155.293c-1.09,0-1.694,0.928-1.836,1.937h3.651
		C192.267,156.242,191.642,155.293,190.573,155.293z"/>
	<path fill="#FFFFFF" d="M199.549,154.567c0.585-0.867,1.533-1.19,2.501-1.19c2.582,0,3.329,1.815,3.329,4.034v5.87h-2.724v-5.083
		c0-1.15,0.04-2.643-1.493-2.643c-1.634,0-1.634,1.815-1.634,2.986v4.74h-2.743v-9.602h2.743v0.888H199.549z"/>
	<path fill="#FFFFFF" d="M207.578,163.282V156h-0.928v-2.32h0.928v-3.248h2.743v3.248h1.674V156h-1.674v7.282H207.578z"/>
	<path fill="#FFFFFF" d="M217.744,163.604c-3.005,0-5.043-2.138-5.043-5.104c0-3.006,2.058-5.124,5.043-5.124
		s5.043,2.118,5.043,5.124C222.787,161.466,220.75,163.604,217.744,163.604z M217.744,161.164c1.412,0,2.26-1.372,2.26-2.663
		c0-1.332-0.848-2.703-2.26-2.703s-2.259,1.372-2.259,2.703C215.485,159.792,216.332,161.164,217.744,161.164z"/>
	<path fill="#FFFFFF" d="M226.417,156.645c-0.969,0-1.735-0.807-1.735-1.775c0-0.948,0.767-1.715,1.735-1.715
		c0.948,0,1.734,0.767,1.734,1.715C228.152,155.838,227.366,156.645,226.417,156.645z M226.417,163.665
		c-0.969,0-1.735-0.787-1.735-1.755c0-0.948,0.767-1.715,1.735-1.715c0.948,0,1.734,0.767,1.734,1.715
		C228.152,162.878,227.366,163.665,226.417,163.665z"/>
</g>
<g>
	<path fill="#FFFFFF" d="M44.03,206.437l1.492-1.009l0.706,1.312l-1.573,0.968l1.573,0.988l-0.706,1.311l-1.492-1.029l0.04,1.937
		h-1.694l0.061-1.937l-1.514,1.029l-0.705-1.311l1.532-0.988l-1.553-0.968l0.686-1.312l1.554,1.009l-0.061-1.977h1.694
		L44.03,206.437z"/>
	<path fill="#FFFFFF" d="M51.794,219.347H48.93v-12.245h-2.985v-2.501h8.815v2.501h-2.966V219.347z"/>
	<path fill="#FFFFFF" d="M59.117,217.572c0.908,0,1.473-0.545,1.836-1.312l2.521,0.403c-0.666,1.917-2.34,3.006-4.357,3.006
		c-2.965,0-4.78-2.118-4.78-5.023c0-2.925,1.533-5.204,4.659-5.204c3.147,0,4.539,2.32,4.539,5.204v0.343h-6.313
		C57.221,216.2,57.705,217.572,59.117,217.572z M59.137,211.359c-1.09,0-1.694,0.928-1.836,1.937h3.651
		C60.832,212.307,60.207,211.359,59.137,211.359z"/>
	<path fill="#FFFFFF" d="M65.35,219.347v-16.582h2.743v16.582H65.35z"/>
	<path fill="#FFFFFF" d="M72.532,214.99c0,1.21,0.483,2.582,1.896,2.582c0.908,0,1.473-0.545,1.836-1.312l2.521,0.403
		c-0.666,1.917-2.34,3.006-4.357,3.006c-2.965,0-4.78-2.118-4.78-5.023c0-2.925,1.533-5.204,4.659-5.204
		c3.147,0,4.539,2.32,4.539,5.204v0.343H72.532z M76.263,213.295c-0.121-0.988-0.746-1.937-1.815-1.937
		c-1.09,0-1.694,0.928-1.836,1.937H76.263z M77.211,205.428l-2.945,2.925l-1.392-0.847l2.34-3.288L77.211,205.428z"/>
	<path fill="#FFFFFF" d="M80.922,219.347v-7.282h-0.929v-2.32h0.929v-2.804c0-2.36,0.968-4.397,3.61-4.397
		c0.443,0,0.908,0.101,1.312,0.302v2.441c-0.363-0.161-0.706-0.323-1.109-0.323c-1.211,0-1.09,1.574-1.09,2.36v2.42h2.199v2.32
		h-2.199v7.282H80.922z"/>
	<path fill="#FFFFFF" d="M91.452,219.67c-3.005,0-5.043-2.138-5.043-5.104c0-3.006,2.058-5.124,5.043-5.124
		c2.986,0,5.043,2.118,5.043,5.124C96.495,217.532,94.458,219.67,91.452,219.67z M91.452,217.229c1.412,0,2.26-1.372,2.26-2.663
		c0-1.332-0.848-2.703-2.26-2.703s-2.259,1.372-2.259,2.703C89.193,215.857,90.04,217.229,91.452,217.229z"/>
	<path fill="#FFFFFF" d="M101.114,210.633c0.585-0.867,1.533-1.19,2.501-1.19c2.582,0,3.329,1.815,3.329,4.034v5.87h-2.724v-5.083
		c0-1.15,0.04-2.643-1.493-2.643c-1.634,0-1.634,1.815-1.634,2.986v4.74H98.35v-9.602h2.743v0.888H101.114z"/>
	<path fill="#FFFFFF" d="M113.518,219.67c-3.005,0-5.043-2.138-5.043-5.104c0-3.006,2.058-5.124,5.043-5.124
		c2.986,0,5.043,2.118,5.043,5.124C118.561,217.532,116.524,219.67,113.518,219.67z M113.518,217.229c1.412,0,2.26-1.372,2.26-2.663
		c0-1.332-0.848-2.703-2.26-2.703s-2.259,1.372-2.259,2.703C111.259,215.857,112.106,217.229,113.518,217.229z"/>
	<path fill="#FFFFFF" d="M136.191,208.515c-0.807-0.968-2.017-1.553-3.247-1.553c-2.743,0-4.337,2.542-4.337,5.083
		c0,2.481,1.653,4.962,4.316,4.962c1.23,0,2.461-0.646,3.268-1.574v3.43c-1.068,0.504-2.138,0.867-3.349,0.867
		c-4.135,0-7.201-3.57-7.201-7.625c0-4.196,2.945-7.887,7.262-7.887c1.15,0,2.3,0.323,3.288,0.867V208.515z"/>
	<path fill="#FFFFFF" d="M142.363,217.572c0.908,0,1.473-0.545,1.836-1.312l2.521,0.403c-0.666,1.917-2.34,3.006-4.357,3.006
		c-2.965,0-4.78-2.118-4.78-5.023c0-2.925,1.533-5.204,4.659-5.204c3.147,0,4.539,2.32,4.539,5.204v0.343h-6.313
		C140.467,216.2,140.951,217.572,142.363,217.572z M142.383,211.359c-1.09,0-1.694,0.928-1.836,1.937h3.651
		C144.078,212.307,143.453,211.359,142.383,211.359z"/>
	<path fill="#FFFFFF" d="M148.596,219.347v-16.582h2.743v16.582H148.596z"/>
	<path fill="#FFFFFF" d="M156.26,214.95c0,1.089,0.162,2.4,1.554,2.4s1.573-1.311,1.573-2.4v-5.205h2.724v5.648
		c0,2.804-1.433,4.276-4.297,4.276c-2.845,0-4.297-1.473-4.297-4.276v-5.648h2.743V214.95z"/>
	<path fill="#FFFFFF" d="M164.249,219.347v-16.582h2.743v16.582H164.249z"/>
	<path fill="#FFFFFF" d="M175.868,219.347v-0.888h-0.04c-0.585,0.767-1.614,1.21-2.603,1.21c-2.824,0-4.418-2.562-4.418-5.164
		c0-2.542,1.614-5.063,4.378-5.063c0.988,0,2.017,0.423,2.683,1.21v-0.908h2.683v9.602H175.868z M173.85,211.863
		c-1.412,0-2.259,1.392-2.259,2.683s0.847,2.683,2.259,2.683s2.279-1.392,2.279-2.683S175.262,211.863,173.85,211.863z"/>
	<path fill="#FFFFFF" d="M183.452,210.754c0.564-0.847,1.372-1.311,2.4-1.311c0.383,0,0.767,0.101,1.13,0.222l-0.343,2.542
		c-0.323-0.222-0.706-0.343-1.13-0.343c-1.896,0-2.078,1.674-2.078,3.167v4.317h-2.743v-9.602h2.743v1.009H183.452z"/>
</g>
<g>
	<path fill="#FFFFFF" d="M44.03,254.842l1.492-1.009l0.706,1.312l-1.573,0.968l1.573,0.988l-0.706,1.311l-1.492-1.029l0.04,1.937
		h-1.694l0.061-1.937l-1.514,1.029l-0.705-1.311l1.532-0.988l-1.553-0.968l0.686-1.312l1.554,1.009l-0.061-1.977h1.694
		L44.03,254.842z"/>
	<path fill="#FFFFFF" d="M57.019,256.919c-0.807-0.968-2.017-1.553-3.247-1.553c-2.743,0-4.337,2.542-4.337,5.083
		c0,2.481,1.653,4.962,4.316,4.962c1.23,0,2.461-0.646,3.268-1.574v3.429c-1.068,0.504-2.138,0.868-3.349,0.868
		c-4.135,0-7.201-3.57-7.201-7.625c0-4.196,2.945-7.887,7.262-7.887c1.15,0,2.3,0.323,3.288,0.867V256.919z"/>
	<path fill="#FFFFFF" d="M63.474,268.075c-3.005,0-5.043-2.138-5.043-5.104c0-3.006,2.058-5.124,5.043-5.124
		s5.043,2.118,5.043,5.124C68.517,265.937,66.48,268.075,63.474,268.075z M63.474,265.634c1.412,0,2.26-1.372,2.26-2.663
		c0-1.332-0.848-2.703-2.26-2.703s-2.259,1.372-2.259,2.703C61.215,264.262,62.062,265.634,63.474,265.634z"/>
	<path fill="#FFFFFF" d="M73.136,259.159c0.564-0.847,1.372-1.311,2.4-1.311c0.383,0,0.767,0.101,1.13,0.222l-0.343,2.542
		c-0.323-0.222-0.706-0.343-1.13-0.343c-1.896,0-2.078,1.674-2.078,3.167v4.317h-2.743v-9.602h2.743v1.009H73.136z"/>
	<path fill="#FFFFFF" d="M80.822,259.159c0.564-0.847,1.372-1.311,2.4-1.311c0.383,0,0.767,0.101,1.13,0.222l-0.343,2.542
		c-0.323-0.222-0.706-0.343-1.13-0.343c-1.896,0-2.078,1.674-2.078,3.167v4.317h-2.743v-9.602h2.743v1.009H80.822z"/>
	<path fill="#FFFFFF" d="M89.576,265.977c0.908,0,1.473-0.544,1.836-1.311l2.521,0.403c-0.666,1.917-2.34,3.006-4.357,3.006
		c-2.965,0-4.78-2.118-4.78-5.023c0-2.925,1.533-5.204,4.659-5.204c3.147,0,4.539,2.319,4.539,5.204v0.343H87.68
		C87.68,264.605,88.164,265.977,89.576,265.977z M89.596,259.764c-1.09,0-1.694,0.928-1.836,1.937h3.651
		C91.291,260.712,90.666,259.764,89.596,259.764z"/>
	<path fill="#FFFFFF" d="M100.246,268.075c-3.005,0-5.043-2.138-5.043-5.104c0-3.006,2.058-5.124,5.043-5.124
		s5.043,2.118,5.043,5.124C105.289,265.937,103.251,268.075,100.246,268.075z M100.246,265.634c1.412,0,2.26-1.372,2.26-2.663
		c0-1.332-0.848-2.703-2.26-2.703s-2.259,1.372-2.259,2.703C97.987,264.262,98.833,265.634,100.246,265.634z"/>
	<path fill="#FFFFFF" d="M116.948,265.977c0.908,0,1.473-0.544,1.836-1.311l2.521,0.403c-0.666,1.917-2.34,3.006-4.357,3.006
		c-2.965,0-4.78-2.118-4.78-5.023c0-2.925,1.533-5.204,4.659-5.204c3.147,0,4.539,2.319,4.539,5.204v0.343h-6.314
		C115.051,264.605,115.536,265.977,116.948,265.977z M116.968,259.764c-1.09,0-1.694,0.928-1.836,1.937h3.651
		C118.663,260.712,118.038,259.764,116.968,259.764z"/>
	<path fill="#FFFFFF" d="M123.18,267.752V251.17h2.743v16.582H123.18z"/>
	<path fill="#FFFFFF" d="M132.257,265.977c0.908,0,1.473-0.544,1.836-1.311l2.521,0.403c-0.666,1.917-2.34,3.006-4.357,3.006
		c-2.965,0-4.78-2.118-4.78-5.023c0-2.925,1.533-5.204,4.659-5.204c3.147,0,4.539,2.319,4.539,5.204v0.343h-6.313
		C130.362,264.605,130.845,265.977,132.257,265.977z M132.278,259.764c-1.09,0-1.694,0.928-1.836,1.937h3.651
		C133.972,260.712,133.347,259.764,132.278,259.764z"/>
	<path fill="#FFFFFF" d="M143.191,260.147c-1.554,0-2.421,1.453-2.421,2.865c0,1.493,0.948,2.743,2.521,2.743
		c0.727,0,1.412-0.363,1.917-0.908v2.623c-0.747,0.423-1.533,0.605-2.381,0.605c-2.824,0-4.841-2.34-4.841-5.083
		c0-2.864,2.098-5.144,4.982-5.144c0.767,0,1.573,0.181,2.239,0.605v2.643C144.603,260.51,144.018,260.147,143.191,260.147z"/>
	<path fill="#FFFFFF" d="M147.587,267.752v-7.282h-0.928v-2.32h0.928v-3.248h2.743v3.248h1.674v2.32h-1.674v7.282H147.587z"/>
	<path fill="#FFFFFF" d="M156.08,259.159c0.564-0.847,1.372-1.311,2.4-1.311c0.383,0,0.767,0.101,1.13,0.222l-0.343,2.542
		c-0.323-0.222-0.706-0.343-1.13-0.343c-1.896,0-2.078,1.674-2.078,3.167v4.317h-2.743v-9.602h2.743v1.009H156.08z"/>
	<path fill="#FFFFFF" d="M164.814,268.075c-3.005,0-5.043-2.138-5.043-5.104c0-3.006,2.058-5.124,5.043-5.124
		s5.043,2.118,5.043,5.124C169.857,265.937,167.82,268.075,164.814,268.075z M164.814,265.634c1.412,0,2.26-1.372,2.26-2.663
		c0-1.332-0.848-2.703-2.26-2.703s-2.259,1.372-2.259,2.703C162.555,264.262,163.402,265.634,164.814,265.634z M164.814,256.758
		l-1.392-0.847l2.34-3.288l1.997,1.21L164.814,256.758z"/>
	<path fill="#FFFFFF" d="M174.476,259.038c0.585-0.867,1.533-1.19,2.501-1.19c2.582,0,3.329,1.815,3.329,4.034v5.87h-2.724v-5.083
		c0-1.15,0.04-2.643-1.493-2.643c-1.634,0-1.634,1.815-1.634,2.986v4.74h-2.743v-9.602h2.743v0.888H174.476z"/>
	<path fill="#FFFFFF" d="M183.795,255.75c-0.888,0-1.614-0.726-1.614-1.614s0.727-1.634,1.614-1.634
		c0.908,0,1.634,0.746,1.634,1.634S184.704,255.75,183.795,255.75z M182.444,267.752v-9.602h2.724v9.602H182.444z"/>
	<path fill="#FFFFFF" d="M192.005,260.147c-1.554,0-2.421,1.453-2.421,2.865c0,1.493,0.948,2.743,2.521,2.743
		c0.727,0,1.412-0.363,1.917-0.908v2.623c-0.747,0.423-1.533,0.605-2.381,0.605c-2.824,0-4.841-2.34-4.841-5.083
		c0-2.864,2.098-5.144,4.982-5.144c0.767,0,1.573,0.181,2.239,0.605v2.643C193.417,260.51,192.833,260.147,192.005,260.147z"/>
	<path fill="#FFFFFF" d="M200.294,268.075c-3.005,0-5.043-2.138-5.043-5.104c0-3.006,2.058-5.124,5.043-5.124
		s5.043,2.118,5.043,5.124C205.337,265.937,203.3,268.075,200.294,268.075z M200.294,265.634c1.412,0,2.26-1.372,2.26-2.663
		c0-1.332-0.848-2.703-2.26-2.703s-2.259,1.372-2.259,2.703C198.036,264.262,198.882,265.634,200.294,265.634z"/>
	<path fill="#FFFFFF" d="M214.899,260.853c0,2.804,0.424,6.213,1.594,8.775l-1.675,1.15c-1.473-2.885-1.977-6.818-1.977-10.046
		c0-3.167,0.564-6.959,1.977-9.804l1.675,1.13C215.323,254.721,214.899,257.968,214.899,260.853z"/>
	<path fill="#FFFFFF" d="M221.171,263.354c0,1.089,0.161,2.4,1.554,2.4c1.392,0,1.573-1.311,1.573-2.4v-5.205h2.724v5.648
		c0,2.804-1.433,4.276-4.297,4.276c-2.845,0-4.297-1.473-4.297-4.276v-5.648h2.743V263.354z"/>
	<path fill="#FFFFFF" d="M232.408,259.764c-0.444,0-0.888,0.343-0.888,0.807c0,0.706,0.988,0.908,1.977,1.331
		c0.988,0.444,1.977,1.11,1.977,2.764c0,2.138-1.734,3.409-3.752,3.409c-1.291,0-2.541-0.605-3.368-1.614l1.25-1.614
		c0.524,0.585,1.23,1.109,2.038,1.109c0.604,0,1.089-0.403,1.089-1.029c0-0.847-0.968-1.049-1.916-1.452
		c-0.969-0.424-1.917-0.989-1.917-2.521c0-1.795,1.251-3.106,3.047-3.106c1.008,0,2.299,0.302,3.086,0.988l-1.17,1.594
		C233.476,260.046,232.952,259.764,232.408,259.764z"/>
	<path fill="#FFFFFF" d="M239.85,263.354c0,1.089,0.162,2.4,1.554,2.4s1.573-1.311,1.573-2.4v-5.205h2.724v5.648
		c0,2.804-1.433,4.276-4.297,4.276c-2.845,0-4.297-1.473-4.297-4.276v-5.648h2.743V263.354z"/>
	<path fill="#FFFFFF" d="M254.536,267.752v-0.888h-0.04c-0.585,0.767-1.614,1.21-2.603,1.21c-2.824,0-4.418-2.562-4.418-5.164
		c0-2.542,1.614-5.063,4.378-5.063c0.988,0,2.017,0.423,2.683,1.21v-0.908h2.683v9.602H254.536z M252.518,260.268
		c-1.412,0-2.259,1.392-2.259,2.683s0.847,2.683,2.259,2.683s2.279-1.392,2.279-2.683S253.93,260.268,252.518,260.268z"/>
	<path fill="#FFFFFF" d="M262.12,259.159c0.564-0.847,1.372-1.311,2.4-1.311c0.383,0,0.767,0.101,1.13,0.222l-0.343,2.542
		c-0.323-0.222-0.706-0.343-1.13-0.343c-1.896,0-2.078,1.674-2.078,3.167v4.317h-2.743v-9.602h2.743v1.009H262.12z"/>
	<path fill="#FFFFFF" d="M268.231,255.75c-0.888,0-1.614-0.726-1.614-1.614s0.727-1.634,1.614-1.634
		c0.908,0,1.634,0.746,1.634,1.634S269.139,255.75,268.231,255.75z M266.879,267.752v-9.602h2.724v9.602H266.879z"/>
	<path fill="#FFFFFF" d="M276.178,268.075c-3.005,0-5.043-2.138-5.043-5.104c0-3.006,2.058-5.124,5.043-5.124
		c2.986,0,5.043,2.118,5.043,5.124C281.221,265.937,279.184,268.075,276.178,268.075z M276.178,265.634
		c1.412,0,2.26-1.372,2.26-2.663c0-1.332-0.848-2.703-2.26-2.703s-2.259,1.372-2.259,2.703
		C273.919,264.262,274.766,265.634,276.178,265.634z"/>
	<path fill="#FFFFFF" d="M284.549,250.949c1.412,2.844,1.977,6.636,1.977,9.804c0,3.228-0.504,7.161-1.977,10.045l-1.675-1.15
		c1.171-2.562,1.614-5.971,1.614-8.775c0-2.884-0.443-6.132-1.614-8.795L284.549,250.949z"/>
</g>
<g>
	<path fill="#FFFFFF" d="M802.254,319.8h-3.025l5.748-15.129h2.221l5.586,15.129h-3.064l-1.131-3.106h-5.123L802.254,319.8z
		 M805.906,308.987l-1.615,5.366h3.49l-1.836-5.366H805.906z"/>
	<path fill="#FFFFFF" d="M818.533,312.195c-1.555,0-2.422,1.453-2.422,2.865c0,1.493,0.949,2.743,2.521,2.743
		c0.727,0,1.412-0.363,1.918-0.908v2.623c-0.748,0.423-1.533,0.605-2.381,0.605c-2.824,0-4.842-2.34-4.842-5.083
		c0-2.864,2.098-5.144,4.982-5.144c0.768,0,1.574,0.181,2.24,0.605v2.643C819.945,312.558,819.359,312.195,818.533,312.195z"/>
	<path fill="#FFFFFF" d="M826.539,318.024c0.908,0,1.473-0.544,1.836-1.311l2.521,0.403c-0.666,1.917-2.34,3.006-4.357,3.006
		c-2.965,0-4.779-2.118-4.779-5.023c0-2.925,1.533-5.204,4.658-5.204c3.148,0,4.539,2.319,4.539,5.204v0.343h-6.314
		C824.643,316.653,825.127,318.024,826.539,318.024z M826.561,311.812c-1.09,0-1.695,0.928-1.836,1.937h3.65
		C828.254,312.76,827.629,311.812,826.561,311.812z"/>
	<path fill="#FFFFFF" d="M838.158,309.896c2.725,0,4.379,2.542,4.379,5.063c0,2.623-1.594,5.164-4.439,5.164
		c-0.967,0-1.996-0.444-2.561-1.23h-0.021v6.031h-2.742v-14.726h2.742v0.888C836.143,310.339,837.15,309.896,838.158,309.896z
		 M837.494,312.316c-1.393,0-2.26,1.392-2.26,2.683s0.867,2.683,2.26,2.683c1.41,0,2.279-1.392,2.279-2.683
		S838.904,312.316,837.494,312.316z"/>
	<path fill="#FFFFFF" d="M844.775,319.8v-7.282h-0.928v-2.32h0.928v-3.248h2.742v3.248h1.674v2.32h-1.674v7.282H844.775z"/>
	<path fill="#FFFFFF" d="M854.941,320.123c-3.006,0-5.043-2.138-5.043-5.104c0-3.006,2.057-5.124,5.043-5.124
		c2.984,0,5.043,2.118,5.043,5.124C859.984,317.984,857.947,320.123,854.941,320.123z M854.941,317.682
		c1.412,0,2.26-1.372,2.26-2.663c0-1.332-0.848-2.703-2.26-2.703s-2.26,1.372-2.26,2.703
		C852.682,316.31,853.529,317.682,854.941,317.682z"/>
	<path fill="#FFFFFF" d="M871.059,305.054c2.742,0,4.418,1.089,4.418,4.014c0,1.049-0.363,2.259-1.291,2.864
		c1.734,0.303,2.521,2.058,2.521,3.691c0,2.885-2.037,4.176-4.701,4.176h-4.518v-14.746H871.059z M870.715,311.207
		c1.393,0,2.078-0.424,2.078-1.937c0-1.513-0.848-1.896-2.057-1.896h-0.385v3.833H870.715z M870.957,317.5
		c1.553,0,2.885-0.202,2.885-2.118c0-1.917-1.572-1.997-3.025-1.997h-0.465v4.115H870.957z"/>
	<path fill="#FFFFFF" d="M885.098,319.8v-0.888h-0.041c-0.584,0.767-1.613,1.21-2.602,1.21c-2.824,0-4.418-2.562-4.418-5.164
		c0-2.542,1.613-5.063,4.377-5.063c0.988,0,2.018,0.423,2.684,1.21v-0.908h2.682v9.602H885.098z M883.08,312.316
		c-1.412,0-2.26,1.392-2.26,2.683s0.848,2.683,2.26,2.683s2.279-1.392,2.279-2.683S884.492,312.316,883.08,312.316z"/>
	<path fill="#FFFFFF" d="M893.166,311.812c-0.445,0-0.889,0.343-0.889,0.807c0,0.706,0.988,0.908,1.977,1.331
		c0.988,0.444,1.977,1.11,1.977,2.764c0,2.138-1.734,3.409-3.752,3.409c-1.291,0-2.541-0.605-3.367-1.614l1.25-1.614
		c0.523,0.585,1.23,1.109,2.037,1.109c0.605,0,1.09-0.403,1.09-1.029c0-0.847-0.969-1.049-1.916-1.452
		c-0.969-0.424-1.918-0.989-1.918-2.521c0-1.795,1.252-3.106,3.047-3.106c1.008,0,2.299,0.302,3.086,0.988l-1.17,1.594
		C894.234,312.094,893.709,311.812,893.166,311.812z"/>
	<path fill="#FFFFFF" d="M902.02,318.024c0.908,0,1.473-0.544,1.836-1.311l2.521,0.403c-0.666,1.917-2.34,3.006-4.357,3.006
		c-2.965,0-4.779-2.118-4.779-5.023c0-2.925,1.533-5.204,4.658-5.204c3.148,0,4.539,2.319,4.539,5.204v0.343h-6.314
		C900.123,316.653,900.607,318.024,902.02,318.024z M902.041,311.812c-1.09,0-1.695,0.928-1.836,1.937h3.65
		C903.734,312.76,903.109,311.812,902.041,311.812z"/>
	<path fill="#FFFFFF" d="M911.502,311.812c-0.445,0-0.889,0.343-0.889,0.807c0,0.706,0.988,0.908,1.977,1.331
		c0.988,0.444,1.977,1.11,1.977,2.764c0,2.138-1.734,3.409-3.752,3.409c-1.291,0-2.541-0.605-3.367-1.614l1.25-1.614
		c0.523,0.585,1.23,1.109,2.037,1.109c0.605,0,1.09-0.403,1.09-1.029c0-0.847-0.969-1.049-1.916-1.452
		c-0.969-0.424-1.918-0.989-1.918-2.521c0-1.795,1.252-3.106,3.047-3.106c1.008,0,2.299,0.302,3.086,0.988l-1.17,1.594
		C912.57,312.094,912.045,311.812,911.502,311.812z"/>
	<path fill="#FFFFFF" d="M923.865,310.198l2.279,5.467l2.48-5.467h3.047l-6.979,14.726h-3.006l3.146-6.596l-4.074-8.129H923.865z"/>
	<path fill="#FFFFFF" d="M938.229,319.8h-3.027l5.75-15.129h2.219l5.588,15.129h-3.066l-1.129-3.106h-5.125L938.229,319.8z
		 M941.879,308.987l-1.613,5.366h3.49l-1.836-5.366H941.879z"/>
	<path fill="#FFFFFF" d="M954.729,310.198h3.006l-4.418,9.804h-1.412l-4.396-9.804h3.004l2.26,5.426L954.729,310.198z"/>
	<path fill="#FFFFFF" d="M960.154,307.797c-0.889,0-1.615-0.726-1.615-1.614s0.727-1.634,1.615-1.634
		c0.906,0,1.633,0.746,1.633,1.634S961.061,307.797,960.154,307.797z M958.803,319.8v-9.602h2.723v9.602H958.803z"/>
	<path fill="#FFFFFF" d="M966.912,311.812c-0.445,0-0.889,0.343-0.889,0.807c0,0.706,0.988,0.908,1.977,1.331
		c0.988,0.444,1.977,1.11,1.977,2.764c0,2.138-1.734,3.409-3.752,3.409c-1.291,0-2.541-0.605-3.367-1.614l1.25-1.614
		c0.523,0.585,1.23,1.109,2.037,1.109c0.605,0,1.09-0.403,1.09-1.029c0-0.847-0.969-1.049-1.916-1.452
		c-0.969-0.424-1.918-0.989-1.918-2.521c0-1.795,1.252-3.106,3.047-3.106c1.008,0,2.299,0.302,3.086,0.988l-1.17,1.594
		C967.98,312.094,967.455,311.812,966.912,311.812z"/>
	<path fill="#FFFFFF" d="M976.049,320.123c-3.006,0-5.043-2.138-5.043-5.104c0-3.006,2.057-5.124,5.043-5.124
		c2.984,0,5.043,2.118,5.043,5.124C981.092,317.984,979.055,320.123,976.049,320.123z M976.049,317.682
		c1.412,0,2.26-1.372,2.26-2.663c0-1.332-0.848-2.703-2.26-2.703s-2.26,1.372-2.26,2.703
		C973.789,316.31,974.637,317.682,976.049,317.682z"/>
	<path fill="#FFFFFF" d="M995.131,318.892c-0.564,0.787-1.594,1.23-2.582,1.23c-2.824,0-4.418-2.562-4.418-5.164
		c0-2.542,1.613-5.063,4.377-5.063c0.988,0,2.018,0.423,2.623,1.19h0.041v-7.867h2.723V319.8h-2.723v-0.908H995.131z
		 M993.174,312.316c-1.412,0-2.26,1.392-2.26,2.683s0.848,2.683,2.26,2.683s2.26-1.392,2.26-2.683S994.586,312.316,993.174,312.316z
		"/>
	<path fill="#FFFFFF" d="M1004.268,318.024c0.908,0,1.473-0.544,1.836-1.311l2.521,0.403c-0.666,1.917-2.34,3.006-4.357,3.006
		c-2.965,0-4.779-2.118-4.779-5.023c0-2.925,1.533-5.204,4.658-5.204c3.148,0,4.539,2.319,4.539,5.204v0.343h-6.314
		C1002.371,316.653,1002.855,318.024,1004.268,318.024z M1004.289,311.812c-1.09,0-1.695,0.928-1.836,1.937h3.65
		C1005.982,312.76,1005.357,311.812,1004.289,311.812z"/>
	<path fill="#FFFFFF" d="M1021.535,309.896c2.723,0,4.377,2.542,4.377,5.063c0,2.623-1.594,5.164-4.438,5.164
		c-0.969,0-1.998-0.444-2.562-1.23h-0.02v6.031h-2.744v-14.726h2.744v0.888C1019.518,310.339,1020.525,309.896,1021.535,309.896z
		 M1020.869,312.316c-1.393,0-2.26,1.392-2.26,2.683s0.867,2.683,2.26,2.683c1.412,0,2.279-1.392,2.279-2.683
		S1022.281,312.316,1020.869,312.316z"/>
	<path fill="#FFFFFF" d="M1030.672,311.207c0.564-0.847,1.373-1.311,2.4-1.311c0.383,0,0.768,0.101,1.131,0.222l-0.344,2.542
		c-0.322-0.222-0.705-0.343-1.129-0.343c-1.896,0-2.078,1.674-2.078,3.167v4.317h-2.744v-9.602h2.744v1.009H1030.672z"/>
	<path fill="#FFFFFF" d="M1036.783,307.797c-0.887,0-1.613-0.726-1.613-1.614s0.727-1.634,1.613-1.634
		c0.908,0,1.635,0.746,1.635,1.634S1037.691,307.797,1036.783,307.797z M1035.432,319.8v-9.602h2.725v9.602H1035.432z"/>
	<path fill="#FFFFFF" d="M1046.305,310.198h3.006l-4.418,9.804h-1.412l-4.396-9.804h3.004l2.26,5.426L1046.305,310.198z"/>
	<path fill="#FFFFFF" d="M1056.289,319.8v-0.888h-0.039c-0.586,0.767-1.615,1.21-2.604,1.21c-2.824,0-4.418-2.562-4.418-5.164
		c0-2.542,1.615-5.063,4.379-5.063c0.988,0,2.016,0.423,2.682,1.21v-0.908h2.684v9.602H1056.289z M1054.271,312.316
		c-1.412,0-2.258,1.392-2.258,2.683s0.846,2.683,2.258,2.683s2.279-1.392,2.279-2.683S1055.684,312.316,1054.271,312.316z"/>
	<path fill="#FFFFFF" d="M1065.811,312.195c-1.553,0-2.42,1.453-2.42,2.865c0,1.493,0.947,2.743,2.521,2.743
		c0.727,0,1.412-0.363,1.916-0.908v2.623c-0.746,0.423-1.533,0.605-2.381,0.605c-2.824,0-4.84-2.34-4.84-5.083
		c0-2.864,2.098-5.144,4.982-5.144c0.766,0,1.572,0.181,2.238,0.605v2.643C1067.223,312.558,1066.639,312.195,1065.811,312.195z"/>
	<path fill="#FFFFFF" d="M1071.014,307.797c-0.887,0-1.613-0.726-1.613-1.614s0.727-1.634,1.613-1.634
		c0.908,0,1.635,0.746,1.635,1.634S1071.922,307.797,1071.014,307.797z M1069.662,319.8v-9.602h2.725v9.602H1069.662z"/>
	<path fill="#FFFFFF" d="M1081.061,318.892c-0.566,0.787-1.594,1.23-2.582,1.23c-2.824,0-4.418-2.562-4.418-5.164
		c0-2.542,1.613-5.063,4.377-5.063c0.988,0,2.018,0.423,2.623,1.19h0.039v-7.867h2.725V319.8h-2.725v-0.908H1081.061z
		 M1079.104,312.316c-1.412,0-2.26,1.392-2.26,2.683s0.848,2.683,2.26,2.683s2.258-1.392,2.258-2.683
		S1080.516,312.316,1079.104,312.316z"/>
	<path fill="#FFFFFF" d="M1092.738,319.8v-0.888h-0.039c-0.586,0.767-1.615,1.21-2.604,1.21c-2.824,0-4.418-2.562-4.418-5.164
		c0-2.542,1.615-5.063,4.379-5.063c0.988,0,2.016,0.423,2.682,1.21v-0.908h2.684v9.602H1092.738z M1090.721,312.316
		c-1.412,0-2.258,1.392-2.258,2.683s0.846,2.683,2.258,2.683s2.279-1.392,2.279-2.683S1092.133,312.316,1090.721,312.316z"/>
	<path fill="#FFFFFF" d="M1104.096,318.892c-0.564,0.787-1.594,1.23-2.582,1.23c-2.824,0-4.418-2.562-4.418-5.164
		c0-2.542,1.613-5.063,4.377-5.063c0.988,0,2.018,0.423,2.623,1.19h0.041v-7.867h2.723V319.8h-2.723v-0.908H1104.096z
		 M1102.139,312.316c-1.412,0-2.26,1.392-2.26,2.683s0.848,2.683,2.26,2.683s2.26-1.392,2.26-2.683
		S1103.551,312.316,1102.139,312.316z"/>
</g>
<rect x="376.046" y="92.106" fill="#FFFFFF" width="734" height="28"/>
<rect x="771.913" y="304.999" fill="#FFFFFF" width="16.266" height="15.924"/>
<rect x="376.046" y="196.471" fill="#FFFFFF" width="734" height="28"/>
<rect x="376.046" y="244.876" fill="#FFFFFF" width="734" height="28"/>
<line fill="none" stroke="#F1FFFF" stroke-width="1.7008" stroke-miterlimit="10" x1="415.364" y1="163.282" x2="471.046" y2="163.282"/>
<line fill="none" stroke="#F1FFFF" stroke-width="1.7008" stroke-miterlimit="10" x1="520.788" y1="163.282" x2="576.47" y2="163.282"/>
<line fill="none" stroke="#F1FFFF" stroke-width="1.7008" stroke-miterlimit="10" x1="629.814" y1="163.282" x2="685.496" y2="163.282"/>
<g>
	<path fill="#C4C4C4" d="M393.067,100.136l5.293,7.025h0.027v-6.764h1.966v10.256h-1.416l-5.293-7.025h-0.027v6.819h-1.952v-10.311
		H393.067z"/>
	<path fill="#C4C4C4" d="M404.934,110.667c-2.048,0-3.437-1.458-3.437-3.479c0-2.048,1.402-3.492,3.437-3.492
		c2.035,0,3.438,1.444,3.438,3.492C408.371,109.209,406.982,110.667,404.934,110.667z M404.934,109.003
		c0.963,0,1.54-0.935,1.54-1.815c0-0.907-0.577-1.842-1.54-1.842c-0.962,0-1.54,0.935-1.54,1.842
		C403.394,108.068,403.972,109.003,404.934,109.003z"/>
	<path fill="#C4C4C4" d="M411.521,104.494c0.371-0.522,1.003-0.797,1.608-0.797c0.811,0,1.443,0.33,1.869,1.018
		c0.399-0.632,1.155-1.018,1.911-1.018c1.664,0,2.076,1.251,2.076,2.681v4.069h-1.869v-3.437c0-0.632,0.041-1.829-0.881-1.829
		c-1.003,0-0.989,1.375-0.989,2.062v3.203h-1.87v-3.313c0-0.646,0.083-1.952-0.894-1.952c-1.031,0-0.976,1.361-0.976,2.062v3.203
		h-1.87v-6.544h1.87v0.591H411.521z"/>
	<path fill="#C4C4C4" d="M422.315,99.146v5.362c0.426-0.509,1.113-0.812,1.801-0.812c1.855,0,2.983,1.732,2.983,3.451
		c0,1.787-1.086,3.52-3.024,3.52c-0.66,0-1.361-0.303-1.746-0.839h-0.014v0.619h-1.87V99.146H422.315z M423.662,105.346
		c-0.948,0-1.539,0.949-1.539,1.829s0.591,1.829,1.539,1.829c0.963,0,1.554-0.949,1.554-1.829S424.625,105.346,423.662,105.346z"/>
	<path fill="#C4C4C4" d="M430.235,104.59c0.385-0.577,0.935-0.894,1.636-0.894c0.261,0,0.522,0.069,0.77,0.151l-0.233,1.732
		c-0.22-0.151-0.481-0.234-0.77-0.234c-1.293,0-1.416,1.141-1.416,2.159v2.942h-1.87v-6.544h1.87v0.687H430.235z"/>
	<path fill="#C4C4C4" d="M436.203,109.237c0.619,0,1.004-0.371,1.251-0.894l1.719,0.275c-0.454,1.306-1.595,2.049-2.97,2.049
		c-2.021,0-3.258-1.444-3.258-3.423c0-1.994,1.045-3.547,3.176-3.547c2.145,0,3.093,1.581,3.093,3.547v0.233h-4.303
		C434.911,108.302,435.241,109.237,436.203,109.237z M436.217,105.002c-0.742,0-1.154,0.632-1.251,1.32h2.488
		C437.372,105.648,436.945,105.002,436.217,105.002z"/>
	<path fill="#C4C4C4" d="M441.854,105.745c0,1.911,0.289,4.234,1.086,5.98l-1.141,0.783c-1.004-1.966-1.348-4.646-1.348-6.846
		c0-2.159,0.385-4.743,1.348-6.682l1.141,0.77C442.144,101.565,441.854,103.779,441.854,105.745z"/>
	<path fill="#C4C4C4" d="M446.476,105.002c-0.303,0-0.605,0.234-0.605,0.55c0,0.481,0.674,0.619,1.348,0.908
		c0.674,0.302,1.347,0.756,1.347,1.883c0,1.458-1.182,2.324-2.557,2.324c-0.88,0-1.732-0.413-2.296-1.1l0.853-1.1
		c0.357,0.399,0.838,0.756,1.389,0.756c0.412,0,0.742-0.275,0.742-0.701c0-0.577-0.66-0.715-1.307-0.99
		c-0.659-0.289-1.306-0.674-1.306-1.719c0-1.224,0.853-2.117,2.076-2.117c0.688,0,1.567,0.207,2.104,0.674l-0.798,1.086
		C447.204,105.195,446.847,105.002,446.476,105.002z"/>
	<path fill="#C4C4C4" d="M450.683,98.995c0.962,1.938,1.347,4.523,1.347,6.682c0,2.2-0.344,4.88-1.347,6.847l-1.142-0.784
		c0.798-1.746,1.1-4.07,1.1-5.98c0-1.966-0.302-4.18-1.1-5.994L450.683,98.995z"/>
	<path fill="#C4C4C4" d="M459.07,103.903l1.554,3.726l1.69-3.726h2.076l-4.757,10.036h-2.049l2.146-4.496l-2.777-5.541H459.07z"/>
	<path fill="#C4C4C4" d="M468.86,110.447h-2.062l3.918-10.311h1.513l3.808,10.311h-2.09l-0.77-2.117h-3.492L468.86,110.447z
		 M471.35,103.078l-1.101,3.657h2.379l-1.251-3.657H471.35z"/>
	<path fill="#C4C4C4" d="M480.425,103.696c1.855,0,2.983,1.732,2.983,3.451c0,1.787-1.086,3.52-3.024,3.52
		c-0.66,0-1.361-0.303-1.746-0.839h-0.014v4.111h-1.87v-10.036h1.87v0.605C479.05,103.999,479.737,103.696,480.425,103.696z
		 M479.971,105.346c-0.948,0-1.539,0.949-1.539,1.829s0.591,1.829,1.539,1.829c0.963,0,1.554-0.949,1.554-1.829
		S480.934,105.346,479.971,105.346z"/>
	<path fill="#C4C4C4" d="M487.603,109.237c0.619,0,1.004-0.371,1.251-0.894l1.719,0.275c-0.454,1.306-1.595,2.049-2.97,2.049
		c-2.021,0-3.258-1.444-3.258-3.423c0-1.994,1.045-3.547,3.176-3.547c2.145,0,3.093,1.581,3.093,3.547v0.233h-4.303
		C486.311,108.302,486.641,109.237,487.603,109.237z M487.616,105.002c-0.742,0-1.154,0.632-1.251,1.32h2.488
		C488.771,105.648,488.345,105.002,487.616,105.002z"/>
	<path fill="#C4C4C4" d="M491.853,110.447V99.146h1.87v11.301H491.853z"/>
	<path fill="#C4C4C4" d="M495.207,110.447V99.146h1.87v11.301H495.207z"/>
	<path fill="#C4C4C4" d="M499.483,102.267c-0.604,0-1.1-0.495-1.1-1.1c0-0.605,0.495-1.114,1.1-1.114
		c0.619,0,1.114,0.509,1.114,1.114C500.598,101.771,500.103,102.267,499.483,102.267z M498.562,110.447v-6.544h1.856v6.544H498.562z
		"/>
	<path fill="#C4C4C4" d="M506.33,109.828c-0.385,0.536-1.086,0.839-1.76,0.839c-1.925,0-3.011-1.746-3.011-3.52
		c0-1.732,1.1-3.451,2.983-3.451c0.674,0,1.375,0.289,1.787,0.812h0.027v-5.362h1.856v11.301h-1.856v-0.619H506.33z
		 M504.997,105.346c-0.963,0-1.54,0.949-1.54,1.829s0.577,1.829,1.54,1.829c0.962,0,1.539-0.949,1.539-1.829
		S505.959,105.346,504.997,105.346z"/>
	<path fill="#C4C4C4" d="M512.752,110.667c-2.048,0-3.437-1.458-3.437-3.479c0-2.048,1.402-3.492,3.437-3.492
		c2.035,0,3.438,1.444,3.438,3.492C516.189,109.209,514.801,110.667,512.752,110.667z M512.752,109.003
		c0.963,0,1.54-0.935,1.54-1.815c0-0.907-0.577-1.842-1.54-1.842c-0.962,0-1.54,0.935-1.54,1.842
		C511.212,108.068,511.79,109.003,512.752,109.003z"/>
	<path fill="#C4C4C4" d="M519.67,105.002c-0.303,0-0.605,0.234-0.605,0.55c0,0.481,0.674,0.619,1.348,0.908
		c0.674,0.302,1.347,0.756,1.347,1.883c0,1.458-1.182,2.324-2.557,2.324c-0.88,0-1.732-0.413-2.296-1.1l0.853-1.1
		c0.357,0.399,0.838,0.756,1.389,0.756c0.412,0,0.742-0.275,0.742-0.701c0-0.577-0.66-0.715-1.307-0.99
		c-0.659-0.289-1.306-0.674-1.306-1.719c0-1.224,0.853-2.117,2.076-2.117c0.688,0,1.567,0.207,2.104,0.674l-0.798,1.086
		C520.398,105.195,520.041,105.002,519.67,105.002z"/>
</g>
<g>
	<g>
		<path fill="#C4C4C4" d="M395.652,215.012H393.7v-8.345h-2.035v-1.705h6.008v1.705h-2.021V215.012z"/>
		<path fill="#C4C4C4" d="M400.644,213.802c0.619,0,1.004-0.371,1.251-0.894l1.719,0.275c-0.454,1.306-1.595,2.048-2.97,2.048
			c-2.021,0-3.258-1.443-3.258-3.423c0-1.994,1.045-3.547,3.176-3.547c2.145,0,3.093,1.581,3.093,3.547v0.233h-4.303
			C399.352,212.867,399.682,213.802,400.644,213.802z M400.657,209.567c-0.742,0-1.154,0.632-1.251,1.32h2.488
			C401.812,210.213,401.386,209.567,400.657,209.567z"/>
		<path fill="#C4C4C4" d="M404.894,215.012v-11.301h1.87v11.301H404.894z"/>
		<path fill="#C4C4C4" d="M409.788,212.042c0,0.825,0.33,1.76,1.292,1.76c0.619,0,1.004-0.371,1.251-0.894l1.719,0.275
			c-0.454,1.306-1.595,2.048-2.97,2.048c-2.021,0-3.258-1.443-3.258-3.423c0-1.994,1.045-3.547,3.176-3.547
			c2.145,0,3.093,1.581,3.093,3.547v0.233H409.788z M412.331,210.887c-0.082-0.674-0.509-1.32-1.237-1.32
			c-0.742,0-1.154,0.632-1.251,1.32H412.331z M412.978,205.525l-2.008,1.994l-0.948-0.578l1.595-2.241L412.978,205.525z"/>
		<path fill="#C4C4C4" d="M415.509,215.012v-4.963h-0.633v-1.581h0.633v-1.911c0-1.608,0.66-2.997,2.461-2.997
			c0.303,0,0.619,0.069,0.894,0.206v1.664c-0.247-0.11-0.481-0.22-0.756-0.22c-0.825,0-0.742,1.072-0.742,1.608v1.65h1.498v1.581
			h-1.498v4.963H415.509z"/>
		<path fill="#C4C4C4" d="M422.686,215.231c-2.048,0-3.437-1.457-3.437-3.478c0-2.048,1.402-3.492,3.437-3.492
			c2.035,0,3.438,1.444,3.438,3.492C426.123,213.774,424.734,215.231,422.686,215.231z M422.686,213.568
			c0.963,0,1.54-0.935,1.54-1.815c0-0.907-0.577-1.842-1.54-1.842c-0.962,0-1.54,0.935-1.54,1.842
			C421.146,212.633,421.724,213.568,422.686,213.568z"/>
		<path fill="#C4C4C4" d="M429.273,209.072c0.398-0.591,1.045-0.811,1.704-0.811c1.76,0,2.269,1.237,2.269,2.75v4h-1.855v-3.464
			c0-0.784,0.027-1.801-1.018-1.801c-1.113,0-1.113,1.237-1.113,2.035v3.231h-1.87v-6.544h1.87v0.604H429.273z"/>
		<path fill="#C4C4C4" d="M437.729,215.231c-2.048,0-3.437-1.457-3.437-3.478c0-2.048,1.402-3.492,3.437-3.492
			c2.035,0,3.438,1.444,3.438,3.492C441.167,213.774,439.778,215.231,437.729,215.231z M437.729,213.568
			c0.963,0,1.54-0.935,1.54-1.815c0-0.907-0.577-1.842-1.54-1.842c-0.962,0-1.54,0.935-1.54,1.842
			C436.189,212.633,436.768,213.568,437.729,213.568z"/>
		<path fill="#C4C4C4" d="M449.485,209.829c-1.059,0-1.649,0.99-1.649,1.952c0,1.018,0.646,1.87,1.719,1.87
			c0.494,0,0.962-0.248,1.306-0.619v1.787c-0.509,0.289-1.045,0.412-1.622,0.412c-1.925,0-3.3-1.595-3.3-3.464
			c0-1.952,1.43-3.506,3.396-3.506c0.522,0,1.072,0.124,1.526,0.413v1.801C450.448,210.076,450.049,209.829,449.485,209.829z"/>
		<path fill="#C4C4C4" d="M454.945,213.802c0.619,0,1.004-0.371,1.251-0.894l1.719,0.275c-0.454,1.306-1.595,2.048-2.97,2.048
			c-2.021,0-3.258-1.443-3.258-3.423c0-1.994,1.045-3.547,3.176-3.547c2.145,0,3.093,1.581,3.093,3.547v0.233h-4.303
			C453.653,212.867,453.983,213.802,454.945,213.802z M454.959,209.567c-0.742,0-1.154,0.632-1.251,1.32h2.488
			C456.114,210.213,455.688,209.567,454.959,209.567z"/>
		<path fill="#C4C4C4" d="M459.194,215.012v-11.301h1.87v11.301H459.194z"/>
		<path fill="#C4C4C4" d="M464.42,212.015c0,0.742,0.109,1.636,1.059,1.636c0.948,0,1.072-0.894,1.072-1.636v-3.547h1.855v3.849
			c0,1.911-0.976,2.915-2.928,2.915c-1.938,0-2.929-1.003-2.929-2.915v-3.849h1.87V212.015z"/>
		<path fill="#C4C4C4" d="M469.865,215.012v-11.301h1.87v11.301H469.865z"/>
		<path fill="#C4C4C4" d="M477.784,215.012v-0.605h-0.027c-0.398,0.522-1.1,0.825-1.773,0.825c-1.925,0-3.011-1.746-3.011-3.52
			c0-1.732,1.1-3.451,2.983-3.451c0.673,0,1.374,0.289,1.828,0.825v-0.619h1.828v6.544H477.784z M476.409,209.911
			c-0.962,0-1.54,0.949-1.54,1.829s0.578,1.829,1.54,1.829c0.963,0,1.554-0.949,1.554-1.829S477.372,209.911,476.409,209.911z"/>
		<path fill="#C4C4C4" d="M482.955,209.155c0.385-0.577,0.935-0.894,1.636-0.894c0.261,0,0.522,0.069,0.77,0.151l-0.233,1.732
			c-0.22-0.151-0.481-0.234-0.77-0.234c-1.293,0-1.416,1.141-1.416,2.159v2.942h-1.87v-6.544h1.87v0.687H482.955z"/>
		<path fill="#C4C4C4" d="M491.562,210.31c0,1.911,0.289,4.234,1.086,5.98l-1.141,0.783c-1.004-1.966-1.348-4.646-1.348-6.846
			c0-2.159,0.385-4.743,1.348-6.682l1.141,0.77C491.852,206.13,491.562,208.344,491.562,210.31z"/>
		<path fill="#C4C4C4" d="M493.901,204.962h3.271v10.05h-1.952v-8.345h-1.319V204.962z"/>
		<path fill="#C4C4C4" d="M502.329,215.273c-2.653,0-3.588-3.121-3.588-5.266c0-2.158,0.907-5.307,3.588-5.307
			c2.695,0,3.603,3.148,3.603,5.307C505.932,212.152,504.997,215.273,502.329,215.273z M502.329,213.568
			c1.402,0,1.691-2.599,1.691-3.588c0-1.018-0.289-3.575-1.691-3.575c-1.374,0-1.677,2.557-1.677,3.575
			C500.652,210.97,500.955,213.568,502.329,213.568z"/>
		<path fill="#C4C4C4" d="M515.805,214.393c-0.385,0.536-1.086,0.838-1.76,0.838c-1.925,0-3.011-1.746-3.011-3.52
			c0-1.732,1.1-3.451,2.983-3.451c0.674,0,1.375,0.289,1.787,0.811h0.027v-5.361h1.856v11.301h-1.856v-0.619H515.805z
			 M514.472,209.911c-0.963,0-1.54,0.949-1.54,1.829s0.577,1.829,1.54,1.829c0.962,0,1.539-0.949,1.539-1.829
			S515.434,209.911,514.472,209.911z"/>
		<path fill="#C4C4C4" d="M519.917,207.519l-0.948-0.578l1.595-2.241l1.36,0.825L519.917,207.519z M519.202,215.012v-6.544h1.856
			v6.544H519.202z"/>
		<path fill="#C4C4C4" d="M525.472,218.504c-1.595,0-3.217-0.976-3.3-2.722h1.966c0.097,0.701,0.592,1.155,1.293,1.155
			c1.319,0,1.347-1.168,1.347-2.145v-0.426h-0.027c-0.398,0.522-1.1,0.866-1.787,0.866c-1.911,0-2.942-1.691-2.942-3.437
			c0-1.801,1.087-3.533,3.039-3.533c0.646,0,1.319,0.33,1.69,0.839h0.027v-0.632h1.87v6.145
			C528.647,216.744,527.919,218.504,525.472,218.504z M525.458,209.911c-0.963,0-1.54,0.962-1.54,1.842s0.577,1.815,1.54,1.815
			c0.962,0,1.54-0.935,1.54-1.815S526.42,209.911,525.458,209.911z"/>
		<path fill="#C4C4C4" d="M531.026,206.832c-0.604,0-1.1-0.495-1.1-1.1c0-0.605,0.495-1.114,1.1-1.114
			c0.619,0,1.114,0.509,1.114,1.114C532.141,206.336,531.646,206.832,531.026,206.832z M530.105,215.012v-6.544h1.856v6.544H530.105
			z"/>
		<path fill="#C4C4C4" d="M533.791,215.012v-4.963h-0.632v-1.581h0.632v-2.214h1.87v2.214h1.141v1.581h-1.141v4.963H533.791z"/>
		<path fill="#C4C4C4" d="M540.721,215.231c-2.048,0-3.437-1.457-3.437-3.478c0-2.048,1.402-3.492,3.437-3.492
			c2.035,0,3.438,1.444,3.438,3.492C544.158,213.774,542.77,215.231,540.721,215.231z M540.721,213.568
			c0.963,0,1.54-0.935,1.54-1.815c0-0.907-0.577-1.842-1.54-1.842c-0.962,0-1.54,0.935-1.54,1.842
			C539.181,212.633,539.759,213.568,540.721,213.568z"/>
		<path fill="#C4C4C4" d="M547.638,209.567c-0.303,0-0.605,0.234-0.605,0.55c0,0.481,0.674,0.619,1.348,0.908
			c0.674,0.302,1.347,0.756,1.347,1.883c0,1.458-1.182,2.323-2.557,2.323c-0.88,0-1.732-0.412-2.296-1.1l0.853-1.1
			c0.357,0.398,0.838,0.756,1.389,0.756c0.412,0,0.742-0.275,0.742-0.701c0-0.577-0.66-0.715-1.307-0.99
			c-0.659-0.289-1.306-0.674-1.306-1.719c0-1.224,0.853-2.117,2.076-2.117c0.688,0,1.567,0.207,2.104,0.674l-0.798,1.086
			C548.366,209.76,548.009,209.567,547.638,209.567z"/>
		<path fill="#C4C4C4" d="M551.846,203.56c0.962,1.938,1.347,4.523,1.347,6.682c0,2.2-0.344,4.88-1.347,6.847l-1.142-0.784
			c0.798-1.746,1.1-4.07,1.1-5.98c0-1.966-0.302-4.18-1.1-5.994L551.846,203.56z"/>
	</g>
</g>
<rect x="6.123" y="5.876" fill="#FFC303" width="94.813" height="61"/>
<rect x="94.046" y="5.876" fill="#FF9906" width="78.891" height="61"/>
<g>
	<path fill="#FFFFFF" d="M45.251,18.071h12.274v37.701h-7.323V24.466h-4.951V18.071z"/>
</g>
<g>
	<path fill="#FFFFFF" d="M147.213,55.772h-25.375l9.594-12.068c2.63-3.301,8.2-9.851,8.2-14.131c0-2.682-1.754-6.086-4.849-6.086
		c-3.301,0-4.848,3.61-4.693,6.447h-7.787c0.516-7.221,4.642-12.842,12.43-12.842c6.859,0,12.223,5.261,12.223,12.172
		c0,5.519-3.095,9.645-6.55,13.667l-5.57,6.447h12.378V55.772z"/>
</g>
</svg>
