<?xml version="1.0" encoding="utf-8"?>
<!-- Generator: Adobe Illustrator 16.0.0, SVG Export Plug-In . SVG Version: 6.00 Build 0)  -->
<!DOCTYPE svg PUBLIC "-//W3C//DTD SVG 1.1//EN" "http://www.w3.org/Graphics/SVG/1.1/DTD/svg11.dtd">
<svg version="1.1" id="Layer_1" xmlns="http://www.w3.org/2000/svg" xmlns:xlink="http://www.w3.org/1999/xlink" x="0px" y="0px"
	 width="127.082px" height="46.27px" viewBox="0 0 127.082 46.27" enable-background="new 0 0 127.082 46.27" xml:space="preserve">
<rect y="0" fill="#FF8E06" width="127.082" height="46.27"/>
<g>
	<path fill="#FFFFFF" d="M47.785,27.209v3.347H38.5v-19.73h3.833V27.21L47.785,27.209L47.785,27.209z"/>
	<path fill="#FFFFFF" d="M51.757,14.496c-1.188,0-2.159-0.973-2.159-2.16c0-1.188,0.972-2.188,2.159-2.188
		c1.215,0,2.187,0.999,2.187,2.188C53.943,13.524,52.972,14.496,51.757,14.496z M49.948,30.557V17.708h3.644v12.849H49.948z"/>
	<path fill="#FFFFFF" d="M60.801,19.868c-0.594,0-1.188,0.458-1.188,1.08c0,0.944,1.322,1.215,2.646,1.78
		c1.322,0.595,2.646,1.485,2.646,3.698c0,2.861-2.321,4.562-5.021,4.562c-1.728,0-3.4-0.811-4.508-2.159l1.674-2.159
		c0.702,0.783,1.646,1.484,2.727,1.484c0.81,0,1.457-0.54,1.457-1.377c0-1.134-1.295-1.403-2.563-1.943
		c-1.296-0.567-2.564-1.322-2.564-3.374c0-2.402,1.673-4.157,4.075-4.157c1.35,0,3.077,0.405,4.13,1.323l-1.565,2.132
		C62.231,20.246,61.529,19.868,60.801,19.868z"/>
	<path fill="#FFFFFF" d="M67.174,30.557v-9.745h-1.24v-3.104h1.24v-4.347h3.672v4.347h2.24v3.104h-2.24v9.745H67.174z"/>
	<path fill="#FFFFFF" d="M80.781,30.988c-4.022,0-6.748-2.86-6.748-6.828c0-4.022,2.753-6.856,6.748-6.856
		c3.994,0,6.748,2.834,6.748,6.856C87.529,28.127,84.803,30.988,80.781,30.988z M80.781,27.722c1.89,0,3.023-1.835,3.023-3.562
		c0-1.781-1.135-3.617-3.023-3.617s-3.023,1.835-3.023,3.617C77.758,25.887,78.893,27.722,80.781,27.722z"/>
</g>
</svg>
