<?xml version="1.0" encoding="utf-8"?>
<!-- Generator: Adobe Illustrator 16.0.0, SVG Export Plug-In . SVG Version: 6.00 Build 0)  -->
<!DOCTYPE svg PUBLIC "-//W3C//DTD SVG 1.1//EN" "http://www.w3.org/Graphics/SVG/1.1/DTD/svg11.dtd">
<svg version="1.1" id="Layer_1" xmlns="http://www.w3.org/2000/svg" xmlns:xlink="http://www.w3.org/1999/xlink" x="0px" y="0px"
	 width="584.08px" height="108.918px" viewBox="0 0 584.08 108.918" enable-background="new 0 0 584.08 108.918"
	 xml:space="preserve">
<g>
	<path fill="none" stroke="#FFFFFF" stroke-width="2.8346" stroke-miterlimit="10" d="M84.654,26.163
		c0-1.516,1.304-2.861,2.86-2.861c1.599,0,2.861,1.346,2.861,2.861c0,1.598-1.262,2.902-2.861,2.902
		C85.958,29.065,84.654,27.761,84.654,26.163z M85.496,33.651c0-1.094,1.178-1.6,2.019-1.6c1.136,0,2.104,0.506,2.104,1.6
		c0,5.553,0.547,12.957,0.547,18.552c0,1.431-1.136,2.271-2.65,2.271c-1.43,0-2.608-0.841-2.608-2.271
		C84.907,46.608,85.496,39.204,85.496,33.651z"/>
	<path fill="none" stroke="#FFFFFF" stroke-width="2.8346" stroke-miterlimit="10" d="M100.178,36.68h6.394
		c1.094,0,1.725,1.052,1.725,2.188c0,0.968-0.547,2.104-1.725,2.104h-6.394v8.456h11.905c1.094,0,1.725,1.135,1.725,2.439
		c0,1.136-0.547,2.355-1.725,2.355H97.106c-1.22,0-2.398-0.588-2.398-1.725V25.194c0-1.135,1.178-1.725,2.398-1.725h14.977
		c1.178,0,1.725,1.221,1.725,2.356c0,1.304-0.631,2.44-1.725,2.44h-11.905V36.68z"/>
	<path fill="none" stroke="#FFFFFF" stroke-width="2.8346" stroke-miterlimit="10" d="M131.521,52.497l-9.044-16.911v16.911
		c0,1.137-1.388,1.725-2.734,1.725c-1.389,0-2.735-0.588-2.735-1.725V25.194c0-1.178,1.346-1.725,2.735-1.725
		c1.977,0,2.776,0.421,4.081,2.903l8.119,15.691V25.153c0-1.178,1.346-1.684,2.734-1.684c1.346,0,2.734,0.506,2.734,1.684v27.344
		c0,1.137-1.388,1.725-2.734,1.725C133.372,54.222,132.236,53.802,131.521,52.497z"/>
	<path fill="none" stroke="#FFFFFF" stroke-width="2.8346" stroke-miterlimit="10" d="M159.96,23.47c1.178,0,1.725,1.262,1.725,2.44
		c0,1.304-0.631,2.481-1.725,2.481h-6.142v24.105c0,1.137-1.389,1.725-2.735,1.725c-1.388,0-2.734-0.588-2.734-1.725V28.392h-6.184
		c-1.094,0-1.725-1.135-1.725-2.481c0-1.179,0.547-2.44,1.725-2.44H159.96z"/>
	<path fill="none" stroke="#FFFFFF" stroke-width="2.8346" stroke-miterlimit="10" d="M164.674,25.153
		c0-0.884,0.715-1.684,1.767-1.684h8.33c5.511,0,9.97,2.104,9.97,8.793c0,4.838-2.356,7.445-5.511,8.414l5.511,10.223
		c0.168,0.209,0.21,0.504,0.21,0.672c0,1.389-1.809,2.861-3.408,2.861c-0.757,0-1.472-0.463-1.893-1.305l-5.974-11.61h-3.534v10.979
		c0,1.137-1.346,1.725-2.734,1.725c-1.346,0-2.735-0.588-2.735-1.725V25.153z M170.143,28.267v8.96h4.627
		c2.734,0,4.501-1.136,4.501-4.46c0-3.322-1.767-4.5-4.501-4.5H170.143z"/>
	<path fill="none" stroke="#FFFFFF" stroke-width="2.8346" stroke-miterlimit="10" d="M194.124,36.68h6.394
		c1.094,0,1.725,1.052,1.725,2.188c0,0.968-0.547,2.104-1.725,2.104h-6.394v8.456h11.905c1.094,0,1.725,1.135,1.725,2.439
		c0,1.136-0.547,2.355-1.725,2.355h-14.977c-1.22,0-2.398-0.588-2.398-1.725V25.194c0-1.135,1.178-1.725,2.398-1.725h14.977
		c1.178,0,1.725,1.221,1.725,2.356c0,1.304-0.631,2.44-1.725,2.44h-11.905V36.68z"/>
	<path fill="none" stroke="#FFFFFF" stroke-width="2.8346" stroke-miterlimit="10" d="M233.333,43.158
		c-0.462,0.841-1.178,1.094-1.851,1.094c-0.673,0-1.346-0.253-1.809-1.094l-4.838-9.087v18.426c0,1.137-1.388,1.725-2.734,1.725
		c-1.389,0-2.735-0.588-2.735-1.725V26.204c0-2.02,1.346-2.734,2.735-2.734c1.977,0,2.86,0.421,4.249,2.903l5.175,9.423l5.174-9.423
		c1.388-2.482,2.313-2.903,4.291-2.903c1.388,0,2.734,0.715,2.734,2.734v26.293c0,1.137-1.388,1.725-2.734,1.725
		c-1.388,0-2.734-0.588-2.734-1.725v-18.09L233.333,43.158z"/>
	<path fill="none" stroke="#FFFFFF" stroke-width="2.8346" stroke-miterlimit="10" d="M246.629,51.95
		c0-0.084,0.042-0.252,0.084-0.42l8.119-26.461c0.378-1.263,1.935-1.852,3.492-1.852c1.599,0,3.155,0.589,3.534,1.852l8.119,26.461
		c0.042,0.168,0.084,0.294,0.084,0.42c0,1.305-1.977,2.271-3.449,2.271c-0.926,0-1.641-0.294-1.851-1.094l-1.599-5.595h-9.634
		l-1.599,5.595c-0.21,0.8-0.925,1.094-1.851,1.094C248.606,54.222,246.629,53.297,246.629,51.95z M261.984,43.242l-3.66-12.915
		l-3.66,12.915H261.984z M257.567,19.937c-0.21,0.084-0.378,0.168-0.589,0.168c-0.926,0-1.683-1.136-1.683-2.061
		c0-0.547,0.21-1.053,0.715-1.305l5.553-2.692c0.21-0.042,0.378-0.085,0.547-0.085c0.967,0,1.683,1.137,1.683,2.062
		c0,0.504-0.21,1.01-0.757,1.262L257.567,19.937z"/>
	<path fill="none" stroke="#FFFFFF" stroke-width="2.8346" stroke-miterlimit="10" d="M285.712,46.019
		c0-6.311-13.504-4.375-13.504-14.346c0-6.268,5.385-8.413,10.223-8.413c2.482,0,7.993,0.589,7.993,3.365
		c0,0.968-0.673,2.903-2.188,2.903c-1.304,0-2.271-1.6-5.805-1.6c-3.029,0-4.754,1.221-4.754,3.24
		c0,5.217,13.504,3.407,13.504,14.303c0,6.016-4.207,9.129-10.012,9.129c-5.511,0-9.718-2.776-9.718-5.217
		c0-1.178,1.094-2.944,2.398-2.944c1.725,0,2.86,3.239,7.151,3.239C283.525,49.679,285.712,48.543,285.712,46.019z"/>
	<path fill="none" stroke="#FFFFFF" stroke-width="2.8346" stroke-miterlimit="10" d="M303.34,25.153
		c0-0.884,0.799-1.684,2.062-1.684h8.456c5.343,0,9.549,2.566,9.549,9.466v0.253c0,6.898-4.333,9.549-9.886,9.549h-4.711v9.76
		c0,1.137-1.388,1.725-2.734,1.725c-1.389,0-2.735-0.588-2.735-1.725V25.153z M308.81,28.267v10.18h4.711
		c2.734,0,4.417-1.557,4.417-4.838v-0.504c0-3.282-1.683-4.838-4.417-4.838H308.81z"/>
	<path fill="none" stroke="#FFFFFF" stroke-width="2.8346" stroke-miterlimit="10" d="M322.989,51.95
		c0-0.084,0.042-0.252,0.084-0.42l8.119-26.461c0.379-1.263,1.936-1.852,3.491-1.852c1.599,0,3.155,0.589,3.534,1.852l8.119,26.461
		c0.042,0.168,0.084,0.294,0.084,0.42c0,1.305-1.977,2.271-3.449,2.271c-0.926,0-1.641-0.294-1.852-1.094l-1.599-5.595h-9.633
		l-1.599,5.595c-0.211,0.8-0.926,1.094-1.852,1.094C324.965,54.222,322.989,53.297,322.989,51.95z M338.343,43.242l-3.66-12.915
		l-3.659,12.915H338.343z"/>
	<path fill="none" stroke="#FFFFFF" stroke-width="2.8346" stroke-miterlimit="10" d="M349.326,25.153
		c0-0.884,0.715-1.684,1.767-1.684h8.329c5.512,0,9.971,2.104,9.971,8.793c0,4.838-2.355,7.445-5.512,8.414l5.512,10.223
		c0.168,0.209,0.209,0.504,0.209,0.672c0,1.389-1.809,2.861-3.406,2.861c-0.758,0-1.473-0.463-1.893-1.305l-5.975-11.61h-3.533
		v10.979c0,1.137-1.347,1.725-2.734,1.725c-1.347,0-2.734-0.588-2.734-1.725V25.153z M354.794,28.267v8.96h4.627
		c2.735,0,4.502-1.136,4.502-4.46c0-3.322-1.768-4.5-4.502-4.5H354.794z"/>
	<path fill="none" stroke="#FFFFFF" stroke-width="2.8346" stroke-miterlimit="10" d="M390.469,23.47
		c1.178,0,1.725,1.262,1.725,2.44c0,1.304-0.631,2.481-1.725,2.481h-6.141v24.105c0,1.137-1.389,1.725-2.734,1.725
		c-1.389,0-2.734-0.588-2.734-1.725V28.392h-6.186c-1.094,0-1.725-1.135-1.725-2.481c0-1.179,0.547-2.44,1.725-2.44H390.469z"/>
	<path fill="none" stroke="#FFFFFF" stroke-width="2.8346" stroke-miterlimit="10" d="M395.184,25.153
		c0-1.178,1.346-1.684,2.734-1.684c1.346,0,2.734,0.506,2.734,1.684v27.344c0,1.137-1.389,1.725-2.734,1.725
		c-1.389,0-2.734-0.588-2.734-1.725V25.153z"/>
	<path fill="none" stroke="#FFFFFF" stroke-width="2.8346" stroke-miterlimit="10" d="M415.293,28.267
		c-2.818,0-4.418,1.556-4.418,4.838v11.736c0,3.281,1.6,4.838,4.502,4.838c3.828,0,4.164-2.734,4.291-4.502
		c0.084-1.303,1.262-1.725,2.693-1.725c1.893,0,2.775,0.547,2.775,2.693c0,5.09-4.164,8.329-10.055,8.329
		c-5.301,0-9.676-2.608-9.676-9.634V33.104c0-7.026,4.418-9.635,9.719-9.635c5.848,0,10.012,3.113,10.012,7.993
		c0,2.188-0.883,2.692-2.734,2.692c-1.557,0-2.691-0.463-2.734-1.725C419.584,31.126,419.289,28.267,415.293,28.267z"/>
	<path fill="none" stroke="#FFFFFF" stroke-width="2.8346" stroke-miterlimit="10" d="M428.84,25.153
		c0-1.178,1.346-1.684,2.734-1.684c1.346,0,2.734,0.506,2.734,1.684v27.344c0,1.137-1.389,1.725-2.734,1.725
		c-1.389,0-2.734-0.588-2.734-1.725V25.153z"/>
	<path fill="none" stroke="#FFFFFF" stroke-width="2.8346" stroke-miterlimit="10" d="M439.357,25.153
		c0-0.884,0.799-1.684,2.062-1.684h8.455c5.342,0,9.549,2.566,9.549,9.466v0.253c0,6.898-4.332,9.549-9.885,9.549h-4.713v9.76
		c0,1.137-1.389,1.725-2.734,1.725c-1.389,0-2.734-0.588-2.734-1.725V25.153z M444.826,28.267v10.18h4.713
		c2.734,0,4.416-1.557,4.416-4.838v-0.504c0-3.282-1.682-4.838-4.416-4.838H444.826z"/>
	<path fill="none" stroke="#FFFFFF" stroke-width="2.8346" stroke-miterlimit="10" d="M468.26,36.68h6.395
		c1.094,0,1.725,1.052,1.725,2.188c0,0.968-0.547,2.104-1.725,2.104h-6.395v8.456h11.906c1.094,0,1.725,1.135,1.725,2.439
		c0,1.136-0.547,2.355-1.725,2.355h-14.977c-1.221,0-2.398-0.588-2.398-1.725V25.194c0-1.135,1.178-1.725,2.398-1.725h14.977
		c1.178,0,1.725,1.221,1.725,2.356c0,1.304-0.631,2.44-1.725,2.44H468.26V36.68z"/>
	<path fill="none" stroke="#FFFFFF" stroke-width="2.8346" stroke-miterlimit="10" d="M497.836,46.019
		c0-6.311-13.504-4.375-13.504-14.346c0-6.268,5.385-8.413,10.223-8.413c2.482,0,7.994,0.589,7.994,3.365
		c0,0.968-0.674,2.903-2.188,2.903c-1.305,0-2.271-1.6-5.807-1.6c-3.027,0-4.754,1.221-4.754,3.24
		c0,5.217,13.506,3.407,13.506,14.303c0,6.016-4.207,9.129-10.014,9.129c-5.51,0-9.717-2.776-9.717-5.217
		c0-1.178,1.094-2.944,2.396-2.944c1.727,0,2.861,3.239,7.152,3.239C495.648,49.679,497.836,48.543,497.836,46.019z"/>
	<path fill="none" stroke="#FFFFFF" stroke-width="2.8346" stroke-miterlimit="10" d="M29.333,81.542
		c-0.363,0.66-0.924,0.857-1.452,0.857c-0.528,0-1.056-0.197-1.419-0.857l-3.795-7.129v14.456c0,0.892-1.089,1.353-2.146,1.353
		c-1.089,0-2.145-0.461-2.145-1.353V68.241c0-1.584,1.056-2.146,2.145-2.146c1.551,0,2.245,0.33,3.333,2.277l4.06,7.394l4.06-7.394
		c1.089-1.947,1.815-2.277,3.367-2.277c1.089,0,2.145,0.562,2.145,2.146v20.628c0,0.892-1.089,1.353-2.145,1.353
		c-1.089,0-2.146-0.461-2.146-1.353V74.677L29.333,81.542z"/>
	<path fill="none" stroke="#FFFFFF" stroke-width="2.8346" stroke-miterlimit="10" d="M39.758,88.44c0-0.066,0.033-0.199,0.066-0.33
		l6.37-20.76c0.297-0.99,1.518-1.453,2.739-1.453c1.254,0,2.476,0.463,2.772,1.453l6.37,20.76c0.033,0.131,0.066,0.23,0.066,0.33
		c0,1.022-1.551,1.781-2.707,1.781c-0.726,0-1.287-0.23-1.452-0.857l-1.254-4.39h-7.558l-1.254,4.39
		c-0.165,0.627-0.726,0.857-1.452,0.857C41.31,90.222,39.758,89.496,39.758,88.44z M51.805,81.608l-2.872-10.133l-2.871,10.133
		H51.805z M48.34,63.323c-0.165,0.066-0.297,0.132-0.462,0.132c-0.726,0-1.32-0.892-1.32-1.617c0-0.429,0.165-0.825,0.561-1.022
		l4.356-2.113c0.165-0.033,0.297-0.065,0.429-0.065c0.759,0,1.32,0.892,1.32,1.617c0,0.396-0.165,0.792-0.594,0.99L48.34,63.323z"/>
	<path fill="none" stroke="#FFFFFF" stroke-width="2.8346" stroke-miterlimit="10" d="M70.417,83.786
		c0-4.951-10.595-3.433-10.595-11.254c0-4.918,4.225-6.602,8.02-6.602c1.947,0,6.271,0.462,6.271,2.641
		c0,0.759-0.528,2.277-1.716,2.277c-1.023,0-1.782-1.254-4.555-1.254c-2.376,0-3.729,0.957-3.729,2.541
		c0,4.092,10.595,2.674,10.595,11.222c0,4.72-3.301,7.161-7.855,7.161c-4.323,0-7.624-2.178-7.624-4.092
		c0-0.924,0.858-2.311,1.881-2.311c1.353,0,2.244,2.541,5.611,2.541C68.701,86.657,70.417,85.767,70.417,83.786z"/>
	<path fill="none" stroke="#FFFFFF" stroke-width="2.8346" stroke-miterlimit="10" d="M83.978,82.862v-9.209
		c0-5.512,3.366-7.558,7.723-7.558c4.356,0,7.756,2.046,7.756,7.558v9.209c0,5.512-3.399,7.559-7.756,7.559
		C87.344,90.421,83.978,88.374,83.978,82.862z M95.167,73.653c0-2.607-1.32-3.795-3.465-3.795c-2.178,0-3.433,1.188-3.433,3.795
		v9.209c0,2.607,1.254,3.795,3.433,3.795c2.145,0,3.465-1.188,3.465-3.795V73.653z"/>
	<path fill="none" stroke="#FFFFFF" stroke-width="2.8346" stroke-miterlimit="10" d="M103.118,67.416
		c0-0.693,0.627-1.32,1.617-1.32h6.634c4.191,0,7.492,2.013,7.492,7.427v0.197c0,5.413-3.399,7.492-7.756,7.492h-3.696v7.657
		c0,0.892-1.089,1.353-2.146,1.353c-1.089,0-2.145-0.461-2.145-1.353V67.416z M107.408,69.858v7.986h3.696
		c2.146,0,3.466-1.221,3.466-3.795v-0.396c0-2.574-1.32-3.795-3.466-3.795H107.408z"/>
	<path fill="none" stroke="#FFFFFF" stroke-width="2.8346" stroke-miterlimit="10" d="M121.234,82.862v-9.209
		c0-5.512,3.366-7.558,7.723-7.558c4.356,0,7.756,2.046,7.756,7.558v9.209c0,5.512-3.399,7.559-7.756,7.559
		C124.601,90.421,121.234,88.374,121.234,82.862z M132.423,73.653c0-2.607-1.32-3.795-3.465-3.795c-2.178,0-3.433,1.188-3.433,3.795
		v9.209c0,2.607,1.254,3.795,3.433,3.795c2.145,0,3.465-1.188,3.465-3.795V73.653z"/>
	<path fill="none" stroke="#FFFFFF" stroke-width="2.8346" stroke-miterlimit="10" d="M140.374,67.416
		c0-0.693,0.561-1.32,1.386-1.32h6.535c4.324,0,7.822,1.65,7.822,6.897c0,3.796-1.848,5.842-4.324,6.602l4.324,8.02
		c0.132,0.166,0.165,0.396,0.165,0.529c0,1.088-1.419,2.244-2.673,2.244c-0.594,0-1.155-0.363-1.485-1.023l-4.687-9.109h-2.772
		v8.614c0,0.892-1.056,1.353-2.146,1.353c-1.056,0-2.145-0.461-2.145-1.353V67.416z M144.665,69.858v7.029h3.63
		c2.146,0,3.532-0.891,3.532-3.498s-1.386-3.531-3.532-3.531H144.665z"/>
	<path fill="none" stroke="#FFFFFF" stroke-width="2.8346" stroke-miterlimit="10" d="M172.65,66.096
		c0.924,0,1.353,0.99,1.353,1.914c0,1.023-0.495,1.947-1.353,1.947h-4.819v18.912c0,0.892-1.089,1.353-2.146,1.353
		c-1.089,0-2.145-0.461-2.145-1.353V69.957h-4.852c-0.858,0-1.353-0.892-1.353-1.947c0-0.924,0.429-1.914,1.353-1.914H172.65z"/>
	<path fill="none" stroke="#FFFFFF" stroke-width="2.8346" stroke-miterlimit="10" d="M187.797,67.416
		c0-0.925,1.056-1.32,2.145-1.32c1.056,0,2.146,0.396,2.146,1.32v15.446c0,5.512-3.499,7.559-7.921,7.559
		c-4.456,0-7.921-2.047-7.921-7.559V67.416c0-0.925,1.056-1.32,2.145-1.32c1.056,0,2.146,0.396,2.146,1.32v15.446
		c0,2.574,1.353,3.795,3.63,3.795s3.631-1.221,3.631-3.795V67.416z"/>
	<path fill="none" stroke="#FFFFFF" stroke-width="2.8346" stroke-miterlimit="10" d="M207.332,88.869l-7.096-13.269v13.269
		c0,0.892-1.089,1.353-2.146,1.353c-1.089,0-2.145-0.461-2.145-1.353V67.448c0-0.924,1.056-1.353,2.145-1.353
		c1.551,0,2.178,0.33,3.202,2.277l6.37,12.311V67.416c0-0.925,1.056-1.32,2.146-1.32c1.056,0,2.146,0.396,2.146,1.32v21.453
		c0,0.892-1.089,1.353-2.146,1.353C208.785,90.222,207.894,89.892,207.332,88.869z"/>
	<path fill="none" stroke="#FFFFFF" stroke-width="2.8346" stroke-miterlimit="10" d="M215.911,67.416
		c0-0.925,1.056-1.32,2.145-1.32c1.056,0,2.146,0.396,2.146,1.32v21.453c0,0.892-1.089,1.353-2.146,1.353
		c-1.089,0-2.145-0.461-2.145-1.353V67.416z"/>
	<path fill="none" stroke="#FFFFFF" stroke-width="2.8346" stroke-miterlimit="10" d="M231.884,66.096
		c4.356,0,7.756,2.046,7.756,7.558v9.011c0,5.512-3.399,7.558-7.756,7.558h-5.842c-1.122,0-1.881-0.627-1.881-1.32V67.416
		c0-0.693,0.759-1.32,1.881-1.32H231.884z M228.451,69.858V86.46h3.433c2.178,0,3.465-1.222,3.465-3.796v-9.011
		c0-2.574-1.287-3.795-3.465-3.795H228.451z"/>
	<path fill="none" stroke="#FFFFFF" stroke-width="2.8346" stroke-miterlimit="10" d="M241.617,88.44
		c0-0.066,0.033-0.199,0.066-0.33l6.37-20.76c0.297-0.99,1.518-1.453,2.739-1.453c1.254,0,2.476,0.463,2.772,1.453l6.37,20.76
		c0.033,0.131,0.066,0.23,0.066,0.33c0,1.022-1.551,1.781-2.707,1.781c-0.726,0-1.287-0.23-1.452-0.857l-1.254-4.39h-7.558
		l-1.254,4.39c-0.165,0.627-0.726,0.857-1.452,0.857C243.168,90.222,241.617,89.496,241.617,88.44z M253.664,81.608l-2.872-10.133
		l-2.871,10.133H253.664z"/>
	<path fill="none" stroke="#FFFFFF" stroke-width="2.8346" stroke-miterlimit="10" d="M269.999,66.096
		c4.356,0,7.756,2.046,7.756,7.558v9.011c0,5.512-3.399,7.558-7.756,7.558h-5.842c-1.122,0-1.881-0.627-1.881-1.32V67.416
		c0-0.693,0.759-1.32,1.881-1.32H269.999z M266.566,69.858V86.46h3.433c2.178,0,3.465-1.222,3.465-3.796v-9.011
		c0-2.574-1.287-3.795-3.465-3.795H266.566z"/>
	<path fill="none" stroke="#FFFFFF" stroke-width="2.8346" stroke-miterlimit="10" d="M285.705,76.459h5.017
		c0.858,0,1.353,0.825,1.353,1.716c0,0.76-0.429,1.65-1.353,1.65h-5.017v6.635h9.34c0.858,0,1.353,0.891,1.353,1.914
		c0,0.891-0.429,1.848-1.353,1.848h-11.75c-0.957,0-1.881-0.461-1.881-1.353V67.448c0-0.891,0.924-1.353,1.881-1.353h11.75
		c0.924,0,1.353,0.957,1.353,1.849c0,1.023-0.495,1.914-1.353,1.914h-9.34V76.459z"/>
	<path fill="none" stroke="#FFFFFF" stroke-width="2.8346" stroke-miterlimit="10" d="M308.905,83.786
		c0-4.951-10.595-3.433-10.595-11.254c0-4.918,4.225-6.602,8.02-6.602c1.947,0,6.271,0.462,6.271,2.641
		c0,0.759-0.528,2.277-1.716,2.277c-1.023,0-1.782-1.254-4.555-1.254c-2.376,0-3.729,0.957-3.729,2.541
		c0,4.092,10.595,2.674,10.595,11.222c0,4.72-3.301,7.161-7.855,7.161c-4.323,0-7.624-2.178-7.624-4.092
		c0-0.924,0.858-2.311,1.881-2.311c1.353,0,2.244,2.541,5.611,2.541C307.189,86.657,308.905,85.767,308.905,83.786z"/>
	<path fill="none" stroke="#FFFFFF" stroke-width="2.8346" stroke-miterlimit="10" d="M336.459,66.096
		c0.925,0,1.354,0.99,1.354,1.914c0,1.023-0.495,1.947-1.354,1.947h-4.818v18.912c0,0.892-1.089,1.353-2.146,1.353
		c-1.089,0-2.146-0.461-2.146-1.353V69.957h-4.852c-0.857,0-1.353-0.892-1.353-1.947c0-0.924,0.429-1.914,1.353-1.914H336.459z"/>
	<path fill="none" stroke="#FFFFFF" stroke-width="2.8346" stroke-miterlimit="10" d="M340.154,67.416
		c0-0.925,1.056-1.32,2.146-1.32c1.056,0,2.145,0.396,2.145,1.32v21.453c0,0.892-1.089,1.353-2.145,1.353
		c-1.09,0-2.146-0.461-2.146-1.353V67.416z"/>
	<path fill="none" stroke="#FFFFFF" stroke-width="2.8346" stroke-miterlimit="10" d="M352.694,76.459h5.018
		c0.857,0,1.353,0.825,1.353,1.716c0,0.76-0.429,1.65-1.353,1.65h-5.018v6.635h9.341c0.857,0,1.354,0.891,1.354,1.914
		c0,0.891-0.43,1.848-1.354,1.848h-11.75c-0.957,0-1.881-0.461-1.881-1.353V67.448c0-0.891,0.924-1.353,1.881-1.353h11.75
		c0.924,0,1.354,0.957,1.354,1.849c0,1.023-0.496,1.914-1.354,1.914h-9.341V76.459z"/>
	<path fill="none" stroke="#FFFFFF" stroke-width="2.8346" stroke-miterlimit="10" d="M377.281,88.869l-7.098-13.269v13.269
		c0,0.892-1.088,1.353-2.145,1.353c-1.09,0-2.145-0.461-2.145-1.353V67.448c0-0.924,1.055-1.353,2.145-1.353
		c1.551,0,2.178,0.33,3.201,2.277l6.371,12.311V67.416c0-0.925,1.055-1.32,2.145-1.32c1.057,0,2.145,0.396,2.145,1.32v21.453
		c0,0.892-1.088,1.353-2.145,1.353C378.732,90.222,377.842,89.892,377.281,88.869z"/>
	<path fill="none" stroke="#FFFFFF" stroke-width="2.8346" stroke-miterlimit="10" d="M390.148,76.459h5.018
		c0.857,0,1.354,0.825,1.354,1.716c0,0.76-0.43,1.65-1.354,1.65h-5.018v6.635h9.342c0.857,0,1.354,0.891,1.354,1.914
		c0,0.891-0.43,1.848-1.354,1.848h-11.75c-0.957,0-1.881-0.461-1.881-1.353V67.448c0-0.891,0.924-1.353,1.881-1.353h11.75
		c0.924,0,1.354,0.957,1.354,1.849c0,1.023-0.496,1.914-1.354,1.914h-9.342V76.459z"/>
	<path fill="none" stroke="#FFFFFF" stroke-width="2.8346" stroke-miterlimit="10" d="M413.35,83.786
		c0-4.951-10.596-3.433-10.596-11.254c0-4.918,4.225-6.602,8.021-6.602c1.947,0,6.271,0.462,6.271,2.641
		c0,0.759-0.529,2.277-1.717,2.277c-1.023,0-1.783-1.254-4.555-1.254c-2.377,0-3.73,0.957-3.73,2.541
		c0,4.092,10.596,2.674,10.596,11.222c0,4.72-3.301,7.161-7.855,7.161c-4.324,0-7.625-2.178-7.625-4.092
		c0-0.924,0.859-2.311,1.883-2.311c1.352,0,2.244,2.541,5.609,2.541C411.633,86.657,413.35,85.767,413.35,83.786z"/>
	<path fill="none" stroke="#FFFFFF" stroke-width="2.8346" stroke-miterlimit="10" d="M434.896,66.096
		c4.357,0,7.758,2.046,7.758,7.558v9.011c0,5.512-3.4,7.558-7.758,7.558h-5.842c-1.121,0-1.881-0.627-1.881-1.32V67.416
		c0-0.693,0.76-1.32,1.881-1.32H434.896z M431.465,69.858V86.46h3.432c2.18,0,3.467-1.222,3.467-3.796v-9.011
		c0-2.574-1.287-3.795-3.467-3.795H431.465z"/>
	<path fill="none" stroke="#FFFFFF" stroke-width="2.8346" stroke-miterlimit="10" d="M450.604,76.459h5.018
		c0.857,0,1.354,0.825,1.354,1.716c0,0.76-0.43,1.65-1.354,1.65h-5.018v6.635h9.342c0.857,0,1.354,0.891,1.354,1.914
		c0,0.891-0.43,1.848-1.354,1.848h-11.75c-0.957,0-1.881-0.461-1.881-1.353V67.448c0-0.891,0.924-1.353,1.881-1.353h11.75
		c0.924,0,1.354,0.957,1.354,1.849c0,1.023-0.496,1.914-1.354,1.914h-9.342V76.459z"/>
	<path fill="none" stroke="#FFFFFF" stroke-width="2.8346" stroke-miterlimit="10" d="M477.896,69.858
		c-2.213,0-3.467,1.221-3.467,3.795v9.209c0,2.574,1.254,3.795,3.434,3.795c2.145,0,3.465-1.221,3.465-3.795v-1.947h-2.674
		c-0.857,0-1.32-0.825-1.32-1.684c0-0.825,0.463-1.684,1.32-1.684h5.611c0.857,0,1.354,0.66,1.354,1.387v3.928
		c0,5.512-3.4,7.559-7.756,7.559c-4.357,0-7.725-2.047-7.725-7.559v-9.209c0-5.512,3.4-7.558,7.592-7.558
		c4.555,0,7.889,2.376,7.889,6.337c0,1.65-0.727,2.047-2.146,2.047c-1.154,0-2.111-0.33-2.145-1.354
		C481.229,71.575,480.701,69.858,477.896,69.858z"/>
	<path fill="none" stroke="#FFFFFF" stroke-width="2.8346" stroke-miterlimit="10" d="M487.332,88.44
		c0-0.066,0.033-0.199,0.066-0.33l6.371-20.76c0.297-0.99,1.518-1.453,2.738-1.453c1.254,0,2.475,0.463,2.773,1.453l6.369,20.76
		c0.033,0.131,0.066,0.23,0.066,0.33c0,1.022-1.551,1.781-2.707,1.781c-0.727,0-1.287-0.23-1.451-0.857l-1.256-4.39h-7.557
		l-1.254,4.39c-0.166,0.627-0.727,0.857-1.453,0.857C488.885,90.222,487.332,89.496,487.332,88.44z M499.379,81.608l-2.871-10.133
		l-2.871,10.133H499.379z"/>
	<path fill="none" stroke="#FFFFFF" stroke-width="2.8346" stroke-miterlimit="10" d="M519.377,88.869l-7.096-13.269v13.269
		c0,0.892-1.09,1.353-2.145,1.353c-1.09,0-2.146-0.461-2.146-1.353V67.448c0-0.924,1.057-1.353,2.146-1.353
		c1.551,0,2.178,0.33,3.201,2.277l6.369,12.311V67.416c0-0.925,1.057-1.32,2.146-1.32c1.055,0,2.145,0.396,2.145,1.32v21.453
		c0,0.892-1.09,1.353-2.145,1.353C520.83,90.222,519.938,89.892,519.377,88.869z"/>
	<path fill="none" stroke="#FFFFFF" stroke-width="2.8346" stroke-miterlimit="10" d="M526.271,88.44
		c0-0.066,0.033-0.199,0.066-0.33l6.371-20.76c0.297-0.99,1.518-1.453,2.738-1.453c1.254,0,2.475,0.463,2.773,1.453l6.369,20.76
		c0.033,0.131,0.066,0.23,0.066,0.33c0,1.022-1.551,1.781-2.707,1.781c-0.727,0-1.287-0.23-1.451-0.857l-1.256-4.39h-7.557
		l-1.254,4.39c-0.166,0.627-0.727,0.857-1.453,0.857C527.824,90.222,526.271,89.496,526.271,88.44z M538.318,81.608l-2.871-10.133
		l-2.871,10.133H538.318z"/>
	<path fill="none" stroke="#FFFFFF" stroke-width="2.8346" stroke-miterlimit="10" d="M546.93,67.416c0-0.693,0.561-1.32,1.387-1.32
		h6.535c4.322,0,7.822,1.65,7.822,6.897c0,3.796-1.85,5.842-4.324,6.602l4.324,8.02c0.131,0.166,0.164,0.396,0.164,0.529
		c0,1.088-1.418,2.244-2.674,2.244c-0.594,0-1.154-0.363-1.484-1.023l-4.688-9.109h-2.771v8.614c0,0.892-1.057,1.353-2.145,1.353
		c-1.057,0-2.146-0.461-2.146-1.353V67.416z M551.221,69.858v7.029h3.631c2.145,0,3.531-0.891,3.531-3.498s-1.387-3.531-3.531-3.531
		H551.221z"/>
	<path fill="none" stroke="#FFFFFF" stroke-width="2.8346" stroke-miterlimit="10" d="M569.635,88.176
		c0,1.188-1.023,2.245-2.244,2.245c-1.287,0-2.246-1.057-2.246-2.245c0-1.222,0.959-2.244,2.246-2.244
		C568.611,85.932,569.635,86.954,569.635,88.176z M568.975,82.301c0,0.892-0.957,1.255-1.617,1.255
		c-0.859,0-1.617-0.363-1.617-1.255c0-4.356-0.43-10.165-0.43-14.522c0-1.154,0.891-1.814,2.047-1.814
		c1.121,0,2.078,0.66,2.078,1.814C569.436,72.136,568.975,77.944,568.975,82.301z"/>
</g>
<text transform="matrix(1 0 0 1 81.8989 54.2207)"><tspan x="0" y="0" fill="#9F2050" font-family="'Dosis-Bold'" font-size="42.0717">¡ENTRE MÁS PARTICIPES</tspan><tspan x="-65.636" y="36" fill="#9F2050" font-family="'Dosis-Bold'" font-size="33">MÁS OPORTUNIDADES TIENES DE GANAR!</tspan></text>
</svg>
