<?xml version="1.0" encoding="utf-8"?>
<!-- Generator: Adobe Illustrator 16.0.0, SVG Export Plug-In . SVG Version: 6.00 Build 0)  -->
<!DOCTYPE svg PUBLIC "-//W3C//DTD SVG 1.1//EN" "http://www.w3.org/Graphics/SVG/1.1/DTD/svg11.dtd">
<svg version="1.1" id="Layer_1" xmlns="http://www.w3.org/2000/svg" xmlns:xlink="http://www.w3.org/1999/xlink" x="0px" y="0px"
	 width="1160px" height="366px" viewBox="0 0 1160 366" enable-background="new 0 0 1160 366" xml:space="preserve">
<rect x="9.077" y="73" fill="#FFC303" width="1140" height="281"/>
<g>
	<path fill="#FFFFFF" d="M46.984,108.196l1.492-1.009l0.705,1.312l-1.572,0.968l1.572,0.988l-0.705,1.311l-1.492-1.029l0.039,1.937
		H45.33l0.061-1.937l-1.514,1.029l-0.705-1.311l1.531-0.988l-1.553-0.968l0.686-1.312l1.555,1.009l-0.061-1.977h1.693
		L46.984,108.196z"/>
	<path fill="#FFFFFF" d="M51.904,105.978l7.768,10.308h0.039v-9.924h2.885v15.048h-2.078l-7.766-10.308h-0.041v10.005h-2.863
		v-15.129H51.904z"/>
	<path fill="#FFFFFF" d="M69.312,121.429c-3.006,0-5.043-2.138-5.043-5.104c0-3.006,2.057-5.124,5.043-5.124
		s5.043,2.118,5.043,5.124C74.355,119.291,72.318,121.429,69.312,121.429z M69.312,118.988c1.412,0,2.26-1.372,2.26-2.663
		c0-1.332-0.848-2.703-2.26-2.703s-2.26,1.372-2.26,2.703C67.053,117.617,67.9,118.988,69.312,118.988z"/>
	<path fill="#FFFFFF" d="M78.975,112.372c0.545-0.767,1.473-1.17,2.359-1.17c1.189,0,2.119,0.484,2.744,1.493
		c0.584-0.928,1.693-1.493,2.803-1.493c2.441,0,3.047,1.835,3.047,3.934v5.971h-2.744v-5.043c0-0.928,0.061-2.683-1.291-2.683
		c-1.473,0-1.451,2.018-1.451,3.026v4.7h-2.744v-4.861c0-0.948,0.121-2.865-1.311-2.865c-1.514,0-1.434,1.997-1.434,3.026v4.7
		h-2.742v-9.602h2.742v0.868H78.975z"/>
	<path fill="#FFFFFF" d="M94.809,104.525v7.867c0.625-0.747,1.633-1.19,2.643-1.19c2.723,0,4.377,2.542,4.377,5.063
		c0,2.623-1.594,5.164-4.438,5.164c-0.969,0-1.998-0.444-2.562-1.23h-0.02v0.908h-2.744v-16.582H94.809z M96.785,113.623
		c-1.393,0-2.26,1.392-2.26,2.683s0.867,2.683,2.26,2.683c1.412,0,2.279-1.392,2.279-2.683S98.197,113.623,96.785,113.623z"/>
	<path fill="#FFFFFF" d="M106.428,112.513c0.564-0.847,1.371-1.311,2.4-1.311c0.383,0,0.766,0.101,1.129,0.222l-0.342,2.542
		c-0.324-0.222-0.707-0.343-1.131-0.343c-1.896,0-2.078,1.674-2.078,3.167v4.317h-2.742v-9.602h2.742v1.009H106.428z"/>
	<path fill="#FFFFFF" d="M115.182,119.331c0.908,0,1.473-0.544,1.836-1.311l2.521,0.403c-0.666,1.917-2.34,3.006-4.357,3.006
		c-2.965,0-4.781-2.118-4.781-5.023c0-2.925,1.533-5.204,4.66-5.204c3.146,0,4.539,2.319,4.539,5.204v0.343h-6.314
		C113.285,117.959,113.77,119.331,115.182,119.331z M115.201,113.118c-1.09,0-1.693,0.928-1.836,1.937h3.652
		C116.896,114.066,116.271,113.118,115.201,113.118z"/>
	<path fill="#FFFFFF" d="M131.762,113.501c-1.555,0-2.422,1.453-2.422,2.865c0,1.493,0.949,2.743,2.521,2.743
		c0.727,0,1.412-0.363,1.918-0.908v2.623c-0.748,0.423-1.533,0.605-2.381,0.605c-2.824,0-4.842-2.34-4.842-5.083
		c0-2.864,2.098-5.144,4.982-5.144c0.768,0,1.574,0.181,2.24,0.605v2.643C133.174,113.865,132.588,113.501,131.762,113.501z"/>
	<path fill="#FFFFFF" d="M140.051,121.429c-3.004,0-5.043-2.138-5.043-5.104c0-3.006,2.059-5.124,5.043-5.124
		c2.986,0,5.043,2.118,5.043,5.124C145.094,119.291,143.057,121.429,140.051,121.429z M140.051,118.988
		c1.412,0,2.26-1.372,2.26-2.663c0-1.332-0.848-2.703-2.26-2.703s-2.258,1.372-2.258,2.703
		C137.793,117.617,138.639,118.988,140.051,118.988z"/>
	<path fill="#FFFFFF" d="M149.713,112.372c0.545-0.767,1.473-1.17,2.361-1.17c1.189,0,2.117,0.484,2.742,1.493
		c0.586-0.928,1.695-1.493,2.805-1.493c2.441,0,3.045,1.835,3.045,3.934v5.971h-2.742v-5.043c0-0.928,0.061-2.683-1.291-2.683
		c-1.473,0-1.453,2.018-1.453,3.026v4.7h-2.742v-4.861c0-0.948,0.119-2.865-1.312-2.865c-1.512,0-1.432,1.997-1.432,3.026v4.7
		h-2.744v-9.602h2.744v0.868H149.713z"/>
	<path fill="#FFFFFF" d="M168.189,111.202c2.725,0,4.379,2.542,4.379,5.063c0,2.623-1.594,5.164-4.439,5.164
		c-0.967,0-1.996-0.444-2.561-1.23h-0.021v6.031h-2.742v-14.726h2.742v0.888C166.174,111.646,167.182,111.202,168.189,111.202z
		 M167.525,113.623c-1.393,0-2.26,1.392-2.26,2.683s0.867,2.683,2.26,2.683c1.412,0,2.279-1.392,2.279-2.683
		S168.938,113.623,167.525,113.623z"/>
	<path fill="#FFFFFF" d="M174.564,121.106v-16.582h2.742v16.582H174.564z"/>
	<path fill="#FFFFFF" d="M183.641,119.331c0.908,0,1.473-0.544,1.836-1.311l2.521,0.403c-0.666,1.917-2.34,3.006-4.357,3.006
		c-2.965,0-4.779-2.118-4.779-5.023c0-2.925,1.533-5.204,4.658-5.204c3.148,0,4.539,2.319,4.539,5.204v0.343h-6.312
		C181.746,117.959,182.229,119.331,183.641,119.331z M183.662,113.118c-1.09,0-1.695,0.928-1.836,1.937h3.65
		C185.355,114.066,184.73,113.118,183.662,113.118z"/>
	<path fill="#FFFFFF" d="M190.096,121.106v-7.282h-0.928v-2.32h0.928v-3.248h2.744v3.248h1.674v2.32h-1.674v7.282H190.096z"/>
	<path fill="#FFFFFF" d="M200.262,121.429c-3.004,0-5.043-2.138-5.043-5.104c0-3.006,2.059-5.124,5.043-5.124
		c2.986,0,5.043,2.118,5.043,5.124C205.305,119.291,203.268,121.429,200.262,121.429z M200.262,118.988
		c1.412,0,2.26-1.372,2.26-2.663c0-1.332-0.848-2.703-2.26-2.703s-2.258,1.372-2.258,2.703
		C198.004,117.617,198.85,118.988,200.262,118.988z"/>
	<path fill="#FFFFFF" d="M208.936,114.47c-0.969,0-1.734-0.807-1.734-1.775c0-0.948,0.766-1.715,1.734-1.715
		c0.949,0,1.734,0.767,1.734,1.715C210.67,113.663,209.885,114.47,208.936,114.47z M208.936,121.49
		c-0.969,0-1.734-0.787-1.734-1.755c0-0.948,0.766-1.715,1.734-1.715c0.949,0,1.734,0.767,1.734,1.715
		C210.67,120.703,209.885,121.49,208.936,121.49z"/>
</g>
<g>
	<path fill="#FFFFFF" d="M198.921,44.886V27.173h4.701c3.707,0,6.105,1.478,6.105,5.5c0,3.756-2.035,5.597-5.646,5.597h-1.721v6.615
		H198.921z M203.064,35.412c2.06,0,3.15-0.46,3.15-2.763c0-2.277-1.309-2.593-3.247-2.593h-0.606v5.355H203.064z"/>
	<path fill="#FFFFFF" d="M218.859,44.886V43.82h-0.049c-0.702,0.92-1.938,1.454-3.126,1.454c-3.392,0-5.307-3.077-5.307-6.203
		c0-3.053,1.938-6.082,5.259-6.082c1.188,0,2.423,0.509,3.223,1.454v-1.09h3.223v11.534H218.859z M216.436,35.896
		c-1.695,0-2.713,1.672-2.713,3.223s1.018,3.223,2.713,3.223c1.696,0,2.738-1.672,2.738-3.223S218.132,35.896,216.436,35.896z"/>
	<path fill="#FFFFFF" d="M227.966,34.564c0.679-1.018,1.648-1.575,2.884-1.575c0.46,0,0.921,0.121,1.357,0.267l-0.412,3.053
		c-0.388-0.267-0.849-0.412-1.357-0.412c-2.277,0-2.496,2.011-2.496,3.804v5.186h-3.295V33.353h3.295v1.211H227.966z"/>
	<path fill="#FFFFFF" d="M240.977,44.886V43.82h-0.049c-0.702,0.92-1.938,1.454-3.126,1.454c-3.392,0-5.307-3.077-5.307-6.203
		c0-3.053,1.938-6.082,5.259-6.082c1.188,0,2.423,0.509,3.223,1.454v-1.09h3.223v11.534H240.977z M238.553,35.896
		c-1.695,0-2.713,1.672-2.713,3.223s1.018,3.223,2.713,3.223c1.696,0,2.738-1.672,2.738-3.223S240.249,35.896,238.553,35.896z"/>
	<path fill="#FFFFFF" d="M260.016,32.989c3.271,0,5.258,3.053,5.258,6.082c0,3.15-1.914,6.203-5.33,6.203
		c-1.164,0-2.399-0.533-3.078-1.478h-0.023v7.245h-3.296V33.353h3.296v1.066C257.593,33.522,258.804,32.989,260.016,32.989z
		 M259.216,35.896c-1.672,0-2.714,1.672-2.714,3.223s1.042,3.223,2.714,3.223c1.696,0,2.738-1.672,2.738-3.223
		S260.912,35.896,259.216,35.896z"/>
	<path fill="#FFFFFF" d="M272.999,45.274c-3.61,0-6.058-2.568-6.058-6.13c0-3.61,2.471-6.155,6.058-6.155
		c3.586,0,6.058,2.544,6.058,6.155C279.057,42.706,276.609,45.274,272.999,45.274z M272.999,42.342c1.696,0,2.714-1.647,2.714-3.198
		c0-1.599-1.018-3.247-2.714-3.247s-2.714,1.648-2.714,3.247C270.285,40.694,271.303,42.342,272.999,42.342z"/>
	<path fill="#FFFFFF" d="M289.133,43.796c-0.678,0.945-1.914,1.478-3.102,1.478c-3.393,0-5.307-3.077-5.307-6.203
		c0-3.053,1.938-6.082,5.259-6.082c1.187,0,2.423,0.509,3.149,1.43h0.049v-9.45h3.271v19.918h-3.271v-1.09H289.133z M286.782,35.896
		c-1.695,0-2.714,1.672-2.714,3.223s1.019,3.223,2.714,3.223c1.696,0,2.714-1.672,2.714-3.223S288.479,35.896,286.782,35.896z"/>
	<path fill="#FFFFFF" d="M300.105,42.754c1.091,0,1.77-0.654,2.205-1.575l3.029,0.485c-0.8,2.302-2.811,3.61-5.234,3.61
		c-3.562,0-5.742-2.544-5.742-6.034c0-3.513,1.842-6.251,5.598-6.251c3.779,0,5.451,2.787,5.451,6.251v0.412h-7.584
		C297.828,41.106,298.41,42.754,300.105,42.754z M300.13,35.291c-1.309,0-2.035,1.114-2.205,2.326h4.386
		C302.165,36.43,301.414,35.291,300.13,35.291z"/>
	<path fill="#FFFFFF" d="M310.909,34.564c0.679-1.018,1.648-1.575,2.884-1.575c0.46,0,0.921,0.121,1.357,0.267l-0.412,3.053
		c-0.388-0.267-0.849-0.412-1.357-0.412c-2.277,0-2.496,2.011-2.496,3.804v5.186h-3.295V33.353h3.295v1.211H310.909z"/>
	<path fill="#FFFFFF" d="M330.071,32.989c3.271,0,5.258,3.053,5.258,6.082c0,3.15-1.914,6.203-5.331,6.203
		c-1.162,0-2.398-0.533-3.077-1.478h-0.024v7.245h-3.295V33.353h3.295v1.066C327.648,33.522,328.859,32.989,330.071,32.989z
		 M329.271,35.896c-1.672,0-2.714,1.672-2.714,3.223s1.042,3.223,2.714,3.223c1.696,0,2.738-1.672,2.738-3.223
		S330.968,35.896,329.271,35.896z"/>
	<path fill="#FFFFFF" d="M345.769,44.886V43.82h-0.049c-0.702,0.92-1.938,1.454-3.126,1.454c-3.392,0-5.307-3.077-5.307-6.203
		c0-3.053,1.938-6.082,5.259-6.082c1.187,0,2.423,0.509,3.223,1.454v-1.09h3.223v11.534H345.769z M343.346,35.896
		c-1.696,0-2.715,1.672-2.715,3.223s1.019,3.223,2.715,3.223c1.695,0,2.737-1.672,2.737-3.223S345.041,35.896,343.346,35.896z"/>
	<path fill="#FFFFFF" d="M354.875,34.564c0.679-1.018,1.648-1.575,2.884-1.575c0.46,0,0.921,0.121,1.356,0.267l-0.411,3.053
		c-0.388-0.267-0.849-0.412-1.357-0.412c-2.277,0-2.495,2.011-2.495,3.804v5.186h-3.296V33.353h3.296v1.211H354.875z"/>
	<path fill="#FFFFFF" d="M361.439,44.886v-8.748h-1.114v-2.786h1.114v-3.901h3.295v3.901h2.012v2.786h-2.012v8.748H361.439z"/>
	<path fill="#FFFFFF" d="M370.329,30.469c-1.065,0-1.938-0.872-1.938-1.938c0-1.066,0.873-1.963,1.938-1.963
		c1.091,0,1.963,0.897,1.963,1.963C372.292,29.597,371.42,30.469,370.329,30.469z M368.706,44.886V33.353h3.271v11.534H368.706z"/>
	<path fill="#FFFFFF" d="M380.189,35.751c-1.865,0-2.907,1.745-2.907,3.441c0,1.793,1.139,3.295,3.028,3.295
		c0.873,0,1.696-0.436,2.303-1.09v3.15c-0.896,0.509-1.842,0.727-2.859,0.727c-3.393,0-5.815-2.811-5.815-6.106
		c0-3.441,2.52-6.179,5.984-6.179c0.921,0,1.891,0.218,2.69,0.727v3.174C381.886,36.188,381.184,35.751,380.189,35.751z"/>
	<path fill="#FFFFFF" d="M386.438,30.469c-1.065,0-1.938-0.872-1.938-1.938c0-1.066,0.873-1.963,1.938-1.963
		c1.091,0,1.963,0.897,1.963,1.963C388.4,29.597,387.528,30.469,386.438,30.469z M384.814,44.886V33.353h3.271v11.534H384.814z"/>
	<path fill="#FFFFFF" d="M397.122,32.989c3.271,0,5.258,3.053,5.258,6.082c0,3.15-1.914,6.203-5.331,6.203
		c-1.162,0-2.398-0.533-3.077-1.478h-0.024v7.245h-3.295V33.353h3.295v1.066C394.699,33.522,395.91,32.989,397.122,32.989z
		 M396.322,35.896c-1.672,0-2.714,1.672-2.714,3.223s1.042,3.223,2.714,3.223c1.696,0,2.738-1.672,2.738-3.223
		S398.019,35.896,396.322,35.896z"/>
	<path fill="#FFFFFF" d="M412.819,44.886V43.82h-0.049c-0.702,0.92-1.938,1.454-3.126,1.454c-3.392,0-5.307-3.077-5.307-6.203
		c0-3.053,1.938-6.082,5.259-6.082c1.187,0,2.423,0.509,3.223,1.454v-1.09h3.223v11.534H412.819z M410.396,35.896
		c-1.696,0-2.715,1.672-2.715,3.223s1.019,3.223,2.715,3.223c1.695,0,2.737-1.672,2.737-3.223S412.092,35.896,410.396,35.896z"/>
	<path fill="#FFFFFF" d="M421.926,34.564c0.679-1.018,1.648-1.575,2.884-1.575c0.46,0,0.921,0.121,1.356,0.267l-0.411,3.053
		c-0.388-0.267-0.849-0.412-1.357-0.412c-2.277,0-2.495,2.011-2.495,3.804v5.186h-3.296V33.353h3.296v1.211H421.926z"/>
	<path fill="#FFFFFF" d="M434.618,44.886V24.968h3.296v19.918H434.618z"/>
	<path fill="#FFFFFF" d="M440.528,44.886V24.968h3.296v19.918H440.528z"/>
	<path fill="#FFFFFF" d="M451.43,42.754c1.091,0,1.77-0.654,2.205-1.575l3.029,0.485c-0.8,2.302-2.811,3.61-5.234,3.61
		c-3.562,0-5.742-2.544-5.742-6.034c0-3.513,1.842-6.251,5.598-6.251c3.779,0,5.451,2.787,5.451,6.251v0.412h-7.584
		C449.152,41.106,449.734,42.754,451.43,42.754z M451.454,35.291c-1.309,0-2.035,1.114-2.205,2.326h4.386
		C453.489,36.43,452.738,35.291,451.454,35.291z"/>
	<path fill="#FFFFFF" d="M462.233,34.418c0.703-1.042,1.842-1.43,3.005-1.43c3.102,0,3.998,2.181,3.998,4.846v7.051h-3.271V38.78
		c0-1.381,0.049-3.174-1.793-3.174c-1.963,0-1.963,2.181-1.963,3.586v5.694h-3.295V33.353h3.295v1.066H462.233z"/>
	<path fill="#FFFFFF" d="M479.652,44.886V43.82h-0.049c-0.702,0.92-1.938,1.454-3.126,1.454c-3.392,0-5.307-3.077-5.307-6.203
		c0-3.053,1.938-6.082,5.259-6.082c1.188,0,2.423,0.509,3.223,1.454v-1.09h3.223v11.534H479.652z M477.229,35.896
		c-1.695,0-2.713,1.672-2.713,3.223s1.018,3.223,2.713,3.223c1.696,0,2.738-1.672,2.738-3.223S478.925,35.896,477.229,35.896z"/>
	<path fill="#FFFFFF" d="M492.876,44.886v-8.748h-1.114v-2.786h1.114v-3.901h3.295v3.901h2.012v2.786h-2.012v8.748H492.876z"/>
	<path fill="#FFFFFF" d="M505.086,45.274c-3.61,0-6.058-2.568-6.058-6.13c0-3.61,2.472-6.155,6.058-6.155s6.058,2.544,6.058,6.155
		C511.144,42.706,508.696,45.274,505.086,45.274z M505.086,42.342c1.696,0,2.714-1.647,2.714-3.198c0-1.599-1.018-3.247-2.714-3.247
		s-2.714,1.648-2.714,3.247C502.372,40.694,503.39,42.342,505.086,42.342z"/>
	<path fill="#FFFFFF" d="M521.22,43.796c-0.679,0.945-1.914,1.478-3.102,1.478c-3.392,0-5.307-3.077-5.307-6.203
		c0-3.053,1.938-6.082,5.259-6.082c1.187,0,2.423,0.509,3.149,1.43h0.049v-9.45h3.271v19.918h-3.271v-1.09H521.22z M518.869,35.896
		c-1.695,0-2.714,1.672-2.714,3.223s1.019,3.223,2.714,3.223c1.696,0,2.714-1.672,2.714-3.223S520.565,35.896,518.869,35.896z"/>
	<path fill="#FFFFFF" d="M532.532,45.274c-3.61,0-6.058-2.568-6.058-6.13c0-3.61,2.471-6.155,6.058-6.155
		c3.586,0,6.058,2.544,6.058,6.155C538.59,42.706,536.143,45.274,532.532,45.274z M532.532,42.342c1.696,0,2.714-1.647,2.714-3.198
		c0-1.599-1.018-3.247-2.714-3.247s-2.714,1.648-2.714,3.247C529.818,40.694,530.836,42.342,532.532,42.342z"/>
	<path fill="#FFFFFF" d="M544.717,35.291c-0.533,0-1.066,0.412-1.066,0.969c0,0.848,1.188,1.091,2.375,1.6
		c1.188,0.533,2.374,1.333,2.374,3.319c0,2.569-2.084,4.095-4.507,4.095c-1.551,0-3.053-0.727-4.047-1.938l1.503-1.938
		c0.63,0.703,1.478,1.333,2.447,1.333c0.727,0,1.309-0.484,1.309-1.235c0-1.018-1.163-1.26-2.302-1.745
		c-1.163-0.509-2.303-1.187-2.303-3.029c0-2.156,1.503-3.731,3.659-3.731c1.212,0,2.763,0.364,3.707,1.188l-1.405,1.914
		C546.001,35.63,545.371,35.291,544.717,35.291z"/>
	<path fill="#FFFFFF" d="M557.142,44.886V24.968h3.296v19.918H557.142z"/>
	<path fill="#FFFFFF" d="M568.383,45.274c-3.61,0-6.058-2.568-6.058-6.13c0-3.61,2.472-6.155,6.058-6.155s6.058,2.544,6.058,6.155
		C574.44,42.706,571.993,45.274,568.383,45.274z M568.383,42.342c1.696,0,2.714-1.647,2.714-3.198c0-1.599-1.018-3.247-2.714-3.247
		s-2.714,1.648-2.714,3.247C565.669,40.694,566.687,42.342,568.383,42.342z"/>
	<path fill="#FFFFFF" d="M580.567,35.291c-0.533,0-1.066,0.412-1.066,0.969c0,0.848,1.188,1.091,2.375,1.6
		c1.187,0.533,2.374,1.333,2.374,3.319c0,2.569-2.084,4.095-4.507,4.095c-1.551,0-3.053-0.727-4.046-1.938l1.502-1.938
		c0.63,0.703,1.478,1.333,2.447,1.333c0.727,0,1.309-0.484,1.309-1.235c0-1.018-1.163-1.26-2.302-1.745
		c-1.163-0.509-2.303-1.187-2.303-3.029c0-2.156,1.503-3.731,3.659-3.731c1.212,0,2.763,0.364,3.707,1.188l-1.405,1.914
		C581.852,35.63,581.222,35.291,580.567,35.291z"/>
	<path fill="#FFFFFF" d="M598.638,35.751c-1.865,0-2.907,1.745-2.907,3.441c0,1.793,1.139,3.295,3.028,3.295
		c0.873,0,1.696-0.436,2.303-1.09v3.15c-0.897,0.509-1.842,0.727-2.859,0.727c-3.393,0-5.815-2.811-5.815-6.106
		c0-3.441,2.52-6.179,5.984-6.179c0.921,0,1.891,0.218,2.69,0.727v3.174C600.334,36.188,599.632,35.751,598.638,35.751z"/>
	<path fill="#FFFFFF" d="M611.308,44.886V43.82h-0.049c-0.702,0.92-1.938,1.454-3.126,1.454c-3.392,0-5.307-3.077-5.307-6.203
		c0-3.053,1.938-6.082,5.259-6.082c1.187,0,2.423,0.509,3.223,1.454v-1.09h3.223v11.534H611.308z M608.885,35.896
		c-1.696,0-2.715,1.672-2.715,3.223s1.019,3.223,2.715,3.223c1.695,0,2.737-1.672,2.737-3.223S610.58,35.896,608.885,35.896z"/>
	<path fill="#FFFFFF" d="M620.414,34.394c0.654-0.92,1.77-1.405,2.835-1.405c1.43,0,2.545,0.582,3.296,1.793
		c0.702-1.114,2.035-1.793,3.368-1.793c2.932,0,3.659,2.205,3.659,4.725v7.172h-3.296v-6.058c0-1.115,0.072-3.223-1.551-3.223
		c-1.769,0-1.745,2.423-1.745,3.634v5.646h-3.295v-5.84c0-1.139,0.146-3.44-1.575-3.44c-1.817,0-1.72,2.399-1.72,3.634v5.646h-3.296
		V33.353h3.296v1.042H620.414z"/>
	<path fill="#FFFFFF" d="M642.604,32.989c3.271,0,5.258,3.053,5.258,6.082c0,3.15-1.914,6.203-5.331,6.203
		c-1.162,0-2.398-0.533-3.077-1.478h-0.024v7.245h-3.295V33.353h3.295v1.066C640.182,33.522,641.393,32.989,642.604,32.989z
		 M641.805,35.896c-1.672,0-2.714,1.672-2.714,3.223s1.042,3.223,2.714,3.223c1.696,0,2.738-1.672,2.738-3.223
		S643.501,35.896,641.805,35.896z"/>
	<path fill="#FFFFFF" d="M655.588,45.274c-3.61,0-6.058-2.568-6.058-6.13c0-3.61,2.472-6.155,6.058-6.155s6.058,2.544,6.058,6.155
		C661.646,42.706,659.198,45.274,655.588,45.274z M655.588,42.342c1.696,0,2.714-1.647,2.714-3.198c0-1.599-1.018-3.247-2.714-3.247
		s-2.714,1.648-2.714,3.247C652.874,40.694,653.892,42.342,655.588,42.342z"/>
	<path fill="#FFFFFF" d="M667.772,35.291c-0.533,0-1.066,0.412-1.066,0.969c0,0.848,1.188,1.091,2.375,1.6
		c1.187,0.533,2.374,1.333,2.374,3.319c0,2.569-2.084,4.095-4.507,4.095c-1.551,0-3.053-0.727-4.046-1.938l1.502-1.938
		c0.63,0.703,1.478,1.333,2.447,1.333c0.727,0,1.309-0.484,1.309-1.235c0-1.018-1.163-1.26-2.302-1.745
		c-1.163-0.509-2.303-1.187-2.303-3.029c0-2.156,1.503-3.731,3.659-3.731c1.212,0,2.763,0.364,3.707,1.188l-1.405,1.914
		C669.057,35.63,668.427,35.291,667.772,35.291z"/>
	<path fill="#FFFFFF" d="M684.099,35.291c-0.533,0-1.066,0.412-1.066,0.969c0,0.848,1.188,1.091,2.375,1.6
		c1.187,0.533,2.374,1.333,2.374,3.319c0,2.569-2.084,4.095-4.507,4.095c-1.551,0-3.053-0.727-4.046-1.938l1.502-1.938
		c0.63,0.703,1.478,1.333,2.447,1.333c0.727,0,1.309-0.484,1.309-1.235c0-1.018-1.163-1.26-2.302-1.745
		c-1.163-0.509-2.303-1.187-2.303-3.029c0-2.156,1.503-3.731,3.659-3.731c1.212,0,2.763,0.364,3.707,1.188l-1.405,1.914
		C685.383,35.63,684.753,35.291,684.099,35.291z"/>
	<path fill="#FFFFFF" d="M695.072,45.274c-3.61,0-6.058-2.568-6.058-6.13c0-3.61,2.472-6.155,6.058-6.155s6.058,2.544,6.058,6.155
		C701.13,42.706,698.683,45.274,695.072,45.274z M695.072,42.342c1.696,0,2.714-1.647,2.714-3.198c0-1.599-1.018-3.247-2.714-3.247
		s-2.714,1.648-2.714,3.247C692.358,40.694,693.376,42.342,695.072,42.342z"/>
	<path fill="#FFFFFF" d="M703.355,44.886V24.968h3.295v19.918H703.355z"/>
	<path fill="#FFFFFF" d="M710.889,30.469c-1.065,0-1.938-0.872-1.938-1.938c0-1.066,0.873-1.963,1.938-1.963
		c1.091,0,1.963,0.897,1.963,1.963C712.852,29.597,711.979,30.469,710.889,30.469z M709.266,44.886V33.353h3.271v11.534H709.266z"/>
	<path fill="#FFFFFF" d="M720.749,35.751c-1.865,0-2.907,1.745-2.907,3.441c0,1.793,1.139,3.295,3.028,3.295
		c0.873,0,1.696-0.436,2.303-1.09v3.15c-0.897,0.509-1.842,0.727-2.859,0.727c-3.393,0-5.815-2.811-5.815-6.106
		c0-3.441,2.52-6.179,5.984-6.179c0.921,0,1.891,0.218,2.69,0.727v3.174C722.445,36.188,721.743,35.751,720.749,35.751z"/>
	<path fill="#FFFFFF" d="M726.997,30.469c-1.065,0-1.938-0.872-1.938-1.938c0-1.066,0.873-1.963,1.938-1.963
		c1.091,0,1.963,0.897,1.963,1.963C728.96,29.597,728.088,30.469,726.997,30.469z M725.374,44.886V33.353h3.271v11.534H725.374z"/>
	<path fill="#FFFFFF" d="M731.866,44.886v-8.748h-1.114v-2.786h1.114v-3.901h3.295v3.901h2.012v2.786h-2.012v8.748H731.866z"/>
	<path fill="#FFFFFF" d="M746.791,44.886V43.82h-0.049c-0.702,0.92-1.938,1.454-3.126,1.454c-3.392,0-5.307-3.077-5.307-6.203
		c0-3.053,1.938-6.082,5.259-6.082c1.188,0,2.423,0.509,3.223,1.454v-1.09h3.223v11.534H746.791z M744.367,35.896
		c-1.695,0-2.713,1.672-2.713,3.223s1.018,3.223,2.713,3.223c1.696,0,2.738-1.672,2.738-3.223S746.063,35.896,744.367,35.896z"/>
	<path fill="#FFFFFF" d="M760.429,43.796c-0.679,0.945-1.914,1.478-3.102,1.478c-3.392,0-5.307-3.077-5.307-6.203
		c0-3.053,1.938-6.082,5.259-6.082c1.187,0,2.423,0.509,3.149,1.43h0.049v-9.45h3.271v19.918h-3.271v-1.09H760.429z M758.078,35.896
		c-1.695,0-2.714,1.672-2.714,3.223s1.019,3.223,2.714,3.223c1.696,0,2.714-1.672,2.714-3.223S759.774,35.896,758.078,35.896z"/>
	<path fill="#FFFFFF" d="M771.741,45.274c-3.61,0-6.058-2.568-6.058-6.13c0-3.61,2.471-6.155,6.058-6.155
		c3.586,0,6.058,2.544,6.058,6.155C777.799,42.706,775.352,45.274,771.741,45.274z M771.741,42.342c1.696,0,2.714-1.647,2.714-3.198
		c0-1.599-1.018-3.247-2.714-3.247s-2.714,1.648-2.714,3.247C769.027,40.694,770.045,42.342,771.741,42.342z"/>
	<path fill="#FFFFFF" d="M783.926,35.291c-0.533,0-1.066,0.412-1.066,0.969c0,0.848,1.188,1.091,2.375,1.6
		c1.188,0.533,2.374,1.333,2.374,3.319c0,2.569-2.084,4.095-4.507,4.095c-1.551,0-3.053-0.727-4.047-1.938l1.503-1.938
		c0.63,0.703,1.478,1.333,2.447,1.333c0.727,0,1.309-0.484,1.309-1.235c0-1.018-1.163-1.26-2.302-1.745
		c-1.163-0.509-2.303-1.187-2.303-3.029c0-2.156,1.503-3.731,3.659-3.731c1.212,0,2.763,0.364,3.707,1.188l-1.405,1.914
		C785.21,35.63,784.58,35.291,783.926,35.291z"/>
	<path fill="#FFFFFF" d="M798.822,36.599c0,3.368,0.509,7.463,1.914,10.541l-2.011,1.381c-1.77-3.465-2.375-8.19-2.375-12.067
		c0-3.805,0.679-8.36,2.375-11.776l2.011,1.357C799.331,29.233,798.822,33.134,798.822,36.599z"/>
	<path fill="#FFFFFF" d="M807.18,29.378l1.793-1.211l0.849,1.575l-1.891,1.163l1.891,1.188l-0.849,1.575l-1.793-1.236l0.049,2.326
		h-2.035l0.072-2.326l-1.817,1.236l-0.848-1.575l1.841-1.188l-1.865-1.163l0.823-1.575l1.866,1.211l-0.072-2.375h2.035
		L807.18,29.378z"/>
	<path fill="#FFFFFF" d="M816.264,35.751c-1.865,0-2.907,1.745-2.907,3.441c0,1.793,1.139,3.295,3.028,3.295
		c0.873,0,1.696-0.436,2.303-1.09v3.15c-0.896,0.509-1.842,0.727-2.859,0.727c-3.393,0-5.815-2.811-5.815-6.106
		c0-3.441,2.52-6.179,5.984-6.179c0.921,0,1.891,0.218,2.69,0.727v3.174C817.96,36.188,817.258,35.751,816.264,35.751z"/>
	<path fill="#FFFFFF" d="M828.934,44.886V43.82h-0.049c-0.702,0.92-1.938,1.454-3.126,1.454c-3.392,0-5.307-3.077-5.307-6.203
		c0-3.053,1.938-6.082,5.259-6.082c1.188,0,2.423,0.509,3.223,1.454v-1.09h3.223v11.534H828.934z M826.51,35.896
		c-1.695,0-2.713,1.672-2.713,3.223s1.018,3.223,2.713,3.223c1.696,0,2.738-1.672,2.738-3.223S828.206,35.896,826.51,35.896z"/>
	<path fill="#FFFFFF" d="M838.04,34.394c0.654-0.92,1.77-1.405,2.835-1.405c1.43,0,2.545,0.582,3.296,1.793
		c0.702-1.114,2.035-1.793,3.368-1.793c2.932,0,3.658,2.205,3.658,4.725v7.172h-3.295v-6.058c0-1.115,0.072-3.223-1.551-3.223
		c-1.769,0-1.744,2.423-1.744,3.634v5.646h-3.296v-5.84c0-1.139,0.146-3.44-1.575-3.44c-1.817,0-1.721,2.399-1.721,3.634v5.646
		h-3.295V33.353h3.295v1.042H838.04z"/>
	<path fill="#FFFFFF" d="M860.23,32.989c3.271,0,5.258,3.053,5.258,6.082c0,3.15-1.914,6.203-5.33,6.203
		c-1.164,0-2.399-0.533-3.078-1.478h-0.023v7.245h-3.296V33.353h3.296v1.066C857.808,33.522,859.019,32.989,860.23,32.989z
		 M859.431,35.896c-1.672,0-2.714,1.672-2.714,3.223s1.042,3.223,2.714,3.223c1.696,0,2.738-1.672,2.738-3.223
		S861.127,35.896,859.431,35.896z"/>
	<path fill="#FFFFFF" d="M873.214,45.274c-3.61,0-6.058-2.568-6.058-6.13c0-3.61,2.471-6.155,6.058-6.155
		c3.586,0,6.058,2.544,6.058,6.155C879.271,42.706,876.824,45.274,873.214,45.274z M873.214,42.342c1.696,0,2.714-1.647,2.714-3.198
		c0-1.599-1.018-3.247-2.714-3.247s-2.714,1.648-2.714,3.247C870.5,40.694,871.518,42.342,873.214,42.342z"/>
	<path fill="#FFFFFF" d="M885.398,35.291c-0.533,0-1.066,0.412-1.066,0.969c0,0.848,1.188,1.091,2.375,1.6
		c1.188,0.533,2.374,1.333,2.374,3.319c0,2.569-2.084,4.095-4.507,4.095c-1.551,0-3.053-0.727-4.047-1.938l1.503-1.938
		c0.63,0.703,1.478,1.333,2.447,1.333c0.727,0,1.309-0.484,1.309-1.235c0-1.018-1.163-1.26-2.302-1.745
		c-1.163-0.509-2.303-1.187-2.303-3.029c0-2.156,1.503-3.731,3.659-3.731c1.212,0,2.763,0.364,3.707,1.188l-1.405,1.914
		C886.683,35.63,886.053,35.291,885.398,35.291z"/>
	<path fill="#FFFFFF" d="M903.154,45.274c-3.61,0-6.058-2.568-6.058-6.13c0-3.61,2.472-6.155,6.058-6.155s6.058,2.544,6.058,6.155
		C909.212,42.706,906.765,45.274,903.154,45.274z M903.154,42.342c1.696,0,2.714-1.647,2.714-3.198c0-1.599-1.018-3.247-2.714-3.247
		s-2.714,1.648-2.714,3.247C900.44,40.694,901.458,42.342,903.154,42.342z"/>
	<path fill="#FFFFFF" d="M914.732,24.968v9.45c0.752-0.896,1.963-1.43,3.175-1.43c3.271,0,5.258,3.053,5.258,6.082
		c0,3.15-1.914,6.203-5.331,6.203c-1.162,0-2.398-0.533-3.077-1.478h-0.024v1.09h-3.295V24.968H914.732z M917.107,35.896
		c-1.672,0-2.714,1.672-2.714,3.223s1.042,3.223,2.714,3.223c1.696,0,2.738-1.672,2.738-3.223S918.804,35.896,917.107,35.896z"/>
	<path fill="#FFFFFF" d="M925.56,44.886V24.968h3.296v19.918H925.56z"/>
	<path fill="#FFFFFF" d="M933.093,30.469c-1.065,0-1.938-0.872-1.938-1.938c0-1.066,0.873-1.963,1.938-1.963
		c1.091,0,1.963,0.897,1.963,1.963C935.056,29.597,934.184,30.469,933.093,30.469z M931.47,44.886V33.353h3.271v11.534H931.47z"/>
	<path fill="#FFFFFF" d="M942.881,51.041c-2.811,0-5.67-1.721-5.815-4.798h3.465c0.17,1.236,1.042,2.035,2.277,2.035
		c2.326,0,2.375-2.06,2.375-3.78v-0.751h-0.049c-0.702,0.92-1.938,1.526-3.149,1.526c-3.368,0-5.186-2.98-5.186-6.058
		c0-3.174,1.914-6.228,5.355-6.228c1.139,0,2.326,0.582,2.979,1.478h0.049v-1.114h3.296v10.831
		C948.479,47.939,947.193,51.041,942.881,51.041z M942.856,35.896c-1.696,0-2.714,1.696-2.714,3.247s1.018,3.198,2.714,3.198
		s2.714-1.647,2.714-3.198S944.553,35.896,942.856,35.896z"/>
	<path fill="#FFFFFF" d="M959.087,44.886V43.82h-0.049c-0.702,0.92-1.938,1.454-3.126,1.454c-3.392,0-5.307-3.077-5.307-6.203
		c0-3.053,1.938-6.082,5.259-6.082c1.187,0,2.423,0.509,3.223,1.454v-1.09h3.223v11.534H959.087z M956.664,35.896
		c-1.696,0-2.715,1.672-2.715,3.223s1.019,3.223,2.715,3.223c1.695,0,2.737-1.672,2.737-3.223S958.359,35.896,956.664,35.896z"/>
	<path fill="#FFFFFF" d="M965.528,44.886v-8.748h-1.114v-2.786h1.114v-3.901h3.295v3.901h2.012v2.786h-2.012v8.748H965.528z"/>
	<path fill="#FFFFFF" d="M977.739,45.274c-3.61,0-6.058-2.568-6.058-6.13c0-3.61,2.471-6.155,6.058-6.155
		c3.586,0,6.058,2.544,6.058,6.155C983.797,42.706,981.35,45.274,977.739,45.274z M977.739,42.342c1.696,0,2.714-1.647,2.714-3.198
		c0-1.599-1.018-3.247-2.714-3.247s-2.714,1.648-2.714,3.247C975.025,40.694,976.043,42.342,977.739,42.342z"/>
	<path fill="#FFFFFF" d="M989.342,34.564c0.679-1.018,1.648-1.575,2.884-1.575c0.46,0,0.921,0.121,1.356,0.267l-0.411,3.053
		c-0.388-0.267-0.849-0.412-1.357-0.412c-2.277,0-2.495,2.011-2.495,3.804v5.186h-3.296V33.353h3.296v1.211H989.342z"/>
	<path fill="#FFFFFF" d="M996.681,30.469c-1.065,0-1.938-0.872-1.938-1.938c0-1.066,0.873-1.963,1.938-1.963
		c1.091,0,1.963,0.897,1.963,1.963C998.644,29.597,997.771,30.469,996.681,30.469z M995.058,44.886V33.353h3.271v11.534H995.058z"/>
	<path fill="#FFFFFF" d="M1006.227,45.274c-3.61,0-6.058-2.568-6.058-6.13c0-3.61,2.472-6.155,6.058-6.155s6.058,2.544,6.058,6.155
		C1012.284,42.706,1009.837,45.274,1006.227,45.274z M1006.227,42.342c1.696,0,2.714-1.647,2.714-3.198
		c0-1.599-1.018-3.247-2.714-3.247s-2.714,1.648-2.714,3.247C1003.513,40.694,1004.53,42.342,1006.227,42.342z"/>
	<path fill="#FFFFFF" d="M1018.411,35.291c-0.533,0-1.066,0.412-1.066,0.969c0,0.848,1.188,1.091,2.375,1.6
		c1.187,0.533,2.374,1.333,2.374,3.319c0,2.569-2.084,4.095-4.507,4.095c-1.551,0-3.053-0.727-4.046-1.938l1.502-1.938
		c0.63,0.703,1.478,1.333,2.447,1.333c0.727,0,1.309-0.484,1.309-1.235c0-1.018-1.163-1.26-2.302-1.745
		c-1.163-0.509-2.303-1.187-2.303-3.029c0-2.156,1.503-3.731,3.659-3.731c1.212,0,2.763,0.364,3.707,1.188l-1.405,1.914
		C1019.695,35.63,1019.065,35.291,1018.411,35.291z"/>
	<path fill="#FFFFFF" d="M1025.822,24.702c1.696,3.417,2.375,7.972,2.375,11.776c0,3.877-0.605,8.602-2.375,12.067l-2.011-1.381
		c1.405-3.078,1.938-7.172,1.938-10.541c0-3.465-0.533-7.366-1.938-10.565L1025.822,24.702z"/>
</g>
<g>
	<path fill="#F1FFFF" d="M383.318,154.66h4.095c4.257,0,7.121,3.187,7.121,7.403c0,4.135-2.925,7.343-7.141,7.343h-4.075V154.66z
		 M386.183,166.904h0.464c3.551,0,4.922-1.957,4.922-4.861c0-3.208-1.653-4.882-4.922-4.882h-0.464V166.904z"/>
	<path fill="#F1FFFF" d="M397.6,158.412l-1.392-0.847l2.34-3.288l1.997,1.21L397.6,158.412z M396.551,169.406v-9.602h2.724v9.602
		H396.551z"/>
	<path fill="#F1FFFF" d="M407.807,169.406v-0.888h-0.04c-0.585,0.767-1.614,1.21-2.603,1.21c-2.824,0-4.418-2.562-4.418-5.164
		c0-2.542,1.614-5.063,4.378-5.063c0.988,0,2.017,0.423,2.683,1.21v-0.908h2.683v9.602H407.807z M405.789,161.922
		c-1.412,0-2.259,1.392-2.259,2.683s0.847,2.683,2.259,2.683s2.279-1.392,2.279-2.683S407.201,161.922,405.789,161.922z"/>
</g>
<g>
	<path fill="#F1FFFF" d="M495.781,160.268l-3.328,9.34h-1.009l-3.228-9.34h-0.041l-1.311,9.138h-2.885l2.481-15.129h2.037
		L492.13,164l3.49-9.723h2.058l2.219,15.129h-2.905l-1.17-9.138H495.781z"/>
	<path fill="#F1FFFF" d="M505.664,167.631c0.908,0,1.473-0.545,1.836-1.312l2.521,0.403c-0.666,1.917-2.34,3.006-4.357,3.006
		c-2.965,0-4.78-2.118-4.78-5.023c0-2.925,1.533-5.204,4.659-5.204c3.147,0,4.539,2.32,4.539,5.204v0.343h-6.314
		C503.768,166.259,504.252,167.631,505.664,167.631z M505.685,161.417c-1.09,0-1.694,0.928-1.836,1.937h3.651
		C507.379,162.366,506.754,161.417,505.685,161.417z"/>
	<path fill="#F1FFFF" d="M515.145,161.417c-0.444,0-0.888,0.343-0.888,0.807c0,0.706,0.988,0.908,1.977,1.331
		c0.988,0.444,1.977,1.11,1.977,2.764c0,2.138-1.734,3.409-3.752,3.409c-1.291,0-2.541-0.605-3.368-1.614l1.25-1.614
		c0.525,0.585,1.23,1.109,2.038,1.109c0.604,0,1.089-0.403,1.089-1.029c0-0.847-0.968-1.049-1.916-1.452
		c-0.969-0.424-1.917-0.989-1.917-2.521c0-1.795,1.251-3.106,3.047-3.106c1.008,0,2.299,0.302,3.086,0.988l-1.17,1.594
		C516.213,161.7,515.688,161.417,515.145,161.417z"/>
</g>
<g>
	<path fill="#F1FFFF" d="M593.447,169.406h-3.026l5.749-15.129h2.22l5.587,15.129h-3.065l-1.13-3.106h-5.124L593.447,169.406z
		 M597.099,158.594l-1.614,5.366h3.49l-1.836-5.366H597.099z"/>
	<path fill="#F1FFFF" d="M607.789,160.691c0.585-0.867,1.533-1.19,2.501-1.19c2.582,0,3.329,1.815,3.329,4.034v5.87h-2.724v-5.083
		c0-1.15,0.04-2.643-1.493-2.643c-1.634,0-1.634,1.815-1.634,2.986v4.74h-2.743v-9.602h2.743v0.888H607.789z M607.749,154.882
		c0.464,0,1.008,0.222,1.492,0.403c0.505,0.202,0.969,0.444,1.271,0.444c0.545,0,0.706-0.403,0.929-0.827h1.613
		c-0.222,1.251-0.888,2.764-2.36,2.764c-0.403,0-0.887-0.222-1.352-0.444c-0.464-0.202-0.928-0.423-1.291-0.423
		c-0.483,0-0.726,0.383-0.847,0.807h-1.594C605.711,156.476,606.397,154.882,607.749,154.882z"/>
	<path fill="#F1FFFF" d="M620.194,169.729c-3.005,0-5.043-2.138-5.043-5.104c0-3.006,2.058-5.124,5.043-5.124
		s5.043,2.118,5.043,5.124C625.237,167.59,623.2,169.729,620.194,169.729z M620.194,167.288c1.412,0,2.26-1.372,2.26-2.663
		c0-1.332-0.848-2.703-2.26-2.703s-2.259,1.372-2.259,2.703C617.936,165.916,618.782,167.288,620.194,167.288z"/>
</g>
<g>
	<path fill="#FFFFFF" d="M46.984,156.496l1.492-1.009l0.705,1.312l-1.572,0.968l1.572,0.988l-0.705,1.311l-1.492-1.029l0.039,1.937
		H45.33l0.061-1.937l-1.514,1.029l-0.705-1.311l1.531-0.988l-1.553-0.968l0.686-1.312l1.555,1.009l-0.061-1.977h1.693
		L46.984,156.496z"/>
	<path fill="#FFFFFF" d="M52.711,157.161v3.248h4.176v2.501h-4.176v6.496h-2.863V154.66h7.303v2.501H52.711z"/>
	<path fill="#FFFFFF" d="M62.998,167.631c0.908,0,1.473-0.545,1.836-1.312l2.521,0.403c-0.666,1.917-2.34,3.006-4.357,3.006
		c-2.965,0-4.779-2.118-4.779-5.023c0-2.925,1.533-5.204,4.658-5.204c3.148,0,4.539,2.32,4.539,5.204v0.343h-6.312
		C61.104,166.259,61.586,167.631,62.998,167.631z M63.02,161.417c-1.09,0-1.695,0.928-1.836,1.937h3.65
		C64.713,162.366,64.088,161.417,63.02,161.417z"/>
	<path fill="#FFFFFF" d="M73.932,161.801c-1.555,0-2.422,1.453-2.422,2.865c0,1.493,0.949,2.743,2.521,2.743
		c0.727,0,1.412-0.363,1.918-0.908v2.623c-0.748,0.423-1.533,0.605-2.381,0.605c-2.824,0-4.842-2.34-4.842-5.083
		c0-2.864,2.098-5.144,4.982-5.144c0.768,0,1.574,0.181,2.24,0.605v2.643C75.344,162.164,74.758,161.801,73.932,161.801z"/>
	<path fill="#FFFFFF" d="M80.527,160.611h0.02c0.586-0.787,1.533-1.109,2.502-1.109c2.582,0,3.328,1.815,3.328,4.034v5.87h-2.723
		v-5.083c0-1.15,0.039-2.643-1.494-2.643c-1.633,0-1.633,1.815-1.633,2.986v4.74h-2.744v-16.582h2.744V160.611z"/>
	<path fill="#FFFFFF" d="M95.111,169.406v-0.888h-0.039c-0.586,0.767-1.615,1.21-2.604,1.21c-2.824,0-4.418-2.562-4.418-5.164
		c0-2.542,1.615-5.063,4.379-5.063c0.988,0,2.016,0.423,2.682,1.21v-0.908h2.684v9.602H95.111z M93.094,161.922
		c-1.412,0-2.258,1.392-2.258,2.683s0.846,2.683,2.258,2.683s2.279-1.392,2.279-2.683S94.506,161.922,93.094,161.922z"/>
	<path fill="#FFFFFF" d="M112.115,168.498c-0.564,0.787-1.594,1.23-2.582,1.23c-2.824,0-4.418-2.562-4.418-5.164
		c0-2.542,1.613-5.063,4.377-5.063c0.988,0,2.018,0.423,2.623,1.19h0.041v-7.867h2.723v16.582h-2.723v-0.908H112.115z
		 M110.158,161.922c-1.412,0-2.26,1.392-2.26,2.683s0.848,2.683,2.26,2.683s2.26-1.392,2.26-2.683S111.57,161.922,110.158,161.922z"
		/>
	<path fill="#FFFFFF" d="M121.252,167.631c0.908,0,1.473-0.545,1.836-1.312l2.521,0.403c-0.666,1.917-2.34,3.006-4.357,3.006
		c-2.965,0-4.779-2.118-4.779-5.023c0-2.925,1.533-5.204,4.658-5.204c3.148,0,4.539,2.32,4.539,5.204v0.343h-6.312
		C119.357,166.259,119.84,167.631,121.252,167.631z M121.273,161.417c-1.09,0-1.695,0.928-1.836,1.937h3.65
		C122.967,162.366,122.342,161.417,121.273,161.417z"/>
	<path fill="#FFFFFF" d="M135.896,160.691c0.584-0.867,1.533-1.19,2.5-1.19c2.582,0,3.33,1.815,3.33,4.034v5.87h-2.725v-5.083
		c0-1.15,0.041-2.643-1.492-2.643c-1.635,0-1.635,1.815-1.635,2.986v4.74h-2.742v-9.602h2.742v0.888H135.896z"/>
	<path fill="#FFFFFF" d="M150.4,169.406v-0.888h-0.041c-0.584,0.767-1.613,1.21-2.602,1.21c-2.824,0-4.418-2.562-4.418-5.164
		c0-2.542,1.613-5.063,4.377-5.063c0.988,0,2.018,0.423,2.684,1.21v-0.908h2.682v9.602H150.4z M148.383,161.922
		c-1.412,0-2.26,1.392-2.26,2.683s0.848,2.683,2.26,2.683s2.279-1.392,2.279-2.683S149.795,161.922,148.383,161.922z"/>
	<path fill="#FFFFFF" d="M159.92,161.801c-1.553,0-2.42,1.453-2.42,2.865c0,1.493,0.947,2.743,2.521,2.743
		c0.727,0,1.412-0.363,1.916-0.908v2.623c-0.746,0.423-1.533,0.605-2.381,0.605c-2.824,0-4.84-2.34-4.84-5.083
		c0-2.864,2.098-5.144,4.982-5.144c0.766,0,1.572,0.181,2.238,0.605v2.643C161.332,162.164,160.748,161.801,159.92,161.801z"/>
	<path fill="#FFFFFF" d="M165.125,157.403c-0.889,0-1.615-0.726-1.615-1.614s0.727-1.634,1.615-1.634
		c0.908,0,1.633,0.746,1.633,1.634S166.033,157.403,165.125,157.403z M163.773,169.406v-9.602h2.723v9.602H163.773z"/>
	<path fill="#FFFFFF" d="M171.398,160.671c0.545-0.767,1.473-1.17,2.359-1.17c1.189,0,2.119,0.484,2.744,1.493
		c0.584-0.928,1.693-1.493,2.803-1.493c2.441,0,3.047,1.835,3.047,3.933v5.971h-2.744v-5.043c0-0.928,0.061-2.683-1.291-2.683
		c-1.473,0-1.451,2.018-1.451,3.026v4.7h-2.744v-4.861c0-0.948,0.121-2.865-1.311-2.865c-1.514,0-1.434,1.997-1.434,3.026v4.7
		h-2.742v-9.602h2.742v0.868H171.398z"/>
	<path fill="#FFFFFF" d="M185.84,157.403c-0.887,0-1.613-0.726-1.613-1.614s0.727-1.634,1.613-1.634
		c0.908,0,1.635,0.746,1.635,1.634S186.748,157.403,185.84,157.403z M184.488,169.406v-9.602h2.725v9.602H184.488z"/>
	<path fill="#FFFFFF" d="M193.506,167.631c0.908,0,1.473-0.545,1.836-1.312l2.521,0.403c-0.666,1.917-2.34,3.006-4.357,3.006
		c-2.965,0-4.781-2.118-4.781-5.023c0-2.925,1.533-5.204,4.66-5.204c3.146,0,4.539,2.32,4.539,5.204v0.343h-6.314
		C191.609,166.259,192.094,167.631,193.506,167.631z M193.525,161.417c-1.09,0-1.693,0.928-1.836,1.937h3.652
		C195.221,162.366,194.596,161.417,193.525,161.417z"/>
	<path fill="#FFFFFF" d="M202.502,160.691c0.584-0.867,1.533-1.19,2.5-1.19c2.582,0,3.33,1.815,3.33,4.034v5.87h-2.725v-5.083
		c0-1.15,0.041-2.643-1.492-2.643c-1.635,0-1.635,1.815-1.635,2.986v4.74h-2.742v-9.602h2.742v0.888H202.502z"/>
	<path fill="#FFFFFF" d="M210.529,169.406v-7.282h-0.928v-2.32h0.928v-3.248h2.744v3.248h1.674v2.32h-1.674v7.282H210.529z"/>
	<path fill="#FFFFFF" d="M220.695,169.729c-3.004,0-5.043-2.138-5.043-5.104c0-3.006,2.059-5.124,5.043-5.124
		c2.986,0,5.043,2.118,5.043,5.124C225.738,167.59,223.701,169.729,220.695,169.729z M220.695,167.288
		c1.412,0,2.26-1.372,2.26-2.663c0-1.332-0.848-2.703-2.26-2.703s-2.258,1.372-2.258,2.703
		C218.438,165.916,219.283,167.288,220.695,167.288z"/>
	<path fill="#FFFFFF" d="M229.369,162.769c-0.969,0-1.734-0.807-1.734-1.775c0-0.948,0.766-1.715,1.734-1.715
		c0.949,0,1.734,0.767,1.734,1.715C231.104,161.962,230.318,162.769,229.369,162.769z M229.369,169.789
		c-0.969,0-1.734-0.787-1.734-1.755c0-0.948,0.766-1.715,1.734-1.715c0.949,0,1.734,0.767,1.734,1.715
		C231.104,169.002,230.318,169.789,229.369,169.789z"/>
</g>
<g>
	<path fill="#FFFFFF" d="M46.984,212.561l1.492-1.009l0.705,1.312l-1.572,0.968l1.572,0.988l-0.705,1.311l-1.492-1.029l0.039,1.937
		H45.33l0.061-1.937l-1.514,1.029l-0.705-1.311l1.531-0.988l-1.553-0.968l0.686-1.312l1.555,1.009l-0.061-1.977h1.693
		L46.984,212.561z"/>
	<path fill="#FFFFFF" d="M54.748,225.471h-2.863v-12.245h-2.986v-2.501h8.816v2.501h-2.967V225.471z"/>
	<path fill="#FFFFFF" d="M62.07,223.696c0.908,0,1.473-0.545,1.836-1.312l2.521,0.403c-0.666,1.917-2.34,3.006-4.357,3.006
		c-2.965,0-4.779-2.118-4.779-5.023c0-2.925,1.533-5.204,4.658-5.204c3.148,0,4.539,2.32,4.539,5.204v0.343h-6.312
		C60.176,222.324,60.658,223.696,62.07,223.696z M62.092,217.483c-1.09,0-1.695,0.928-1.836,1.937h3.65
		C63.785,218.431,63.16,217.483,62.092,217.483z"/>
	<path fill="#FFFFFF" d="M68.305,225.471V208.89h2.742v16.582H68.305z"/>
	<path fill="#FFFFFF" d="M75.486,221.114c0,1.21,0.482,2.582,1.895,2.582c0.908,0,1.473-0.545,1.836-1.312l2.521,0.403
		c-0.666,1.917-2.34,3.006-4.357,3.006c-2.965,0-4.779-2.118-4.779-5.023c0-2.925,1.533-5.204,4.658-5.204
		c3.148,0,4.539,2.32,4.539,5.204v0.343H75.486z M79.217,219.419c-0.121-0.988-0.746-1.937-1.814-1.937
		c-1.09,0-1.695,0.928-1.836,1.937H79.217z M80.166,211.552l-2.945,2.925l-1.393-0.847l2.34-3.288L80.166,211.552z"/>
	<path fill="#FFFFFF" d="M83.875,225.471v-7.282h-0.928v-2.32h0.928v-2.804c0-2.36,0.969-4.397,3.611-4.397
		c0.443,0,0.908,0.101,1.311,0.302v2.441c-0.363-0.161-0.705-0.323-1.109-0.323c-1.211,0-1.09,1.574-1.09,2.36v2.42h2.199v2.32
		h-2.199v7.282H83.875z"/>
	<path fill="#FFFFFF" d="M94.404,225.794c-3.004,0-5.043-2.138-5.043-5.104c0-3.006,2.059-5.124,5.043-5.124
		c2.986,0,5.043,2.118,5.043,5.124C99.447,223.656,97.41,225.794,94.404,225.794z M94.404,223.353c1.412,0,2.26-1.372,2.26-2.663
		c0-1.332-0.848-2.703-2.26-2.703s-2.258,1.372-2.258,2.703C92.146,221.981,92.992,223.353,94.404,223.353z"/>
	<path fill="#FFFFFF" d="M104.066,216.757c0.586-0.867,1.533-1.19,2.502-1.19c2.582,0,3.328,1.815,3.328,4.034v5.87h-2.723v-5.083
		c0-1.15,0.039-2.643-1.494-2.643c-1.633,0-1.633,1.815-1.633,2.986v4.74h-2.744v-9.602h2.744v0.888H104.066z"/>
	<path fill="#FFFFFF" d="M116.473,225.794c-3.006,0-5.043-2.138-5.043-5.104c0-3.006,2.057-5.124,5.043-5.124
		s5.043,2.118,5.043,5.124C121.516,223.656,119.479,225.794,116.473,225.794z M116.473,223.353c1.412,0,2.26-1.372,2.26-2.663
		c0-1.332-0.848-2.703-2.26-2.703s-2.26,1.372-2.26,2.703C114.213,221.981,115.061,223.353,116.473,223.353z"/>
	<path fill="#FFFFFF" d="M139.145,214.639c-0.807-0.968-2.018-1.553-3.248-1.553c-2.742,0-4.336,2.542-4.336,5.083
		c0,2.481,1.654,4.962,4.316,4.962c1.23,0,2.461-0.646,3.268-1.574v3.43c-1.068,0.504-2.139,0.867-3.348,0.867
		c-4.137,0-7.203-3.57-7.203-7.625c0-4.196,2.945-7.887,7.262-7.887c1.15,0,2.301,0.323,3.289,0.867V214.639z"/>
	<path fill="#FFFFFF" d="M145.316,223.696c0.908,0,1.473-0.545,1.836-1.312l2.521,0.403c-0.666,1.917-2.34,3.006-4.357,3.006
		c-2.965,0-4.781-2.118-4.781-5.023c0-2.925,1.533-5.204,4.66-5.204c3.146,0,4.539,2.32,4.539,5.204v0.343h-6.314
		C143.42,222.324,143.904,223.696,145.316,223.696z M145.336,217.483c-1.09,0-1.693,0.928-1.836,1.937h3.652
		C147.031,218.431,146.406,217.483,145.336,217.483z"/>
	<path fill="#FFFFFF" d="M151.549,225.471V208.89h2.742v16.582H151.549z"/>
	<path fill="#FFFFFF" d="M159.213,221.074c0,1.089,0.162,2.4,1.555,2.4c1.391,0,1.572-1.311,1.572-2.4v-5.205h2.725v5.648
		c0,2.804-1.434,4.276-4.297,4.276c-2.846,0-4.297-1.473-4.297-4.276v-5.648h2.742V221.074z"/>
	<path fill="#FFFFFF" d="M167.201,225.471V208.89h2.744v16.582H167.201z"/>
	<path fill="#FFFFFF" d="M178.82,225.471v-0.888h-0.039c-0.586,0.767-1.615,1.21-2.604,1.21c-2.824,0-4.418-2.562-4.418-5.164
		c0-2.542,1.615-5.063,4.379-5.063c0.988,0,2.016,0.423,2.682,1.21v-0.908h2.684v9.602H178.82z M176.803,217.987
		c-1.412,0-2.258,1.392-2.258,2.683s0.846,2.683,2.258,2.683s2.279-1.392,2.279-2.683S178.215,217.987,176.803,217.987z"/>
	<path fill="#FFFFFF" d="M186.404,216.878c0.564-0.847,1.373-1.311,2.4-1.311c0.383,0,0.768,0.101,1.131,0.222l-0.344,2.542
		c-0.322-0.222-0.705-0.343-1.129-0.343c-1.896,0-2.078,1.674-2.078,3.167v4.317h-2.744v-9.602h2.744v1.009H186.404z"/>
</g>
<g>
	<path fill="#FFFFFF" d="M46.984,260.966l1.492-1.009l0.705,1.312l-1.572,0.968l1.572,0.988l-0.705,1.311l-1.492-1.029l0.039,1.937
		H45.33l0.061-1.937l-1.514,1.029l-0.705-1.311l1.531-0.988l-1.553-0.968l0.686-1.312l1.555,1.009l-0.061-1.977h1.693
		L46.984,260.966z"/>
	<path fill="#FFFFFF" d="M59.973,263.043c-0.807-0.968-2.016-1.553-3.246-1.553c-2.744,0-4.338,2.542-4.338,5.083
		c0,2.481,1.654,4.962,4.316,4.962c1.23,0,2.461-0.646,3.268-1.574v3.429c-1.068,0.504-2.137,0.868-3.348,0.868
		c-4.135,0-7.201-3.57-7.201-7.625c0-4.196,2.945-7.887,7.262-7.887c1.15,0,2.299,0.323,3.287,0.867V263.043z"/>
	<path fill="#FFFFFF" d="M66.428,274.199c-3.004,0-5.043-2.138-5.043-5.104c0-3.006,2.059-5.124,5.043-5.124
		c2.986,0,5.043,2.118,5.043,5.124C71.471,272.061,69.434,274.199,66.428,274.199z M66.428,271.758c1.412,0,2.26-1.372,2.26-2.663
		c0-1.332-0.848-2.703-2.26-2.703s-2.258,1.372-2.258,2.703C64.17,270.386,65.016,271.758,66.428,271.758z"/>
	<path fill="#FFFFFF" d="M76.09,265.283c0.564-0.847,1.373-1.311,2.4-1.311c0.383,0,0.768,0.101,1.131,0.222l-0.344,2.542
		c-0.322-0.222-0.705-0.343-1.129-0.343c-1.896,0-2.078,1.674-2.078,3.167v4.317h-2.744v-9.602h2.744v1.009H76.09z"/>
	<path fill="#FFFFFF" d="M83.775,265.283c0.564-0.847,1.373-1.311,2.4-1.311c0.383,0,0.768,0.101,1.131,0.222l-0.344,2.542
		c-0.322-0.222-0.705-0.343-1.129-0.343c-1.896,0-2.078,1.674-2.078,3.167v4.317h-2.744v-9.602h2.744v1.009H83.775z"/>
	<path fill="#FFFFFF" d="M92.529,272.101c0.908,0,1.473-0.544,1.836-1.311l2.521,0.403c-0.666,1.917-2.34,3.006-4.357,3.006
		c-2.965,0-4.779-2.118-4.779-5.023c0-2.925,1.533-5.204,4.658-5.204c3.148,0,4.539,2.319,4.539,5.204v0.343h-6.312
		C90.635,270.729,91.117,272.101,92.529,272.101z M92.551,265.888c-1.09,0-1.695,0.928-1.836,1.937h3.65
		C94.244,266.836,93.619,265.888,92.551,265.888z"/>
	<path fill="#FFFFFF" d="M103.199,274.199c-3.004,0-5.043-2.138-5.043-5.104c0-3.006,2.059-5.124,5.043-5.124
		c2.986,0,5.043,2.118,5.043,5.124C108.242,272.061,106.205,274.199,103.199,274.199z M103.199,271.758
		c1.412,0,2.26-1.372,2.26-2.663c0-1.332-0.848-2.703-2.26-2.703s-2.258,1.372-2.258,2.703
		C100.941,270.386,101.787,271.758,103.199,271.758z"/>
	<path fill="#FFFFFF" d="M119.902,272.101c0.908,0,1.473-0.544,1.836-1.311l2.521,0.403c-0.666,1.917-2.34,3.006-4.357,3.006
		c-2.965,0-4.781-2.118-4.781-5.023c0-2.925,1.533-5.204,4.66-5.204c3.146,0,4.539,2.319,4.539,5.204v0.343h-6.314
		C118.006,270.729,118.49,272.101,119.902,272.101z M119.922,265.888c-1.09,0-1.693,0.928-1.836,1.937h3.652
		C121.617,266.836,120.992,265.888,119.922,265.888z"/>
	<path fill="#FFFFFF" d="M126.135,273.876v-16.582h2.742v16.582H126.135z"/>
	<path fill="#FFFFFF" d="M135.211,272.101c0.908,0,1.473-0.544,1.836-1.311l2.521,0.403c-0.666,1.917-2.34,3.006-4.357,3.006
		c-2.965,0-4.779-2.118-4.779-5.023c0-2.925,1.533-5.204,4.658-5.204c3.148,0,4.539,2.319,4.539,5.204v0.343h-6.312
		C133.316,270.729,133.799,272.101,135.211,272.101z M135.232,265.888c-1.09,0-1.695,0.928-1.836,1.937h3.65
		C136.926,266.836,136.301,265.888,135.232,265.888z"/>
	<path fill="#FFFFFF" d="M146.145,266.271c-1.553,0-2.42,1.453-2.42,2.865c0,1.493,0.947,2.743,2.521,2.743
		c0.727,0,1.412-0.363,1.916-0.908v2.623c-0.746,0.423-1.533,0.605-2.381,0.605c-2.824,0-4.84-2.34-4.84-5.083
		c0-2.864,2.098-5.144,4.982-5.144c0.766,0,1.572,0.181,2.238,0.605v2.643C147.557,266.634,146.973,266.271,146.145,266.271z"/>
	<path fill="#FFFFFF" d="M150.541,273.876v-7.282h-0.928v-2.32h0.928v-3.248h2.744v3.248h1.674v2.32h-1.674v7.282H150.541z"/>
	<path fill="#FFFFFF" d="M159.033,265.283c0.564-0.847,1.373-1.311,2.4-1.311c0.383,0,0.768,0.101,1.131,0.222l-0.344,2.542
		c-0.322-0.222-0.705-0.343-1.129-0.343c-1.896,0-2.078,1.674-2.078,3.167v4.317h-2.744v-9.602h2.744v1.009H159.033z"/>
	<path fill="#FFFFFF" d="M167.768,274.199c-3.004,0-5.043-2.138-5.043-5.104c0-3.006,2.059-5.124,5.043-5.124
		c2.986,0,5.043,2.118,5.043,5.124C172.811,272.061,170.773,274.199,167.768,274.199z M167.768,271.758
		c1.412,0,2.26-1.372,2.26-2.663c0-1.332-0.848-2.703-2.26-2.703s-2.258,1.372-2.258,2.703
		C165.51,270.386,166.355,271.758,167.768,271.758z M167.768,262.882l-1.391-0.847l2.34-3.288l1.996,1.21L167.768,262.882z"/>
	<path fill="#FFFFFF" d="M177.43,265.162c0.586-0.867,1.533-1.19,2.502-1.19c2.582,0,3.328,1.815,3.328,4.034v5.87h-2.723v-5.083
		c0-1.15,0.039-2.643-1.494-2.643c-1.633,0-1.633,1.815-1.633,2.986v4.74h-2.744v-9.602h2.744v0.888H177.43z"/>
	<path fill="#FFFFFF" d="M186.75,261.874c-0.889,0-1.615-0.726-1.615-1.614s0.727-1.634,1.615-1.634
		c0.908,0,1.633,0.746,1.633,1.634S187.658,261.874,186.75,261.874z M185.398,273.876v-9.602h2.723v9.602H185.398z"/>
	<path fill="#FFFFFF" d="M194.959,266.271c-1.553,0-2.42,1.453-2.42,2.865c0,1.493,0.947,2.743,2.521,2.743
		c0.727,0,1.412-0.363,1.916-0.908v2.623c-0.746,0.423-1.533,0.605-2.381,0.605c-2.824,0-4.84-2.34-4.84-5.083
		c0-2.864,2.098-5.144,4.982-5.144c0.766,0,1.572,0.181,2.238,0.605v2.643C196.371,266.634,195.787,266.271,194.959,266.271z"/>
	<path fill="#FFFFFF" d="M203.248,274.199c-3.004,0-5.043-2.138-5.043-5.104c0-3.006,2.059-5.124,5.043-5.124
		c2.986,0,5.043,2.118,5.043,5.124C208.291,272.061,206.254,274.199,203.248,274.199z M203.248,271.758
		c1.412,0,2.26-1.372,2.26-2.663c0-1.332-0.848-2.703-2.26-2.703s-2.258,1.372-2.258,2.703
		C200.99,270.386,201.836,271.758,203.248,271.758z"/>
</g>
<g>
	<path fill="#FFFFFF" d="M667.109,325.924h-3.025l5.748-15.129h2.221l5.586,15.129h-3.064l-1.131-3.106h-5.123L667.109,325.924z
		 M670.762,315.111l-1.615,5.366h3.49l-1.836-5.366H670.762z"/>
	<path fill="#FFFFFF" d="M683.389,318.319c-1.555,0-2.422,1.453-2.422,2.865c0,1.492,0.949,2.743,2.521,2.743
		c0.727,0,1.412-0.363,1.918-0.907v2.622c-0.748,0.423-1.533,0.604-2.381,0.604c-2.824,0-4.842-2.34-4.842-5.083
		c0-2.864,2.098-5.144,4.982-5.144c0.768,0,1.574,0.181,2.24,0.605v2.643C684.801,318.682,684.215,318.319,683.389,318.319z"/>
	<path fill="#FFFFFF" d="M691.395,324.148c0.908,0,1.473-0.545,1.836-1.311l2.521,0.402c-0.666,1.917-2.34,3.006-4.357,3.006
		c-2.965,0-4.779-2.117-4.779-5.022c0-2.925,1.533-5.204,4.658-5.204c3.148,0,4.539,2.319,4.539,5.204v0.343h-6.314
		C689.498,322.777,689.982,324.148,691.395,324.148z M691.416,317.936c-1.09,0-1.695,0.928-1.836,1.937h3.65
		C693.109,318.884,692.484,317.936,691.416,317.936z"/>
	<path fill="#FFFFFF" d="M703.014,316.02c2.725,0,4.379,2.542,4.379,5.063c0,2.623-1.594,5.164-4.439,5.164
		c-0.967,0-1.996-0.443-2.561-1.23h-0.021v6.031h-2.742v-14.725h2.742v0.888C700.998,316.463,702.006,316.02,703.014,316.02z
		 M702.35,318.44c-1.393,0-2.26,1.392-2.26,2.683s0.867,2.683,2.26,2.683c1.41,0,2.279-1.392,2.279-2.683
		S703.76,318.44,702.35,318.44z"/>
	<path fill="#FFFFFF" d="M709.631,325.924v-7.282h-0.928v-2.32h0.928v-3.248h2.742v3.248h1.674v2.32h-1.674v7.282H709.631z"/>
	<path fill="#FFFFFF" d="M719.797,326.246c-3.006,0-5.043-2.138-5.043-5.103c0-3.006,2.057-5.124,5.043-5.124
		c2.984,0,5.043,2.118,5.043,5.124C724.84,324.108,722.803,326.246,719.797,326.246z M719.797,323.806
		c1.412,0,2.26-1.372,2.26-2.663c0-1.332-0.848-2.703-2.26-2.703s-2.26,1.372-2.26,2.703
		C717.537,322.434,718.385,323.806,719.797,323.806z"/>
	<path fill="#FFFFFF" d="M736.297,325.924h-2.865v-12.245h-2.984v-2.501h8.814v2.501h-2.965V325.924z"/>
	<path fill="#FFFFFF" d="M741.723,321.566c0,1.211,0.484,2.582,1.896,2.582c0.908,0,1.473-0.545,1.836-1.311l2.521,0.402
		c-0.666,1.917-2.34,3.006-4.357,3.006c-2.965,0-4.781-2.117-4.781-5.022c0-2.925,1.533-5.204,4.66-5.204
		c3.146,0,4.539,2.319,4.539,5.204v0.343H741.723z M745.455,319.872c-0.121-0.988-0.746-1.937-1.816-1.937
		c-1.09,0-1.693,0.928-1.836,1.937H745.455z M746.402,312.005l-2.945,2.925l-1.391-0.847l2.34-3.288L746.402,312.005z"/>
	<path fill="#FFFFFF" d="M752.615,317.331c0.564-0.847,1.371-1.311,2.4-1.311c0.383,0,0.766,0.101,1.129,0.222l-0.342,2.542
		c-0.324-0.222-0.707-0.343-1.131-0.343c-1.896,0-2.078,1.674-2.078,3.167v4.317h-2.742v-9.602h2.742v1.009H752.615z"/>
	<path fill="#FFFFFF" d="M760.301,317.189c0.545-0.767,1.473-1.17,2.359-1.17c1.189,0,2.119,0.484,2.744,1.493
		c0.584-0.928,1.693-1.493,2.803-1.493c2.441,0,3.047,1.835,3.047,3.934v5.971h-2.744v-5.043c0-0.928,0.061-2.683-1.291-2.683
		c-1.473,0-1.451,2.018-1.451,3.026v4.7h-2.744v-4.861c0-0.948,0.121-2.865-1.311-2.865c-1.514,0-1.434,1.997-1.434,3.026v4.7
		h-2.742v-9.602h2.742v0.868H760.301z"/>
	<path fill="#FFFFFF" d="M774.742,313.921c-0.887,0-1.613-0.726-1.613-1.614s0.727-1.634,1.613-1.634
		c0.908,0,1.635,0.746,1.635,1.634S775.65,313.921,774.742,313.921z M773.391,325.924v-9.602h2.725v9.602H773.391z"/>
	<path fill="#FFFFFF" d="M781.016,317.209c0.586-0.867,1.533-1.19,2.502-1.19c2.582,0,3.328,1.815,3.328,4.034v5.87h-2.723v-5.083
		c0-1.15,0.039-2.643-1.494-2.643c-1.633,0-1.633,1.815-1.633,2.986v4.74h-2.744v-9.602h2.744v0.888H781.016z"/>
	<path fill="#FFFFFF" d="M793.42,326.246c-3.004,0-5.043-2.138-5.043-5.103c0-3.006,2.059-5.124,5.043-5.124
		c2.986,0,5.043,2.118,5.043,5.124C798.463,324.108,796.426,326.246,793.42,326.246z M793.42,323.806c1.412,0,2.26-1.372,2.26-2.663
		c0-1.332-0.848-2.703-2.26-2.703s-2.258,1.372-2.258,2.703C791.162,322.434,792.008,323.806,793.42,323.806z"/>
	<path fill="#FFFFFF" d="M803.568,317.936c-0.445,0-0.889,0.343-0.889,0.807c0,0.706,0.988,0.908,1.977,1.331
		c0.988,0.444,1.977,1.11,1.977,2.764c0,2.138-1.734,3.408-3.752,3.408c-1.291,0-2.541-0.604-3.367-1.613l1.25-1.613
		c0.523,0.584,1.23,1.109,2.037,1.109c0.605,0,1.09-0.404,1.09-1.029c0-0.848-0.969-1.049-1.916-1.452
		c-0.969-0.424-1.918-0.989-1.918-2.521c0-1.795,1.252-3.106,3.047-3.106c1.008,0,2.299,0.302,3.086,0.988l-1.17,1.594
		C804.637,318.218,804.111,317.936,803.568,317.936z"/>
	<path fill="#FFFFFF" d="M808.852,329.232l-1.814-0.223l2.117-5.93l2.502,0.262L808.852,329.232z"/>
	<path fill="#FFFFFF" d="M828.762,315.091c-0.807-0.968-2.018-1.553-3.248-1.553c-2.742,0-4.336,2.542-4.336,5.083
		c0,2.481,1.652,4.962,4.316,4.962c1.23,0,2.461-0.646,3.268-1.574v3.43c-1.068,0.504-2.139,0.867-3.35,0.867
		c-4.135,0-7.201-3.57-7.201-7.625c0-4.196,2.945-7.887,7.262-7.887c1.15,0,2.301,0.323,3.289,0.867V315.091z"/>
	<path fill="#FFFFFF" d="M835.215,326.246c-3.004,0-5.043-2.138-5.043-5.103c0-3.006,2.059-5.124,5.043-5.124
		c2.986,0,5.043,2.118,5.043,5.124C840.258,324.108,838.221,326.246,835.215,326.246z M835.215,323.806
		c1.412,0,2.26-1.372,2.26-2.663c0-1.332-0.848-2.703-2.26-2.703s-2.258,1.372-2.258,2.703
		C832.957,322.434,833.803,323.806,835.215,323.806z"/>
	<path fill="#FFFFFF" d="M844.877,317.209c0.586-0.867,1.533-1.19,2.502-1.19c2.582,0,3.328,1.815,3.328,4.034v5.87h-2.723v-5.083
		c0-1.15,0.039-2.643-1.494-2.643c-1.633,0-1.633,1.815-1.633,2.986v4.74h-2.744v-9.602h2.744v0.888H844.877z"/>
	<path fill="#FFFFFF" d="M859.381,325.016c-0.564,0.787-1.594,1.23-2.582,1.23c-2.824,0-4.418-2.562-4.418-5.164
		c0-2.542,1.613-5.063,4.377-5.063c0.988,0,2.018,0.423,2.623,1.19h0.041v-7.867h2.723v16.582h-2.723v-0.908H859.381z
		 M857.424,318.44c-1.412,0-2.26,1.392-2.26,2.683s0.848,2.683,2.26,2.683s2.26-1.392,2.26-2.683S858.836,318.44,857.424,318.44z"/>
	<path fill="#FFFFFF" d="M865.715,313.921c-0.889,0-1.615-0.726-1.615-1.614s0.727-1.634,1.615-1.634
		c0.906,0,1.633,0.746,1.633,1.634S866.621,313.921,865.715,313.921z M864.363,325.924v-9.602h2.723v9.602H864.363z"/>
	<path fill="#FFFFFF" d="M873.924,318.319c-1.553,0-2.42,1.453-2.42,2.865c0,1.492,0.947,2.743,2.521,2.743
		c0.727,0,1.412-0.363,1.916-0.907v2.622c-0.746,0.423-1.533,0.604-2.381,0.604c-2.824,0-4.84-2.34-4.84-5.083
		c0-2.864,2.098-5.144,4.982-5.144c0.766,0,1.572,0.181,2.238,0.605v2.643C875.336,318.682,874.752,318.319,873.924,318.319z"/>
	<path fill="#FFFFFF" d="M879.129,313.921c-0.889,0-1.615-0.726-1.615-1.614s0.727-1.634,1.615-1.634
		c0.906,0,1.633,0.746,1.633,1.634S880.035,313.921,879.129,313.921z M877.777,325.924v-9.602h2.723v9.602H877.777z"/>
	<path fill="#FFFFFF" d="M887.076,326.246c-3.006,0-5.043-2.138-5.043-5.103c0-3.006,2.057-5.124,5.043-5.124
		c2.984,0,5.043,2.118,5.043,5.124C892.119,324.108,890.082,326.246,887.076,326.246z M887.076,323.806
		c1.412,0,2.26-1.372,2.26-2.663c0-1.332-0.848-2.703-2.26-2.703s-2.26,1.372-2.26,2.703
		C884.816,322.434,885.664,323.806,887.076,323.806z"/>
	<path fill="#FFFFFF" d="M896.738,317.209c0.584-0.867,1.533-1.19,2.5-1.19c2.582,0,3.33,1.815,3.33,4.034v5.87h-2.725v-5.083
		c0-1.15,0.041-2.643-1.492-2.643c-1.635,0-1.635,1.815-1.635,2.986v4.74h-2.742v-9.602h2.742v0.888H896.738z"/>
	<path fill="#FFFFFF" d="M908.859,324.148c0.908,0,1.473-0.545,1.836-1.311l2.521,0.402c-0.666,1.917-2.34,3.006-4.357,3.006
		c-2.965,0-4.779-2.117-4.779-5.022c0-2.925,1.533-5.204,4.658-5.204c3.148,0,4.539,2.319,4.539,5.204v0.343h-6.314
		C906.963,322.777,907.447,324.148,908.859,324.148z M908.881,317.936c-1.09,0-1.695,0.928-1.836,1.937h3.65
		C910.574,318.884,909.949,317.936,908.881,317.936z"/>
	<path fill="#FFFFFF" d="M918.342,317.936c-0.445,0-0.889,0.343-0.889,0.807c0,0.706,0.988,0.908,1.977,1.331
		c0.988,0.444,1.977,1.11,1.977,2.764c0,2.138-1.734,3.408-3.752,3.408c-1.291,0-2.541-0.604-3.367-1.613l1.25-1.613
		c0.523,0.584,1.23,1.109,2.037,1.109c0.605,0,1.09-0.404,1.09-1.029c0-0.848-0.969-1.049-1.916-1.452
		c-0.969-0.424-1.918-0.989-1.918-2.521c0-1.795,1.252-3.106,3.047-3.106c1.008,0,2.299,0.302,3.086,0.988l-1.17,1.594
		C919.41,318.218,918.885,317.936,918.342,317.936z"/>
	<path fill="#FFFFFF" d="M930.707,316.322l2.279,5.467l2.48-5.467h3.047l-6.98,14.725h-3.006l3.146-6.596l-4.074-8.129H930.707z"/>
	<path fill="#FFFFFF" d="M945.068,325.924h-3.027l5.75-15.129h2.219l5.588,15.129h-3.066l-1.129-3.106h-5.125L945.068,325.924z
		 M948.719,315.111l-1.613,5.366h3.49l-1.836-5.366H948.719z"/>
	<path fill="#FFFFFF" d="M961.568,316.322h3.006l-4.418,9.803h-1.412l-4.396-9.803h3.004l2.26,5.426L961.568,316.322z"/>
	<path fill="#FFFFFF" d="M966.994,313.921c-0.887,0-1.613-0.726-1.613-1.614s0.727-1.634,1.613-1.634
		c0.908,0,1.635,0.746,1.635,1.634S967.902,313.921,966.994,313.921z M965.643,325.924v-9.602h2.725v9.602H965.643z"/>
	<path fill="#FFFFFF" d="M973.752,317.936c-0.445,0-0.889,0.343-0.889,0.807c0,0.706,0.988,0.908,1.977,1.331
		c0.988,0.444,1.977,1.11,1.977,2.764c0,2.138-1.734,3.408-3.752,3.408c-1.291,0-2.541-0.604-3.367-1.613l1.25-1.613
		c0.523,0.584,1.23,1.109,2.037,1.109c0.605,0,1.09-0.404,1.09-1.029c0-0.848-0.969-1.049-1.916-1.452
		c-0.969-0.424-1.918-0.989-1.918-2.521c0-1.795,1.252-3.106,3.047-3.106c1.008,0,2.299,0.302,3.086,0.988l-1.17,1.594
		C974.82,318.218,974.295,317.936,973.752,317.936z"/>
	<path fill="#FFFFFF" d="M982.889,326.246c-3.004,0-5.043-2.138-5.043-5.103c0-3.006,2.059-5.124,5.043-5.124
		c2.986,0,5.043,2.118,5.043,5.124C987.932,324.108,985.895,326.246,982.889,326.246z M982.889,323.806
		c1.412,0,2.26-1.372,2.26-2.663c0-1.332-0.848-2.703-2.26-2.703s-2.258,1.372-2.258,2.703
		C980.631,322.434,981.477,323.806,982.889,323.806z"/>
	<path fill="#FFFFFF" d="M1001.971,325.016c-0.564,0.787-1.594,1.23-2.582,1.23c-2.824,0-4.418-2.562-4.418-5.164
		c0-2.542,1.613-5.063,4.377-5.063c0.988,0,2.018,0.423,2.623,1.19h0.041v-7.867h2.723v16.582h-2.723v-0.908H1001.971z
		 M1000.014,318.44c-1.412,0-2.26,1.392-2.26,2.683s0.848,2.683,2.26,2.683s2.26-1.392,2.26-2.683S1001.426,318.44,1000.014,318.44z
		"/>
	<path fill="#FFFFFF" d="M1011.107,324.148c0.908,0,1.473-0.545,1.836-1.311l2.521,0.402c-0.666,1.917-2.34,3.006-4.357,3.006
		c-2.965,0-4.779-2.117-4.779-5.022c0-2.925,1.533-5.204,4.658-5.204c3.148,0,4.539,2.319,4.539,5.204v0.343h-6.314
		C1009.211,322.777,1009.695,324.148,1011.107,324.148z M1011.129,317.936c-1.09,0-1.695,0.928-1.836,1.937h3.65
		C1012.822,318.884,1012.197,317.936,1011.129,317.936z"/>
	<path fill="#FFFFFF" d="M1022.988,325.924v-14.746h3.914c3.086,0,5.084,1.23,5.084,4.579c0,3.127-1.695,4.66-4.701,4.66h-1.432
		v5.507H1022.988z M1026.438,318.037c1.715,0,2.623-0.383,2.623-2.3c0-1.896-1.09-2.158-2.703-2.158h-0.504v4.458H1026.438z"/>
	<path fill="#FFFFFF" d="M1036.281,317.331c0.564-0.847,1.373-1.311,2.4-1.311c0.383,0,0.768,0.101,1.131,0.222l-0.344,2.542
		c-0.322-0.222-0.705-0.343-1.129-0.343c-1.896,0-2.078,1.674-2.078,3.167v4.317h-2.744v-9.602h2.744v1.009H1036.281z"/>
	<path fill="#FFFFFF" d="M1042.395,313.921c-0.889,0-1.615-0.726-1.615-1.614s0.727-1.634,1.615-1.634
		c0.906,0,1.633,0.746,1.633,1.634S1043.301,313.921,1042.395,313.921z M1041.043,325.924v-9.602h2.723v9.602H1041.043z"/>
	<path fill="#FFFFFF" d="M1051.916,316.322h3.004l-4.416,9.803h-1.412l-4.398-9.803h3.006l2.26,5.426L1051.916,316.322z"/>
	<path fill="#FFFFFF" d="M1061.9,325.924v-0.888h-0.041c-0.584,0.767-1.613,1.21-2.602,1.21c-2.824,0-4.418-2.562-4.418-5.164
		c0-2.542,1.613-5.063,4.377-5.063c0.988,0,2.018,0.423,2.684,1.21v-0.908h2.682v9.602H1061.9z M1059.883,318.44
		c-1.412,0-2.26,1.392-2.26,2.683s0.848,2.683,2.26,2.683s2.279-1.392,2.279-2.683S1061.295,318.44,1059.883,318.44z"/>
	<path fill="#FFFFFF" d="M1071.42,318.319c-1.553,0-2.42,1.453-2.42,2.865c0,1.492,0.947,2.743,2.521,2.743
		c0.727,0,1.412-0.363,1.916-0.907v2.622c-0.746,0.423-1.533,0.604-2.381,0.604c-2.824,0-4.84-2.34-4.84-5.083
		c0-2.864,2.098-5.144,4.982-5.144c0.766,0,1.572,0.181,2.238,0.605v2.643C1072.832,318.682,1072.248,318.319,1071.42,318.319z"/>
	<path fill="#FFFFFF" d="M1076.625,313.921c-0.889,0-1.615-0.726-1.615-1.614s0.727-1.634,1.615-1.634
		c0.906,0,1.633,0.746,1.633,1.634S1077.531,313.921,1076.625,313.921z M1075.273,325.924v-9.602h2.723v9.602H1075.273z"/>
	<path fill="#FFFFFF" d="M1086.67,325.016c-0.566,0.787-1.594,1.23-2.582,1.23c-2.824,0-4.418-2.562-4.418-5.164
		c0-2.542,1.613-5.063,4.377-5.063c0.988,0,2.018,0.423,2.623,1.19h0.039v-7.867h2.725v16.582h-2.725v-0.908H1086.67z
		 M1084.713,318.44c-1.412,0-2.26,1.392-2.26,2.683s0.848,2.683,2.26,2.683s2.258-1.392,2.258-2.683
		S1086.125,318.44,1084.713,318.44z"/>
	<path fill="#FFFFFF" d="M1098.35,325.924v-0.888h-0.041c-0.584,0.767-1.613,1.21-2.602,1.21c-2.824,0-4.418-2.562-4.418-5.164
		c0-2.542,1.613-5.063,4.377-5.063c0.988,0,2.018,0.423,2.684,1.21v-0.908h2.682v9.602H1098.35z M1096.332,318.44
		c-1.412,0-2.26,1.392-2.26,2.683s0.848,2.683,2.26,2.683s2.279-1.392,2.279-2.683S1097.744,318.44,1096.332,318.44z"/>
	<path fill="#FFFFFF" d="M1109.705,325.016c-0.564,0.787-1.594,1.23-2.582,1.23c-2.824,0-4.418-2.562-4.418-5.164
		c0-2.542,1.613-5.063,4.377-5.063c0.988,0,2.018,0.423,2.623,1.19h0.041v-7.867h2.723v16.582h-2.723v-0.908H1109.705z
		 M1107.748,318.44c-1.412,0-2.26,1.392-2.26,2.683s0.848,2.683,2.26,2.683s2.26-1.392,2.26-2.683S1109.16,318.44,1107.748,318.44z"
		/>
</g>
<rect x="379" y="98.23" fill="#FFFFFF" width="734" height="28"/>
<rect x="632.769" y="311.123" fill="#FFFFFF" width="16.266" height="15.924"/>
<rect x="379" y="202.595" fill="#FFFFFF" width="734" height="28"/>
<rect x="379" y="251" fill="#FFFFFF" width="734" height="28"/>
<line fill="none" stroke="#F1FFFF" stroke-width="1.7008" stroke-miterlimit="10" x1="418.318" y1="169.406" x2="474" y2="169.406"/>
<line fill="none" stroke="#F1FFFF" stroke-width="1.7008" stroke-miterlimit="10" x1="523.742" y1="169.406" x2="579.424" y2="169.406"/>
<line fill="none" stroke="#F1FFFF" stroke-width="1.7008" stroke-miterlimit="10" x1="632.769" y1="169.406" x2="688.45" y2="169.406"/>
<g>
	<path fill="#C4C4C4" d="M396.021,106.26l5.293,7.025h0.027v-6.764h1.966v10.256h-1.416l-5.293-7.025h-0.027v6.819h-1.952V106.26
		H396.021z"/>
	<path fill="#C4C4C4" d="M407.888,116.791c-2.048,0-3.437-1.458-3.437-3.479c0-2.048,1.402-3.492,3.437-3.492
		c2.035,0,3.438,1.444,3.438,3.492C411.325,115.333,409.937,116.791,407.888,116.791z M407.888,115.127
		c0.963,0,1.54-0.935,1.54-1.815c0-0.907-0.577-1.842-1.54-1.842c-0.962,0-1.54,0.935-1.54,1.842
		C406.348,114.192,406.926,115.127,407.888,115.127z"/>
	<path fill="#C4C4C4" d="M414.475,110.618c0.371-0.522,1.003-0.797,1.608-0.797c0.811,0,1.443,0.33,1.869,1.018
		c0.399-0.632,1.155-1.018,1.911-1.018c1.664,0,2.076,1.251,2.076,2.681v4.069h-1.869v-3.437c0-0.632,0.041-1.829-0.881-1.829
		c-1.003,0-0.989,1.375-0.989,2.062v3.203h-1.87v-3.313c0-0.646,0.083-1.952-0.894-1.952c-1.031,0-0.976,1.361-0.976,2.062v3.203
		h-1.87v-6.544h1.87v0.591H414.475z"/>
	<path fill="#C4C4C4" d="M425.269,105.27v5.362c0.426-0.509,1.113-0.812,1.801-0.812c1.855,0,2.983,1.732,2.983,3.451
		c0,1.787-1.086,3.52-3.024,3.52c-0.66,0-1.361-0.303-1.746-0.839h-0.014v0.619h-1.87V105.27H425.269z M426.615,111.47
		c-0.948,0-1.539,0.949-1.539,1.829s0.591,1.829,1.539,1.829c0.963,0,1.554-0.949,1.554-1.829S427.578,111.47,426.615,111.47z"/>
	<path fill="#C4C4C4" d="M433.189,110.714c0.385-0.577,0.935-0.894,1.636-0.894c0.261,0,0.522,0.069,0.77,0.151l-0.233,1.732
		c-0.22-0.151-0.481-0.234-0.77-0.234c-1.293,0-1.416,1.141-1.416,2.159v2.942h-1.87v-6.544h1.87v0.687H433.189z"/>
	<path fill="#C4C4C4" d="M439.157,115.361c0.619,0,1.004-0.371,1.251-0.894l1.719,0.275c-0.454,1.306-1.595,2.049-2.97,2.049
		c-2.021,0-3.258-1.444-3.258-3.423c0-1.994,1.045-3.547,3.176-3.547c2.145,0,3.093,1.581,3.093,3.547v0.233h-4.303
		C437.865,114.426,438.195,115.361,439.157,115.361z M439.171,111.126c-0.742,0-1.154,0.632-1.251,1.32h2.488
		C440.326,111.772,439.899,111.126,439.171,111.126z"/>
	<path fill="#C4C4C4" d="M444.81,111.869c0,1.911,0.289,4.234,1.086,5.98l-1.141,0.783c-1.004-1.966-1.348-4.646-1.348-6.846
		c0-2.159,0.385-4.743,1.348-6.682l1.141,0.77C445.099,107.689,444.81,109.903,444.81,111.869z"/>
	<path fill="#C4C4C4" d="M449.43,111.126c-0.303,0-0.605,0.234-0.605,0.55c0,0.481,0.674,0.619,1.348,0.908
		c0.674,0.302,1.347,0.756,1.347,1.883c0,1.458-1.182,2.324-2.557,2.324c-0.88,0-1.732-0.413-2.296-1.1l0.853-1.1
		c0.357,0.399,0.838,0.756,1.389,0.756c0.412,0,0.742-0.275,0.742-0.701c0-0.577-0.66-0.715-1.307-0.99
		c-0.659-0.289-1.306-0.674-1.306-1.719c0-1.224,0.853-2.117,2.076-2.117c0.688,0,1.567,0.207,2.104,0.674l-0.798,1.086
		C450.158,111.319,449.801,111.126,449.43,111.126z"/>
	<path fill="#C4C4C4" d="M453.638,105.119c0.962,1.938,1.347,4.523,1.347,6.682c0,2.2-0.344,4.88-1.347,6.847l-1.142-0.784
		c0.798-1.746,1.1-4.07,1.1-5.98c0-1.966-0.302-4.18-1.1-5.994L453.638,105.119z"/>
	<path fill="#C4C4C4" d="M462.025,110.027l1.554,3.726l1.69-3.726h2.076l-4.757,10.036h-2.049l2.146-4.496l-2.777-5.541H462.025z"/>
	<path fill="#C4C4C4" d="M471.815,116.571h-2.062l3.918-10.311h1.513l3.808,10.311h-2.09l-0.77-2.117h-3.492L471.815,116.571z
		 M474.305,109.202l-1.101,3.657h2.379l-1.251-3.657H474.305z"/>
	<path fill="#C4C4C4" d="M483.38,109.82c1.855,0,2.983,1.732,2.983,3.451c0,1.787-1.086,3.52-3.024,3.52
		c-0.66,0-1.361-0.303-1.746-0.839h-0.014v4.111h-1.87v-10.036h1.87v0.605C482.005,110.123,482.692,109.82,483.38,109.82z
		 M482.926,111.47c-0.948,0-1.539,0.949-1.539,1.829s0.591,1.829,1.539,1.829c0.963,0,1.554-0.949,1.554-1.829
		S483.889,111.47,482.926,111.47z"/>
	<path fill="#C4C4C4" d="M490.558,115.361c0.619,0,1.004-0.371,1.251-0.894l1.719,0.275c-0.454,1.306-1.595,2.049-2.97,2.049
		c-2.021,0-3.258-1.444-3.258-3.423c0-1.994,1.045-3.547,3.176-3.547c2.145,0,3.093,1.581,3.093,3.547v0.233h-4.303
		C489.266,114.426,489.596,115.361,490.558,115.361z M490.571,111.126c-0.742,0-1.154,0.632-1.251,1.32h2.488
		C491.727,111.772,491.3,111.126,490.571,111.126z"/>
	<path fill="#C4C4C4" d="M494.808,116.571V105.27h1.87v11.301H494.808z"/>
	<path fill="#C4C4C4" d="M498.163,116.571V105.27h1.87v11.301H498.163z"/>
	<path fill="#C4C4C4" d="M502.439,108.391c-0.604,0-1.1-0.495-1.1-1.1c0-0.605,0.495-1.114,1.1-1.114
		c0.619,0,1.114,0.509,1.114,1.114C503.554,107.896,503.059,108.391,502.439,108.391z M501.519,116.571v-6.544h1.856v6.544H501.519z
		"/>
	<path fill="#C4C4C4" d="M509.286,115.952c-0.385,0.536-1.086,0.839-1.76,0.839c-1.925,0-3.011-1.746-3.011-3.52
		c0-1.732,1.1-3.451,2.983-3.451c0.674,0,1.375,0.289,1.787,0.812h0.027v-5.362h1.856v11.301h-1.856v-0.619H509.286z
		 M507.953,111.47c-0.963,0-1.54,0.949-1.54,1.829s0.577,1.829,1.54,1.829c0.962,0,1.539-0.949,1.539-1.829
		S508.915,111.47,507.953,111.47z"/>
	<path fill="#C4C4C4" d="M515.708,116.791c-2.048,0-3.437-1.458-3.437-3.479c0-2.048,1.402-3.492,3.437-3.492
		c2.035,0,3.438,1.444,3.438,3.492C519.146,115.333,517.757,116.791,515.708,116.791z M515.708,115.127
		c0.963,0,1.54-0.935,1.54-1.815c0-0.907-0.577-1.842-1.54-1.842c-0.962,0-1.54,0.935-1.54,1.842
		C514.168,114.192,514.746,115.127,515.708,115.127z"/>
	<path fill="#C4C4C4" d="M522.625,111.126c-0.303,0-0.605,0.234-0.605,0.55c0,0.481,0.674,0.619,1.348,0.908
		c0.674,0.302,1.347,0.756,1.347,1.883c0,1.458-1.182,2.324-2.557,2.324c-0.88,0-1.732-0.413-2.296-1.1l0.853-1.1
		c0.357,0.399,0.838,0.756,1.389,0.756c0.412,0,0.742-0.275,0.742-0.701c0-0.577-0.66-0.715-1.307-0.99
		c-0.659-0.289-1.306-0.674-1.306-1.719c0-1.224,0.853-2.117,2.076-2.117c0.688,0,1.567,0.207,2.104,0.674l-0.798,1.086
		C523.354,111.319,522.996,111.126,522.625,111.126z"/>
</g>
<g>
	<g>
		<path fill="#C4C4C4" d="M398.606,221.136h-1.952v-8.345h-2.035v-1.705h6.008v1.705h-2.021V221.136z"/>
		<path fill="#C4C4C4" d="M403.598,219.926c0.619,0,1.004-0.371,1.251-0.894l1.719,0.275c-0.454,1.306-1.595,2.048-2.97,2.048
			c-2.021,0-3.258-1.443-3.258-3.423c0-1.994,1.045-3.547,3.176-3.547c2.145,0,3.093,1.581,3.093,3.547v0.233h-4.303
			C402.306,218.991,402.636,219.926,403.598,219.926z M403.611,215.691c-0.742,0-1.154,0.632-1.251,1.32h2.488
			C404.767,216.337,404.34,215.691,403.611,215.691z"/>
		<path fill="#C4C4C4" d="M407.848,221.136v-11.301h1.87v11.301H407.848z"/>
		<path fill="#C4C4C4" d="M412.743,218.166c0,0.825,0.33,1.76,1.292,1.76c0.619,0,1.004-0.371,1.251-0.894l1.719,0.275
			c-0.454,1.306-1.595,2.048-2.97,2.048c-2.021,0-3.258-1.443-3.258-3.423c0-1.994,1.045-3.547,3.176-3.547
			c2.145,0,3.093,1.581,3.093,3.547v0.233H412.743z M415.286,217.011c-0.082-0.674-0.509-1.32-1.237-1.32
			c-0.742,0-1.154,0.632-1.251,1.32H415.286z M415.933,211.649l-2.008,1.994l-0.948-0.578l1.595-2.241L415.933,211.649z"/>
		<path fill="#C4C4C4" d="M418.464,221.136v-4.963h-0.633v-1.581h0.633v-1.911c0-1.608,0.66-2.997,2.461-2.997
			c0.303,0,0.619,0.069,0.894,0.206v1.664c-0.247-0.11-0.481-0.22-0.756-0.22c-0.825,0-0.742,1.072-0.742,1.608v1.65h1.498v1.581
			h-1.498v4.963H418.464z"/>
		<path fill="#C4C4C4" d="M425.642,221.355c-2.048,0-3.437-1.457-3.437-3.478c0-2.048,1.402-3.492,3.437-3.492
			c2.035,0,3.438,1.444,3.438,3.492C429.079,219.898,427.69,221.355,425.642,221.355z M425.642,219.692
			c0.963,0,1.54-0.935,1.54-1.815c0-0.907-0.577-1.842-1.54-1.842c-0.962,0-1.54,0.935-1.54,1.842
			C424.102,218.757,424.68,219.692,425.642,219.692z"/>
		<path fill="#C4C4C4" d="M432.228,215.196c0.398-0.591,1.045-0.811,1.704-0.811c1.76,0,2.269,1.237,2.269,2.75v4h-1.855v-3.464
			c0-0.784,0.027-1.801-1.018-1.801c-1.113,0-1.113,1.237-1.113,2.035v3.231h-1.87v-6.544h1.87v0.604H432.228z"/>
		<path fill="#C4C4C4" d="M440.685,221.355c-2.048,0-3.437-1.457-3.437-3.478c0-2.048,1.402-3.492,3.437-3.492
			c2.035,0,3.438,1.444,3.438,3.492C444.122,219.898,442.733,221.355,440.685,221.355z M440.685,219.692
			c0.963,0,1.54-0.935,1.54-1.815c0-0.907-0.577-1.842-1.54-1.842c-0.962,0-1.54,0.935-1.54,1.842
			C439.145,218.757,439.723,219.692,440.685,219.692z"/>
		<path fill="#C4C4C4" d="M452.441,215.953c-1.059,0-1.649,0.99-1.649,1.952c0,1.018,0.646,1.87,1.719,1.87
			c0.494,0,0.962-0.248,1.306-0.619v1.787c-0.509,0.289-1.045,0.412-1.622,0.412c-1.925,0-3.3-1.595-3.3-3.464
			c0-1.952,1.43-3.506,3.396-3.506c0.522,0,1.072,0.124,1.526,0.413v1.801C453.404,216.2,453.005,215.953,452.441,215.953z"/>
		<path fill="#C4C4C4" d="M457.9,219.926c0.619,0,1.004-0.371,1.251-0.894l1.719,0.275c-0.454,1.306-1.595,2.048-2.97,2.048
			c-2.021,0-3.258-1.443-3.258-3.423c0-1.994,1.045-3.547,3.176-3.547c2.145,0,3.093,1.581,3.093,3.547v0.233h-4.303
			C456.608,218.991,456.938,219.926,457.9,219.926z M457.914,215.691c-0.742,0-1.154,0.632-1.251,1.32h2.488
			C459.069,216.337,458.643,215.691,457.914,215.691z"/>
		<path fill="#C4C4C4" d="M462.15,221.136v-11.301h1.87v11.301H462.15z"/>
		<path fill="#C4C4C4" d="M467.376,218.139c0,0.742,0.109,1.636,1.059,1.636c0.948,0,1.072-0.894,1.072-1.636v-3.547h1.855v3.849
			c0,1.911-0.976,2.915-2.928,2.915c-1.938,0-2.929-1.003-2.929-2.915v-3.849h1.87V218.139z"/>
		<path fill="#C4C4C4" d="M472.82,221.136v-11.301h1.87v11.301H472.82z"/>
		<path fill="#C4C4C4" d="M480.74,221.136v-0.605h-0.027c-0.398,0.522-1.1,0.825-1.773,0.825c-1.925,0-3.011-1.746-3.011-3.52
			c0-1.732,1.1-3.451,2.983-3.451c0.673,0,1.374,0.289,1.828,0.825v-0.619h1.828v6.544H480.74z M479.365,216.035
			c-0.962,0-1.54,0.949-1.54,1.829s0.578,1.829,1.54,1.829c0.963,0,1.554-0.949,1.554-1.829S480.328,216.035,479.365,216.035z"/>
		<path fill="#C4C4C4" d="M485.911,215.279c0.385-0.577,0.935-0.894,1.636-0.894c0.261,0,0.522,0.069,0.77,0.151l-0.233,1.732
			c-0.22-0.151-0.481-0.234-0.77-0.234c-1.293,0-1.416,1.141-1.416,2.159v2.942h-1.87v-6.544h1.87v0.687H485.911z"/>
		<path fill="#C4C4C4" d="M494.52,216.434c0,1.911,0.289,4.234,1.086,5.98l-1.141,0.783c-1.004-1.966-1.348-4.646-1.348-6.846
			c0-2.159,0.385-4.743,1.348-6.682l1.141,0.77C494.809,212.254,494.52,214.468,494.52,216.434z"/>
		<path fill="#C4C4C4" d="M496.857,211.086h3.271v10.05h-1.952v-8.345h-1.319V211.086z"/>
		<path fill="#C4C4C4" d="M505.285,221.397c-2.653,0-3.588-3.121-3.588-5.266c0-2.158,0.907-5.307,3.588-5.307
			c2.695,0,3.603,3.148,3.603,5.307C508.888,218.276,507.953,221.397,505.285,221.397z M505.285,219.692
			c1.402,0,1.691-2.599,1.691-3.588c0-1.018-0.289-3.575-1.691-3.575c-1.374,0-1.677,2.557-1.677,3.575
			C503.608,217.094,503.911,219.692,505.285,219.692z"/>
		<path fill="#C4C4C4" d="M518.761,220.517c-0.385,0.536-1.086,0.838-1.76,0.838c-1.925,0-3.011-1.746-3.011-3.52
			c0-1.732,1.1-3.451,2.983-3.451c0.674,0,1.375,0.289,1.787,0.811h0.027v-5.361h1.856v11.301h-1.856v-0.619H518.761z
			 M517.428,216.035c-0.963,0-1.54,0.949-1.54,1.829s0.577,1.829,1.54,1.829c0.962,0,1.539-0.949,1.539-1.829
			S518.39,216.035,517.428,216.035z"/>
		<path fill="#C4C4C4" d="M522.873,213.643l-0.948-0.578l1.595-2.241l1.36,0.825L522.873,213.643z M522.158,221.136v-6.544h1.856
			v6.544H522.158z"/>
		<path fill="#C4C4C4" d="M528.428,224.628c-1.595,0-3.217-0.976-3.3-2.722h1.966c0.097,0.701,0.592,1.155,1.293,1.155
			c1.319,0,1.347-1.168,1.347-2.145v-0.426h-0.027c-0.398,0.522-1.1,0.866-1.787,0.866c-1.911,0-2.942-1.691-2.942-3.437
			c0-1.801,1.087-3.533,3.039-3.533c0.646,0,1.319,0.33,1.69,0.839h0.027v-0.632h1.87v6.145
			C531.604,222.868,530.875,224.628,528.428,224.628z M528.414,216.035c-0.963,0-1.54,0.962-1.54,1.842s0.577,1.815,1.54,1.815
			c0.962,0,1.54-0.935,1.54-1.815S529.376,216.035,528.414,216.035z"/>
		<path fill="#C4C4C4" d="M533.983,212.956c-0.604,0-1.1-0.495-1.1-1.1c0-0.605,0.495-1.114,1.1-1.114
			c0.619,0,1.114,0.509,1.114,1.114C535.098,212.46,534.603,212.956,533.983,212.956z M533.062,221.136v-6.544h1.856v6.544H533.062z
			"/>
		<path fill="#C4C4C4" d="M536.747,221.136v-4.963h-0.632v-1.581h0.632v-2.214h1.87v2.214h1.141v1.581h-1.141v4.963H536.747z"/>
		<path fill="#C4C4C4" d="M543.677,221.355c-2.048,0-3.437-1.457-3.437-3.478c0-2.048,1.402-3.492,3.437-3.492
			c2.035,0,3.438,1.444,3.438,3.492C547.114,219.898,545.726,221.355,543.677,221.355z M543.677,219.692
			c0.963,0,1.54-0.935,1.54-1.815c0-0.907-0.577-1.842-1.54-1.842c-0.962,0-1.54,0.935-1.54,1.842
			C542.137,218.757,542.715,219.692,543.677,219.692z"/>
		<path fill="#C4C4C4" d="M550.594,215.691c-0.303,0-0.605,0.234-0.605,0.55c0,0.481,0.674,0.619,1.348,0.908
			c0.674,0.302,1.347,0.756,1.347,1.883c0,1.458-1.182,2.323-2.557,2.323c-0.88,0-1.732-0.412-2.296-1.1l0.853-1.1
			c0.357,0.398,0.838,0.756,1.389,0.756c0.412,0,0.742-0.275,0.742-0.701c0-0.577-0.66-0.715-1.307-0.99
			c-0.659-0.289-1.306-0.674-1.306-1.719c0-1.224,0.853-2.117,2.076-2.117c0.688,0,1.567,0.207,2.104,0.674l-0.798,1.086
			C551.322,215.884,550.965,215.691,550.594,215.691z"/>
		<path fill="#C4C4C4" d="M554.802,209.684c0.962,1.938,1.347,4.523,1.347,6.682c0,2.2-0.344,4.88-1.347,6.847l-1.142-0.784
			c0.798-1.746,1.1-4.07,1.1-5.98c0-1.966-0.302-4.18-1.1-5.994L554.802,209.684z"/>
	</g>
</g>
<rect x="9.077" y="12" fill="#FFC303" width="94.813" height="61"/>
<rect x="97" y="12" fill="#FF9906" width="78.891" height="61"/>
<g>
	<path fill="#FFFFFF" d="M48.205,24.195h12.274v37.701h-7.323V30.59h-4.951V24.195z"/>
</g>
<g>
	<path fill="#FFFFFF" d="M150.167,61.896h-25.375l9.594-12.068c2.63-3.301,8.2-9.851,8.2-14.131c0-2.682-1.754-6.086-4.849-6.086
		c-3.301,0-4.848,3.61-4.693,6.447h-7.787c0.516-7.221,4.642-12.842,12.43-12.842c6.859,0,12.223,5.261,12.223,12.172
		c0,5.519-3.095,9.645-6.55,13.667l-5.57,6.447h12.378V61.896z"/>
</g>
</svg>
