<?xml version="1.0" encoding="utf-8"?>
<!-- Generator: Adobe Illustrator 16.0.0, SVG Export Plug-In . SVG Version: 6.00 Build 0)  -->
<!DOCTYPE svg PUBLIC "-//W3C//DTD SVG 1.1//EN" "http://www.w3.org/Graphics/SVG/1.1/DTD/svg11.dtd">
<svg version="1.1" id="Layer_1" xmlns="http://www.w3.org/2000/svg" xmlns:xlink="http://www.w3.org/1999/xlink" x="0px" y="0px"
	 width="747px" height="245.334px" viewBox="0 0 747 245.334" enable-background="new 0 0 747 245.334" xml:space="preserve">
<rect x="4" y="64.714" fill="#FFC303" width="743" height="176.953"/>
<g>
	<path fill="#FFFFFF" d="M38.09,95.645l7.768,10.308h0.039v-9.924h2.885v15.048h-2.078l-7.766-10.308h-0.041v10.005h-2.863V95.645
		H38.09z"/>
	<path fill="#FFFFFF" d="M53.803,106.376c0,1.09,0.162,2.4,1.555,2.4c1.391,0,1.572-1.311,1.572-2.4v-5.205h2.725v5.648
		c0,2.805-1.434,4.277-4.297,4.277c-2.846,0-4.297-1.473-4.297-4.277v-5.648h2.742V106.376z"/>
	<path fill="#FFFFFF" d="M64.555,102.039c0.545-0.767,1.473-1.17,2.361-1.17c1.189,0,2.117,0.483,2.742,1.493
		c0.586-0.929,1.695-1.493,2.805-1.493c2.441,0,3.045,1.835,3.045,3.934v5.971h-2.742v-5.043c0-0.928,0.061-2.683-1.291-2.683
		c-1.473,0-1.453,2.018-1.453,3.025v4.7h-2.742v-4.861c0-0.948,0.119-2.864-1.312-2.864c-1.512,0-1.432,1.996-1.432,3.025v4.7
		h-2.744v-9.603h2.744v0.868H64.555z"/>
	<path fill="#FFFFFF" d="M81.801,108.998c0.908,0,1.473-0.544,1.836-1.312l2.521,0.404c-0.666,1.916-2.34,3.006-4.357,3.006
		c-2.965,0-4.779-2.119-4.779-5.023c0-2.925,1.533-5.204,4.658-5.204c3.148,0,4.539,2.319,4.539,5.204v0.343h-6.312
		C79.906,107.626,80.389,108.998,81.801,108.998z M81.822,102.785c-1.09,0-1.695,0.929-1.836,1.937h3.65
		C83.516,103.733,82.891,102.785,81.822,102.785z"/>
	<path fill="#FFFFFF" d="M90.797,102.181c0.564-0.848,1.373-1.312,2.4-1.312c0.383,0,0.768,0.101,1.131,0.222l-0.344,2.541
		c-0.322-0.221-0.705-0.342-1.129-0.342c-1.896,0-2.078,1.674-2.078,3.166v4.317h-2.744v-9.603h2.744v1.01H90.797z"/>
	<path fill="#FFFFFF" d="M99.531,111.097c-3.004,0-5.043-2.139-5.043-5.104c0-3.006,2.059-5.124,5.043-5.124
		c2.986,0,5.043,2.118,5.043,5.124C104.574,108.958,102.537,111.097,99.531,111.097z M99.531,108.655c1.412,0,2.26-1.371,2.26-2.662
		c0-1.332-0.848-2.703-2.26-2.703s-2.258,1.371-2.258,2.703C97.273,107.284,98.119,108.655,99.531,108.655z"/>
	<path fill="#FFFFFF" d="M118.613,109.866c-0.564,0.786-1.594,1.23-2.582,1.23c-2.824,0-4.418-2.562-4.418-5.164
		c0-2.542,1.613-5.063,4.377-5.063c0.988,0,2.018,0.423,2.623,1.19h0.041v-7.867h2.723v16.581h-2.723v-0.907H118.613z
		 M116.656,103.29c-1.412,0-2.26,1.392-2.26,2.683s0.848,2.683,2.26,2.683s2.26-1.392,2.26-2.683S118.068,103.29,116.656,103.29z"/>
	<path fill="#FFFFFF" d="M127.75,108.998c0.908,0,1.473-0.544,1.836-1.312l2.521,0.404c-0.666,1.916-2.34,3.006-4.357,3.006
		c-2.965,0-4.779-2.119-4.779-5.023c0-2.925,1.533-5.204,4.658-5.204c3.148,0,4.539,2.319,4.539,5.204v0.343h-6.312
		C125.855,107.626,126.338,108.998,127.75,108.998z M127.771,102.785c-1.09,0-1.695,0.929-1.836,1.937h3.65
		C129.465,103.733,128.84,102.785,127.771,102.785z"/>
	<path fill="#FFFFFF" d="M142.879,102.785c-0.445,0-0.889,0.343-0.889,0.808c0,0.705,0.988,0.907,1.977,1.33
		c0.988,0.444,1.977,1.11,1.977,2.764c0,2.139-1.734,3.41-3.752,3.41c-1.291,0-2.541-0.605-3.367-1.614l1.25-1.614
		c0.525,0.586,1.23,1.109,2.037,1.109c0.605,0,1.09-0.402,1.09-1.028c0-0.847-0.969-1.049-1.916-1.452
		c-0.969-0.424-1.918-0.988-1.918-2.521c0-1.795,1.252-3.106,3.047-3.106c1.008,0,2.299,0.302,3.086,0.988l-1.17,1.594
		C143.947,103.067,143.422,102.785,142.879,102.785z"/>
	<path fill="#FFFFFF" d="M152.016,111.097c-3.006,0-5.043-2.139-5.043-5.104c0-3.006,2.057-5.124,5.043-5.124
		s5.043,2.118,5.043,5.124C157.059,108.958,155.021,111.097,152.016,111.097z M152.016,108.655c1.412,0,2.26-1.371,2.26-2.662
		c0-1.332-0.848-2.703-2.26-2.703s-2.26,1.371-2.26,2.703C149.756,107.284,150.604,108.655,152.016,108.655z"/>
	<path fill="#FFFFFF" d="M161.656,94.192v7.867c0.627-0.747,1.635-1.19,2.643-1.19c2.725,0,4.379,2.542,4.379,5.063
		c0,2.622-1.594,5.164-4.439,5.164c-0.967,0-1.996-0.444-2.561-1.23h-0.021v0.907h-2.742V94.192H161.656z M163.635,103.29
		c-1.393,0-2.26,1.392-2.26,2.683s0.867,2.683,2.26,2.683c1.412,0,2.279-1.392,2.279-2.683S165.047,103.29,163.635,103.29z"/>
	<path fill="#FFFFFF" d="M173.275,102.181c0.564-0.848,1.373-1.312,2.4-1.312c0.383,0,0.768,0.101,1.131,0.222l-0.344,2.541
		c-0.322-0.221-0.705-0.342-1.129-0.342c-1.896,0-2.078,1.674-2.078,3.166v4.317h-2.744v-9.603h2.744v1.01H173.275z"/>
	<path fill="#FFFFFF" d="M182.029,108.998c0.908,0,1.473-0.544,1.836-1.312l2.521,0.404c-0.666,1.916-2.34,3.006-4.357,3.006
		c-2.965,0-4.779-2.119-4.779-5.023c0-2.925,1.533-5.204,4.658-5.204c3.148,0,4.539,2.319,4.539,5.204v0.343h-6.312
		C180.135,107.626,180.617,108.998,182.029,108.998z M182.051,102.785c-1.09,0-1.695,0.929-1.836,1.937h3.65
		C183.744,103.733,183.119,102.785,182.051,102.785z"/>
	<path fill="#FFFFFF" d="M191.51,102.785c-0.443,0-0.887,0.343-0.887,0.808c0,0.705,0.988,0.907,1.977,1.33
		c0.988,0.444,1.977,1.11,1.977,2.764c0,2.139-1.734,3.41-3.752,3.41c-1.291,0-2.541-0.605-3.369-1.614l1.25-1.614
		c0.525,0.586,1.23,1.109,2.039,1.109c0.604,0,1.088-0.402,1.088-1.028c0-0.847-0.967-1.049-1.916-1.452
		c-0.969-0.424-1.916-0.988-1.916-2.521c0-1.795,1.25-3.106,3.047-3.106c1.008,0,2.299,0.302,3.086,0.988l-1.17,1.594
		C192.578,103.067,192.055,102.785,191.51,102.785z"/>
	<path fill="#FFFFFF" d="M208.594,115.897v-6.031h-0.039c-0.564,0.786-1.594,1.23-2.582,1.23c-2.824,0-4.418-2.562-4.418-5.164
		c0-2.542,1.613-5.063,4.377-5.063c0.988,0,2.018,0.423,2.623,1.19h0.039v-0.889h2.725v14.727H208.594z M206.598,103.29
		c-1.412,0-2.26,1.392-2.26,2.683s0.848,2.683,2.26,2.683s2.26-1.392,2.26-2.683S208.01,103.29,206.598,103.29z"/>
	<path fill="#FFFFFF" d="M216.238,106.376c0,1.09,0.162,2.4,1.555,2.4c1.391,0,1.572-1.311,1.572-2.4v-5.205h2.725v5.648
		c0,2.805-1.434,4.277-4.297,4.277c-2.846,0-4.297-1.473-4.297-4.277v-5.648h2.742V106.376z"/>
	<path fill="#FFFFFF" d="M228.383,108.998c0.908,0,1.473-0.544,1.836-1.312l2.521,0.404c-0.666,1.916-2.34,3.006-4.357,3.006
		c-2.965,0-4.781-2.119-4.781-5.023c0-2.925,1.533-5.204,4.66-5.204c3.146,0,4.539,2.319,4.539,5.204v0.343h-6.314
		C226.486,107.626,226.971,108.998,228.383,108.998z M228.402,102.785c-1.09,0-1.693,0.929-1.836,1.937h3.652
		C230.098,103.733,229.473,102.785,228.402,102.785z"/>
	<path fill="#FFFFFF" d="M244.963,103.169c-1.555,0-2.422,1.452-2.422,2.864c0,1.493,0.949,2.743,2.521,2.743
		c0.727,0,1.412-0.363,1.918-0.908v2.623c-0.748,0.424-1.533,0.605-2.381,0.605c-2.824,0-4.842-2.34-4.842-5.084
		c0-2.864,2.098-5.144,4.982-5.144c0.768,0,1.574,0.181,2.24,0.604v2.643C246.375,103.532,245.789,103.169,244.963,103.169z"/>
	<path fill="#FFFFFF" d="M251.578,102.181c0.564-0.848,1.373-1.312,2.4-1.312c0.383,0,0.768,0.101,1.131,0.222l-0.344,2.541
		c-0.322-0.221-0.705-0.342-1.129-0.342c-1.896,0-2.078,1.674-2.078,3.166v4.317h-2.744v-9.603h2.744v1.01H251.578z"/>
	<path fill="#FFFFFF" d="M260.334,108.998c0.908,0,1.473-0.544,1.836-1.312l2.521,0.404c-0.666,1.916-2.34,3.006-4.357,3.006
		c-2.965,0-4.781-2.119-4.781-5.023c0-2.925,1.533-5.204,4.66-5.204c3.146,0,4.539,2.319,4.539,5.204v0.343h-6.314
		C258.438,107.626,258.922,108.998,260.334,108.998z M260.354,102.785c-1.09,0-1.693,0.929-1.836,1.937h3.652
		C262.049,103.733,261.424,102.785,260.354,102.785z"/>
	<path fill="#FFFFFF" d="M270.883,108.998c0.908,0,1.473-0.544,1.836-1.312l2.521,0.404c-0.666,1.916-2.34,3.006-4.357,3.006
		c-2.965,0-4.781-2.119-4.781-5.023c0-2.925,1.533-5.204,4.66-5.204c3.146,0,4.539,2.319,4.539,5.204v0.343h-6.314
		C268.986,107.626,269.471,108.998,270.883,108.998z M270.902,102.785c-1.09,0-1.693,0.929-1.836,1.937h3.652
		C272.598,103.733,271.973,102.785,270.902,102.785z"/>
	<path fill="#FFFFFF" d="M280.363,102.785c-0.445,0-0.889,0.343-0.889,0.808c0,0.705,0.988,0.907,1.977,1.33
		c0.988,0.444,1.977,1.11,1.977,2.764c0,2.139-1.734,3.41-3.752,3.41c-1.291,0-2.541-0.605-3.367-1.614l1.25-1.614
		c0.525,0.586,1.23,1.109,2.037,1.109c0.605,0,1.09-0.402,1.09-1.028c0-0.847-0.969-1.049-1.916-1.452
		c-0.969-0.424-1.918-0.988-1.918-2.521c0-1.795,1.252-3.106,3.047-3.106c1.008,0,2.299,0.302,3.086,0.988l-1.17,1.594
		C281.432,103.067,280.906,102.785,280.363,102.785z"/>
	<path fill="#FFFFFF" d="M297.447,115.897v-6.031h-0.041c-0.564,0.786-1.594,1.23-2.582,1.23c-2.824,0-4.418-2.562-4.418-5.164
		c0-2.542,1.615-5.063,4.379-5.063c0.988,0,2.016,0.423,2.621,1.19h0.041v-0.889h2.723v14.727H297.447z M295.449,103.29
		c-1.412,0-2.258,1.392-2.258,2.683s0.846,2.683,2.258,2.683s2.26-1.392,2.26-2.683S296.861,103.29,295.449,103.29z"/>
	<path fill="#FFFFFF" d="M305.092,106.376c0,1.09,0.162,2.4,1.553,2.4c1.393,0,1.574-1.311,1.574-2.4v-5.205h2.723v5.648
		c0,2.805-1.432,4.277-4.297,4.277c-2.844,0-4.297-1.473-4.297-4.277v-5.648h2.744V106.376z"/>
	<path fill="#FFFFFF" d="M317.234,108.998c0.908,0,1.473-0.544,1.836-1.312l2.521,0.404c-0.666,1.916-2.34,3.006-4.357,3.006
		c-2.965,0-4.779-2.119-4.779-5.023c0-2.925,1.533-5.204,4.658-5.204c3.148,0,4.539,2.319,4.539,5.204v0.343h-6.312
		C315.34,107.626,315.822,108.998,317.234,108.998z M317.256,102.785c-1.09,0-1.695,0.929-1.836,1.937h3.65
		C318.949,103.733,318.324,102.785,317.256,102.785z"/>
	<path fill="#FFFFFF" d="M329.66,110.773v-7.282h-0.928v-2.32h0.928v-3.247h2.742v3.247h1.674v2.32h-1.674v7.282H329.66z"/>
	<path fill="#FFFFFF" d="M337.062,98.771c-0.889,0-1.615-0.726-1.615-1.613s0.727-1.634,1.615-1.634
		c0.908,0,1.633,0.746,1.633,1.634S337.971,98.771,337.062,98.771z M335.711,110.773v-9.603h2.723v9.603H335.711z"/>
	<path fill="#FFFFFF" d="M344.727,108.998c0.908,0,1.473-0.544,1.836-1.312l2.521,0.404c-0.666,1.916-2.34,3.006-4.357,3.006
		c-2.965,0-4.779-2.119-4.779-5.023c0-2.925,1.533-5.204,4.658-5.204c3.148,0,4.539,2.319,4.539,5.204v0.343h-6.312
		C342.832,107.626,343.314,108.998,344.727,108.998z M344.748,102.785c-1.09,0-1.695,0.929-1.836,1.937h3.65
		C346.441,103.733,345.816,102.785,344.748,102.785z"/>
	<path fill="#FFFFFF" d="M353.723,102.06c0.586-0.867,1.533-1.19,2.502-1.19c2.582,0,3.328,1.815,3.328,4.034v5.87h-2.723v-5.083
		c0-1.15,0.039-2.643-1.494-2.643c-1.633,0-1.633,1.814-1.633,2.985v4.74h-2.744v-9.603h2.744v0.889H353.723z"/>
	<path fill="#FFFFFF" d="M365.846,108.998c0.908,0,1.473-0.544,1.836-1.312l2.521,0.404c-0.666,1.916-2.34,3.006-4.357,3.006
		c-2.965,0-4.779-2.119-4.779-5.023c0-2.925,1.533-5.204,4.658-5.204c3.148,0,4.539,2.319,4.539,5.204v0.343h-6.312
		C363.951,107.626,364.434,108.998,365.846,108.998z M365.867,102.785c-1.09,0-1.695,0.929-1.836,1.937h3.65
		C367.561,103.733,366.936,102.785,365.867,102.785z"/>
	<path fill="#FFFFFF" d="M377.727,110.773V94.192h2.742v16.581H377.727z"/>
	<path fill="#FFFFFF" d="M389.346,110.773v-0.888h-0.041c-0.584,0.767-1.613,1.211-2.602,1.211c-2.824,0-4.418-2.562-4.418-5.164
		c0-2.542,1.613-5.063,4.377-5.063c0.988,0,2.018,0.423,2.684,1.21v-0.908h2.682v9.603H389.346z M387.328,103.29
		c-1.412,0-2.26,1.392-2.26,2.683s0.848,2.683,2.26,2.683s2.279-1.392,2.279-2.683S388.74,103.29,387.328,103.29z"/>
	<path fill="#FFFFFF" d="M402.557,106.376c0,1.09,0.162,2.4,1.553,2.4c1.393,0,1.574-1.311,1.574-2.4v-5.205h2.723v5.648
		c0,2.805-1.432,4.277-4.297,4.277c-2.844,0-4.297-1.473-4.297-4.277v-5.648h2.744V106.376z"/>
	<path fill="#FFFFFF" d="M413.309,102.181c0.564-0.848,1.371-1.312,2.4-1.312c0.383,0,0.766,0.101,1.129,0.222l-0.342,2.541
		c-0.324-0.221-0.707-0.342-1.131-0.342c-1.896,0-2.078,1.674-2.078,3.166v4.317h-2.742v-9.603h2.742v1.01H413.309z"/>
	<path fill="#FFFFFF" d="M420.994,102.06c0.584-0.867,1.533-1.19,2.5-1.19c2.582,0,3.33,1.815,3.33,4.034v5.87H424.1v-5.083
		c0-1.15,0.041-2.643-1.492-2.643c-1.635,0-1.635,1.814-1.635,2.985v4.74h-2.742v-9.603h2.742v0.889H420.994z"/>
	<path fill="#FFFFFF" d="M435.498,110.773v-0.888h-0.041c-0.584,0.767-1.613,1.211-2.602,1.211c-2.824,0-4.418-2.562-4.418-5.164
		c0-2.542,1.613-5.063,4.377-5.063c0.988,0,2.018,0.423,2.684,1.21v-0.908h2.682v9.603H435.498z M433.48,103.29
		c-1.412,0-2.26,1.392-2.26,2.683s0.848,2.683,2.26,2.683s2.279-1.392,2.279-2.683S434.893,103.29,433.48,103.29z"/>
	<path fill="#FFFFFF" d="M441.992,111.157c-0.969,0-1.734-0.787-1.734-1.756c0-0.947,0.766-1.715,1.734-1.715
		c0.947,0,1.734,0.768,1.734,1.715C443.727,110.37,442.939,111.157,441.992,111.157z"/>
</g>
<g>
	<path fill="#FFFFFF" d="M237.215,146.938l7.768,10.308h0.039v-9.924h2.885v15.048h-2.078l-7.766-10.308h-0.041v10.005h-2.863
		v-15.129H237.215z"/>
	<path fill="#FFFFFF" d="M254.623,162.39c-3.006,0-5.043-2.139-5.043-5.104c0-3.006,2.057-5.124,5.043-5.124
		s5.043,2.118,5.043,5.124C259.666,160.251,257.629,162.39,254.623,162.39z M254.623,159.948c1.412,0,2.26-1.371,2.26-2.662
		c0-1.332-0.848-2.703-2.26-2.703s-2.26,1.371-2.26,2.703C252.363,158.577,253.211,159.948,254.623,159.948z"/>
	<path fill="#FFFFFF" d="M273.705,161.159c-0.564,0.786-1.594,1.23-2.582,1.23c-2.824,0-4.418-2.562-4.418-5.164
		c0-2.542,1.613-5.063,4.377-5.063c0.988,0,2.018,0.423,2.623,1.19h0.041v-7.867h2.723v16.581h-2.723v-0.907H273.705z
		 M271.748,154.583c-1.412,0-2.26,1.392-2.26,2.683s0.848,2.683,2.26,2.683s2.26-1.392,2.26-2.683S273.16,154.583,271.748,154.583z"
		/>
	<path fill="#FFFFFF" d="M282.842,160.291c0.908,0,1.473-0.544,1.836-1.312l2.521,0.404c-0.666,1.916-2.34,3.006-4.357,3.006
		c-2.965,0-4.779-2.119-4.779-5.023c0-2.925,1.533-5.204,4.658-5.204c3.148,0,4.539,2.319,4.539,5.204v0.343h-6.312
		C280.947,158.919,281.43,160.291,282.842,160.291z M282.863,154.078c-1.09,0-1.695,0.929-1.836,1.937h3.65
		C284.557,155.026,283.932,154.078,282.863,154.078z"/>
	<path fill="#FFFFFF" d="M295.268,162.066v-7.282h-0.928v-2.32h0.928v-3.247h2.744v3.247h1.674v2.32h-1.674v7.282H295.268z"/>
	<path fill="#FFFFFF" d="M302.67,150.063c-0.887,0-1.613-0.726-1.613-1.613s0.727-1.634,1.613-1.634
		c0.908,0,1.635,0.746,1.635,1.634S303.578,150.063,302.67,150.063z M301.318,162.066v-9.603h2.725v9.603H301.318z"/>
	<path fill="#FFFFFF" d="M310.881,154.462c-1.555,0-2.422,1.452-2.422,2.864c0,1.493,0.949,2.743,2.521,2.743
		c0.727,0,1.412-0.363,1.918-0.908v2.623c-0.748,0.424-1.533,0.605-2.381,0.605c-2.824,0-4.842-2.34-4.842-5.084
		c0-2.864,2.098-5.144,4.982-5.144c0.768,0,1.574,0.181,2.24,0.604v2.643C312.293,154.825,311.707,154.462,310.881,154.462z"/>
	<path fill="#FFFFFF" d="M317.496,155.995l2.885-3.531h3.551l-4.035,4.236l4.357,5.366h-3.611l-3.146-4.075h-0.02v4.075h-2.744
		v-16.581h2.744v10.51H317.496z"/>
	<path fill="#FFFFFF" d="M328.691,160.291c0.908,0,1.473-0.544,1.836-1.312l2.521,0.404c-0.666,1.916-2.34,3.006-4.357,3.006
		c-2.965,0-4.781-2.119-4.781-5.023c0-2.925,1.533-5.204,4.66-5.204c3.146,0,4.539,2.319,4.539,5.204v0.343h-6.314
		C326.795,158.919,327.279,160.291,328.691,160.291z M328.711,154.078c-1.09,0-1.693,0.929-1.836,1.937h3.652
		C330.406,155.026,329.781,154.078,328.711,154.078z"/>
	<path fill="#FFFFFF" d="M335.146,162.066v-7.282h-0.928v-2.32h0.928v-3.247h2.742v3.247h1.674v2.32h-1.674v7.282H335.146z"/>
	<path fill="#FFFFFF" d="M353.381,161.159c-0.564,0.786-1.594,1.23-2.582,1.23c-2.824,0-4.418-2.562-4.418-5.164
		c0-2.542,1.613-5.063,4.377-5.063c0.988,0,2.018,0.423,2.623,1.19h0.041v-7.867h2.723v16.581h-2.723v-0.907H353.381z
		 M351.424,154.583c-1.412,0-2.26,1.392-2.26,2.683s0.848,2.683,2.26,2.683s2.26-1.392,2.26-2.683S352.836,154.583,351.424,154.583z
		"/>
	<path fill="#FFFFFF" d="M362.518,160.291c0.908,0,1.473-0.544,1.836-1.312l2.521,0.404c-0.666,1.916-2.34,3.006-4.357,3.006
		c-2.965,0-4.779-2.119-4.779-5.023c0-2.925,1.533-5.204,4.658-5.204c3.148,0,4.539,2.319,4.539,5.204v0.343h-6.312
		C360.623,158.919,361.105,160.291,362.518,160.291z M362.539,154.078c-1.09,0-1.695,0.929-1.836,1.937h3.65
		C364.232,155.026,363.607,154.078,362.539,154.078z"/>
	<path fill="#FFFFFF" d="M379.1,154.462c-1.555,0-2.422,1.452-2.422,2.864c0,1.493,0.949,2.743,2.521,2.743
		c0.727,0,1.412-0.363,1.918-0.908v2.623c-0.748,0.424-1.533,0.605-2.381,0.605c-2.824,0-4.842-2.34-4.842-5.084
		c0-2.864,2.098-5.144,4.982-5.144c0.768,0,1.574,0.181,2.24,0.604v2.643C380.512,154.825,379.926,154.462,379.1,154.462z"/>
	<path fill="#FFFFFF" d="M387.389,162.39c-3.004,0-5.043-2.139-5.043-5.104c0-3.006,2.059-5.124,5.043-5.124
		c2.986,0,5.043,2.118,5.043,5.124C392.432,160.251,390.395,162.39,387.389,162.39z M387.389,159.948c1.412,0,2.26-1.371,2.26-2.662
		c0-1.332-0.848-2.703-2.26-2.703s-2.258,1.371-2.258,2.703C385.131,158.577,385.977,159.948,387.389,159.948z"/>
	<path fill="#FFFFFF" d="M397.051,153.332c0.545-0.767,1.473-1.17,2.361-1.17c1.189,0,2.117,0.483,2.742,1.493
		c0.586-0.929,1.695-1.493,2.805-1.493c2.441,0,3.045,1.835,3.045,3.934v5.971h-2.742v-5.043c0-0.928,0.061-2.683-1.291-2.683
		c-1.473,0-1.453,2.018-1.453,3.025v4.7h-2.742v-4.861c0-0.948,0.119-2.864-1.312-2.864c-1.512,0-1.432,1.996-1.432,3.025v4.7
		h-2.744v-9.603h2.744v0.868H397.051z"/>
	<path fill="#FFFFFF" d="M415.527,152.162c2.725,0,4.379,2.542,4.379,5.063c0,2.622-1.594,5.164-4.439,5.164
		c-0.967,0-1.996-0.444-2.561-1.23h-0.021v6.031h-2.742v-14.727h2.742v0.889C413.512,152.605,414.52,152.162,415.527,152.162z
		 M414.863,154.583c-1.393,0-2.26,1.392-2.26,2.683s0.867,2.683,2.26,2.683c1.412,0,2.279-1.392,2.279-2.683
		S416.275,154.583,414.863,154.583z"/>
	<path fill="#FFFFFF" d="M424.666,153.474c0.564-0.848,1.371-1.312,2.4-1.312c0.383,0,0.766,0.101,1.129,0.222l-0.342,2.541
		c-0.324-0.221-0.707-0.342-1.131-0.342c-1.896,0-2.078,1.674-2.078,3.166v4.317h-2.742v-9.603h2.742v1.01H424.666z"/>
	<path fill="#FFFFFF" d="M435.498,162.066v-0.888h-0.041c-0.584,0.767-1.613,1.211-2.602,1.211c-2.824,0-4.418-2.562-4.418-5.164
		c0-2.542,1.613-5.063,4.377-5.063c0.988,0,2.018,0.423,2.684,1.21v-0.908h2.682v9.603H435.498z M433.48,154.583
		c-1.412,0-2.26,1.392-2.26,2.683s0.848,2.683,2.26,2.683s2.279-1.392,2.279-2.683S434.893,154.583,433.48,154.583z"/>
	<path fill="#FFFFFF" d="M441.992,162.45c-0.967,0-1.734-0.787-1.734-1.756c0-0.947,0.768-1.715,1.734-1.715
		c0.949,0,1.736,0.768,1.736,1.715C443.729,161.663,442.941,162.45,441.992,162.45z"/>
</g>
<g>
	<path fill="#FFFFFF" d="M240.928,195.095c-0.908,0-1.797,0.707-1.797,1.675c0,2.481,5.852,1.433,5.852,6.374
		c0,2.966-1.836,5.043-4.842,5.043c-2.037,0-3.531-1.17-4.539-2.863l1.855-1.816c0.383,1.13,1.412,2.139,2.664,2.139
		c1.17,0,1.895-0.988,1.895-2.118c0-1.533-1.412-1.957-2.561-2.4c-1.896-0.787-3.289-1.755-3.289-4.034
		c0-2.441,1.816-4.418,4.297-4.418c1.311,0,3.127,0.646,4.035,1.634l-1.352,1.997C242.602,195.56,241.895,195.095,240.928,195.095z"
		/>
	<path fill="#FFFFFF" d="M249.561,203.406c0,1.089,0.162,2.4,1.553,2.4c1.393,0,1.574-1.312,1.574-2.4v-5.204h2.723v5.648
		c0,2.803-1.432,4.275-4.297,4.275c-2.844,0-4.297-1.473-4.297-4.275v-5.648h2.744V203.406z"/>
	<path fill="#FFFFFF" d="M262.248,200.198c-1.553,0-2.42,1.453-2.42,2.865c0,1.492,0.947,2.743,2.521,2.743
		c0.727,0,1.412-0.363,1.916-0.907v2.622c-0.746,0.423-1.533,0.604-2.381,0.604c-2.824,0-4.84-2.34-4.84-5.083
		c0-2.864,2.098-5.144,4.982-5.144c0.766,0,1.572,0.182,2.238,0.605v2.643C263.66,200.562,263.076,200.198,262.248,200.198z"/>
	<path fill="#FFFFFF" d="M268.844,203.406c0,1.089,0.162,2.4,1.555,2.4c1.391,0,1.572-1.312,1.572-2.4v-5.204h2.725v5.648
		c0,2.803-1.434,4.275-4.297,4.275c-2.846,0-4.297-1.473-4.297-4.275v-5.648h2.742V203.406z"/>
	<path fill="#FFFFFF" d="M279.596,199.21c0.564-0.847,1.373-1.311,2.4-1.311c0.383,0,0.768,0.101,1.131,0.222l-0.344,2.542
		c-0.322-0.223-0.705-0.344-1.129-0.344c-1.896,0-2.078,1.675-2.078,3.168v4.316h-2.744v-9.602h2.744v1.008H279.596z"/>
	<path fill="#FFFFFF" d="M287.443,199.815c-0.443,0-0.887,0.344-0.887,0.807c0,0.707,0.988,0.908,1.977,1.332
		c0.988,0.443,1.977,1.109,1.977,2.764c0,2.138-1.734,3.408-3.752,3.408c-1.291,0-2.541-0.604-3.369-1.613l1.25-1.613
		c0.525,0.584,1.23,1.109,2.039,1.109c0.604,0,1.088-0.404,1.088-1.029c0-0.848-0.967-1.049-1.916-1.452
		c-0.969-0.424-1.916-0.989-1.916-2.521c0-1.796,1.25-3.106,3.047-3.106c1.008,0,2.299,0.303,3.086,0.988l-1.17,1.594
		C288.512,200.099,287.988,199.815,287.443,199.815z"/>
	<path fill="#FFFFFF" d="M298.84,207.804v-0.888h-0.039c-0.586,0.767-1.615,1.21-2.604,1.21c-2.824,0-4.418-2.562-4.418-5.164
		c0-2.541,1.615-5.062,4.379-5.062c0.988,0,2.016,0.424,2.682,1.21v-0.907h2.684v9.602H298.84z M296.822,200.319
		c-1.412,0-2.258,1.393-2.258,2.684s0.846,2.683,2.258,2.683s2.279-1.392,2.279-2.683S298.234,200.319,296.822,200.319z"/>
	<path fill="#FFFFFF" d="M303.66,207.804v-16.582h2.744v16.582H303.66z"/>
	<path fill="#FFFFFF" d="M320.766,206.896c-0.564,0.787-1.594,1.23-2.582,1.23c-2.824,0-4.418-2.562-4.418-5.164
		c0-2.541,1.613-5.062,4.377-5.062c0.988,0,2.018,0.424,2.623,1.189h0.041v-7.867h2.723v16.582h-2.723v-0.908H320.766z
		 M318.809,200.319c-1.412,0-2.26,1.393-2.26,2.684s0.848,2.683,2.26,2.683s2.26-1.392,2.26-2.683S320.221,200.319,318.809,200.319z
		"/>
	<path fill="#FFFFFF" d="M330.186,208.126c-3.006,0-5.043-2.138-5.043-5.104c0-3.006,2.057-5.123,5.043-5.123
		s5.043,2.117,5.043,5.123C335.229,205.988,333.191,208.126,330.186,208.126z M330.186,205.686c1.412,0,2.26-1.372,2.26-2.663
		c0-1.331-0.848-2.703-2.26-2.703s-2.26,1.372-2.26,2.703C327.926,204.313,328.773,205.686,330.186,205.686z"/>
	<path fill="#FFFFFF" d="M339.848,199.089c0.584-0.867,1.533-1.189,2.5-1.189c2.582,0,3.33,1.815,3.33,4.034v5.87h-2.725v-5.084
		c0-1.149,0.041-2.643-1.492-2.643c-1.635,0-1.635,1.816-1.635,2.986v4.74h-2.742v-9.602h2.742v0.887H339.848z"/>
	<path fill="#FFFFFF" d="M354.352,206.896c-0.566,0.787-1.594,1.23-2.582,1.23c-2.824,0-4.418-2.562-4.418-5.164
		c0-2.541,1.613-5.062,4.377-5.062c0.988,0,2.018,0.424,2.623,1.189h0.039v-7.867h2.725v16.582h-2.725v-0.908H354.352z
		 M352.395,200.319c-1.412,0-2.26,1.393-2.26,2.684s0.848,2.683,2.26,2.683s2.258-1.392,2.258-2.683
		S353.807,200.319,352.395,200.319z"/>
	<path fill="#FFFFFF" d="M363.488,206.028c0.908,0,1.473-0.545,1.836-1.311l2.521,0.402c-0.666,1.917-2.34,3.006-4.357,3.006
		c-2.965,0-4.781-2.117-4.781-5.022c0-2.925,1.533-5.204,4.66-5.204c3.146,0,4.539,2.319,4.539,5.204v0.343h-6.314
		C361.592,204.657,362.076,206.028,363.488,206.028z M363.508,199.815c-1.09,0-1.693,0.928-1.836,1.937h3.652
		C365.203,200.764,364.578,199.815,363.508,199.815z"/>
	<path fill="#FFFFFF" d="M380.068,200.198c-1.555,0-2.422,1.453-2.422,2.865c0,1.492,0.949,2.743,2.521,2.743
		c0.727,0,1.412-0.363,1.918-0.907v2.622c-0.748,0.423-1.533,0.604-2.381,0.604c-2.824,0-4.842-2.34-4.842-5.083
		c0-2.864,2.098-5.144,4.982-5.144c0.768,0,1.574,0.182,2.24,0.605v2.643C381.48,200.562,380.895,200.198,380.068,200.198z"/>
	<path fill="#FFFFFF" d="M388.357,208.126c-3.004,0-5.043-2.138-5.043-5.104c0-3.006,2.059-5.123,5.043-5.123
		c2.986,0,5.043,2.117,5.043,5.123C393.4,205.988,391.363,208.126,388.357,208.126z M388.357,205.686c1.412,0,2.26-1.372,2.26-2.663
		c0-1.331-0.848-2.703-2.26-2.703s-2.258,1.372-2.258,2.703C386.1,204.313,386.945,205.686,388.357,205.686z"/>
	<path fill="#FFFFFF" d="M398.02,199.069c0.545-0.767,1.473-1.17,2.361-1.17c1.189,0,2.117,0.484,2.742,1.492
		c0.586-0.928,1.695-1.492,2.805-1.492c2.441,0,3.045,1.836,3.045,3.934v5.971h-2.742v-5.043c0-0.928,0.061-2.684-1.291-2.684
		c-1.473,0-1.453,2.018-1.453,3.026v4.7h-2.742v-4.861c0-0.948,0.119-2.865-1.312-2.865c-1.512,0-1.432,1.998-1.432,3.026v4.7
		h-2.744v-9.602H398v0.867H398.02z"/>
	<path fill="#FFFFFF" d="M416.496,197.899c2.725,0,4.379,2.541,4.379,5.062c0,2.623-1.594,5.164-4.439,5.164
		c-0.967,0-1.996-0.443-2.561-1.23h-0.021v6.031h-2.742v-14.725h2.742v0.887C414.48,198.343,415.488,197.899,416.496,197.899z
		 M415.832,200.319c-1.393,0-2.26,1.393-2.26,2.684s0.867,2.683,2.26,2.683c1.412,0,2.279-1.392,2.279-2.683
		S417.244,200.319,415.832,200.319z"/>
	<path fill="#FFFFFF" d="M425.635,199.21c0.564-0.847,1.371-1.311,2.4-1.311c0.383,0,0.766,0.101,1.129,0.222l-0.342,2.542
		c-0.324-0.223-0.707-0.344-1.131-0.344c-1.896,0-2.078,1.675-2.078,3.168v4.316h-2.742v-9.602h2.742v1.008H425.635z"/>
	<path fill="#FFFFFF" d="M434.369,208.126c-3.006,0-5.043-2.138-5.043-5.104c0-3.006,2.057-5.123,5.043-5.123
		s5.043,2.117,5.043,5.123C439.412,205.988,437.375,208.126,434.369,208.126z M434.369,205.686c1.412,0,2.26-1.372,2.26-2.663
		c0-1.331-0.848-2.703-2.26-2.703s-2.26,1.372-2.26,2.703C432.109,204.313,432.957,205.686,434.369,205.686z"/>
	<path fill="#FFFFFF" d="M441.992,208.187c-0.967,0-1.734-0.786-1.734-1.754c0-0.949,0.768-1.715,1.734-1.715
		c0.949,0,1.736,0.766,1.736,1.715C443.729,207.4,442.941,208.187,441.992,208.187z"/>
</g>
<rect x="485" y="90.773" fill="#FFFFFF" width="239" height="28"/>
<rect x="485" y="139.19" fill="#FFFFFF" width="239" height="28"/>
<rect x="485" y="191.573" fill="#FFFFFF" width="239" height="28"/>
<rect x="4" y="4.714" fill="#FF9906" width="94.813" height="61"/>
<rect x="86.332" y="4.714" fill="#FFC303" width="84.481" height="61"/>
<g>
	<path fill="#FFFFFF" d="M41.128,16.909h12.274V54.61h-7.323V23.304h-4.951V16.909z"/>
</g>
<g>
	<path fill="#FFFFFF" d="M142.09,54.61h-25.375l9.594-12.068c2.63-3.301,8.2-9.852,8.2-14.132c0-2.683-1.754-6.086-4.849-6.086
		c-3.301,0-4.848,3.61-4.693,6.446h-7.787c0.516-7.221,4.642-12.842,12.43-12.842c6.859,0,12.223,5.261,12.223,12.172
		c0,5.519-3.095,9.645-6.55,13.667l-5.57,6.447h12.378V54.61z"/>
</g>
</svg>
