<?xml version="1.0" encoding="utf-8"?>
<!-- Generator: Adobe Illustrator 16.0.0, SVG Export Plug-In . SVG Version: 6.00 Build 0)  -->
<!DOCTYPE svg PUBLIC "-//W3C//DTD SVG 1.1//EN" "http://www.w3.org/Graphics/SVG/1.1/DTD/svg11.dtd">
<svg version="1.1" id="Layer_1" xmlns="http://www.w3.org/2000/svg" xmlns:xlink="http://www.w3.org/1999/xlink" x="0px" y="0px"
	 width="172.652px" height="56.868px" viewBox="0 0 172.652 56.868" enable-background="new 0 0 172.652 56.868"
	 xml:space="preserve">
<g>
	
		<path fill="none" stroke="#FFFFFF" stroke-width="2.8346" stroke-linecap="round" stroke-linejoin="round" stroke-miterlimit="10" d="
		M4.795,39.882V7.713h8.537c6.733,0,11.09,2.684,11.09,9.989c0,6.821-3.696,10.166-10.254,10.166h-3.124v12.014H4.795z
		 M12.32,22.675c3.74,0,5.721-0.836,5.721-5.017c0-4.137-2.377-4.708-5.897-4.708h-1.1v9.725H12.32z"/>
	
		<path fill="none" stroke="#FFFFFF" stroke-width="2.8346" stroke-linecap="round" stroke-linejoin="round" stroke-miterlimit="10" d="
		M41.011,39.882v-1.937h-0.088c-1.276,1.672-3.521,2.641-5.677,2.641c-6.161,0-9.638-5.589-9.638-11.266
		c0-5.545,3.521-11.045,9.549-11.045c2.157,0,4.401,0.924,5.854,2.64v-1.98h5.853v20.947H41.011z M36.609,23.556
		c-3.08,0-4.928,3.036-4.928,5.853s1.848,5.853,4.928,5.853c3.081,0,4.974-3.037,4.974-5.853S39.69,23.556,36.609,23.556z"/>
	
		<path fill="none" stroke="#FFFFFF" stroke-width="2.8346" stroke-linecap="round" stroke-linejoin="round" stroke-miterlimit="10" d="
		M57.556,21.135c1.231-1.848,2.992-2.86,5.236-2.86c0.836,0,1.672,0.22,2.464,0.484l-0.748,5.545
		c-0.704-0.484-1.54-0.748-2.464-0.748c-4.137,0-4.532,3.652-4.532,6.909v9.417h-5.985V18.935h5.985v2.201H57.556z"/>
	
		<path fill="none" stroke="#FFFFFF" stroke-width="2.8346" stroke-linecap="round" stroke-linejoin="round" stroke-miterlimit="10" d="
		M69.479,39.882V23.996h-2.024v-5.061h2.024V11.85h5.984v7.085h3.652v5.061h-3.652v15.886H69.479z"/>
	
		<path fill="none" stroke="#FFFFFF" stroke-width="2.8346" stroke-linecap="round" stroke-linejoin="round" stroke-miterlimit="10" d="
		M85.628,13.698c-1.937,0-3.521-1.584-3.521-3.521c0-1.937,1.584-3.564,3.521-3.564c1.98,0,3.564,1.628,3.564,3.564
		C89.192,12.114,87.608,13.698,85.628,13.698z M82.68,39.882V18.935h5.94v20.947H82.68z"/>
	
		<path fill="none" stroke="#FFFFFF" stroke-width="2.8346" stroke-linecap="round" stroke-linejoin="round" stroke-miterlimit="10" d="
		M103.539,23.292c-3.389,0-5.281,3.168-5.281,6.249c0,3.256,2.068,5.985,5.501,5.985c1.584,0,3.08-0.792,4.181-1.98v5.721
		c-1.629,0.924-3.345,1.32-5.193,1.32c-6.16,0-10.562-5.104-10.562-11.09c0-6.249,4.577-11.221,10.87-11.221
		c1.672,0,3.433,0.396,4.885,1.32v5.765C106.619,24.083,105.343,23.292,103.539,23.292z"/>
	
		<path fill="none" stroke="#FFFFFF" stroke-width="2.8346" stroke-linecap="round" stroke-linejoin="round" stroke-miterlimit="10" d="
		M114.891,13.698c-1.937,0-3.521-1.584-3.521-3.521c0-1.937,1.584-3.564,3.521-3.564c1.98,0,3.564,1.628,3.564,3.564
		C118.455,12.114,116.871,13.698,114.891,13.698z M111.942,39.882V18.935h5.94v20.947H111.942z"/>
	
		<path fill="none" stroke="#FFFFFF" stroke-width="2.8346" stroke-linecap="round" stroke-linejoin="round" stroke-miterlimit="10" d="
		M134.297,18.275c5.94,0,9.549,5.544,9.549,11.045c0,5.721-3.477,11.266-9.682,11.266c-2.111,0-4.356-0.968-5.588-2.685h-0.045
		V51.06h-5.984V18.935h5.984v1.937C129.896,19.243,132.097,18.275,134.297,18.275z M132.845,23.556
		c-3.037,0-4.929,3.036-4.929,5.853s1.892,5.853,4.929,5.853c3.08,0,4.973-3.037,4.973-5.853S135.925,23.556,132.845,23.556z"/>
	
		<path fill="none" stroke="#FFFFFF" stroke-width="2.8346" stroke-linecap="round" stroke-linejoin="round" stroke-miterlimit="10" d="
		M162.811,39.882v-1.937h-0.088c-1.276,1.672-3.521,2.641-5.677,2.641c-6.161,0-9.638-5.589-9.638-11.266
		c0-5.545,3.521-11.045,9.549-11.045c2.156,0,4.401,0.924,5.854,2.64v-1.98h5.853v20.947H162.811z M158.41,23.556
		c-3.081,0-4.93,3.036-4.93,5.853s1.849,5.853,4.93,5.853c3.08,0,4.973-3.037,4.973-5.853S161.49,23.556,158.41,23.556z"/>
</g>
<g>
	<path fill="#9D2250" d="M4.795,39.882V7.713h8.537c6.733,0,11.09,2.684,11.09,9.989c0,6.821-3.696,10.166-10.254,10.166h-3.124
		v12.014H4.795z M12.32,22.675c3.74,0,5.721-0.836,5.721-5.017c0-4.137-2.377-4.708-5.897-4.708h-1.1v9.725H12.32z"/>
	<path fill="#9D2250" d="M41.011,39.882v-1.937h-0.088c-1.276,1.672-3.521,2.641-5.677,2.641c-6.161,0-9.638-5.589-9.638-11.266
		c0-5.545,3.521-11.045,9.549-11.045c2.157,0,4.401,0.924,5.854,2.64v-1.98h5.853v20.947H41.011z M36.609,23.556
		c-3.08,0-4.928,3.036-4.928,5.853s1.848,5.853,4.928,5.853c3.081,0,4.974-3.037,4.974-5.853S39.69,23.556,36.609,23.556z"/>
	<path fill="#9D2250" d="M57.556,21.135c1.231-1.848,2.992-2.86,5.236-2.86c0.836,0,1.672,0.22,2.464,0.484l-0.748,5.545
		c-0.704-0.484-1.54-0.748-2.464-0.748c-4.137,0-4.532,3.652-4.532,6.909v9.417h-5.985V18.935h5.985v2.201H57.556z"/>
	<path fill="#9D2250" d="M69.479,39.882V23.996h-2.024v-5.061h2.024V11.85h5.984v7.085h3.652v5.061h-3.652v15.886H69.479z"/>
	<path fill="#9D2250" d="M85.628,13.698c-1.937,0-3.521-1.584-3.521-3.521c0-1.937,1.584-3.564,3.521-3.564
		c1.98,0,3.564,1.628,3.564,3.564C89.192,12.114,87.608,13.698,85.628,13.698z M82.68,39.882V18.935h5.94v20.947H82.68z"/>
	<path fill="#9D2250" d="M103.539,23.292c-3.389,0-5.281,3.168-5.281,6.249c0,3.256,2.068,5.985,5.501,5.985
		c1.584,0,3.08-0.792,4.181-1.98v5.721c-1.629,0.924-3.345,1.32-5.193,1.32c-6.16,0-10.562-5.104-10.562-11.09
		c0-6.249,4.577-11.221,10.87-11.221c1.672,0,3.433,0.396,4.885,1.32v5.765C106.619,24.083,105.343,23.292,103.539,23.292z"/>
	<path fill="#9D2250" d="M114.891,13.698c-1.937,0-3.521-1.584-3.521-3.521c0-1.937,1.584-3.564,3.521-3.564
		c1.98,0,3.564,1.628,3.564,3.564C118.455,12.114,116.871,13.698,114.891,13.698z M111.942,39.882V18.935h5.94v20.947H111.942z"/>
	<path fill="#9D2250" d="M134.297,18.275c5.94,0,9.549,5.544,9.549,11.045c0,5.721-3.477,11.266-9.682,11.266
		c-2.111,0-4.356-0.968-5.588-2.685h-0.045V51.06h-5.984V18.935h5.984v1.937C129.896,19.243,132.097,18.275,134.297,18.275z
		 M132.845,23.556c-3.037,0-4.929,3.036-4.929,5.853s1.892,5.853,4.929,5.853c3.08,0,4.973-3.037,4.973-5.853
		S135.925,23.556,132.845,23.556z"/>
	<path fill="#9D2250" d="M162.811,39.882v-1.937h-0.088c-1.276,1.672-3.521,2.641-5.677,2.641c-6.161,0-9.638-5.589-9.638-11.266
		c0-5.545,3.521-11.045,9.549-11.045c2.156,0,4.401,0.924,5.854,2.64v-1.98h5.853v20.947H162.811z M158.41,23.556
		c-3.081,0-4.93,3.036-4.93,5.853s1.849,5.853,4.93,5.853c3.08,0,4.973-3.037,4.973-5.853S161.49,23.556,158.41,23.556z"/>
</g>
</svg>
