<?xml version="1.0" encoding="utf-8"?>
<!-- Generator: Adobe Illustrator 16.0.0, SVG Export Plug-In . SVG Version: 6.00 Build 0)  -->
<!DOCTYPE svg PUBLIC "-//W3C//DTD SVG 1.1//EN" "http://www.w3.org/Graphics/SVG/1.1/DTD/svg11.dtd">
<svg version="1.1" id="Layer_1" xmlns="http://www.w3.org/2000/svg" xmlns:xlink="http://www.w3.org/1999/xlink" x="0px" y="0px"
	 width="464.666px" height="181.998px" viewBox="0 0 464.666 181.998" enable-background="new 0 0 464.666 181.998"
	 xml:space="preserve">
<g>
	<g>
		<g>
			<path fill="#FFFFFF" d="M70.468,72.197c-4.46,0-7.698-2.974-7.698-7.071c0-5.291,0.281-11.492,0.553-17.489
				c0.268-5.9,0.545-12.002,0.545-17.105c0-3.312,2.777-5.411,5.721-5.763c-4.093-0.443-7.29-3.952-7.29-8.2
				c0-4.428,3.741-8.168,8.168-8.168c4.504,0,8.169,3.664,8.169,8.168c0,4.228-3.167,7.722-7.231,8.194
				c3.47,0.346,5.819,2.621,5.819,5.769c0,5.108,0.257,11.212,0.506,17.115c0.252,5.995,0.514,12.194,0.514,17.48
				C78.245,69.224,74.974,72.197,70.468,72.197z M69.537,30.654c-0.004,5.206-0.282,11.323-0.55,17.24
				c-0.269,5.934-0.548,12.07-0.548,17.232c0,1.301,1.553,1.402,2.029,1.402c0.961,0,2.108-0.243,2.108-1.402
				c0-5.167-0.259-11.305-0.509-17.241c-0.25-5.944-0.509-12.089-0.511-17.308c-0.152-0.074-0.505-0.192-1.088-0.192
				C70.111,30.386,69.714,30.53,69.537,30.654z M70.468,14.069c-1.308,0-2.5,1.191-2.5,2.5c0,1.397,1.145,2.579,2.5,2.579
				c1.402,0,2.5-1.133,2.5-2.579C72.968,15.237,71.799,14.069,70.468,14.069z"/>
		</g>
		<g>
			<path fill="#FFFFFF" d="M87.018,71.727c-4.597,0-7.934-2.545-7.934-6.051V14.686c0-3.349,2.934-5.972,6.679-5.972h15.767
				c13.118,0,20.642,7.466,20.642,20.485v0.471c0,13.118-7.752,20.641-21.269,20.641h-5.951v15.365
				C94.952,69.182,91.615,71.727,87.018,71.727z M84.753,65.522c0.252,0.19,1.022,0.535,2.265,0.535c1.146,0,1.98-0.331,2.265-0.551
				v-18.03c0-1.565,1.269-2.834,2.834-2.834h8.786c10.352,0,15.6-5.038,15.6-14.972v-0.471c0-9.831-5.038-14.816-14.973-14.816
				H85.763c-0.667,0-0.977,0.246-1.015,0.335L84.753,65.522z M100.903,42.31h-8.786c-1.565,0-2.834-1.269-2.834-2.834V20.491
				c0-1.565,1.269-2.834,2.834-2.834h8.786c6.933,0,11.071,4.432,11.071,11.856v0.941C111.974,37.877,107.835,42.31,100.903,42.31z
				 M94.952,36.641h5.951c2.515,0,5.402-0.704,5.402-6.187v-0.941c0-5.483-2.887-6.187-5.402-6.187h-5.951V36.641z"/>
		</g>
		<g>
			<path fill="#FFFFFF" d="M153.851,71.727c-4.603,0-5.864-2.904-6.193-4.153l-2.378-8.319h-13.688l-2.394,8.377
				c-0.313,1.192-1.575,4.096-6.177,4.096c-3.885,0-9.267-2.457-9.267-7.071c0-0.503,0.115-0.967,0.238-1.458
				c0.012-0.049,0.029-0.109,0.043-0.157l15.14-49.343c0.992-3.307,4.614-5.454,9.221-5.454c4.727,0,8.292,2.096,9.305,5.471
				l15.135,49.326c0.014,0.047,0.028,0.094,0.04,0.142l0.039,0.149c0.085,0.325,0.203,0.77,0.203,1.324
				C163.117,69.208,157.638,71.727,153.851,71.727z M153.098,65.981c0.128,0.034,0.364,0.076,0.752,0.076
				c1.515,0,3.153-0.873,3.549-1.408l-0.001-0.005L142.276,15.36c-0.216-0.721-1.723-1.448-3.879-1.448
				c-2.107,0-3.584,0.728-3.796,1.432l-15.124,49.29c-0.007,0.027-0.014,0.054-0.02,0.08c0.3,0.442,1.923,1.344,3.565,1.344
				c0.389,0,0.625-0.042,0.753-0.077l2.954-10.34c0.348-1.217,1.46-2.056,2.726-2.056h17.964c1.266,0,2.378,0.839,2.726,2.056
				L153.098,65.981z M145.221,51.252h-13.649c-0.888,0-1.726-0.417-2.261-1.125s-0.708-1.627-0.466-2.482l6.825-24.083
				c0.346-1.22,1.459-2.062,2.727-2.062s2.381,0.842,2.727,2.062l6.825,24.083c0.242,0.855,0.07,1.774-0.466,2.482
				S146.109,51.252,145.221,51.252z M135.321,45.583h6.15l-3.075-10.852L135.321,45.583z"/>
		</g>
		<g>
			<path fill="#FFFFFF" d="M195.188,72.118c-2.546,0-4.814-1.495-6.065-3.999l-10.333-20.083h-2.025v17.639
				c0,3.506-3.336,6.051-7.934,6.051s-7.934-2.545-7.934-6.051V14.686c0-3.349,2.692-5.972,6.129-5.972h15.532
				c13.817,0,21.426,6.829,21.426,19.229c0,10.096-4.836,14.865-9.125,17.108l8.698,16.134c0.736,1.081,0.82,2.275,0.82,2.765
				C204.376,68.072,199.825,72.118,195.188,72.118z M173.929,42.367h6.589c1.062,0,2.035,0.593,2.521,1.538l11.139,21.65
				c0.286,0.571,0.658,0.894,1.01,0.894c1.575,0,3.292-1.544,3.499-2.351c-0.011-0.02-0.021-0.039-0.032-0.059l-10.276-19.062
				c-0.403-0.748-0.45-1.636-0.127-2.421c0.323-0.786,0.98-1.385,1.792-1.634c5.412-1.659,8.273-6.147,8.273-12.979
				c0-9.251-5.007-13.56-15.757-13.56h-15.532c-0.363,0-0.46,0.19-0.46,0.303v50.82c0.285,0.22,1.119,0.551,2.265,0.551
				c1.243,0,2.012-0.345,2.265-0.535V45.202C171.094,43.636,172.363,42.367,173.929,42.367z M182.558,40.034h-8.629
				c-1.565,0-2.834-1.269-2.834-2.834V20.491c0-1.565,1.269-2.834,2.834-2.834h8.629c7.241,0,11.228,3.987,11.228,11.228
				C193.786,36.075,189.798,40.034,182.558,40.034z M176.763,34.365h5.794c4.104,0,5.559-1.435,5.559-5.481
				c0-4.104-1.455-5.559-5.559-5.559h-5.794V34.365z"/>
		</g>
		<g>
			<path fill="#FFFFFF" d="M221.933,71.727c-4.597,0-7.934-2.545-7.934-6.051V23.561h-8.697c-3.506,0-6.051-3.138-6.051-7.462
				c0-4.279,2.544-7.384,6.051-7.384h33.182c3.506,0,6.051,3.105,6.051,7.384c0,4.324-2.544,7.462-6.051,7.462h-8.618v42.115
				C229.867,69.182,226.53,71.727,221.933,71.727z M219.668,65.522c0.252,0.19,1.022,0.535,2.265,0.535
				c1.146,0,1.98-0.331,2.265-0.551v-44.78c0-1.565,1.269-2.834,2.834-2.834h11.37c0.158-0.181,0.465-0.788,0.465-1.793
				c0-0.883-0.265-1.519-0.432-1.715l-33.081,0c-0.167,0.196-0.433,0.832-0.433,1.715c0,1.016,0.295,1.62,0.445,1.793h11.468
				c1.565,0,2.834,1.269,2.834,2.834V65.522z"/>
		</g>
		<g>
			<path fill="#FFFFFF" d="M250.405,71.727c-4.597,0-7.934-2.545-7.934-6.051V14.686c0-3.572,3.188-5.972,7.934-5.972
				c4.745,0,7.933,2.4,7.933,5.972v50.989C258.338,69.182,255.002,71.727,250.405,71.727z M248.141,65.522
				c0.252,0.19,1.022,0.535,2.265,0.535c1.146,0,1.979-0.331,2.264-0.551V14.853c-0.3-0.195-1.115-0.47-2.264-0.47
				c-1.212,0-1.984,0.275-2.265,0.455V65.522z"/>
		</g>
		<g>
			<path fill="#FFFFFF" d="M280.448,72.197c-13.073,0-20.877-7.775-20.877-20.798V29.512c0-13.023,7.833-20.798,20.956-20.798
				c12.662,0,21.504,7.294,21.504,17.739c0,7.855-5.971,7.855-7.933,7.855c-7.176,0-7.885-4.559-7.932-5.956
				c-0.21-3.229-1.123-5.026-5.325-5.026c-2.806,0-5.403,0.75-5.403,6.187v21.887c0,5.437,2.672,6.186,5.559,6.186
				c4.075,0,4.89-1.777,5.174-5.761c0.087-1.356,0.915-5.848,7.848-5.848c5.391,0,8.011,2.569,8.011,7.855
				C302.031,64.645,293.156,72.197,280.448,72.197z M280.526,14.383c-6.974,0-15.287,2.625-15.287,15.129v21.887
				c0,6.902,2.639,15.129,15.208,15.129c9.667,0,15.914-4.984,15.914-12.698c0-2.125-0.066-2.186-2.342-2.186
				c-1.443,0-2.06,0.294-2.172,0.403c0.002,0.003-0.013,0.055-0.02,0.16c-0.196,2.748-0.789,11.046-10.831,11.046
				c-7.136,0-11.228-4.321-11.228-11.855V29.512c0-7.535,4.035-11.856,11.072-11.856c4.705,0,10.43,1.807,10.987,10.418
				c0.006,0.144,0.015,0.197,0.019,0.214c0.03,0,0.548,0.351,2.251,0.351c1.661,0,1.963-0.268,1.966-0.27
				c0.003-0.003,0.298-0.364,0.298-1.916C296.362,19.121,290.146,14.383,280.526,14.383z"/>
		</g>
		<g>
			<path fill="#FFFFFF" d="M309.233,71.727c-4.671,0-7.933-2.488-7.933-6.051V14.686c0-3.572,3.188-5.972,7.933-5.972
				s7.933,2.4,7.933,5.972v50.989C317.167,69.182,313.83,71.727,309.233,71.727z M306.969,65.523
				c0.252,0.19,1.022,0.535,2.264,0.535c1.146,0,1.979-0.331,2.264-0.551V14.853c-0.3-0.195-1.115-0.47-2.264-0.47
				c-1.212,0-1.984,0.275-2.264,0.454V65.523z"/>
		</g>
		<g>
			<path fill="#FFFFFF" d="M326.882,71.727c-4.671,0-7.933-2.488-7.933-6.051V14.686c0-3.349,2.933-5.972,6.678-5.972h15.768
				c13.118,0,20.642,7.466,20.642,20.485v0.471c0,13.118-7.752,20.641-21.27,20.641h-5.952v15.365
				C334.815,69.182,331.479,71.727,326.882,71.727z M324.618,65.523c0.252,0.19,1.022,0.535,2.264,0.535
				c1.146,0,1.979-0.331,2.264-0.551V47.476c0-1.565,1.269-2.834,2.834-2.834h8.786c10.352,0,15.6-5.038,15.6-14.972v-0.471
				c0-9.831-5.038-14.816-14.972-14.816h-15.768c-0.666,0-0.977,0.246-1.014,0.335L324.618,65.523z M340.767,42.31h-8.786
				c-1.565,0-2.834-1.269-2.834-2.834V20.491c0-1.565,1.269-2.834,2.834-2.834h8.786c6.933,0,11.072,4.432,11.072,11.856v0.941
				C351.838,37.877,347.7,42.31,340.767,42.31z M334.815,36.641h5.952c2.516,0,5.403-0.704,5.403-6.187v-0.941
				c0-5.483-2.887-6.187-5.403-6.187h-5.952V36.641z"/>
		</g>
		<g>
			<path fill="#FFFFFF" d="M393.715,71.727c-4.603,0-5.864-2.904-6.193-4.152l-2.377-8.32h-13.688l-2.394,8.377
				c-0.312,1.191-1.572,4.096-6.177,4.096c-3.885,0-9.267-2.457-9.267-7.071c0-0.477,0.101-0.913,0.243-1.478
				c0.012-0.046,0.024-0.092,0.039-0.138l15.14-49.343c0.992-3.307,4.613-5.454,9.221-5.454c4.727,0,8.292,2.096,9.305,5.471
				L402.7,63.04c0.015,0.048,0.028,0.097,0.041,0.146l0.039,0.154c0.085,0.322,0.202,0.763,0.202,1.316
				C402.982,69.208,397.503,71.727,393.715,71.727z M392.962,65.981c0.128,0.034,0.364,0.077,0.753,0.077
				c1.514,0,3.152-0.872,3.549-1.408l-0.001-0.005L382.141,15.36c-0.216-0.72-1.724-1.448-3.88-1.448
				c-2.107,0-3.585,0.728-3.796,1.432L359.34,64.638c-0.007,0.026-0.013,0.051-0.02,0.077c0.3,0.441,1.922,1.343,3.565,1.343
				c0.389,0,0.625-0.042,0.753-0.077l2.954-10.34c0.348-1.217,1.46-2.056,2.726-2.056h17.964c1.266,0,2.378,0.839,2.726,2.056
				L392.962,65.981z M385.086,51.252h-13.649c-0.889,0-1.726-0.417-2.261-1.125c-0.536-0.708-0.709-1.627-0.467-2.482l6.824-24.083
				c0.346-1.22,1.46-2.062,2.728-2.062s2.382,0.842,2.728,2.062l6.825,24.083c0.242,0.855,0.069,1.773-0.467,2.482
				C386.812,50.835,385.975,51.252,385.086,51.252z M375.186,45.583h6.15l-3.075-10.852L375.186,45.583z"/>
		</g>
		<g>
			<path fill="#FFFFFF" d="M55.293,121.594c-9.702,0-15.493-5.771-15.493-15.438V90.8c0-9.667,5.812-15.438,15.548-15.438
				c9.381,0,15.934,5.465,15.934,13.292c0,4.218-2.157,6.357-6.412,6.357c-4.604,0-6.33-2.582-6.41-4.998
				c-0.119-1.812-0.444-2.708-2.891-2.708c-1.611,0-2.944,0.263-2.944,3.495v15.355c0,2.954,1.029,3.495,3.054,3.495
				c2.236,0,2.604-0.694,2.787-3.256c0.152-2.354,1.9-4.89,6.35-4.89c5.345,0,6.467,3.457,6.467,6.357
				C71.282,115.947,64.708,121.594,55.293,121.594z M55.349,81.031c-6.555,0-9.879,3.287-9.879,9.769v15.355
				c0,6.482,3.306,9.769,9.824,9.769c6.269,0,10.32-3.165,10.32-8.063c0-0.297-0.018-0.505-0.038-0.646
				c-0.157-0.021-0.4-0.042-0.76-0.042c-0.328,0-0.566,0.024-0.731,0.051c-0.521,5.378-3.347,8.094-8.406,8.094
				c-5.462,0-8.723-3.425-8.723-9.164V90.8c0-5.738,3.22-9.164,8.613-9.164c2.934,0,7.877,1.007,8.517,7.651
				c0.179,0.029,0.434,0.054,0.784,0.054c0.327,0,0.554-0.016,0.707-0.034c0.02-0.145,0.037-0.357,0.037-0.654
				C65.613,83.028,60.083,81.031,55.349,81.031z"/>
		</g>
		<g>
			<path fill="#FFFFFF" d="M95.253,121.264c-2.649,0-4.579-1.325-5.163-3.543l-1.488-5.208h-8.328l-1.504,5.265
				c-0.568,2.162-2.499,3.486-5.147,3.486c-3.548,0-7.348-2.333-7.348-5.806c0-0.458,0.098-0.852,0.193-1.232
				c0.012-0.048,0.027-0.102,0.042-0.15l10.623-34.619c0.804-2.681,3.663-4.425,7.278-4.425c3.704,0,6.516,1.702,7.338,4.441
				l10.617,34.603c0.015,0.048,0.028,0.096,0.04,0.144c0.093,0.353,0.195,0.74,0.195,1.238
				C102.601,118.879,98.729,121.264,95.253,121.264z M72.103,115.175c0.333,0.188,0.87,0.388,1.396,0.417l1.911-6.692
				c0.348-1.217,1.46-2.056,2.726-2.056h0.93c-0.674-0.135-1.283-0.512-1.705-1.07c-0.536-0.708-0.708-1.627-0.466-2.482
				l4.788-16.896c0.346-1.22,1.459-2.062,2.727-2.062s2.381,0.842,2.727,2.062l4.789,16.896c0.243,0.855,0.07,1.773-0.466,2.482
				c-0.422,0.558-1.031,0.936-1.705,1.07h0.985c1.266,0,2.378,0.839,2.726,2.056l1.912,6.691c0.506-0.03,1.049-0.236,1.391-0.434
				L86.324,81.119C86.25,81.054,85.586,80.7,84.41,80.7c-1.138,0-1.784,0.352-1.891,0.48L72.103,115.175z M83.372,101.229h2.078
				l-1.039-3.666L83.372,101.229z"/>
		</g>
		<g>
			<path fill="#FFFFFF" d="M122.774,121.264h-17.447c-3.46,0-5.972-2.141-5.972-5.09V80.398c0-2.965,2.637-5.036,6.412-5.036
				s6.412,2.071,6.412,5.036v28.922h10.595c2.886,0,4.981,2.512,4.981,5.972C127.755,118.752,125.66,121.264,122.774,121.264z
				 M105.024,115.572c0.086,0.013,0.188,0.022,0.303,0.022h16.738c0.013-0.089,0.021-0.191,0.021-0.302
				c0-0.114-0.008-0.215-0.019-0.303h-12.722c-1.565,0-2.834-1.269-2.834-2.834V81.103c-0.388-0.081-1.119-0.078-1.486-0.005
				V115.572z"/>
		</g>
		<g>
			<path fill="#FFFFFF" d="M139.066,121.594c-9.702,0-15.493-5.771-15.493-15.438V90.8c0-9.667,5.812-15.438,15.548-15.438
				c9.381,0,15.934,5.465,15.934,13.292c0,4.218-2.157,6.357-6.412,6.357c-4.604,0-6.33-2.582-6.41-4.998
				c-0.119-1.812-0.444-2.708-2.891-2.708c-1.611,0-2.944,0.263-2.944,3.495v15.355c0,2.954,1.029,3.495,3.054,3.495
				c2.236,0,2.604-0.694,2.787-3.256c0.152-2.354,1.9-4.89,6.35-4.89c5.345,0,6.467,3.457,6.467,6.357
				C155.055,115.947,148.48,121.594,139.066,121.594z M139.122,81.031c-6.555,0-9.879,3.287-9.879,9.769v15.355
				c0,6.482,3.306,9.769,9.824,9.769c6.269,0,10.32-3.165,10.32-8.063c0-0.297-0.018-0.505-0.038-0.646
				c-0.157-0.021-0.4-0.042-0.76-0.042c-0.328,0-0.566,0.024-0.731,0.051c-0.521,5.378-3.347,8.094-8.406,8.094
				c-5.462,0-8.723-3.425-8.723-9.164V90.8c0-5.738,3.22-9.164,8.613-9.164c2.934,0,7.878,1.007,8.517,7.651
				c0.179,0.029,0.434,0.054,0.784,0.054c0.327,0,0.554-0.016,0.707-0.034c0.02-0.145,0.037-0.357,0.037-0.654
				C149.386,83.028,143.856,81.031,139.122,81.031z"/>
		</g>
		<g>
			<path fill="#FFFFFF" d="M168.733,121.594c-10.196,0-16.043-5.627-16.043-15.438V80.398c0-2.965,2.637-5.036,6.412-5.036
				s6.412,2.071,6.412,5.036v25.758c0,2.923,1.181,3.495,3.22,3.495c2.04,0,3.22-0.572,3.22-3.495V80.398
				c0-2.965,2.636-5.036,6.412-5.036s6.412,2.071,6.412,5.036v25.758C184.777,115.823,178.78,121.594,168.733,121.594z
				 M158.359,81.098v25.058c0,6.573,3.394,9.769,10.375,9.769s10.375-3.196,10.375-9.769V81.103
				c-0.388-0.081-1.119-0.078-1.486-0.005v25.058c0,5.652-3.406,9.164-8.889,9.164s-8.889-3.511-8.889-9.164V81.103
				C159.455,81.021,158.725,81.024,158.359,81.098z"/>
		</g>
		<g>
			<path fill="#FFFFFF" d="M207.592,121.264h-17.447c-3.46,0-5.972-2.141-5.972-5.09V80.398c0-2.965,2.637-5.036,6.412-5.036
				s6.412,2.071,6.412,5.036v28.922h10.595c2.886,0,4.981,2.512,4.981,5.972C212.573,118.752,210.479,121.264,207.592,121.264z
				 M189.842,115.572c0.086,0.013,0.188,0.022,0.303,0.022h16.738c0.013-0.089,0.021-0.191,0.021-0.302
				c0-0.114-0.008-0.215-0.019-0.303h-12.722c-1.565,0-2.834-1.269-2.834-2.834V81.103c-0.388-0.081-1.12-0.078-1.486-0.005V115.572
				z"/>
		</g>
		<g>
			<path fill="#FFFFFF" d="M235.608,121.264c-2.649,0-4.579-1.325-5.163-3.543l-1.488-5.208h-8.328l-1.504,5.265
				c-0.568,2.162-2.499,3.486-5.147,3.486c-3.548,0-7.348-2.333-7.348-5.806c0-0.458,0.098-0.852,0.193-1.232
				c0.012-0.048,0.027-0.102,0.042-0.15l10.623-34.619c0.804-2.681,3.663-4.425,7.278-4.425c3.704,0,6.516,1.702,7.338,4.441
				l10.617,34.603c0.015,0.048,0.028,0.096,0.04,0.144c0.093,0.353,0.195,0.74,0.195,1.238
				C242.956,118.879,239.083,121.264,235.608,121.264z M212.458,115.175c0.333,0.188,0.87,0.388,1.396,0.417l1.911-6.692
				c0.348-1.217,1.46-2.056,2.726-2.056h0.93c-0.674-0.135-1.283-0.512-1.705-1.07c-0.536-0.708-0.708-1.627-0.466-2.482
				l4.788-16.896c0.346-1.22,1.459-2.062,2.727-2.062s2.381,0.842,2.727,2.062l4.789,16.896c0.242,0.855,0.07,1.773-0.466,2.482
				c-0.422,0.558-1.031,0.936-1.705,1.07h0.985c1.266,0,2.378,0.839,2.726,2.056l1.912,6.691c0.506-0.03,1.049-0.236,1.391-0.434
				l-10.444-34.038c-0.074-0.065-0.737-0.419-1.914-0.419c-1.138,0-1.784,0.352-1.891,0.48L212.458,115.175z M223.727,101.229h2.078
				l-1.039-3.666L223.727,101.229z"/>
		</g>
		<g>
			<path fill="#FFFFFF" d="M264.671,121.264c-3.716,0-6.413-2.141-6.413-5.09v-13.54l-11.177-19.33
				c-0.067-0.117-0.127-0.239-0.177-0.365c-0.138-0.344-0.369-1.031-0.369-1.77c0-3.789,4.395-5.806,7.568-5.806
				c2.18,0,3.729,0.98,4.737,2.999l5.839,11.099l5.907-11.159c0.385-0.727,1.556-2.939,4.652-2.939c3.173,0,7.568,2.018,7.568,5.806
				c0,0.336,0,1.229-0.573,2.179l-11.151,19.379v13.447C271.083,119.123,268.386,121.264,264.671,121.264z M263.927,115.504
				c0.381,0.099,1.113,0.098,1.486,0.007v-13.208c0-0.748,0.228-1.537,0.627-2.182l10.761-18.701
				c-0.349-0.166-0.816-0.317-1.256-0.37l-8.37,15.81c-0.491,0.928-1.456,1.508-2.505,1.508c-0.001,0-0.002,0-0.004,0
				c-1.051-0.001-2.016-0.584-2.505-1.515l-8.31-15.799c-0.478,0.051-0.958,0.202-1.311,0.367l10.813,18.701
				c0.471,0.767,0.573,1.603,0.573,2.182V115.504z"/>
		</g>
		<g>
			<path fill="#FFFFFF" d="M304.465,121.594c-9.986,0-15.713-5.627-15.713-15.438V90.8c0-9.667,5.792-15.438,15.493-15.438
				c9.563,0,15.989,5.386,15.989,13.402c0,2.284-0.714,4.919-3.726,5.875c2.171,0.589,3.726,2.561,3.726,4.966v6.55
				C320.233,115.823,314.338,121.594,304.465,121.594z M304.244,81.031c-6.61,0-9.824,3.196-9.824,9.769v15.355
				c0,6.573,3.286,9.769,10.044,9.769c6.795,0,10.099-3.196,10.099-9.769v-6.027h-3.761c1.298,0.26,2.276,1.406,2.276,2.78v3.247
				c0,5.652-3.3,9.164-8.614,9.164c-5.359,0-8.559-3.425-8.559-9.164V90.8c0-5.738,3.22-9.164,8.614-9.164
				c2.935,0,7.881,1.007,8.518,7.651c0.179,0.029,0.434,0.054,0.784,0.054c0.333,0,0.561-0.017,0.713-0.037
				c0.016-0.125,0.029-0.302,0.029-0.541C314.564,83.063,309.233,81.031,304.244,81.031z M301.575,103.282v2.874
				c0,3.231,1.309,3.495,2.89,3.495c1.49,0,2.945-0.27,2.945-3.495v-0.413h-1.625C303.983,105.743,302.46,104.788,301.575,103.282z
				 M304.52,87.306c-1.611,0-2.945,0.263-2.945,3.495v6.122c0.885-1.507,2.409-2.462,4.21-2.462h4.807
				c-2.218-0.888-3.125-2.712-3.181-4.45C307.281,88.004,306.843,87.306,304.52,87.306z"/>
		</g>
		<g>
			<path fill="#FFFFFF" d="M345.03,121.264c-2.649,0-4.579-1.325-5.163-3.543l-1.488-5.208h-8.328l-1.503,5.264
				c-0.568,2.162-2.499,3.487-5.147,3.487c-3.549,0-7.348-2.333-7.348-5.806c0-0.452,0.095-0.835,0.187-1.206
				c0.013-0.05,0.033-0.127,0.048-0.176l10.622-34.619c0.806-2.682,3.665-4.425,7.278-4.425c3.705,0,6.517,1.702,7.338,4.442
				l10.618,34.602c0.015,0.049,0.029,0.1,0.042,0.15c0.092,0.352,0.192,0.737,0.192,1.232
				C352.377,118.879,348.505,121.264,345.03,121.264z M321.88,115.175c0.333,0.188,0.871,0.388,1.397,0.417l1.911-6.691
				c0.348-1.217,1.46-2.056,2.726-2.056h0.93c-0.674-0.135-1.283-0.512-1.705-1.07c-0.536-0.708-0.708-1.627-0.466-2.482
				l4.788-16.896c0.346-1.22,1.459-2.062,2.727-2.062s2.381,0.842,2.727,2.062l4.788,16.896c0.242,0.855,0.07,1.774-0.466,2.482
				c-0.422,0.559-1.031,0.936-1.705,1.07h0.985c1.266,0,2.378,0.839,2.726,2.056l1.912,6.691c0.506-0.03,1.049-0.236,1.391-0.434
				l-10.445-34.038c-0.074-0.065-0.737-0.419-1.913-0.419c-1.139,0-1.785,0.352-1.891,0.48L321.88,115.175z M333.149,101.229h2.077
				l-1.039-3.665L333.149,101.229z"/>
		</g>
		<g>
			<path fill="#FFFFFF" d="M375.083,121.264c-3.776,0-5.681-2.027-6.613-3.728l-6.514-12.179v10.816c0,2.95-2.697,5.09-6.412,5.09
				s-6.412-2.141-6.412-5.09V80.453c0-2.997,2.636-5.09,6.412-5.09c3.828,0,5.735,1.291,7.849,5.313l5.277,10.201V80.398
				c0-2.965,2.638-5.036,6.413-5.036s6.412,2.071,6.412,5.036v35.775C381.495,119.123,378.798,121.264,375.083,121.264z
				 M359.122,91.212c1.027,0,1.998,0.561,2.5,1.498l11.834,22.126c0.229,0.418,0.505,0.758,1.628,0.758
				c0.299,0,0.554-0.042,0.742-0.09V81.103c-0.39-0.081-1.12-0.078-1.485-0.005v21.425c0,1.307-0.895,2.445-2.165,2.754
				c-1.263,0.306-2.587-0.29-3.188-1.452l-10.622-20.529c-1.19-2.265-1.313-2.265-2.821-2.265c-0.302,0-0.554,0.034-0.743,0.076
				v34.404c0.373,0.09,1.104,0.092,1.485-0.006V94.047c0-1.3,0.884-2.434,2.146-2.75C358.662,91.24,358.893,91.212,359.122,91.212z"
				/>
		</g>
		<g>
			<path fill="#FFFFFF" d="M407.227,121.264c-2.648,0-4.579-1.325-5.163-3.543l-1.488-5.208h-8.327l-1.504,5.264
				c-0.568,2.162-2.499,3.487-5.147,3.487c-3.549,0-7.349-2.333-7.349-5.806c0-0.452,0.096-0.835,0.188-1.206
				c0.012-0.05,0.033-0.127,0.048-0.176l10.622-34.619c0.806-2.682,3.664-4.425,7.278-4.425c3.705,0,6.517,1.702,7.338,4.442
				l10.618,34.602c0.016,0.049,0.029,0.1,0.041,0.15c0.092,0.352,0.193,0.737,0.193,1.232
				C414.574,118.879,410.702,121.264,407.227,121.264z M384.076,115.175c0.333,0.188,0.87,0.388,1.396,0.417l1.911-6.691
				c0.348-1.217,1.46-2.056,2.726-2.056h0.931c-0.674-0.135-1.283-0.512-1.705-1.07c-0.536-0.708-0.709-1.627-0.467-2.482
				l4.788-16.896c0.346-1.22,1.46-2.062,2.728-2.062s2.382,0.842,2.728,2.062l4.788,16.896c0.242,0.855,0.069,1.774-0.467,2.482
				c-0.422,0.559-1.031,0.936-1.705,1.07h0.985c1.266,0,2.378,0.839,2.726,2.056l1.912,6.691c0.506-0.03,1.05-0.236,1.391-0.434
				l-10.444-34.038c-0.074-0.065-0.737-0.419-1.913-0.419c-1.139,0-1.785,0.352-1.892,0.48L384.076,115.175z M395.346,101.229h2.076
				l-1.038-3.665L395.346,101.229z"/>
		</g>
		<g>
			<path fill="#FFFFFF" d="M416.916,121.594c-3.627,0-6.578-2.95-6.578-6.577c0-2.43,1.325-4.556,3.29-5.695
				c-1.431-0.853-2.299-2.311-2.299-4.102c0-3.572-0.181-7.851-0.355-11.989c-0.177-4.196-0.36-8.536-0.36-12.228
				c0-3.396,2.628-5.862,6.247-5.862c3.593,0,6.303,2.52,6.303,5.862c0,3.697-0.197,8.039-0.389,12.237
				c-0.188,4.135-0.382,8.412-0.382,11.979c0,1.811-0.971,3.194-2.322,4.027c2.038,1.119,3.423,3.286,3.423,5.77
				C423.493,118.582,420.481,121.594,416.916,121.594z M416.916,114.109c-0.597,0-0.908,0.457-0.908,0.908
				c0,0.437,0.347,0.908,0.908,0.908c0.441,0,0.907-0.467,0.907-0.908C417.823,114.551,417.383,114.109,416.916,114.109z
				 M416.284,80.918c0.002,0.013-0.001,0.043-0.001,0.085c0,3.572,0.181,7.851,0.355,11.989c0.08,1.907,0.162,3.844,0.228,5.736
				c0.07-1.895,0.158-3.834,0.245-5.745c0.188-4.135,0.382-8.412,0.382-11.979c-0.015-0.067-0.222-0.193-0.633-0.193
				C416.542,80.811,416.355,80.878,416.284,80.918z"/>
		</g>
	</g>
	<g>
		<g>
			<path fill="#FFFFFF" d="M22.942,168.562c-8.097,0-12.931-4.661-12.931-12.468v-19.688c0-2.66,2.29-4.517,5.569-4.517
				s5.569,1.857,5.569,4.517v19.688c0,1.814,0.546,2.003,1.793,2.003c1.247,0,1.793-0.189,1.793-2.003v-19.688
				c0-2.66,2.29-4.517,5.569-4.517s5.569,1.857,5.569,4.517v19.688C35.873,163.9,31.039,168.562,22.942,168.562z"/>
		</g>
		<g>
			<path fill="#FFFFFF" d="M55.631,168.31c-3.212,0-4.84-1.738-5.641-3.195l-3.725-6.965v5.601c0,2.642-2.342,4.559-5.569,4.559
				s-5.569-1.917-5.569-4.559v-27.303c0-2.685,2.29-4.559,5.569-4.559c3.191,0,4.854,1.115,6.59,4.418l2.775,5.363v-5.265
				c0-2.66,2.29-4.517,5.569-4.517s5.569,1.857,5.569,4.517v27.345C61.2,166.392,58.858,168.31,55.631,168.31z M51.397,155.723
				l3.578,6.691c0.076,0.138,0.119,0.216,0.556,0.226v-8.274c-0.332,0.834-1.051,1.484-1.964,1.707
				C52.805,156.257,52.027,156.115,51.397,155.723z M40.796,137.558v8.233c0.33-0.828,1.041-1.476,1.946-1.703
				c0.882-0.222,1.792-0.002,2.469,0.543l-2.951-5.704c-0.566-1.078-0.821-1.308-0.868-1.343
				C41.413,137.601,41.268,137.563,40.796,137.558z"/>
		</g>
		<g>
			<path fill="#FFFFFF" d="M81.252,168.31c-2.347,0-4.063-1.198-4.592-3.206l-0.996-3.483h-5.357l-1.011,3.54
				c-0.513,1.951-2.23,3.149-4.577,3.149c-3.035,0-6.284-2.052-6.284-5.106c0-0.432,0.092-0.801,0.167-1.098
				c0.012-0.048,0.028-0.107,0.042-0.154l8.119-26.461c0.7-2.334,3.136-3.854,6.202-3.854c3.139,0,5.533,1.484,6.249,3.872
				l8.114,26.443c0.015,0.048,0.028,0.096,0.04,0.144c0.074,0.28,0.168,0.64,0.168,1.108
				C87.536,166.258,84.287,168.31,81.252,168.31z M66.601,155.346l-0.442,1.441c0.25-0.252,0.547-0.455,0.874-0.598
				C66.84,155.931,66.695,155.646,66.601,155.346z M78.907,156.175c0.339,0.144,0.647,0.352,0.906,0.612l-0.464-1.511
				C79.258,155.596,79.109,155.9,78.907,156.175z M72.965,138.745L72.965,138.745c0.517,0,1.007,0.14,1.431,0.388l-0.519-1.691
				c-0.176-0.064-0.492-0.137-0.912-0.137c-0.397,0-0.699,0.07-0.869,0.133l-0.511,1.666
				C71.997,138.874,72.469,138.745,72.965,138.745z"/>
		</g>
		<g>
			<path fill="#FFFFFF" d="M117.644,168.31c-3.227,0-5.569-1.917-5.569-4.559v-7.353c-0.919,1.236-2.323,1.941-3.939,1.941
				c-1.539,0-2.889-0.658-3.812-1.833v7.245c0,2.642-2.342,4.559-5.569,4.559s-5.569-1.917-5.569-4.559v-26.293
				c0-3.279,2.29-5.569,5.569-5.569c3.166,0,4.925,1.139,6.723,4.354l2.701,4.917l2.689-4.898c1.808-3.233,3.579-4.373,6.776-4.373
				c3.279,0,5.569,2.29,5.569,5.569v26.293C123.213,166.392,120.871,168.31,117.644,168.31z M106.99,149.623l1.186,2.228
				l1.275-2.268C108.702,149.958,107.75,149.973,106.99,149.623z M114.909,142.826c0.239,0,0.48,0.03,0.719,0.093
				c0.892,0.233,1.59,0.876,1.916,1.694v-7.055c-0.889,0.002-0.934,0.051-1.717,1.451l-2.291,4.172
				C113.953,142.95,114.425,142.826,114.909,142.826z M98.855,137.558v6.719c0.33-0.829,1.042-1.477,1.948-1.704
				c0.6-0.148,1.209-0.096,1.751,0.124l-2.036-3.707c-0.662-1.184-0.949-1.361-0.96-1.368
				C99.546,137.617,99.408,137.564,98.855,137.558z"/>
		</g>
		<g>
			<path fill="#FFFFFF" d="M134.936,168.562c-7.939,0-12.679-4.661-12.679-12.468v-11.736c0-7.807,4.74-12.468,12.679-12.468
				c7.965,0,12.72,4.661,12.72,12.468v11.736C147.656,163.9,142.901,168.562,134.936,168.562z M134.936,142.354
				c-0.961,0-1.541,0-1.541,2.003v11.736c0,2.003,0.58,2.003,1.541,2.003c0.918,0,1.583,0,1.583-2.003v-11.736
				C136.519,142.354,135.854,142.354,134.936,142.354z"/>
		</g>
		<g>
			<path fill="#FFFFFF" d="M157.612,168.31c-3.227,0-5.569-1.917-5.569-4.559v-21.271h-3.35c-2.642,0-4.559-2.236-4.559-5.317
				c0-3.007,1.96-5.274,4.559-5.274h17.795c2.6,0,4.56,2.267,4.56,5.274c0,3.031-1.96,5.317-4.56,5.317h-3.307v21.271
				C163.182,166.392,160.839,168.31,157.612,168.31z M156.796,137.558c0.387,0.355,0.674,0.817,0.816,1.338
				c0.143-0.521,0.43-0.983,0.817-1.338H156.796z"/>
		</g>
		<g>
			<path fill="#FFFFFF" d="M180.206,168.562c-7.939,0-12.679-4.661-12.679-12.468v-11.736c0-7.807,4.74-12.468,12.679-12.468
				c7.965,0,12.72,4.661,12.72,12.468v11.736C192.926,163.9,188.171,168.562,180.206,168.562z M180.206,142.354
				c-0.961,0-1.541,0-1.541,2.003v11.736c0,2.003,0.58,2.003,1.541,2.003c0.918,0,1.583,0,1.583-2.003v-11.736
				C181.788,142.354,181.124,142.354,180.206,142.354z"/>
		</g>
		<g>
			<path fill="#FFFFFF" d="M211.38,168.688c-6.804,0-12.552-3.687-12.552-8.05c0-2.673,2.286-5.78,5.232-5.78
				c1.702,0,2.856,0.969,3.783,1.749c0.992,0.833,1.774,1.491,3.368,1.491c0.44,0,1.877-0.06,1.877-0.825
				c0-0.821-1.156-1.467-3.92-2.694c-3.816-1.695-9.584-4.256-9.584-11.651c0-6.833,5.125-11.249,13.057-11.249
				c5.234,0,10.827,1.628,10.827,6.2c0,2.314-1.596,5.738-5.022,5.738c-1.178,0-2.069-0.458-2.786-0.825
				c-0.774-0.397-1.506-0.773-3.02-0.773c-1.169,0-1.743,0.243-1.911,0.365c0.392,0.467,2.068,1.178,3.192,1.655
				c3.854,1.635,10.303,4.372,10.303,12.688C224.227,163.992,219.185,168.688,211.38,168.688z M205.451,144.525
				c0.64,2.358,2.814,3.448,6.02,4.872c2.665,1.183,5.863,2.604,6.926,5.638c-0.628-2.984-3.046-4.234-6.686-5.779
				C209.329,148.246,206.481,147.037,205.451,144.525z"/>
		</g>
		<g>
			<path fill="#FFFFFF" d="M235.108,168.562c-8.097,0-12.931-4.661-12.931-12.468v-19.688c0-2.66,2.29-4.517,5.569-4.517
				s5.569,1.857,5.569,4.517v19.688c0,1.814,0.546,2.003,1.793,2.003c1.247,0,1.793-0.189,1.793-2.003v-19.688
				c0-2.66,2.29-4.517,5.569-4.517s5.569,1.857,5.569,4.517v19.688C248.039,163.9,243.205,168.562,235.108,168.562z"/>
		</g>
		<g>
			<path fill="#FFFFFF" d="M267.292,168.31h-17.458c-2.593,0-4.475-1.829-4.475-4.349c0-1.077,0.361-2.298,0.992-3.35l10.115-18.257
				h-5.833c-2.618,0-4.517-2.201-4.517-5.233c0-3.032,1.899-5.232,4.517-5.232h15.985c2.593,0,4.475,1.811,4.475,4.306
				c0,1.117-0.344,2.267-1.024,3.418l-10.085,18.231h7.308c2.557,0,4.559,2.298,4.559,5.232
				C271.851,166.011,269.849,168.31,267.292,168.31z M251.705,162.641h1.425c-0.149-0.156-0.282-0.331-0.395-0.521
				c-0.144-0.244-0.249-0.505-0.313-0.772L251.705,162.641z M263.323,137.558c0.15,0.157,0.283,0.332,0.396,0.522
				c0.139,0.237,0.242,0.489,0.307,0.748l0.703-1.271H263.323z"/>
		</g>
		<g>
			<path fill="#FFFFFF" d="M282.06,168.562c-8.098,0-12.932-4.661-12.932-12.468v-19.688c0-2.66,2.291-4.517,5.571-4.517
				c3.279,0,5.569,1.857,5.569,4.517v19.688c0,1.814,0.546,2.003,1.792,2.003s1.792-0.189,1.792-2.003v-19.688
				c0-2.66,2.29-4.517,5.569-4.517s5.569,1.857,5.569,4.517v19.688C294.99,163.9,290.156,168.562,282.06,168.562z"/>
		</g>
		<g>
			<path fill="#FFFFFF" d="M314.622,168.52c-1.805,0-3.376-0.878-4.312-2.409l-4.928-7.467v5.107c0,2.642-2.342,4.559-5.569,4.559
				s-5.569-1.917-5.569-4.559v-27.345c0-2.66,2.29-4.517,5.569-4.517s5.569,1.857,5.569,4.517v2.839l3.969-5.401
				c0.89-1.25,2.248-1.955,3.798-1.955c2.77,0,5.989,2.469,5.989,5.653c0,1.057-0.314,1.997-0.934,2.793l-6.268,7.845l8.018,12.212
				c0.513,0.742,0.783,1.625,0.783,2.559C320.738,165.865,317.823,168.52,314.622,168.52z M299.914,148.938v5.519
				c0.102-0.256,0.241-0.497,0.415-0.715l2.271-2.86c0.044-0.056,0.091-0.111,0.14-0.163c-0.359,0.026-0.72-0.018-1.075-0.135
				C300.849,150.316,300.218,149.703,299.914,148.938z M304.819,149.81c0.042,0,0.083,0,0.125,0.002
				c0.65,0.029,1.262,0.279,1.741,0.697l-0.616-0.938c-0.224-0.341-0.367-0.717-0.429-1.103l-0.808,1.1
				c-0.064,0.087-0.132,0.169-0.204,0.248C304.691,149.812,304.755,149.81,304.819,149.81z"/>
		</g>
		<g>
			<path fill="#FFFFFF" d="M323.036,168.31c-3.227,0-5.569-1.917-5.569-4.559v-27.345c0-2.66,2.29-4.517,5.569-4.517
				s5.569,1.857,5.569,4.517v27.345C328.605,166.392,326.263,168.31,323.036,168.31z"/>
		</g>
		<g>
			<path fill="#FFFFFF" d="M357.071,168.31c-2.346,0-4.062-1.198-4.592-3.205l-0.995-3.485h-5.357l-1.012,3.541
				c-0.515,1.951-2.231,3.149-4.577,3.149c-3.035,0-6.284-2.052-6.284-5.106c0-0.42,0.086-0.773,0.156-1.056
				c0.013-0.052,0.037-0.145,0.053-0.196l8.119-26.461c0.701-2.335,3.137-3.854,6.202-3.854c3.138,0,5.532,1.483,6.248,3.871
				l8.114,26.444c0.013,0.043,0.025,0.086,0.036,0.129c0.075,0.282,0.173,0.649,0.173,1.124
				C363.355,166.258,360.106,168.31,357.071,168.31z M342.42,155.345l-0.443,1.444c0.25-0.252,0.547-0.457,0.875-0.6
				C342.659,155.931,342.514,155.645,342.42,155.345z M354.727,156.175c0.339,0.144,0.646,0.352,0.904,0.611l-0.463-1.508
				C355.077,155.597,354.929,155.901,354.727,156.175z M348.784,138.745c0.516,0,1.007,0.139,1.431,0.387l-0.519-1.691
				c-0.176-0.064-0.492-0.137-0.912-0.137c-0.398,0-0.7,0.07-0.87,0.133l-0.511,1.666
				C347.815,138.874,348.288,138.745,348.784,138.745z"/>
		</g>
		<g>
			<path fill="#FFFFFF" d="M380.337,168.52c-1.68,0-3.189-0.902-3.962-2.361l-3.687-6.445l-3.686,6.488
				c-0.835,1.438-2.354,2.318-3.979,2.318c-2.677,0-6.411-2.119-6.411-5.569c0-0.766,0.228-1.547,0.696-2.389
				c0.019-0.035,0.04-0.069,0.061-0.104l6.382-10.404l-6.151-10.35c-0.521-0.871-0.776-1.732-0.776-2.626
				c0-3.231,3.271-5.401,6.327-5.401c1.837,0,3.409,0.979,4.313,2.685l3.216,5.795l3.244-5.843c1.285-2.189,3.06-2.636,4.328-2.636
				c3.056,0,6.327,2.17,6.327,5.401c0,0.894-0.256,1.755-0.781,2.634l-6.146,10.342l6.382,10.404
				c0.021,0.034,0.041,0.069,0.061,0.104c0.434,0.778,0.653,1.582,0.653,2.389C386.748,166.138,383.363,168.52,380.337,168.52z
				 M372.681,151.155c0.404,0,0.796,0.086,1.153,0.245c-0.459-0.869-0.437-1.918,0.07-2.771l0.062-0.106
				c-0.392,0.2-0.831,0.309-1.286,0.309l0,0c-0.432,0-0.85-0.098-1.226-0.278l0.045,0.076c0.502,0.844,0.528,1.883,0.083,2.747
				c0.341-0.143,0.712-0.22,1.094-0.221C372.678,151.155,372.68,151.155,372.681,151.155z"/>
		</g>
		<g>
			<path fill="#FFFFFF" d="M399.901,168.31c-3.227,0-5.569-1.917-5.569-4.559v-17.933c-2.312-0.262-4.123-2.402-4.123-4.995
				c0-1.727,0.857-3.357,2.248-4.293l4.835-3.687c0.828-0.68,1.83-1.039,2.904-1.039c2.536,0,5.274,1.759,5.274,4.602v27.345
				C405.471,166.392,403.128,168.31,399.901,168.31z M398.698,138.9c0.502,0.322,0.886,0.792,1.103,1.338v-2.18L398.698,138.9z"/>
		</g>
		<g>
			<path fill="#FFFFFF" d="M416.813,168.562c-7.938,0-12.679-4.661-12.679-12.468v-11.736c0-7.807,4.74-12.468,12.679-12.468
				c7.965,0,12.72,4.661,12.72,12.468v11.736C429.533,163.9,424.778,168.562,416.813,168.562z M415.273,154.812v1.282
				c0,2.003,0.579,2.003,1.54,2.003c0.918,0,1.581,0,1.581-2.003v-1.272C417.421,155.133,416.242,155.127,415.273,154.812z
				 M416.854,149.389c-0.42,0-0.899,0.457-0.899,0.857c0,0.387,0.513,0.9,0.899,0.9c0.368-0.009,0.858-0.522,0.858-0.9
				C417.713,149.861,417.239,149.389,416.854,149.389z M416.813,142.354c-0.961,0-1.54,0-1.54,2.003v1.354
				c0.964-0.301,2.152-0.307,3.121-0.009v-1.345C418.395,142.354,417.731,142.354,416.813,142.354z"/>
		</g>
		<g>
			<path fill="#FFFFFF" d="M440.415,168.562c-7.938,0-12.679-4.661-12.679-12.468v-11.736c0-7.807,4.74-12.468,12.679-12.468
				c7.966,0,12.722,4.661,12.722,12.468v11.736C453.137,163.9,448.381,168.562,440.415,168.562z M438.875,154.812v1.282
				c0,2.003,0.579,2.003,1.54,2.003c0.919,0,1.583,0,1.583-2.003v-1.272C441.024,155.133,439.843,155.127,438.875,154.812z
				 M440.458,149.389c-0.42,0-0.899,0.457-0.899,0.857c0,0.387,0.513,0.9,0.899,0.9c0.367-0.01,0.856-0.523,0.856-0.9
				C441.314,149.861,440.842,149.389,440.458,149.389z M440.415,142.354c-0.961,0-1.54,0-1.54,2.003v1.354
				c0.963-0.302,2.152-0.308,3.123-0.009v-1.345C441.998,142.354,441.334,142.354,440.415,142.354z"/>
		</g>
	</g>
</g>
<g>
	<path fill="#9F2050" d="M65.134,16.947c0-2.824,2.432-5.334,5.334-5.334c2.981,0,5.334,2.51,5.334,5.334
		c0,2.981-2.354,5.413-5.334,5.413C67.565,22.36,65.134,19.928,65.134,16.947z M66.703,30.91c0-2.04,2.196-2.981,3.765-2.981
		c2.118,0,3.922,0.941,3.922,2.981c0,10.355,1.02,24.161,1.02,34.594c0,2.667-2.118,4.236-4.942,4.236
		c-2.667,0-4.863-1.569-4.863-4.236C65.604,55.071,66.703,41.265,66.703,30.91z"/>
	<path fill="#9F2050" d="M81.919,15.064c0-1.647,1.491-3.138,3.844-3.138h15.767c9.963,0,17.807,4.785,17.807,17.65v0.471
		c0,12.865-8.08,17.807-18.435,17.807h-8.786v18.199c0,2.118-2.589,3.216-5.099,3.216c-2.589,0-5.099-1.098-5.099-3.216V15.064z
		 M92.117,20.869v18.984h8.786c5.099,0,8.237-2.902,8.237-9.021v-0.941c0-6.119-3.138-9.021-8.237-9.021H92.117z"/>
	<path fill="#9F2050" d="M116.589,65.034c0-0.157,0.079-0.471,0.157-0.785l15.14-49.342c0.706-2.353,3.608-3.452,6.511-3.452
		c2.981,0,5.884,1.099,6.589,3.452l15.14,49.342c0.079,0.314,0.157,0.549,0.157,0.785c0,2.432-3.687,4.236-6.432,4.236
		c-1.726,0-3.06-0.549-3.452-2.04l-2.981-10.433h-17.964l-2.981,10.433c-0.393,1.49-1.726,2.04-3.452,2.04
		C120.276,69.27,116.589,67.544,116.589,65.034z M145.221,48.796l-6.825-24.083l-6.825,24.083H145.221z"/>
	<path fill="#9F2050" d="M163.73,15.064c0-1.647,1.334-3.138,3.295-3.138h15.532c10.276,0,18.591,3.922,18.591,16.395
		c0,9.021-4.393,13.885-10.276,15.689l10.276,19.062c0.314,0.392,0.393,0.941,0.393,1.255c0,2.588-3.374,5.334-6.354,5.334
		c-1.412,0-2.746-0.863-3.53-2.432L180.518,45.58h-6.589v20.474c0,2.118-2.51,3.216-5.099,3.216c-2.51,0-5.099-1.098-5.099-3.216
		V15.064z M173.929,20.869v16.709h8.629c5.099,0,8.394-2.118,8.394-8.315s-3.294-8.394-8.394-8.394H173.929z"/>
	<path fill="#9F2050" d="M238.485,11.926c2.197,0,3.216,2.354,3.216,4.55c0,2.432-1.177,4.628-3.216,4.628h-11.453v44.949
		c0,2.118-2.589,3.216-5.099,3.216c-2.589,0-5.099-1.098-5.099-3.216V21.104h-11.531c-2.04,0-3.216-2.118-3.216-4.628
		c0-2.196,1.02-4.55,3.216-4.55H238.485z"/>
	<path fill="#9F2050" d="M245.306,15.064c0-2.197,2.51-3.138,5.099-3.138c2.51,0,5.099,0.941,5.099,3.138v50.989
		c0,2.118-2.588,3.216-5.099,3.216c-2.589,0-5.099-1.098-5.099-3.216V15.064z"/>
	<path fill="#9F2050" d="M280.841,20.869c-5.256,0-8.237,2.902-8.237,9.021v21.886c0,6.119,2.981,9.021,8.394,9.021
		c7.139,0,7.767-5.099,8.002-8.394c0.156-2.432,2.353-3.216,5.021-3.216c3.529,0,5.177,1.02,5.177,5.021
		c0,9.492-7.766,15.532-18.748,15.532c-9.884,0-18.043-4.864-18.043-17.964V29.891c0-13.101,8.237-17.964,18.121-17.964
		c10.904,0,18.67,5.805,18.67,14.905c0,4.079-1.647,5.021-5.099,5.021c-2.902,0-5.021-0.863-5.099-3.216
		C288.842,26.204,288.293,20.869,280.841,20.869z"/>
	<path fill="#9F2050" d="M304.135,15.064c0-2.197,2.51-3.138,5.099-3.138c2.511,0,5.099,0.941,5.099,3.138v50.989
		c0,2.118-2.588,3.216-5.099,3.216c-2.589,0-5.099-1.098-5.099-3.216V15.064z"/>
	<path fill="#9F2050" d="M321.783,15.064c0-1.647,1.49-3.138,3.844-3.138h15.768c9.962,0,17.807,4.785,17.807,17.65v0.471
		c0,12.865-8.08,17.807-18.435,17.807h-8.786v18.199c0,2.118-2.588,3.216-5.099,3.216c-2.589,0-5.099-1.098-5.099-3.216V15.064z
		 M331.98,20.869v18.984h8.786c5.099,0,8.237-2.902,8.237-9.021v-0.941c0-6.119-3.139-9.021-8.237-9.021H331.98z"/>
	<path fill="#9F2050" d="M356.453,65.034c0-0.157,0.078-0.471,0.157-0.785l15.14-49.342c0.706-2.353,3.608-3.452,6.511-3.452
		c2.981,0,5.884,1.099,6.59,3.452l15.14,49.342c0.078,0.314,0.157,0.549,0.157,0.785c0,2.432-3.688,4.236-6.433,4.236
		c-1.726,0-3.06-0.549-3.452-2.04l-2.98-10.433h-17.964l-2.981,10.433c-0.392,1.49-1.726,2.04-3.451,2.04
		C360.14,69.27,356.453,67.544,356.453,65.034z M385.086,48.796l-6.825-24.083l-6.824,24.083H385.086z"/>
	<path fill="#9F2050" d="M55.569,84.849c-3.688,0-5.779,2.036-5.779,6.329v15.356c0,4.293,2.091,6.329,5.889,6.329
		c5.009,0,5.449-3.577,5.614-5.889c0.11-1.706,1.651-2.256,3.522-2.256c2.477,0,3.632,0.715,3.632,3.522
		c0,6.66-5.449,10.897-13.154,10.897c-6.935,0-12.659-3.412-12.659-12.604V91.178c0-9.191,5.779-12.604,12.714-12.604
		c7.65,0,13.099,4.073,13.099,10.457c0,2.862-1.156,3.522-3.578,3.522c-2.036,0-3.522-0.605-3.577-2.256
		C61.183,88.591,60.797,84.849,55.569,84.849z"/>
	<path fill="#9F2050" d="M69.109,115.835c0-0.11,0.055-0.33,0.11-0.55l10.623-34.619c0.495-1.651,2.532-2.422,4.568-2.422
		c2.092,0,4.128,0.771,4.624,2.422l10.622,34.619c0.055,0.22,0.11,0.385,0.11,0.55c0,1.706-2.587,2.972-4.513,2.972
		c-1.211,0-2.146-0.385-2.422-1.431l-2.091-7.32H78.136l-2.091,7.32c-0.275,1.046-1.211,1.431-2.422,1.431
		C71.696,118.808,69.109,117.597,69.109,115.835z M89.199,104.442L84.41,87.546l-4.788,16.896H89.199z"/>
	<path fill="#9F2050" d="M105.327,118.808c-1.596,0-3.137-0.771-3.137-2.256V80.776c0-1.541,1.761-2.201,3.578-2.201
		c1.761,0,3.578,0.66,3.578,2.201v31.757h13.429c1.431,0,2.146,1.541,2.146,3.137c0,1.541-0.715,3.137-2.146,3.137H105.327z"/>
	<path fill="#9F2050" d="M139.342,84.849c-3.688,0-5.779,2.036-5.779,6.329v15.356c0,4.293,2.091,6.329,5.889,6.329
		c5.009,0,5.449-3.577,5.614-5.889c0.11-1.706,1.651-2.256,3.522-2.256c2.477,0,3.632,0.715,3.632,3.522
		c0,6.66-5.449,10.897-13.154,10.897c-6.935,0-12.659-3.412-12.659-12.604V91.178c0-9.191,5.779-12.604,12.714-12.604
		c7.65,0,13.099,4.073,13.099,10.457c0,2.862-1.156,3.522-3.578,3.522c-2.036,0-3.522-0.605-3.577-2.256
		C144.956,88.591,144.57,84.849,139.342,84.849z"/>
	<path fill="#9F2050" d="M174.788,80.776c0-1.541,1.761-2.201,3.577-2.201c1.761,0,3.578,0.66,3.578,2.201v25.758
		c0,9.191-5.834,12.604-13.209,12.604c-7.43,0-13.209-3.412-13.209-12.604V80.776c0-1.541,1.761-2.201,3.578-2.201
		c1.761,0,3.577,0.66,3.577,2.201v25.758c0,4.293,2.257,6.329,6.054,6.329c3.798,0,6.055-2.036,6.055-6.329V80.776z"/>
	<path fill="#9F2050" d="M190.145,118.808c-1.596,0-3.137-0.771-3.137-2.256V80.776c0-1.541,1.761-2.201,3.578-2.201
		c1.761,0,3.578,0.66,3.578,2.201v31.757h13.429c1.431,0,2.146,1.541,2.146,3.137c0,1.541-0.715,3.137-2.146,3.137H190.145z"/>
	<path fill="#9F2050" d="M209.464,115.835c0-0.11,0.055-0.33,0.11-0.55l10.623-34.619c0.495-1.651,2.532-2.422,4.568-2.422
		c2.092,0,4.128,0.771,4.624,2.422l10.622,34.619c0.055,0.22,0.11,0.385,0.11,0.55c0,1.706-2.587,2.972-4.513,2.972
		c-1.211,0-2.146-0.385-2.422-1.431l-2.091-7.32h-12.604l-2.091,7.32c-0.275,1.046-1.211,1.431-2.422,1.431
		C212.051,118.808,209.464,117.597,209.464,115.835z M229.554,104.442l-4.789-16.896l-4.788,16.896H229.554z"/>
	<path fill="#9F2050" d="M261.093,102.681c0-0.275-0.055-0.55-0.165-0.715l-11.393-19.704c-0.11-0.275-0.166-0.55-0.166-0.716
		c0-1.761,2.807-2.972,4.733-2.972c1.156,0,1.707,0.44,2.202,1.431l8.366,15.906l8.421-15.906c0.495-0.936,0.99-1.431,2.146-1.431
		c1.926,0,4.733,1.21,4.733,2.972c0,0.166,0,0.44-0.166,0.716l-11.338,19.704c-0.109,0.165-0.22,0.44-0.22,0.715v13.87
		c0,1.486-1.761,2.256-3.577,2.256c-1.762,0-3.578-0.771-3.578-2.256V102.681z"/>
	<path fill="#9F2050" d="M304.52,84.849c-3.688,0-5.779,2.036-5.779,6.329v15.356c0,4.293,2.092,6.329,5.725,6.329
		c3.577,0,5.779-2.036,5.779-6.329v-3.248h-4.459c-1.431,0-2.201-1.376-2.201-2.807c0-1.376,0.771-2.807,2.201-2.807h9.356
		c1.432,0,2.257,1.101,2.257,2.312v6.55c0,9.191-5.669,12.604-12.934,12.604c-7.266,0-12.879-3.412-12.879-12.604V91.178
		c0-9.191,5.669-12.604,12.658-12.604c7.596,0,13.154,3.962,13.154,10.567c0,2.752-1.211,3.412-3.577,3.412
		c-1.927,0-3.522-0.55-3.577-2.256C310.078,87.711,309.198,84.849,304.52,84.849z"/>
	<path fill="#9F2050" d="M318.887,115.835c0-0.11,0.056-0.33,0.11-0.55l10.622-34.619c0.496-1.651,2.532-2.422,4.568-2.422
		c2.092,0,4.128,0.771,4.623,2.422l10.623,34.619c0.055,0.22,0.109,0.385,0.109,0.55c0,1.706-2.586,2.972-4.513,2.972
		c-1.211,0-2.146-0.385-2.422-1.431l-2.092-7.32h-12.604l-2.091,7.32c-0.275,1.046-1.211,1.431-2.422,1.431
		C321.474,118.808,318.887,117.597,318.887,115.835z M338.976,104.442l-4.788-16.896l-4.788,16.896H338.976z"/>
	<path fill="#9F2050" d="M370.955,116.551l-11.834-22.125v22.125c0,1.486-1.816,2.256-3.577,2.256c-1.816,0-3.577-0.771-3.577-2.256
		v-35.72c0-1.541,1.761-2.256,3.577-2.256c2.587,0,3.633,0.55,5.339,3.797l10.622,20.529V80.776c0-1.541,1.762-2.201,3.578-2.201
		c1.761,0,3.577,0.66,3.577,2.201v35.775c0,1.486-1.816,2.256-3.577,2.256C373.376,118.808,371.891,118.257,370.955,116.551z"/>
	<path fill="#9F2050" d="M381.083,115.835c0-0.11,0.056-0.33,0.11-0.55l10.622-34.619c0.496-1.651,2.532-2.422,4.568-2.422
		c2.092,0,4.128,0.771,4.623,2.422l10.623,34.619c0.055,0.22,0.109,0.385,0.109,0.55c0,1.706-2.586,2.972-4.513,2.972
		c-1.211,0-2.146-0.385-2.422-1.431l-2.092-7.32h-12.604l-2.091,7.32c-0.275,1.046-1.211,1.431-2.422,1.431
		C383.67,118.808,381.083,117.597,381.083,115.835z M401.172,104.442l-4.788-16.896l-4.788,16.896H401.172z"/>
	<path fill="#9F2050" d="M420.658,115.395c0,1.981-1.706,3.743-3.742,3.743c-2.146,0-3.743-1.761-3.743-3.743
		c0-2.036,1.597-3.742,3.743-3.742C418.952,111.653,420.658,113.359,420.658,115.395z M419.558,105.598
		c0,1.486-1.597,2.092-2.697,2.092c-1.431,0-2.696-0.605-2.696-2.092c0-7.265-0.716-16.952-0.716-24.217
		c0-1.926,1.486-3.027,3.412-3.027c1.871,0,3.468,1.101,3.468,3.027C420.328,88.646,419.558,98.333,419.558,105.598z"/>
</g>
<g>
	<path fill="#9F2050" d="M27.57,136.783c0-1.178,1.346-1.683,2.734-1.683c1.346,0,2.734,0.505,2.734,1.683v19.688
		c0,7.025-4.459,9.634-10.097,9.634c-5.679,0-10.096-2.608-10.096-9.634v-19.688c0-1.178,1.346-1.683,2.734-1.683
		c1.346,0,2.734,0.505,2.734,1.683v19.688c0,3.281,1.725,4.838,4.627,4.838c2.903,0,4.628-1.557,4.628-4.838V136.783z"/>
	<path fill="#9F2050" d="M52.476,164.128l-9.044-16.912v16.912c0,1.136-1.388,1.725-2.734,1.725c-1.389,0-2.735-0.589-2.735-1.725
		v-27.303c0-1.178,1.346-1.725,2.735-1.725c1.977,0,2.776,0.42,4.081,2.903l8.119,15.691v-16.912c0-1.178,1.346-1.683,2.734-1.683
		c1.346,0,2.734,0.505,2.734,1.683v27.345c0,1.136-1.388,1.725-2.734,1.725C54.327,165.853,53.191,165.432,52.476,164.128z"/>
	<path fill="#9F2050" d="M61.27,163.581c0-0.084,0.042-0.252,0.084-0.421l8.119-26.461c0.378-1.262,1.935-1.851,3.492-1.851
		c1.599,0,3.155,0.589,3.534,1.851l8.119,26.461c0.042,0.168,0.084,0.294,0.084,0.421c0,1.304-1.977,2.271-3.449,2.271
		c-0.926,0-1.641-0.294-1.851-1.094l-1.599-5.595h-9.634l-1.599,5.595c-0.21,0.799-0.925,1.094-1.851,1.094
		C63.247,165.853,61.27,164.927,61.27,163.581z M76.625,154.873l-3.66-12.915l-3.66,12.915H76.625z"/>
	<path fill="#9F2050" d="M109.987,154.789c-0.462,0.841-1.178,1.094-1.851,1.094c-0.673,0-1.346-0.252-1.809-1.094l-4.838-9.087
		v18.426c0,1.136-1.388,1.725-2.734,1.725c-1.389,0-2.735-0.589-2.735-1.725v-26.293c0-2.02,1.346-2.734,2.735-2.734
		c1.977,0,2.86,0.42,4.249,2.903l5.175,9.423l5.174-9.423c1.388-2.482,2.313-2.903,4.291-2.903c1.388,0,2.734,0.715,2.734,2.734
		v26.293c0,1.136-1.388,1.725-2.734,1.725c-1.388,0-2.734-0.589-2.734-1.725v-18.09L109.987,154.789z"/>
	<path fill="#9F2050" d="M125.092,156.471v-11.737c0-7.026,4.291-9.634,9.844-9.634c5.553,0,9.886,2.608,9.886,9.634v11.737
		c0,7.025-4.333,9.634-9.886,9.634C129.383,166.105,125.092,163.497,125.092,156.471z M139.353,144.734
		c0-3.324-1.683-4.838-4.417-4.838c-2.777,0-4.375,1.514-4.375,4.838v11.737c0,3.323,1.599,4.838,4.375,4.838
		c2.734,0,4.417-1.515,4.417-4.838V144.734z"/>
	<path fill="#9F2050" d="M166.489,135.101c1.178,0,1.725,1.262,1.725,2.44c0,1.304-0.631,2.482-1.725,2.482h-6.142v24.105
		c0,1.136-1.389,1.725-2.735,1.725c-1.388,0-2.734-0.589-2.734-1.725v-24.105h-6.184c-1.094,0-1.725-1.136-1.725-2.482
		c0-1.178,0.547-2.44,1.725-2.44H166.489z"/>
	<path fill="#9F2050" d="M170.361,156.471v-11.737c0-7.026,4.291-9.634,9.844-9.634c5.553,0,9.886,2.608,9.886,9.634v11.737
		c0,7.025-4.333,9.634-9.886,9.634C174.652,166.105,170.361,163.497,170.361,156.471z M184.623,144.734
		c0-3.324-1.683-4.838-4.417-4.838c-2.777,0-4.375,1.514-4.375,4.838v11.737c0,3.323,1.599,4.838,4.375,4.838
		c2.734,0,4.417-1.515,4.417-4.838V144.734z"/>
	<path fill="#9F2050" d="M215.924,157.649c0-6.311-13.504-4.375-13.504-14.346c0-6.268,5.385-8.414,10.223-8.414
		c2.482,0,7.993,0.589,7.993,3.365c0,0.968-0.673,2.903-2.188,2.903c-1.304,0-2.271-1.599-5.805-1.599
		c-3.029,0-4.754,1.22-4.754,3.239c0,5.217,13.504,3.408,13.504,14.303c0,6.016-4.207,9.129-10.012,9.129
		c-5.511,0-9.718-2.776-9.718-5.216c0-1.178,1.094-2.945,2.398-2.945c1.725,0,2.86,3.239,7.151,3.239
		C213.736,161.309,215.924,160.173,215.924,157.649z"/>
	<path fill="#9F2050" d="M239.736,136.783c0-1.178,1.346-1.683,2.734-1.683c1.346,0,2.734,0.505,2.734,1.683v19.688
		c0,7.025-4.459,9.634-10.097,9.634c-5.679,0-10.096-2.608-10.096-9.634v-19.688c0-1.178,1.346-1.683,2.734-1.683
		c1.346,0,2.734,0.505,2.734,1.683v19.688c0,3.281,1.725,4.838,4.627,4.838c2.903,0,4.628-1.557,4.628-4.838V136.783z"/>
	<path fill="#9F2050" d="M255.176,161.057h12.116c1.094,0,1.725,1.262,1.725,2.398s-0.631,2.398-1.725,2.398h-17.459
		c-1.136,0-1.641-0.631-1.641-1.515c0-0.547,0.21-1.262,0.589-1.893l12.494-22.548h-10.643c-1.094,0-1.683-1.136-1.683-2.398
		c0-1.178,0.505-2.398,1.683-2.398h15.986c1.094,0,1.641,0.631,1.641,1.472c0,0.589-0.21,1.262-0.631,1.978L255.176,161.057z"/>
	<path fill="#9F2050" d="M286.687,136.783c0-1.178,1.346-1.683,2.734-1.683c1.346,0,2.734,0.505,2.734,1.683v19.688
		c0,7.025-4.459,9.634-10.097,9.634c-5.679,0-10.097-2.608-10.097-9.634v-19.688c0-1.178,1.347-1.683,2.735-1.683
		c1.346,0,2.734,0.505,2.734,1.683v19.688c0,3.281,1.725,4.838,4.627,4.838c2.903,0,4.628-1.557,4.628-4.838V136.783z"/>
	<path fill="#9F2050" d="M297.08,136.783c0-1.178,1.346-1.683,2.734-1.683c1.346,0,2.734,0.505,2.734,1.683v11.485l9.087-12.368
		c0.42-0.589,0.925-0.799,1.515-0.799c1.388,0,3.154,1.43,3.154,2.818c0,0.294-0.042,0.673-0.336,1.052l-7.53,9.423l9.171,13.967
		c0.21,0.294,0.294,0.631,0.294,0.968c0,1.346-1.683,2.734-3.281,2.734c-0.715,0-1.43-0.294-1.893-1.052l-7.909-11.99l-2.271,2.861
		v8.246c0,1.136-1.389,1.725-2.734,1.725c-1.389,0-2.734-0.589-2.734-1.725V136.783z"/>
	<path fill="#9F2050" d="M320.302,136.783c0-1.178,1.346-1.683,2.734-1.683c1.346,0,2.734,0.505,2.734,1.683v27.345
		c0,1.136-1.389,1.725-2.734,1.725c-1.389,0-2.734-0.589-2.734-1.725V136.783z"/>
	<path fill="#9F2050" d="M337.089,163.581c0-0.084,0.042-0.252,0.084-0.421l8.119-26.461c0.379-1.262,1.936-1.851,3.491-1.851
		c1.599,0,3.155,0.589,3.534,1.851l8.12,26.461c0.041,0.168,0.084,0.294,0.084,0.421c0,1.304-1.977,2.271-3.45,2.271
		c-0.926,0-1.641-0.294-1.852-1.094l-1.599-5.595h-9.633l-1.599,5.595c-0.211,0.799-0.926,1.094-1.852,1.094
		C339.066,165.853,337.089,164.927,337.089,163.581z M352.444,154.873l-3.66-12.915l-3.659,12.915H352.444z"/>
	<path fill="#9F2050" d="M372.682,154.368l-6.143,10.812c-0.295,0.505-0.842,0.884-1.514,0.884c-1.473,0-3.576-1.22-3.576-2.734
		c0-0.294,0.125-0.631,0.336-1.01l7.277-11.863l-7.025-11.821c-0.252-0.421-0.379-0.799-0.379-1.178
		c0-1.473,1.936-2.566,3.492-2.566c0.842,0,1.432,0.463,1.809,1.178l5.723,10.307l5.721-10.307c0.42-0.715,0.967-1.178,1.852-1.178
		c1.557,0,3.49,1.094,3.49,2.566c0,0.378-0.125,0.757-0.377,1.178l-7.025,11.821l7.277,11.863c0.211,0.378,0.295,0.715,0.295,1.01
		c0,1.514-2.062,2.734-3.576,2.734c-0.674,0-1.221-0.379-1.473-0.884L372.682,154.368z"/>
	<path fill="#9F2050" d="M397.166,141.663l-1.346,1.346c-0.336,0.294-0.715,0.379-1.01,0.379c-1.051,0-1.768-1.094-1.768-2.188
		c0-0.757,0.379-1.556,1.053-1.977l4.963-3.786c0.295-0.252,0.674-0.421,1.137-0.421c1.137,0,2.439,0.673,2.439,1.767v27.345
		c0,1.136-1.389,1.725-2.734,1.725c-1.389,0-2.734-0.589-2.734-1.725V141.663z"/>
	<path fill="#9F2050" d="M406.969,156.471v-11.737c0-7.026,4.291-9.634,9.844-9.634s9.887,2.608,9.887,9.634v11.737
		c0,7.025-4.334,9.634-9.887,9.634S406.969,163.497,406.969,156.471z M421.23,144.734c0-3.324-1.684-4.838-4.418-4.838
		c-2.775,0-4.375,1.514-4.375,4.838v11.737c0,3.323,1.6,4.838,4.375,4.838c2.734,0,4.418-1.515,4.418-4.838V144.734z
		 M418.791,150.624c0,1.136-0.758,1.978-1.936,1.978c-1.221,0-1.979-0.841-1.979-1.978c0-1.178,0.758-1.935,1.979-1.935
		C418.033,148.688,418.791,149.446,418.791,150.624z"/>
	<path fill="#9F2050" d="M430.572,156.471v-11.737c0-7.026,4.291-9.634,9.844-9.634s9.885,2.608,9.885,9.634v11.737
		c0,7.025-4.332,9.634-9.885,9.634S430.572,163.497,430.572,156.471z M444.832,144.734c0-3.324-1.682-4.838-4.416-4.838
		c-2.777,0-4.375,1.514-4.375,4.838v11.737c0,3.323,1.598,4.838,4.375,4.838c2.734,0,4.416-1.515,4.416-4.838V144.734z
		 M442.393,150.624c0,1.136-0.758,1.978-1.936,1.978c-1.219,0-1.977-0.841-1.977-1.978c0-1.178,0.758-1.935,1.977-1.935
		C441.635,148.688,442.393,149.446,442.393,150.624z"/>
</g>
</svg>
