<?xml version="1.0" encoding="utf-8"?>
<!-- Generator: Adobe Illustrator 16.0.0, SVG Export Plug-In . SVG Version: 6.00 Build 0)  -->
<!DOCTYPE svg PUBLIC "-//W3C//DTD SVG 1.1//EN" "http://www.w3.org/Graphics/SVG/1.1/DTD/svg11.dtd">
<svg version="1.1" id="Layer_1" xmlns="http://www.w3.org/2000/svg" xmlns:xlink="http://www.w3.org/1999/xlink" x="0px" y="0px"
	 width="498.333px" height="54.475px" viewBox="0 0 498.333 54.475" enable-background="new 0 0 498.333 54.475"
	 xml:space="preserve">
<g>
	
		<path fill="none" stroke="#FFFFFF" stroke-width="2.8346" stroke-linecap="round" stroke-linejoin="round" stroke-miterlimit="10" d="
		M4.899,40.029V7.861h8.537c6.733,0,11.09,2.684,11.09,9.989c0,6.821-3.696,10.166-10.254,10.166h-3.124v12.014H4.899z
		 M12.425,22.823c3.74,0,5.721-0.836,5.721-5.017c0-4.137-2.377-4.708-5.897-4.708h-1.1v9.725H12.425z"/>
	
		<path fill="none" stroke="#FFFFFF" stroke-width="2.8346" stroke-linecap="round" stroke-linejoin="round" stroke-miterlimit="10" d="
		M41.115,40.029v-1.937h-0.088c-1.276,1.672-3.521,2.641-5.677,2.641c-6.161,0-9.638-5.589-9.638-11.266
		c0-5.545,3.521-11.045,9.549-11.045c2.157,0,4.401,0.924,5.854,2.64v-1.98h5.853v20.947H41.115z M36.714,23.703
		c-3.08,0-4.928,3.036-4.928,5.853s1.848,5.853,4.928,5.853c3.081,0,4.974-3.037,4.974-5.853S39.795,23.703,36.714,23.703z"/>
	
		<path fill="none" stroke="#FFFFFF" stroke-width="2.8346" stroke-linecap="round" stroke-linejoin="round" stroke-miterlimit="10" d="
		M57.66,21.283c1.231-1.848,2.992-2.86,5.236-2.86c0.836,0,1.672,0.22,2.464,0.484l-0.748,5.545
		c-0.704-0.484-1.54-0.748-2.464-0.748c-4.137,0-4.532,3.652-4.532,6.909v9.417h-5.985V19.082h5.985v2.201H57.66z"/>
	
		<path fill="none" stroke="#FFFFFF" stroke-width="2.8346" stroke-linecap="round" stroke-linejoin="round" stroke-miterlimit="10" d="
		M69.584,40.029V24.143H67.56v-5.061h2.024v-7.085h5.984v7.085h3.652v5.061h-3.652v15.886H69.584z"/>
	
		<path fill="none" stroke="#FFFFFF" stroke-width="2.8346" stroke-linecap="round" stroke-linejoin="round" stroke-miterlimit="10" d="
		M85.732,13.846c-1.937,0-3.521-1.584-3.521-3.521c0-1.937,1.584-3.564,3.521-3.564c1.98,0,3.564,1.628,3.564,3.564
		C89.297,12.261,87.713,13.846,85.732,13.846z M82.784,40.029V19.082h5.94v20.947H82.784z"/>
	
		<path fill="none" stroke="#FFFFFF" stroke-width="2.8346" stroke-linecap="round" stroke-linejoin="round" stroke-miterlimit="10" d="
		M103.644,23.439c-3.389,0-5.281,3.168-5.281,6.249c0,3.256,2.068,5.985,5.501,5.985c1.584,0,3.08-0.792,4.181-1.98v5.721
		c-1.629,0.924-3.345,1.32-5.193,1.32c-6.16,0-10.562-5.104-10.562-11.09c0-6.249,4.577-11.221,10.87-11.221
		c1.672,0,3.433,0.396,4.885,1.32v5.765C106.724,24.231,105.447,23.439,103.644,23.439z"/>
	
		<path fill="none" stroke="#FFFFFF" stroke-width="2.8346" stroke-linecap="round" stroke-linejoin="round" stroke-miterlimit="10" d="
		M114.995,13.846c-1.937,0-3.521-1.584-3.521-3.521c0-1.937,1.584-3.564,3.521-3.564c1.98,0,3.564,1.628,3.564,3.564
		C118.56,12.261,116.976,13.846,114.995,13.846z M112.047,40.029V19.082h5.94v20.947H112.047z"/>
	
		<path fill="none" stroke="#FFFFFF" stroke-width="2.8346" stroke-linecap="round" stroke-linejoin="round" stroke-miterlimit="10" d="
		M134.401,18.422c5.94,0,9.549,5.544,9.549,11.045c0,5.721-3.477,11.266-9.682,11.266c-2.111,0-4.356-0.968-5.588-2.685h-0.045
		v13.158h-5.984V19.082h5.984v1.937C130,19.39,132.201,18.422,134.401,18.422z M132.949,23.703c-3.037,0-4.929,3.036-4.929,5.853
		s1.892,5.853,4.929,5.853c3.08,0,4.973-3.037,4.973-5.853S136.029,23.703,132.949,23.703z"/>
	
		<path fill="none" stroke="#FFFFFF" stroke-width="2.8346" stroke-linecap="round" stroke-linejoin="round" stroke-miterlimit="10" d="
		M162.915,40.029v-1.937h-0.088c-1.276,1.672-3.521,2.641-5.677,2.641c-6.161,0-9.638-5.589-9.638-11.266
		c0-5.545,3.521-11.045,9.549-11.045c2.156,0,4.401,0.924,5.854,2.64v-1.98h5.853v20.947H162.915z M158.515,23.703
		c-3.081,0-4.93,3.036-4.93,5.853s1.849,5.853,4.93,5.853c3.08,0,4.973-3.037,4.973-5.853S161.595,23.703,158.515,23.703z"/>
	
		<path fill="none" stroke="#FFFFFF" stroke-width="2.8346" stroke-linecap="round" stroke-linejoin="round" stroke-miterlimit="10" d="
		M179.46,21.019c1.275-1.892,3.344-2.596,5.456-2.596c5.633,0,7.262,3.96,7.262,8.801v12.806h-5.941v-11.09
		c0-2.508,0.088-5.765-3.256-5.765c-3.565,0-3.565,3.96-3.565,6.513v10.341h-5.984V19.082h5.984v1.937H179.46z"/>
	
		<path fill="none" stroke="#FFFFFF" stroke-width="2.8346" stroke-linecap="round" stroke-linejoin="round" stroke-miterlimit="10" d="
		M196.973,40.029V24.143h-2.024v-5.061h2.024v-7.085h5.984v7.085h3.652v5.061h-3.652v15.886H196.973z"/>
	
		<path fill="none" stroke="#FFFFFF" stroke-width="2.8346" stroke-linecap="round" stroke-linejoin="round" stroke-miterlimit="10" d="
		M218.932,36.157c1.98,0,3.212-1.188,4.005-2.86l5.5,0.88c-1.452,4.181-5.104,6.557-9.505,6.557c-6.469,0-10.43-4.621-10.43-10.958
		c0-6.381,3.345-11.354,10.165-11.354c6.865,0,9.902,5.061,9.902,11.354v0.748h-13.774
		C214.795,33.164,215.851,36.157,218.932,36.157z M218.976,22.603c-2.376,0-3.696,2.024-4.005,4.225h7.966
		C222.672,24.671,221.308,22.603,218.976,22.603z"/>
	
		<path fill="none" stroke="#FFFFFF" stroke-width="2.8346" stroke-linecap="round" stroke-linejoin="round" stroke-miterlimit="10" d="
		M249.249,19.082l4.973,11.926l5.413-11.926h6.645l-15.226,32.125h-6.557l6.864-14.39l-8.889-17.735H249.249z"/>
	
		<path fill="none" stroke="#FFFFFF" stroke-width="2.8346" stroke-linecap="round" stroke-linejoin="round" stroke-miterlimit="10" d="
		M281.637,40.029v-1.937h-0.088c-1.276,1.672-3.521,2.641-5.677,2.641c-6.161,0-9.638-5.589-9.638-11.266
		c0-5.545,3.521-11.045,9.549-11.045c2.157,0,4.401,0.924,5.854,2.64v-1.98h5.853v20.947H281.637z M277.235,23.703
		c-3.08,0-4.928,3.036-4.928,5.853s1.848,5.853,4.928,5.853c3.081,0,4.974-3.037,4.974-5.853S280.316,23.703,277.235,23.703z"/>
	
		<path fill="none" stroke="#FFFFFF" stroke-width="2.8346" stroke-linecap="round" stroke-linejoin="round" stroke-miterlimit="10" d="
		M310.502,21.283c1.231-1.848,2.992-2.86,5.236-2.86c0.836,0,1.672,0.22,2.464,0.484l-0.748,5.545
		c-0.704-0.484-1.54-0.748-2.464-0.748c-4.137,0-4.532,3.652-4.532,6.909v9.417h-5.985V19.082h5.985v2.201H310.502z"/>
	
		<path fill="none" stroke="#FFFFFF" stroke-width="2.8346" stroke-linecap="round" stroke-linejoin="round" stroke-miterlimit="10" d="
		M329.6,36.157c1.98,0,3.212-1.188,4.005-2.86l5.5,0.88c-1.452,4.181-5.104,6.557-9.505,6.557c-6.469,0-10.43-4.621-10.43-10.958
		c0-6.381,3.345-11.354,10.165-11.354c6.865,0,9.902,5.061,9.902,11.354v0.748h-13.774C325.463,33.164,326.519,36.157,329.6,36.157z
		 M329.644,22.603c-2.376,0-3.696,2.024-4.005,4.225h7.966C333.34,24.671,331.976,22.603,329.644,22.603z"/>
	
		<path fill="none" stroke="#FFFFFF" stroke-width="2.8346" stroke-linecap="round" stroke-linejoin="round" stroke-miterlimit="10" d="
		M353.316,51.207c-5.104,0-10.297-3.125-10.562-8.713h6.293c0.309,2.244,1.893,3.697,4.137,3.697c4.225,0,4.312-3.741,4.312-6.865
		v-1.364h-0.088c-1.276,1.672-3.521,2.772-5.721,2.772c-6.117,0-9.417-5.413-9.417-11.001c0-5.765,3.477-11.31,9.726-11.31
		c2.067,0,4.225,1.056,5.412,2.684h0.088v-2.024h5.985v19.671C363.482,45.574,361.149,51.207,353.316,51.207z M353.272,23.703
		c-3.08,0-4.929,3.08-4.929,5.896s1.849,5.809,4.929,5.809c3.081,0,4.929-2.993,4.929-5.809S356.354,23.703,353.272,23.703z"/>
	
		<path fill="none" stroke="#FFFFFF" stroke-width="2.8346" stroke-linecap="round" stroke-linejoin="round" stroke-miterlimit="10" d="
		M371.093,13.846c-1.937,0-3.521-1.584-3.521-3.521c0-1.937,1.584-3.564,3.521-3.564c1.98,0,3.564,1.628,3.564,3.564
		C374.657,12.261,373.073,13.846,371.093,13.846z M368.145,40.029V19.082h5.94v20.947H368.145z"/>
	
		<path fill="none" stroke="#FFFFFF" stroke-width="2.8346" stroke-linecap="round" stroke-linejoin="round" stroke-miterlimit="10" d="
		M385.835,22.603c-0.968,0-1.937,0.749-1.937,1.761c0,1.54,2.156,1.98,4.312,2.904c2.157,0.968,4.313,2.42,4.313,6.029
		c0,4.665-3.785,7.437-8.186,7.437c-2.816,0-5.545-1.32-7.35-3.521l2.729-3.521c1.145,1.276,2.685,2.42,4.445,2.42
		c1.32,0,2.376-0.88,2.376-2.245c0-1.848-2.112-2.288-4.181-3.168c-2.112-0.924-4.181-2.157-4.181-5.501
		c0-3.917,2.729-6.777,6.646-6.777c2.2,0,5.017,0.66,6.732,2.156l-2.552,3.477C388.167,23.219,387.023,22.603,385.835,22.603z"/>
	
		<path fill="none" stroke="#FFFFFF" stroke-width="2.8346" stroke-linecap="round" stroke-linejoin="round" stroke-miterlimit="10" d="
		M396.22,40.029V24.143h-2.024v-5.061h2.024v-7.085h5.984v7.085h3.652v5.061h-3.652v15.886H396.22z"/>
	
		<path fill="none" stroke="#FFFFFF" stroke-width="2.8346" stroke-linecap="round" stroke-linejoin="round" stroke-miterlimit="10" d="
		M414.746,21.283c1.231-1.848,2.992-2.86,5.236-2.86c0.836,0,1.672,0.22,2.464,0.484l-0.748,5.545
		c-0.704-0.484-1.54-0.748-2.464-0.748c-4.137,0-4.532,3.652-4.532,6.909v9.417h-5.985V19.082h5.985v2.201H414.746z"/>
	
		<path fill="none" stroke="#FFFFFF" stroke-width="2.8346" stroke-linecap="round" stroke-linejoin="round" stroke-miterlimit="10" d="
		M438.376,40.029v-1.937h-0.088c-1.276,1.672-3.521,2.641-5.677,2.641c-6.161,0-9.638-5.589-9.638-11.266
		c0-5.545,3.521-11.045,9.549-11.045c2.156,0,4.401,0.924,5.854,2.64v-1.98h5.853v20.947H438.376z M433.976,23.703
		c-3.081,0-4.93,3.036-4.93,5.853s1.849,5.853,4.93,5.853c3.08,0,4.973-3.037,4.973-5.853S437.056,23.703,433.976,23.703z"/>
	
		<path fill="none" stroke="#FFFFFF" stroke-width="2.8346" stroke-linecap="round" stroke-linejoin="round" stroke-miterlimit="10" d="
		M463.149,38.049c-1.232,1.716-3.477,2.685-5.633,2.685c-6.16,0-9.637-5.589-9.637-11.266c0-5.545,3.521-11.045,9.549-11.045
		c2.156,0,4.4,0.924,5.721,2.596h0.088V3.856h5.941v36.173h-5.941v-1.98H463.149z M458.881,23.703c-3.08,0-4.929,3.036-4.929,5.853
		s1.849,5.853,4.929,5.853c3.081,0,4.929-3.037,4.929-5.853S461.962,23.703,458.881,23.703z"/>
	
		<path fill="none" stroke="#FFFFFF" stroke-width="2.8346" stroke-linecap="round" stroke-linejoin="round" stroke-miterlimit="10" d="
		M483.699,40.733c-6.558,0-11.002-4.665-11.002-11.134c0-6.557,4.489-11.177,11.002-11.177S494.7,23.043,494.7,29.6
		C494.7,36.069,490.256,40.733,483.699,40.733z M483.699,35.409c3.08,0,4.929-2.993,4.929-5.809c0-2.904-1.849-5.896-4.929-5.896
		c-3.081,0-4.929,2.992-4.929,5.896C478.771,32.416,480.618,35.409,483.699,35.409z"/>
</g>
<g>
	<path fill="#9D2250" d="M4.876,39.963V7.795h8.537c6.733,0,11.09,2.684,11.09,9.989c0,6.821-3.696,10.166-10.254,10.166h-3.124
		v12.014H4.876z M12.401,22.757c3.74,0,5.721-0.836,5.721-5.017c0-4.137-2.377-4.708-5.897-4.708h-1.1v9.725H12.401z"/>
	<path fill="#9D2250" d="M41.092,39.963v-1.937h-0.088c-1.276,1.672-3.521,2.641-5.677,2.641c-6.161,0-9.638-5.589-9.638-11.266
		c0-5.545,3.521-11.045,9.549-11.045c2.157,0,4.401,0.924,5.854,2.64v-1.98h5.853v20.947H41.092z M36.69,23.637
		c-3.08,0-4.928,3.036-4.928,5.853s1.848,5.853,4.928,5.853c3.081,0,4.974-3.037,4.974-5.853S39.771,23.637,36.69,23.637z"/>
	<path fill="#9D2250" d="M57.637,21.217c1.231-1.848,2.992-2.86,5.236-2.86c0.836,0,1.672,0.22,2.464,0.484l-0.748,5.545
		c-0.704-0.484-1.54-0.748-2.464-0.748c-4.137,0-4.532,3.652-4.532,6.909v9.417h-5.985V19.016h5.985v2.201H57.637z"/>
	<path fill="#9D2250" d="M69.561,39.963V24.077h-2.024v-5.061h2.024v-7.085h5.984v7.085h3.652v5.061h-3.652v15.886H69.561z"/>
	<path fill="#9D2250" d="M85.709,13.78c-1.937,0-3.521-1.584-3.521-3.521c0-1.937,1.584-3.564,3.521-3.564
		c1.98,0,3.564,1.628,3.564,3.564C89.273,12.195,87.689,13.78,85.709,13.78z M82.761,39.963V19.016h5.94v20.947H82.761z"/>
	<path fill="#9D2250" d="M103.62,23.373c-3.389,0-5.281,3.168-5.281,6.249c0,3.256,2.068,5.985,5.501,5.985
		c1.584,0,3.08-0.792,4.181-1.98v5.721c-1.629,0.924-3.345,1.32-5.193,1.32c-6.16,0-10.562-5.104-10.562-11.09
		c0-6.249,4.577-11.221,10.87-11.221c1.672,0,3.433,0.396,4.885,1.32v5.765C106.7,24.165,105.424,23.373,103.62,23.373z"/>
	<path fill="#9D2250" d="M114.972,13.78c-1.937,0-3.521-1.584-3.521-3.521c0-1.937,1.584-3.564,3.521-3.564
		c1.98,0,3.564,1.628,3.564,3.564C118.536,12.195,116.952,13.78,114.972,13.78z M112.023,39.963V19.016h5.94v20.947H112.023z"/>
	<path fill="#9D2250" d="M134.378,18.356c5.94,0,9.549,5.544,9.549,11.045c0,5.721-3.477,11.266-9.682,11.266
		c-2.111,0-4.356-0.968-5.588-2.685h-0.045v13.158h-5.984V19.016h5.984v1.937C129.977,19.324,132.178,18.356,134.378,18.356z
		 M132.926,23.637c-3.037,0-4.929,3.036-4.929,5.853s1.892,5.853,4.929,5.853c3.08,0,4.973-3.037,4.973-5.853
		S136.006,23.637,132.926,23.637z"/>
	<path fill="#9D2250" d="M162.892,39.963v-1.937h-0.088c-1.276,1.672-3.521,2.641-5.677,2.641c-6.161,0-9.638-5.589-9.638-11.266
		c0-5.545,3.521-11.045,9.549-11.045c2.156,0,4.401,0.924,5.854,2.64v-1.98h5.853v20.947H162.892z M158.491,23.637
		c-3.081,0-4.93,3.036-4.93,5.853s1.849,5.853,4.93,5.853c3.08,0,4.973-3.037,4.973-5.853S161.571,23.637,158.491,23.637z"/>
	<path fill="#9D2250" d="M179.437,20.953c1.275-1.892,3.344-2.596,5.456-2.596c5.633,0,7.262,3.96,7.262,8.801v12.806h-5.941v-11.09
		c0-2.508,0.088-5.765-3.256-5.765c-3.565,0-3.565,3.96-3.565,6.513v10.341h-5.984V19.016h5.984v1.937H179.437z"/>
	<path fill="#9D2250" d="M196.949,39.963V24.077h-2.024v-5.061h2.024v-7.085h5.984v7.085h3.652v5.061h-3.652v15.886H196.949z"/>
	<path fill="#9D2250" d="M218.908,36.091c1.98,0,3.212-1.188,4.005-2.86l5.5,0.88c-1.452,4.181-5.104,6.557-9.505,6.557
		c-6.469,0-10.43-4.621-10.43-10.958c0-6.381,3.345-11.354,10.165-11.354c6.865,0,9.902,5.061,9.902,11.354v0.748h-13.774
		C214.771,33.098,215.827,36.091,218.908,36.091z M218.952,22.537c-2.376,0-3.696,2.024-4.005,4.225h7.966
		C222.648,24.605,221.284,22.537,218.952,22.537z"/>
	<path fill="#9D2250" d="M249.226,19.016l4.973,11.926l5.413-11.926h6.645L251.03,51.141h-6.557l6.864-14.39l-8.889-17.735H249.226z
		"/>
	<path fill="#9D2250" d="M281.613,39.963v-1.937h-0.088c-1.276,1.672-3.521,2.641-5.677,2.641c-6.161,0-9.638-5.589-9.638-11.266
		c0-5.545,3.521-11.045,9.549-11.045c2.157,0,4.401,0.924,5.854,2.64v-1.98h5.853v20.947H281.613z M277.212,23.637
		c-3.08,0-4.928,3.036-4.928,5.853s1.848,5.853,4.928,5.853c3.081,0,4.974-3.037,4.974-5.853S280.293,23.637,277.212,23.637z"/>
	<path fill="#9D2250" d="M310.479,21.217c1.231-1.848,2.992-2.86,5.236-2.86c0.836,0,1.672,0.22,2.464,0.484l-0.748,5.545
		c-0.704-0.484-1.54-0.748-2.464-0.748c-4.137,0-4.532,3.652-4.532,6.909v9.417h-5.985V19.016h5.985v2.201H310.479z"/>
	<path fill="#9D2250" d="M329.576,36.091c1.98,0,3.212-1.188,4.005-2.86l5.5,0.88c-1.452,4.181-5.104,6.557-9.505,6.557
		c-6.469,0-10.43-4.621-10.43-10.958c0-6.381,3.345-11.354,10.165-11.354c6.865,0,9.902,5.061,9.902,11.354v0.748h-13.774
		C325.439,33.098,326.495,36.091,329.576,36.091z M329.62,22.537c-2.376,0-3.696,2.024-4.005,4.225h7.966
		C333.316,24.605,331.952,22.537,329.62,22.537z"/>
	<path fill="#9D2250" d="M353.293,51.141c-5.104,0-10.297-3.125-10.562-8.713h6.293c0.309,2.244,1.893,3.697,4.137,3.697
		c4.225,0,4.312-3.741,4.312-6.865v-1.364h-0.088c-1.276,1.672-3.521,2.772-5.721,2.772c-6.117,0-9.417-5.413-9.417-11.001
		c0-5.765,3.477-11.31,9.726-11.31c2.067,0,4.225,1.056,5.412,2.684h0.088v-2.024h5.985v19.671
		C363.459,45.508,361.126,51.141,353.293,51.141z M353.249,23.637c-3.08,0-4.929,3.08-4.929,5.896s1.849,5.809,4.929,5.809
		c3.081,0,4.929-2.993,4.929-5.809S356.33,23.637,353.249,23.637z"/>
	<path fill="#9D2250" d="M371.069,13.78c-1.937,0-3.521-1.584-3.521-3.521c0-1.937,1.584-3.564,3.521-3.564
		c1.98,0,3.564,1.628,3.564,3.564C374.634,12.195,373.05,13.78,371.069,13.78z M368.121,39.963V19.016h5.94v20.947H368.121z"/>
	<path fill="#9D2250" d="M385.812,22.537c-0.968,0-1.937,0.749-1.937,1.761c0,1.54,2.156,1.98,4.312,2.904
		c2.157,0.968,4.313,2.42,4.313,6.029c0,4.665-3.785,7.437-8.186,7.437c-2.816,0-5.545-1.32-7.35-3.521l2.729-3.521
		c1.145,1.276,2.685,2.42,4.445,2.42c1.32,0,2.376-0.88,2.376-2.245c0-1.848-2.112-2.288-4.181-3.168
		c-2.112-0.924-4.181-2.157-4.181-5.501c0-3.917,2.729-6.777,6.646-6.777c2.2,0,5.017,0.66,6.732,2.156l-2.552,3.477
		C388.144,23.153,387,22.537,385.812,22.537z"/>
	<path fill="#9D2250" d="M396.196,39.963V24.077h-2.024v-5.061h2.024v-7.085h5.984v7.085h3.652v5.061h-3.652v15.886H396.196z"/>
	<path fill="#9D2250" d="M414.723,21.217c1.231-1.848,2.992-2.86,5.236-2.86c0.836,0,1.672,0.22,2.464,0.484l-0.748,5.545
		c-0.704-0.484-1.54-0.748-2.464-0.748c-4.137,0-4.532,3.652-4.532,6.909v9.417h-5.985V19.016h5.985v2.201H414.723z"/>
	<path fill="#9D2250" d="M438.353,39.963v-1.937h-0.088c-1.276,1.672-3.521,2.641-5.677,2.641c-6.161,0-9.638-5.589-9.638-11.266
		c0-5.545,3.521-11.045,9.549-11.045c2.156,0,4.401,0.924,5.854,2.64v-1.98h5.853v20.947H438.353z M433.952,23.637
		c-3.081,0-4.93,3.036-4.93,5.853s1.849,5.853,4.93,5.853c3.08,0,4.973-3.037,4.973-5.853S437.032,23.637,433.952,23.637z"/>
	<path fill="#9D2250" d="M463.126,37.983c-1.232,1.716-3.477,2.685-5.633,2.685c-6.16,0-9.637-5.589-9.637-11.266
		c0-5.545,3.521-11.045,9.549-11.045c2.156,0,4.4,0.924,5.721,2.596h0.088V3.79h5.941v36.173h-5.941v-1.98H463.126z M458.857,23.637
		c-3.08,0-4.929,3.036-4.929,5.853s1.849,5.853,4.929,5.853c3.081,0,4.929-3.037,4.929-5.853S461.938,23.637,458.857,23.637z"/>
	<path fill="#9D2250" d="M483.676,40.667c-6.558,0-11.002-4.665-11.002-11.134c0-6.557,4.489-11.177,11.002-11.177
		s11.001,4.621,11.001,11.177C494.677,36.003,490.232,40.667,483.676,40.667z M483.676,35.343c3.08,0,4.929-2.993,4.929-5.809
		c0-2.904-1.849-5.896-4.929-5.896c-3.081,0-4.929,2.992-4.929,5.896C478.747,32.35,480.595,35.343,483.676,35.343z"/>
</g>
</svg>
